M48
; DRILL file {KiCad 7.0.10} date Wed 10 Jan 2024 19:28:40 CET
; FORMAT={-:-/ absolute / inch / decimal}
; #@! TF.CreationDate,2024-01-10T19:28:40+01:00
; #@! TF.GenerationSoftware,Kicad,Pcbnew,7.0.10
; #@! TF.FileFunction,Plated,1,2,PTH
FMAT,2
INCH
; #@! TA.AperFunction,Plated,PTH,ViaDrill
T1C0.0197
; #@! TA.AperFunction,Plated,PTH,ComponentDrill
T2C0.0315
; #@! TA.AperFunction,Plated,PTH,ComponentDrill
T3C0.0354
; #@! TA.AperFunction,Plated,PTH,ComponentDrill
T4C0.0394
; #@! TA.AperFunction,Plated,PTH,ComponentDrill
T5C0.0402
%
G90
G05
T1
X3.4882Y-3.2618
X3.5276Y-5.7382
X4.0079Y-5.5984
X4.2795Y-3.4409
X4.2848Y-5.0945
T2
X4.1742Y-3.6975
X4.1742Y-3.7975
X4.1742Y-3.8975
X4.1742Y-3.9975
X4.1742Y-4.0975
X4.1742Y-4.1975
X4.1742Y-4.2975
X4.1742Y-4.3975
X4.1742Y-4.4975
X4.1742Y-4.5975
X4.1742Y-4.6975
X4.1742Y-4.7975
X4.1742Y-4.8975
X4.1742Y-4.9975
X4.4742Y-3.6975
X4.4742Y-3.7975
X4.4742Y-3.8975
X4.4742Y-3.9975
X4.4742Y-4.0975
X4.4742Y-4.1975
X4.4742Y-4.2975
X4.4742Y-4.3975
X4.4742Y-4.4975
X4.4742Y-4.5975
X4.4742Y-4.6975
X4.4742Y-4.7975
X4.4742Y-4.8975
X4.4742Y-4.9975
T3
X3.8268Y-5.6077
X3.8268Y-5.7077
X4.1496Y-5.6077
X4.1496Y-5.7077
T4
X4.2008Y-3.2
X4.2008Y-3.3
X4.2008Y-3.4
X4.2008Y-3.5
T5
X3.372Y-3.5276
X3.872Y-3.5276
M30
