%TF.GenerationSoftware,KiCad,Pcbnew,7.0.10*%
%TF.CreationDate,2024-01-15T09:17:32+01:00*%
%TF.ProjectId,mold_detect,6d6f6c64-5f64-4657-9465-63742e6b6963,rev?*%
%TF.SameCoordinates,Original*%
%TF.FileFunction,Legend,Top*%
%TF.FilePolarity,Positive*%
%FSLAX46Y46*%
G04 Gerber Fmt 4.6, Leading zero omitted, Abs format (unit mm)*
G04 Created by KiCad (PCBNEW 7.0.10) date 2024-01-15 09:17:32*
%MOMM*%
%LPD*%
G01*
G04 APERTURE LIST*
%ADD10C,0.150000*%
%ADD11C,0.120000*%
G04 APERTURE END LIST*
D10*
X106961905Y-87604819D02*
X106961905Y-86604819D01*
X106961905Y-86604819D02*
X107200000Y-86604819D01*
X107200000Y-86604819D02*
X107342857Y-86652438D01*
X107342857Y-86652438D02*
X107438095Y-86747676D01*
X107438095Y-86747676D02*
X107485714Y-86842914D01*
X107485714Y-86842914D02*
X107533333Y-87033390D01*
X107533333Y-87033390D02*
X107533333Y-87176247D01*
X107533333Y-87176247D02*
X107485714Y-87366723D01*
X107485714Y-87366723D02*
X107438095Y-87461961D01*
X107438095Y-87461961D02*
X107342857Y-87557200D01*
X107342857Y-87557200D02*
X107200000Y-87604819D01*
X107200000Y-87604819D02*
X106961905Y-87604819D01*
X108485714Y-87604819D02*
X107914286Y-87604819D01*
X108200000Y-87604819D02*
X108200000Y-86604819D01*
X108200000Y-86604819D02*
X108104762Y-86747676D01*
X108104762Y-86747676D02*
X108009524Y-86842914D01*
X108009524Y-86842914D02*
X107914286Y-86890533D01*
X98033333Y-88104819D02*
X97700000Y-87628628D01*
X97461905Y-88104819D02*
X97461905Y-87104819D01*
X97461905Y-87104819D02*
X97842857Y-87104819D01*
X97842857Y-87104819D02*
X97938095Y-87152438D01*
X97938095Y-87152438D02*
X97985714Y-87200057D01*
X97985714Y-87200057D02*
X98033333Y-87295295D01*
X98033333Y-87295295D02*
X98033333Y-87438152D01*
X98033333Y-87438152D02*
X97985714Y-87533390D01*
X97985714Y-87533390D02*
X97938095Y-87581009D01*
X97938095Y-87581009D02*
X97842857Y-87628628D01*
X97842857Y-87628628D02*
X97461905Y-87628628D01*
X98604762Y-87533390D02*
X98509524Y-87485771D01*
X98509524Y-87485771D02*
X98461905Y-87438152D01*
X98461905Y-87438152D02*
X98414286Y-87342914D01*
X98414286Y-87342914D02*
X98414286Y-87295295D01*
X98414286Y-87295295D02*
X98461905Y-87200057D01*
X98461905Y-87200057D02*
X98509524Y-87152438D01*
X98509524Y-87152438D02*
X98604762Y-87104819D01*
X98604762Y-87104819D02*
X98795238Y-87104819D01*
X98795238Y-87104819D02*
X98890476Y-87152438D01*
X98890476Y-87152438D02*
X98938095Y-87200057D01*
X98938095Y-87200057D02*
X98985714Y-87295295D01*
X98985714Y-87295295D02*
X98985714Y-87342914D01*
X98985714Y-87342914D02*
X98938095Y-87438152D01*
X98938095Y-87438152D02*
X98890476Y-87485771D01*
X98890476Y-87485771D02*
X98795238Y-87533390D01*
X98795238Y-87533390D02*
X98604762Y-87533390D01*
X98604762Y-87533390D02*
X98509524Y-87581009D01*
X98509524Y-87581009D02*
X98461905Y-87628628D01*
X98461905Y-87628628D02*
X98414286Y-87723866D01*
X98414286Y-87723866D02*
X98414286Y-87914342D01*
X98414286Y-87914342D02*
X98461905Y-88009580D01*
X98461905Y-88009580D02*
X98509524Y-88057200D01*
X98509524Y-88057200D02*
X98604762Y-88104819D01*
X98604762Y-88104819D02*
X98795238Y-88104819D01*
X98795238Y-88104819D02*
X98890476Y-88057200D01*
X98890476Y-88057200D02*
X98938095Y-88009580D01*
X98938095Y-88009580D02*
X98985714Y-87914342D01*
X98985714Y-87914342D02*
X98985714Y-87723866D01*
X98985714Y-87723866D02*
X98938095Y-87628628D01*
X98938095Y-87628628D02*
X98890476Y-87581009D01*
X98890476Y-87581009D02*
X98795238Y-87533390D01*
X102833333Y-88104819D02*
X102500000Y-87628628D01*
X102261905Y-88104819D02*
X102261905Y-87104819D01*
X102261905Y-87104819D02*
X102642857Y-87104819D01*
X102642857Y-87104819D02*
X102738095Y-87152438D01*
X102738095Y-87152438D02*
X102785714Y-87200057D01*
X102785714Y-87200057D02*
X102833333Y-87295295D01*
X102833333Y-87295295D02*
X102833333Y-87438152D01*
X102833333Y-87438152D02*
X102785714Y-87533390D01*
X102785714Y-87533390D02*
X102738095Y-87581009D01*
X102738095Y-87581009D02*
X102642857Y-87628628D01*
X102642857Y-87628628D02*
X102261905Y-87628628D01*
X103166667Y-87104819D02*
X103833333Y-87104819D01*
X103833333Y-87104819D02*
X103404762Y-88104819D01*
X94533333Y-146954819D02*
X94200000Y-146478628D01*
X93961905Y-146954819D02*
X93961905Y-145954819D01*
X93961905Y-145954819D02*
X94342857Y-145954819D01*
X94342857Y-145954819D02*
X94438095Y-146002438D01*
X94438095Y-146002438D02*
X94485714Y-146050057D01*
X94485714Y-146050057D02*
X94533333Y-146145295D01*
X94533333Y-146145295D02*
X94533333Y-146288152D01*
X94533333Y-146288152D02*
X94485714Y-146383390D01*
X94485714Y-146383390D02*
X94438095Y-146431009D01*
X94438095Y-146431009D02*
X94342857Y-146478628D01*
X94342857Y-146478628D02*
X93961905Y-146478628D01*
X95390476Y-145954819D02*
X95200000Y-145954819D01*
X95200000Y-145954819D02*
X95104762Y-146002438D01*
X95104762Y-146002438D02*
X95057143Y-146050057D01*
X95057143Y-146050057D02*
X94961905Y-146192914D01*
X94961905Y-146192914D02*
X94914286Y-146383390D01*
X94914286Y-146383390D02*
X94914286Y-146764342D01*
X94914286Y-146764342D02*
X94961905Y-146859580D01*
X94961905Y-146859580D02*
X95009524Y-146907200D01*
X95009524Y-146907200D02*
X95104762Y-146954819D01*
X95104762Y-146954819D02*
X95295238Y-146954819D01*
X95295238Y-146954819D02*
X95390476Y-146907200D01*
X95390476Y-146907200D02*
X95438095Y-146859580D01*
X95438095Y-146859580D02*
X95485714Y-146764342D01*
X95485714Y-146764342D02*
X95485714Y-146526247D01*
X95485714Y-146526247D02*
X95438095Y-146431009D01*
X95438095Y-146431009D02*
X95390476Y-146383390D01*
X95390476Y-146383390D02*
X95295238Y-146335771D01*
X95295238Y-146335771D02*
X95104762Y-146335771D01*
X95104762Y-146335771D02*
X95009524Y-146383390D01*
X95009524Y-146383390D02*
X94961905Y-146431009D01*
X94961905Y-146431009D02*
X94914286Y-146526247D01*
X94583333Y-141954819D02*
X94250000Y-141478628D01*
X94011905Y-141954819D02*
X94011905Y-140954819D01*
X94011905Y-140954819D02*
X94392857Y-140954819D01*
X94392857Y-140954819D02*
X94488095Y-141002438D01*
X94488095Y-141002438D02*
X94535714Y-141050057D01*
X94535714Y-141050057D02*
X94583333Y-141145295D01*
X94583333Y-141145295D02*
X94583333Y-141288152D01*
X94583333Y-141288152D02*
X94535714Y-141383390D01*
X94535714Y-141383390D02*
X94488095Y-141431009D01*
X94488095Y-141431009D02*
X94392857Y-141478628D01*
X94392857Y-141478628D02*
X94011905Y-141478628D01*
X95488095Y-140954819D02*
X95011905Y-140954819D01*
X95011905Y-140954819D02*
X94964286Y-141431009D01*
X94964286Y-141431009D02*
X95011905Y-141383390D01*
X95011905Y-141383390D02*
X95107143Y-141335771D01*
X95107143Y-141335771D02*
X95345238Y-141335771D01*
X95345238Y-141335771D02*
X95440476Y-141383390D01*
X95440476Y-141383390D02*
X95488095Y-141431009D01*
X95488095Y-141431009D02*
X95535714Y-141526247D01*
X95535714Y-141526247D02*
X95535714Y-141764342D01*
X95535714Y-141764342D02*
X95488095Y-141859580D01*
X95488095Y-141859580D02*
X95440476Y-141907200D01*
X95440476Y-141907200D02*
X95345238Y-141954819D01*
X95345238Y-141954819D02*
X95107143Y-141954819D01*
X95107143Y-141954819D02*
X95011905Y-141907200D01*
X95011905Y-141907200D02*
X94964286Y-141859580D01*
X106283333Y-90604819D02*
X105950000Y-90128628D01*
X105711905Y-90604819D02*
X105711905Y-89604819D01*
X105711905Y-89604819D02*
X106092857Y-89604819D01*
X106092857Y-89604819D02*
X106188095Y-89652438D01*
X106188095Y-89652438D02*
X106235714Y-89700057D01*
X106235714Y-89700057D02*
X106283333Y-89795295D01*
X106283333Y-89795295D02*
X106283333Y-89938152D01*
X106283333Y-89938152D02*
X106235714Y-90033390D01*
X106235714Y-90033390D02*
X106188095Y-90081009D01*
X106188095Y-90081009D02*
X106092857Y-90128628D01*
X106092857Y-90128628D02*
X105711905Y-90128628D01*
X107140476Y-89938152D02*
X107140476Y-90604819D01*
X106902381Y-89557200D02*
X106664286Y-90271485D01*
X106664286Y-90271485D02*
X107283333Y-90271485D01*
X113433333Y-87104819D02*
X113100000Y-86628628D01*
X112861905Y-87104819D02*
X112861905Y-86104819D01*
X112861905Y-86104819D02*
X113242857Y-86104819D01*
X113242857Y-86104819D02*
X113338095Y-86152438D01*
X113338095Y-86152438D02*
X113385714Y-86200057D01*
X113385714Y-86200057D02*
X113433333Y-86295295D01*
X113433333Y-86295295D02*
X113433333Y-86438152D01*
X113433333Y-86438152D02*
X113385714Y-86533390D01*
X113385714Y-86533390D02*
X113338095Y-86581009D01*
X113338095Y-86581009D02*
X113242857Y-86628628D01*
X113242857Y-86628628D02*
X112861905Y-86628628D01*
X113766667Y-86104819D02*
X114385714Y-86104819D01*
X114385714Y-86104819D02*
X114052381Y-86485771D01*
X114052381Y-86485771D02*
X114195238Y-86485771D01*
X114195238Y-86485771D02*
X114290476Y-86533390D01*
X114290476Y-86533390D02*
X114338095Y-86581009D01*
X114338095Y-86581009D02*
X114385714Y-86676247D01*
X114385714Y-86676247D02*
X114385714Y-86914342D01*
X114385714Y-86914342D02*
X114338095Y-87009580D01*
X114338095Y-87009580D02*
X114290476Y-87057200D01*
X114290476Y-87057200D02*
X114195238Y-87104819D01*
X114195238Y-87104819D02*
X113909524Y-87104819D01*
X113909524Y-87104819D02*
X113814286Y-87057200D01*
X113814286Y-87057200D02*
X113766667Y-87009580D01*
X101183333Y-147184819D02*
X100850000Y-146708628D01*
X100611905Y-147184819D02*
X100611905Y-146184819D01*
X100611905Y-146184819D02*
X100992857Y-146184819D01*
X100992857Y-146184819D02*
X101088095Y-146232438D01*
X101088095Y-146232438D02*
X101135714Y-146280057D01*
X101135714Y-146280057D02*
X101183333Y-146375295D01*
X101183333Y-146375295D02*
X101183333Y-146518152D01*
X101183333Y-146518152D02*
X101135714Y-146613390D01*
X101135714Y-146613390D02*
X101088095Y-146661009D01*
X101088095Y-146661009D02*
X100992857Y-146708628D01*
X100992857Y-146708628D02*
X100611905Y-146708628D01*
X101564286Y-146280057D02*
X101611905Y-146232438D01*
X101611905Y-146232438D02*
X101707143Y-146184819D01*
X101707143Y-146184819D02*
X101945238Y-146184819D01*
X101945238Y-146184819D02*
X102040476Y-146232438D01*
X102040476Y-146232438D02*
X102088095Y-146280057D01*
X102088095Y-146280057D02*
X102135714Y-146375295D01*
X102135714Y-146375295D02*
X102135714Y-146470533D01*
X102135714Y-146470533D02*
X102088095Y-146613390D01*
X102088095Y-146613390D02*
X101516667Y-147184819D01*
X101516667Y-147184819D02*
X102135714Y-147184819D01*
X101083333Y-142574819D02*
X100750000Y-142098628D01*
X100511905Y-142574819D02*
X100511905Y-141574819D01*
X100511905Y-141574819D02*
X100892857Y-141574819D01*
X100892857Y-141574819D02*
X100988095Y-141622438D01*
X100988095Y-141622438D02*
X101035714Y-141670057D01*
X101035714Y-141670057D02*
X101083333Y-141765295D01*
X101083333Y-141765295D02*
X101083333Y-141908152D01*
X101083333Y-141908152D02*
X101035714Y-142003390D01*
X101035714Y-142003390D02*
X100988095Y-142051009D01*
X100988095Y-142051009D02*
X100892857Y-142098628D01*
X100892857Y-142098628D02*
X100511905Y-142098628D01*
X102035714Y-142574819D02*
X101464286Y-142574819D01*
X101750000Y-142574819D02*
X101750000Y-141574819D01*
X101750000Y-141574819D02*
X101654762Y-141717676D01*
X101654762Y-141717676D02*
X101559524Y-141812914D01*
X101559524Y-141812914D02*
X101464286Y-141860533D01*
X87833333Y-86209580D02*
X87785714Y-86257200D01*
X87785714Y-86257200D02*
X87642857Y-86304819D01*
X87642857Y-86304819D02*
X87547619Y-86304819D01*
X87547619Y-86304819D02*
X87404762Y-86257200D01*
X87404762Y-86257200D02*
X87309524Y-86161961D01*
X87309524Y-86161961D02*
X87261905Y-86066723D01*
X87261905Y-86066723D02*
X87214286Y-85876247D01*
X87214286Y-85876247D02*
X87214286Y-85733390D01*
X87214286Y-85733390D02*
X87261905Y-85542914D01*
X87261905Y-85542914D02*
X87309524Y-85447676D01*
X87309524Y-85447676D02*
X87404762Y-85352438D01*
X87404762Y-85352438D02*
X87547619Y-85304819D01*
X87547619Y-85304819D02*
X87642857Y-85304819D01*
X87642857Y-85304819D02*
X87785714Y-85352438D01*
X87785714Y-85352438D02*
X87833333Y-85400057D01*
X88166667Y-85304819D02*
X88785714Y-85304819D01*
X88785714Y-85304819D02*
X88452381Y-85685771D01*
X88452381Y-85685771D02*
X88595238Y-85685771D01*
X88595238Y-85685771D02*
X88690476Y-85733390D01*
X88690476Y-85733390D02*
X88738095Y-85781009D01*
X88738095Y-85781009D02*
X88785714Y-85876247D01*
X88785714Y-85876247D02*
X88785714Y-86114342D01*
X88785714Y-86114342D02*
X88738095Y-86209580D01*
X88738095Y-86209580D02*
X88690476Y-86257200D01*
X88690476Y-86257200D02*
X88595238Y-86304819D01*
X88595238Y-86304819D02*
X88309524Y-86304819D01*
X88309524Y-86304819D02*
X88214286Y-86257200D01*
X88214286Y-86257200D02*
X88166667Y-86209580D01*
X86233333Y-143859580D02*
X86185714Y-143907200D01*
X86185714Y-143907200D02*
X86042857Y-143954819D01*
X86042857Y-143954819D02*
X85947619Y-143954819D01*
X85947619Y-143954819D02*
X85804762Y-143907200D01*
X85804762Y-143907200D02*
X85709524Y-143811961D01*
X85709524Y-143811961D02*
X85661905Y-143716723D01*
X85661905Y-143716723D02*
X85614286Y-143526247D01*
X85614286Y-143526247D02*
X85614286Y-143383390D01*
X85614286Y-143383390D02*
X85661905Y-143192914D01*
X85661905Y-143192914D02*
X85709524Y-143097676D01*
X85709524Y-143097676D02*
X85804762Y-143002438D01*
X85804762Y-143002438D02*
X85947619Y-142954819D01*
X85947619Y-142954819D02*
X86042857Y-142954819D01*
X86042857Y-142954819D02*
X86185714Y-143002438D01*
X86185714Y-143002438D02*
X86233333Y-143050057D01*
X87185714Y-143954819D02*
X86614286Y-143954819D01*
X86900000Y-143954819D02*
X86900000Y-142954819D01*
X86900000Y-142954819D02*
X86804762Y-143097676D01*
X86804762Y-143097676D02*
X86709524Y-143192914D01*
X86709524Y-143192914D02*
X86614286Y-143240533D01*
X106766666Y-80889819D02*
X106766666Y-81604104D01*
X106766666Y-81604104D02*
X106719047Y-81746961D01*
X106719047Y-81746961D02*
X106623809Y-81842200D01*
X106623809Y-81842200D02*
X106480952Y-81889819D01*
X106480952Y-81889819D02*
X106385714Y-81889819D01*
X107766666Y-81889819D02*
X107195238Y-81889819D01*
X107480952Y-81889819D02*
X107480952Y-80889819D01*
X107480952Y-80889819D02*
X107385714Y-81032676D01*
X107385714Y-81032676D02*
X107290476Y-81127914D01*
X107290476Y-81127914D02*
X107195238Y-81175533D01*
X87138095Y-80304819D02*
X87138095Y-81114342D01*
X87138095Y-81114342D02*
X87185714Y-81209580D01*
X87185714Y-81209580D02*
X87233333Y-81257200D01*
X87233333Y-81257200D02*
X87328571Y-81304819D01*
X87328571Y-81304819D02*
X87519047Y-81304819D01*
X87519047Y-81304819D02*
X87614285Y-81257200D01*
X87614285Y-81257200D02*
X87661904Y-81209580D01*
X87661904Y-81209580D02*
X87709523Y-81114342D01*
X87709523Y-81114342D02*
X87709523Y-80304819D01*
X88661904Y-80304819D02*
X88185714Y-80304819D01*
X88185714Y-80304819D02*
X88138095Y-80781009D01*
X88138095Y-80781009D02*
X88185714Y-80733390D01*
X88185714Y-80733390D02*
X88280952Y-80685771D01*
X88280952Y-80685771D02*
X88519047Y-80685771D01*
X88519047Y-80685771D02*
X88614285Y-80733390D01*
X88614285Y-80733390D02*
X88661904Y-80781009D01*
X88661904Y-80781009D02*
X88709523Y-80876247D01*
X88709523Y-80876247D02*
X88709523Y-81114342D01*
X88709523Y-81114342D02*
X88661904Y-81209580D01*
X88661904Y-81209580D02*
X88614285Y-81257200D01*
X88614285Y-81257200D02*
X88519047Y-81304819D01*
X88519047Y-81304819D02*
X88280952Y-81304819D01*
X88280952Y-81304819D02*
X88185714Y-81257200D01*
X88185714Y-81257200D02*
X88138095Y-81209580D01*
X85128571Y-91714700D02*
X86271429Y-91714700D01*
X98464700Y-102871428D02*
X98464700Y-101728571D01*
X99036128Y-102299999D02*
X97893271Y-102299999D01*
X98314700Y-92171428D02*
X98314700Y-91028571D01*
X98886128Y-91599999D02*
X97743271Y-91599999D01*
X98464700Y-125271428D02*
X98464700Y-124128571D01*
X85764700Y-102871428D02*
X85764700Y-101728571D01*
X85764700Y-125271428D02*
X85764700Y-124128571D01*
X86336128Y-124699999D02*
X85193271Y-124699999D01*
X89788095Y-140804819D02*
X89788095Y-141614342D01*
X89788095Y-141614342D02*
X89835714Y-141709580D01*
X89835714Y-141709580D02*
X89883333Y-141757200D01*
X89883333Y-141757200D02*
X89978571Y-141804819D01*
X89978571Y-141804819D02*
X90169047Y-141804819D01*
X90169047Y-141804819D02*
X90264285Y-141757200D01*
X90264285Y-141757200D02*
X90311904Y-141709580D01*
X90311904Y-141709580D02*
X90359523Y-141614342D01*
X90359523Y-141614342D02*
X90359523Y-140804819D01*
X91359523Y-141804819D02*
X90788095Y-141804819D01*
X91073809Y-141804819D02*
X91073809Y-140804819D01*
X91073809Y-140804819D02*
X90978571Y-140947676D01*
X90978571Y-140947676D02*
X90883333Y-141042914D01*
X90883333Y-141042914D02*
X90788095Y-141090533D01*
X113173095Y-134054819D02*
X113173095Y-134864342D01*
X113173095Y-134864342D02*
X113220714Y-134959580D01*
X113220714Y-134959580D02*
X113268333Y-135007200D01*
X113268333Y-135007200D02*
X113363571Y-135054819D01*
X113363571Y-135054819D02*
X113554047Y-135054819D01*
X113554047Y-135054819D02*
X113649285Y-135007200D01*
X113649285Y-135007200D02*
X113696904Y-134959580D01*
X113696904Y-134959580D02*
X113744523Y-134864342D01*
X113744523Y-134864342D02*
X113744523Y-134054819D01*
X114649285Y-134388152D02*
X114649285Y-135054819D01*
X114411190Y-134007200D02*
X114173095Y-134721485D01*
X114173095Y-134721485D02*
X114792142Y-134721485D01*
X109888095Y-86354819D02*
X109888095Y-87164342D01*
X109888095Y-87164342D02*
X109935714Y-87259580D01*
X109935714Y-87259580D02*
X109983333Y-87307200D01*
X109983333Y-87307200D02*
X110078571Y-87354819D01*
X110078571Y-87354819D02*
X110269047Y-87354819D01*
X110269047Y-87354819D02*
X110364285Y-87307200D01*
X110364285Y-87307200D02*
X110411904Y-87259580D01*
X110411904Y-87259580D02*
X110459523Y-87164342D01*
X110459523Y-87164342D02*
X110459523Y-86354819D01*
X110888095Y-86450057D02*
X110935714Y-86402438D01*
X110935714Y-86402438D02*
X111030952Y-86354819D01*
X111030952Y-86354819D02*
X111269047Y-86354819D01*
X111269047Y-86354819D02*
X111364285Y-86402438D01*
X111364285Y-86402438D02*
X111411904Y-86450057D01*
X111411904Y-86450057D02*
X111459523Y-86545295D01*
X111459523Y-86545295D02*
X111459523Y-86640533D01*
X111459523Y-86640533D02*
X111411904Y-86783390D01*
X111411904Y-86783390D02*
X110840476Y-87354819D01*
X110840476Y-87354819D02*
X111459523Y-87354819D01*
X110038095Y-91154819D02*
X110038095Y-91964342D01*
X110038095Y-91964342D02*
X110085714Y-92059580D01*
X110085714Y-92059580D02*
X110133333Y-92107200D01*
X110133333Y-92107200D02*
X110228571Y-92154819D01*
X110228571Y-92154819D02*
X110419047Y-92154819D01*
X110419047Y-92154819D02*
X110514285Y-92107200D01*
X110514285Y-92107200D02*
X110561904Y-92059580D01*
X110561904Y-92059580D02*
X110609523Y-91964342D01*
X110609523Y-91964342D02*
X110609523Y-91154819D01*
X110990476Y-91154819D02*
X111609523Y-91154819D01*
X111609523Y-91154819D02*
X111276190Y-91535771D01*
X111276190Y-91535771D02*
X111419047Y-91535771D01*
X111419047Y-91535771D02*
X111514285Y-91583390D01*
X111514285Y-91583390D02*
X111561904Y-91631009D01*
X111561904Y-91631009D02*
X111609523Y-91726247D01*
X111609523Y-91726247D02*
X111609523Y-91964342D01*
X111609523Y-91964342D02*
X111561904Y-92059580D01*
X111561904Y-92059580D02*
X111514285Y-92107200D01*
X111514285Y-92107200D02*
X111419047Y-92154819D01*
X111419047Y-92154819D02*
X111133333Y-92154819D01*
X111133333Y-92154819D02*
X111038095Y-92107200D01*
X111038095Y-92107200D02*
X110990476Y-92059580D01*
D11*
%TO.C,D1*%
X106750000Y-85340000D02*
X105050000Y-85340000D01*
X106750000Y-85340000D02*
X106750000Y-88600000D01*
X105050000Y-85340000D02*
X105050000Y-88600000D01*
%TO.C,R8*%
X98454724Y-86222500D02*
X97945276Y-86222500D01*
X98454724Y-85177500D02*
X97945276Y-85177500D01*
%TO.C,R7*%
X102745276Y-85177500D02*
X103254724Y-85177500D01*
X102745276Y-86222500D02*
X103254724Y-86222500D01*
%TO.C,R6*%
X92552500Y-145854724D02*
X92552500Y-145345276D01*
X93597500Y-145854724D02*
X93597500Y-145345276D01*
%TO.C,R5*%
X93597500Y-141945276D02*
X93597500Y-142454724D01*
X92552500Y-141945276D02*
X92552500Y-142454724D01*
%TO.C,R4*%
X106804724Y-92072500D02*
X106295276Y-92072500D01*
X106804724Y-91027500D02*
X106295276Y-91027500D01*
%TO.C,R3*%
X114072500Y-88795276D02*
X114072500Y-89304724D01*
X113027500Y-88795276D02*
X113027500Y-89304724D01*
%TO.C,R2*%
X101604724Y-145822500D02*
X101095276Y-145822500D01*
X101604724Y-144777500D02*
X101095276Y-144777500D01*
%TO.C,R1*%
X100995276Y-143027500D02*
X101504724Y-143027500D01*
X100995276Y-144072500D02*
X101504724Y-144072500D01*
%TO.C,C3*%
X88660000Y-83303733D02*
X88660000Y-83596267D01*
X87640000Y-83303733D02*
X87640000Y-83596267D01*
%TO.C,C1*%
X87540000Y-143646267D02*
X87540000Y-143353733D01*
X88560000Y-143646267D02*
X88560000Y-143353733D01*
%TO.C,J1*%
X95930000Y-80245000D02*
X95930000Y-81945000D01*
X105270000Y-80245000D02*
X105270000Y-81945000D01*
D10*
%TO.C,U5*%
X94475000Y-84550000D02*
X94475000Y-80550000D01*
X89075000Y-85825000D02*
X89075000Y-80550000D01*
D11*
%TO.C,BT1*%
X104400000Y-86900000D02*
X79600000Y-86900000D01*
X79595000Y-86900000D02*
X79595000Y-140100000D01*
X103430000Y-88330000D02*
X80570000Y-88330000D01*
X92350000Y-88330000D02*
X92350000Y-111190000D01*
X80570000Y-88330000D02*
X80570000Y-90870000D01*
X103430000Y-90870000D02*
X103430000Y-88330000D01*
X102160000Y-90870000D02*
X103430000Y-90870000D01*
X102160000Y-90870000D02*
X102160000Y-103570000D01*
X81840000Y-90870000D02*
X81840000Y-103570000D01*
X80570000Y-90870000D02*
X81840000Y-90870000D01*
X103430000Y-103570000D02*
X102160000Y-103570000D01*
X99620000Y-103570000D02*
X99620000Y-104840000D01*
X97080000Y-103570000D02*
X99620000Y-103570000D01*
X88190000Y-103570000D02*
X88190000Y-122160000D01*
X83110000Y-103570000D02*
X88190000Y-103570000D01*
X81840000Y-103570000D02*
X80570000Y-103570000D01*
X80570000Y-103570000D02*
X80570000Y-123430000D01*
X100890000Y-104840000D02*
X100890000Y-123430000D01*
X99620000Y-104840000D02*
X100890000Y-104840000D01*
X97080000Y-104840000D02*
X97080000Y-103570000D01*
X95810000Y-104840000D02*
X97080000Y-104840000D01*
X92350000Y-111190000D02*
X91650000Y-111190000D01*
X91650000Y-111190000D02*
X91650000Y-88330000D01*
X92350000Y-118350000D02*
X91650000Y-118350000D01*
X91650000Y-118350000D02*
X91650000Y-138670000D01*
X88190000Y-122160000D02*
X86920000Y-122160000D01*
X86920000Y-122160000D02*
X86920000Y-123430000D01*
X84380000Y-122160000D02*
X83110000Y-122160000D01*
X83110000Y-122160000D02*
X83110000Y-103570000D01*
X103430000Y-123430000D02*
X103430000Y-103570000D01*
X102160000Y-123430000D02*
X103430000Y-123430000D01*
X100890000Y-123430000D02*
X95810000Y-123430000D01*
X95810000Y-123430000D02*
X95810000Y-104840000D01*
X86920000Y-123430000D02*
X84380000Y-123430000D01*
X84380000Y-123430000D02*
X84380000Y-122160000D01*
X80570000Y-123430000D02*
X81840000Y-123430000D01*
X103430000Y-136130000D02*
X102160000Y-136130000D01*
X102160000Y-136130000D02*
X102160000Y-123430000D01*
X81840000Y-136130000D02*
X81840000Y-123430000D01*
X80570000Y-136130000D02*
X81840000Y-136130000D01*
X103430000Y-138670000D02*
X103430000Y-136130000D01*
X103430000Y-138670000D02*
X80570000Y-138670000D01*
X92350000Y-138670000D02*
X92350000Y-118350000D01*
X80570000Y-138670000D02*
X80570000Y-136130000D01*
X104405000Y-140100000D02*
X104405000Y-86900000D01*
X79600000Y-140100000D02*
X104400000Y-140100000D01*
%TO.C,U1*%
X91640000Y-145010000D02*
X89900000Y-145010000D01*
X91200000Y-142190000D02*
X89900000Y-142190000D01*
%TO.C,U4*%
X112625000Y-131957500D02*
X112365000Y-131957500D01*
X112365000Y-131957500D02*
X112365000Y-130282500D01*
X107175000Y-131957500D02*
X107435000Y-131957500D01*
X112625000Y-134682500D02*
X112625000Y-131957500D01*
X112625000Y-134682500D02*
X112625000Y-137407500D01*
X107175000Y-134682500D02*
X107175000Y-131957500D01*
X107175000Y-134682500D02*
X107175000Y-137407500D01*
X112625000Y-137407500D02*
X112365000Y-137407500D01*
X107175000Y-137407500D02*
X107435000Y-137407500D01*
%TO.C,Red1*%
X95964000Y-145265000D02*
X96120000Y-145265000D01*
X98280000Y-145265000D02*
X98436000Y-145265000D01*
X96121392Y-142032666D02*
G75*
G03*
X95964485Y-145264999I1078608J-1672334D01*
G01*
X96120164Y-142663871D02*
G75*
G03*
X96120001Y-144745960I1079836J-1041129D01*
G01*
X98279999Y-144745960D02*
G75*
G03*
X98279836Y-142663871I-1079999J1040960D01*
G01*
X98435515Y-145264999D02*
G75*
G03*
X98278608Y-142032666I-1235515J1559999D01*
G01*
%TO.C,Blue1*%
X104164000Y-145265000D02*
X104320000Y-145265000D01*
X106480000Y-145265000D02*
X106636000Y-145265000D01*
X104321392Y-142032666D02*
G75*
G03*
X104164485Y-145264999I1078608J-1672334D01*
G01*
X104320164Y-142663871D02*
G75*
G03*
X104320001Y-144745960I1079836J-1041129D01*
G01*
X106479999Y-144745960D02*
G75*
G03*
X106479836Y-142663871I-1079999J1040960D01*
G01*
X106635515Y-145264999D02*
G75*
G03*
X106478608Y-142032666I-1235515J1559999D01*
G01*
%TO.C,U2*%
X110650000Y-87740000D02*
X109850000Y-87740000D01*
X110650000Y-87740000D02*
X111450000Y-87740000D01*
X110650000Y-90860000D02*
X109850000Y-90860000D01*
X110650000Y-90860000D02*
X112450000Y-90860000D01*
%TO.C,U3*%
X108835000Y-92587107D02*
G75*
G03*
X110835000Y-92587107I1000000J0D01*
G01*
X112485000Y-128267107D02*
X112485000Y-92587107D01*
X112485000Y-92587107D02*
X110835000Y-92587107D01*
X108835000Y-92587107D02*
X107185000Y-92587107D01*
X107185000Y-128267107D02*
X112485000Y-128267107D01*
X107185000Y-92587107D02*
X107185000Y-128267107D01*
%TD*%
M02*
