%TF.GenerationSoftware,KiCad,Pcbnew,8.0.1*%
%TF.CreationDate,2024-04-18T16:05:34+02:00*%
%TF.ProjectId,mold_detect,6d6f6c64-5f64-4657-9465-63742e6b6963,rev?*%
%TF.SameCoordinates,Original*%
%TF.FileFunction,Drillmap*%
%TF.FilePolarity,Positive*%
%FSLAX45Y45*%
G04 Gerber Fmt 4.5, Leading zero omitted, Abs format (unit mm)*
G04 Created by KiCad (PCBNEW 8.0.1) date 2024-04-18 16:05:34*
%MOMM*%
%LPD*%
G01*
G04 APERTURE LIST*
%ADD10C,0.100000*%
%ADD11C,0.200000*%
%ADD12C,0.320000*%
%ADD13C,0.345000*%
G04 APERTURE END LIST*
D10*
X10350000Y-5000000D02*
X10350000Y-10000000D01*
X5000000Y-10350000D02*
G75*
G02*
X4650000Y-10000000I0J350000D01*
G01*
X10000000Y-10350000D02*
X5000000Y-10350000D01*
X4650000Y-10000000D02*
X4650000Y-5000000D01*
X10350000Y-10000000D02*
G75*
G02*
X10000000Y-10350000I-350000J0D01*
G01*
X10000000Y-4650000D02*
G75*
G02*
X10350000Y-5000000I0J-350000D01*
G01*
X4650000Y-5000000D02*
G75*
G02*
X5000000Y-4650000I350000J0D01*
G01*
X5000000Y-4650000D02*
X10000000Y-4650000D01*
D11*
D10*
X9807000Y-6368500D02*
X9872000Y-6433500D01*
X9872000Y-6368500D02*
X9807000Y-6433500D01*
X9807000Y-6946500D02*
X9872000Y-7011500D01*
X9872000Y-6946500D02*
X9807000Y-7011500D01*
D12*
X5160000Y-5000000D02*
G75*
G02*
X4840000Y-5000000I-160000J0D01*
G01*
X4840000Y-5000000D02*
G75*
G02*
X5160000Y-5000000I160000J0D01*
G01*
X5160000Y-10000000D02*
G75*
G02*
X4840000Y-10000000I-160000J0D01*
G01*
X4840000Y-10000000D02*
G75*
G02*
X5160000Y-10000000I160000J0D01*
G01*
X10160000Y-5000000D02*
G75*
G02*
X9840000Y-5000000I-160000J0D01*
G01*
X9840000Y-5000000D02*
G75*
G02*
X10160000Y-5000000I160000J0D01*
G01*
X10160000Y-10000000D02*
G75*
G02*
X9840000Y-10000000I-160000J0D01*
G01*
X9840000Y-10000000D02*
G75*
G02*
X10160000Y-10000000I160000J0D01*
G01*
D13*
X8098250Y-5801500D02*
X8098250Y-6146500D01*
X7925750Y-5974000D02*
X8270750Y-5974000D01*
X8568250Y-8798500D02*
X8568250Y-9143500D01*
X8395750Y-8971000D02*
X8740750Y-8971000D01*
D11*
X4905777Y-10666484D02*
X4905777Y-10466484D01*
X4905777Y-10466484D02*
X4953396Y-10466484D01*
X4953396Y-10466484D02*
X4981967Y-10476008D01*
X4981967Y-10476008D02*
X5001015Y-10495055D01*
X5001015Y-10495055D02*
X5010539Y-10514103D01*
X5010539Y-10514103D02*
X5020063Y-10552198D01*
X5020063Y-10552198D02*
X5020063Y-10580770D01*
X5020063Y-10580770D02*
X5010539Y-10618865D01*
X5010539Y-10618865D02*
X5001015Y-10637912D01*
X5001015Y-10637912D02*
X4981967Y-10656960D01*
X4981967Y-10656960D02*
X4953396Y-10666484D01*
X4953396Y-10666484D02*
X4905777Y-10666484D01*
X5105777Y-10666484D02*
X5105777Y-10533150D01*
X5105777Y-10571246D02*
X5115301Y-10552198D01*
X5115301Y-10552198D02*
X5124824Y-10542674D01*
X5124824Y-10542674D02*
X5143872Y-10533150D01*
X5143872Y-10533150D02*
X5162920Y-10533150D01*
X5229586Y-10666484D02*
X5229586Y-10533150D01*
X5229586Y-10466484D02*
X5220063Y-10476008D01*
X5220063Y-10476008D02*
X5229586Y-10485531D01*
X5229586Y-10485531D02*
X5239110Y-10476008D01*
X5239110Y-10476008D02*
X5229586Y-10466484D01*
X5229586Y-10466484D02*
X5229586Y-10485531D01*
X5353396Y-10666484D02*
X5334348Y-10656960D01*
X5334348Y-10656960D02*
X5324824Y-10637912D01*
X5324824Y-10637912D02*
X5324824Y-10466484D01*
X5458158Y-10666484D02*
X5439110Y-10656960D01*
X5439110Y-10656960D02*
X5429586Y-10637912D01*
X5429586Y-10637912D02*
X5429586Y-10466484D01*
X5686729Y-10666484D02*
X5686729Y-10466484D01*
X5686729Y-10466484D02*
X5753396Y-10609341D01*
X5753396Y-10609341D02*
X5820062Y-10466484D01*
X5820062Y-10466484D02*
X5820062Y-10666484D01*
X6001015Y-10666484D02*
X6001015Y-10561722D01*
X6001015Y-10561722D02*
X5991491Y-10542674D01*
X5991491Y-10542674D02*
X5972443Y-10533150D01*
X5972443Y-10533150D02*
X5934348Y-10533150D01*
X5934348Y-10533150D02*
X5915301Y-10542674D01*
X6001015Y-10656960D02*
X5981967Y-10666484D01*
X5981967Y-10666484D02*
X5934348Y-10666484D01*
X5934348Y-10666484D02*
X5915301Y-10656960D01*
X5915301Y-10656960D02*
X5905777Y-10637912D01*
X5905777Y-10637912D02*
X5905777Y-10618865D01*
X5905777Y-10618865D02*
X5915301Y-10599817D01*
X5915301Y-10599817D02*
X5934348Y-10590293D01*
X5934348Y-10590293D02*
X5981967Y-10590293D01*
X5981967Y-10590293D02*
X6001015Y-10580770D01*
X6096253Y-10533150D02*
X6096253Y-10733150D01*
X6096253Y-10542674D02*
X6115301Y-10533150D01*
X6115301Y-10533150D02*
X6153396Y-10533150D01*
X6153396Y-10533150D02*
X6172443Y-10542674D01*
X6172443Y-10542674D02*
X6181967Y-10552198D01*
X6181967Y-10552198D02*
X6191491Y-10571246D01*
X6191491Y-10571246D02*
X6191491Y-10628389D01*
X6191491Y-10628389D02*
X6181967Y-10647436D01*
X6181967Y-10647436D02*
X6172443Y-10656960D01*
X6172443Y-10656960D02*
X6153396Y-10666484D01*
X6153396Y-10666484D02*
X6115301Y-10666484D01*
X6115301Y-10666484D02*
X6096253Y-10656960D01*
X6277205Y-10647436D02*
X6286729Y-10656960D01*
X6286729Y-10656960D02*
X6277205Y-10666484D01*
X6277205Y-10666484D02*
X6267682Y-10656960D01*
X6267682Y-10656960D02*
X6277205Y-10647436D01*
X6277205Y-10647436D02*
X6277205Y-10666484D01*
X6277205Y-10542674D02*
X6286729Y-10552198D01*
X6286729Y-10552198D02*
X6277205Y-10561722D01*
X6277205Y-10561722D02*
X6267682Y-10552198D01*
X6267682Y-10552198D02*
X6277205Y-10542674D01*
X6277205Y-10542674D02*
X6277205Y-10561722D01*
D10*
X4580000Y-10962500D02*
X4645000Y-11027500D01*
X4645000Y-10962500D02*
X4580000Y-11027500D01*
D11*
X4943872Y-10886484D02*
X4962920Y-10886484D01*
X4962920Y-10886484D02*
X4981967Y-10896008D01*
X4981967Y-10896008D02*
X4991491Y-10905531D01*
X4991491Y-10905531D02*
X5001015Y-10924579D01*
X5001015Y-10924579D02*
X5010539Y-10962674D01*
X5010539Y-10962674D02*
X5010539Y-11010293D01*
X5010539Y-11010293D02*
X5001015Y-11048389D01*
X5001015Y-11048389D02*
X4991491Y-11067436D01*
X4991491Y-11067436D02*
X4981967Y-11076960D01*
X4981967Y-11076960D02*
X4962920Y-11086484D01*
X4962920Y-11086484D02*
X4943872Y-11086484D01*
X4943872Y-11086484D02*
X4924824Y-11076960D01*
X4924824Y-11076960D02*
X4915301Y-11067436D01*
X4915301Y-11067436D02*
X4905777Y-11048389D01*
X4905777Y-11048389D02*
X4896253Y-11010293D01*
X4896253Y-11010293D02*
X4896253Y-10962674D01*
X4896253Y-10962674D02*
X4905777Y-10924579D01*
X4905777Y-10924579D02*
X4915301Y-10905531D01*
X4915301Y-10905531D02*
X4924824Y-10896008D01*
X4924824Y-10896008D02*
X4943872Y-10886484D01*
X5096253Y-11067436D02*
X5105777Y-11076960D01*
X5105777Y-11076960D02*
X5096253Y-11086484D01*
X5096253Y-11086484D02*
X5086729Y-11076960D01*
X5086729Y-11076960D02*
X5096253Y-11067436D01*
X5096253Y-11067436D02*
X5096253Y-11086484D01*
X5277205Y-10886484D02*
X5239110Y-10886484D01*
X5239110Y-10886484D02*
X5220063Y-10896008D01*
X5220063Y-10896008D02*
X5210539Y-10905531D01*
X5210539Y-10905531D02*
X5191491Y-10934103D01*
X5191491Y-10934103D02*
X5181967Y-10972198D01*
X5181967Y-10972198D02*
X5181967Y-11048389D01*
X5181967Y-11048389D02*
X5191491Y-11067436D01*
X5191491Y-11067436D02*
X5201015Y-11076960D01*
X5201015Y-11076960D02*
X5220063Y-11086484D01*
X5220063Y-11086484D02*
X5258158Y-11086484D01*
X5258158Y-11086484D02*
X5277205Y-11076960D01*
X5277205Y-11076960D02*
X5286729Y-11067436D01*
X5286729Y-11067436D02*
X5296253Y-11048389D01*
X5296253Y-11048389D02*
X5296253Y-11000770D01*
X5296253Y-11000770D02*
X5286729Y-10981722D01*
X5286729Y-10981722D02*
X5277205Y-10972198D01*
X5277205Y-10972198D02*
X5258158Y-10962674D01*
X5258158Y-10962674D02*
X5220063Y-10962674D01*
X5220063Y-10962674D02*
X5201015Y-10972198D01*
X5201015Y-10972198D02*
X5191491Y-10981722D01*
X5191491Y-10981722D02*
X5181967Y-11000770D01*
X5477205Y-10886484D02*
X5381967Y-10886484D01*
X5381967Y-10886484D02*
X5372444Y-10981722D01*
X5372444Y-10981722D02*
X5381967Y-10972198D01*
X5381967Y-10972198D02*
X5401015Y-10962674D01*
X5401015Y-10962674D02*
X5448634Y-10962674D01*
X5448634Y-10962674D02*
X5467682Y-10972198D01*
X5467682Y-10972198D02*
X5477205Y-10981722D01*
X5477205Y-10981722D02*
X5486729Y-11000770D01*
X5486729Y-11000770D02*
X5486729Y-11048389D01*
X5486729Y-11048389D02*
X5477205Y-11067436D01*
X5477205Y-11067436D02*
X5467682Y-11076960D01*
X5467682Y-11076960D02*
X5448634Y-11086484D01*
X5448634Y-11086484D02*
X5401015Y-11086484D01*
X5401015Y-11086484D02*
X5381967Y-11076960D01*
X5381967Y-11076960D02*
X5372444Y-11067436D01*
X5610539Y-10886484D02*
X5629586Y-10886484D01*
X5629586Y-10886484D02*
X5648634Y-10896008D01*
X5648634Y-10896008D02*
X5658158Y-10905531D01*
X5658158Y-10905531D02*
X5667682Y-10924579D01*
X5667682Y-10924579D02*
X5677205Y-10962674D01*
X5677205Y-10962674D02*
X5677205Y-11010293D01*
X5677205Y-11010293D02*
X5667682Y-11048389D01*
X5667682Y-11048389D02*
X5658158Y-11067436D01*
X5658158Y-11067436D02*
X5648634Y-11076960D01*
X5648634Y-11076960D02*
X5629586Y-11086484D01*
X5629586Y-11086484D02*
X5610539Y-11086484D01*
X5610539Y-11086484D02*
X5591491Y-11076960D01*
X5591491Y-11076960D02*
X5581967Y-11067436D01*
X5581967Y-11067436D02*
X5572444Y-11048389D01*
X5572444Y-11048389D02*
X5562920Y-11010293D01*
X5562920Y-11010293D02*
X5562920Y-10962674D01*
X5562920Y-10962674D02*
X5572444Y-10924579D01*
X5572444Y-10924579D02*
X5581967Y-10905531D01*
X5581967Y-10905531D02*
X5591491Y-10896008D01*
X5591491Y-10896008D02*
X5610539Y-10886484D01*
X5762920Y-11086484D02*
X5762920Y-10953150D01*
X5762920Y-10972198D02*
X5772443Y-10962674D01*
X5772443Y-10962674D02*
X5791491Y-10953150D01*
X5791491Y-10953150D02*
X5820063Y-10953150D01*
X5820063Y-10953150D02*
X5839110Y-10962674D01*
X5839110Y-10962674D02*
X5848634Y-10981722D01*
X5848634Y-10981722D02*
X5848634Y-11086484D01*
X5848634Y-10981722D02*
X5858158Y-10962674D01*
X5858158Y-10962674D02*
X5877205Y-10953150D01*
X5877205Y-10953150D02*
X5905777Y-10953150D01*
X5905777Y-10953150D02*
X5924824Y-10962674D01*
X5924824Y-10962674D02*
X5934348Y-10981722D01*
X5934348Y-10981722D02*
X5934348Y-11086484D01*
X6029586Y-11086484D02*
X6029586Y-10953150D01*
X6029586Y-10972198D02*
X6039110Y-10962674D01*
X6039110Y-10962674D02*
X6058158Y-10953150D01*
X6058158Y-10953150D02*
X6086729Y-10953150D01*
X6086729Y-10953150D02*
X6105777Y-10962674D01*
X6105777Y-10962674D02*
X6115301Y-10981722D01*
X6115301Y-10981722D02*
X6115301Y-11086484D01*
X6115301Y-10981722D02*
X6124824Y-10962674D01*
X6124824Y-10962674D02*
X6143872Y-10953150D01*
X6143872Y-10953150D02*
X6172443Y-10953150D01*
X6172443Y-10953150D02*
X6191491Y-10962674D01*
X6191491Y-10962674D02*
X6201015Y-10981722D01*
X6201015Y-10981722D02*
X6201015Y-11086484D01*
X6591491Y-10876960D02*
X6420063Y-11134103D01*
X6848634Y-10886484D02*
X6867682Y-10886484D01*
X6867682Y-10886484D02*
X6886729Y-10896008D01*
X6886729Y-10896008D02*
X6896253Y-10905531D01*
X6896253Y-10905531D02*
X6905777Y-10924579D01*
X6905777Y-10924579D02*
X6915301Y-10962674D01*
X6915301Y-10962674D02*
X6915301Y-11010293D01*
X6915301Y-11010293D02*
X6905777Y-11048389D01*
X6905777Y-11048389D02*
X6896253Y-11067436D01*
X6896253Y-11067436D02*
X6886729Y-11076960D01*
X6886729Y-11076960D02*
X6867682Y-11086484D01*
X6867682Y-11086484D02*
X6848634Y-11086484D01*
X6848634Y-11086484D02*
X6829586Y-11076960D01*
X6829586Y-11076960D02*
X6820063Y-11067436D01*
X6820063Y-11067436D02*
X6810539Y-11048389D01*
X6810539Y-11048389D02*
X6801015Y-11010293D01*
X6801015Y-11010293D02*
X6801015Y-10962674D01*
X6801015Y-10962674D02*
X6810539Y-10924579D01*
X6810539Y-10924579D02*
X6820063Y-10905531D01*
X6820063Y-10905531D02*
X6829586Y-10896008D01*
X6829586Y-10896008D02*
X6848634Y-10886484D01*
X7001015Y-11067436D02*
X7010539Y-11076960D01*
X7010539Y-11076960D02*
X7001015Y-11086484D01*
X7001015Y-11086484D02*
X6991491Y-11076960D01*
X6991491Y-11076960D02*
X7001015Y-11067436D01*
X7001015Y-11067436D02*
X7001015Y-11086484D01*
X7134348Y-10886484D02*
X7153396Y-10886484D01*
X7153396Y-10886484D02*
X7172444Y-10896008D01*
X7172444Y-10896008D02*
X7181967Y-10905531D01*
X7181967Y-10905531D02*
X7191491Y-10924579D01*
X7191491Y-10924579D02*
X7201015Y-10962674D01*
X7201015Y-10962674D02*
X7201015Y-11010293D01*
X7201015Y-11010293D02*
X7191491Y-11048389D01*
X7191491Y-11048389D02*
X7181967Y-11067436D01*
X7181967Y-11067436D02*
X7172444Y-11076960D01*
X7172444Y-11076960D02*
X7153396Y-11086484D01*
X7153396Y-11086484D02*
X7134348Y-11086484D01*
X7134348Y-11086484D02*
X7115301Y-11076960D01*
X7115301Y-11076960D02*
X7105777Y-11067436D01*
X7105777Y-11067436D02*
X7096253Y-11048389D01*
X7096253Y-11048389D02*
X7086729Y-11010293D01*
X7086729Y-11010293D02*
X7086729Y-10962674D01*
X7086729Y-10962674D02*
X7096253Y-10924579D01*
X7096253Y-10924579D02*
X7105777Y-10905531D01*
X7105777Y-10905531D02*
X7115301Y-10896008D01*
X7115301Y-10896008D02*
X7134348Y-10886484D01*
X7277206Y-10905531D02*
X7286729Y-10896008D01*
X7286729Y-10896008D02*
X7305777Y-10886484D01*
X7305777Y-10886484D02*
X7353396Y-10886484D01*
X7353396Y-10886484D02*
X7372444Y-10896008D01*
X7372444Y-10896008D02*
X7381967Y-10905531D01*
X7381967Y-10905531D02*
X7391491Y-10924579D01*
X7391491Y-10924579D02*
X7391491Y-10943627D01*
X7391491Y-10943627D02*
X7381967Y-10972198D01*
X7381967Y-10972198D02*
X7267682Y-11086484D01*
X7267682Y-11086484D02*
X7391491Y-11086484D01*
X7572444Y-10886484D02*
X7477206Y-10886484D01*
X7477206Y-10886484D02*
X7467682Y-10981722D01*
X7467682Y-10981722D02*
X7477206Y-10972198D01*
X7477206Y-10972198D02*
X7496253Y-10962674D01*
X7496253Y-10962674D02*
X7543872Y-10962674D01*
X7543872Y-10962674D02*
X7562920Y-10972198D01*
X7562920Y-10972198D02*
X7572444Y-10981722D01*
X7572444Y-10981722D02*
X7581967Y-11000770D01*
X7581967Y-11000770D02*
X7581967Y-11048389D01*
X7581967Y-11048389D02*
X7572444Y-11067436D01*
X7572444Y-11067436D02*
X7562920Y-11076960D01*
X7562920Y-11076960D02*
X7543872Y-11086484D01*
X7543872Y-11086484D02*
X7496253Y-11086484D01*
X7496253Y-11086484D02*
X7477206Y-11076960D01*
X7477206Y-11076960D02*
X7467682Y-11067436D01*
X7753396Y-10886484D02*
X7715301Y-10886484D01*
X7715301Y-10886484D02*
X7696253Y-10896008D01*
X7696253Y-10896008D02*
X7686729Y-10905531D01*
X7686729Y-10905531D02*
X7667682Y-10934103D01*
X7667682Y-10934103D02*
X7658158Y-10972198D01*
X7658158Y-10972198D02*
X7658158Y-11048389D01*
X7658158Y-11048389D02*
X7667682Y-11067436D01*
X7667682Y-11067436D02*
X7677206Y-11076960D01*
X7677206Y-11076960D02*
X7696253Y-11086484D01*
X7696253Y-11086484D02*
X7734348Y-11086484D01*
X7734348Y-11086484D02*
X7753396Y-11076960D01*
X7753396Y-11076960D02*
X7762920Y-11067436D01*
X7762920Y-11067436D02*
X7772444Y-11048389D01*
X7772444Y-11048389D02*
X7772444Y-11000770D01*
X7772444Y-11000770D02*
X7762920Y-10981722D01*
X7762920Y-10981722D02*
X7753396Y-10972198D01*
X7753396Y-10972198D02*
X7734348Y-10962674D01*
X7734348Y-10962674D02*
X7696253Y-10962674D01*
X7696253Y-10962674D02*
X7677206Y-10972198D01*
X7677206Y-10972198D02*
X7667682Y-10981722D01*
X7667682Y-10981722D02*
X7658158Y-11000770D01*
X7848634Y-10886484D02*
X7848634Y-10924579D01*
X7924825Y-10886484D02*
X7924825Y-10924579D01*
X8220063Y-11162674D02*
X8210539Y-11153150D01*
X8210539Y-11153150D02*
X8191491Y-11124579D01*
X8191491Y-11124579D02*
X8181968Y-11105531D01*
X8181968Y-11105531D02*
X8172444Y-11076960D01*
X8172444Y-11076960D02*
X8162920Y-11029341D01*
X8162920Y-11029341D02*
X8162920Y-10991246D01*
X8162920Y-10991246D02*
X8172444Y-10943627D01*
X8172444Y-10943627D02*
X8181968Y-10915055D01*
X8181968Y-10915055D02*
X8191491Y-10896008D01*
X8191491Y-10896008D02*
X8210539Y-10867436D01*
X8210539Y-10867436D02*
X8220063Y-10857912D01*
X8286729Y-10905531D02*
X8296253Y-10896008D01*
X8296253Y-10896008D02*
X8315301Y-10886484D01*
X8315301Y-10886484D02*
X8362920Y-10886484D01*
X8362920Y-10886484D02*
X8381968Y-10896008D01*
X8381968Y-10896008D02*
X8391491Y-10905531D01*
X8391491Y-10905531D02*
X8401015Y-10924579D01*
X8401015Y-10924579D02*
X8401015Y-10943627D01*
X8401015Y-10943627D02*
X8391491Y-10972198D01*
X8391491Y-10972198D02*
X8277206Y-11086484D01*
X8277206Y-11086484D02*
X8401015Y-11086484D01*
X8639111Y-11086484D02*
X8639111Y-10886484D01*
X8724825Y-11086484D02*
X8724825Y-10981722D01*
X8724825Y-10981722D02*
X8715301Y-10962674D01*
X8715301Y-10962674D02*
X8696253Y-10953150D01*
X8696253Y-10953150D02*
X8667682Y-10953150D01*
X8667682Y-10953150D02*
X8648634Y-10962674D01*
X8648634Y-10962674D02*
X8639111Y-10972198D01*
X8848634Y-11086484D02*
X8829587Y-11076960D01*
X8829587Y-11076960D02*
X8820063Y-11067436D01*
X8820063Y-11067436D02*
X8810539Y-11048389D01*
X8810539Y-11048389D02*
X8810539Y-10991246D01*
X8810539Y-10991246D02*
X8820063Y-10972198D01*
X8820063Y-10972198D02*
X8829587Y-10962674D01*
X8829587Y-10962674D02*
X8848634Y-10953150D01*
X8848634Y-10953150D02*
X8877206Y-10953150D01*
X8877206Y-10953150D02*
X8896253Y-10962674D01*
X8896253Y-10962674D02*
X8905777Y-10972198D01*
X8905777Y-10972198D02*
X8915301Y-10991246D01*
X8915301Y-10991246D02*
X8915301Y-11048389D01*
X8915301Y-11048389D02*
X8905777Y-11067436D01*
X8905777Y-11067436D02*
X8896253Y-11076960D01*
X8896253Y-11076960D02*
X8877206Y-11086484D01*
X8877206Y-11086484D02*
X8848634Y-11086484D01*
X9029587Y-11086484D02*
X9010539Y-11076960D01*
X9010539Y-11076960D02*
X9001015Y-11057912D01*
X9001015Y-11057912D02*
X9001015Y-10886484D01*
X9181968Y-11076960D02*
X9162920Y-11086484D01*
X9162920Y-11086484D02*
X9124825Y-11086484D01*
X9124825Y-11086484D02*
X9105777Y-11076960D01*
X9105777Y-11076960D02*
X9096253Y-11057912D01*
X9096253Y-11057912D02*
X9096253Y-10981722D01*
X9096253Y-10981722D02*
X9105777Y-10962674D01*
X9105777Y-10962674D02*
X9124825Y-10953150D01*
X9124825Y-10953150D02*
X9162920Y-10953150D01*
X9162920Y-10953150D02*
X9181968Y-10962674D01*
X9181968Y-10962674D02*
X9191492Y-10981722D01*
X9191492Y-10981722D02*
X9191492Y-11000770D01*
X9191492Y-11000770D02*
X9096253Y-11019817D01*
X9267682Y-11076960D02*
X9286730Y-11086484D01*
X9286730Y-11086484D02*
X9324825Y-11086484D01*
X9324825Y-11086484D02*
X9343873Y-11076960D01*
X9343873Y-11076960D02*
X9353396Y-11057912D01*
X9353396Y-11057912D02*
X9353396Y-11048389D01*
X9353396Y-11048389D02*
X9343873Y-11029341D01*
X9343873Y-11029341D02*
X9324825Y-11019817D01*
X9324825Y-11019817D02*
X9296253Y-11019817D01*
X9296253Y-11019817D02*
X9277206Y-11010293D01*
X9277206Y-11010293D02*
X9267682Y-10991246D01*
X9267682Y-10991246D02*
X9267682Y-10981722D01*
X9267682Y-10981722D02*
X9277206Y-10962674D01*
X9277206Y-10962674D02*
X9296253Y-10953150D01*
X9296253Y-10953150D02*
X9324825Y-10953150D01*
X9324825Y-10953150D02*
X9343873Y-10962674D01*
X9420063Y-11162674D02*
X9429587Y-11153150D01*
X9429587Y-11153150D02*
X9448634Y-11124579D01*
X9448634Y-11124579D02*
X9458158Y-11105531D01*
X9458158Y-11105531D02*
X9467682Y-11076960D01*
X9467682Y-11076960D02*
X9477206Y-11029341D01*
X9477206Y-11029341D02*
X9477206Y-10991246D01*
X9477206Y-10991246D02*
X9467682Y-10943627D01*
X9467682Y-10943627D02*
X9458158Y-10915055D01*
X9458158Y-10915055D02*
X9448634Y-10896008D01*
X9448634Y-10896008D02*
X9429587Y-10867436D01*
X9429587Y-10867436D02*
X9420063Y-10857912D01*
X9781968Y-11162674D02*
X9772444Y-11153150D01*
X9772444Y-11153150D02*
X9753396Y-11124579D01*
X9753396Y-11124579D02*
X9743873Y-11105531D01*
X9743873Y-11105531D02*
X9734349Y-11076960D01*
X9734349Y-11076960D02*
X9724825Y-11029341D01*
X9724825Y-11029341D02*
X9724825Y-10991246D01*
X9724825Y-10991246D02*
X9734349Y-10943627D01*
X9734349Y-10943627D02*
X9743873Y-10915055D01*
X9743873Y-10915055D02*
X9753396Y-10896008D01*
X9753396Y-10896008D02*
X9772444Y-10867436D01*
X9772444Y-10867436D02*
X9781968Y-10857912D01*
X9858158Y-10953150D02*
X9858158Y-11086484D01*
X9858158Y-10972198D02*
X9867682Y-10962674D01*
X9867682Y-10962674D02*
X9886730Y-10953150D01*
X9886730Y-10953150D02*
X9915301Y-10953150D01*
X9915301Y-10953150D02*
X9934349Y-10962674D01*
X9934349Y-10962674D02*
X9943873Y-10981722D01*
X9943873Y-10981722D02*
X9943873Y-11086484D01*
X10067682Y-11086484D02*
X10048634Y-11076960D01*
X10048634Y-11076960D02*
X10039111Y-11067436D01*
X10039111Y-11067436D02*
X10029587Y-11048389D01*
X10029587Y-11048389D02*
X10029587Y-10991246D01*
X10029587Y-10991246D02*
X10039111Y-10972198D01*
X10039111Y-10972198D02*
X10048634Y-10962674D01*
X10048634Y-10962674D02*
X10067682Y-10953150D01*
X10067682Y-10953150D02*
X10096254Y-10953150D01*
X10096254Y-10953150D02*
X10115301Y-10962674D01*
X10115301Y-10962674D02*
X10124825Y-10972198D01*
X10124825Y-10972198D02*
X10134349Y-10991246D01*
X10134349Y-10991246D02*
X10134349Y-11048389D01*
X10134349Y-11048389D02*
X10124825Y-11067436D01*
X10124825Y-11067436D02*
X10115301Y-11076960D01*
X10115301Y-11076960D02*
X10096254Y-11086484D01*
X10096254Y-11086484D02*
X10067682Y-11086484D01*
X10191492Y-10953150D02*
X10267682Y-10953150D01*
X10220063Y-10886484D02*
X10220063Y-11057912D01*
X10220063Y-11057912D02*
X10229587Y-11076960D01*
X10229587Y-11076960D02*
X10248634Y-11086484D01*
X10248634Y-11086484D02*
X10267682Y-11086484D01*
X10486730Y-10953150D02*
X10486730Y-11153150D01*
X10486730Y-10962674D02*
X10505777Y-10953150D01*
X10505777Y-10953150D02*
X10543873Y-10953150D01*
X10543873Y-10953150D02*
X10562920Y-10962674D01*
X10562920Y-10962674D02*
X10572444Y-10972198D01*
X10572444Y-10972198D02*
X10581968Y-10991246D01*
X10581968Y-10991246D02*
X10581968Y-11048389D01*
X10581968Y-11048389D02*
X10572444Y-11067436D01*
X10572444Y-11067436D02*
X10562920Y-11076960D01*
X10562920Y-11076960D02*
X10543873Y-11086484D01*
X10543873Y-11086484D02*
X10505777Y-11086484D01*
X10505777Y-11086484D02*
X10486730Y-11076960D01*
X10696254Y-11086484D02*
X10677206Y-11076960D01*
X10677206Y-11076960D02*
X10667682Y-11057912D01*
X10667682Y-11057912D02*
X10667682Y-10886484D01*
X10858158Y-11086484D02*
X10858158Y-10981722D01*
X10858158Y-10981722D02*
X10848635Y-10962674D01*
X10848635Y-10962674D02*
X10829587Y-10953150D01*
X10829587Y-10953150D02*
X10791492Y-10953150D01*
X10791492Y-10953150D02*
X10772444Y-10962674D01*
X10858158Y-11076960D02*
X10839111Y-11086484D01*
X10839111Y-11086484D02*
X10791492Y-11086484D01*
X10791492Y-11086484D02*
X10772444Y-11076960D01*
X10772444Y-11076960D02*
X10762920Y-11057912D01*
X10762920Y-11057912D02*
X10762920Y-11038865D01*
X10762920Y-11038865D02*
X10772444Y-11019817D01*
X10772444Y-11019817D02*
X10791492Y-11010293D01*
X10791492Y-11010293D02*
X10839111Y-11010293D01*
X10839111Y-11010293D02*
X10858158Y-11000770D01*
X10924825Y-10953150D02*
X11001015Y-10953150D01*
X10953396Y-10886484D02*
X10953396Y-11057912D01*
X10953396Y-11057912D02*
X10962920Y-11076960D01*
X10962920Y-11076960D02*
X10981968Y-11086484D01*
X10981968Y-11086484D02*
X11001015Y-11086484D01*
X11143873Y-11076960D02*
X11124825Y-11086484D01*
X11124825Y-11086484D02*
X11086730Y-11086484D01*
X11086730Y-11086484D02*
X11067682Y-11076960D01*
X11067682Y-11076960D02*
X11058158Y-11057912D01*
X11058158Y-11057912D02*
X11058158Y-10981722D01*
X11058158Y-10981722D02*
X11067682Y-10962674D01*
X11067682Y-10962674D02*
X11086730Y-10953150D01*
X11086730Y-10953150D02*
X11124825Y-10953150D01*
X11124825Y-10953150D02*
X11143873Y-10962674D01*
X11143873Y-10962674D02*
X11153396Y-10981722D01*
X11153396Y-10981722D02*
X11153396Y-11000770D01*
X11153396Y-11000770D02*
X11058158Y-11019817D01*
X11324825Y-11086484D02*
X11324825Y-10886484D01*
X11324825Y-11076960D02*
X11305777Y-11086484D01*
X11305777Y-11086484D02*
X11267682Y-11086484D01*
X11267682Y-11086484D02*
X11248634Y-11076960D01*
X11248634Y-11076960D02*
X11239111Y-11067436D01*
X11239111Y-11067436D02*
X11229587Y-11048389D01*
X11229587Y-11048389D02*
X11229587Y-10991246D01*
X11229587Y-10991246D02*
X11239111Y-10972198D01*
X11239111Y-10972198D02*
X11248634Y-10962674D01*
X11248634Y-10962674D02*
X11267682Y-10953150D01*
X11267682Y-10953150D02*
X11305777Y-10953150D01*
X11305777Y-10953150D02*
X11324825Y-10962674D01*
X11401015Y-11162674D02*
X11410539Y-11153150D01*
X11410539Y-11153150D02*
X11429587Y-11124579D01*
X11429587Y-11124579D02*
X11439111Y-11105531D01*
X11439111Y-11105531D02*
X11448634Y-11076960D01*
X11448634Y-11076960D02*
X11458158Y-11029341D01*
X11458158Y-11029341D02*
X11458158Y-10991246D01*
X11458158Y-10991246D02*
X11448634Y-10943627D01*
X11448634Y-10943627D02*
X11439111Y-10915055D01*
X11439111Y-10915055D02*
X11429587Y-10896008D01*
X11429587Y-10896008D02*
X11410539Y-10867436D01*
X11410539Y-10867436D02*
X11401015Y-10857912D01*
X4645000Y-11259000D02*
G75*
G02*
X4445000Y-11259000I-100000J0D01*
G01*
X4445000Y-11259000D02*
G75*
G02*
X4645000Y-11259000I100000J0D01*
G01*
X4886729Y-11150484D02*
X5010539Y-11150484D01*
X5010539Y-11150484D02*
X4943872Y-11226674D01*
X4943872Y-11226674D02*
X4972444Y-11226674D01*
X4972444Y-11226674D02*
X4991491Y-11236198D01*
X4991491Y-11236198D02*
X5001015Y-11245722D01*
X5001015Y-11245722D02*
X5010539Y-11264769D01*
X5010539Y-11264769D02*
X5010539Y-11312388D01*
X5010539Y-11312388D02*
X5001015Y-11331436D01*
X5001015Y-11331436D02*
X4991491Y-11340960D01*
X4991491Y-11340960D02*
X4972444Y-11350484D01*
X4972444Y-11350484D02*
X4915301Y-11350484D01*
X4915301Y-11350484D02*
X4896253Y-11340960D01*
X4896253Y-11340960D02*
X4886729Y-11331436D01*
X5096253Y-11331436D02*
X5105777Y-11340960D01*
X5105777Y-11340960D02*
X5096253Y-11350484D01*
X5096253Y-11350484D02*
X5086729Y-11340960D01*
X5086729Y-11340960D02*
X5096253Y-11331436D01*
X5096253Y-11331436D02*
X5096253Y-11350484D01*
X5181967Y-11169531D02*
X5191491Y-11160008D01*
X5191491Y-11160008D02*
X5210539Y-11150484D01*
X5210539Y-11150484D02*
X5258158Y-11150484D01*
X5258158Y-11150484D02*
X5277205Y-11160008D01*
X5277205Y-11160008D02*
X5286729Y-11169531D01*
X5286729Y-11169531D02*
X5296253Y-11188579D01*
X5296253Y-11188579D02*
X5296253Y-11207627D01*
X5296253Y-11207627D02*
X5286729Y-11236198D01*
X5286729Y-11236198D02*
X5172444Y-11350484D01*
X5172444Y-11350484D02*
X5296253Y-11350484D01*
X5420063Y-11150484D02*
X5439110Y-11150484D01*
X5439110Y-11150484D02*
X5458158Y-11160008D01*
X5458158Y-11160008D02*
X5467682Y-11169531D01*
X5467682Y-11169531D02*
X5477205Y-11188579D01*
X5477205Y-11188579D02*
X5486729Y-11226674D01*
X5486729Y-11226674D02*
X5486729Y-11274293D01*
X5486729Y-11274293D02*
X5477205Y-11312388D01*
X5477205Y-11312388D02*
X5467682Y-11331436D01*
X5467682Y-11331436D02*
X5458158Y-11340960D01*
X5458158Y-11340960D02*
X5439110Y-11350484D01*
X5439110Y-11350484D02*
X5420063Y-11350484D01*
X5420063Y-11350484D02*
X5401015Y-11340960D01*
X5401015Y-11340960D02*
X5391491Y-11331436D01*
X5391491Y-11331436D02*
X5381967Y-11312388D01*
X5381967Y-11312388D02*
X5372444Y-11274293D01*
X5372444Y-11274293D02*
X5372444Y-11226674D01*
X5372444Y-11226674D02*
X5381967Y-11188579D01*
X5381967Y-11188579D02*
X5391491Y-11169531D01*
X5391491Y-11169531D02*
X5401015Y-11160008D01*
X5401015Y-11160008D02*
X5420063Y-11150484D01*
X5610539Y-11150484D02*
X5629586Y-11150484D01*
X5629586Y-11150484D02*
X5648634Y-11160008D01*
X5648634Y-11160008D02*
X5658158Y-11169531D01*
X5658158Y-11169531D02*
X5667682Y-11188579D01*
X5667682Y-11188579D02*
X5677205Y-11226674D01*
X5677205Y-11226674D02*
X5677205Y-11274293D01*
X5677205Y-11274293D02*
X5667682Y-11312388D01*
X5667682Y-11312388D02*
X5658158Y-11331436D01*
X5658158Y-11331436D02*
X5648634Y-11340960D01*
X5648634Y-11340960D02*
X5629586Y-11350484D01*
X5629586Y-11350484D02*
X5610539Y-11350484D01*
X5610539Y-11350484D02*
X5591491Y-11340960D01*
X5591491Y-11340960D02*
X5581967Y-11331436D01*
X5581967Y-11331436D02*
X5572444Y-11312388D01*
X5572444Y-11312388D02*
X5562920Y-11274293D01*
X5562920Y-11274293D02*
X5562920Y-11226674D01*
X5562920Y-11226674D02*
X5572444Y-11188579D01*
X5572444Y-11188579D02*
X5581967Y-11169531D01*
X5581967Y-11169531D02*
X5591491Y-11160008D01*
X5591491Y-11160008D02*
X5610539Y-11150484D01*
X5762920Y-11350484D02*
X5762920Y-11217150D01*
X5762920Y-11236198D02*
X5772443Y-11226674D01*
X5772443Y-11226674D02*
X5791491Y-11217150D01*
X5791491Y-11217150D02*
X5820063Y-11217150D01*
X5820063Y-11217150D02*
X5839110Y-11226674D01*
X5839110Y-11226674D02*
X5848634Y-11245722D01*
X5848634Y-11245722D02*
X5848634Y-11350484D01*
X5848634Y-11245722D02*
X5858158Y-11226674D01*
X5858158Y-11226674D02*
X5877205Y-11217150D01*
X5877205Y-11217150D02*
X5905777Y-11217150D01*
X5905777Y-11217150D02*
X5924824Y-11226674D01*
X5924824Y-11226674D02*
X5934348Y-11245722D01*
X5934348Y-11245722D02*
X5934348Y-11350484D01*
X6029586Y-11350484D02*
X6029586Y-11217150D01*
X6029586Y-11236198D02*
X6039110Y-11226674D01*
X6039110Y-11226674D02*
X6058158Y-11217150D01*
X6058158Y-11217150D02*
X6086729Y-11217150D01*
X6086729Y-11217150D02*
X6105777Y-11226674D01*
X6105777Y-11226674D02*
X6115301Y-11245722D01*
X6115301Y-11245722D02*
X6115301Y-11350484D01*
X6115301Y-11245722D02*
X6124824Y-11226674D01*
X6124824Y-11226674D02*
X6143872Y-11217150D01*
X6143872Y-11217150D02*
X6172443Y-11217150D01*
X6172443Y-11217150D02*
X6191491Y-11226674D01*
X6191491Y-11226674D02*
X6201015Y-11245722D01*
X6201015Y-11245722D02*
X6201015Y-11350484D01*
X6591491Y-11140960D02*
X6420063Y-11398103D01*
X6848634Y-11150484D02*
X6867682Y-11150484D01*
X6867682Y-11150484D02*
X6886729Y-11160008D01*
X6886729Y-11160008D02*
X6896253Y-11169531D01*
X6896253Y-11169531D02*
X6905777Y-11188579D01*
X6905777Y-11188579D02*
X6915301Y-11226674D01*
X6915301Y-11226674D02*
X6915301Y-11274293D01*
X6915301Y-11274293D02*
X6905777Y-11312388D01*
X6905777Y-11312388D02*
X6896253Y-11331436D01*
X6896253Y-11331436D02*
X6886729Y-11340960D01*
X6886729Y-11340960D02*
X6867682Y-11350484D01*
X6867682Y-11350484D02*
X6848634Y-11350484D01*
X6848634Y-11350484D02*
X6829586Y-11340960D01*
X6829586Y-11340960D02*
X6820063Y-11331436D01*
X6820063Y-11331436D02*
X6810539Y-11312388D01*
X6810539Y-11312388D02*
X6801015Y-11274293D01*
X6801015Y-11274293D02*
X6801015Y-11226674D01*
X6801015Y-11226674D02*
X6810539Y-11188579D01*
X6810539Y-11188579D02*
X6820063Y-11169531D01*
X6820063Y-11169531D02*
X6829586Y-11160008D01*
X6829586Y-11160008D02*
X6848634Y-11150484D01*
X7001015Y-11331436D02*
X7010539Y-11340960D01*
X7010539Y-11340960D02*
X7001015Y-11350484D01*
X7001015Y-11350484D02*
X6991491Y-11340960D01*
X6991491Y-11340960D02*
X7001015Y-11331436D01*
X7001015Y-11331436D02*
X7001015Y-11350484D01*
X7201015Y-11350484D02*
X7086729Y-11350484D01*
X7143872Y-11350484D02*
X7143872Y-11150484D01*
X7143872Y-11150484D02*
X7124825Y-11179055D01*
X7124825Y-11179055D02*
X7105777Y-11198103D01*
X7105777Y-11198103D02*
X7086729Y-11207627D01*
X7277206Y-11169531D02*
X7286729Y-11160008D01*
X7286729Y-11160008D02*
X7305777Y-11150484D01*
X7305777Y-11150484D02*
X7353396Y-11150484D01*
X7353396Y-11150484D02*
X7372444Y-11160008D01*
X7372444Y-11160008D02*
X7381967Y-11169531D01*
X7381967Y-11169531D02*
X7391491Y-11188579D01*
X7391491Y-11188579D02*
X7391491Y-11207627D01*
X7391491Y-11207627D02*
X7381967Y-11236198D01*
X7381967Y-11236198D02*
X7267682Y-11350484D01*
X7267682Y-11350484D02*
X7391491Y-11350484D01*
X7562920Y-11150484D02*
X7524825Y-11150484D01*
X7524825Y-11150484D02*
X7505777Y-11160008D01*
X7505777Y-11160008D02*
X7496253Y-11169531D01*
X7496253Y-11169531D02*
X7477206Y-11198103D01*
X7477206Y-11198103D02*
X7467682Y-11236198D01*
X7467682Y-11236198D02*
X7467682Y-11312388D01*
X7467682Y-11312388D02*
X7477206Y-11331436D01*
X7477206Y-11331436D02*
X7486729Y-11340960D01*
X7486729Y-11340960D02*
X7505777Y-11350484D01*
X7505777Y-11350484D02*
X7543872Y-11350484D01*
X7543872Y-11350484D02*
X7562920Y-11340960D01*
X7562920Y-11340960D02*
X7572444Y-11331436D01*
X7572444Y-11331436D02*
X7581967Y-11312388D01*
X7581967Y-11312388D02*
X7581967Y-11264769D01*
X7581967Y-11264769D02*
X7572444Y-11245722D01*
X7572444Y-11245722D02*
X7562920Y-11236198D01*
X7562920Y-11236198D02*
X7543872Y-11226674D01*
X7543872Y-11226674D02*
X7505777Y-11226674D01*
X7505777Y-11226674D02*
X7486729Y-11236198D01*
X7486729Y-11236198D02*
X7477206Y-11245722D01*
X7477206Y-11245722D02*
X7467682Y-11264769D01*
X7705777Y-11150484D02*
X7724825Y-11150484D01*
X7724825Y-11150484D02*
X7743872Y-11160008D01*
X7743872Y-11160008D02*
X7753396Y-11169531D01*
X7753396Y-11169531D02*
X7762920Y-11188579D01*
X7762920Y-11188579D02*
X7772444Y-11226674D01*
X7772444Y-11226674D02*
X7772444Y-11274293D01*
X7772444Y-11274293D02*
X7762920Y-11312388D01*
X7762920Y-11312388D02*
X7753396Y-11331436D01*
X7753396Y-11331436D02*
X7743872Y-11340960D01*
X7743872Y-11340960D02*
X7724825Y-11350484D01*
X7724825Y-11350484D02*
X7705777Y-11350484D01*
X7705777Y-11350484D02*
X7686729Y-11340960D01*
X7686729Y-11340960D02*
X7677206Y-11331436D01*
X7677206Y-11331436D02*
X7667682Y-11312388D01*
X7667682Y-11312388D02*
X7658158Y-11274293D01*
X7658158Y-11274293D02*
X7658158Y-11226674D01*
X7658158Y-11226674D02*
X7667682Y-11188579D01*
X7667682Y-11188579D02*
X7677206Y-11169531D01*
X7677206Y-11169531D02*
X7686729Y-11160008D01*
X7686729Y-11160008D02*
X7705777Y-11150484D01*
X7848634Y-11150484D02*
X7848634Y-11188579D01*
X7924825Y-11150484D02*
X7924825Y-11188579D01*
X8220063Y-11426674D02*
X8210539Y-11417150D01*
X8210539Y-11417150D02*
X8191491Y-11388579D01*
X8191491Y-11388579D02*
X8181968Y-11369531D01*
X8181968Y-11369531D02*
X8172444Y-11340960D01*
X8172444Y-11340960D02*
X8162920Y-11293341D01*
X8162920Y-11293341D02*
X8162920Y-11255246D01*
X8162920Y-11255246D02*
X8172444Y-11207627D01*
X8172444Y-11207627D02*
X8181968Y-11179055D01*
X8181968Y-11179055D02*
X8191491Y-11160008D01*
X8191491Y-11160008D02*
X8210539Y-11131436D01*
X8210539Y-11131436D02*
X8220063Y-11121912D01*
X8381968Y-11217150D02*
X8381968Y-11350484D01*
X8334348Y-11140960D02*
X8286729Y-11283817D01*
X8286729Y-11283817D02*
X8410539Y-11283817D01*
X8639111Y-11350484D02*
X8639111Y-11150484D01*
X8724825Y-11350484D02*
X8724825Y-11245722D01*
X8724825Y-11245722D02*
X8715301Y-11226674D01*
X8715301Y-11226674D02*
X8696253Y-11217150D01*
X8696253Y-11217150D02*
X8667682Y-11217150D01*
X8667682Y-11217150D02*
X8648634Y-11226674D01*
X8648634Y-11226674D02*
X8639111Y-11236198D01*
X8848634Y-11350484D02*
X8829587Y-11340960D01*
X8829587Y-11340960D02*
X8820063Y-11331436D01*
X8820063Y-11331436D02*
X8810539Y-11312388D01*
X8810539Y-11312388D02*
X8810539Y-11255246D01*
X8810539Y-11255246D02*
X8820063Y-11236198D01*
X8820063Y-11236198D02*
X8829587Y-11226674D01*
X8829587Y-11226674D02*
X8848634Y-11217150D01*
X8848634Y-11217150D02*
X8877206Y-11217150D01*
X8877206Y-11217150D02*
X8896253Y-11226674D01*
X8896253Y-11226674D02*
X8905777Y-11236198D01*
X8905777Y-11236198D02*
X8915301Y-11255246D01*
X8915301Y-11255246D02*
X8915301Y-11312388D01*
X8915301Y-11312388D02*
X8905777Y-11331436D01*
X8905777Y-11331436D02*
X8896253Y-11340960D01*
X8896253Y-11340960D02*
X8877206Y-11350484D01*
X8877206Y-11350484D02*
X8848634Y-11350484D01*
X9029587Y-11350484D02*
X9010539Y-11340960D01*
X9010539Y-11340960D02*
X9001015Y-11321912D01*
X9001015Y-11321912D02*
X9001015Y-11150484D01*
X9181968Y-11340960D02*
X9162920Y-11350484D01*
X9162920Y-11350484D02*
X9124825Y-11350484D01*
X9124825Y-11350484D02*
X9105777Y-11340960D01*
X9105777Y-11340960D02*
X9096253Y-11321912D01*
X9096253Y-11321912D02*
X9096253Y-11245722D01*
X9096253Y-11245722D02*
X9105777Y-11226674D01*
X9105777Y-11226674D02*
X9124825Y-11217150D01*
X9124825Y-11217150D02*
X9162920Y-11217150D01*
X9162920Y-11217150D02*
X9181968Y-11226674D01*
X9181968Y-11226674D02*
X9191492Y-11245722D01*
X9191492Y-11245722D02*
X9191492Y-11264769D01*
X9191492Y-11264769D02*
X9096253Y-11283817D01*
X9267682Y-11340960D02*
X9286730Y-11350484D01*
X9286730Y-11350484D02*
X9324825Y-11350484D01*
X9324825Y-11350484D02*
X9343873Y-11340960D01*
X9343873Y-11340960D02*
X9353396Y-11321912D01*
X9353396Y-11321912D02*
X9353396Y-11312388D01*
X9353396Y-11312388D02*
X9343873Y-11293341D01*
X9343873Y-11293341D02*
X9324825Y-11283817D01*
X9324825Y-11283817D02*
X9296253Y-11283817D01*
X9296253Y-11283817D02*
X9277206Y-11274293D01*
X9277206Y-11274293D02*
X9267682Y-11255246D01*
X9267682Y-11255246D02*
X9267682Y-11245722D01*
X9267682Y-11245722D02*
X9277206Y-11226674D01*
X9277206Y-11226674D02*
X9296253Y-11217150D01*
X9296253Y-11217150D02*
X9324825Y-11217150D01*
X9324825Y-11217150D02*
X9343873Y-11226674D01*
X9420063Y-11426674D02*
X9429587Y-11417150D01*
X9429587Y-11417150D02*
X9448634Y-11388579D01*
X9448634Y-11388579D02*
X9458158Y-11369531D01*
X9458158Y-11369531D02*
X9467682Y-11340960D01*
X9467682Y-11340960D02*
X9477206Y-11293341D01*
X9477206Y-11293341D02*
X9477206Y-11255246D01*
X9477206Y-11255246D02*
X9467682Y-11207627D01*
X9467682Y-11207627D02*
X9458158Y-11179055D01*
X9458158Y-11179055D02*
X9448634Y-11160008D01*
X9448634Y-11160008D02*
X9429587Y-11131436D01*
X9429587Y-11131436D02*
X9420063Y-11121912D01*
X9781968Y-11426674D02*
X9772444Y-11417150D01*
X9772444Y-11417150D02*
X9753396Y-11388579D01*
X9753396Y-11388579D02*
X9743873Y-11369531D01*
X9743873Y-11369531D02*
X9734349Y-11340960D01*
X9734349Y-11340960D02*
X9724825Y-11293341D01*
X9724825Y-11293341D02*
X9724825Y-11255246D01*
X9724825Y-11255246D02*
X9734349Y-11207627D01*
X9734349Y-11207627D02*
X9743873Y-11179055D01*
X9743873Y-11179055D02*
X9753396Y-11160008D01*
X9753396Y-11160008D02*
X9772444Y-11131436D01*
X9772444Y-11131436D02*
X9781968Y-11121912D01*
X9858158Y-11217150D02*
X9858158Y-11350484D01*
X9858158Y-11236198D02*
X9867682Y-11226674D01*
X9867682Y-11226674D02*
X9886730Y-11217150D01*
X9886730Y-11217150D02*
X9915301Y-11217150D01*
X9915301Y-11217150D02*
X9934349Y-11226674D01*
X9934349Y-11226674D02*
X9943873Y-11245722D01*
X9943873Y-11245722D02*
X9943873Y-11350484D01*
X10067682Y-11350484D02*
X10048634Y-11340960D01*
X10048634Y-11340960D02*
X10039111Y-11331436D01*
X10039111Y-11331436D02*
X10029587Y-11312388D01*
X10029587Y-11312388D02*
X10029587Y-11255246D01*
X10029587Y-11255246D02*
X10039111Y-11236198D01*
X10039111Y-11236198D02*
X10048634Y-11226674D01*
X10048634Y-11226674D02*
X10067682Y-11217150D01*
X10067682Y-11217150D02*
X10096254Y-11217150D01*
X10096254Y-11217150D02*
X10115301Y-11226674D01*
X10115301Y-11226674D02*
X10124825Y-11236198D01*
X10124825Y-11236198D02*
X10134349Y-11255246D01*
X10134349Y-11255246D02*
X10134349Y-11312388D01*
X10134349Y-11312388D02*
X10124825Y-11331436D01*
X10124825Y-11331436D02*
X10115301Y-11340960D01*
X10115301Y-11340960D02*
X10096254Y-11350484D01*
X10096254Y-11350484D02*
X10067682Y-11350484D01*
X10191492Y-11217150D02*
X10267682Y-11217150D01*
X10220063Y-11150484D02*
X10220063Y-11321912D01*
X10220063Y-11321912D02*
X10229587Y-11340960D01*
X10229587Y-11340960D02*
X10248634Y-11350484D01*
X10248634Y-11350484D02*
X10267682Y-11350484D01*
X10486730Y-11217150D02*
X10486730Y-11417150D01*
X10486730Y-11226674D02*
X10505777Y-11217150D01*
X10505777Y-11217150D02*
X10543873Y-11217150D01*
X10543873Y-11217150D02*
X10562920Y-11226674D01*
X10562920Y-11226674D02*
X10572444Y-11236198D01*
X10572444Y-11236198D02*
X10581968Y-11255246D01*
X10581968Y-11255246D02*
X10581968Y-11312388D01*
X10581968Y-11312388D02*
X10572444Y-11331436D01*
X10572444Y-11331436D02*
X10562920Y-11340960D01*
X10562920Y-11340960D02*
X10543873Y-11350484D01*
X10543873Y-11350484D02*
X10505777Y-11350484D01*
X10505777Y-11350484D02*
X10486730Y-11340960D01*
X10696254Y-11350484D02*
X10677206Y-11340960D01*
X10677206Y-11340960D02*
X10667682Y-11321912D01*
X10667682Y-11321912D02*
X10667682Y-11150484D01*
X10858158Y-11350484D02*
X10858158Y-11245722D01*
X10858158Y-11245722D02*
X10848635Y-11226674D01*
X10848635Y-11226674D02*
X10829587Y-11217150D01*
X10829587Y-11217150D02*
X10791492Y-11217150D01*
X10791492Y-11217150D02*
X10772444Y-11226674D01*
X10858158Y-11340960D02*
X10839111Y-11350484D01*
X10839111Y-11350484D02*
X10791492Y-11350484D01*
X10791492Y-11350484D02*
X10772444Y-11340960D01*
X10772444Y-11340960D02*
X10762920Y-11321912D01*
X10762920Y-11321912D02*
X10762920Y-11302865D01*
X10762920Y-11302865D02*
X10772444Y-11283817D01*
X10772444Y-11283817D02*
X10791492Y-11274293D01*
X10791492Y-11274293D02*
X10839111Y-11274293D01*
X10839111Y-11274293D02*
X10858158Y-11264769D01*
X10924825Y-11217150D02*
X11001015Y-11217150D01*
X10953396Y-11150484D02*
X10953396Y-11321912D01*
X10953396Y-11321912D02*
X10962920Y-11340960D01*
X10962920Y-11340960D02*
X10981968Y-11350484D01*
X10981968Y-11350484D02*
X11001015Y-11350484D01*
X11143873Y-11340960D02*
X11124825Y-11350484D01*
X11124825Y-11350484D02*
X11086730Y-11350484D01*
X11086730Y-11350484D02*
X11067682Y-11340960D01*
X11067682Y-11340960D02*
X11058158Y-11321912D01*
X11058158Y-11321912D02*
X11058158Y-11245722D01*
X11058158Y-11245722D02*
X11067682Y-11226674D01*
X11067682Y-11226674D02*
X11086730Y-11217150D01*
X11086730Y-11217150D02*
X11124825Y-11217150D01*
X11124825Y-11217150D02*
X11143873Y-11226674D01*
X11143873Y-11226674D02*
X11153396Y-11245722D01*
X11153396Y-11245722D02*
X11153396Y-11264769D01*
X11153396Y-11264769D02*
X11058158Y-11283817D01*
X11324825Y-11350484D02*
X11324825Y-11150484D01*
X11324825Y-11340960D02*
X11305777Y-11350484D01*
X11305777Y-11350484D02*
X11267682Y-11350484D01*
X11267682Y-11350484D02*
X11248634Y-11340960D01*
X11248634Y-11340960D02*
X11239111Y-11331436D01*
X11239111Y-11331436D02*
X11229587Y-11312388D01*
X11229587Y-11312388D02*
X11229587Y-11255246D01*
X11229587Y-11255246D02*
X11239111Y-11236198D01*
X11239111Y-11236198D02*
X11248634Y-11226674D01*
X11248634Y-11226674D02*
X11267682Y-11217150D01*
X11267682Y-11217150D02*
X11305777Y-11217150D01*
X11305777Y-11217150D02*
X11324825Y-11226674D01*
X11401015Y-11426674D02*
X11410539Y-11417150D01*
X11410539Y-11417150D02*
X11429587Y-11388579D01*
X11429587Y-11388579D02*
X11439111Y-11369531D01*
X11439111Y-11369531D02*
X11448634Y-11340960D01*
X11448634Y-11340960D02*
X11458158Y-11293341D01*
X11458158Y-11293341D02*
X11458158Y-11255246D01*
X11458158Y-11255246D02*
X11448634Y-11207627D01*
X11448634Y-11207627D02*
X11439111Y-11179055D01*
X11439111Y-11179055D02*
X11429587Y-11160008D01*
X11429587Y-11160008D02*
X11410539Y-11131436D01*
X11410539Y-11131436D02*
X11401015Y-11121912D01*
X4545000Y-11479000D02*
X4545000Y-11679000D01*
X4445000Y-11579000D02*
X4645000Y-11579000D01*
X4886729Y-11470484D02*
X5010539Y-11470484D01*
X5010539Y-11470484D02*
X4943872Y-11546674D01*
X4943872Y-11546674D02*
X4972444Y-11546674D01*
X4972444Y-11546674D02*
X4991491Y-11556198D01*
X4991491Y-11556198D02*
X5001015Y-11565722D01*
X5001015Y-11565722D02*
X5010539Y-11584769D01*
X5010539Y-11584769D02*
X5010539Y-11632388D01*
X5010539Y-11632388D02*
X5001015Y-11651436D01*
X5001015Y-11651436D02*
X4991491Y-11660960D01*
X4991491Y-11660960D02*
X4972444Y-11670484D01*
X4972444Y-11670484D02*
X4915301Y-11670484D01*
X4915301Y-11670484D02*
X4896253Y-11660960D01*
X4896253Y-11660960D02*
X4886729Y-11651436D01*
X5096253Y-11651436D02*
X5105777Y-11660960D01*
X5105777Y-11660960D02*
X5096253Y-11670484D01*
X5096253Y-11670484D02*
X5086729Y-11660960D01*
X5086729Y-11660960D02*
X5096253Y-11651436D01*
X5096253Y-11651436D02*
X5096253Y-11670484D01*
X5277205Y-11537150D02*
X5277205Y-11670484D01*
X5229586Y-11460960D02*
X5181967Y-11603817D01*
X5181967Y-11603817D02*
X5305777Y-11603817D01*
X5477205Y-11470484D02*
X5381967Y-11470484D01*
X5381967Y-11470484D02*
X5372444Y-11565722D01*
X5372444Y-11565722D02*
X5381967Y-11556198D01*
X5381967Y-11556198D02*
X5401015Y-11546674D01*
X5401015Y-11546674D02*
X5448634Y-11546674D01*
X5448634Y-11546674D02*
X5467682Y-11556198D01*
X5467682Y-11556198D02*
X5477205Y-11565722D01*
X5477205Y-11565722D02*
X5486729Y-11584769D01*
X5486729Y-11584769D02*
X5486729Y-11632388D01*
X5486729Y-11632388D02*
X5477205Y-11651436D01*
X5477205Y-11651436D02*
X5467682Y-11660960D01*
X5467682Y-11660960D02*
X5448634Y-11670484D01*
X5448634Y-11670484D02*
X5401015Y-11670484D01*
X5401015Y-11670484D02*
X5381967Y-11660960D01*
X5381967Y-11660960D02*
X5372444Y-11651436D01*
X5610539Y-11470484D02*
X5629586Y-11470484D01*
X5629586Y-11470484D02*
X5648634Y-11480008D01*
X5648634Y-11480008D02*
X5658158Y-11489531D01*
X5658158Y-11489531D02*
X5667682Y-11508579D01*
X5667682Y-11508579D02*
X5677205Y-11546674D01*
X5677205Y-11546674D02*
X5677205Y-11594293D01*
X5677205Y-11594293D02*
X5667682Y-11632388D01*
X5667682Y-11632388D02*
X5658158Y-11651436D01*
X5658158Y-11651436D02*
X5648634Y-11660960D01*
X5648634Y-11660960D02*
X5629586Y-11670484D01*
X5629586Y-11670484D02*
X5610539Y-11670484D01*
X5610539Y-11670484D02*
X5591491Y-11660960D01*
X5591491Y-11660960D02*
X5581967Y-11651436D01*
X5581967Y-11651436D02*
X5572444Y-11632388D01*
X5572444Y-11632388D02*
X5562920Y-11594293D01*
X5562920Y-11594293D02*
X5562920Y-11546674D01*
X5562920Y-11546674D02*
X5572444Y-11508579D01*
X5572444Y-11508579D02*
X5581967Y-11489531D01*
X5581967Y-11489531D02*
X5591491Y-11480008D01*
X5591491Y-11480008D02*
X5610539Y-11470484D01*
X5762920Y-11670484D02*
X5762920Y-11537150D01*
X5762920Y-11556198D02*
X5772443Y-11546674D01*
X5772443Y-11546674D02*
X5791491Y-11537150D01*
X5791491Y-11537150D02*
X5820063Y-11537150D01*
X5820063Y-11537150D02*
X5839110Y-11546674D01*
X5839110Y-11546674D02*
X5848634Y-11565722D01*
X5848634Y-11565722D02*
X5848634Y-11670484D01*
X5848634Y-11565722D02*
X5858158Y-11546674D01*
X5858158Y-11546674D02*
X5877205Y-11537150D01*
X5877205Y-11537150D02*
X5905777Y-11537150D01*
X5905777Y-11537150D02*
X5924824Y-11546674D01*
X5924824Y-11546674D02*
X5934348Y-11565722D01*
X5934348Y-11565722D02*
X5934348Y-11670484D01*
X6029586Y-11670484D02*
X6029586Y-11537150D01*
X6029586Y-11556198D02*
X6039110Y-11546674D01*
X6039110Y-11546674D02*
X6058158Y-11537150D01*
X6058158Y-11537150D02*
X6086729Y-11537150D01*
X6086729Y-11537150D02*
X6105777Y-11546674D01*
X6105777Y-11546674D02*
X6115301Y-11565722D01*
X6115301Y-11565722D02*
X6115301Y-11670484D01*
X6115301Y-11565722D02*
X6124824Y-11546674D01*
X6124824Y-11546674D02*
X6143872Y-11537150D01*
X6143872Y-11537150D02*
X6172443Y-11537150D01*
X6172443Y-11537150D02*
X6191491Y-11546674D01*
X6191491Y-11546674D02*
X6201015Y-11565722D01*
X6201015Y-11565722D02*
X6201015Y-11670484D01*
X6591491Y-11460960D02*
X6420063Y-11718103D01*
X6848634Y-11470484D02*
X6867682Y-11470484D01*
X6867682Y-11470484D02*
X6886729Y-11480008D01*
X6886729Y-11480008D02*
X6896253Y-11489531D01*
X6896253Y-11489531D02*
X6905777Y-11508579D01*
X6905777Y-11508579D02*
X6915301Y-11546674D01*
X6915301Y-11546674D02*
X6915301Y-11594293D01*
X6915301Y-11594293D02*
X6905777Y-11632388D01*
X6905777Y-11632388D02*
X6896253Y-11651436D01*
X6896253Y-11651436D02*
X6886729Y-11660960D01*
X6886729Y-11660960D02*
X6867682Y-11670484D01*
X6867682Y-11670484D02*
X6848634Y-11670484D01*
X6848634Y-11670484D02*
X6829586Y-11660960D01*
X6829586Y-11660960D02*
X6820063Y-11651436D01*
X6820063Y-11651436D02*
X6810539Y-11632388D01*
X6810539Y-11632388D02*
X6801015Y-11594293D01*
X6801015Y-11594293D02*
X6801015Y-11546674D01*
X6801015Y-11546674D02*
X6810539Y-11508579D01*
X6810539Y-11508579D02*
X6820063Y-11489531D01*
X6820063Y-11489531D02*
X6829586Y-11480008D01*
X6829586Y-11480008D02*
X6848634Y-11470484D01*
X7001015Y-11651436D02*
X7010539Y-11660960D01*
X7010539Y-11660960D02*
X7001015Y-11670484D01*
X7001015Y-11670484D02*
X6991491Y-11660960D01*
X6991491Y-11660960D02*
X7001015Y-11651436D01*
X7001015Y-11651436D02*
X7001015Y-11670484D01*
X7201015Y-11670484D02*
X7086729Y-11670484D01*
X7143872Y-11670484D02*
X7143872Y-11470484D01*
X7143872Y-11470484D02*
X7124825Y-11499055D01*
X7124825Y-11499055D02*
X7105777Y-11518103D01*
X7105777Y-11518103D02*
X7086729Y-11527627D01*
X7267682Y-11470484D02*
X7391491Y-11470484D01*
X7391491Y-11470484D02*
X7324825Y-11546674D01*
X7324825Y-11546674D02*
X7353396Y-11546674D01*
X7353396Y-11546674D02*
X7372444Y-11556198D01*
X7372444Y-11556198D02*
X7381967Y-11565722D01*
X7381967Y-11565722D02*
X7391491Y-11584769D01*
X7391491Y-11584769D02*
X7391491Y-11632388D01*
X7391491Y-11632388D02*
X7381967Y-11651436D01*
X7381967Y-11651436D02*
X7372444Y-11660960D01*
X7372444Y-11660960D02*
X7353396Y-11670484D01*
X7353396Y-11670484D02*
X7296253Y-11670484D01*
X7296253Y-11670484D02*
X7277206Y-11660960D01*
X7277206Y-11660960D02*
X7267682Y-11651436D01*
X7572444Y-11470484D02*
X7477206Y-11470484D01*
X7477206Y-11470484D02*
X7467682Y-11565722D01*
X7467682Y-11565722D02*
X7477206Y-11556198D01*
X7477206Y-11556198D02*
X7496253Y-11546674D01*
X7496253Y-11546674D02*
X7543872Y-11546674D01*
X7543872Y-11546674D02*
X7562920Y-11556198D01*
X7562920Y-11556198D02*
X7572444Y-11565722D01*
X7572444Y-11565722D02*
X7581967Y-11584769D01*
X7581967Y-11584769D02*
X7581967Y-11632388D01*
X7581967Y-11632388D02*
X7572444Y-11651436D01*
X7572444Y-11651436D02*
X7562920Y-11660960D01*
X7562920Y-11660960D02*
X7543872Y-11670484D01*
X7543872Y-11670484D02*
X7496253Y-11670484D01*
X7496253Y-11670484D02*
X7477206Y-11660960D01*
X7477206Y-11660960D02*
X7467682Y-11651436D01*
X7696253Y-11556198D02*
X7677206Y-11546674D01*
X7677206Y-11546674D02*
X7667682Y-11537150D01*
X7667682Y-11537150D02*
X7658158Y-11518103D01*
X7658158Y-11518103D02*
X7658158Y-11508579D01*
X7658158Y-11508579D02*
X7667682Y-11489531D01*
X7667682Y-11489531D02*
X7677206Y-11480008D01*
X7677206Y-11480008D02*
X7696253Y-11470484D01*
X7696253Y-11470484D02*
X7734348Y-11470484D01*
X7734348Y-11470484D02*
X7753396Y-11480008D01*
X7753396Y-11480008D02*
X7762920Y-11489531D01*
X7762920Y-11489531D02*
X7772444Y-11508579D01*
X7772444Y-11508579D02*
X7772444Y-11518103D01*
X7772444Y-11518103D02*
X7762920Y-11537150D01*
X7762920Y-11537150D02*
X7753396Y-11546674D01*
X7753396Y-11546674D02*
X7734348Y-11556198D01*
X7734348Y-11556198D02*
X7696253Y-11556198D01*
X7696253Y-11556198D02*
X7677206Y-11565722D01*
X7677206Y-11565722D02*
X7667682Y-11575246D01*
X7667682Y-11575246D02*
X7658158Y-11594293D01*
X7658158Y-11594293D02*
X7658158Y-11632388D01*
X7658158Y-11632388D02*
X7667682Y-11651436D01*
X7667682Y-11651436D02*
X7677206Y-11660960D01*
X7677206Y-11660960D02*
X7696253Y-11670484D01*
X7696253Y-11670484D02*
X7734348Y-11670484D01*
X7734348Y-11670484D02*
X7753396Y-11660960D01*
X7753396Y-11660960D02*
X7762920Y-11651436D01*
X7762920Y-11651436D02*
X7772444Y-11632388D01*
X7772444Y-11632388D02*
X7772444Y-11594293D01*
X7772444Y-11594293D02*
X7762920Y-11575246D01*
X7762920Y-11575246D02*
X7753396Y-11565722D01*
X7753396Y-11565722D02*
X7734348Y-11556198D01*
X7848634Y-11470484D02*
X7848634Y-11508579D01*
X7924825Y-11470484D02*
X7924825Y-11508579D01*
X8220063Y-11746674D02*
X8210539Y-11737150D01*
X8210539Y-11737150D02*
X8191491Y-11708579D01*
X8191491Y-11708579D02*
X8181968Y-11689531D01*
X8181968Y-11689531D02*
X8172444Y-11660960D01*
X8172444Y-11660960D02*
X8162920Y-11613341D01*
X8162920Y-11613341D02*
X8162920Y-11575246D01*
X8162920Y-11575246D02*
X8172444Y-11527627D01*
X8172444Y-11527627D02*
X8181968Y-11499055D01*
X8181968Y-11499055D02*
X8191491Y-11480008D01*
X8191491Y-11480008D02*
X8210539Y-11451436D01*
X8210539Y-11451436D02*
X8220063Y-11441912D01*
X8286729Y-11489531D02*
X8296253Y-11480008D01*
X8296253Y-11480008D02*
X8315301Y-11470484D01*
X8315301Y-11470484D02*
X8362920Y-11470484D01*
X8362920Y-11470484D02*
X8381968Y-11480008D01*
X8381968Y-11480008D02*
X8391491Y-11489531D01*
X8391491Y-11489531D02*
X8401015Y-11508579D01*
X8401015Y-11508579D02*
X8401015Y-11527627D01*
X8401015Y-11527627D02*
X8391491Y-11556198D01*
X8391491Y-11556198D02*
X8277206Y-11670484D01*
X8277206Y-11670484D02*
X8401015Y-11670484D01*
X8639111Y-11670484D02*
X8639111Y-11470484D01*
X8724825Y-11670484D02*
X8724825Y-11565722D01*
X8724825Y-11565722D02*
X8715301Y-11546674D01*
X8715301Y-11546674D02*
X8696253Y-11537150D01*
X8696253Y-11537150D02*
X8667682Y-11537150D01*
X8667682Y-11537150D02*
X8648634Y-11546674D01*
X8648634Y-11546674D02*
X8639111Y-11556198D01*
X8848634Y-11670484D02*
X8829587Y-11660960D01*
X8829587Y-11660960D02*
X8820063Y-11651436D01*
X8820063Y-11651436D02*
X8810539Y-11632388D01*
X8810539Y-11632388D02*
X8810539Y-11575246D01*
X8810539Y-11575246D02*
X8820063Y-11556198D01*
X8820063Y-11556198D02*
X8829587Y-11546674D01*
X8829587Y-11546674D02*
X8848634Y-11537150D01*
X8848634Y-11537150D02*
X8877206Y-11537150D01*
X8877206Y-11537150D02*
X8896253Y-11546674D01*
X8896253Y-11546674D02*
X8905777Y-11556198D01*
X8905777Y-11556198D02*
X8915301Y-11575246D01*
X8915301Y-11575246D02*
X8915301Y-11632388D01*
X8915301Y-11632388D02*
X8905777Y-11651436D01*
X8905777Y-11651436D02*
X8896253Y-11660960D01*
X8896253Y-11660960D02*
X8877206Y-11670484D01*
X8877206Y-11670484D02*
X8848634Y-11670484D01*
X9029587Y-11670484D02*
X9010539Y-11660960D01*
X9010539Y-11660960D02*
X9001015Y-11641912D01*
X9001015Y-11641912D02*
X9001015Y-11470484D01*
X9181968Y-11660960D02*
X9162920Y-11670484D01*
X9162920Y-11670484D02*
X9124825Y-11670484D01*
X9124825Y-11670484D02*
X9105777Y-11660960D01*
X9105777Y-11660960D02*
X9096253Y-11641912D01*
X9096253Y-11641912D02*
X9096253Y-11565722D01*
X9096253Y-11565722D02*
X9105777Y-11546674D01*
X9105777Y-11546674D02*
X9124825Y-11537150D01*
X9124825Y-11537150D02*
X9162920Y-11537150D01*
X9162920Y-11537150D02*
X9181968Y-11546674D01*
X9181968Y-11546674D02*
X9191492Y-11565722D01*
X9191492Y-11565722D02*
X9191492Y-11584769D01*
X9191492Y-11584769D02*
X9096253Y-11603817D01*
X9267682Y-11660960D02*
X9286730Y-11670484D01*
X9286730Y-11670484D02*
X9324825Y-11670484D01*
X9324825Y-11670484D02*
X9343873Y-11660960D01*
X9343873Y-11660960D02*
X9353396Y-11641912D01*
X9353396Y-11641912D02*
X9353396Y-11632388D01*
X9353396Y-11632388D02*
X9343873Y-11613341D01*
X9343873Y-11613341D02*
X9324825Y-11603817D01*
X9324825Y-11603817D02*
X9296253Y-11603817D01*
X9296253Y-11603817D02*
X9277206Y-11594293D01*
X9277206Y-11594293D02*
X9267682Y-11575246D01*
X9267682Y-11575246D02*
X9267682Y-11565722D01*
X9267682Y-11565722D02*
X9277206Y-11546674D01*
X9277206Y-11546674D02*
X9296253Y-11537150D01*
X9296253Y-11537150D02*
X9324825Y-11537150D01*
X9324825Y-11537150D02*
X9343873Y-11546674D01*
X9420063Y-11746674D02*
X9429587Y-11737150D01*
X9429587Y-11737150D02*
X9448634Y-11708579D01*
X9448634Y-11708579D02*
X9458158Y-11689531D01*
X9458158Y-11689531D02*
X9467682Y-11660960D01*
X9467682Y-11660960D02*
X9477206Y-11613341D01*
X9477206Y-11613341D02*
X9477206Y-11575246D01*
X9477206Y-11575246D02*
X9467682Y-11527627D01*
X9467682Y-11527627D02*
X9458158Y-11499055D01*
X9458158Y-11499055D02*
X9448634Y-11480008D01*
X9448634Y-11480008D02*
X9429587Y-11451436D01*
X9429587Y-11451436D02*
X9420063Y-11441912D01*
X9781968Y-11746674D02*
X9772444Y-11737150D01*
X9772444Y-11737150D02*
X9753396Y-11708579D01*
X9753396Y-11708579D02*
X9743873Y-11689531D01*
X9743873Y-11689531D02*
X9734349Y-11660960D01*
X9734349Y-11660960D02*
X9724825Y-11613341D01*
X9724825Y-11613341D02*
X9724825Y-11575246D01*
X9724825Y-11575246D02*
X9734349Y-11527627D01*
X9734349Y-11527627D02*
X9743873Y-11499055D01*
X9743873Y-11499055D02*
X9753396Y-11480008D01*
X9753396Y-11480008D02*
X9772444Y-11451436D01*
X9772444Y-11451436D02*
X9781968Y-11441912D01*
X9858158Y-11537150D02*
X9858158Y-11670484D01*
X9858158Y-11556198D02*
X9867682Y-11546674D01*
X9867682Y-11546674D02*
X9886730Y-11537150D01*
X9886730Y-11537150D02*
X9915301Y-11537150D01*
X9915301Y-11537150D02*
X9934349Y-11546674D01*
X9934349Y-11546674D02*
X9943873Y-11565722D01*
X9943873Y-11565722D02*
X9943873Y-11670484D01*
X10067682Y-11670484D02*
X10048634Y-11660960D01*
X10048634Y-11660960D02*
X10039111Y-11651436D01*
X10039111Y-11651436D02*
X10029587Y-11632388D01*
X10029587Y-11632388D02*
X10029587Y-11575246D01*
X10029587Y-11575246D02*
X10039111Y-11556198D01*
X10039111Y-11556198D02*
X10048634Y-11546674D01*
X10048634Y-11546674D02*
X10067682Y-11537150D01*
X10067682Y-11537150D02*
X10096254Y-11537150D01*
X10096254Y-11537150D02*
X10115301Y-11546674D01*
X10115301Y-11546674D02*
X10124825Y-11556198D01*
X10124825Y-11556198D02*
X10134349Y-11575246D01*
X10134349Y-11575246D02*
X10134349Y-11632388D01*
X10134349Y-11632388D02*
X10124825Y-11651436D01*
X10124825Y-11651436D02*
X10115301Y-11660960D01*
X10115301Y-11660960D02*
X10096254Y-11670484D01*
X10096254Y-11670484D02*
X10067682Y-11670484D01*
X10191492Y-11537150D02*
X10267682Y-11537150D01*
X10220063Y-11470484D02*
X10220063Y-11641912D01*
X10220063Y-11641912D02*
X10229587Y-11660960D01*
X10229587Y-11660960D02*
X10248634Y-11670484D01*
X10248634Y-11670484D02*
X10267682Y-11670484D01*
X10486730Y-11537150D02*
X10486730Y-11737150D01*
X10486730Y-11546674D02*
X10505777Y-11537150D01*
X10505777Y-11537150D02*
X10543873Y-11537150D01*
X10543873Y-11537150D02*
X10562920Y-11546674D01*
X10562920Y-11546674D02*
X10572444Y-11556198D01*
X10572444Y-11556198D02*
X10581968Y-11575246D01*
X10581968Y-11575246D02*
X10581968Y-11632388D01*
X10581968Y-11632388D02*
X10572444Y-11651436D01*
X10572444Y-11651436D02*
X10562920Y-11660960D01*
X10562920Y-11660960D02*
X10543873Y-11670484D01*
X10543873Y-11670484D02*
X10505777Y-11670484D01*
X10505777Y-11670484D02*
X10486730Y-11660960D01*
X10696254Y-11670484D02*
X10677206Y-11660960D01*
X10677206Y-11660960D02*
X10667682Y-11641912D01*
X10667682Y-11641912D02*
X10667682Y-11470484D01*
X10858158Y-11670484D02*
X10858158Y-11565722D01*
X10858158Y-11565722D02*
X10848635Y-11546674D01*
X10848635Y-11546674D02*
X10829587Y-11537150D01*
X10829587Y-11537150D02*
X10791492Y-11537150D01*
X10791492Y-11537150D02*
X10772444Y-11546674D01*
X10858158Y-11660960D02*
X10839111Y-11670484D01*
X10839111Y-11670484D02*
X10791492Y-11670484D01*
X10791492Y-11670484D02*
X10772444Y-11660960D01*
X10772444Y-11660960D02*
X10762920Y-11641912D01*
X10762920Y-11641912D02*
X10762920Y-11622865D01*
X10762920Y-11622865D02*
X10772444Y-11603817D01*
X10772444Y-11603817D02*
X10791492Y-11594293D01*
X10791492Y-11594293D02*
X10839111Y-11594293D01*
X10839111Y-11594293D02*
X10858158Y-11584769D01*
X10924825Y-11537150D02*
X11001015Y-11537150D01*
X10953396Y-11470484D02*
X10953396Y-11641912D01*
X10953396Y-11641912D02*
X10962920Y-11660960D01*
X10962920Y-11660960D02*
X10981968Y-11670484D01*
X10981968Y-11670484D02*
X11001015Y-11670484D01*
X11143873Y-11660960D02*
X11124825Y-11670484D01*
X11124825Y-11670484D02*
X11086730Y-11670484D01*
X11086730Y-11670484D02*
X11067682Y-11660960D01*
X11067682Y-11660960D02*
X11058158Y-11641912D01*
X11058158Y-11641912D02*
X11058158Y-11565722D01*
X11058158Y-11565722D02*
X11067682Y-11546674D01*
X11067682Y-11546674D02*
X11086730Y-11537150D01*
X11086730Y-11537150D02*
X11124825Y-11537150D01*
X11124825Y-11537150D02*
X11143873Y-11546674D01*
X11143873Y-11546674D02*
X11153396Y-11565722D01*
X11153396Y-11565722D02*
X11153396Y-11584769D01*
X11153396Y-11584769D02*
X11058158Y-11603817D01*
X11324825Y-11670484D02*
X11324825Y-11470484D01*
X11324825Y-11660960D02*
X11305777Y-11670484D01*
X11305777Y-11670484D02*
X11267682Y-11670484D01*
X11267682Y-11670484D02*
X11248634Y-11660960D01*
X11248634Y-11660960D02*
X11239111Y-11651436D01*
X11239111Y-11651436D02*
X11229587Y-11632388D01*
X11229587Y-11632388D02*
X11229587Y-11575246D01*
X11229587Y-11575246D02*
X11239111Y-11556198D01*
X11239111Y-11556198D02*
X11248634Y-11546674D01*
X11248634Y-11546674D02*
X11267682Y-11537150D01*
X11267682Y-11537150D02*
X11305777Y-11537150D01*
X11305777Y-11537150D02*
X11324825Y-11546674D01*
X11401015Y-11746674D02*
X11410539Y-11737150D01*
X11410539Y-11737150D02*
X11429587Y-11708579D01*
X11429587Y-11708579D02*
X11439111Y-11689531D01*
X11439111Y-11689531D02*
X11448634Y-11660960D01*
X11448634Y-11660960D02*
X11458158Y-11613341D01*
X11458158Y-11613341D02*
X11458158Y-11575246D01*
X11458158Y-11575246D02*
X11448634Y-11527627D01*
X11448634Y-11527627D02*
X11439111Y-11499055D01*
X11439111Y-11499055D02*
X11429587Y-11480008D01*
X11429587Y-11480008D02*
X11410539Y-11451436D01*
X11410539Y-11451436D02*
X11401015Y-11441912D01*
M02*
