%TF.GenerationSoftware,KiCad,Pcbnew,7.0.10*%
%TF.CreationDate,2024-01-08T08:34:30+01:00*%
%TF.ProjectId,mold_detect,6d6f6c64-5f64-4657-9465-63742e6b6963,rev?*%
%TF.SameCoordinates,Original*%
%TF.FileFunction,Legend,Bot*%
%TF.FilePolarity,Positive*%
%FSLAX46Y46*%
G04 Gerber Fmt 4.6, Leading zero omitted, Abs format (unit mm)*
G04 Created by KiCad (PCBNEW 7.0.10) date 2024-01-08 08:34:30*
%MOMM*%
%LPD*%
G01*
G04 APERTURE LIST*
%ADD10C,0.150000*%
%ADD11C,0.010000*%
G04 APERTURE END LIST*
D10*
X80723152Y-93315350D02*
X81532676Y-93315350D01*
X81532676Y-93315350D02*
X81627914Y-93267731D01*
X81627914Y-93267731D02*
X81675533Y-93220112D01*
X81675533Y-93220112D02*
X81723152Y-93124874D01*
X81723152Y-93124874D02*
X81723152Y-92982017D01*
X81723152Y-92982017D02*
X81675533Y-92886779D01*
X81342200Y-93315350D02*
X81389819Y-93220112D01*
X81389819Y-93220112D02*
X81389819Y-93029636D01*
X81389819Y-93029636D02*
X81342200Y-92934398D01*
X81342200Y-92934398D02*
X81294580Y-92886779D01*
X81294580Y-92886779D02*
X81199342Y-92839160D01*
X81199342Y-92839160D02*
X80913628Y-92839160D01*
X80913628Y-92839160D02*
X80818390Y-92886779D01*
X80818390Y-92886779D02*
X80770771Y-92934398D01*
X80770771Y-92934398D02*
X80723152Y-93029636D01*
X80723152Y-93029636D02*
X80723152Y-93220112D01*
X80723152Y-93220112D02*
X80770771Y-93315350D01*
X81389819Y-93791541D02*
X80723152Y-93791541D01*
X80389819Y-93791541D02*
X80437438Y-93743922D01*
X80437438Y-93743922D02*
X80485057Y-93791541D01*
X80485057Y-93791541D02*
X80437438Y-93839160D01*
X80437438Y-93839160D02*
X80389819Y-93791541D01*
X80389819Y-93791541D02*
X80485057Y-93791541D01*
X80723152Y-94124874D02*
X80723152Y-94505826D01*
X80389819Y-94267731D02*
X81246961Y-94267731D01*
X81246961Y-94267731D02*
X81342200Y-94315350D01*
X81342200Y-94315350D02*
X81389819Y-94410588D01*
X81389819Y-94410588D02*
X81389819Y-94505826D01*
X81389819Y-94839160D02*
X80389819Y-94839160D01*
X81389819Y-95267731D02*
X80866009Y-95267731D01*
X80866009Y-95267731D02*
X80770771Y-95220112D01*
X80770771Y-95220112D02*
X80723152Y-95124874D01*
X80723152Y-95124874D02*
X80723152Y-94982017D01*
X80723152Y-94982017D02*
X80770771Y-94886779D01*
X80770771Y-94886779D02*
X80818390Y-94839160D01*
X80723152Y-96172493D02*
X81389819Y-96172493D01*
X80723152Y-95743922D02*
X81246961Y-95743922D01*
X81246961Y-95743922D02*
X81342200Y-95791541D01*
X81342200Y-95791541D02*
X81389819Y-95886779D01*
X81389819Y-95886779D02*
X81389819Y-96029636D01*
X81389819Y-96029636D02*
X81342200Y-96124874D01*
X81342200Y-96124874D02*
X81294580Y-96172493D01*
X81389819Y-96648684D02*
X80389819Y-96648684D01*
X80770771Y-96648684D02*
X80723152Y-96743922D01*
X80723152Y-96743922D02*
X80723152Y-96934398D01*
X80723152Y-96934398D02*
X80770771Y-97029636D01*
X80770771Y-97029636D02*
X80818390Y-97077255D01*
X80818390Y-97077255D02*
X80913628Y-97124874D01*
X80913628Y-97124874D02*
X81199342Y-97124874D01*
X81199342Y-97124874D02*
X81294580Y-97077255D01*
X81294580Y-97077255D02*
X81342200Y-97029636D01*
X81342200Y-97029636D02*
X81389819Y-96934398D01*
X81389819Y-96934398D02*
X81389819Y-96743922D01*
X81389819Y-96743922D02*
X81342200Y-96648684D01*
X81294580Y-97553446D02*
X81342200Y-97601065D01*
X81342200Y-97601065D02*
X81389819Y-97553446D01*
X81389819Y-97553446D02*
X81342200Y-97505827D01*
X81342200Y-97505827D02*
X81294580Y-97553446D01*
X81294580Y-97553446D02*
X81389819Y-97553446D01*
X81342200Y-98458207D02*
X81389819Y-98362969D01*
X81389819Y-98362969D02*
X81389819Y-98172493D01*
X81389819Y-98172493D02*
X81342200Y-98077255D01*
X81342200Y-98077255D02*
X81294580Y-98029636D01*
X81294580Y-98029636D02*
X81199342Y-97982017D01*
X81199342Y-97982017D02*
X80913628Y-97982017D01*
X80913628Y-97982017D02*
X80818390Y-98029636D01*
X80818390Y-98029636D02*
X80770771Y-98077255D01*
X80770771Y-98077255D02*
X80723152Y-98172493D01*
X80723152Y-98172493D02*
X80723152Y-98362969D01*
X80723152Y-98362969D02*
X80770771Y-98458207D01*
X81389819Y-99029636D02*
X81342200Y-98934398D01*
X81342200Y-98934398D02*
X81294580Y-98886779D01*
X81294580Y-98886779D02*
X81199342Y-98839160D01*
X81199342Y-98839160D02*
X80913628Y-98839160D01*
X80913628Y-98839160D02*
X80818390Y-98886779D01*
X80818390Y-98886779D02*
X80770771Y-98934398D01*
X80770771Y-98934398D02*
X80723152Y-99029636D01*
X80723152Y-99029636D02*
X80723152Y-99172493D01*
X80723152Y-99172493D02*
X80770771Y-99267731D01*
X80770771Y-99267731D02*
X80818390Y-99315350D01*
X80818390Y-99315350D02*
X80913628Y-99362969D01*
X80913628Y-99362969D02*
X81199342Y-99362969D01*
X81199342Y-99362969D02*
X81294580Y-99315350D01*
X81294580Y-99315350D02*
X81342200Y-99267731D01*
X81342200Y-99267731D02*
X81389819Y-99172493D01*
X81389819Y-99172493D02*
X81389819Y-99029636D01*
X81389819Y-99791541D02*
X80723152Y-99791541D01*
X80818390Y-99791541D02*
X80770771Y-99839160D01*
X80770771Y-99839160D02*
X80723152Y-99934398D01*
X80723152Y-99934398D02*
X80723152Y-100077255D01*
X80723152Y-100077255D02*
X80770771Y-100172493D01*
X80770771Y-100172493D02*
X80866009Y-100220112D01*
X80866009Y-100220112D02*
X81389819Y-100220112D01*
X80866009Y-100220112D02*
X80770771Y-100267731D01*
X80770771Y-100267731D02*
X80723152Y-100362969D01*
X80723152Y-100362969D02*
X80723152Y-100505826D01*
X80723152Y-100505826D02*
X80770771Y-100601065D01*
X80770771Y-100601065D02*
X80866009Y-100648684D01*
X80866009Y-100648684D02*
X81389819Y-100648684D01*
X80342200Y-101839159D02*
X81627914Y-100982017D01*
X81342200Y-102601064D02*
X81389819Y-102505826D01*
X81389819Y-102505826D02*
X81389819Y-102315350D01*
X81389819Y-102315350D02*
X81342200Y-102220112D01*
X81342200Y-102220112D02*
X81294580Y-102172493D01*
X81294580Y-102172493D02*
X81199342Y-102124874D01*
X81199342Y-102124874D02*
X80913628Y-102124874D01*
X80913628Y-102124874D02*
X80818390Y-102172493D01*
X80818390Y-102172493D02*
X80770771Y-102220112D01*
X80770771Y-102220112D02*
X80723152Y-102315350D01*
X80723152Y-102315350D02*
X80723152Y-102505826D01*
X80723152Y-102505826D02*
X80770771Y-102601064D01*
X81389819Y-103029636D02*
X80389819Y-103029636D01*
X81389819Y-103458207D02*
X80866009Y-103458207D01*
X80866009Y-103458207D02*
X80770771Y-103410588D01*
X80770771Y-103410588D02*
X80723152Y-103315350D01*
X80723152Y-103315350D02*
X80723152Y-103172493D01*
X80723152Y-103172493D02*
X80770771Y-103077255D01*
X80770771Y-103077255D02*
X80818390Y-103029636D01*
X81389819Y-103934398D02*
X80723152Y-103934398D01*
X80913628Y-103934398D02*
X80818390Y-103982017D01*
X80818390Y-103982017D02*
X80770771Y-104029636D01*
X80770771Y-104029636D02*
X80723152Y-104124874D01*
X80723152Y-104124874D02*
X80723152Y-104220112D01*
X81389819Y-104553446D02*
X80723152Y-104553446D01*
X80389819Y-104553446D02*
X80437438Y-104505827D01*
X80437438Y-104505827D02*
X80485057Y-104553446D01*
X80485057Y-104553446D02*
X80437438Y-104601065D01*
X80437438Y-104601065D02*
X80389819Y-104553446D01*
X80389819Y-104553446D02*
X80485057Y-104553446D01*
X81342200Y-104982017D02*
X81389819Y-105077255D01*
X81389819Y-105077255D02*
X81389819Y-105267731D01*
X81389819Y-105267731D02*
X81342200Y-105362969D01*
X81342200Y-105362969D02*
X81246961Y-105410588D01*
X81246961Y-105410588D02*
X81199342Y-105410588D01*
X81199342Y-105410588D02*
X81104104Y-105362969D01*
X81104104Y-105362969D02*
X81056485Y-105267731D01*
X81056485Y-105267731D02*
X81056485Y-105124874D01*
X81056485Y-105124874D02*
X81008866Y-105029636D01*
X81008866Y-105029636D02*
X80913628Y-104982017D01*
X80913628Y-104982017D02*
X80866009Y-104982017D01*
X80866009Y-104982017D02*
X80770771Y-105029636D01*
X80770771Y-105029636D02*
X80723152Y-105124874D01*
X80723152Y-105124874D02*
X80723152Y-105267731D01*
X80723152Y-105267731D02*
X80770771Y-105362969D01*
X80723152Y-105696303D02*
X80723152Y-106077255D01*
X80389819Y-105839160D02*
X81246961Y-105839160D01*
X81246961Y-105839160D02*
X81342200Y-105886779D01*
X81342200Y-105886779D02*
X81389819Y-105982017D01*
X81389819Y-105982017D02*
X81389819Y-106077255D01*
X81389819Y-106553446D02*
X81342200Y-106458208D01*
X81342200Y-106458208D02*
X81294580Y-106410589D01*
X81294580Y-106410589D02*
X81199342Y-106362970D01*
X81199342Y-106362970D02*
X80913628Y-106362970D01*
X80913628Y-106362970D02*
X80818390Y-106410589D01*
X80818390Y-106410589D02*
X80770771Y-106458208D01*
X80770771Y-106458208D02*
X80723152Y-106553446D01*
X80723152Y-106553446D02*
X80723152Y-106696303D01*
X80723152Y-106696303D02*
X80770771Y-106791541D01*
X80770771Y-106791541D02*
X80818390Y-106839160D01*
X80818390Y-106839160D02*
X80913628Y-106886779D01*
X80913628Y-106886779D02*
X81199342Y-106886779D01*
X81199342Y-106886779D02*
X81294580Y-106839160D01*
X81294580Y-106839160D02*
X81342200Y-106791541D01*
X81342200Y-106791541D02*
X81389819Y-106696303D01*
X81389819Y-106696303D02*
X81389819Y-106553446D01*
X80723152Y-107315351D02*
X81723152Y-107315351D01*
X80770771Y-107315351D02*
X80723152Y-107410589D01*
X80723152Y-107410589D02*
X80723152Y-107601065D01*
X80723152Y-107601065D02*
X80770771Y-107696303D01*
X80770771Y-107696303D02*
X80818390Y-107743922D01*
X80818390Y-107743922D02*
X80913628Y-107791541D01*
X80913628Y-107791541D02*
X81199342Y-107791541D01*
X81199342Y-107791541D02*
X81294580Y-107743922D01*
X81294580Y-107743922D02*
X81342200Y-107696303D01*
X81342200Y-107696303D02*
X81389819Y-107601065D01*
X81389819Y-107601065D02*
X81389819Y-107410589D01*
X81389819Y-107410589D02*
X81342200Y-107315351D01*
X81389819Y-108220113D02*
X80389819Y-108220113D01*
X81389819Y-108648684D02*
X80866009Y-108648684D01*
X80866009Y-108648684D02*
X80770771Y-108601065D01*
X80770771Y-108601065D02*
X80723152Y-108505827D01*
X80723152Y-108505827D02*
X80723152Y-108362970D01*
X80723152Y-108362970D02*
X80770771Y-108267732D01*
X80770771Y-108267732D02*
X80818390Y-108220113D01*
X81342200Y-109505827D02*
X81389819Y-109410589D01*
X81389819Y-109410589D02*
X81389819Y-109220113D01*
X81389819Y-109220113D02*
X81342200Y-109124875D01*
X81342200Y-109124875D02*
X81246961Y-109077256D01*
X81246961Y-109077256D02*
X80866009Y-109077256D01*
X80866009Y-109077256D02*
X80770771Y-109124875D01*
X80770771Y-109124875D02*
X80723152Y-109220113D01*
X80723152Y-109220113D02*
X80723152Y-109410589D01*
X80723152Y-109410589D02*
X80770771Y-109505827D01*
X80770771Y-109505827D02*
X80866009Y-109553446D01*
X80866009Y-109553446D02*
X80961247Y-109553446D01*
X80961247Y-109553446D02*
X81056485Y-109077256D01*
X81389819Y-109982018D02*
X80723152Y-109982018D01*
X80913628Y-109982018D02*
X80818390Y-110029637D01*
X80818390Y-110029637D02*
X80770771Y-110077256D01*
X80770771Y-110077256D02*
X80723152Y-110172494D01*
X80723152Y-110172494D02*
X80723152Y-110267732D01*
X81008866Y-110601066D02*
X81008866Y-111362971D01*
X81389819Y-111839161D02*
X80389819Y-111839161D01*
X80770771Y-111839161D02*
X80723152Y-111934399D01*
X80723152Y-111934399D02*
X80723152Y-112124875D01*
X80723152Y-112124875D02*
X80770771Y-112220113D01*
X80770771Y-112220113D02*
X80818390Y-112267732D01*
X80818390Y-112267732D02*
X80913628Y-112315351D01*
X80913628Y-112315351D02*
X81199342Y-112315351D01*
X81199342Y-112315351D02*
X81294580Y-112267732D01*
X81294580Y-112267732D02*
X81342200Y-112220113D01*
X81342200Y-112220113D02*
X81389819Y-112124875D01*
X81389819Y-112124875D02*
X81389819Y-111934399D01*
X81389819Y-111934399D02*
X81342200Y-111839161D01*
X81342200Y-113124875D02*
X81389819Y-113029637D01*
X81389819Y-113029637D02*
X81389819Y-112839161D01*
X81389819Y-112839161D02*
X81342200Y-112743923D01*
X81342200Y-112743923D02*
X81246961Y-112696304D01*
X81246961Y-112696304D02*
X80866009Y-112696304D01*
X80866009Y-112696304D02*
X80770771Y-112743923D01*
X80770771Y-112743923D02*
X80723152Y-112839161D01*
X80723152Y-112839161D02*
X80723152Y-113029637D01*
X80723152Y-113029637D02*
X80770771Y-113124875D01*
X80770771Y-113124875D02*
X80866009Y-113172494D01*
X80866009Y-113172494D02*
X80961247Y-113172494D01*
X80961247Y-113172494D02*
X81056485Y-112696304D01*
X81342200Y-113553447D02*
X81389819Y-113648685D01*
X81389819Y-113648685D02*
X81389819Y-113839161D01*
X81389819Y-113839161D02*
X81342200Y-113934399D01*
X81342200Y-113934399D02*
X81246961Y-113982018D01*
X81246961Y-113982018D02*
X81199342Y-113982018D01*
X81199342Y-113982018D02*
X81104104Y-113934399D01*
X81104104Y-113934399D02*
X81056485Y-113839161D01*
X81056485Y-113839161D02*
X81056485Y-113696304D01*
X81056485Y-113696304D02*
X81008866Y-113601066D01*
X81008866Y-113601066D02*
X80913628Y-113553447D01*
X80913628Y-113553447D02*
X80866009Y-113553447D01*
X80866009Y-113553447D02*
X80770771Y-113601066D01*
X80770771Y-113601066D02*
X80723152Y-113696304D01*
X80723152Y-113696304D02*
X80723152Y-113839161D01*
X80723152Y-113839161D02*
X80770771Y-113934399D01*
X81342200Y-114839161D02*
X81389819Y-114743923D01*
X81389819Y-114743923D02*
X81389819Y-114553447D01*
X81389819Y-114553447D02*
X81342200Y-114458209D01*
X81342200Y-114458209D02*
X81294580Y-114410590D01*
X81294580Y-114410590D02*
X81199342Y-114362971D01*
X81199342Y-114362971D02*
X80913628Y-114362971D01*
X80913628Y-114362971D02*
X80818390Y-114410590D01*
X80818390Y-114410590D02*
X80770771Y-114458209D01*
X80770771Y-114458209D02*
X80723152Y-114553447D01*
X80723152Y-114553447D02*
X80723152Y-114743923D01*
X80723152Y-114743923D02*
X80770771Y-114839161D01*
X81389819Y-115267733D02*
X80389819Y-115267733D01*
X81389819Y-115696304D02*
X80866009Y-115696304D01*
X80866009Y-115696304D02*
X80770771Y-115648685D01*
X80770771Y-115648685D02*
X80723152Y-115553447D01*
X80723152Y-115553447D02*
X80723152Y-115410590D01*
X80723152Y-115410590D02*
X80770771Y-115315352D01*
X80770771Y-115315352D02*
X80818390Y-115267733D01*
X80342200Y-116886780D02*
X81627914Y-116029638D01*
X81389819Y-117220114D02*
X80723152Y-117220114D01*
X80818390Y-117220114D02*
X80770771Y-117267733D01*
X80770771Y-117267733D02*
X80723152Y-117362971D01*
X80723152Y-117362971D02*
X80723152Y-117505828D01*
X80723152Y-117505828D02*
X80770771Y-117601066D01*
X80770771Y-117601066D02*
X80866009Y-117648685D01*
X80866009Y-117648685D02*
X81389819Y-117648685D01*
X80866009Y-117648685D02*
X80770771Y-117696304D01*
X80770771Y-117696304D02*
X80723152Y-117791542D01*
X80723152Y-117791542D02*
X80723152Y-117934399D01*
X80723152Y-117934399D02*
X80770771Y-118029638D01*
X80770771Y-118029638D02*
X80866009Y-118077257D01*
X80866009Y-118077257D02*
X81389819Y-118077257D01*
X81389819Y-118696304D02*
X81342200Y-118601066D01*
X81342200Y-118601066D02*
X81294580Y-118553447D01*
X81294580Y-118553447D02*
X81199342Y-118505828D01*
X81199342Y-118505828D02*
X80913628Y-118505828D01*
X80913628Y-118505828D02*
X80818390Y-118553447D01*
X80818390Y-118553447D02*
X80770771Y-118601066D01*
X80770771Y-118601066D02*
X80723152Y-118696304D01*
X80723152Y-118696304D02*
X80723152Y-118839161D01*
X80723152Y-118839161D02*
X80770771Y-118934399D01*
X80770771Y-118934399D02*
X80818390Y-118982018D01*
X80818390Y-118982018D02*
X80913628Y-119029637D01*
X80913628Y-119029637D02*
X81199342Y-119029637D01*
X81199342Y-119029637D02*
X81294580Y-118982018D01*
X81294580Y-118982018D02*
X81342200Y-118934399D01*
X81342200Y-118934399D02*
X81389819Y-118839161D01*
X81389819Y-118839161D02*
X81389819Y-118696304D01*
X81389819Y-119601066D02*
X81342200Y-119505828D01*
X81342200Y-119505828D02*
X81246961Y-119458209D01*
X81246961Y-119458209D02*
X80389819Y-119458209D01*
X81389819Y-120410590D02*
X80389819Y-120410590D01*
X81342200Y-120410590D02*
X81389819Y-120315352D01*
X81389819Y-120315352D02*
X81389819Y-120124876D01*
X81389819Y-120124876D02*
X81342200Y-120029638D01*
X81342200Y-120029638D02*
X81294580Y-119982019D01*
X81294580Y-119982019D02*
X81199342Y-119934400D01*
X81199342Y-119934400D02*
X80913628Y-119934400D01*
X80913628Y-119934400D02*
X80818390Y-119982019D01*
X80818390Y-119982019D02*
X80770771Y-120029638D01*
X80770771Y-120029638D02*
X80723152Y-120124876D01*
X80723152Y-120124876D02*
X80723152Y-120315352D01*
X80723152Y-120315352D02*
X80770771Y-120410590D01*
X81485057Y-120648686D02*
X81485057Y-121410590D01*
X81389819Y-122077257D02*
X80389819Y-122077257D01*
X81342200Y-122077257D02*
X81389819Y-121982019D01*
X81389819Y-121982019D02*
X81389819Y-121791543D01*
X81389819Y-121791543D02*
X81342200Y-121696305D01*
X81342200Y-121696305D02*
X81294580Y-121648686D01*
X81294580Y-121648686D02*
X81199342Y-121601067D01*
X81199342Y-121601067D02*
X80913628Y-121601067D01*
X80913628Y-121601067D02*
X80818390Y-121648686D01*
X80818390Y-121648686D02*
X80770771Y-121696305D01*
X80770771Y-121696305D02*
X80723152Y-121791543D01*
X80723152Y-121791543D02*
X80723152Y-121982019D01*
X80723152Y-121982019D02*
X80770771Y-122077257D01*
X81342200Y-122934400D02*
X81389819Y-122839162D01*
X81389819Y-122839162D02*
X81389819Y-122648686D01*
X81389819Y-122648686D02*
X81342200Y-122553448D01*
X81342200Y-122553448D02*
X81246961Y-122505829D01*
X81246961Y-122505829D02*
X80866009Y-122505829D01*
X80866009Y-122505829D02*
X80770771Y-122553448D01*
X80770771Y-122553448D02*
X80723152Y-122648686D01*
X80723152Y-122648686D02*
X80723152Y-122839162D01*
X80723152Y-122839162D02*
X80770771Y-122934400D01*
X80770771Y-122934400D02*
X80866009Y-122982019D01*
X80866009Y-122982019D02*
X80961247Y-122982019D01*
X80961247Y-122982019D02*
X81056485Y-122505829D01*
X80723152Y-123267734D02*
X80723152Y-123648686D01*
X80389819Y-123410591D02*
X81246961Y-123410591D01*
X81246961Y-123410591D02*
X81342200Y-123458210D01*
X81342200Y-123458210D02*
X81389819Y-123553448D01*
X81389819Y-123553448D02*
X81389819Y-123648686D01*
X81342200Y-124362972D02*
X81389819Y-124267734D01*
X81389819Y-124267734D02*
X81389819Y-124077258D01*
X81389819Y-124077258D02*
X81342200Y-123982020D01*
X81342200Y-123982020D02*
X81246961Y-123934401D01*
X81246961Y-123934401D02*
X80866009Y-123934401D01*
X80866009Y-123934401D02*
X80770771Y-123982020D01*
X80770771Y-123982020D02*
X80723152Y-124077258D01*
X80723152Y-124077258D02*
X80723152Y-124267734D01*
X80723152Y-124267734D02*
X80770771Y-124362972D01*
X80770771Y-124362972D02*
X80866009Y-124410591D01*
X80866009Y-124410591D02*
X80961247Y-124410591D01*
X80961247Y-124410591D02*
X81056485Y-123934401D01*
X81342200Y-125267734D02*
X81389819Y-125172496D01*
X81389819Y-125172496D02*
X81389819Y-124982020D01*
X81389819Y-124982020D02*
X81342200Y-124886782D01*
X81342200Y-124886782D02*
X81294580Y-124839163D01*
X81294580Y-124839163D02*
X81199342Y-124791544D01*
X81199342Y-124791544D02*
X80913628Y-124791544D01*
X80913628Y-124791544D02*
X80818390Y-124839163D01*
X80818390Y-124839163D02*
X80770771Y-124886782D01*
X80770771Y-124886782D02*
X80723152Y-124982020D01*
X80723152Y-124982020D02*
X80723152Y-125172496D01*
X80723152Y-125172496D02*
X80770771Y-125267734D01*
X80723152Y-125553449D02*
X80723152Y-125934401D01*
X80389819Y-125696306D02*
X81246961Y-125696306D01*
X81246961Y-125696306D02*
X81342200Y-125743925D01*
X81342200Y-125743925D02*
X81389819Y-125839163D01*
X81389819Y-125839163D02*
X81389819Y-125934401D01*
X82904580Y-93458207D02*
X82952200Y-93410588D01*
X82952200Y-93410588D02*
X82999819Y-93267731D01*
X82999819Y-93267731D02*
X82999819Y-93172493D01*
X82999819Y-93172493D02*
X82952200Y-93029636D01*
X82952200Y-93029636D02*
X82856961Y-92934398D01*
X82856961Y-92934398D02*
X82761723Y-92886779D01*
X82761723Y-92886779D02*
X82571247Y-92839160D01*
X82571247Y-92839160D02*
X82428390Y-92839160D01*
X82428390Y-92839160D02*
X82237914Y-92886779D01*
X82237914Y-92886779D02*
X82142676Y-92934398D01*
X82142676Y-92934398D02*
X82047438Y-93029636D01*
X82047438Y-93029636D02*
X81999819Y-93172493D01*
X81999819Y-93172493D02*
X81999819Y-93267731D01*
X81999819Y-93267731D02*
X82047438Y-93410588D01*
X82047438Y-93410588D02*
X82095057Y-93458207D01*
X82999819Y-93886779D02*
X81999819Y-93886779D01*
X82999819Y-94315350D02*
X82476009Y-94315350D01*
X82476009Y-94315350D02*
X82380771Y-94267731D01*
X82380771Y-94267731D02*
X82333152Y-94172493D01*
X82333152Y-94172493D02*
X82333152Y-94029636D01*
X82333152Y-94029636D02*
X82380771Y-93934398D01*
X82380771Y-93934398D02*
X82428390Y-93886779D01*
X82999819Y-94791541D02*
X82333152Y-94791541D01*
X82523628Y-94791541D02*
X82428390Y-94839160D01*
X82428390Y-94839160D02*
X82380771Y-94886779D01*
X82380771Y-94886779D02*
X82333152Y-94982017D01*
X82333152Y-94982017D02*
X82333152Y-95077255D01*
X82999819Y-95410589D02*
X82333152Y-95410589D01*
X81999819Y-95410589D02*
X82047438Y-95362970D01*
X82047438Y-95362970D02*
X82095057Y-95410589D01*
X82095057Y-95410589D02*
X82047438Y-95458208D01*
X82047438Y-95458208D02*
X81999819Y-95410589D01*
X81999819Y-95410589D02*
X82095057Y-95410589D01*
X82952200Y-95839160D02*
X82999819Y-95934398D01*
X82999819Y-95934398D02*
X82999819Y-96124874D01*
X82999819Y-96124874D02*
X82952200Y-96220112D01*
X82952200Y-96220112D02*
X82856961Y-96267731D01*
X82856961Y-96267731D02*
X82809342Y-96267731D01*
X82809342Y-96267731D02*
X82714104Y-96220112D01*
X82714104Y-96220112D02*
X82666485Y-96124874D01*
X82666485Y-96124874D02*
X82666485Y-95982017D01*
X82666485Y-95982017D02*
X82618866Y-95886779D01*
X82618866Y-95886779D02*
X82523628Y-95839160D01*
X82523628Y-95839160D02*
X82476009Y-95839160D01*
X82476009Y-95839160D02*
X82380771Y-95886779D01*
X82380771Y-95886779D02*
X82333152Y-95982017D01*
X82333152Y-95982017D02*
X82333152Y-96124874D01*
X82333152Y-96124874D02*
X82380771Y-96220112D01*
X82333152Y-96553446D02*
X82333152Y-96934398D01*
X81999819Y-96696303D02*
X82856961Y-96696303D01*
X82856961Y-96696303D02*
X82952200Y-96743922D01*
X82952200Y-96743922D02*
X82999819Y-96839160D01*
X82999819Y-96839160D02*
X82999819Y-96934398D01*
X82999819Y-97410589D02*
X82952200Y-97315351D01*
X82952200Y-97315351D02*
X82904580Y-97267732D01*
X82904580Y-97267732D02*
X82809342Y-97220113D01*
X82809342Y-97220113D02*
X82523628Y-97220113D01*
X82523628Y-97220113D02*
X82428390Y-97267732D01*
X82428390Y-97267732D02*
X82380771Y-97315351D01*
X82380771Y-97315351D02*
X82333152Y-97410589D01*
X82333152Y-97410589D02*
X82333152Y-97553446D01*
X82333152Y-97553446D02*
X82380771Y-97648684D01*
X82380771Y-97648684D02*
X82428390Y-97696303D01*
X82428390Y-97696303D02*
X82523628Y-97743922D01*
X82523628Y-97743922D02*
X82809342Y-97743922D01*
X82809342Y-97743922D02*
X82904580Y-97696303D01*
X82904580Y-97696303D02*
X82952200Y-97648684D01*
X82952200Y-97648684D02*
X82999819Y-97553446D01*
X82999819Y-97553446D02*
X82999819Y-97410589D01*
X82333152Y-98172494D02*
X83333152Y-98172494D01*
X82380771Y-98172494D02*
X82333152Y-98267732D01*
X82333152Y-98267732D02*
X82333152Y-98458208D01*
X82333152Y-98458208D02*
X82380771Y-98553446D01*
X82380771Y-98553446D02*
X82428390Y-98601065D01*
X82428390Y-98601065D02*
X82523628Y-98648684D01*
X82523628Y-98648684D02*
X82809342Y-98648684D01*
X82809342Y-98648684D02*
X82904580Y-98601065D01*
X82904580Y-98601065D02*
X82952200Y-98553446D01*
X82952200Y-98553446D02*
X82999819Y-98458208D01*
X82999819Y-98458208D02*
X82999819Y-98267732D01*
X82999819Y-98267732D02*
X82952200Y-98172494D01*
X82999819Y-99077256D02*
X81999819Y-99077256D01*
X82999819Y-99505827D02*
X82476009Y-99505827D01*
X82476009Y-99505827D02*
X82380771Y-99458208D01*
X82380771Y-99458208D02*
X82333152Y-99362970D01*
X82333152Y-99362970D02*
X82333152Y-99220113D01*
X82333152Y-99220113D02*
X82380771Y-99124875D01*
X82380771Y-99124875D02*
X82428390Y-99077256D01*
X82952200Y-100362970D02*
X82999819Y-100267732D01*
X82999819Y-100267732D02*
X82999819Y-100077256D01*
X82999819Y-100077256D02*
X82952200Y-99982018D01*
X82952200Y-99982018D02*
X82856961Y-99934399D01*
X82856961Y-99934399D02*
X82476009Y-99934399D01*
X82476009Y-99934399D02*
X82380771Y-99982018D01*
X82380771Y-99982018D02*
X82333152Y-100077256D01*
X82333152Y-100077256D02*
X82333152Y-100267732D01*
X82333152Y-100267732D02*
X82380771Y-100362970D01*
X82380771Y-100362970D02*
X82476009Y-100410589D01*
X82476009Y-100410589D02*
X82571247Y-100410589D01*
X82571247Y-100410589D02*
X82666485Y-99934399D01*
X82999819Y-100839161D02*
X82333152Y-100839161D01*
X82523628Y-100839161D02*
X82428390Y-100886780D01*
X82428390Y-100886780D02*
X82380771Y-100934399D01*
X82380771Y-100934399D02*
X82333152Y-101029637D01*
X82333152Y-101029637D02*
X82333152Y-101124875D01*
X82476009Y-102553447D02*
X82523628Y-102696304D01*
X82523628Y-102696304D02*
X82571247Y-102743923D01*
X82571247Y-102743923D02*
X82666485Y-102791542D01*
X82666485Y-102791542D02*
X82809342Y-102791542D01*
X82809342Y-102791542D02*
X82904580Y-102743923D01*
X82904580Y-102743923D02*
X82952200Y-102696304D01*
X82952200Y-102696304D02*
X82999819Y-102601066D01*
X82999819Y-102601066D02*
X82999819Y-102220114D01*
X82999819Y-102220114D02*
X81999819Y-102220114D01*
X81999819Y-102220114D02*
X81999819Y-102553447D01*
X81999819Y-102553447D02*
X82047438Y-102648685D01*
X82047438Y-102648685D02*
X82095057Y-102696304D01*
X82095057Y-102696304D02*
X82190295Y-102743923D01*
X82190295Y-102743923D02*
X82285533Y-102743923D01*
X82285533Y-102743923D02*
X82380771Y-102696304D01*
X82380771Y-102696304D02*
X82428390Y-102648685D01*
X82428390Y-102648685D02*
X82476009Y-102553447D01*
X82476009Y-102553447D02*
X82476009Y-102220114D01*
X82952200Y-103601066D02*
X82999819Y-103505828D01*
X82999819Y-103505828D02*
X82999819Y-103315352D01*
X82999819Y-103315352D02*
X82952200Y-103220114D01*
X82952200Y-103220114D02*
X82856961Y-103172495D01*
X82856961Y-103172495D02*
X82476009Y-103172495D01*
X82476009Y-103172495D02*
X82380771Y-103220114D01*
X82380771Y-103220114D02*
X82333152Y-103315352D01*
X82333152Y-103315352D02*
X82333152Y-103505828D01*
X82333152Y-103505828D02*
X82380771Y-103601066D01*
X82380771Y-103601066D02*
X82476009Y-103648685D01*
X82476009Y-103648685D02*
X82571247Y-103648685D01*
X82571247Y-103648685D02*
X82666485Y-103172495D01*
X82952200Y-104029638D02*
X82999819Y-104124876D01*
X82999819Y-104124876D02*
X82999819Y-104315352D01*
X82999819Y-104315352D02*
X82952200Y-104410590D01*
X82952200Y-104410590D02*
X82856961Y-104458209D01*
X82856961Y-104458209D02*
X82809342Y-104458209D01*
X82809342Y-104458209D02*
X82714104Y-104410590D01*
X82714104Y-104410590D02*
X82666485Y-104315352D01*
X82666485Y-104315352D02*
X82666485Y-104172495D01*
X82666485Y-104172495D02*
X82618866Y-104077257D01*
X82618866Y-104077257D02*
X82523628Y-104029638D01*
X82523628Y-104029638D02*
X82476009Y-104029638D01*
X82476009Y-104029638D02*
X82380771Y-104077257D01*
X82380771Y-104077257D02*
X82333152Y-104172495D01*
X82333152Y-104172495D02*
X82333152Y-104315352D01*
X82333152Y-104315352D02*
X82380771Y-104410590D01*
X82952200Y-105315352D02*
X82999819Y-105220114D01*
X82999819Y-105220114D02*
X82999819Y-105029638D01*
X82999819Y-105029638D02*
X82952200Y-104934400D01*
X82952200Y-104934400D02*
X82904580Y-104886781D01*
X82904580Y-104886781D02*
X82809342Y-104839162D01*
X82809342Y-104839162D02*
X82523628Y-104839162D01*
X82523628Y-104839162D02*
X82428390Y-104886781D01*
X82428390Y-104886781D02*
X82380771Y-104934400D01*
X82380771Y-104934400D02*
X82333152Y-105029638D01*
X82333152Y-105029638D02*
X82333152Y-105220114D01*
X82333152Y-105220114D02*
X82380771Y-105315352D01*
X82999819Y-105743924D02*
X81999819Y-105743924D01*
X82999819Y-106172495D02*
X82476009Y-106172495D01*
X82476009Y-106172495D02*
X82380771Y-106124876D01*
X82380771Y-106124876D02*
X82333152Y-106029638D01*
X82333152Y-106029638D02*
X82333152Y-105886781D01*
X82333152Y-105886781D02*
X82380771Y-105791543D01*
X82380771Y-105791543D02*
X82428390Y-105743924D01*
X82333152Y-108172496D02*
X82618866Y-107410591D01*
X82618866Y-107410591D02*
X82904580Y-108172496D01*
X82999819Y-108648686D02*
X82333152Y-108648686D01*
X82428390Y-108648686D02*
X82380771Y-108696305D01*
X82380771Y-108696305D02*
X82333152Y-108791543D01*
X82333152Y-108791543D02*
X82333152Y-108934400D01*
X82333152Y-108934400D02*
X82380771Y-109029638D01*
X82380771Y-109029638D02*
X82476009Y-109077257D01*
X82476009Y-109077257D02*
X82999819Y-109077257D01*
X82476009Y-109077257D02*
X82380771Y-109124876D01*
X82380771Y-109124876D02*
X82333152Y-109220114D01*
X82333152Y-109220114D02*
X82333152Y-109362971D01*
X82333152Y-109362971D02*
X82380771Y-109458210D01*
X82380771Y-109458210D02*
X82476009Y-109505829D01*
X82476009Y-109505829D02*
X82999819Y-109505829D01*
X82999819Y-110410590D02*
X82476009Y-110410590D01*
X82476009Y-110410590D02*
X82380771Y-110362971D01*
X82380771Y-110362971D02*
X82333152Y-110267733D01*
X82333152Y-110267733D02*
X82333152Y-110077257D01*
X82333152Y-110077257D02*
X82380771Y-109982019D01*
X82952200Y-110410590D02*
X82999819Y-110315352D01*
X82999819Y-110315352D02*
X82999819Y-110077257D01*
X82999819Y-110077257D02*
X82952200Y-109982019D01*
X82952200Y-109982019D02*
X82856961Y-109934400D01*
X82856961Y-109934400D02*
X82761723Y-109934400D01*
X82761723Y-109934400D02*
X82666485Y-109982019D01*
X82666485Y-109982019D02*
X82618866Y-110077257D01*
X82618866Y-110077257D02*
X82618866Y-110315352D01*
X82618866Y-110315352D02*
X82571247Y-110410590D01*
X82999819Y-110886781D02*
X82333152Y-110886781D01*
X81999819Y-110886781D02*
X82047438Y-110839162D01*
X82047438Y-110839162D02*
X82095057Y-110886781D01*
X82095057Y-110886781D02*
X82047438Y-110934400D01*
X82047438Y-110934400D02*
X81999819Y-110886781D01*
X81999819Y-110886781D02*
X82095057Y-110886781D01*
X82999819Y-111505828D02*
X82952200Y-111410590D01*
X82952200Y-111410590D02*
X82856961Y-111362971D01*
X82856961Y-111362971D02*
X81999819Y-111362971D01*
X82523628Y-112505828D02*
X82476009Y-112458209D01*
X82476009Y-112458209D02*
X82428390Y-112362971D01*
X82428390Y-112362971D02*
X82428390Y-112267733D01*
X82428390Y-112267733D02*
X82476009Y-112172495D01*
X82476009Y-112172495D02*
X82523628Y-112124876D01*
X82523628Y-112124876D02*
X82618866Y-112077257D01*
X82618866Y-112077257D02*
X82714104Y-112077257D01*
X82714104Y-112077257D02*
X82809342Y-112124876D01*
X82809342Y-112124876D02*
X82856961Y-112172495D01*
X82856961Y-112172495D02*
X82904580Y-112267733D01*
X82904580Y-112267733D02*
X82904580Y-112362971D01*
X82904580Y-112362971D02*
X82856961Y-112458209D01*
X82856961Y-112458209D02*
X82809342Y-112505828D01*
X82428390Y-112505828D02*
X82809342Y-112505828D01*
X82809342Y-112505828D02*
X82856961Y-112553447D01*
X82856961Y-112553447D02*
X82856961Y-112601066D01*
X82856961Y-112601066D02*
X82809342Y-112696305D01*
X82809342Y-112696305D02*
X82714104Y-112743924D01*
X82714104Y-112743924D02*
X82476009Y-112743924D01*
X82476009Y-112743924D02*
X82333152Y-112648686D01*
X82333152Y-112648686D02*
X82237914Y-112505828D01*
X82237914Y-112505828D02*
X82190295Y-112315352D01*
X82190295Y-112315352D02*
X82237914Y-112124876D01*
X82237914Y-112124876D02*
X82333152Y-111982019D01*
X82333152Y-111982019D02*
X82476009Y-111886781D01*
X82476009Y-111886781D02*
X82666485Y-111839162D01*
X82666485Y-111839162D02*
X82856961Y-111886781D01*
X82856961Y-111886781D02*
X82999819Y-111982019D01*
X82999819Y-111982019D02*
X83095057Y-112124876D01*
X83095057Y-112124876D02*
X83142676Y-112315352D01*
X83142676Y-112315352D02*
X83095057Y-112505828D01*
X83095057Y-112505828D02*
X82999819Y-112648686D01*
X82952200Y-113601066D02*
X82999819Y-113505828D01*
X82999819Y-113505828D02*
X82999819Y-113315352D01*
X82999819Y-113315352D02*
X82952200Y-113220114D01*
X82952200Y-113220114D02*
X82904580Y-113172495D01*
X82904580Y-113172495D02*
X82809342Y-113124876D01*
X82809342Y-113124876D02*
X82523628Y-113124876D01*
X82523628Y-113124876D02*
X82428390Y-113172495D01*
X82428390Y-113172495D02*
X82380771Y-113220114D01*
X82380771Y-113220114D02*
X82333152Y-113315352D01*
X82333152Y-113315352D02*
X82333152Y-113505828D01*
X82333152Y-113505828D02*
X82380771Y-113601066D01*
X82999819Y-114029638D02*
X81999819Y-114029638D01*
X82999819Y-114458209D02*
X82476009Y-114458209D01*
X82476009Y-114458209D02*
X82380771Y-114410590D01*
X82380771Y-114410590D02*
X82333152Y-114315352D01*
X82333152Y-114315352D02*
X82333152Y-114172495D01*
X82333152Y-114172495D02*
X82380771Y-114077257D01*
X82380771Y-114077257D02*
X82428390Y-114029638D01*
X82999819Y-114934400D02*
X82333152Y-114934400D01*
X82523628Y-114934400D02*
X82428390Y-114982019D01*
X82428390Y-114982019D02*
X82380771Y-115029638D01*
X82380771Y-115029638D02*
X82333152Y-115124876D01*
X82333152Y-115124876D02*
X82333152Y-115220114D01*
X82999819Y-115553448D02*
X82333152Y-115553448D01*
X81999819Y-115553448D02*
X82047438Y-115505829D01*
X82047438Y-115505829D02*
X82095057Y-115553448D01*
X82095057Y-115553448D02*
X82047438Y-115601067D01*
X82047438Y-115601067D02*
X81999819Y-115553448D01*
X81999819Y-115553448D02*
X82095057Y-115553448D01*
X82952200Y-115982019D02*
X82999819Y-116077257D01*
X82999819Y-116077257D02*
X82999819Y-116267733D01*
X82999819Y-116267733D02*
X82952200Y-116362971D01*
X82952200Y-116362971D02*
X82856961Y-116410590D01*
X82856961Y-116410590D02*
X82809342Y-116410590D01*
X82809342Y-116410590D02*
X82714104Y-116362971D01*
X82714104Y-116362971D02*
X82666485Y-116267733D01*
X82666485Y-116267733D02*
X82666485Y-116124876D01*
X82666485Y-116124876D02*
X82618866Y-116029638D01*
X82618866Y-116029638D02*
X82523628Y-115982019D01*
X82523628Y-115982019D02*
X82476009Y-115982019D01*
X82476009Y-115982019D02*
X82380771Y-116029638D01*
X82380771Y-116029638D02*
X82333152Y-116124876D01*
X82333152Y-116124876D02*
X82333152Y-116267733D01*
X82333152Y-116267733D02*
X82380771Y-116362971D01*
X82618866Y-116839162D02*
X82618866Y-117601067D01*
X82999819Y-118077257D02*
X81999819Y-118077257D01*
X82380771Y-118077257D02*
X82333152Y-118172495D01*
X82333152Y-118172495D02*
X82333152Y-118362971D01*
X82333152Y-118362971D02*
X82380771Y-118458209D01*
X82380771Y-118458209D02*
X82428390Y-118505828D01*
X82428390Y-118505828D02*
X82523628Y-118553447D01*
X82523628Y-118553447D02*
X82809342Y-118553447D01*
X82809342Y-118553447D02*
X82904580Y-118505828D01*
X82904580Y-118505828D02*
X82952200Y-118458209D01*
X82952200Y-118458209D02*
X82999819Y-118362971D01*
X82999819Y-118362971D02*
X82999819Y-118172495D01*
X82999819Y-118172495D02*
X82952200Y-118077257D01*
X82952200Y-119362971D02*
X82999819Y-119267733D01*
X82999819Y-119267733D02*
X82999819Y-119077257D01*
X82999819Y-119077257D02*
X82952200Y-118982019D01*
X82952200Y-118982019D02*
X82856961Y-118934400D01*
X82856961Y-118934400D02*
X82476009Y-118934400D01*
X82476009Y-118934400D02*
X82380771Y-118982019D01*
X82380771Y-118982019D02*
X82333152Y-119077257D01*
X82333152Y-119077257D02*
X82333152Y-119267733D01*
X82333152Y-119267733D02*
X82380771Y-119362971D01*
X82380771Y-119362971D02*
X82476009Y-119410590D01*
X82476009Y-119410590D02*
X82571247Y-119410590D01*
X82571247Y-119410590D02*
X82666485Y-118934400D01*
X82952200Y-119791543D02*
X82999819Y-119886781D01*
X82999819Y-119886781D02*
X82999819Y-120077257D01*
X82999819Y-120077257D02*
X82952200Y-120172495D01*
X82952200Y-120172495D02*
X82856961Y-120220114D01*
X82856961Y-120220114D02*
X82809342Y-120220114D01*
X82809342Y-120220114D02*
X82714104Y-120172495D01*
X82714104Y-120172495D02*
X82666485Y-120077257D01*
X82666485Y-120077257D02*
X82666485Y-119934400D01*
X82666485Y-119934400D02*
X82618866Y-119839162D01*
X82618866Y-119839162D02*
X82523628Y-119791543D01*
X82523628Y-119791543D02*
X82476009Y-119791543D01*
X82476009Y-119791543D02*
X82380771Y-119839162D01*
X82380771Y-119839162D02*
X82333152Y-119934400D01*
X82333152Y-119934400D02*
X82333152Y-120077257D01*
X82333152Y-120077257D02*
X82380771Y-120172495D01*
X82952200Y-121077257D02*
X82999819Y-120982019D01*
X82999819Y-120982019D02*
X82999819Y-120791543D01*
X82999819Y-120791543D02*
X82952200Y-120696305D01*
X82952200Y-120696305D02*
X82904580Y-120648686D01*
X82904580Y-120648686D02*
X82809342Y-120601067D01*
X82809342Y-120601067D02*
X82523628Y-120601067D01*
X82523628Y-120601067D02*
X82428390Y-120648686D01*
X82428390Y-120648686D02*
X82380771Y-120696305D01*
X82380771Y-120696305D02*
X82333152Y-120791543D01*
X82333152Y-120791543D02*
X82333152Y-120982019D01*
X82333152Y-120982019D02*
X82380771Y-121077257D01*
X82999819Y-121505829D02*
X81999819Y-121505829D01*
X82999819Y-121934400D02*
X82476009Y-121934400D01*
X82476009Y-121934400D02*
X82380771Y-121886781D01*
X82380771Y-121886781D02*
X82333152Y-121791543D01*
X82333152Y-121791543D02*
X82333152Y-121648686D01*
X82333152Y-121648686D02*
X82380771Y-121553448D01*
X82380771Y-121553448D02*
X82428390Y-121505829D01*
X82904580Y-122410591D02*
X82952200Y-122458210D01*
X82952200Y-122458210D02*
X82999819Y-122410591D01*
X82999819Y-122410591D02*
X82952200Y-122362972D01*
X82952200Y-122362972D02*
X82904580Y-122410591D01*
X82904580Y-122410591D02*
X82999819Y-122410591D01*
X82952200Y-123315352D02*
X82999819Y-123220114D01*
X82999819Y-123220114D02*
X82999819Y-123029638D01*
X82999819Y-123029638D02*
X82952200Y-122934400D01*
X82952200Y-122934400D02*
X82904580Y-122886781D01*
X82904580Y-122886781D02*
X82809342Y-122839162D01*
X82809342Y-122839162D02*
X82523628Y-122839162D01*
X82523628Y-122839162D02*
X82428390Y-122886781D01*
X82428390Y-122886781D02*
X82380771Y-122934400D01*
X82380771Y-122934400D02*
X82333152Y-123029638D01*
X82333152Y-123029638D02*
X82333152Y-123220114D01*
X82333152Y-123220114D02*
X82380771Y-123315352D01*
X82999819Y-123886781D02*
X82952200Y-123791543D01*
X82952200Y-123791543D02*
X82904580Y-123743924D01*
X82904580Y-123743924D02*
X82809342Y-123696305D01*
X82809342Y-123696305D02*
X82523628Y-123696305D01*
X82523628Y-123696305D02*
X82428390Y-123743924D01*
X82428390Y-123743924D02*
X82380771Y-123791543D01*
X82380771Y-123791543D02*
X82333152Y-123886781D01*
X82333152Y-123886781D02*
X82333152Y-124029638D01*
X82333152Y-124029638D02*
X82380771Y-124124876D01*
X82380771Y-124124876D02*
X82428390Y-124172495D01*
X82428390Y-124172495D02*
X82523628Y-124220114D01*
X82523628Y-124220114D02*
X82809342Y-124220114D01*
X82809342Y-124220114D02*
X82904580Y-124172495D01*
X82904580Y-124172495D02*
X82952200Y-124124876D01*
X82952200Y-124124876D02*
X82999819Y-124029638D01*
X82999819Y-124029638D02*
X82999819Y-123886781D01*
X82999819Y-124648686D02*
X82333152Y-124648686D01*
X82428390Y-124648686D02*
X82380771Y-124696305D01*
X82380771Y-124696305D02*
X82333152Y-124791543D01*
X82333152Y-124791543D02*
X82333152Y-124934400D01*
X82333152Y-124934400D02*
X82380771Y-125029638D01*
X82380771Y-125029638D02*
X82476009Y-125077257D01*
X82476009Y-125077257D02*
X82999819Y-125077257D01*
X82476009Y-125077257D02*
X82380771Y-125124876D01*
X82380771Y-125124876D02*
X82333152Y-125220114D01*
X82333152Y-125220114D02*
X82333152Y-125362971D01*
X82333152Y-125362971D02*
X82380771Y-125458210D01*
X82380771Y-125458210D02*
X82476009Y-125505829D01*
X82476009Y-125505829D02*
X82999819Y-125505829D01*
X82333152Y-125982019D02*
X82618866Y-126743924D01*
X82618866Y-126743924D02*
X82904580Y-125982019D01*
X84609819Y-93458207D02*
X84133628Y-93124874D01*
X84609819Y-92886779D02*
X83609819Y-92886779D01*
X83609819Y-92886779D02*
X83609819Y-93267731D01*
X83609819Y-93267731D02*
X83657438Y-93362969D01*
X83657438Y-93362969D02*
X83705057Y-93410588D01*
X83705057Y-93410588D02*
X83800295Y-93458207D01*
X83800295Y-93458207D02*
X83943152Y-93458207D01*
X83943152Y-93458207D02*
X84038390Y-93410588D01*
X84038390Y-93410588D02*
X84086009Y-93362969D01*
X84086009Y-93362969D02*
X84133628Y-93267731D01*
X84133628Y-93267731D02*
X84133628Y-92886779D01*
X84562200Y-94267731D02*
X84609819Y-94172493D01*
X84609819Y-94172493D02*
X84609819Y-93982017D01*
X84609819Y-93982017D02*
X84562200Y-93886779D01*
X84562200Y-93886779D02*
X84466961Y-93839160D01*
X84466961Y-93839160D02*
X84086009Y-93839160D01*
X84086009Y-93839160D02*
X83990771Y-93886779D01*
X83990771Y-93886779D02*
X83943152Y-93982017D01*
X83943152Y-93982017D02*
X83943152Y-94172493D01*
X83943152Y-94172493D02*
X83990771Y-94267731D01*
X83990771Y-94267731D02*
X84086009Y-94315350D01*
X84086009Y-94315350D02*
X84181247Y-94315350D01*
X84181247Y-94315350D02*
X84276485Y-93839160D01*
X83943152Y-94648684D02*
X84609819Y-94886779D01*
X84609819Y-94886779D02*
X83943152Y-95124874D01*
X84514580Y-95505827D02*
X84562200Y-95553446D01*
X84562200Y-95553446D02*
X84609819Y-95505827D01*
X84609819Y-95505827D02*
X84562200Y-95458208D01*
X84562200Y-95458208D02*
X84514580Y-95505827D01*
X84514580Y-95505827D02*
X84609819Y-95505827D01*
X84609819Y-97267731D02*
X84609819Y-96696303D01*
X84609819Y-96982017D02*
X83609819Y-96982017D01*
X83609819Y-96982017D02*
X83752676Y-96886779D01*
X83752676Y-96886779D02*
X83847914Y-96791541D01*
X83847914Y-96791541D02*
X83895533Y-96696303D01*
X84514580Y-97696303D02*
X84562200Y-97743922D01*
X84562200Y-97743922D02*
X84609819Y-97696303D01*
X84609819Y-97696303D02*
X84562200Y-97648684D01*
X84562200Y-97648684D02*
X84514580Y-97696303D01*
X84514580Y-97696303D02*
X84609819Y-97696303D01*
X83609819Y-98362969D02*
X83609819Y-98458207D01*
X83609819Y-98458207D02*
X83657438Y-98553445D01*
X83657438Y-98553445D02*
X83705057Y-98601064D01*
X83705057Y-98601064D02*
X83800295Y-98648683D01*
X83800295Y-98648683D02*
X83990771Y-98696302D01*
X83990771Y-98696302D02*
X84228866Y-98696302D01*
X84228866Y-98696302D02*
X84419342Y-98648683D01*
X84419342Y-98648683D02*
X84514580Y-98601064D01*
X84514580Y-98601064D02*
X84562200Y-98553445D01*
X84562200Y-98553445D02*
X84609819Y-98458207D01*
X84609819Y-98458207D02*
X84609819Y-98362969D01*
X84609819Y-98362969D02*
X84562200Y-98267731D01*
X84562200Y-98267731D02*
X84514580Y-98220112D01*
X84514580Y-98220112D02*
X84419342Y-98172493D01*
X84419342Y-98172493D02*
X84228866Y-98124874D01*
X84228866Y-98124874D02*
X83990771Y-98124874D01*
X83990771Y-98124874D02*
X83800295Y-98172493D01*
X83800295Y-98172493D02*
X83705057Y-98220112D01*
X83705057Y-98220112D02*
X83657438Y-98267731D01*
X83657438Y-98267731D02*
X83609819Y-98362969D01*
X84514580Y-99124874D02*
X84562200Y-99172493D01*
X84562200Y-99172493D02*
X84609819Y-99124874D01*
X84609819Y-99124874D02*
X84562200Y-99077255D01*
X84562200Y-99077255D02*
X84514580Y-99124874D01*
X84514580Y-99124874D02*
X84609819Y-99124874D01*
X83609819Y-99791540D02*
X83609819Y-99886778D01*
X83609819Y-99886778D02*
X83657438Y-99982016D01*
X83657438Y-99982016D02*
X83705057Y-100029635D01*
X83705057Y-100029635D02*
X83800295Y-100077254D01*
X83800295Y-100077254D02*
X83990771Y-100124873D01*
X83990771Y-100124873D02*
X84228866Y-100124873D01*
X84228866Y-100124873D02*
X84419342Y-100077254D01*
X84419342Y-100077254D02*
X84514580Y-100029635D01*
X84514580Y-100029635D02*
X84562200Y-99982016D01*
X84562200Y-99982016D02*
X84609819Y-99886778D01*
X84609819Y-99886778D02*
X84609819Y-99791540D01*
X84609819Y-99791540D02*
X84562200Y-99696302D01*
X84562200Y-99696302D02*
X84514580Y-99648683D01*
X84514580Y-99648683D02*
X84419342Y-99601064D01*
X84419342Y-99601064D02*
X84228866Y-99553445D01*
X84228866Y-99553445D02*
X83990771Y-99553445D01*
X83990771Y-99553445D02*
X83800295Y-99601064D01*
X83800295Y-99601064D02*
X83705057Y-99648683D01*
X83705057Y-99648683D02*
X83657438Y-99696302D01*
X83657438Y-99696302D02*
X83609819Y-99791540D01*
X85219819Y-93172493D02*
X85934104Y-93172493D01*
X85934104Y-93172493D02*
X86076961Y-93124874D01*
X86076961Y-93124874D02*
X86172200Y-93029636D01*
X86172200Y-93029636D02*
X86219819Y-92886779D01*
X86219819Y-92886779D02*
X86219819Y-92791541D01*
X86219819Y-94077255D02*
X85696009Y-94077255D01*
X85696009Y-94077255D02*
X85600771Y-94029636D01*
X85600771Y-94029636D02*
X85553152Y-93934398D01*
X85553152Y-93934398D02*
X85553152Y-93743922D01*
X85553152Y-93743922D02*
X85600771Y-93648684D01*
X86172200Y-94077255D02*
X86219819Y-93982017D01*
X86219819Y-93982017D02*
X86219819Y-93743922D01*
X86219819Y-93743922D02*
X86172200Y-93648684D01*
X86172200Y-93648684D02*
X86076961Y-93601065D01*
X86076961Y-93601065D02*
X85981723Y-93601065D01*
X85981723Y-93601065D02*
X85886485Y-93648684D01*
X85886485Y-93648684D02*
X85838866Y-93743922D01*
X85838866Y-93743922D02*
X85838866Y-93982017D01*
X85838866Y-93982017D02*
X85791247Y-94077255D01*
X85553152Y-94553446D02*
X86219819Y-94553446D01*
X85648390Y-94553446D02*
X85600771Y-94601065D01*
X85600771Y-94601065D02*
X85553152Y-94696303D01*
X85553152Y-94696303D02*
X85553152Y-94839160D01*
X85553152Y-94839160D02*
X85600771Y-94934398D01*
X85600771Y-94934398D02*
X85696009Y-94982017D01*
X85696009Y-94982017D02*
X86219819Y-94982017D01*
X85553152Y-95886779D02*
X86219819Y-95886779D01*
X85553152Y-95458208D02*
X86076961Y-95458208D01*
X86076961Y-95458208D02*
X86172200Y-95505827D01*
X86172200Y-95505827D02*
X86219819Y-95601065D01*
X86219819Y-95601065D02*
X86219819Y-95743922D01*
X86219819Y-95743922D02*
X86172200Y-95839160D01*
X86172200Y-95839160D02*
X86124580Y-95886779D01*
X86219819Y-96791541D02*
X85696009Y-96791541D01*
X85696009Y-96791541D02*
X85600771Y-96743922D01*
X85600771Y-96743922D02*
X85553152Y-96648684D01*
X85553152Y-96648684D02*
X85553152Y-96458208D01*
X85553152Y-96458208D02*
X85600771Y-96362970D01*
X86172200Y-96791541D02*
X86219819Y-96696303D01*
X86219819Y-96696303D02*
X86219819Y-96458208D01*
X86219819Y-96458208D02*
X86172200Y-96362970D01*
X86172200Y-96362970D02*
X86076961Y-96315351D01*
X86076961Y-96315351D02*
X85981723Y-96315351D01*
X85981723Y-96315351D02*
X85886485Y-96362970D01*
X85886485Y-96362970D02*
X85838866Y-96458208D01*
X85838866Y-96458208D02*
X85838866Y-96696303D01*
X85838866Y-96696303D02*
X85791247Y-96791541D01*
X86219819Y-97267732D02*
X85553152Y-97267732D01*
X85743628Y-97267732D02*
X85648390Y-97315351D01*
X85648390Y-97315351D02*
X85600771Y-97362970D01*
X85600771Y-97362970D02*
X85553152Y-97458208D01*
X85553152Y-97458208D02*
X85553152Y-97553446D01*
X85553152Y-97791542D02*
X86219819Y-98029637D01*
X85553152Y-98267732D02*
X86219819Y-98029637D01*
X86219819Y-98029637D02*
X86457914Y-97934399D01*
X86457914Y-97934399D02*
X86505533Y-97886780D01*
X86505533Y-97886780D02*
X86553152Y-97791542D01*
X85315057Y-99362971D02*
X85267438Y-99410590D01*
X85267438Y-99410590D02*
X85219819Y-99505828D01*
X85219819Y-99505828D02*
X85219819Y-99743923D01*
X85219819Y-99743923D02*
X85267438Y-99839161D01*
X85267438Y-99839161D02*
X85315057Y-99886780D01*
X85315057Y-99886780D02*
X85410295Y-99934399D01*
X85410295Y-99934399D02*
X85505533Y-99934399D01*
X85505533Y-99934399D02*
X85648390Y-99886780D01*
X85648390Y-99886780D02*
X86219819Y-99315352D01*
X86219819Y-99315352D02*
X86219819Y-99934399D01*
X85219819Y-100553447D02*
X85219819Y-100648685D01*
X85219819Y-100648685D02*
X85267438Y-100743923D01*
X85267438Y-100743923D02*
X85315057Y-100791542D01*
X85315057Y-100791542D02*
X85410295Y-100839161D01*
X85410295Y-100839161D02*
X85600771Y-100886780D01*
X85600771Y-100886780D02*
X85838866Y-100886780D01*
X85838866Y-100886780D02*
X86029342Y-100839161D01*
X86029342Y-100839161D02*
X86124580Y-100791542D01*
X86124580Y-100791542D02*
X86172200Y-100743923D01*
X86172200Y-100743923D02*
X86219819Y-100648685D01*
X86219819Y-100648685D02*
X86219819Y-100553447D01*
X86219819Y-100553447D02*
X86172200Y-100458209D01*
X86172200Y-100458209D02*
X86124580Y-100410590D01*
X86124580Y-100410590D02*
X86029342Y-100362971D01*
X86029342Y-100362971D02*
X85838866Y-100315352D01*
X85838866Y-100315352D02*
X85600771Y-100315352D01*
X85600771Y-100315352D02*
X85410295Y-100362971D01*
X85410295Y-100362971D02*
X85315057Y-100410590D01*
X85315057Y-100410590D02*
X85267438Y-100458209D01*
X85267438Y-100458209D02*
X85219819Y-100553447D01*
X85315057Y-101267733D02*
X85267438Y-101315352D01*
X85267438Y-101315352D02*
X85219819Y-101410590D01*
X85219819Y-101410590D02*
X85219819Y-101648685D01*
X85219819Y-101648685D02*
X85267438Y-101743923D01*
X85267438Y-101743923D02*
X85315057Y-101791542D01*
X85315057Y-101791542D02*
X85410295Y-101839161D01*
X85410295Y-101839161D02*
X85505533Y-101839161D01*
X85505533Y-101839161D02*
X85648390Y-101791542D01*
X85648390Y-101791542D02*
X86219819Y-101220114D01*
X86219819Y-101220114D02*
X86219819Y-101839161D01*
X85553152Y-102696304D02*
X86219819Y-102696304D01*
X85172200Y-102458209D02*
X85886485Y-102220114D01*
X85886485Y-102220114D02*
X85886485Y-102839161D01*
%TO.C,REF\u002A\u002A*%
D11*
X86738738Y-130449697D02*
X86720787Y-130496754D01*
X86703511Y-130531985D01*
X86681242Y-130554983D01*
X86647165Y-130568345D01*
X86594463Y-130574672D01*
X86516323Y-130576563D01*
X86405928Y-130576615D01*
X86317935Y-130576883D01*
X86233502Y-130578479D01*
X86175834Y-130582288D01*
X86137988Y-130589180D01*
X86113024Y-130600025D01*
X86094000Y-130615692D01*
X86067153Y-130654208D01*
X86057034Y-130718909D01*
X86082606Y-130782919D01*
X86085880Y-130787144D01*
X86101007Y-130800311D01*
X86125268Y-130810025D01*
X86164650Y-130817097D01*
X86225141Y-130822344D01*
X86312729Y-130826579D01*
X86433402Y-130830615D01*
X86756515Y-130840385D01*
X86682065Y-131006461D01*
X86387062Y-131006461D01*
X86306919Y-131006117D01*
X86195431Y-131003153D01*
X86112421Y-130995649D01*
X86051199Y-130981810D01*
X86005075Y-130959845D01*
X85967358Y-130927961D01*
X85931358Y-130884367D01*
X85895089Y-130821664D01*
X85871412Y-130722883D01*
X85881684Y-130623628D01*
X85924569Y-130532371D01*
X85998729Y-130457584D01*
X86021944Y-130442083D01*
X86048256Y-130429226D01*
X86081420Y-130420107D01*
X86127881Y-130413898D01*
X86194082Y-130409767D01*
X86286468Y-130406884D01*
X86411485Y-130404421D01*
X86758278Y-130398303D01*
X86738738Y-130449697D01*
G36*
X86738738Y-130449697D02*
G01*
X86720787Y-130496754D01*
X86703511Y-130531985D01*
X86681242Y-130554983D01*
X86647165Y-130568345D01*
X86594463Y-130574672D01*
X86516323Y-130576563D01*
X86405928Y-130576615D01*
X86317935Y-130576883D01*
X86233502Y-130578479D01*
X86175834Y-130582288D01*
X86137988Y-130589180D01*
X86113024Y-130600025D01*
X86094000Y-130615692D01*
X86067153Y-130654208D01*
X86057034Y-130718909D01*
X86082606Y-130782919D01*
X86085880Y-130787144D01*
X86101007Y-130800311D01*
X86125268Y-130810025D01*
X86164650Y-130817097D01*
X86225141Y-130822344D01*
X86312729Y-130826579D01*
X86433402Y-130830615D01*
X86756515Y-130840385D01*
X86682065Y-131006461D01*
X86387062Y-131006461D01*
X86306919Y-131006117D01*
X86195431Y-131003153D01*
X86112421Y-130995649D01*
X86051199Y-130981810D01*
X86005075Y-130959845D01*
X85967358Y-130927961D01*
X85931358Y-130884367D01*
X85895089Y-130821664D01*
X85871412Y-130722883D01*
X85881684Y-130623628D01*
X85924569Y-130532371D01*
X85998729Y-130457584D01*
X86021944Y-130442083D01*
X86048256Y-130429226D01*
X86081420Y-130420107D01*
X86127881Y-130413898D01*
X86194082Y-130409767D01*
X86286468Y-130406884D01*
X86411485Y-130404421D01*
X86758278Y-130398303D01*
X86738738Y-130449697D01*
G37*
X86404652Y-133587161D02*
X86508507Y-133598190D01*
X86586333Y-133622186D01*
X86645760Y-133661957D01*
X86694418Y-133720312D01*
X86722546Y-133775900D01*
X86738199Y-133869249D01*
X86721084Y-133962470D01*
X86673388Y-134046728D01*
X86597294Y-134113182D01*
X86583262Y-134121207D01*
X86558679Y-134131804D01*
X86527309Y-134139665D01*
X86483769Y-134145193D01*
X86422678Y-134148794D01*
X86338655Y-134150872D01*
X86226320Y-134151833D01*
X86080289Y-134152081D01*
X85626963Y-134152154D01*
X85653564Y-134088654D01*
X85660845Y-134071864D01*
X85677287Y-134045141D01*
X85702187Y-134029844D01*
X85745732Y-134021437D01*
X85818106Y-134015385D01*
X85883089Y-134009856D01*
X85925750Y-134002550D01*
X85941670Y-133992082D01*
X85937400Y-133976308D01*
X85922397Y-133936110D01*
X85918678Y-133864272D01*
X85922089Y-133845301D01*
X86058057Y-133845301D01*
X86062575Y-133913600D01*
X86100144Y-133972902D01*
X86115040Y-133985667D01*
X86143089Y-134001236D01*
X86182258Y-134010238D01*
X86241858Y-134014383D01*
X86331200Y-134015385D01*
X86402316Y-134014923D01*
X86466641Y-134012001D01*
X86508166Y-134004779D01*
X86536067Y-133991439D01*
X86559517Y-133970164D01*
X86564025Y-133965179D01*
X86597295Y-133901137D01*
X86593890Y-133833375D01*
X86554042Y-133770266D01*
X86533398Y-133751474D01*
X86506029Y-133735746D01*
X86468192Y-133726961D01*
X86410355Y-133723141D01*
X86322986Y-133722308D01*
X86256319Y-133722719D01*
X86191245Y-133725566D01*
X86149251Y-133732744D01*
X86121063Y-133746111D01*
X86097406Y-133767528D01*
X86086753Y-133780110D01*
X86058057Y-133845301D01*
X85922089Y-133845301D01*
X85932572Y-133786990D01*
X85962505Y-133720312D01*
X85990211Y-133683629D01*
X86044269Y-133636528D01*
X86113577Y-133606362D01*
X86205765Y-133590322D01*
X86322986Y-133585809D01*
X86328462Y-133585599D01*
X86404652Y-133587161D01*
G36*
X86404652Y-133587161D02*
G01*
X86508507Y-133598190D01*
X86586333Y-133622186D01*
X86645760Y-133661957D01*
X86694418Y-133720312D01*
X86722546Y-133775900D01*
X86738199Y-133869249D01*
X86721084Y-133962470D01*
X86673388Y-134046728D01*
X86597294Y-134113182D01*
X86583262Y-134121207D01*
X86558679Y-134131804D01*
X86527309Y-134139665D01*
X86483769Y-134145193D01*
X86422678Y-134148794D01*
X86338655Y-134150872D01*
X86226320Y-134151833D01*
X86080289Y-134152081D01*
X85626963Y-134152154D01*
X85653564Y-134088654D01*
X85660845Y-134071864D01*
X85677287Y-134045141D01*
X85702187Y-134029844D01*
X85745732Y-134021437D01*
X85818106Y-134015385D01*
X85883089Y-134009856D01*
X85925750Y-134002550D01*
X85941670Y-133992082D01*
X85937400Y-133976308D01*
X85922397Y-133936110D01*
X85918678Y-133864272D01*
X85922089Y-133845301D01*
X86058057Y-133845301D01*
X86062575Y-133913600D01*
X86100144Y-133972902D01*
X86115040Y-133985667D01*
X86143089Y-134001236D01*
X86182258Y-134010238D01*
X86241858Y-134014383D01*
X86331200Y-134015385D01*
X86402316Y-134014923D01*
X86466641Y-134012001D01*
X86508166Y-134004779D01*
X86536067Y-133991439D01*
X86559517Y-133970164D01*
X86564025Y-133965179D01*
X86597295Y-133901137D01*
X86593890Y-133833375D01*
X86554042Y-133770266D01*
X86533398Y-133751474D01*
X86506029Y-133735746D01*
X86468192Y-133726961D01*
X86410355Y-133723141D01*
X86322986Y-133722308D01*
X86256319Y-133722719D01*
X86191245Y-133725566D01*
X86149251Y-133732744D01*
X86121063Y-133746111D01*
X86097406Y-133767528D01*
X86086753Y-133780110D01*
X86058057Y-133845301D01*
X85922089Y-133845301D01*
X85932572Y-133786990D01*
X85962505Y-133720312D01*
X85990211Y-133683629D01*
X86044269Y-133636528D01*
X86113577Y-133606362D01*
X86205765Y-133590322D01*
X86322986Y-133585809D01*
X86328462Y-133585599D01*
X86404652Y-133587161D01*
G37*
X86355094Y-131573340D02*
X86479805Y-131574042D01*
X86585557Y-131575117D01*
X86667322Y-131576500D01*
X86720069Y-131578126D01*
X86738769Y-131579930D01*
X86738706Y-131580636D01*
X86731912Y-131604613D01*
X86717320Y-131648315D01*
X86695870Y-131709846D01*
X86420617Y-131709846D01*
X86312466Y-131710237D01*
X86234026Y-131712054D01*
X86180647Y-131716233D01*
X86145256Y-131723714D01*
X86120779Y-131735433D01*
X86100144Y-131752329D01*
X86089170Y-131763848D01*
X86058775Y-131826136D01*
X86061466Y-131894789D01*
X86097406Y-131957702D01*
X86106325Y-131966861D01*
X86124844Y-131981529D01*
X86149326Y-131991567D01*
X86186393Y-131997849D01*
X86242667Y-132001252D01*
X86324771Y-132002651D01*
X86439329Y-132002923D01*
X86497430Y-132003053D01*
X86592993Y-132003901D01*
X86669526Y-132005406D01*
X86720345Y-132007415D01*
X86738769Y-132009777D01*
X86738706Y-132010482D01*
X86731912Y-132034459D01*
X86717320Y-132078161D01*
X86695870Y-132139692D01*
X86419358Y-132139662D01*
X86394742Y-132139616D01*
X86266419Y-132137030D01*
X86169384Y-132129087D01*
X86097057Y-132113845D01*
X86042855Y-132089364D01*
X86000198Y-132053702D01*
X85962505Y-132004918D01*
X85938910Y-131957339D01*
X85920672Y-131881268D01*
X85919636Y-131806444D01*
X85937378Y-131748923D01*
X85939829Y-131744598D01*
X85939566Y-131731262D01*
X85919039Y-131722149D01*
X85871980Y-131715572D01*
X85792120Y-131709846D01*
X85628236Y-131700077D01*
X85681806Y-131573077D01*
X86216455Y-131573077D01*
X86355094Y-131573340D01*
G36*
X86355094Y-131573340D02*
G01*
X86479805Y-131574042D01*
X86585557Y-131575117D01*
X86667322Y-131576500D01*
X86720069Y-131578126D01*
X86738769Y-131579930D01*
X86738706Y-131580636D01*
X86731912Y-131604613D01*
X86717320Y-131648315D01*
X86695870Y-131709846D01*
X86420617Y-131709846D01*
X86312466Y-131710237D01*
X86234026Y-131712054D01*
X86180647Y-131716233D01*
X86145256Y-131723714D01*
X86120779Y-131735433D01*
X86100144Y-131752329D01*
X86089170Y-131763848D01*
X86058775Y-131826136D01*
X86061466Y-131894789D01*
X86097406Y-131957702D01*
X86106325Y-131966861D01*
X86124844Y-131981529D01*
X86149326Y-131991567D01*
X86186393Y-131997849D01*
X86242667Y-132001252D01*
X86324771Y-132002651D01*
X86439329Y-132002923D01*
X86497430Y-132003053D01*
X86592993Y-132003901D01*
X86669526Y-132005406D01*
X86720345Y-132007415D01*
X86738769Y-132009777D01*
X86738706Y-132010482D01*
X86731912Y-132034459D01*
X86717320Y-132078161D01*
X86695870Y-132139692D01*
X86419358Y-132139662D01*
X86394742Y-132139616D01*
X86266419Y-132137030D01*
X86169384Y-132129087D01*
X86097057Y-132113845D01*
X86042855Y-132089364D01*
X86000198Y-132053702D01*
X85962505Y-132004918D01*
X85938910Y-131957339D01*
X85920672Y-131881268D01*
X85919636Y-131806444D01*
X85937378Y-131748923D01*
X85939829Y-131744598D01*
X85939566Y-131731262D01*
X85919039Y-131722149D01*
X85871980Y-131715572D01*
X85792120Y-131709846D01*
X85628236Y-131700077D01*
X85681806Y-131573077D01*
X86216455Y-131573077D01*
X86355094Y-131573340D01*
G37*
X86241518Y-132319809D02*
X86214837Y-132363300D01*
X86159446Y-132397574D01*
X86148024Y-132401093D01*
X86089838Y-132438972D01*
X86058407Y-132496064D01*
X86057058Y-132561617D01*
X86089116Y-132624883D01*
X86097383Y-132634328D01*
X86133311Y-132665913D01*
X86164635Y-132671129D01*
X86195391Y-132647235D01*
X86229617Y-132591490D01*
X86271350Y-132501154D01*
X86273993Y-132495044D01*
X86320755Y-132394759D01*
X86362181Y-132326265D01*
X86403542Y-132284101D01*
X86450111Y-132262807D01*
X86507160Y-132256923D01*
X86570408Y-132264634D01*
X86651364Y-132303570D01*
X86709522Y-132372068D01*
X86726983Y-132421612D01*
X86736537Y-132491531D01*
X86734496Y-132559425D01*
X86720082Y-132607907D01*
X86716493Y-132613057D01*
X86691416Y-132626733D01*
X86647218Y-132617243D01*
X86612527Y-132600754D01*
X86598084Y-132574313D01*
X86598803Y-132524166D01*
X86594660Y-132454547D01*
X86566054Y-132409057D01*
X86513104Y-132393692D01*
X86511582Y-132393706D01*
X86480845Y-132403017D01*
X86452643Y-132434689D01*
X86420136Y-132496269D01*
X86380998Y-132580014D01*
X86359706Y-132635482D01*
X86361079Y-132667503D01*
X86389203Y-132682466D01*
X86448170Y-132686758D01*
X86542068Y-132686769D01*
X86600031Y-132687248D01*
X86671612Y-132689444D01*
X86720606Y-132693014D01*
X86738769Y-132697509D01*
X86738646Y-132698710D01*
X86728802Y-132724681D01*
X86708028Y-132767695D01*
X86677287Y-132827141D01*
X86400298Y-132820077D01*
X86381928Y-132819586D01*
X86252992Y-132813975D01*
X86155814Y-132804062D01*
X86083925Y-132787825D01*
X86030852Y-132763241D01*
X85990127Y-132728285D01*
X85955279Y-132680936D01*
X85954733Y-132680060D01*
X85926303Y-132603501D01*
X85921500Y-132514956D01*
X85939228Y-132429542D01*
X85978389Y-132362378D01*
X86008902Y-132332831D01*
X86100110Y-132276052D01*
X86199548Y-132256923D01*
X86267960Y-132256923D01*
X86241518Y-132319809D01*
G36*
X86241518Y-132319809D02*
G01*
X86214837Y-132363300D01*
X86159446Y-132397574D01*
X86148024Y-132401093D01*
X86089838Y-132438972D01*
X86058407Y-132496064D01*
X86057058Y-132561617D01*
X86089116Y-132624883D01*
X86097383Y-132634328D01*
X86133311Y-132665913D01*
X86164635Y-132671129D01*
X86195391Y-132647235D01*
X86229617Y-132591490D01*
X86271350Y-132501154D01*
X86273993Y-132495044D01*
X86320755Y-132394759D01*
X86362181Y-132326265D01*
X86403542Y-132284101D01*
X86450111Y-132262807D01*
X86507160Y-132256923D01*
X86570408Y-132264634D01*
X86651364Y-132303570D01*
X86709522Y-132372068D01*
X86726983Y-132421612D01*
X86736537Y-132491531D01*
X86734496Y-132559425D01*
X86720082Y-132607907D01*
X86716493Y-132613057D01*
X86691416Y-132626733D01*
X86647218Y-132617243D01*
X86612527Y-132600754D01*
X86598084Y-132574313D01*
X86598803Y-132524166D01*
X86594660Y-132454547D01*
X86566054Y-132409057D01*
X86513104Y-132393692D01*
X86511582Y-132393706D01*
X86480845Y-132403017D01*
X86452643Y-132434689D01*
X86420136Y-132496269D01*
X86380998Y-132580014D01*
X86359706Y-132635482D01*
X86361079Y-132667503D01*
X86389203Y-132682466D01*
X86448170Y-132686758D01*
X86542068Y-132686769D01*
X86600031Y-132687248D01*
X86671612Y-132689444D01*
X86720606Y-132693014D01*
X86738769Y-132697509D01*
X86738646Y-132698710D01*
X86728802Y-132724681D01*
X86708028Y-132767695D01*
X86677287Y-132827141D01*
X86400298Y-132820077D01*
X86381928Y-132819586D01*
X86252992Y-132813975D01*
X86155814Y-132804062D01*
X86083925Y-132787825D01*
X86030852Y-132763241D01*
X85990127Y-132728285D01*
X85955279Y-132680936D01*
X85954733Y-132680060D01*
X85926303Y-132603501D01*
X85921500Y-132514956D01*
X85939228Y-132429542D01*
X85978389Y-132362378D01*
X86008902Y-132332831D01*
X86100110Y-132276052D01*
X86199548Y-132256923D01*
X86267960Y-132256923D01*
X86241518Y-132319809D01*
G37*
X86929804Y-128899723D02*
X86984522Y-128905302D01*
X87016761Y-128915433D01*
X87030422Y-128931174D01*
X87029403Y-128953583D01*
X87017603Y-128983720D01*
X86998920Y-129022645D01*
X86994933Y-129030962D01*
X86975419Y-129065598D01*
X86952202Y-129083686D01*
X86913492Y-129090608D01*
X86847497Y-129091744D01*
X86729000Y-129091795D01*
X86729000Y-129213859D01*
X86725712Y-129288945D01*
X86712377Y-129347985D01*
X86685423Y-129397014D01*
X86682788Y-129400670D01*
X86638286Y-129450419D01*
X86584523Y-129485041D01*
X86514154Y-129506877D01*
X86419830Y-129518263D01*
X86294206Y-129521538D01*
X86202536Y-129520813D01*
X86133098Y-129517510D01*
X86084945Y-129510172D01*
X86048866Y-129497345D01*
X86015648Y-129477577D01*
X85990261Y-129459431D01*
X85921727Y-129393539D01*
X85884505Y-129318886D01*
X85872722Y-129225096D01*
X85873544Y-129217584D01*
X86054923Y-129217584D01*
X86057050Y-129240683D01*
X86078147Y-129280650D01*
X86125161Y-129307074D01*
X86202175Y-129321670D01*
X86313271Y-129326154D01*
X86331131Y-129326120D01*
X86411748Y-129324265D01*
X86464447Y-129318307D01*
X86498668Y-129306494D01*
X86523846Y-129287077D01*
X86525049Y-129285867D01*
X86557628Y-129238142D01*
X86554417Y-129191890D01*
X86514965Y-129139650D01*
X86501482Y-129126872D01*
X86473837Y-129108051D01*
X86437880Y-129097438D01*
X86383364Y-129092748D01*
X86300042Y-129091692D01*
X86249598Y-129092606D01*
X86157857Y-129102523D01*
X86097752Y-129125158D01*
X86064900Y-129162762D01*
X86054923Y-129217584D01*
X85873544Y-129217584D01*
X85884467Y-129117760D01*
X85926595Y-129024969D01*
X86000898Y-128951579D01*
X86008764Y-128946046D01*
X86029668Y-128933143D01*
X86053555Y-128923258D01*
X86085582Y-128915907D01*
X86130905Y-128910606D01*
X86194679Y-128906873D01*
X86282060Y-128904222D01*
X86300042Y-128903904D01*
X86398205Y-128902172D01*
X86548269Y-128900237D01*
X86591802Y-128899700D01*
X86737344Y-128897981D01*
X86848711Y-128897635D01*
X86929804Y-128899723D01*
G36*
X86929804Y-128899723D02*
G01*
X86984522Y-128905302D01*
X87016761Y-128915433D01*
X87030422Y-128931174D01*
X87029403Y-128953583D01*
X87017603Y-128983720D01*
X86998920Y-129022645D01*
X86994933Y-129030962D01*
X86975419Y-129065598D01*
X86952202Y-129083686D01*
X86913492Y-129090608D01*
X86847497Y-129091744D01*
X86729000Y-129091795D01*
X86729000Y-129213859D01*
X86725712Y-129288945D01*
X86712377Y-129347985D01*
X86685423Y-129397014D01*
X86682788Y-129400670D01*
X86638286Y-129450419D01*
X86584523Y-129485041D01*
X86514154Y-129506877D01*
X86419830Y-129518263D01*
X86294206Y-129521538D01*
X86202536Y-129520813D01*
X86133098Y-129517510D01*
X86084945Y-129510172D01*
X86048866Y-129497345D01*
X86015648Y-129477577D01*
X85990261Y-129459431D01*
X85921727Y-129393539D01*
X85884505Y-129318886D01*
X85872722Y-129225096D01*
X85873544Y-129217584D01*
X86054923Y-129217584D01*
X86057050Y-129240683D01*
X86078147Y-129280650D01*
X86125161Y-129307074D01*
X86202175Y-129321670D01*
X86313271Y-129326154D01*
X86331131Y-129326120D01*
X86411748Y-129324265D01*
X86464447Y-129318307D01*
X86498668Y-129306494D01*
X86523846Y-129287077D01*
X86525049Y-129285867D01*
X86557628Y-129238142D01*
X86554417Y-129191890D01*
X86514965Y-129139650D01*
X86501482Y-129126872D01*
X86473837Y-129108051D01*
X86437880Y-129097438D01*
X86383364Y-129092748D01*
X86300042Y-129091692D01*
X86249598Y-129092606D01*
X86157857Y-129102523D01*
X86097752Y-129125158D01*
X86064900Y-129162762D01*
X86054923Y-129217584D01*
X85873544Y-129217584D01*
X85884467Y-129117760D01*
X85926595Y-129024969D01*
X86000898Y-128951579D01*
X86008764Y-128946046D01*
X86029668Y-128933143D01*
X86053555Y-128923258D01*
X86085582Y-128915907D01*
X86130905Y-128910606D01*
X86194679Y-128906873D01*
X86282060Y-128904222D01*
X86300042Y-128903904D01*
X86398205Y-128902172D01*
X86548269Y-128900237D01*
X86591802Y-128899700D01*
X86737344Y-128897981D01*
X86848711Y-128897635D01*
X86929804Y-128899723D01*
G37*
X86330105Y-128153865D02*
X86424584Y-128154924D01*
X86490414Y-128158564D01*
X86536394Y-128166108D01*
X86571321Y-128178878D01*
X86603995Y-128198197D01*
X86610775Y-128202950D01*
X86664231Y-128253241D01*
X86704547Y-128310543D01*
X86717629Y-128339968D01*
X86739450Y-128445701D01*
X86725336Y-128550266D01*
X86677105Y-128646632D01*
X86596579Y-128727765D01*
X86585791Y-128734615D01*
X86523153Y-128756903D01*
X86435935Y-128771921D01*
X86335210Y-128779208D01*
X86232052Y-128778301D01*
X86137533Y-128768738D01*
X86062727Y-128750057D01*
X86012905Y-128726049D01*
X85935409Y-128658464D01*
X85887256Y-128566886D01*
X85871727Y-128461720D01*
X86054923Y-128461720D01*
X86056432Y-128479984D01*
X86084107Y-128531152D01*
X86146172Y-128564965D01*
X86242037Y-128581204D01*
X86371114Y-128579651D01*
X86379420Y-128579026D01*
X86450643Y-128569923D01*
X86495809Y-128553712D01*
X86526752Y-128526340D01*
X86555737Y-128480447D01*
X86557261Y-128435058D01*
X86523846Y-128388308D01*
X86515053Y-128380176D01*
X86488741Y-128364246D01*
X86450520Y-128354841D01*
X86391349Y-128350368D01*
X86302182Y-128349231D01*
X86218664Y-128351178D01*
X86139095Y-128360895D01*
X86088808Y-128380953D01*
X86062513Y-128413760D01*
X86054923Y-128461720D01*
X85871727Y-128461720D01*
X85870703Y-128454787D01*
X85871599Y-128424849D01*
X85889929Y-128336685D01*
X85936104Y-128264267D01*
X86015648Y-128197808D01*
X86021548Y-128193853D01*
X86053288Y-128175960D01*
X86089163Y-128164322D01*
X86137906Y-128157629D01*
X86208249Y-128154574D01*
X86302182Y-128153894D01*
X86308923Y-128153846D01*
X86330105Y-128153865D01*
G36*
X86330105Y-128153865D02*
G01*
X86424584Y-128154924D01*
X86490414Y-128158564D01*
X86536394Y-128166108D01*
X86571321Y-128178878D01*
X86603995Y-128198197D01*
X86610775Y-128202950D01*
X86664231Y-128253241D01*
X86704547Y-128310543D01*
X86717629Y-128339968D01*
X86739450Y-128445701D01*
X86725336Y-128550266D01*
X86677105Y-128646632D01*
X86596579Y-128727765D01*
X86585791Y-128734615D01*
X86523153Y-128756903D01*
X86435935Y-128771921D01*
X86335210Y-128779208D01*
X86232052Y-128778301D01*
X86137533Y-128768738D01*
X86062727Y-128750057D01*
X86012905Y-128726049D01*
X85935409Y-128658464D01*
X85887256Y-128566886D01*
X85871727Y-128461720D01*
X86054923Y-128461720D01*
X86056432Y-128479984D01*
X86084107Y-128531152D01*
X86146172Y-128564965D01*
X86242037Y-128581204D01*
X86371114Y-128579651D01*
X86379420Y-128579026D01*
X86450643Y-128569923D01*
X86495809Y-128553712D01*
X86526752Y-128526340D01*
X86555737Y-128480447D01*
X86557261Y-128435058D01*
X86523846Y-128388308D01*
X86515053Y-128380176D01*
X86488741Y-128364246D01*
X86450520Y-128354841D01*
X86391349Y-128350368D01*
X86302182Y-128349231D01*
X86218664Y-128351178D01*
X86139095Y-128360895D01*
X86088808Y-128380953D01*
X86062513Y-128413760D01*
X86054923Y-128461720D01*
X85871727Y-128461720D01*
X85870703Y-128454787D01*
X85871599Y-128424849D01*
X85889929Y-128336685D01*
X85936104Y-128264267D01*
X86015648Y-128197808D01*
X86021548Y-128193853D01*
X86053288Y-128175960D01*
X86089163Y-128164322D01*
X86137906Y-128157629D01*
X86208249Y-128154574D01*
X86302182Y-128153894D01*
X86308923Y-128153846D01*
X86330105Y-128153865D01*
G37*
X83122091Y-129565500D02*
X83124518Y-129577908D01*
X83137088Y-129643801D01*
X83154170Y-129734916D01*
X83173829Y-129840896D01*
X83194132Y-129951385D01*
X83202299Y-129994895D01*
X83222167Y-130092118D01*
X83240954Y-130173142D01*
X83256859Y-130230523D01*
X83268079Y-130256813D01*
X83286411Y-130268727D01*
X83334916Y-130290417D01*
X83397692Y-130312605D01*
X83421200Y-130320415D01*
X83498366Y-130349165D01*
X83589694Y-130386248D01*
X83680093Y-130425625D01*
X83727310Y-130446685D01*
X83797837Y-130476689D01*
X83850655Y-130497308D01*
X83876912Y-130504974D01*
X83878894Y-130504548D01*
X83906751Y-130490007D01*
X83960510Y-130457217D01*
X84034963Y-130409507D01*
X84124897Y-130350202D01*
X84225104Y-130282631D01*
X84551416Y-130060287D01*
X84844016Y-130352399D01*
X84872171Y-130380651D01*
X84956449Y-130467039D01*
X85029128Y-130544244D01*
X85086112Y-130607742D01*
X85123307Y-130653010D01*
X85136616Y-130675526D01*
X85126490Y-130699977D01*
X85097421Y-130751181D01*
X85052896Y-130823253D01*
X84996411Y-130910540D01*
X84931462Y-131007388D01*
X84867314Y-131102514D01*
X84810827Y-131188331D01*
X84766184Y-131258348D01*
X84736855Y-131307124D01*
X84726308Y-131329217D01*
X84726404Y-131330512D01*
X84736802Y-131359861D01*
X84761012Y-131411907D01*
X84794249Y-131476292D01*
X84794613Y-131476968D01*
X84837441Y-131562479D01*
X84858365Y-131621074D01*
X84858423Y-131657429D01*
X84838654Y-131676225D01*
X84819195Y-131684181D01*
X84767080Y-131705653D01*
X84686964Y-131738727D01*
X84583107Y-131781644D01*
X84459767Y-131832644D01*
X84321201Y-131889967D01*
X84171670Y-131951854D01*
X84035636Y-132007948D01*
X83896050Y-132065023D01*
X83771315Y-132115521D01*
X83665672Y-132157746D01*
X83583365Y-132190005D01*
X83528635Y-132210603D01*
X83505726Y-132217846D01*
X83484718Y-132204014D01*
X83449642Y-132165588D01*
X83408887Y-132111193D01*
X83302267Y-131980605D01*
X83166025Y-131863740D01*
X83016118Y-131778220D01*
X82856971Y-131724569D01*
X82693012Y-131703316D01*
X82528667Y-131714986D01*
X82368361Y-131760106D01*
X82216520Y-131839203D01*
X82077572Y-131952803D01*
X82023460Y-132012035D01*
X81927782Y-132153946D01*
X81865405Y-132305794D01*
X81834844Y-132463139D01*
X81834615Y-132621544D01*
X81863232Y-132776571D01*
X81919210Y-132923780D01*
X82001064Y-133058734D01*
X82107309Y-133176995D01*
X82236459Y-133274123D01*
X82387031Y-133345682D01*
X82557539Y-133387231D01*
X82639722Y-133394857D01*
X82817775Y-133384366D01*
X82986704Y-133337118D01*
X83143522Y-133254511D01*
X83285245Y-133137941D01*
X83408887Y-132988807D01*
X83447982Y-132936439D01*
X83483443Y-132897168D01*
X83505692Y-132882154D01*
X83525088Y-132888141D01*
X83577059Y-132907568D01*
X83657002Y-132938806D01*
X83760673Y-132980161D01*
X83883832Y-133029939D01*
X84022234Y-133086447D01*
X84171637Y-133147991D01*
X84307020Y-133203992D01*
X84446852Y-133261816D01*
X84571872Y-133313500D01*
X84677822Y-133357282D01*
X84760441Y-133391403D01*
X84815472Y-133414102D01*
X84838654Y-133423620D01*
X84838928Y-133423731D01*
X84858503Y-133442772D01*
X84858279Y-133479306D01*
X84837210Y-133538046D01*
X84794249Y-133623708D01*
X84790631Y-133630451D01*
X84758087Y-133694062D01*
X84735050Y-133744293D01*
X84726308Y-133770782D01*
X84736639Y-133792494D01*
X84765788Y-133841016D01*
X84810287Y-133910837D01*
X84866668Y-133996516D01*
X84931462Y-134092612D01*
X84994984Y-134187294D01*
X85051705Y-134274868D01*
X85096547Y-134347358D01*
X85126016Y-134399111D01*
X85136616Y-134424474D01*
X85135270Y-134428794D01*
X85114056Y-134458908D01*
X85070237Y-134510360D01*
X85007909Y-134578625D01*
X84931170Y-134659180D01*
X84844116Y-134747500D01*
X84551617Y-135039512D01*
X83882525Y-134584640D01*
X83732916Y-134653792D01*
X83732473Y-134653997D01*
X83637101Y-134695523D01*
X83530896Y-134737956D01*
X83436769Y-134772142D01*
X83421588Y-134777316D01*
X83351109Y-134803399D01*
X83296342Y-134826919D01*
X83268079Y-134843323D01*
X83264088Y-134850004D01*
X83250697Y-134890108D01*
X83233373Y-134958205D01*
X83213917Y-135046855D01*
X83194132Y-135148615D01*
X83188551Y-135179096D01*
X83168233Y-135289372D01*
X83149095Y-135392269D01*
X83133070Y-135477431D01*
X83122091Y-135534500D01*
X83101845Y-135637077D01*
X82674701Y-135637077D01*
X82622180Y-135637054D01*
X82494047Y-135636621D01*
X82398420Y-135635341D01*
X82330411Y-135632832D01*
X82285133Y-135628714D01*
X82257697Y-135622605D01*
X82243218Y-135614122D01*
X82236807Y-135602885D01*
X82234209Y-135592006D01*
X82225022Y-135547653D01*
X82210991Y-135476894D01*
X82193486Y-135386926D01*
X82173874Y-135284944D01*
X82153525Y-135178143D01*
X82133807Y-135073719D01*
X82116089Y-134978868D01*
X82101738Y-134900786D01*
X82092124Y-134846668D01*
X82088616Y-134823709D01*
X82086497Y-134822158D01*
X82059006Y-134809675D01*
X82006406Y-134788073D01*
X81937192Y-134760877D01*
X81843937Y-134723134D01*
X81736159Y-134676672D01*
X81641172Y-134633122D01*
X81619851Y-134623142D01*
X81553086Y-134595138D01*
X81501590Y-134578359D01*
X81475095Y-134576146D01*
X81473218Y-134577287D01*
X81445565Y-134595416D01*
X81391849Y-134631356D01*
X81317303Y-134681582D01*
X81227162Y-134742570D01*
X81126657Y-134810795D01*
X81012470Y-134887670D01*
X80923770Y-134945337D01*
X80858721Y-134984574D01*
X80813295Y-135007650D01*
X80783463Y-135016834D01*
X80765195Y-135014396D01*
X80763825Y-135013576D01*
X80737205Y-134991523D01*
X80688697Y-134946564D01*
X80623108Y-134883327D01*
X80545247Y-134806441D01*
X80459922Y-134720535D01*
X80373334Y-134631421D01*
X80291947Y-134544128D01*
X80237035Y-134479982D01*
X80207190Y-134437321D01*
X80201004Y-134414479D01*
X80202394Y-134411495D01*
X80221127Y-134380064D01*
X80257733Y-134323003D01*
X80308697Y-134245657D01*
X80370504Y-134153374D01*
X80439639Y-134051498D01*
X80666420Y-133719407D01*
X80598353Y-133569434D01*
X80596381Y-133565077D01*
X80556491Y-133473000D01*
X80516818Y-133375317D01*
X80485674Y-133292461D01*
X80485545Y-133292095D01*
X80461456Y-133226315D01*
X80441110Y-133175677D01*
X80428901Y-133151116D01*
X80428458Y-133150718D01*
X80403456Y-133142381D01*
X80346598Y-133128659D01*
X80264014Y-133110877D01*
X80161831Y-133090359D01*
X80046178Y-133068429D01*
X80042033Y-133067664D01*
X79924019Y-133045771D01*
X79817151Y-133025719D01*
X79728252Y-133008808D01*
X79664145Y-132996333D01*
X79631654Y-132989594D01*
X79629853Y-132989163D01*
X79615944Y-132984727D01*
X79605489Y-132975737D01*
X79597996Y-132957263D01*
X79592972Y-132924372D01*
X79589922Y-132872132D01*
X79588355Y-132795612D01*
X79587776Y-132689878D01*
X79587692Y-132550000D01*
X79587693Y-132532425D01*
X79587807Y-132396629D01*
X79588472Y-132294424D01*
X79590182Y-132220878D01*
X79593429Y-132171058D01*
X79598706Y-132140033D01*
X79606507Y-132122871D01*
X79617325Y-132114639D01*
X79631654Y-132110406D01*
X79632168Y-132110284D01*
X79665851Y-132103328D01*
X79730917Y-132090680D01*
X79820542Y-132073640D01*
X79927904Y-132053504D01*
X80046178Y-132031571D01*
X80055856Y-132029782D01*
X80170650Y-132007917D01*
X80271480Y-131987570D01*
X80352217Y-131970066D01*
X80406734Y-131956729D01*
X80428901Y-131948884D01*
X80428936Y-131948842D01*
X80441200Y-131924116D01*
X80461576Y-131873369D01*
X80485674Y-131807538D01*
X80486983Y-131803831D01*
X80518791Y-131719669D01*
X80558685Y-131621770D01*
X80598353Y-131530565D01*
X80666420Y-131380593D01*
X80439639Y-131048501D01*
X80423688Y-131025111D01*
X80355890Y-130924920D01*
X80296208Y-130835520D01*
X80248156Y-130762255D01*
X80215250Y-130710473D01*
X80201004Y-130685520D01*
X80204270Y-130668423D01*
X80229571Y-130629605D01*
X80279675Y-130569615D01*
X80355989Y-130486790D01*
X80459922Y-130379465D01*
X80469382Y-130369861D01*
X80554145Y-130284698D01*
X80630937Y-130209051D01*
X80694947Y-130147551D01*
X80741361Y-130104827D01*
X80765369Y-130085511D01*
X80765485Y-130085448D01*
X80783763Y-130082994D01*
X80813411Y-130092044D01*
X80858486Y-130114881D01*
X80923044Y-130153787D01*
X81011140Y-130211046D01*
X81126830Y-130288941D01*
X81146357Y-130302215D01*
X81245278Y-130369348D01*
X81332848Y-130428590D01*
X81403831Y-130476412D01*
X81452991Y-130509285D01*
X81475095Y-130523682D01*
X81479777Y-130524768D01*
X81514710Y-130517956D01*
X81571753Y-130497550D01*
X81641172Y-130466877D01*
X81731959Y-130425192D01*
X81839686Y-130378648D01*
X81937192Y-130339123D01*
X81962430Y-130329324D01*
X82026870Y-130303660D01*
X82071763Y-130284807D01*
X82088616Y-130276290D01*
X82089875Y-130266889D01*
X82097159Y-130224637D01*
X82109739Y-130155479D01*
X82126246Y-130066613D01*
X82145312Y-129965232D01*
X82165569Y-129858533D01*
X82185647Y-129753712D01*
X82204179Y-129657964D01*
X82219795Y-129578484D01*
X82231127Y-129522470D01*
X82236807Y-129497115D01*
X82238408Y-129492912D01*
X82247045Y-129482666D01*
X82265433Y-129475043D01*
X82298460Y-129469662D01*
X82351013Y-129466141D01*
X82427979Y-129464099D01*
X82534246Y-129463153D01*
X82674701Y-129462923D01*
X83101845Y-129462923D01*
X83122091Y-129565500D01*
G36*
X83122091Y-129565500D02*
G01*
X83124518Y-129577908D01*
X83137088Y-129643801D01*
X83154170Y-129734916D01*
X83173829Y-129840896D01*
X83194132Y-129951385D01*
X83202299Y-129994895D01*
X83222167Y-130092118D01*
X83240954Y-130173142D01*
X83256859Y-130230523D01*
X83268079Y-130256813D01*
X83286411Y-130268727D01*
X83334916Y-130290417D01*
X83397692Y-130312605D01*
X83421200Y-130320415D01*
X83498366Y-130349165D01*
X83589694Y-130386248D01*
X83680093Y-130425625D01*
X83727310Y-130446685D01*
X83797837Y-130476689D01*
X83850655Y-130497308D01*
X83876912Y-130504974D01*
X83878894Y-130504548D01*
X83906751Y-130490007D01*
X83960510Y-130457217D01*
X84034963Y-130409507D01*
X84124897Y-130350202D01*
X84225104Y-130282631D01*
X84551416Y-130060287D01*
X84844016Y-130352399D01*
X84872171Y-130380651D01*
X84956449Y-130467039D01*
X85029128Y-130544244D01*
X85086112Y-130607742D01*
X85123307Y-130653010D01*
X85136616Y-130675526D01*
X85126490Y-130699977D01*
X85097421Y-130751181D01*
X85052896Y-130823253D01*
X84996411Y-130910540D01*
X84931462Y-131007388D01*
X84867314Y-131102514D01*
X84810827Y-131188331D01*
X84766184Y-131258348D01*
X84736855Y-131307124D01*
X84726308Y-131329217D01*
X84726404Y-131330512D01*
X84736802Y-131359861D01*
X84761012Y-131411907D01*
X84794249Y-131476292D01*
X84794613Y-131476968D01*
X84837441Y-131562479D01*
X84858365Y-131621074D01*
X84858423Y-131657429D01*
X84838654Y-131676225D01*
X84819195Y-131684181D01*
X84767080Y-131705653D01*
X84686964Y-131738727D01*
X84583107Y-131781644D01*
X84459767Y-131832644D01*
X84321201Y-131889967D01*
X84171670Y-131951854D01*
X84035636Y-132007948D01*
X83896050Y-132065023D01*
X83771315Y-132115521D01*
X83665672Y-132157746D01*
X83583365Y-132190005D01*
X83528635Y-132210603D01*
X83505726Y-132217846D01*
X83484718Y-132204014D01*
X83449642Y-132165588D01*
X83408887Y-132111193D01*
X83302267Y-131980605D01*
X83166025Y-131863740D01*
X83016118Y-131778220D01*
X82856971Y-131724569D01*
X82693012Y-131703316D01*
X82528667Y-131714986D01*
X82368361Y-131760106D01*
X82216520Y-131839203D01*
X82077572Y-131952803D01*
X82023460Y-132012035D01*
X81927782Y-132153946D01*
X81865405Y-132305794D01*
X81834844Y-132463139D01*
X81834615Y-132621544D01*
X81863232Y-132776571D01*
X81919210Y-132923780D01*
X82001064Y-133058734D01*
X82107309Y-133176995D01*
X82236459Y-133274123D01*
X82387031Y-133345682D01*
X82557539Y-133387231D01*
X82639722Y-133394857D01*
X82817775Y-133384366D01*
X82986704Y-133337118D01*
X83143522Y-133254511D01*
X83285245Y-133137941D01*
X83408887Y-132988807D01*
X83447982Y-132936439D01*
X83483443Y-132897168D01*
X83505692Y-132882154D01*
X83525088Y-132888141D01*
X83577059Y-132907568D01*
X83657002Y-132938806D01*
X83760673Y-132980161D01*
X83883832Y-133029939D01*
X84022234Y-133086447D01*
X84171637Y-133147991D01*
X84307020Y-133203992D01*
X84446852Y-133261816D01*
X84571872Y-133313500D01*
X84677822Y-133357282D01*
X84760441Y-133391403D01*
X84815472Y-133414102D01*
X84838654Y-133423620D01*
X84838928Y-133423731D01*
X84858503Y-133442772D01*
X84858279Y-133479306D01*
X84837210Y-133538046D01*
X84794249Y-133623708D01*
X84790631Y-133630451D01*
X84758087Y-133694062D01*
X84735050Y-133744293D01*
X84726308Y-133770782D01*
X84736639Y-133792494D01*
X84765788Y-133841016D01*
X84810287Y-133910837D01*
X84866668Y-133996516D01*
X84931462Y-134092612D01*
X84994984Y-134187294D01*
X85051705Y-134274868D01*
X85096547Y-134347358D01*
X85126016Y-134399111D01*
X85136616Y-134424474D01*
X85135270Y-134428794D01*
X85114056Y-134458908D01*
X85070237Y-134510360D01*
X85007909Y-134578625D01*
X84931170Y-134659180D01*
X84844116Y-134747500D01*
X84551617Y-135039512D01*
X83882525Y-134584640D01*
X83732916Y-134653792D01*
X83732473Y-134653997D01*
X83637101Y-134695523D01*
X83530896Y-134737956D01*
X83436769Y-134772142D01*
X83421588Y-134777316D01*
X83351109Y-134803399D01*
X83296342Y-134826919D01*
X83268079Y-134843323D01*
X83264088Y-134850004D01*
X83250697Y-134890108D01*
X83233373Y-134958205D01*
X83213917Y-135046855D01*
X83194132Y-135148615D01*
X83188551Y-135179096D01*
X83168233Y-135289372D01*
X83149095Y-135392269D01*
X83133070Y-135477431D01*
X83122091Y-135534500D01*
X83101845Y-135637077D01*
X82674701Y-135637077D01*
X82622180Y-135637054D01*
X82494047Y-135636621D01*
X82398420Y-135635341D01*
X82330411Y-135632832D01*
X82285133Y-135628714D01*
X82257697Y-135622605D01*
X82243218Y-135614122D01*
X82236807Y-135602885D01*
X82234209Y-135592006D01*
X82225022Y-135547653D01*
X82210991Y-135476894D01*
X82193486Y-135386926D01*
X82173874Y-135284944D01*
X82153525Y-135178143D01*
X82133807Y-135073719D01*
X82116089Y-134978868D01*
X82101738Y-134900786D01*
X82092124Y-134846668D01*
X82088616Y-134823709D01*
X82086497Y-134822158D01*
X82059006Y-134809675D01*
X82006406Y-134788073D01*
X81937192Y-134760877D01*
X81843937Y-134723134D01*
X81736159Y-134676672D01*
X81641172Y-134633122D01*
X81619851Y-134623142D01*
X81553086Y-134595138D01*
X81501590Y-134578359D01*
X81475095Y-134576146D01*
X81473218Y-134577287D01*
X81445565Y-134595416D01*
X81391849Y-134631356D01*
X81317303Y-134681582D01*
X81227162Y-134742570D01*
X81126657Y-134810795D01*
X81012470Y-134887670D01*
X80923770Y-134945337D01*
X80858721Y-134984574D01*
X80813295Y-135007650D01*
X80783463Y-135016834D01*
X80765195Y-135014396D01*
X80763825Y-135013576D01*
X80737205Y-134991523D01*
X80688697Y-134946564D01*
X80623108Y-134883327D01*
X80545247Y-134806441D01*
X80459922Y-134720535D01*
X80373334Y-134631421D01*
X80291947Y-134544128D01*
X80237035Y-134479982D01*
X80207190Y-134437321D01*
X80201004Y-134414479D01*
X80202394Y-134411495D01*
X80221127Y-134380064D01*
X80257733Y-134323003D01*
X80308697Y-134245657D01*
X80370504Y-134153374D01*
X80439639Y-134051498D01*
X80666420Y-133719407D01*
X80598353Y-133569434D01*
X80596381Y-133565077D01*
X80556491Y-133473000D01*
X80516818Y-133375317D01*
X80485674Y-133292461D01*
X80485545Y-133292095D01*
X80461456Y-133226315D01*
X80441110Y-133175677D01*
X80428901Y-133151116D01*
X80428458Y-133150718D01*
X80403456Y-133142381D01*
X80346598Y-133128659D01*
X80264014Y-133110877D01*
X80161831Y-133090359D01*
X80046178Y-133068429D01*
X80042033Y-133067664D01*
X79924019Y-133045771D01*
X79817151Y-133025719D01*
X79728252Y-133008808D01*
X79664145Y-132996333D01*
X79631654Y-132989594D01*
X79629853Y-132989163D01*
X79615944Y-132984727D01*
X79605489Y-132975737D01*
X79597996Y-132957263D01*
X79592972Y-132924372D01*
X79589922Y-132872132D01*
X79588355Y-132795612D01*
X79587776Y-132689878D01*
X79587692Y-132550000D01*
X79587693Y-132532425D01*
X79587807Y-132396629D01*
X79588472Y-132294424D01*
X79590182Y-132220878D01*
X79593429Y-132171058D01*
X79598706Y-132140033D01*
X79606507Y-132122871D01*
X79617325Y-132114639D01*
X79631654Y-132110406D01*
X79632168Y-132110284D01*
X79665851Y-132103328D01*
X79730917Y-132090680D01*
X79820542Y-132073640D01*
X79927904Y-132053504D01*
X80046178Y-132031571D01*
X80055856Y-132029782D01*
X80170650Y-132007917D01*
X80271480Y-131987570D01*
X80352217Y-131970066D01*
X80406734Y-131956729D01*
X80428901Y-131948884D01*
X80428936Y-131948842D01*
X80441200Y-131924116D01*
X80461576Y-131873369D01*
X80485674Y-131807538D01*
X80486983Y-131803831D01*
X80518791Y-131719669D01*
X80558685Y-131621770D01*
X80598353Y-131530565D01*
X80666420Y-131380593D01*
X80439639Y-131048501D01*
X80423688Y-131025111D01*
X80355890Y-130924920D01*
X80296208Y-130835520D01*
X80248156Y-130762255D01*
X80215250Y-130710473D01*
X80201004Y-130685520D01*
X80204270Y-130668423D01*
X80229571Y-130629605D01*
X80279675Y-130569615D01*
X80355989Y-130486790D01*
X80459922Y-130379465D01*
X80469382Y-130369861D01*
X80554145Y-130284698D01*
X80630937Y-130209051D01*
X80694947Y-130147551D01*
X80741361Y-130104827D01*
X80765369Y-130085511D01*
X80765485Y-130085448D01*
X80783763Y-130082994D01*
X80813411Y-130092044D01*
X80858486Y-130114881D01*
X80923044Y-130153787D01*
X81011140Y-130211046D01*
X81126830Y-130288941D01*
X81146357Y-130302215D01*
X81245278Y-130369348D01*
X81332848Y-130428590D01*
X81403831Y-130476412D01*
X81452991Y-130509285D01*
X81475095Y-130523682D01*
X81479777Y-130524768D01*
X81514710Y-130517956D01*
X81571753Y-130497550D01*
X81641172Y-130466877D01*
X81731959Y-130425192D01*
X81839686Y-130378648D01*
X81937192Y-130339123D01*
X81962430Y-130329324D01*
X82026870Y-130303660D01*
X82071763Y-130284807D01*
X82088616Y-130276290D01*
X82089875Y-130266889D01*
X82097159Y-130224637D01*
X82109739Y-130155479D01*
X82126246Y-130066613D01*
X82145312Y-129965232D01*
X82165569Y-129858533D01*
X82185647Y-129753712D01*
X82204179Y-129657964D01*
X82219795Y-129578484D01*
X82231127Y-129522470D01*
X82236807Y-129497115D01*
X82238408Y-129492912D01*
X82247045Y-129482666D01*
X82265433Y-129475043D01*
X82298460Y-129469662D01*
X82351013Y-129466141D01*
X82427979Y-129464099D01*
X82534246Y-129463153D01*
X82674701Y-129462923D01*
X83101845Y-129462923D01*
X83122091Y-129565500D01*
G37*
X86680363Y-134331215D02*
X86694228Y-134345338D01*
X86725046Y-134384464D01*
X86735028Y-134423922D01*
X86730433Y-134482638D01*
X86727462Y-134506544D01*
X86721176Y-134568199D01*
X86718672Y-134611308D01*
X86719055Y-134624095D01*
X86723200Y-134676554D01*
X86730433Y-134739978D01*
X86732918Y-134760270D01*
X86733895Y-134811390D01*
X86718462Y-134848793D01*
X86680363Y-134891401D01*
X86618533Y-134953231D01*
X86268343Y-134953231D01*
X86164857Y-134952749D01*
X86066192Y-134951247D01*
X85988068Y-134948911D01*
X85936662Y-134945929D01*
X85918154Y-134942491D01*
X85918204Y-134941770D01*
X85927413Y-134916797D01*
X85947707Y-134874601D01*
X85977261Y-134817451D01*
X86284746Y-134812072D01*
X86592231Y-134806692D01*
X86592231Y-134689461D01*
X86255192Y-134684115D01*
X86163574Y-134682421D01*
X86065649Y-134679995D01*
X85987906Y-134677366D01*
X85936642Y-134674754D01*
X85918154Y-134672377D01*
X85918219Y-134671694D01*
X85925020Y-134648004D01*
X85939604Y-134604454D01*
X85961054Y-134542923D01*
X86257104Y-134542624D01*
X86308532Y-134542324D01*
X86408466Y-134540246D01*
X86491925Y-134536530D01*
X86551377Y-134531570D01*
X86579287Y-134525760D01*
X86594214Y-134504976D01*
X86598825Y-134462560D01*
X86592231Y-134415923D01*
X86255192Y-134410577D01*
X86169546Y-134408664D01*
X86068172Y-134404697D01*
X85988655Y-134399509D01*
X85936736Y-134393501D01*
X85918154Y-134387073D01*
X85924034Y-134362002D01*
X85940829Y-134319150D01*
X85963503Y-134269385D01*
X86618533Y-134269385D01*
X86680363Y-134331215D01*
G36*
X86680363Y-134331215D02*
G01*
X86694228Y-134345338D01*
X86725046Y-134384464D01*
X86735028Y-134423922D01*
X86730433Y-134482638D01*
X86727462Y-134506544D01*
X86721176Y-134568199D01*
X86718672Y-134611308D01*
X86719055Y-134624095D01*
X86723200Y-134676554D01*
X86730433Y-134739978D01*
X86732918Y-134760270D01*
X86733895Y-134811390D01*
X86718462Y-134848793D01*
X86680363Y-134891401D01*
X86618533Y-134953231D01*
X86268343Y-134953231D01*
X86164857Y-134952749D01*
X86066192Y-134951247D01*
X85988068Y-134948911D01*
X85936662Y-134945929D01*
X85918154Y-134942491D01*
X85918204Y-134941770D01*
X85927413Y-134916797D01*
X85947707Y-134874601D01*
X85977261Y-134817451D01*
X86284746Y-134812072D01*
X86592231Y-134806692D01*
X86592231Y-134689461D01*
X86255192Y-134684115D01*
X86163574Y-134682421D01*
X86065649Y-134679995D01*
X85987906Y-134677366D01*
X85936642Y-134674754D01*
X85918154Y-134672377D01*
X85918219Y-134671694D01*
X85925020Y-134648004D01*
X85939604Y-134604454D01*
X85961054Y-134542923D01*
X86257104Y-134542624D01*
X86308532Y-134542324D01*
X86408466Y-134540246D01*
X86491925Y-134536530D01*
X86551377Y-134531570D01*
X86579287Y-134525760D01*
X86594214Y-134504976D01*
X86598825Y-134462560D01*
X86592231Y-134415923D01*
X86255192Y-134410577D01*
X86169546Y-134408664D01*
X86068172Y-134404697D01*
X85988655Y-134399509D01*
X85936736Y-134393501D01*
X85918154Y-134387073D01*
X85924034Y-134362002D01*
X85940829Y-134319150D01*
X85963503Y-134269385D01*
X86618533Y-134269385D01*
X86680363Y-134331215D01*
G37*
X86557670Y-135071690D02*
X86632868Y-135104429D01*
X86694131Y-135166159D01*
X86720210Y-135216142D01*
X86738470Y-135312697D01*
X86736007Y-135366353D01*
X86722687Y-135416024D01*
X86694739Y-135435081D01*
X86648710Y-135427955D01*
X86642624Y-135425882D01*
X86610349Y-135409444D01*
X86598133Y-135382074D01*
X86598950Y-135329932D01*
X86600061Y-135293116D01*
X86590528Y-135250039D01*
X86562026Y-135220525D01*
X86526935Y-135203714D01*
X86490175Y-135201839D01*
X86489961Y-135201926D01*
X86470098Y-135223721D01*
X86441192Y-135270368D01*
X86408886Y-135330722D01*
X86378823Y-135393640D01*
X86356646Y-135447977D01*
X86348000Y-135482590D01*
X86356467Y-135487740D01*
X86396309Y-135494222D01*
X86461371Y-135498661D01*
X86543385Y-135500308D01*
X86600153Y-135500691D01*
X86671648Y-135502495D01*
X86720610Y-135505442D01*
X86738769Y-135509157D01*
X86732667Y-135528576D01*
X86716095Y-135567773D01*
X86693420Y-135617538D01*
X86402509Y-135617538D01*
X86327940Y-135617220D01*
X86214701Y-135614211D01*
X86130692Y-135606546D01*
X86069520Y-135592438D01*
X86024795Y-135570101D01*
X85990124Y-135537747D01*
X85959117Y-135493590D01*
X85933528Y-135437333D01*
X85918154Y-135333460D01*
X85919911Y-135286064D01*
X85930547Y-135244193D01*
X85957062Y-135205209D01*
X86006420Y-135155035D01*
X86041279Y-135122768D01*
X86086534Y-135089156D01*
X86128951Y-135073997D01*
X86182768Y-135070461D01*
X86270850Y-135070461D01*
X86239787Y-135130530D01*
X86201936Y-135178133D01*
X86150950Y-135210739D01*
X86137088Y-135216339D01*
X86083358Y-135259008D01*
X86056417Y-135318293D01*
X86059039Y-135382939D01*
X86094000Y-135441692D01*
X86122394Y-135466550D01*
X86158718Y-135481030D01*
X86191046Y-135465530D01*
X86223565Y-135417333D01*
X86260461Y-135333726D01*
X86265557Y-135321038D01*
X86298907Y-135244922D01*
X86331793Y-135179604D01*
X86357769Y-135138047D01*
X86404167Y-135096424D01*
X86478211Y-135068753D01*
X86557670Y-135071690D01*
G36*
X86557670Y-135071690D02*
G01*
X86632868Y-135104429D01*
X86694131Y-135166159D01*
X86720210Y-135216142D01*
X86738470Y-135312697D01*
X86736007Y-135366353D01*
X86722687Y-135416024D01*
X86694739Y-135435081D01*
X86648710Y-135427955D01*
X86642624Y-135425882D01*
X86610349Y-135409444D01*
X86598133Y-135382074D01*
X86598950Y-135329932D01*
X86600061Y-135293116D01*
X86590528Y-135250039D01*
X86562026Y-135220525D01*
X86526935Y-135203714D01*
X86490175Y-135201839D01*
X86489961Y-135201926D01*
X86470098Y-135223721D01*
X86441192Y-135270368D01*
X86408886Y-135330722D01*
X86378823Y-135393640D01*
X86356646Y-135447977D01*
X86348000Y-135482590D01*
X86356467Y-135487740D01*
X86396309Y-135494222D01*
X86461371Y-135498661D01*
X86543385Y-135500308D01*
X86600153Y-135500691D01*
X86671648Y-135502495D01*
X86720610Y-135505442D01*
X86738769Y-135509157D01*
X86732667Y-135528576D01*
X86716095Y-135567773D01*
X86693420Y-135617538D01*
X86402509Y-135617538D01*
X86327940Y-135617220D01*
X86214701Y-135614211D01*
X86130692Y-135606546D01*
X86069520Y-135592438D01*
X86024795Y-135570101D01*
X85990124Y-135537747D01*
X85959117Y-135493590D01*
X85933528Y-135437333D01*
X85918154Y-135333460D01*
X85919911Y-135286064D01*
X85930547Y-135244193D01*
X85957062Y-135205209D01*
X86006420Y-135155035D01*
X86041279Y-135122768D01*
X86086534Y-135089156D01*
X86128951Y-135073997D01*
X86182768Y-135070461D01*
X86270850Y-135070461D01*
X86239787Y-135130530D01*
X86201936Y-135178133D01*
X86150950Y-135210739D01*
X86137088Y-135216339D01*
X86083358Y-135259008D01*
X86056417Y-135318293D01*
X86059039Y-135382939D01*
X86094000Y-135441692D01*
X86122394Y-135466550D01*
X86158718Y-135481030D01*
X86191046Y-135465530D01*
X86223565Y-135417333D01*
X86260461Y-135333726D01*
X86265557Y-135321038D01*
X86298907Y-135244922D01*
X86331793Y-135179604D01*
X86357769Y-135138047D01*
X86404167Y-135096424D01*
X86478211Y-135068753D01*
X86557670Y-135071690D01*
G37*
X86401643Y-129645426D02*
X86433021Y-129648934D01*
X86544705Y-129675073D01*
X86629642Y-129722306D01*
X86694741Y-129794138D01*
X86697428Y-129798198D01*
X86735634Y-129889513D01*
X86739034Y-129984856D01*
X86709939Y-130076726D01*
X86650660Y-130157621D01*
X86563510Y-130220038D01*
X86561409Y-130221086D01*
X86507289Y-130241827D01*
X86445781Y-130257020D01*
X86388039Y-130265079D01*
X86345215Y-130264418D01*
X86328462Y-130253452D01*
X86329480Y-130243710D01*
X86348009Y-130197123D01*
X86382081Y-130144318D01*
X86421522Y-130099397D01*
X86456155Y-130076465D01*
X86503133Y-130052627D01*
X86545862Y-130003770D01*
X86562923Y-129947037D01*
X86557990Y-129926242D01*
X86533157Y-129885196D01*
X86498685Y-129849443D01*
X86467411Y-129834154D01*
X86467295Y-129834158D01*
X86452933Y-129851505D01*
X86427025Y-129897753D01*
X86393210Y-129965933D01*
X86355129Y-130049077D01*
X86354927Y-130049534D01*
X86314709Y-130139862D01*
X86285733Y-130200408D01*
X86263474Y-130237112D01*
X86243407Y-130255914D01*
X86221009Y-130262754D01*
X86191756Y-130263571D01*
X86121654Y-130256378D01*
X86026412Y-130220816D01*
X85951567Y-130161286D01*
X85899745Y-130084254D01*
X85873573Y-129996185D01*
X85875071Y-129930177D01*
X86056856Y-129930177D01*
X86059406Y-129986819D01*
X86094120Y-130039416D01*
X86118107Y-130060090D01*
X86136363Y-130065000D01*
X86153777Y-130045089D01*
X86179872Y-129995479D01*
X86180610Y-129994024D01*
X86208483Y-129935494D01*
X86230719Y-129883132D01*
X86240126Y-129849914D01*
X86227552Y-129836590D01*
X86184468Y-129834154D01*
X86130847Y-129844276D01*
X86082119Y-129879369D01*
X86056856Y-129930177D01*
X85875071Y-129930177D01*
X85875676Y-129903546D01*
X85908681Y-129812802D01*
X85975215Y-129730421D01*
X86041055Y-129684778D01*
X86135036Y-129651992D01*
X86184468Y-129646661D01*
X86253536Y-129639213D01*
X86401643Y-129645426D01*
G36*
X86401643Y-129645426D02*
G01*
X86433021Y-129648934D01*
X86544705Y-129675073D01*
X86629642Y-129722306D01*
X86694741Y-129794138D01*
X86697428Y-129798198D01*
X86735634Y-129889513D01*
X86739034Y-129984856D01*
X86709939Y-130076726D01*
X86650660Y-130157621D01*
X86563510Y-130220038D01*
X86561409Y-130221086D01*
X86507289Y-130241827D01*
X86445781Y-130257020D01*
X86388039Y-130265079D01*
X86345215Y-130264418D01*
X86328462Y-130253452D01*
X86329480Y-130243710D01*
X86348009Y-130197123D01*
X86382081Y-130144318D01*
X86421522Y-130099397D01*
X86456155Y-130076465D01*
X86503133Y-130052627D01*
X86545862Y-130003770D01*
X86562923Y-129947037D01*
X86557990Y-129926242D01*
X86533157Y-129885196D01*
X86498685Y-129849443D01*
X86467411Y-129834154D01*
X86467295Y-129834158D01*
X86452933Y-129851505D01*
X86427025Y-129897753D01*
X86393210Y-129965933D01*
X86355129Y-130049077D01*
X86354927Y-130049534D01*
X86314709Y-130139862D01*
X86285733Y-130200408D01*
X86263474Y-130237112D01*
X86243407Y-130255914D01*
X86221009Y-130262754D01*
X86191756Y-130263571D01*
X86121654Y-130256378D01*
X86026412Y-130220816D01*
X85951567Y-130161286D01*
X85899745Y-130084254D01*
X85873573Y-129996185D01*
X85875071Y-129930177D01*
X86056856Y-129930177D01*
X86059406Y-129986819D01*
X86094120Y-130039416D01*
X86118107Y-130060090D01*
X86136363Y-130065000D01*
X86153777Y-130045089D01*
X86179872Y-129995479D01*
X86180610Y-129994024D01*
X86208483Y-129935494D01*
X86230719Y-129883132D01*
X86240126Y-129849914D01*
X86227552Y-129836590D01*
X86184468Y-129834154D01*
X86130847Y-129844276D01*
X86082119Y-129879369D01*
X86056856Y-129930177D01*
X85875071Y-129930177D01*
X85875676Y-129903546D01*
X85908681Y-129812802D01*
X85975215Y-129730421D01*
X86041055Y-129684778D01*
X86135036Y-129651992D01*
X86184468Y-129646661D01*
X86253536Y-129639213D01*
X86401643Y-129645426D01*
G37*
X86665296Y-132924239D02*
X86720507Y-132929395D01*
X86738769Y-132937842D01*
X86733301Y-132963406D01*
X86716733Y-133006834D01*
X86711888Y-133017060D01*
X86700920Y-133033033D01*
X86682890Y-133044046D01*
X86651396Y-133051250D01*
X86600036Y-133055792D01*
X86522410Y-133058820D01*
X86412115Y-133061484D01*
X86379875Y-133062215D01*
X86278050Y-133065035D01*
X86206788Y-133068696D01*
X86159332Y-133074306D01*
X86128925Y-133082971D01*
X86108810Y-133095798D01*
X86092229Y-133113895D01*
X86063161Y-133167475D01*
X86057564Y-133233388D01*
X86079807Y-133292365D01*
X86125859Y-133334797D01*
X86191692Y-133351077D01*
X86209587Y-133351530D01*
X86241982Y-133360422D01*
X86246925Y-133386675D01*
X86227633Y-133438081D01*
X86221446Y-133449987D01*
X86185058Y-133482165D01*
X86130954Y-133482802D01*
X86056128Y-133452144D01*
X86015350Y-133424022D01*
X85957421Y-133352117D01*
X85924670Y-133263362D01*
X85920212Y-133168458D01*
X85947167Y-133078108D01*
X85950581Y-133071940D01*
X85989692Y-133021553D01*
X86039975Y-132976502D01*
X86051339Y-132968645D01*
X86077860Y-132953624D01*
X86109336Y-132942893D01*
X86152591Y-132935514D01*
X86214449Y-132930548D01*
X86301733Y-132927058D01*
X86421269Y-132924107D01*
X86441478Y-132923689D01*
X86572499Y-132922346D01*
X86665296Y-132924239D01*
G36*
X86665296Y-132924239D02*
G01*
X86720507Y-132929395D01*
X86738769Y-132937842D01*
X86733301Y-132963406D01*
X86716733Y-133006834D01*
X86711888Y-133017060D01*
X86700920Y-133033033D01*
X86682890Y-133044046D01*
X86651396Y-133051250D01*
X86600036Y-133055792D01*
X86522410Y-133058820D01*
X86412115Y-133061484D01*
X86379875Y-133062215D01*
X86278050Y-133065035D01*
X86206788Y-133068696D01*
X86159332Y-133074306D01*
X86128925Y-133082971D01*
X86108810Y-133095798D01*
X86092229Y-133113895D01*
X86063161Y-133167475D01*
X86057564Y-133233388D01*
X86079807Y-133292365D01*
X86125859Y-133334797D01*
X86191692Y-133351077D01*
X86209587Y-133351530D01*
X86241982Y-133360422D01*
X86246925Y-133386675D01*
X86227633Y-133438081D01*
X86221446Y-133449987D01*
X86185058Y-133482165D01*
X86130954Y-133482802D01*
X86056128Y-133452144D01*
X86015350Y-133424022D01*
X85957421Y-133352117D01*
X85924670Y-133263362D01*
X85920212Y-133168458D01*
X85947167Y-133078108D01*
X85950581Y-133071940D01*
X85989692Y-133021553D01*
X86039975Y-132976502D01*
X86051339Y-132968645D01*
X86077860Y-132953624D01*
X86109336Y-132942893D01*
X86152591Y-132935514D01*
X86214449Y-132930548D01*
X86301733Y-132927058D01*
X86421269Y-132924107D01*
X86441478Y-132923689D01*
X86572499Y-132922346D01*
X86665296Y-132924239D01*
G37*
X86495805Y-135734997D02*
X86592308Y-135736140D01*
X86669323Y-135738081D01*
X86720319Y-135740635D01*
X86738769Y-135743619D01*
X86732667Y-135763038D01*
X86716095Y-135802234D01*
X86715558Y-135803411D01*
X86704903Y-135823765D01*
X86690282Y-135837454D01*
X86664673Y-135845801D01*
X86621054Y-135850126D01*
X86552403Y-135851752D01*
X86451698Y-135852000D01*
X86387813Y-135852500D01*
X86267751Y-135857836D01*
X86179809Y-135870055D01*
X86119375Y-135890448D01*
X86081836Y-135920305D01*
X86062581Y-135960918D01*
X86061239Y-135966552D01*
X86060191Y-136042622D01*
X86094271Y-136101948D01*
X86162598Y-136142923D01*
X86182351Y-136150230D01*
X86226066Y-136166886D01*
X86246155Y-136175321D01*
X86243387Y-136192644D01*
X86228365Y-136230475D01*
X86203556Y-136265760D01*
X86156670Y-136281846D01*
X86123087Y-136277048D01*
X86054967Y-136247569D01*
X85991134Y-136199902D01*
X85946988Y-136144161D01*
X85936782Y-136120807D01*
X85919718Y-136032381D01*
X85926476Y-135938499D01*
X85956440Y-135857833D01*
X85978954Y-135824286D01*
X86011212Y-135790313D01*
X86052246Y-135766081D01*
X86108108Y-135749999D01*
X86184851Y-135740479D01*
X86288525Y-135735932D01*
X86425184Y-135734769D01*
X86495805Y-135734997D01*
G36*
X86495805Y-135734997D02*
G01*
X86592308Y-135736140D01*
X86669323Y-135738081D01*
X86720319Y-135740635D01*
X86738769Y-135743619D01*
X86732667Y-135763038D01*
X86716095Y-135802234D01*
X86715558Y-135803411D01*
X86704903Y-135823765D01*
X86690282Y-135837454D01*
X86664673Y-135845801D01*
X86621054Y-135850126D01*
X86552403Y-135851752D01*
X86451698Y-135852000D01*
X86387813Y-135852500D01*
X86267751Y-135857836D01*
X86179809Y-135870055D01*
X86119375Y-135890448D01*
X86081836Y-135920305D01*
X86062581Y-135960918D01*
X86061239Y-135966552D01*
X86060191Y-136042622D01*
X86094271Y-136101948D01*
X86162598Y-136142923D01*
X86182351Y-136150230D01*
X86226066Y-136166886D01*
X86246155Y-136175321D01*
X86243387Y-136192644D01*
X86228365Y-136230475D01*
X86203556Y-136265760D01*
X86156670Y-136281846D01*
X86123087Y-136277048D01*
X86054967Y-136247569D01*
X85991134Y-136199902D01*
X85946988Y-136144161D01*
X85936782Y-136120807D01*
X85919718Y-136032381D01*
X85926476Y-135938499D01*
X85956440Y-135857833D01*
X85978954Y-135824286D01*
X86011212Y-135790313D01*
X86052246Y-135766081D01*
X86108108Y-135749999D01*
X86184851Y-135740479D01*
X86288525Y-135735932D01*
X86425184Y-135734769D01*
X86495805Y-135734997D01*
G37*
X86384449Y-136399587D02*
X86487047Y-136404359D01*
X86562126Y-136416850D01*
X86617748Y-136439879D01*
X86661975Y-136476268D01*
X86702869Y-136528838D01*
X86721466Y-136562286D01*
X86733991Y-136615902D01*
X86733003Y-136691220D01*
X86729035Y-136733328D01*
X86716920Y-136784121D01*
X86690585Y-136824720D01*
X86641514Y-136871951D01*
X86634346Y-136878262D01*
X86579189Y-136920723D01*
X86531150Y-136940982D01*
X86474184Y-136946154D01*
X86390471Y-136946154D01*
X86412552Y-136887654D01*
X86438364Y-136845006D01*
X86498928Y-136807936D01*
X86518320Y-136800197D01*
X86573235Y-136756926D01*
X86600879Y-136698024D01*
X86598393Y-136633889D01*
X86562923Y-136574923D01*
X86540805Y-136554658D01*
X86507436Y-136536280D01*
X86477117Y-136542029D01*
X86445913Y-136575113D01*
X86409887Y-136638739D01*
X86365103Y-136736115D01*
X86277445Y-136936385D01*
X86190607Y-136941699D01*
X86125663Y-136939353D01*
X86043590Y-136909814D01*
X85998361Y-136872528D01*
X85947838Y-136795224D01*
X85922316Y-136703522D01*
X85922490Y-136695360D01*
X86054721Y-136695360D01*
X86085339Y-136765960D01*
X86100648Y-136785526D01*
X86135296Y-136809217D01*
X86169538Y-136799312D01*
X86206096Y-136754244D01*
X86247692Y-136672443D01*
X86253718Y-136658908D01*
X86281753Y-136594182D01*
X86301472Y-136545753D01*
X86308923Y-136523249D01*
X86303438Y-136519839D01*
X86269948Y-136518471D01*
X86216116Y-136523349D01*
X86163473Y-136535636D01*
X86097151Y-136573959D01*
X86059780Y-136629280D01*
X86054721Y-136695360D01*
X85922490Y-136695360D01*
X85924336Y-136608726D01*
X85956440Y-136522141D01*
X85968767Y-136503080D01*
X86006912Y-136459360D01*
X86055167Y-136429460D01*
X86120710Y-136411032D01*
X86210720Y-136401730D01*
X86269948Y-136400501D01*
X86332376Y-136399206D01*
X86384449Y-136399587D01*
G36*
X86384449Y-136399587D02*
G01*
X86487047Y-136404359D01*
X86562126Y-136416850D01*
X86617748Y-136439879D01*
X86661975Y-136476268D01*
X86702869Y-136528838D01*
X86721466Y-136562286D01*
X86733991Y-136615902D01*
X86733003Y-136691220D01*
X86729035Y-136733328D01*
X86716920Y-136784121D01*
X86690585Y-136824720D01*
X86641514Y-136871951D01*
X86634346Y-136878262D01*
X86579189Y-136920723D01*
X86531150Y-136940982D01*
X86474184Y-136946154D01*
X86390471Y-136946154D01*
X86412552Y-136887654D01*
X86438364Y-136845006D01*
X86498928Y-136807936D01*
X86518320Y-136800197D01*
X86573235Y-136756926D01*
X86600879Y-136698024D01*
X86598393Y-136633889D01*
X86562923Y-136574923D01*
X86540805Y-136554658D01*
X86507436Y-136536280D01*
X86477117Y-136542029D01*
X86445913Y-136575113D01*
X86409887Y-136638739D01*
X86365103Y-136736115D01*
X86277445Y-136936385D01*
X86190607Y-136941699D01*
X86125663Y-136939353D01*
X86043590Y-136909814D01*
X85998361Y-136872528D01*
X85947838Y-136795224D01*
X85922316Y-136703522D01*
X85922490Y-136695360D01*
X86054721Y-136695360D01*
X86085339Y-136765960D01*
X86100648Y-136785526D01*
X86135296Y-136809217D01*
X86169538Y-136799312D01*
X86206096Y-136754244D01*
X86247692Y-136672443D01*
X86253718Y-136658908D01*
X86281753Y-136594182D01*
X86301472Y-136545753D01*
X86308923Y-136523249D01*
X86303438Y-136519839D01*
X86269948Y-136518471D01*
X86216116Y-136523349D01*
X86163473Y-136535636D01*
X86097151Y-136573959D01*
X86059780Y-136629280D01*
X86054721Y-136695360D01*
X85922490Y-136695360D01*
X85924336Y-136608726D01*
X85956440Y-136522141D01*
X85968767Y-136503080D01*
X86006912Y-136459360D01*
X86055167Y-136429460D01*
X86120710Y-136411032D01*
X86210720Y-136401730D01*
X86269948Y-136400501D01*
X86332376Y-136399206D01*
X86384449Y-136399587D01*
G37*
%TD*%
M02*
