%TF.GenerationSoftware,KiCad,Pcbnew,7.0.10*%
%TF.CreationDate,2024-01-08T16:26:40+01:00*%
%TF.ProjectId,mold_detect,6d6f6c64-5f64-4657-9465-63742e6b6963,rev?*%
%TF.SameCoordinates,Original*%
%TF.FileFunction,Copper,L1,Top*%
%TF.FilePolarity,Positive*%
%FSLAX46Y46*%
G04 Gerber Fmt 4.6, Leading zero omitted, Abs format (unit mm)*
G04 Created by KiCad (PCBNEW 7.0.10) date 2024-01-08 16:26:40*
%MOMM*%
%LPD*%
G01*
G04 APERTURE LIST*
G04 Aperture macros list*
%AMRoundRect*
0 Rectangle with rounded corners*
0 $1 Rounding radius*
0 $2 $3 $4 $5 $6 $7 $8 $9 X,Y pos of 4 corners*
0 Add a 4 corners polygon primitive as box body*
4,1,4,$2,$3,$4,$5,$6,$7,$8,$9,$2,$3,0*
0 Add four circle primitives for the rounded corners*
1,1,$1+$1,$2,$3*
1,1,$1+$1,$4,$5*
1,1,$1+$1,$6,$7*
1,1,$1+$1,$8,$9*
0 Add four rect primitives between the rounded corners*
20,1,$1+$1,$2,$3,$4,$5,0*
20,1,$1+$1,$4,$5,$6,$7,0*
20,1,$1+$1,$6,$7,$8,$9,0*
20,1,$1+$1,$8,$9,$2,$3,0*%
%AMFreePoly0*
4,1,6,0.500000,-0.850000,-0.500000,-0.850000,-0.500000,0.550000,-0.200000,0.850000,0.500000,0.850000,0.500000,-0.850000,0.500000,-0.850000,$1*%
G04 Aperture macros list end*
%TA.AperFunction,ComponentPad*%
%ADD10R,2.000000X2.000000*%
%TD*%
%TA.AperFunction,ComponentPad*%
%ADD11C,2.000000*%
%TD*%
%TA.AperFunction,SMDPad,CuDef*%
%ADD12RoundRect,0.200000X0.275000X-0.200000X0.275000X0.200000X-0.275000X0.200000X-0.275000X-0.200000X0*%
%TD*%
%TA.AperFunction,SMDPad,CuDef*%
%ADD13R,0.550000X0.250000*%
%TD*%
%TA.AperFunction,SMDPad,CuDef*%
%ADD14FreePoly0,180.000000*%
%TD*%
%TA.AperFunction,SMDPad,CuDef*%
%ADD15RoundRect,0.200000X-0.275000X0.200000X-0.275000X-0.200000X0.275000X-0.200000X0.275000X0.200000X0*%
%TD*%
%TA.AperFunction,ComponentPad*%
%ADD16R,1.800000X1.800000*%
%TD*%
%TA.AperFunction,ComponentPad*%
%ADD17C,1.800000*%
%TD*%
%TA.AperFunction,SMDPad,CuDef*%
%ADD18R,2.160000X1.120000*%
%TD*%
%TA.AperFunction,ComponentPad*%
%ADD19RoundRect,0.250000X-0.600000X-0.600000X0.600000X-0.600000X0.600000X0.600000X-0.600000X0.600000X0*%
%TD*%
%TA.AperFunction,ComponentPad*%
%ADD20C,1.700000*%
%TD*%
%TA.AperFunction,SMDPad,CuDef*%
%ADD21RoundRect,0.125000X-0.125000X-0.125000X0.125000X-0.125000X0.125000X0.125000X-0.125000X0.125000X0*%
%TD*%
%TA.AperFunction,SMDPad,CuDef*%
%ADD22RoundRect,0.200000X0.200000X0.275000X-0.200000X0.275000X-0.200000X-0.275000X0.200000X-0.275000X0*%
%TD*%
%TA.AperFunction,SMDPad,CuDef*%
%ADD23RoundRect,0.150000X-0.512500X-0.150000X0.512500X-0.150000X0.512500X0.150000X-0.512500X0.150000X0*%
%TD*%
%TA.AperFunction,ComponentPad*%
%ADD24R,1.600000X1.600000*%
%TD*%
%TA.AperFunction,ComponentPad*%
%ADD25O,1.600000X1.600000*%
%TD*%
%TA.AperFunction,SMDPad,CuDef*%
%ADD26RoundRect,0.200000X-0.200000X-0.275000X0.200000X-0.275000X0.200000X0.275000X-0.200000X0.275000X0*%
%TD*%
%TA.AperFunction,SMDPad,CuDef*%
%ADD27RoundRect,0.250000X0.475000X-0.250000X0.475000X0.250000X-0.475000X0.250000X-0.475000X-0.250000X0*%
%TD*%
%TA.AperFunction,SMDPad,CuDef*%
%ADD28RoundRect,0.250000X0.250000X0.475000X-0.250000X0.475000X-0.250000X-0.475000X0.250000X-0.475000X0*%
%TD*%
%TA.AperFunction,ViaPad*%
%ADD29C,1.100000*%
%TD*%
%TA.AperFunction,Conductor*%
%ADD30C,0.300000*%
%TD*%
%TA.AperFunction,Conductor*%
%ADD31C,0.500000*%
%TD*%
G04 APERTURE END LIST*
D10*
%TO.P,BT1,1,+*%
%TO.N,Net-(BT1-+)*%
X98350000Y-89600000D03*
D11*
%TO.P,BT1,2,-*%
%TO.N,GND*%
X85650000Y-89600000D03*
%TD*%
D12*
%TO.P,R3,1*%
%TO.N,Net-(U2-DELAY{slash}M_RST)*%
X90000000Y-83825000D03*
%TO.P,R3,2*%
%TO.N,GND*%
X90000000Y-82175000D03*
%TD*%
D13*
%TO.P,U1,1,SDA*%
%TO.N,SDA*%
X91725000Y-144350000D03*
%TO.P,U1,2,ADDR*%
%TO.N,GND*%
X91725000Y-143850000D03*
%TO.P,U1,3,ALERT*%
%TO.N,unconnected-(U1-ALERT-Pad3)*%
X91725000Y-143350000D03*
%TO.P,U1,4,SCL*%
%TO.N,SCL*%
X91725000Y-142850000D03*
%TO.P,U1,5,VDD*%
%TO.N,+3V0*%
X89375000Y-142850000D03*
%TO.P,U1,6,~{RESET}*%
%TO.N,unconnected-(U1-~{RESET}-Pad6)*%
X89375000Y-143350000D03*
%TO.P,U1,7,R*%
%TO.N,GND*%
X89375000Y-143850000D03*
%TO.P,U1,8,VSS*%
X89375000Y-144350000D03*
D14*
%TO.P,U1,9,VSS*%
X90550000Y-143600000D03*
%TD*%
D12*
%TO.P,R6,1*%
%TO.N,+3V0*%
X93075000Y-146000000D03*
%TO.P,R6,2*%
%TO.N,SDA*%
X93075000Y-144350000D03*
%TD*%
D15*
%TO.P,R5,1*%
%TO.N,+3V0*%
X93075000Y-141300000D03*
%TO.P,R5,2*%
%TO.N,SCL*%
X93075000Y-142950000D03*
%TD*%
%TO.P,R4,1*%
%TO.N,+3V0*%
X106000000Y-85525000D03*
%TO.P,R4,2*%
%TO.N,RST*%
X106000000Y-87175000D03*
%TD*%
D16*
%TO.P,Red1,1,K*%
%TO.N,Net-(Red1-K)*%
X100000000Y-144475000D03*
D17*
%TO.P,Red1,2,A*%
%TO.N,HUM_LED*%
X100000000Y-141935000D03*
%TD*%
D18*
%TO.P,SW1,1,A*%
%TO.N,Net-(SW1-A)*%
X96985000Y-82400000D03*
%TO.P,SW1,2,B*%
%TO.N,RST*%
X103715000Y-82400000D03*
%TD*%
D16*
%TO.P,Blue1,1,K*%
%TO.N,Net-(Blue1-K)*%
X104700000Y-144475000D03*
D17*
%TO.P,Blue1,2,A*%
%TO.N,TEMP_LED*%
X104700000Y-141935000D03*
%TD*%
D19*
%TO.P,J1,1,Pin_1*%
%TO.N,MISO*%
X108580000Y-129750000D03*
D20*
%TO.P,J1,2,Pin_2*%
%TO.N,+3V0*%
X111120000Y-129750000D03*
%TO.P,J1,3,Pin_3*%
%TO.N,SCK*%
X108580000Y-132290000D03*
%TO.P,J1,4,Pin_4*%
%TO.N,MOSI*%
X111120000Y-132290000D03*
%TO.P,J1,5,Pin_5*%
%TO.N,RST*%
X108580000Y-134830000D03*
%TO.P,J1,6,Pin_6*%
%TO.N,GND*%
X111120000Y-134830000D03*
%TD*%
D21*
%TO.P,D1,1,K*%
%TO.N,+3V0*%
X89600000Y-85500000D03*
%TO.P,D1,2,A*%
%TO.N,Net-(BT1-+)*%
X91800000Y-85500000D03*
%TD*%
D22*
%TO.P,R2,1*%
%TO.N,Net-(Blue1-K)*%
X104750000Y-146500000D03*
%TO.P,R2,2*%
%TO.N,GND*%
X103100000Y-146500000D03*
%TD*%
D23*
%TO.P,U2,1,VDD*%
%TO.N,+3V0*%
X91762500Y-81800000D03*
%TO.P,U2,2,GND*%
%TO.N,GND*%
X91762500Y-82750000D03*
%TO.P,U2,3,DELAY/M_RST*%
%TO.N,Net-(U2-DELAY{slash}M_RST)*%
X91762500Y-83700000D03*
%TO.P,U2,4,DONE*%
%TO.N,DONE*%
X94037500Y-83700000D03*
%TO.P,U2,5,WAKE*%
%TO.N,WAKE_INTR*%
X94037500Y-82750000D03*
%TO.P,U2,6,~{RST}*%
%TO.N,Net-(SW1-A)*%
X94037500Y-81800000D03*
%TD*%
D24*
%TO.P,U3,1,~{RESET}/PC6*%
%TO.N,RST*%
X106000000Y-89460000D03*
D25*
%TO.P,U3,2,PD0*%
%TO.N,WAKE_INTR*%
X106000000Y-92000000D03*
%TO.P,U3,3,PD1*%
%TO.N,DONE*%
X106000000Y-94540000D03*
%TO.P,U3,4,PD2*%
%TO.N,unconnected-(U3-PD2-Pad4)*%
X106000000Y-97080000D03*
%TO.P,U3,5,PD3*%
%TO.N,unconnected-(U3-PD3-Pad5)*%
X106000000Y-99620000D03*
%TO.P,U3,6,PD4*%
%TO.N,unconnected-(U3-PD4-Pad6)*%
X106000000Y-102160000D03*
%TO.P,U3,7,VCC*%
%TO.N,+3V0*%
X106000000Y-104700000D03*
%TO.P,U3,8,GND*%
%TO.N,GND*%
X106000000Y-107240000D03*
%TO.P,U3,9,XTAL1/PB6*%
%TO.N,unconnected-(U3-XTAL1{slash}PB6-Pad9)*%
X106000000Y-109780000D03*
%TO.P,U3,10,XTAL2/PB7*%
%TO.N,unconnected-(U3-XTAL2{slash}PB7-Pad10)*%
X106000000Y-112320000D03*
%TO.P,U3,11,PD5*%
%TO.N,HUM_LED*%
X106000000Y-114860000D03*
%TO.P,U3,12,PD6*%
%TO.N,TEMP_LED*%
X106000000Y-117400000D03*
%TO.P,U3,13,PD7*%
%TO.N,unconnected-(U3-PD7-Pad13)*%
X106000000Y-119940000D03*
%TO.P,U3,14,PB0*%
%TO.N,unconnected-(U3-PB0-Pad14)*%
X106000000Y-122480000D03*
%TO.P,U3,15,PB1*%
%TO.N,unconnected-(U3-PB1-Pad15)*%
X113620000Y-122480000D03*
%TO.P,U3,16,PB2*%
%TO.N,unconnected-(U3-PB2-Pad16)*%
X113620000Y-119940000D03*
%TO.P,U3,17,PB3*%
%TO.N,MOSI*%
X113620000Y-117400000D03*
%TO.P,U3,18,PB4*%
%TO.N,MISO*%
X113620000Y-114860000D03*
%TO.P,U3,19,PB5*%
%TO.N,SCK*%
X113620000Y-112320000D03*
%TO.P,U3,20,AVCC*%
%TO.N,unconnected-(U3-AVCC-Pad20)*%
X113620000Y-109780000D03*
%TO.P,U3,21,AREF*%
%TO.N,unconnected-(U3-AREF-Pad21)*%
X113620000Y-107240000D03*
%TO.P,U3,22,GND*%
%TO.N,GND*%
X113620000Y-104700000D03*
%TO.P,U3,23,PC0*%
%TO.N,unconnected-(U3-PC0-Pad23)*%
X113620000Y-102160000D03*
%TO.P,U3,24,PC1*%
%TO.N,unconnected-(U3-PC1-Pad24)*%
X113620000Y-99620000D03*
%TO.P,U3,25,PC2*%
%TO.N,unconnected-(U3-PC2-Pad25)*%
X113620000Y-97080000D03*
%TO.P,U3,26,PC3*%
%TO.N,unconnected-(U3-PC3-Pad26)*%
X113620000Y-94540000D03*
%TO.P,U3,27,PC4*%
%TO.N,SDA*%
X113620000Y-92000000D03*
%TO.P,U3,28,PC5*%
%TO.N,SCL*%
X113620000Y-89460000D03*
%TD*%
D26*
%TO.P,R1,1*%
%TO.N,Net-(Red1-K)*%
X100000000Y-146500000D03*
%TO.P,R1,2*%
%TO.N,GND*%
X101650000Y-146500000D03*
%TD*%
D27*
%TO.P,C1,1*%
%TO.N,GND*%
X87775000Y-144590000D03*
%TO.P,C1,2*%
%TO.N,+3V0*%
X87775000Y-142690000D03*
%TD*%
D28*
%TO.P,C2,1*%
%TO.N,+3V0*%
X87950000Y-85500000D03*
%TO.P,C2,2*%
%TO.N,GND*%
X86050000Y-85500000D03*
%TD*%
D29*
%TO.N,+3V0*%
X107850000Y-123350000D03*
X111000000Y-126450000D03*
%TO.N,GND*%
X88600000Y-82850000D03*
X90550000Y-145550000D03*
X102350000Y-145200000D03*
%TO.N,SCL*%
X108700000Y-98350000D03*
X102550000Y-98350000D03*
%TO.N,SDA*%
X102550000Y-100900000D03*
X108650000Y-100900000D03*
%TD*%
D30*
%TO.N,Net-(Blue1-K)*%
X104750000Y-146500000D02*
X104750000Y-144525000D01*
X104750000Y-144525000D02*
X104700000Y-144475000D01*
%TO.N,Net-(Red1-K)*%
X100000000Y-146500000D02*
X100000000Y-144475000D01*
%TO.N,TEMP_LED*%
X106000000Y-117400000D02*
X103300000Y-120100000D01*
X103300000Y-140535000D02*
X104700000Y-141935000D01*
X103300000Y-120100000D02*
X103300000Y-140535000D01*
%TO.N,MISO*%
X108580000Y-129750000D02*
X108580000Y-127420000D01*
X111900000Y-124100000D02*
X111900000Y-116550000D01*
X108580000Y-127420000D02*
X111900000Y-124100000D01*
X113620000Y-114860000D02*
X111930000Y-116550000D01*
X111930000Y-116550000D02*
X111900000Y-116550000D01*
%TO.N,SCK*%
X110740000Y-115200000D02*
X110700000Y-115200000D01*
X107280000Y-127220000D02*
X110700000Y-123800000D01*
X108580000Y-132290000D02*
X107280000Y-130990000D01*
X107280000Y-130990000D02*
X107280000Y-127220000D01*
X110700000Y-123800000D02*
X110700000Y-115200000D01*
X113620000Y-112320000D02*
X110740000Y-115200000D01*
%TO.N,MOSI*%
X114950000Y-117400000D02*
X113620000Y-117400000D01*
X115150000Y-128260000D02*
X115150000Y-117600000D01*
X111120000Y-132290000D02*
X115150000Y-128260000D01*
X115150000Y-117600000D02*
X114950000Y-117400000D01*
%TO.N,RST*%
X103715000Y-84890000D02*
X106000000Y-87175000D01*
X106300000Y-132550000D02*
X106300000Y-126800000D01*
X106000000Y-89460000D02*
X106000000Y-87175000D01*
X103715000Y-82400000D02*
X103715000Y-84890000D01*
X107650000Y-104700000D02*
X107650000Y-91110000D01*
X109200000Y-123900000D02*
X109200000Y-106250000D01*
X108580000Y-134830000D02*
X106300000Y-132550000D01*
X107650000Y-91110000D02*
X106000000Y-89460000D01*
X109200000Y-106250000D02*
X107650000Y-104700000D01*
X106300000Y-126800000D02*
X109200000Y-123900000D01*
D31*
%TO.N,+3V0*%
X87775000Y-142690000D02*
X87275062Y-142190062D01*
X106000000Y-80150000D02*
X106000000Y-85525000D01*
X87775000Y-142690000D02*
X87790000Y-142675000D01*
X87425000Y-146850000D02*
X86125000Y-145550000D01*
X87775000Y-142690000D02*
X89310000Y-142690000D01*
X87450062Y-85000062D02*
X87450062Y-82269572D01*
X87950000Y-85500000D02*
X87450062Y-85000062D01*
X111120000Y-129750000D02*
X111120000Y-126570000D01*
X103800000Y-95050000D02*
X96350000Y-95050000D01*
X93075000Y-141300000D02*
X90830000Y-141300000D01*
X87275062Y-94924938D02*
X91750000Y-90450000D01*
X90830000Y-141300000D02*
X89375000Y-142755000D01*
X89310000Y-142690000D02*
X89375000Y-142755000D01*
X96350000Y-95050000D02*
X91750000Y-90450000D01*
X91762500Y-80087500D02*
X91800000Y-80050000D01*
X106000000Y-104700000D02*
X103800000Y-102500000D01*
X93075000Y-146000000D02*
X92225000Y-146850000D01*
X86125000Y-142730000D02*
X86165000Y-142690000D01*
X86125000Y-145550000D02*
X86125000Y-142730000D01*
X91762500Y-81800000D02*
X91762500Y-80087500D01*
X87275062Y-142190062D02*
X87275062Y-94924938D01*
X105900000Y-80050000D02*
X106000000Y-80150000D01*
X91800000Y-80050000D02*
X105900000Y-80050000D01*
X103800000Y-102500000D02*
X103800000Y-95050000D01*
X87450062Y-82269572D02*
X89669634Y-80050000D01*
X87950000Y-86650000D02*
X87950000Y-85500000D01*
X86165000Y-142690000D02*
X87775000Y-142690000D01*
X107850000Y-106550000D02*
X106000000Y-104700000D01*
X111120000Y-126570000D02*
X111000000Y-126450000D01*
X89669634Y-80050000D02*
X91800000Y-80050000D01*
X107850000Y-123350000D02*
X107850000Y-106550000D01*
X89600000Y-85500000D02*
X87950000Y-85500000D01*
X92225000Y-146850000D02*
X87425000Y-146850000D01*
X91750000Y-90450000D02*
X87950000Y-86650000D01*
D30*
%TO.N,HUM_LED*%
X106000000Y-114860000D02*
X101300000Y-119560000D01*
X101300000Y-140635000D02*
X100000000Y-141935000D01*
X101300000Y-119560000D02*
X101300000Y-140635000D01*
D31*
%TO.N,Net-(BT1-+)*%
X95900000Y-89600000D02*
X98350000Y-89600000D01*
X91800000Y-85500000D02*
X95900000Y-89600000D01*
D30*
%TO.N,DONE*%
X95437500Y-85100000D02*
X96560000Y-85100000D01*
X94037500Y-83700000D02*
X95437500Y-85100000D01*
X96560000Y-85100000D02*
X106000000Y-94540000D01*
%TO.N,WAKE_INTR*%
X94750000Y-82750000D02*
X96000000Y-84000000D01*
X94037500Y-82750000D02*
X94750000Y-82750000D01*
X98000000Y-84000000D02*
X106000000Y-92000000D01*
X96000000Y-84000000D02*
X98000000Y-84000000D01*
D31*
%TO.N,GND*%
X86050000Y-89200000D02*
X85650000Y-89600000D01*
X90550000Y-145550000D02*
X90550000Y-143600000D01*
X87775000Y-144590000D02*
X89135000Y-144590000D01*
D30*
X89275000Y-82175000D02*
X90000000Y-82175000D01*
D31*
X90205000Y-143945000D02*
X89375000Y-143945000D01*
X89375000Y-144350000D02*
X89375000Y-143945000D01*
D30*
X88600000Y-82850000D02*
X89275000Y-82175000D01*
X90550000Y-143600000D02*
X90795000Y-143845000D01*
D31*
X90550000Y-143600000D02*
X90205000Y-143945000D01*
D30*
X90575000Y-82750000D02*
X90000000Y-82175000D01*
D31*
X102350000Y-146500000D02*
X103100000Y-146500000D01*
X89135000Y-144590000D02*
X89375000Y-144350000D01*
X86050000Y-85500000D02*
X86050000Y-89200000D01*
X102350000Y-146500000D02*
X102350000Y-145200000D01*
D30*
X91762500Y-82750000D02*
X90575000Y-82750000D01*
X90795000Y-143845000D02*
X91494609Y-143845000D01*
D31*
X101650000Y-146500000D02*
X102350000Y-146500000D01*
D30*
%TO.N,Net-(U2-DELAY{slash}M_RST)*%
X91762500Y-83700000D02*
X90125000Y-83700000D01*
X90125000Y-83700000D02*
X90000000Y-83825000D01*
%TO.N,SCL*%
X109350000Y-93730000D02*
X113620000Y-89460000D01*
X91725000Y-142850000D02*
X92975000Y-142850000D01*
X96350000Y-141750000D02*
X95150000Y-142950000D01*
X93225000Y-142850000D02*
X93325000Y-142950000D01*
X92975000Y-142850000D02*
X93075000Y-142950000D01*
X108700000Y-98300000D02*
X109350000Y-97650000D01*
X102550000Y-98300000D02*
X96350000Y-104500000D01*
X95150000Y-142950000D02*
X93075000Y-142950000D01*
X96350000Y-104500000D02*
X96350000Y-141750000D01*
X109350000Y-97650000D02*
X109350000Y-93730000D01*
%TO.N,SDA*%
X111000000Y-98450000D02*
X108650000Y-100800000D01*
X91725000Y-144350000D02*
X93075000Y-144350000D01*
X113620000Y-92000000D02*
X111000000Y-94620000D01*
X98100000Y-105250000D02*
X98100000Y-142500000D01*
X96250000Y-144350000D02*
X93075000Y-144350000D01*
X102550000Y-100800000D02*
X98100000Y-105250000D01*
X111000000Y-94620000D02*
X111000000Y-98450000D01*
X98100000Y-142500000D02*
X96250000Y-144350000D01*
%TO.N,Net-(SW1-A)*%
X96385000Y-81800000D02*
X96985000Y-82400000D01*
X94037500Y-81800000D02*
X96385000Y-81800000D01*
%TD*%
M02*
