%TF.GenerationSoftware,KiCad,Pcbnew,8.0.1*%
%TF.CreationDate,2024-04-18T16:05:37+02:00*%
%TF.ProjectId,mold_detect,6d6f6c64-5f64-4657-9465-63742e6b6963,rev?*%
%TF.SameCoordinates,Original*%
%TF.FileFunction,Copper,L1,Top*%
%TF.FilePolarity,Positive*%
%FSLAX46Y46*%
G04 Gerber Fmt 4.6, Leading zero omitted, Abs format (unit mm)*
G04 Created by KiCad (PCBNEW 8.0.1) date 2024-04-18 16:05:37*
%MOMM*%
%LPD*%
G01*
G04 APERTURE LIST*
G04 Aperture macros list*
%AMRoundRect*
0 Rectangle with rounded corners*
0 $1 Rounding radius*
0 $2 $3 $4 $5 $6 $7 $8 $9 X,Y pos of 4 corners*
0 Add a 4 corners polygon primitive as box body*
4,1,4,$2,$3,$4,$5,$6,$7,$8,$9,$2,$3,0*
0 Add four circle primitives for the rounded corners*
1,1,$1+$1,$2,$3*
1,1,$1+$1,$4,$5*
1,1,$1+$1,$6,$7*
1,1,$1+$1,$8,$9*
0 Add four rect primitives between the rounded corners*
20,1,$1+$1,$2,$3,$4,$5,0*
20,1,$1+$1,$4,$5,$6,$7,0*
20,1,$1+$1,$6,$7,$8,$9,0*
20,1,$1+$1,$8,$9,$2,$3,0*%
%AMFreePoly0*
4,1,6,0.500000,-0.850000,-0.500000,-0.850000,-0.500000,0.550000,-0.200000,0.850000,0.500000,0.850000,0.500000,-0.850000,0.500000,-0.850000,$1*%
G04 Aperture macros list end*
%TA.AperFunction,SMDPad,CuDef*%
%ADD10RoundRect,0.237500X-0.300000X-0.237500X0.300000X-0.237500X0.300000X0.237500X-0.300000X0.237500X0*%
%TD*%
%TA.AperFunction,SMDPad,CuDef*%
%ADD11RoundRect,0.237500X-0.237500X0.250000X-0.237500X-0.250000X0.237500X-0.250000X0.237500X0.250000X0*%
%TD*%
%TA.AperFunction,SMDPad,CuDef*%
%ADD12RoundRect,0.150000X-0.512500X-0.150000X0.512500X-0.150000X0.512500X0.150000X-0.512500X0.150000X0*%
%TD*%
%TA.AperFunction,SMDPad,CuDef*%
%ADD13RoundRect,0.237500X0.250000X0.237500X-0.250000X0.237500X-0.250000X-0.237500X0.250000X-0.237500X0*%
%TD*%
%TA.AperFunction,ComponentPad*%
%ADD14R,1.600000X1.600000*%
%TD*%
%TA.AperFunction,ComponentPad*%
%ADD15C,1.600000*%
%TD*%
%TA.AperFunction,SMDPad,CuDef*%
%ADD16RoundRect,0.150000X0.425000X-0.150000X0.425000X0.150000X-0.425000X0.150000X-0.425000X-0.150000X0*%
%TD*%
%TA.AperFunction,SMDPad,CuDef*%
%ADD17RoundRect,0.075000X0.500000X-0.075000X0.500000X0.075000X-0.500000X0.075000X-0.500000X-0.075000X0*%
%TD*%
%TA.AperFunction,ComponentPad*%
%ADD18O,2.100000X1.000000*%
%TD*%
%TA.AperFunction,ComponentPad*%
%ADD19O,1.800000X1.000000*%
%TD*%
%TA.AperFunction,SMDPad,CuDef*%
%ADD20RoundRect,0.237500X0.237500X-0.250000X0.237500X0.250000X-0.237500X0.250000X-0.237500X-0.250000X0*%
%TD*%
%TA.AperFunction,SMDPad,CuDef*%
%ADD21RoundRect,0.250000X0.250000X-0.250000X0.250000X0.250000X-0.250000X0.250000X-0.250000X-0.250000X0*%
%TD*%
%TA.AperFunction,SMDPad,CuDef*%
%ADD22RoundRect,0.237500X0.300000X0.237500X-0.300000X0.237500X-0.300000X-0.237500X0.300000X-0.237500X0*%
%TD*%
%TA.AperFunction,SMDPad,CuDef*%
%ADD23RoundRect,0.237500X0.237500X-0.300000X0.237500X0.300000X-0.237500X0.300000X-0.237500X-0.300000X0*%
%TD*%
%TA.AperFunction,SMDPad,CuDef*%
%ADD24RoundRect,0.237500X-0.237500X0.300000X-0.237500X-0.300000X0.237500X-0.300000X0.237500X0.300000X0*%
%TD*%
%TA.AperFunction,ComponentPad*%
%ADD25R,1.800000X1.800000*%
%TD*%
%TA.AperFunction,ComponentPad*%
%ADD26C,1.800000*%
%TD*%
%TA.AperFunction,ComponentPad*%
%ADD27RoundRect,0.250000X0.600000X-0.600000X0.600000X0.600000X-0.600000X0.600000X-0.600000X-0.600000X0*%
%TD*%
%TA.AperFunction,ComponentPad*%
%ADD28C,1.700000*%
%TD*%
%TA.AperFunction,ComponentPad*%
%ADD29O,1.600000X1.600000*%
%TD*%
%TA.AperFunction,SMDPad,CuDef*%
%ADD30R,0.400000X1.200000*%
%TD*%
%TA.AperFunction,SMDPad,CuDef*%
%ADD31RoundRect,0.150000X0.650000X0.150000X-0.650000X0.150000X-0.650000X-0.150000X0.650000X-0.150000X0*%
%TD*%
%TA.AperFunction,ComponentPad*%
%ADD32C,1.500000*%
%TD*%
%TA.AperFunction,SMDPad,CuDef*%
%ADD33R,0.550000X0.250000*%
%TD*%
%TA.AperFunction,SMDPad,CuDef*%
%ADD34FreePoly0,180.000000*%
%TD*%
%TA.AperFunction,ComponentPad*%
%ADD35R,2.000000X2.000000*%
%TD*%
%TA.AperFunction,ComponentPad*%
%ADD36C,2.000000*%
%TD*%
%TA.AperFunction,ViaPad*%
%ADD37C,1.100000*%
%TD*%
%TA.AperFunction,Conductor*%
%ADD38C,0.300000*%
%TD*%
%TA.AperFunction,Conductor*%
%ADD39C,0.500000*%
%TD*%
G04 APERTURE END LIST*
D10*
%TO.P,C4,1*%
%TO.N,GND*%
X75637500Y-73000000D03*
%TO.P,C4,2*%
%TO.N,+3V0*%
X77362500Y-73000000D03*
%TD*%
D11*
%TO.P,R2,1*%
%TO.N,Net-(J1-CC1)*%
X94587500Y-69807500D03*
%TO.P,R2,2*%
%TO.N,GND*%
X94587500Y-71632500D03*
%TD*%
D12*
%TO.P,U1,1,VDD*%
%TO.N,+3V0*%
X79362500Y-73550000D03*
%TO.P,U1,2,GND*%
%TO.N,GND*%
X79362500Y-74500000D03*
%TO.P,U1,3,DELAY/M_RST*%
%TO.N,Net-(U1-DELAY{slash}M_RST)*%
X79362500Y-75450000D03*
%TO.P,U1,4,DONE*%
%TO.N,DONE*%
X81637500Y-75450000D03*
%TO.P,U1,5,WAKE*%
%TO.N,WAKE_INTR*%
X81637500Y-74500000D03*
%TO.P,U1,6,~{RST}*%
%TO.N,RST*%
X81637500Y-73550000D03*
%TD*%
D13*
%TO.P,R8,1*%
%TO.N,+3V0*%
X72412500Y-55500000D03*
%TO.P,R8,2*%
%TO.N,SCL*%
X70587500Y-55500000D03*
%TD*%
D14*
%TO.P,C3,1*%
%TO.N,Net-(U2-VCC)*%
X100500000Y-80000000D03*
D15*
%TO.P,C3,2*%
%TO.N,GND*%
X98500000Y-80000000D03*
%TD*%
D16*
%TO.P,J1,A1,GND*%
%TO.N,GND*%
X97320000Y-70100000D03*
%TO.P,J1,A4,VBUS*%
%TO.N,Net-(C1-Pad2)*%
X97320000Y-69300000D03*
D17*
%TO.P,J1,A5,CC1*%
%TO.N,Net-(J1-CC1)*%
X97320000Y-68150000D03*
%TO.P,J1,A6,D+*%
%TO.N,Net-(C9-Pad2)*%
X97320000Y-67150000D03*
%TO.P,J1,A7,D-*%
%TO.N,Net-(C8-Pad2)*%
X97320000Y-66650000D03*
%TO.P,J1,A8*%
%TO.N,N/C*%
X97320000Y-65650000D03*
D16*
%TO.P,J1,A9,VBUS*%
%TO.N,Net-(C1-Pad2)*%
X97320000Y-64500000D03*
%TO.P,J1,A12,GND*%
%TO.N,GND*%
X97320000Y-63700000D03*
%TO.P,J1,B1,GND*%
X97320000Y-63700000D03*
%TO.P,J1,B4,VBUS*%
%TO.N,Net-(C1-Pad2)*%
X97320000Y-64500000D03*
D17*
%TO.P,J1,B5,CC2*%
%TO.N,Net-(J1-CC2)*%
X97320000Y-65150000D03*
%TO.P,J1,B6,D+*%
%TO.N,Net-(C9-Pad2)*%
X97320000Y-66150000D03*
%TO.P,J1,B7,D-*%
%TO.N,Net-(C8-Pad2)*%
X97320000Y-67650000D03*
%TO.P,J1,B8*%
%TO.N,N/C*%
X97320000Y-68650000D03*
D16*
%TO.P,J1,B9,VBUS*%
%TO.N,Net-(C1-Pad2)*%
X97320000Y-69300000D03*
%TO.P,J1,B12,GND*%
%TO.N,GND*%
X97320000Y-70100000D03*
D18*
%TO.P,J1,S1,SHIELD*%
X97895000Y-71220000D03*
D19*
X102075000Y-71220000D03*
D18*
X97895000Y-62580000D03*
D19*
X102075000Y-62580000D03*
%TD*%
D20*
%TO.P,R1,1*%
%TO.N,Net-(U1-DELAY{slash}M_RST)*%
X77500000Y-76362500D03*
%TO.P,R1,2*%
%TO.N,GND*%
X77500000Y-74537500D03*
%TD*%
D21*
%TO.P,D1,1,K*%
%TO.N,+3V0*%
X87500000Y-75570000D03*
%TO.P,D1,2,A*%
%TO.N,USB_ENABLE_INTR*%
X87500000Y-73070000D03*
%TD*%
%TO.P,D2,1,K*%
%TO.N,+3V0*%
X74500000Y-53250000D03*
%TO.P,D2,2,A*%
%TO.N,Net-(BT1-+)*%
X74500000Y-50750000D03*
%TD*%
D22*
%TO.P,C10,1*%
%TO.N,GND*%
X88862500Y-71000000D03*
%TO.P,C10,2*%
%TO.N,USB_ENABLE_INTR*%
X87137500Y-71000000D03*
%TD*%
D23*
%TO.P,C6,1*%
%TO.N,GND*%
X52667500Y-76792500D03*
%TO.P,C6,2*%
%TO.N,Net-(U3-XTAL1{slash}PB6)*%
X52667500Y-75067500D03*
%TD*%
D11*
%TO.P,R6,1*%
%TO.N,USB_ENABLE_INTR*%
X70500000Y-68675000D03*
%TO.P,R6,2*%
%TO.N,GND*%
X70500000Y-70500000D03*
%TD*%
D13*
%TO.P,R5,1*%
%TO.N,Net-(C9-Pad2)*%
X94500000Y-65720000D03*
%TO.P,R5,2*%
%TO.N,Net-(U2-USBDP)*%
X92675000Y-65720000D03*
%TD*%
D24*
%TO.P,C7,1*%
%TO.N,GND*%
X52667500Y-78637500D03*
%TO.P,C7,2*%
%TO.N,Net-(U3-XTAL2{slash}PB7)*%
X52667500Y-80362500D03*
%TD*%
D25*
%TO.P,Red2,1,K*%
%TO.N,Net-(Red2-K)*%
X56000000Y-54725000D03*
D26*
%TO.P,Red2,2,A*%
%TO.N,TEMP_LED*%
X56000000Y-57265000D03*
%TD*%
D27*
%TO.P,J2,1,Pin_1*%
%TO.N,CIPO*%
X59500000Y-98000000D03*
D28*
%TO.P,J2,2,Pin_2*%
%TO.N,+3V0*%
X59500000Y-95460000D03*
%TO.P,J2,3,Pin_3*%
%TO.N,SCK*%
X62040000Y-98000000D03*
%TO.P,J2,4,Pin_4*%
%TO.N,COPI*%
X62040000Y-95460000D03*
%TO.P,J2,5,Pin_5*%
%TO.N,RST*%
X64580000Y-98000000D03*
%TO.P,J2,6,Pin_6*%
%TO.N,GND*%
X64580000Y-95460000D03*
%TD*%
D24*
%TO.P,C2,1*%
%TO.N,GND*%
X98000000Y-73137500D03*
%TO.P,C2,2*%
%TO.N,Net-(U2-VCC)*%
X98000000Y-74862500D03*
%TD*%
D11*
%TO.P,R13,1*%
%TO.N,GND*%
X54500000Y-66587500D03*
%TO.P,R13,2*%
%TO.N,Net-(Blue1-K)*%
X54500000Y-68412500D03*
%TD*%
D23*
%TO.P,C11,1*%
%TO.N,GND*%
X74500000Y-57362500D03*
%TO.P,C11,2*%
%TO.N,+3V0*%
X74500000Y-55637500D03*
%TD*%
D24*
%TO.P,FB1,1*%
%TO.N,Net-(C1-Pad2)*%
X100500000Y-74637500D03*
%TO.P,FB1,2*%
%TO.N,Net-(U2-VCC)*%
X100500000Y-76362500D03*
%TD*%
D25*
%TO.P,Red1,1,K*%
%TO.N,Net-(Red1-K)*%
X51000000Y-60000000D03*
D26*
%TO.P,Red1,2,A*%
%TO.N,ERROR_LED*%
X51000000Y-62540000D03*
%TD*%
D11*
%TO.P,R11,1*%
%TO.N,GND*%
X50000000Y-55925000D03*
%TO.P,R11,2*%
%TO.N,Net-(Red1-K)*%
X50000000Y-57750000D03*
%TD*%
D20*
%TO.P,R10,1*%
%TO.N,GND*%
X56500000Y-66412500D03*
%TO.P,R10,2*%
%TO.N,Net-(Green1-K)*%
X56500000Y-64587500D03*
%TD*%
D13*
%TO.P,R4,1*%
%TO.N,Net-(C8-Pad2)*%
X94500000Y-67910000D03*
%TO.P,R4,2*%
%TO.N,Net-(U2-USBDM)*%
X92675000Y-67910000D03*
%TD*%
%TO.P,R9,1*%
%TO.N,+3V0*%
X72412500Y-58000000D03*
%TO.P,R9,2*%
%TO.N,SDA*%
X70587500Y-58000000D03*
%TD*%
D20*
%TO.P,R12,1*%
%TO.N,GND*%
X52500000Y-56325000D03*
%TO.P,R12,2*%
%TO.N,Net-(Red2-K)*%
X52500000Y-54500000D03*
%TD*%
D14*
%TO.P,U3,1,~{RESET}/PC6*%
%TO.N,RST*%
X60712500Y-55640000D03*
D29*
%TO.P,U3,2,PD0*%
%TO.N,RXD*%
X60712500Y-58180000D03*
%TO.P,U3,3,PD1*%
%TO.N,TXD*%
X60712500Y-60720000D03*
%TO.P,U3,4,PD2*%
%TO.N,TEMP_LED*%
X60712500Y-63260000D03*
%TO.P,U3,5,PD3*%
%TO.N,WAKE_INTR*%
X60712500Y-65800000D03*
%TO.P,U3,6,PD4*%
%TO.N,DONE*%
X60712500Y-68340000D03*
%TO.P,U3,7,VCC*%
%TO.N,+3V0*%
X60712500Y-70880000D03*
%TO.P,U3,8,GND*%
%TO.N,GND*%
X60712500Y-73420000D03*
%TO.P,U3,9,XTAL1/PB6*%
%TO.N,Net-(U3-XTAL1{slash}PB6)*%
X60712500Y-75960000D03*
%TO.P,U3,10,XTAL2/PB7*%
%TO.N,Net-(U3-XTAL2{slash}PB7)*%
X60712500Y-78500000D03*
%TO.P,U3,11,PD5*%
%TO.N,GENERAL_LED*%
X60712500Y-81040000D03*
%TO.P,U3,12,PD6*%
%TO.N,HUM_LED*%
X60712500Y-83580000D03*
%TO.P,U3,13,PD7*%
%TO.N,ERROR_LED*%
X60712500Y-86120000D03*
%TO.P,U3,14,PB0*%
%TO.N,unconnected-(U3-PB0-Pad14)*%
X60712500Y-88660000D03*
%TO.P,U3,15,PB1*%
%TO.N,unconnected-(U3-PB1-Pad15)*%
X68332500Y-88660000D03*
%TO.P,U3,16,PB2*%
%TO.N,FLASH_CS*%
X68332500Y-86120000D03*
%TO.P,U3,17,PB3*%
%TO.N,COPI*%
X68332500Y-83580000D03*
%TO.P,U3,18,PB4*%
%TO.N,CIPO*%
X68332500Y-81040000D03*
%TO.P,U3,19,PB5*%
%TO.N,SCK*%
X68332500Y-78500000D03*
%TO.P,U3,20,AVCC*%
%TO.N,unconnected-(U3-AVCC-Pad20)*%
X68332500Y-75960000D03*
%TO.P,U3,21,AREF*%
%TO.N,unconnected-(U3-AREF-Pad21)*%
X68332500Y-73420000D03*
%TO.P,U3,22,GND*%
%TO.N,GND*%
X68332500Y-70880000D03*
%TO.P,U3,23,PC0*%
%TO.N,USB_ENABLE_INTR*%
X68332500Y-68340000D03*
%TO.P,U3,24,PC1*%
%TO.N,unconnected-(U3-PC1-Pad24)*%
X68332500Y-65800000D03*
%TO.P,U3,25,PC2*%
%TO.N,unconnected-(U3-PC2-Pad25)*%
X68332500Y-63260000D03*
%TO.P,U3,26,PC3*%
%TO.N,unconnected-(U3-PC3-Pad26)*%
X68332500Y-60720000D03*
%TO.P,U3,27,PC4*%
%TO.N,SDA*%
X68332500Y-58180000D03*
%TO.P,U3,28,PC5*%
%TO.N,SCL*%
X68332500Y-55640000D03*
%TD*%
D25*
%TO.P,Green1,1,K*%
%TO.N,Net-(Green1-K)*%
X56000000Y-62525000D03*
D26*
%TO.P,Green1,2,A*%
%TO.N,GENERAL_LED*%
X56000000Y-59985000D03*
%TD*%
D30*
%TO.P,U2,1,TXD*%
%TO.N,RXD*%
X90555000Y-64050000D03*
%TO.P,U2,2,~{RTS}*%
%TO.N,unconnected-(U2-~{RTS}-Pad2)*%
X89920000Y-64050000D03*
%TO.P,U2,3,VCCIO*%
%TO.N,USB_ENABLE_INTR*%
X89285000Y-64050000D03*
%TO.P,U2,4,RXD*%
%TO.N,TXD*%
X88650000Y-64050000D03*
%TO.P,U2,5,GND*%
%TO.N,GND*%
X88015000Y-64050000D03*
%TO.P,U2,6,~{CTS}*%
%TO.N,unconnected-(U2-~{CTS}-Pad6)*%
X87380000Y-64050000D03*
%TO.P,U2,7,CBUS2*%
%TO.N,unconnected-(U2-CBUS2-Pad7)*%
X86745000Y-64050000D03*
%TO.P,U2,8,USBDP*%
%TO.N,Net-(U2-USBDP)*%
X86110000Y-64050000D03*
%TO.P,U2,9,USBDM*%
%TO.N,Net-(U2-USBDM)*%
X86110000Y-69250000D03*
%TO.P,U2,10,3V3OUT*%
%TO.N,USB_ENABLE_INTR*%
X86745000Y-69250000D03*
%TO.P,U2,11,~{RESET}*%
X87380000Y-69250000D03*
%TO.P,U2,12,VCC*%
%TO.N,Net-(U2-VCC)*%
X88015000Y-69250000D03*
%TO.P,U2,13,GND*%
%TO.N,GND*%
X88650000Y-69250000D03*
%TO.P,U2,14,CBUS1*%
%TO.N,unconnected-(U2-CBUS1-Pad14)*%
X89285000Y-69250000D03*
%TO.P,U2,15,CBUS0*%
%TO.N,unconnected-(U2-CBUS0-Pad15)*%
X89920000Y-69250000D03*
%TO.P,U2,16,CBUS3*%
%TO.N,unconnected-(U2-CBUS3-Pad16)*%
X90555000Y-69250000D03*
%TD*%
D24*
%TO.P,C12,1*%
%TO.N,GND*%
X82500000Y-80137500D03*
%TO.P,C12,2*%
%TO.N,+3V0*%
X82500000Y-81862500D03*
%TD*%
D31*
%TO.P,U5,1,~{CS}*%
%TO.N,FLASH_CS*%
X80512026Y-84540000D03*
%TO.P,U5,2,DO(IO1)*%
%TO.N,CIPO*%
X80512026Y-83270000D03*
%TO.P,U5,3,IO2*%
%TO.N,+3V0*%
X80512026Y-82000000D03*
%TO.P,U5,4,GND*%
%TO.N,GND*%
X80512026Y-80730000D03*
%TO.P,U5,5,DI(IO0)*%
%TO.N,COPI*%
X73312026Y-80730000D03*
%TO.P,U5,6,CLK*%
%TO.N,SCK*%
X73312026Y-82000000D03*
%TO.P,U5,7,IO3*%
%TO.N,+3V0*%
X73312026Y-83270000D03*
%TO.P,U5,8,VCC*%
X73312026Y-84540000D03*
%TD*%
D13*
%TO.P,R7,1*%
%TO.N,+3V0*%
X62412500Y-53000000D03*
%TO.P,R7,2*%
%TO.N,RST*%
X60587500Y-53000000D03*
%TD*%
D20*
%TO.P,R3,1*%
%TO.N,Net-(J1-CC2)*%
X94587500Y-64045000D03*
%TO.P,R3,2*%
%TO.N,GND*%
X94587500Y-62220000D03*
%TD*%
D32*
%TO.P,Y1,1,1*%
%TO.N,Net-(U3-XTAL2{slash}PB7)*%
X56500000Y-79880000D03*
%TO.P,Y1,2,2*%
%TO.N,Net-(U3-XTAL1{slash}PB6)*%
X56500000Y-75000000D03*
%TD*%
D25*
%TO.P,Blue1,1,K*%
%TO.N,Net-(Blue1-K)*%
X51000000Y-67790000D03*
D26*
%TO.P,Blue1,2,A*%
%TO.N,HUM_LED*%
X51000000Y-65250000D03*
%TD*%
D22*
%TO.P,C1,1*%
%TO.N,GND*%
X101862500Y-73000000D03*
%TO.P,C1,2*%
%TO.N,Net-(C1-Pad2)*%
X100137500Y-73000000D03*
%TD*%
D33*
%TO.P,U4,1,SDA*%
%TO.N,SDA*%
X78850000Y-57000000D03*
%TO.P,U4,2,ADDR*%
%TO.N,GND*%
X78850000Y-56500000D03*
%TO.P,U4,3,ALERT*%
%TO.N,unconnected-(U4-ALERT-Pad3)*%
X78850000Y-56000000D03*
%TO.P,U4,4,SCL*%
%TO.N,SCL*%
X78850000Y-55500000D03*
%TO.P,U4,5,VDD*%
%TO.N,+3V0*%
X76500000Y-55500000D03*
%TO.P,U4,6,~{RESET}*%
%TO.N,unconnected-(U4-~{RESET}-Pad6)*%
X76500000Y-56000000D03*
%TO.P,U4,7,R*%
%TO.N,GND*%
X76500000Y-56500000D03*
%TO.P,U4,8,VSS*%
X76500000Y-57000000D03*
D34*
%TO.P,U4,9,VSS*%
X77675000Y-56250000D03*
%TD*%
D35*
%TO.P,BT1,1,+*%
%TO.N,Net-(BT1-+)*%
X76982500Y-51100000D03*
D36*
%TO.P,BT1,2,-*%
%TO.N,GND*%
X89682500Y-51100000D03*
%TD*%
D37*
%TO.N,RST*%
X63500000Y-63010000D03*
X63500000Y-58479000D03*
%TO.N,+3V0*%
X84500000Y-69946000D03*
X62000000Y-91500000D03*
X84500000Y-63500000D03*
X84500000Y-72000000D03*
X65500000Y-58479000D03*
X67000000Y-91500000D03*
X84500000Y-60911000D03*
%TO.N,GND*%
X52500000Y-58000000D03*
X87325000Y-65575000D03*
X51000000Y-77500000D03*
X54500000Y-65000000D03*
X89500000Y-72500000D03*
X72500000Y-56710436D03*
X80812026Y-78635000D03*
%TO.N,COPI*%
X78000000Y-84120000D03*
X76000000Y-81000000D03*
%TO.N,Net-(C8-Pad2)*%
X98650000Y-67650000D03*
%TO.N,USB_ENABLE_INTR*%
X89187500Y-65675000D03*
X87397038Y-67901369D03*
%TO.N,Net-(C9-Pad2)*%
X98900000Y-66150000D03*
%TD*%
D38*
%TO.N,WAKE_INTR*%
X81637500Y-74500000D02*
X80975001Y-74500000D01*
X69141607Y-72084000D02*
X66996500Y-72084000D01*
X80975001Y-74500000D02*
X80500000Y-74975001D01*
X80500000Y-74975001D02*
X80500000Y-75762632D01*
X80500000Y-75762632D02*
X78862632Y-77400000D01*
X78862632Y-77400000D02*
X74457607Y-77400000D01*
X74457607Y-77400000D02*
X69141607Y-72084000D01*
X66996500Y-72084000D02*
X60712500Y-65800000D01*
%TO.N,DONE*%
X60712500Y-68340000D02*
X67128500Y-74756000D01*
X67128500Y-74756000D02*
X69756000Y-74756000D01*
X69756000Y-74756000D02*
X73100000Y-78100000D01*
X73100000Y-78100000D02*
X78987500Y-78100000D01*
X78987500Y-78100000D02*
X81637500Y-75450000D01*
%TO.N,RST*%
X81637500Y-73550000D02*
X82299999Y-73550000D01*
X83000000Y-75888186D02*
X81452699Y-77435487D01*
X68831214Y-77296000D02*
X67704000Y-77296000D01*
X82299999Y-73550000D02*
X83000000Y-74250001D01*
X70535214Y-79000000D02*
X68831214Y-77296000D01*
X83000000Y-74250001D02*
X83000000Y-75888186D01*
X81452699Y-77435487D02*
X80435487Y-77435487D01*
X80435487Y-77435487D02*
X78870974Y-79000000D01*
X78870974Y-79000000D02*
X70535214Y-79000000D01*
X64580000Y-98000000D02*
X62580000Y-100000000D01*
X62580000Y-100000000D02*
X58584702Y-100000000D01*
X58584702Y-100000000D02*
X57000000Y-98415298D01*
X57000000Y-98415298D02*
X57000000Y-89900000D01*
X57000000Y-89900000D02*
X59500000Y-87400000D01*
X59500000Y-87400000D02*
X61400000Y-87400000D01*
X61400000Y-87400000D02*
X62400000Y-86400000D01*
X62400000Y-86400000D02*
X62400000Y-82600000D01*
X62400000Y-82600000D02*
X67704000Y-77296000D01*
%TO.N,SCK*%
X62040000Y-98000000D02*
X60786000Y-99254000D01*
X58000000Y-94000000D02*
X63600000Y-88400000D01*
X60786000Y-99254000D02*
X58622176Y-99254000D01*
X58000000Y-98631824D02*
X58000000Y-94000000D01*
X63600000Y-88400000D02*
X63600000Y-82900000D01*
X58622176Y-99254000D02*
X58000000Y-98631824D01*
X63600000Y-82900000D02*
X68000000Y-78500000D01*
X68000000Y-78500000D02*
X68332500Y-78500000D01*
%TO.N,CIPO*%
X59500000Y-98000000D02*
X60786000Y-96714000D01*
X60786000Y-96714000D02*
X60786000Y-94714000D01*
X60786000Y-94714000D02*
X64800000Y-90700000D01*
X64800000Y-90700000D02*
X64800000Y-84572500D01*
X64800000Y-84572500D02*
X68332500Y-81040000D01*
%TO.N,RST*%
X67704000Y-77296000D02*
X62608000Y-72200000D01*
X62608000Y-72200000D02*
X60200000Y-72200000D01*
X60200000Y-72200000D02*
X59000000Y-71000000D01*
X59000000Y-71000000D02*
X59000000Y-65800000D01*
X60300000Y-64500000D02*
X62010000Y-64500000D01*
X59000000Y-65800000D02*
X60300000Y-64500000D01*
X62010000Y-64500000D02*
X63500000Y-63010000D01*
%TO.N,Net-(Blue1-K)*%
X51622500Y-68412500D02*
X51000000Y-67790000D01*
X54500000Y-68412500D02*
X51622500Y-68412500D01*
%TO.N,TEMP_LED*%
X59000000Y-61547500D02*
X60712500Y-63260000D01*
X59000000Y-60265000D02*
X59000000Y-61547500D01*
X56000000Y-57265000D02*
X59000000Y-60265000D01*
%TO.N,SCK*%
X73312026Y-82000000D02*
X71832500Y-82000000D01*
X71832500Y-82000000D02*
X68332500Y-78500000D01*
%TO.N,RST*%
X63500000Y-58427500D02*
X60712500Y-55640000D01*
X60587500Y-55515000D02*
X60712500Y-55640000D01*
X63500000Y-58479000D02*
X63500000Y-58427500D01*
X60587500Y-53000000D02*
X60587500Y-55515000D01*
D39*
%TO.N,+3V0*%
X74500000Y-53250000D02*
X80450000Y-53250000D01*
X84000000Y-72500000D02*
X80412500Y-72500000D01*
D38*
X72412500Y-55500000D02*
X74362500Y-55500000D01*
D39*
X82409526Y-82000000D02*
X82412026Y-81997500D01*
X80450000Y-53250000D02*
X86000000Y-58800000D01*
X62000000Y-91500000D02*
X59500000Y-94000000D01*
X84500000Y-63500000D02*
X84500000Y-69946000D01*
D38*
X77862500Y-73500000D02*
X79312500Y-73500000D01*
D39*
X67135000Y-56844000D02*
X65500000Y-58479000D01*
X87500000Y-75570000D02*
X87070000Y-75570000D01*
X59500000Y-94000000D02*
X59500000Y-95460000D01*
X74500000Y-53250000D02*
X74250000Y-53000000D01*
X75500000Y-91500000D02*
X82500000Y-84500000D01*
X65000000Y-53000000D02*
X65000000Y-54500000D01*
D38*
X77362500Y-73000000D02*
X77862500Y-73500000D01*
D39*
X87500000Y-76862500D02*
X82500000Y-81862500D01*
X73312026Y-83270000D02*
X75730000Y-83270000D01*
X75730000Y-83270000D02*
X77000000Y-82000000D01*
D38*
X79312500Y-73500000D02*
X79362500Y-73550000D01*
X74666500Y-55471000D02*
X76500000Y-55471000D01*
X72412500Y-55500000D02*
X71068500Y-56844000D01*
D39*
X65000000Y-54500000D02*
X67344000Y-56844000D01*
X80512026Y-82000000D02*
X82409526Y-82000000D01*
X82500000Y-84500000D02*
X82500000Y-81862500D01*
D38*
X74500000Y-55637500D02*
X74666500Y-55471000D01*
D39*
X87070000Y-75570000D02*
X84000000Y-72500000D01*
X67000000Y-91500000D02*
X75500000Y-91500000D01*
X86000000Y-59411000D02*
X84500000Y-60911000D01*
X65000000Y-53000000D02*
X62412500Y-53000000D01*
X67344000Y-56844000D02*
X67135000Y-56844000D01*
D38*
X71256500Y-56844000D02*
X72412500Y-58000000D01*
X71068500Y-56844000D02*
X67344000Y-56844000D01*
X74362500Y-55500000D02*
X74500000Y-55637500D01*
D39*
X84500000Y-72000000D02*
X84000000Y-72500000D01*
X77000000Y-82000000D02*
X80512026Y-82000000D01*
X87500000Y-75570000D02*
X87500000Y-76862500D01*
X73312026Y-84540000D02*
X73312026Y-83270000D01*
X74250000Y-53000000D02*
X65000000Y-53000000D01*
D38*
X71068500Y-56844000D02*
X71256500Y-56844000D01*
D39*
X86000000Y-58800000D02*
X86000000Y-59411000D01*
X80412500Y-72500000D02*
X79362500Y-73550000D01*
D38*
%TO.N,HUM_LED*%
X51000000Y-65250000D02*
X49492000Y-66758000D01*
X49492000Y-81492000D02*
X51580000Y-83580000D01*
X49492000Y-66758000D02*
X49492000Y-81492000D01*
X51580000Y-83580000D02*
X60712500Y-83580000D01*
D39*
%TO.N,Net-(BT1-+)*%
X76632500Y-50750000D02*
X76982500Y-51100000D01*
X74500000Y-50750000D02*
X76632500Y-50750000D01*
%TO.N,GND*%
X75637500Y-73000000D02*
X73000000Y-73000000D01*
X97895000Y-70675000D02*
X97324000Y-70104000D01*
D38*
X52667500Y-76792500D02*
X51707500Y-76792500D01*
D39*
X101862500Y-73000000D02*
X101862500Y-71432500D01*
D38*
X52500000Y-56325000D02*
X52500000Y-58000000D01*
D39*
X73847936Y-56710436D02*
X74500000Y-57362500D01*
X77400000Y-56525000D02*
X76500000Y-56525000D01*
X97895000Y-71220000D02*
X97895000Y-70675000D01*
X97324000Y-63696000D02*
X97320000Y-63696000D01*
X80512026Y-78935000D02*
X80812026Y-78635000D01*
X76500000Y-57000000D02*
X76500000Y-56525000D01*
D38*
X54500000Y-66587500D02*
X56325000Y-66587500D01*
X77925000Y-56500000D02*
X77675000Y-56250000D01*
X77500000Y-74537500D02*
X77175000Y-74537500D01*
X52667500Y-78637500D02*
X52667500Y-76792500D01*
D39*
X94587500Y-71632500D02*
X97482500Y-71632500D01*
X97535000Y-62220000D02*
X97895000Y-62580000D01*
X73000000Y-73000000D02*
X70500000Y-70500000D01*
X77675000Y-56250000D02*
X77400000Y-56525000D01*
X97895000Y-62580000D02*
X97895000Y-63125000D01*
D38*
X52100000Y-55925000D02*
X52500000Y-56325000D01*
X79325000Y-74537500D02*
X79362500Y-74500000D01*
X77500000Y-74537500D02*
X79325000Y-74537500D01*
D39*
X88862500Y-71862500D02*
X89500000Y-72500000D01*
X97324000Y-70104000D02*
X97320000Y-70104000D01*
X97895000Y-73032500D02*
X98000000Y-73137500D01*
X97895000Y-63125000D02*
X97324000Y-63696000D01*
X94587500Y-62220000D02*
X97535000Y-62220000D01*
X101862500Y-71432500D02*
X102075000Y-71220000D01*
X97895000Y-71220000D02*
X97895000Y-73032500D01*
D38*
X50000000Y-55925000D02*
X52100000Y-55925000D01*
D39*
X88862500Y-71000000D02*
X88650000Y-70787500D01*
X97482500Y-71632500D02*
X97895000Y-71220000D01*
D38*
X77175000Y-74537500D02*
X75637500Y-73000000D01*
X51707500Y-76792500D02*
X51000000Y-77500000D01*
D39*
X88862500Y-71000000D02*
X88862500Y-71862500D01*
D38*
X78850000Y-56500000D02*
X77925000Y-56500000D01*
X56325000Y-66587500D02*
X56500000Y-66412500D01*
D39*
X74500000Y-57362500D02*
X76137500Y-57362500D01*
X68712500Y-70500000D02*
X68332500Y-70880000D01*
X70500000Y-70500000D02*
X68712500Y-70500000D01*
X81954526Y-80730000D02*
X82412026Y-80272500D01*
X88650000Y-70787500D02*
X88650000Y-69250000D01*
X88015000Y-64885000D02*
X87325000Y-65575000D01*
X76137500Y-57362500D02*
X76500000Y-57000000D01*
X72500000Y-56710436D02*
X73847936Y-56710436D01*
X80512026Y-80730000D02*
X81954526Y-80730000D01*
D38*
X54500000Y-66587500D02*
X54500000Y-65000000D01*
D39*
X88015000Y-64050000D02*
X88015000Y-64885000D01*
X80512026Y-80730000D02*
X80512026Y-78935000D01*
D38*
%TO.N,SCL*%
X70447500Y-55640000D02*
X70587500Y-55500000D01*
X68332500Y-55640000D02*
X70447500Y-55640000D01*
X70587500Y-55500000D02*
X71466500Y-54621000D01*
X78000000Y-54621000D02*
X78850000Y-55471000D01*
X71466500Y-54621000D02*
X78000000Y-54621000D01*
%TO.N,SDA*%
X70407500Y-58180000D02*
X70587500Y-58000000D01*
X68332500Y-58180000D02*
X70407500Y-58180000D01*
X70587500Y-58000000D02*
X71466500Y-58879000D01*
X71466500Y-58879000D02*
X77000000Y-58879000D01*
X77000000Y-58879000D02*
X78850000Y-57029000D01*
%TO.N,RXD*%
X61965500Y-59433000D02*
X76233000Y-59433000D01*
X82800000Y-63000000D02*
X84000000Y-61800000D01*
X90555000Y-63077000D02*
X90555000Y-64050000D01*
X79800000Y-63000000D02*
X82800000Y-63000000D01*
X89278000Y-61800000D02*
X90555000Y-63077000D01*
X84000000Y-61800000D02*
X89278000Y-61800000D01*
X76233000Y-59433000D02*
X79800000Y-63000000D01*
X60712500Y-58180000D02*
X61965500Y-59433000D01*
%TO.N,CIPO*%
X74924896Y-85500000D02*
X72500000Y-85500000D01*
X72500000Y-85500000D02*
X68332500Y-81332500D01*
X80512026Y-83270000D02*
X77154896Y-83270000D01*
X77154896Y-83270000D02*
X74924896Y-85500000D01*
X68332500Y-81332500D02*
X68332500Y-81040000D01*
%TO.N,TXD*%
X60712500Y-60720000D02*
X62048500Y-62056000D01*
X82597918Y-64200000D02*
X84147918Y-62650000D01*
X77256000Y-62056000D02*
X79400000Y-64200000D01*
X84147918Y-62650000D02*
X88223000Y-62650000D01*
X79400000Y-64200000D02*
X82597918Y-64200000D01*
X88223000Y-62650000D02*
X88650000Y-63077000D01*
X88650000Y-63077000D02*
X88650000Y-64050000D01*
X62048500Y-62056000D02*
X77256000Y-62056000D01*
%TO.N,FLASH_CS*%
X77552026Y-87500000D02*
X80512026Y-84540000D01*
X68332500Y-86120000D02*
X69712500Y-87500000D01*
X69712500Y-87500000D02*
X77552026Y-87500000D01*
%TO.N,Net-(J1-CC1)*%
X96245000Y-68150000D02*
X97320000Y-68150000D01*
X94587500Y-69807500D02*
X96245000Y-68150000D01*
%TO.N,Net-(J1-CC2)*%
X95692500Y-65150000D02*
X97320000Y-65150000D01*
X94587500Y-64045000D02*
X95692500Y-65150000D01*
%TO.N,COPI*%
X66000000Y-85912500D02*
X68332500Y-83580000D01*
X78000000Y-84120000D02*
X75620000Y-86500000D01*
X76000000Y-81000000D02*
X75730000Y-80730000D01*
X75730000Y-80730000D02*
X73312026Y-80730000D01*
X62040000Y-95460000D02*
X66000000Y-91500000D01*
X71252500Y-86500000D02*
X68332500Y-83580000D01*
X75620000Y-86500000D02*
X71252500Y-86500000D01*
X66000000Y-91500000D02*
X66000000Y-85912500D01*
%TO.N,Net-(Red2-K)*%
X53500000Y-54500000D02*
X53725000Y-54725000D01*
X52500000Y-54500000D02*
X53500000Y-54500000D01*
X53725000Y-54725000D02*
X56000000Y-54725000D01*
%TO.N,ERROR_LED*%
X48938000Y-64602000D02*
X48938000Y-82938000D01*
X52120000Y-86120000D02*
X60712500Y-86120000D01*
X51000000Y-62540000D02*
X48938000Y-64602000D01*
X48938000Y-82938000D02*
X52120000Y-86120000D01*
D39*
%TO.N,Net-(U2-VCC)*%
X100500000Y-76362500D02*
X100500000Y-80000000D01*
D38*
X92650000Y-71775000D02*
X95737500Y-74862500D01*
X88525000Y-67975000D02*
X91000000Y-67975000D01*
D39*
X98000000Y-74862500D02*
X99000000Y-74862500D01*
D38*
X95737500Y-74862500D02*
X98000000Y-74862500D01*
X88015000Y-68485000D02*
X88525000Y-67975000D01*
D39*
X99000000Y-74862500D02*
X100500000Y-76362500D01*
D38*
X92650000Y-69625000D02*
X92650000Y-71775000D01*
X91000000Y-67975000D02*
X92650000Y-69625000D01*
X88015000Y-69250000D02*
X88015000Y-68485000D01*
%TO.N,Net-(U3-XTAL1{slash}PB6)*%
X56432500Y-75067500D02*
X56500000Y-75000000D01*
X56500000Y-75000000D02*
X57000000Y-75000000D01*
X52667500Y-75067500D02*
X56432500Y-75067500D01*
X57960000Y-75960000D02*
X60712500Y-75960000D01*
X57000000Y-75000000D02*
X57960000Y-75960000D01*
%TO.N,Net-(U3-XTAL2{slash}PB7)*%
X60712500Y-78500000D02*
X57880000Y-78500000D01*
X52667500Y-80362500D02*
X56017500Y-80362500D01*
X56017500Y-80362500D02*
X56500000Y-79880000D01*
X57880000Y-78500000D02*
X56500000Y-79880000D01*
%TO.N,Net-(C8-Pad2)*%
X97927410Y-66650000D02*
X98195000Y-66917590D01*
X94760000Y-67650000D02*
X97320000Y-67650000D01*
X94500000Y-67910000D02*
X94760000Y-67650000D01*
X98195000Y-67405000D02*
X97950000Y-67650000D01*
X97320000Y-66650000D02*
X97927410Y-66650000D01*
X98195000Y-66917590D02*
X98195000Y-67405000D01*
X97320000Y-67650000D02*
X98650000Y-67650000D01*
X97950000Y-67650000D02*
X97320000Y-67650000D01*
%TO.N,Net-(U1-DELAY{slash}M_RST)*%
X78450000Y-76362500D02*
X79362500Y-75450000D01*
X77500000Y-76362500D02*
X78450000Y-76362500D01*
%TO.N,Net-(U2-USBDM)*%
X86700000Y-67050000D02*
X86110000Y-67640000D01*
X91815000Y-67050000D02*
X86700000Y-67050000D01*
X92675000Y-67910000D02*
X91815000Y-67050000D01*
X86110000Y-67640000D02*
X86110000Y-69250000D01*
%TO.N,Net-(U2-USBDP)*%
X92675000Y-65720000D02*
X91870000Y-66525000D01*
X86110000Y-65935000D02*
X86110000Y-64050000D01*
X91870000Y-66525000D02*
X86700000Y-66525000D01*
X86700000Y-66525000D02*
X86110000Y-65935000D01*
%TO.N,GENERAL_LED*%
X58000000Y-67500000D02*
X50046000Y-75454000D01*
X50046000Y-80046000D02*
X51839999Y-81839999D01*
X58000000Y-61985000D02*
X58000000Y-67500000D01*
X51839999Y-81839999D02*
X59912501Y-81839999D01*
X56000000Y-59985000D02*
X58000000Y-61985000D01*
X59912501Y-81839999D02*
X60712500Y-81040000D01*
X50046000Y-75454000D02*
X50046000Y-80046000D01*
D39*
%TO.N,USB_ENABLE_INTR*%
X87137500Y-71000000D02*
X87137500Y-72707500D01*
X87137500Y-70862500D02*
X87311000Y-70689000D01*
X79500000Y-71000000D02*
X87137500Y-71000000D01*
X70500000Y-68675000D02*
X77175000Y-68675000D01*
X86745000Y-69250000D02*
X87380000Y-69250000D01*
X87380000Y-69250000D02*
X87380000Y-67918407D01*
X89187500Y-65675000D02*
X89285000Y-65577500D01*
X87311000Y-70689000D02*
X87311000Y-69250000D01*
X87137500Y-71000000D02*
X87137500Y-70862500D01*
X68667500Y-68675000D02*
X68332500Y-68340000D01*
X87137500Y-72707500D02*
X87500000Y-73070000D01*
X70500000Y-68675000D02*
X68667500Y-68675000D01*
X89285000Y-65577500D02*
X89285000Y-64050000D01*
X77175000Y-68675000D02*
X79500000Y-71000000D01*
X87380000Y-67918407D02*
X87397038Y-67901369D01*
D38*
%TO.N,Net-(C1-Pad2)*%
X99800000Y-65847918D02*
X99099672Y-65147590D01*
X97859695Y-69300000D02*
X97320000Y-69300000D01*
X99142653Y-68617652D02*
X99800000Y-67960305D01*
D39*
X100500000Y-74637500D02*
X100500000Y-73362500D01*
D38*
X99142652Y-68617652D02*
X98542043Y-68617652D01*
X99099672Y-65147590D02*
X98425000Y-65147590D01*
X98542043Y-68617652D02*
X97859695Y-69300000D01*
X100137500Y-73000000D02*
X100137500Y-69612500D01*
X99800000Y-67960305D02*
X99800000Y-65847918D01*
D39*
X100500000Y-73362500D02*
X100137500Y-73000000D01*
D38*
X98425000Y-65147590D02*
X97777410Y-64500000D01*
X100137500Y-69612500D02*
X99142653Y-68617652D01*
X97777410Y-64500000D02*
X97320000Y-64500000D01*
%TO.N,Net-(Green1-K)*%
X56500000Y-63025000D02*
X56000000Y-62525000D01*
X56500000Y-64587500D02*
X56500000Y-63025000D01*
%TO.N,Net-(C9-Pad2)*%
X97320000Y-66150000D02*
X95712590Y-66150000D01*
X97320000Y-66150000D02*
X98900000Y-66150000D01*
X95712590Y-66150000D02*
X95681295Y-66118705D01*
X94500000Y-65720000D02*
X95282590Y-65720000D01*
X95681295Y-66118705D02*
X96712590Y-67150000D01*
X96712590Y-67150000D02*
X97320000Y-67150000D01*
X95282590Y-65720000D02*
X95681295Y-66118705D01*
%TO.N,Net-(Red1-K)*%
X50000000Y-57750000D02*
X50000000Y-59000000D01*
X50000000Y-59000000D02*
X51000000Y-60000000D01*
%TD*%
%TA.AperFunction,Conductor*%
%TO.N,GND*%
G36*
X100003892Y-46800703D02*
G01*
X100326641Y-46817618D01*
X100342146Y-46819247D01*
X100657504Y-46869196D01*
X100672760Y-46872439D01*
X100981161Y-46955074D01*
X100995977Y-46959888D01*
X101294072Y-47074315D01*
X101308309Y-47080654D01*
X101459801Y-47157844D01*
X101592794Y-47225608D01*
X101606300Y-47233406D01*
X101731868Y-47314950D01*
X101874071Y-47407298D01*
X101886684Y-47416461D01*
X102134816Y-47617395D01*
X102146406Y-47627831D01*
X102372168Y-47853593D01*
X102382604Y-47865183D01*
X102583538Y-48113315D01*
X102592705Y-48125933D01*
X102766593Y-48393699D01*
X102774391Y-48407205D01*
X102919342Y-48691685D01*
X102925686Y-48705933D01*
X103040108Y-49004014D01*
X103044927Y-49018847D01*
X103127560Y-49327240D01*
X103130803Y-49342495D01*
X103180751Y-49657850D01*
X103182381Y-49673361D01*
X103199296Y-49996107D01*
X103199500Y-50003905D01*
X103199500Y-61582645D01*
X103179538Y-61657145D01*
X103125000Y-61711683D01*
X103050500Y-61731645D01*
X102976000Y-61711683D01*
X102967720Y-61706534D01*
X102948680Y-61693812D01*
X102766688Y-61618429D01*
X102766686Y-61618428D01*
X102573491Y-61580000D01*
X102325000Y-61580000D01*
X102325000Y-62280000D01*
X101825000Y-62280000D01*
X101825000Y-61580000D01*
X101576509Y-61580000D01*
X101383313Y-61618428D01*
X101383311Y-61618429D01*
X101201322Y-61693810D01*
X101037533Y-61803252D01*
X100898252Y-61942533D01*
X100788810Y-62106322D01*
X100713429Y-62288311D01*
X100713428Y-62288315D01*
X100705136Y-62329999D01*
X100705137Y-62330000D01*
X101508012Y-62330000D01*
X101490795Y-62339940D01*
X101434940Y-62395795D01*
X101395444Y-62464204D01*
X101375000Y-62540504D01*
X101375000Y-62619496D01*
X101395444Y-62695796D01*
X101434940Y-62764205D01*
X101490795Y-62820060D01*
X101508012Y-62830000D01*
X100705137Y-62830000D01*
X100713428Y-62871684D01*
X100713429Y-62871688D01*
X100788810Y-63053677D01*
X100898252Y-63217466D01*
X101037533Y-63356747D01*
X101201322Y-63466189D01*
X101383311Y-63541570D01*
X101383313Y-63541571D01*
X101576509Y-63580000D01*
X101825000Y-63580000D01*
X101825000Y-62880000D01*
X102325000Y-62880000D01*
X102325000Y-63580000D01*
X102573491Y-63580000D01*
X102766686Y-63541571D01*
X102766688Y-63541570D01*
X102948679Y-63466188D01*
X102967717Y-63453467D01*
X103040751Y-63428673D01*
X103116397Y-63443718D01*
X103174387Y-63494571D01*
X103199181Y-63567605D01*
X103199500Y-63577354D01*
X103199500Y-70222645D01*
X103179538Y-70297145D01*
X103125000Y-70351683D01*
X103050500Y-70371645D01*
X102976000Y-70351683D01*
X102967720Y-70346534D01*
X102948680Y-70333812D01*
X102766688Y-70258429D01*
X102766686Y-70258428D01*
X102573491Y-70220000D01*
X102325000Y-70220000D01*
X102325000Y-70920000D01*
X101825000Y-70920000D01*
X101825000Y-70220000D01*
X101576509Y-70220000D01*
X101383313Y-70258428D01*
X101383311Y-70258429D01*
X101201322Y-70333810D01*
X101037533Y-70443252D01*
X100942359Y-70538427D01*
X100875564Y-70576991D01*
X100798436Y-70576991D01*
X100731641Y-70538427D01*
X100693077Y-70471632D01*
X100688000Y-70433068D01*
X100688000Y-69540025D01*
X100687999Y-69540023D01*
X100686676Y-69535085D01*
X100650484Y-69400015D01*
X100647983Y-69395684D01*
X100611968Y-69333304D01*
X100611967Y-69333302D01*
X100578010Y-69274486D01*
X100026536Y-68723011D01*
X99987972Y-68656216D01*
X99987972Y-68579088D01*
X100026536Y-68512293D01*
X100051240Y-68487589D01*
X100240510Y-68298320D01*
X100312984Y-68172790D01*
X100319022Y-68150256D01*
X100350500Y-68032780D01*
X100350500Y-65775443D01*
X100312984Y-65635433D01*
X100298484Y-65610319D01*
X100287049Y-65590512D01*
X100287048Y-65590511D01*
X100287047Y-65590509D01*
X100240510Y-65509903D01*
X99437687Y-64707080D01*
X99312157Y-64634606D01*
X99172147Y-64597090D01*
X98978314Y-64597090D01*
X98903814Y-64577128D01*
X98849276Y-64522590D01*
X98829314Y-64448090D01*
X98849276Y-64373590D01*
X98851744Y-64369895D01*
X98855512Y-64363367D01*
X98855515Y-64363365D01*
X98931281Y-64232135D01*
X98970500Y-64085766D01*
X98970500Y-63934234D01*
X98931281Y-63787865D01*
X98872097Y-63685356D01*
X98863365Y-63670231D01*
X98843403Y-63595731D01*
X98863365Y-63521231D01*
X98913291Y-63471304D01*
X98912591Y-63470256D01*
X98917862Y-63466733D01*
X98917903Y-63466693D01*
X98918023Y-63466625D01*
X99082466Y-63356747D01*
X99221747Y-63217466D01*
X99331189Y-63053677D01*
X99406570Y-62871688D01*
X99406571Y-62871684D01*
X99414863Y-62830000D01*
X98611988Y-62830000D01*
X98629205Y-62820060D01*
X98685060Y-62764205D01*
X98724556Y-62695796D01*
X98745000Y-62619496D01*
X98745000Y-62540504D01*
X98724556Y-62464204D01*
X98685060Y-62395795D01*
X98629205Y-62339940D01*
X98611988Y-62330000D01*
X99414863Y-62330000D01*
X99414863Y-62329999D01*
X99406571Y-62288315D01*
X99406570Y-62288311D01*
X99331189Y-62106322D01*
X99221747Y-61942533D01*
X99082466Y-61803252D01*
X98918677Y-61693810D01*
X98736688Y-61618429D01*
X98736686Y-61618428D01*
X98543491Y-61580000D01*
X98145000Y-61580000D01*
X98145000Y-62280000D01*
X97645000Y-62280000D01*
X97645000Y-61580000D01*
X97246509Y-61580000D01*
X97053313Y-61618428D01*
X97053311Y-61618429D01*
X96871322Y-61693810D01*
X96707533Y-61803252D01*
X96568252Y-61942533D01*
X96458810Y-62106322D01*
X96383429Y-62288311D01*
X96383428Y-62288315D01*
X96375136Y-62329999D01*
X96375137Y-62330000D01*
X97178012Y-62330000D01*
X97160795Y-62339940D01*
X97104940Y-62395795D01*
X97065444Y-62464204D01*
X97045000Y-62540504D01*
X97045000Y-62619496D01*
X97065444Y-62695796D01*
X97104940Y-62764205D01*
X97160795Y-62820060D01*
X97178012Y-62830000D01*
X96375137Y-62830000D01*
X96383428Y-62871684D01*
X96383430Y-62871693D01*
X96424598Y-62971082D01*
X96434665Y-63047550D01*
X96405149Y-63118807D01*
X96392304Y-63133455D01*
X96377320Y-63148440D01*
X96377316Y-63148445D01*
X96293718Y-63289802D01*
X96293718Y-63289803D01*
X96247899Y-63447511D01*
X96247703Y-63449999D01*
X96247704Y-63450000D01*
X97070000Y-63450000D01*
X97070000Y-63006000D01*
X97089962Y-62931500D01*
X97144500Y-62876962D01*
X97219000Y-62857000D01*
X97224777Y-62857000D01*
X97229204Y-62859556D01*
X97305504Y-62880000D01*
X97498538Y-62880000D01*
X97550038Y-62931500D01*
X97570000Y-63006000D01*
X97570000Y-63650500D01*
X97550038Y-63725000D01*
X97495500Y-63779538D01*
X97421000Y-63799500D01*
X96851894Y-63799500D01*
X96763436Y-63810122D01*
X96622659Y-63865638D01*
X96622654Y-63865641D01*
X96551336Y-63919724D01*
X96479913Y-63948834D01*
X96461305Y-63950000D01*
X96247704Y-63950000D01*
X96247899Y-63952488D01*
X96293719Y-64110200D01*
X96329855Y-64171303D01*
X96350596Y-64245590D01*
X96349541Y-64264914D01*
X96344500Y-64306892D01*
X96344500Y-64450500D01*
X96324538Y-64525000D01*
X96270000Y-64579538D01*
X96195500Y-64599500D01*
X95982243Y-64599500D01*
X95907743Y-64579538D01*
X95876884Y-64555859D01*
X95506640Y-64185615D01*
X95468076Y-64118820D01*
X95462999Y-64080256D01*
X95462999Y-63730577D01*
X95462999Y-63730572D01*
X95462999Y-63730566D01*
X95460154Y-63694402D01*
X95415181Y-63539606D01*
X95333126Y-63400857D01*
X95232724Y-63300455D01*
X95194161Y-63233661D01*
X95194161Y-63156533D01*
X95232725Y-63089738D01*
X95259865Y-63068279D01*
X95285539Y-63052443D01*
X95407444Y-62930538D01*
X95497953Y-62783802D01*
X95497956Y-62783795D01*
X95552181Y-62620149D01*
X95552182Y-62620148D01*
X95562499Y-62519157D01*
X95562500Y-62519147D01*
X95562500Y-62470000D01*
X93612501Y-62470000D01*
X93612501Y-62519141D01*
X93622819Y-62620151D01*
X93622820Y-62620154D01*
X93677043Y-62783795D01*
X93677046Y-62783802D01*
X93767555Y-62930538D01*
X93889460Y-63052443D01*
X93915136Y-63068280D01*
X93968064Y-63124381D01*
X93985852Y-63199430D01*
X93963732Y-63273318D01*
X93942274Y-63300455D01*
X93841878Y-63400851D01*
X93841873Y-63400858D01*
X93759818Y-63539606D01*
X93714847Y-63694393D01*
X93714846Y-63694398D01*
X93714757Y-63695528D01*
X93712000Y-63730565D01*
X93712000Y-63730566D01*
X93712000Y-63730572D01*
X93712000Y-64359422D01*
X93712001Y-64359440D01*
X93714845Y-64395593D01*
X93714845Y-64395596D01*
X93714846Y-64395598D01*
X93752441Y-64525000D01*
X93759820Y-64550396D01*
X93841873Y-64689141D01*
X93841874Y-64689143D01*
X93890475Y-64737744D01*
X93929039Y-64804539D01*
X93929039Y-64881667D01*
X93890475Y-64948462D01*
X93860966Y-64971352D01*
X93855860Y-64974371D01*
X93855855Y-64974375D01*
X93741875Y-65088355D01*
X93741873Y-65088358D01*
X93715751Y-65132529D01*
X93660645Y-65186493D01*
X93585940Y-65205674D01*
X93511653Y-65184933D01*
X93459249Y-65132529D01*
X93435809Y-65092894D01*
X93433126Y-65088357D01*
X93319143Y-64974374D01*
X93275328Y-64948462D01*
X93180393Y-64892318D01*
X93025606Y-64847347D01*
X93025601Y-64847346D01*
X93015735Y-64846569D01*
X92989435Y-64844500D01*
X92989427Y-64844500D01*
X92360577Y-64844500D01*
X92360559Y-64844501D01*
X92324406Y-64847345D01*
X92324402Y-64847346D01*
X92169610Y-64892318D01*
X92169603Y-64892320D01*
X92030858Y-64974373D01*
X92030855Y-64974375D01*
X91916875Y-65088355D01*
X91916873Y-65088358D01*
X91834818Y-65227106D01*
X91789847Y-65381893D01*
X91789846Y-65381898D01*
X91789846Y-65381902D01*
X91787000Y-65418065D01*
X91787000Y-65418066D01*
X91787000Y-65418072D01*
X91787000Y-65767756D01*
X91767038Y-65842256D01*
X91743360Y-65873114D01*
X91685617Y-65930858D01*
X91618822Y-65969423D01*
X91580257Y-65974500D01*
X90277497Y-65974500D01*
X90202997Y-65954538D01*
X90148459Y-65900000D01*
X90128497Y-65825500D01*
X90129213Y-65810905D01*
X90142599Y-65675000D01*
X90124247Y-65488669D01*
X90069896Y-65309499D01*
X90047329Y-65267279D01*
X90029817Y-65192168D01*
X90052206Y-65118361D01*
X90108499Y-65065637D01*
X90155423Y-65049880D01*
X90214194Y-65040572D01*
X90260808Y-65040572D01*
X90323481Y-65050500D01*
X90786518Y-65050499D01*
X90880304Y-65035646D01*
X90993342Y-64978050D01*
X91083050Y-64888342D01*
X91140646Y-64775304D01*
X91155500Y-64681519D01*
X91155499Y-63418482D01*
X91152707Y-63400855D01*
X91140646Y-63324697D01*
X91140646Y-63324696D01*
X91121738Y-63287588D01*
X91105500Y-63219945D01*
X91105500Y-63004525D01*
X91105499Y-63004523D01*
X91067984Y-62864515D01*
X91044865Y-62824472D01*
X90995510Y-62738985D01*
X90226525Y-61970000D01*
X93612500Y-61970000D01*
X94337500Y-61970000D01*
X94337500Y-61232500D01*
X94837500Y-61232500D01*
X94837500Y-61970000D01*
X95562499Y-61970000D01*
X95562499Y-61920858D01*
X95552180Y-61819848D01*
X95552179Y-61819845D01*
X95497956Y-61656204D01*
X95497953Y-61656197D01*
X95407444Y-61509461D01*
X95285538Y-61387555D01*
X95138802Y-61297046D01*
X95138795Y-61297043D01*
X94975149Y-61242818D01*
X94975148Y-61242817D01*
X94874157Y-61232500D01*
X94837500Y-61232500D01*
X94337500Y-61232500D01*
X94337500Y-61232499D01*
X94337499Y-61232499D01*
X94300858Y-61232500D01*
X94199848Y-61242819D01*
X94199845Y-61242820D01*
X94036204Y-61297043D01*
X94036197Y-61297046D01*
X93889461Y-61387555D01*
X93767555Y-61509461D01*
X93677046Y-61656197D01*
X93677043Y-61656204D01*
X93622818Y-61819850D01*
X93622817Y-61819851D01*
X93612500Y-61920842D01*
X93612500Y-61970000D01*
X90226525Y-61970000D01*
X89616015Y-61359490D01*
X89567526Y-61331495D01*
X89490486Y-61287016D01*
X89451243Y-61276501D01*
X89429351Y-61270635D01*
X89350475Y-61249500D01*
X85586156Y-61249500D01*
X85511656Y-61229538D01*
X85457118Y-61175000D01*
X85437156Y-61100500D01*
X85437873Y-61085896D01*
X85441868Y-61045333D01*
X85453714Y-60925058D01*
X85480881Y-60852877D01*
X85496631Y-60834313D01*
X86505276Y-59825670D01*
X86576465Y-59719127D01*
X86625501Y-59600744D01*
X86629202Y-59582137D01*
X86632396Y-59566083D01*
X86640225Y-59526722D01*
X86650500Y-59475069D01*
X86650500Y-58735931D01*
X86625501Y-58610256D01*
X86576465Y-58491873D01*
X86567864Y-58479000D01*
X86505276Y-58385330D01*
X80864669Y-52744723D01*
X80758127Y-52673535D01*
X80758123Y-52673533D01*
X80758121Y-52673532D01*
X80677668Y-52640207D01*
X80639744Y-52624499D01*
X80639742Y-52624498D01*
X80639743Y-52624498D01*
X80514072Y-52599500D01*
X80514069Y-52599500D01*
X78409110Y-52599500D01*
X78334610Y-52579538D01*
X78280072Y-52525000D01*
X78260110Y-52450500D01*
X78280072Y-52376000D01*
X78303751Y-52345141D01*
X78310550Y-52338342D01*
X78368146Y-52225304D01*
X78383000Y-52131519D01*
X78383000Y-51100001D01*
X88177359Y-51100001D01*
X88197886Y-51347733D01*
X88258912Y-51588721D01*
X88358763Y-51816358D01*
X88358767Y-51816365D01*
X88459063Y-51969881D01*
X89191371Y-51237573D01*
X89207255Y-51296853D01*
X89274398Y-51413147D01*
X89369353Y-51508102D01*
X89485647Y-51575245D01*
X89544924Y-51591128D01*
X88812442Y-52323609D01*
X88812442Y-52323610D01*
X88859266Y-52360054D01*
X89077893Y-52478368D01*
X89313006Y-52559082D01*
X89558208Y-52599999D01*
X89558208Y-52600000D01*
X89806792Y-52600000D01*
X89806791Y-52599999D01*
X90051993Y-52559082D01*
X90287106Y-52478368D01*
X90505733Y-52360054D01*
X90552556Y-52323609D01*
X89820075Y-51591128D01*
X89879353Y-51575245D01*
X89995647Y-51508102D01*
X90090602Y-51413147D01*
X90157745Y-51296853D01*
X90173628Y-51237575D01*
X90905935Y-51969882D01*
X90905935Y-51969881D01*
X91006228Y-51816374D01*
X91006236Y-51816358D01*
X91106087Y-51588721D01*
X91167113Y-51347733D01*
X91187641Y-51100001D01*
X91187641Y-51099998D01*
X91167113Y-50852266D01*
X91106087Y-50611278D01*
X91006236Y-50383641D01*
X91006232Y-50383634D01*
X90905934Y-50230117D01*
X90173627Y-50962423D01*
X90157745Y-50903147D01*
X90090602Y-50786853D01*
X89995647Y-50691898D01*
X89879353Y-50624755D01*
X89820073Y-50608871D01*
X90307652Y-50121293D01*
X98149500Y-50121293D01*
X98181160Y-50361781D01*
X98181161Y-50361787D01*
X98181162Y-50361789D01*
X98243946Y-50596100D01*
X98322958Y-50786853D01*
X98336778Y-50820216D01*
X98417634Y-50960263D01*
X98458064Y-51030289D01*
X98605735Y-51222738D01*
X98777262Y-51394265D01*
X98969711Y-51541936D01*
X99179788Y-51663224D01*
X99403900Y-51756054D01*
X99638211Y-51818838D01*
X99638217Y-51818838D01*
X99638218Y-51818839D01*
X99703600Y-51827446D01*
X99878712Y-51850500D01*
X100121288Y-51850500D01*
X100361789Y-51818838D01*
X100596100Y-51756054D01*
X100820212Y-51663224D01*
X101030289Y-51541936D01*
X101222738Y-51394265D01*
X101394265Y-51222738D01*
X101541936Y-51030289D01*
X101663224Y-50820212D01*
X101756054Y-50596100D01*
X101818838Y-50361789D01*
X101850500Y-50121288D01*
X101850500Y-49878712D01*
X101822439Y-49665561D01*
X101818839Y-49638218D01*
X101818838Y-49638217D01*
X101818838Y-49638211D01*
X101756054Y-49403900D01*
X101663224Y-49179788D01*
X101541936Y-48969711D01*
X101394265Y-48777262D01*
X101222738Y-48605735D01*
X101030289Y-48458064D01*
X100918806Y-48393699D01*
X100820216Y-48336778D01*
X100820214Y-48336777D01*
X100820212Y-48336776D01*
X100688932Y-48282398D01*
X100596103Y-48243947D01*
X100596101Y-48243946D01*
X100596100Y-48243946D01*
X100361789Y-48181162D01*
X100361787Y-48181161D01*
X100361781Y-48181160D01*
X100121293Y-48149500D01*
X100121288Y-48149500D01*
X99878712Y-48149500D01*
X99878706Y-48149500D01*
X99638218Y-48181160D01*
X99403896Y-48243947D01*
X99179783Y-48336778D01*
X98969712Y-48458063D01*
X98969711Y-48458064D01*
X98777262Y-48605735D01*
X98777260Y-48605736D01*
X98777256Y-48605740D01*
X98605740Y-48777256D01*
X98458063Y-48969712D01*
X98336778Y-49179783D01*
X98243947Y-49403896D01*
X98181160Y-49638218D01*
X98149500Y-49878706D01*
X98149500Y-50121293D01*
X90307652Y-50121293D01*
X90552556Y-49876389D01*
X90552556Y-49876388D01*
X90505735Y-49839946D01*
X90505731Y-49839944D01*
X90287106Y-49721631D01*
X90051993Y-49640917D01*
X89806791Y-49600000D01*
X89558208Y-49600000D01*
X89313006Y-49640917D01*
X89077893Y-49721631D01*
X88859263Y-49839947D01*
X88812442Y-49876388D01*
X88812442Y-49876389D01*
X89544924Y-50608871D01*
X89485647Y-50624755D01*
X89369353Y-50691898D01*
X89274398Y-50786853D01*
X89207255Y-50903147D01*
X89191371Y-50962424D01*
X88459063Y-50230116D01*
X88358766Y-50383632D01*
X88258912Y-50611278D01*
X88197886Y-50852266D01*
X88177359Y-51099998D01*
X88177359Y-51100001D01*
X78383000Y-51100001D01*
X78382999Y-50068482D01*
X78368146Y-49974696D01*
X78310550Y-49861658D01*
X78220842Y-49771950D01*
X78107805Y-49714354D01*
X78092173Y-49711878D01*
X78014019Y-49699500D01*
X78014014Y-49699500D01*
X75950981Y-49699500D01*
X75857195Y-49714354D01*
X75857193Y-49714355D01*
X75744157Y-49771950D01*
X75654450Y-49861657D01*
X75596853Y-49974696D01*
X75593231Y-49985847D01*
X75591836Y-49985393D01*
X75565623Y-50044270D01*
X75503225Y-50089604D01*
X75449829Y-50099500D01*
X75331164Y-50099500D01*
X75256664Y-50079538D01*
X75225805Y-50055859D01*
X75151866Y-49981920D01*
X75151865Y-49981919D01*
X75010398Y-49898256D01*
X74935129Y-49876388D01*
X74852571Y-49852402D01*
X74852572Y-49852402D01*
X74841506Y-49851531D01*
X74815694Y-49849500D01*
X74184306Y-49849500D01*
X74159722Y-49851434D01*
X74147428Y-49852402D01*
X73989599Y-49898257D01*
X73848136Y-49981918D01*
X73848133Y-49981920D01*
X73731920Y-50098133D01*
X73731918Y-50098136D01*
X73648257Y-50239599D01*
X73602402Y-50397428D01*
X73602402Y-50397431D01*
X73599500Y-50434306D01*
X73599500Y-51065694D01*
X73601757Y-51094374D01*
X73602402Y-51102571D01*
X73629046Y-51194279D01*
X73648256Y-51260398D01*
X73731919Y-51401865D01*
X73848135Y-51518081D01*
X73989602Y-51601744D01*
X74147428Y-51647597D01*
X74147427Y-51647597D01*
X74147431Y-51647598D01*
X74184306Y-51650500D01*
X74184313Y-51650500D01*
X74815687Y-51650500D01*
X74815694Y-51650500D01*
X74852569Y-51647598D01*
X75010398Y-51601744D01*
X75151865Y-51518081D01*
X75225805Y-51444141D01*
X75292600Y-51405577D01*
X75331164Y-51400500D01*
X75433001Y-51400500D01*
X75507501Y-51420462D01*
X75562039Y-51475000D01*
X75582001Y-51549500D01*
X75582001Y-52131518D01*
X75596854Y-52225304D01*
X75596855Y-52225306D01*
X75654450Y-52338342D01*
X75661249Y-52345141D01*
X75699813Y-52411936D01*
X75699813Y-52489064D01*
X75661249Y-52555859D01*
X75594454Y-52594423D01*
X75555890Y-52599500D01*
X75331164Y-52599500D01*
X75256664Y-52579538D01*
X75225805Y-52555859D01*
X75151866Y-52481920D01*
X75151865Y-52481919D01*
X75060777Y-52428050D01*
X75010400Y-52398257D01*
X75010399Y-52398256D01*
X75010398Y-52398256D01*
X74933793Y-52376000D01*
X74852571Y-52352402D01*
X74852572Y-52352402D01*
X74841506Y-52351531D01*
X74815694Y-52349500D01*
X74815687Y-52349500D01*
X63213487Y-52349500D01*
X63138987Y-52329538D01*
X63108128Y-52305859D01*
X63056644Y-52254375D01*
X63056643Y-52254374D01*
X62917896Y-52172320D01*
X62917893Y-52172318D01*
X62763106Y-52127347D01*
X62763101Y-52127346D01*
X62753235Y-52126569D01*
X62726935Y-52124500D01*
X62726927Y-52124500D01*
X62098077Y-52124500D01*
X62098059Y-52124501D01*
X62061906Y-52127345D01*
X62061902Y-52127346D01*
X61907110Y-52172318D01*
X61907103Y-52172320D01*
X61768358Y-52254373D01*
X61768355Y-52254375D01*
X61654375Y-52368355D01*
X61654373Y-52368358D01*
X61628251Y-52412529D01*
X61573145Y-52466493D01*
X61498440Y-52485674D01*
X61424153Y-52464933D01*
X61371749Y-52412529D01*
X61369785Y-52409209D01*
X61345626Y-52368357D01*
X61231643Y-52254374D01*
X61092896Y-52172320D01*
X61092893Y-52172318D01*
X60938106Y-52127347D01*
X60938101Y-52127346D01*
X60928235Y-52126569D01*
X60901935Y-52124500D01*
X60901927Y-52124500D01*
X60273077Y-52124500D01*
X60273059Y-52124501D01*
X60236906Y-52127345D01*
X60236902Y-52127346D01*
X60082110Y-52172318D01*
X60082103Y-52172320D01*
X59943358Y-52254373D01*
X59943355Y-52254375D01*
X59829375Y-52368355D01*
X59829373Y-52368358D01*
X59747318Y-52507106D01*
X59702347Y-52661893D01*
X59702346Y-52661898D01*
X59702346Y-52661902D01*
X59699500Y-52698065D01*
X59699500Y-52698066D01*
X59699500Y-52698072D01*
X59699500Y-53301922D01*
X59699501Y-53301940D01*
X59702345Y-53338093D01*
X59702345Y-53338096D01*
X59702346Y-53338098D01*
X59747319Y-53492894D01*
X59829374Y-53631643D01*
X59943357Y-53745626D01*
X59963845Y-53757742D01*
X60017809Y-53812844D01*
X60037000Y-53885993D01*
X60037000Y-54290500D01*
X60017038Y-54365000D01*
X59962500Y-54419538D01*
X59888012Y-54439500D01*
X59880989Y-54439500D01*
X59880982Y-54439500D01*
X59880982Y-54439501D01*
X59842835Y-54445542D01*
X59787195Y-54454354D01*
X59787193Y-54454355D01*
X59674157Y-54511950D01*
X59584450Y-54601657D01*
X59526854Y-54714694D01*
X59526854Y-54714696D01*
X59512000Y-54808481D01*
X59512000Y-54808482D01*
X59512000Y-54808485D01*
X59512000Y-56471518D01*
X59522040Y-56534908D01*
X59526854Y-56565304D01*
X59584450Y-56678342D01*
X59674158Y-56768050D01*
X59787196Y-56825646D01*
X59880981Y-56840500D01*
X60071743Y-56840499D01*
X60146240Y-56860461D01*
X60200778Y-56914998D01*
X60220741Y-56989498D01*
X60200779Y-57063998D01*
X60150180Y-57116181D01*
X59985938Y-57217875D01*
X59985937Y-57217876D01*
X59821519Y-57367763D01*
X59687439Y-57545314D01*
X59588270Y-57744471D01*
X59527384Y-57958465D01*
X59527384Y-57958468D01*
X59506857Y-58179995D01*
X59506857Y-58180004D01*
X59527384Y-58401531D01*
X59527384Y-58401534D01*
X59588270Y-58615528D01*
X59687439Y-58814685D01*
X59687441Y-58814688D01*
X59687442Y-58814689D01*
X59821519Y-58992236D01*
X59985938Y-59142124D01*
X60175099Y-59259247D01*
X60175101Y-59259247D01*
X60175103Y-59259249D01*
X60175105Y-59259250D01*
X60308846Y-59311062D01*
X60371104Y-59356589D01*
X60402258Y-59427145D01*
X60393959Y-59503825D01*
X60348432Y-59566083D01*
X60308846Y-59588938D01*
X60175105Y-59640749D01*
X60175103Y-59640750D01*
X59985936Y-59757877D01*
X59821518Y-59907764D01*
X59734813Y-60022580D01*
X59673986Y-60070002D01*
X59597598Y-60080658D01*
X59526116Y-60051691D01*
X59486870Y-60007285D01*
X59473139Y-59983502D01*
X59473138Y-59983500D01*
X59440510Y-59926986D01*
X57287202Y-57773677D01*
X57248640Y-57706885D01*
X57248640Y-57629759D01*
X57285635Y-57491692D01*
X57305468Y-57265000D01*
X57285635Y-57038308D01*
X57226739Y-56818504D01*
X57130568Y-56612266D01*
X57044118Y-56488802D01*
X57000048Y-56425862D01*
X56851835Y-56277649D01*
X56813271Y-56210854D01*
X56813271Y-56133726D01*
X56851835Y-56066931D01*
X56918630Y-56028367D01*
X56933886Y-56025124D01*
X56935938Y-56024798D01*
X57025304Y-56010646D01*
X57138342Y-55953050D01*
X57228050Y-55863342D01*
X57285646Y-55750304D01*
X57300500Y-55656519D01*
X57300499Y-53793482D01*
X57285646Y-53699696D01*
X57228050Y-53586658D01*
X57138342Y-53496950D01*
X57130382Y-53492894D01*
X57025305Y-53439354D01*
X57009673Y-53436878D01*
X56931519Y-53424500D01*
X56931514Y-53424500D01*
X55068481Y-53424500D01*
X54974695Y-53439354D01*
X54974693Y-53439355D01*
X54861657Y-53496950D01*
X54771950Y-53586657D01*
X54714354Y-53699694D01*
X54714354Y-53699696D01*
X54699500Y-53793481D01*
X54699500Y-53793482D01*
X54699500Y-53793485D01*
X54699500Y-54025500D01*
X54679538Y-54100000D01*
X54625000Y-54154538D01*
X54550500Y-54174500D01*
X54014743Y-54174500D01*
X53940243Y-54154538D01*
X53909384Y-54130859D01*
X53838015Y-54059490D01*
X53779142Y-54025500D01*
X53712485Y-53987016D01*
X53572475Y-53949500D01*
X53385995Y-53949500D01*
X53311495Y-53929538D01*
X53257745Y-53876348D01*
X53245628Y-53855861D01*
X53245626Y-53855857D01*
X53131643Y-53741874D01*
X53060323Y-53699696D01*
X52992893Y-53659818D01*
X52838106Y-53614847D01*
X52838101Y-53614846D01*
X52828235Y-53614069D01*
X52801935Y-53612000D01*
X52801927Y-53612000D01*
X52198077Y-53612000D01*
X52198059Y-53612001D01*
X52161906Y-53614845D01*
X52161902Y-53614846D01*
X52007110Y-53659818D01*
X52007103Y-53659820D01*
X51868358Y-53741873D01*
X51868355Y-53741875D01*
X51754375Y-53855855D01*
X51754373Y-53855858D01*
X51672318Y-53994606D01*
X51627347Y-54149393D01*
X51627346Y-54149398D01*
X51627346Y-54149402D01*
X51624500Y-54185565D01*
X51624500Y-54185571D01*
X51624500Y-54185572D01*
X51624500Y-54814422D01*
X51624501Y-54814440D01*
X51627345Y-54850593D01*
X51627345Y-54850596D01*
X51627346Y-54850598D01*
X51672295Y-55005312D01*
X51672320Y-55005396D01*
X51673331Y-55007106D01*
X51749947Y-55136658D01*
X51754373Y-55144141D01*
X51754375Y-55144144D01*
X51854774Y-55244543D01*
X51893338Y-55311338D01*
X51893338Y-55388466D01*
X51854774Y-55455261D01*
X51827638Y-55476717D01*
X51801962Y-55492554D01*
X51680055Y-55614461D01*
X51589546Y-55761197D01*
X51589543Y-55761204D01*
X51535318Y-55924850D01*
X51535317Y-55924851D01*
X51525000Y-56025842D01*
X51525000Y-56075000D01*
X53474999Y-56075000D01*
X53474999Y-56025858D01*
X53464680Y-55924848D01*
X53464679Y-55924845D01*
X53410456Y-55761204D01*
X53410453Y-55761197D01*
X53319944Y-55614461D01*
X53198038Y-55492555D01*
X53172362Y-55476718D01*
X53119434Y-55420617D01*
X53101647Y-55345568D01*
X53123768Y-55271680D01*
X53145221Y-55244547D01*
X53202978Y-55186790D01*
X53269771Y-55148228D01*
X53346899Y-55148228D01*
X53382835Y-55163113D01*
X53386982Y-55165507D01*
X53386985Y-55165510D01*
X53510641Y-55236902D01*
X53512515Y-55237984D01*
X53652525Y-55275500D01*
X53652526Y-55275500D01*
X53797474Y-55275500D01*
X54550501Y-55275500D01*
X54625001Y-55295462D01*
X54679539Y-55350000D01*
X54699501Y-55424500D01*
X54699501Y-55656518D01*
X54714354Y-55750304D01*
X54771950Y-55863342D01*
X54861658Y-55953050D01*
X54974696Y-56010646D01*
X55066116Y-56025125D01*
X55136573Y-56056495D01*
X55181908Y-56118892D01*
X55189971Y-56195598D01*
X55158600Y-56266058D01*
X55148164Y-56277649D01*
X54999951Y-56425862D01*
X54869437Y-56612258D01*
X54869435Y-56612261D01*
X54869434Y-56612263D01*
X54869432Y-56612266D01*
X54773261Y-56818504D01*
X54773260Y-56818507D01*
X54714365Y-57038306D01*
X54694532Y-57265000D01*
X54714365Y-57491693D01*
X54724149Y-57528207D01*
X54773261Y-57711496D01*
X54869432Y-57917734D01*
X54869435Y-57917738D01*
X54869437Y-57917741D01*
X54999951Y-58104137D01*
X55160862Y-58265048D01*
X55213543Y-58301935D01*
X55347266Y-58395568D01*
X55549691Y-58489961D01*
X55608773Y-58539538D01*
X55635152Y-58612015D01*
X55621759Y-58687971D01*
X55572181Y-58747054D01*
X55549694Y-58760037D01*
X55347266Y-58854432D01*
X55347263Y-58854434D01*
X55347261Y-58854435D01*
X55347258Y-58854437D01*
X55160862Y-58984951D01*
X54999951Y-59145862D01*
X54869437Y-59332258D01*
X54869435Y-59332261D01*
X54869434Y-59332263D01*
X54869432Y-59332266D01*
X54782123Y-59519500D01*
X54773260Y-59538507D01*
X54714365Y-59758306D01*
X54694532Y-59985000D01*
X54714365Y-60211693D01*
X54733866Y-60284471D01*
X54773261Y-60431496D01*
X54869432Y-60637734D01*
X54869435Y-60637738D01*
X54869437Y-60637741D01*
X54999951Y-60824137D01*
X55148164Y-60972350D01*
X55186728Y-61039145D01*
X55186728Y-61116273D01*
X55148164Y-61183068D01*
X55081369Y-61221632D01*
X55066115Y-61224874D01*
X54974700Y-61239353D01*
X54974697Y-61239353D01*
X54974696Y-61239354D01*
X54974695Y-61239354D01*
X54974693Y-61239355D01*
X54861657Y-61296950D01*
X54771950Y-61386657D01*
X54714354Y-61499694D01*
X54712807Y-61509461D01*
X54699500Y-61593481D01*
X54699500Y-61593484D01*
X54699500Y-61593485D01*
X54699500Y-63456518D01*
X54712730Y-63540048D01*
X54714354Y-63550304D01*
X54771950Y-63663342D01*
X54861658Y-63753050D01*
X54974696Y-63810646D01*
X55068481Y-63825500D01*
X55562851Y-63825499D01*
X55637350Y-63845461D01*
X55691888Y-63899999D01*
X55711850Y-63974499D01*
X55691888Y-64048999D01*
X55691102Y-64050344D01*
X55672319Y-64082105D01*
X55627347Y-64236893D01*
X55627346Y-64236898D01*
X55627346Y-64236902D01*
X55624500Y-64273065D01*
X55624500Y-64273066D01*
X55624500Y-64273072D01*
X55624500Y-64901922D01*
X55624501Y-64901940D01*
X55627345Y-64938093D01*
X55627345Y-64938096D01*
X55627346Y-64938098D01*
X55671001Y-65088358D01*
X55672320Y-65092896D01*
X55754373Y-65231641D01*
X55754375Y-65231644D01*
X55854774Y-65332043D01*
X55893338Y-65398838D01*
X55893338Y-65475966D01*
X55854774Y-65542761D01*
X55827638Y-65564217D01*
X55801962Y-65580054D01*
X55680055Y-65701961D01*
X55589546Y-65848697D01*
X55585876Y-65856569D01*
X55584576Y-65855962D01*
X55547358Y-65912550D01*
X55478433Y-65947164D01*
X55401436Y-65942679D01*
X55336996Y-65900296D01*
X55321488Y-65879463D01*
X55319945Y-65876962D01*
X55198038Y-65755055D01*
X55051302Y-65664546D01*
X55051295Y-65664543D01*
X54887649Y-65610318D01*
X54887648Y-65610317D01*
X54786657Y-65600000D01*
X54750000Y-65600000D01*
X54750000Y-66337500D01*
X55474999Y-66337500D01*
X55474999Y-66311500D01*
X55494961Y-66237000D01*
X55549499Y-66182462D01*
X55623999Y-66162500D01*
X56601000Y-66162500D01*
X56675500Y-66182462D01*
X56730038Y-66237000D01*
X56750000Y-66311500D01*
X56750000Y-67399999D01*
X56786642Y-67399999D01*
X56887651Y-67389680D01*
X56955131Y-67367320D01*
X57032129Y-67362835D01*
X57101053Y-67397450D01*
X57143436Y-67461889D01*
X57147921Y-67538887D01*
X57113306Y-67607811D01*
X57107358Y-67614116D01*
X55470684Y-69250790D01*
X55403889Y-69289354D01*
X55365618Y-69289354D01*
X55358392Y-69346608D01*
X55325790Y-69395684D01*
X50296859Y-74424616D01*
X50230064Y-74463180D01*
X50152936Y-74463180D01*
X50086141Y-74424616D01*
X50047577Y-74357821D01*
X50042500Y-74319257D01*
X50042500Y-69239499D01*
X50062462Y-69164999D01*
X50117000Y-69110461D01*
X50191496Y-69090499D01*
X51931518Y-69090499D01*
X51931519Y-69090499D01*
X51944341Y-69088468D01*
X52025304Y-69075646D01*
X52138342Y-69018050D01*
X52149751Y-69006641D01*
X52216546Y-68968077D01*
X52255110Y-68963000D01*
X53614005Y-68963000D01*
X53688505Y-68982962D01*
X53742255Y-69036152D01*
X53754371Y-69056638D01*
X53754374Y-69056643D01*
X53868357Y-69170626D01*
X53982119Y-69237904D01*
X54007106Y-69252681D01*
X54161893Y-69297652D01*
X54161898Y-69297653D01*
X54161902Y-69297654D01*
X54198065Y-69300500D01*
X54801934Y-69300499D01*
X54838098Y-69297654D01*
X54992894Y-69252681D01*
X55131643Y-69170626D01*
X55131643Y-69170625D01*
X55139712Y-69165854D01*
X55140793Y-69167682D01*
X55200193Y-69142706D01*
X55221402Y-69145382D01*
X55221402Y-69106867D01*
X55241995Y-69065387D01*
X55240854Y-69064712D01*
X55249925Y-69049374D01*
X55327681Y-68917894D01*
X55366146Y-68785498D01*
X55372652Y-68763106D01*
X55372653Y-68763101D01*
X55372652Y-68763101D01*
X55372654Y-68763098D01*
X55375500Y-68726935D01*
X55375499Y-68098066D01*
X55372654Y-68061902D01*
X55327681Y-67907106D01*
X55245626Y-67768357D01*
X55145224Y-67667955D01*
X55106661Y-67601161D01*
X55106661Y-67524033D01*
X55145225Y-67457238D01*
X55172365Y-67435779D01*
X55198039Y-67419943D01*
X55319944Y-67298038D01*
X55410453Y-67151302D01*
X55414124Y-67143431D01*
X55415427Y-67144038D01*
X55452624Y-67087465D01*
X55521543Y-67052840D01*
X55598541Y-67057313D01*
X55662987Y-67099686D01*
X55678509Y-67120532D01*
X55680054Y-67123037D01*
X55801961Y-67244944D01*
X55948697Y-67335453D01*
X55948704Y-67335456D01*
X56112350Y-67389681D01*
X56112351Y-67389682D01*
X56213347Y-67399999D01*
X56250000Y-67399998D01*
X56250000Y-66662500D01*
X55525001Y-66662500D01*
X55525001Y-66688500D01*
X55505039Y-66763000D01*
X55450501Y-66817538D01*
X55376001Y-66837500D01*
X53525001Y-66837500D01*
X53525001Y-66886641D01*
X53535319Y-66987651D01*
X53535320Y-66987654D01*
X53589543Y-67151295D01*
X53589546Y-67151302D01*
X53680055Y-67298038D01*
X53801960Y-67419943D01*
X53827636Y-67435780D01*
X53880564Y-67491881D01*
X53898352Y-67566930D01*
X53876232Y-67640818D01*
X53854774Y-67667955D01*
X53754378Y-67768351D01*
X53754371Y-67768361D01*
X53742255Y-67788848D01*
X53687149Y-67842811D01*
X53614005Y-67862000D01*
X52449500Y-67862000D01*
X52375000Y-67842038D01*
X52320462Y-67787500D01*
X52300500Y-67713000D01*
X52300499Y-66858481D01*
X52295365Y-66826064D01*
X52285646Y-66764696D01*
X52228050Y-66651658D01*
X52138342Y-66561950D01*
X52110334Y-66547679D01*
X52025305Y-66504354D01*
X51991069Y-66498931D01*
X51933884Y-66489874D01*
X51863425Y-66458504D01*
X51818090Y-66396106D01*
X51811930Y-66337500D01*
X53525000Y-66337500D01*
X54250000Y-66337500D01*
X54250000Y-65599999D01*
X54249999Y-65599999D01*
X54213358Y-65600000D01*
X54112348Y-65610319D01*
X54112345Y-65610320D01*
X53948704Y-65664543D01*
X53948697Y-65664546D01*
X53801961Y-65755055D01*
X53680055Y-65876961D01*
X53589546Y-66023697D01*
X53589543Y-66023704D01*
X53535318Y-66187350D01*
X53535317Y-66187351D01*
X53525000Y-66288342D01*
X53525000Y-66337500D01*
X51811930Y-66337500D01*
X51810028Y-66319400D01*
X51841399Y-66248940D01*
X51851825Y-66237360D01*
X52000047Y-66089139D01*
X52130568Y-65902734D01*
X52226739Y-65696496D01*
X52285635Y-65476692D01*
X52305468Y-65250000D01*
X52285635Y-65023308D01*
X52226739Y-64803504D01*
X52130568Y-64597266D01*
X52000047Y-64410861D01*
X51839139Y-64249953D01*
X51839137Y-64249951D01*
X51652741Y-64119437D01*
X51652734Y-64119432D01*
X51589840Y-64090104D01*
X51461030Y-64030038D01*
X51401948Y-63980463D01*
X51375569Y-63907986D01*
X51388962Y-63832030D01*
X51438539Y-63772946D01*
X51461025Y-63759963D01*
X51652734Y-63670568D01*
X51839139Y-63540047D01*
X52000047Y-63379139D01*
X52130568Y-63192734D01*
X52226739Y-62986496D01*
X52285635Y-62766692D01*
X52305468Y-62540000D01*
X52285635Y-62313308D01*
X52226739Y-62093504D01*
X52130568Y-61887266D01*
X52007625Y-61711683D01*
X52000048Y-61700862D01*
X51851835Y-61552649D01*
X51813271Y-61485854D01*
X51813271Y-61408726D01*
X51851835Y-61341931D01*
X51918630Y-61303367D01*
X51933886Y-61300124D01*
X51935938Y-61299798D01*
X52025304Y-61285646D01*
X52138342Y-61228050D01*
X52228050Y-61138342D01*
X52285646Y-61025304D01*
X52300500Y-60931519D01*
X52300499Y-59068482D01*
X52285646Y-58974696D01*
X52228050Y-58861658D01*
X52138342Y-58771950D01*
X52129285Y-58767335D01*
X52025305Y-58714354D01*
X52009673Y-58711878D01*
X51931519Y-58699500D01*
X51931514Y-58699500D01*
X50799987Y-58699500D01*
X50725487Y-58679538D01*
X50670949Y-58625000D01*
X50650987Y-58550500D01*
X50670949Y-58476000D01*
X50694628Y-58445141D01*
X50718892Y-58420877D01*
X50745626Y-58394143D01*
X50827681Y-58255394D01*
X50858637Y-58148844D01*
X50872652Y-58100606D01*
X50872653Y-58100601D01*
X50872652Y-58100601D01*
X50872654Y-58100598D01*
X50875500Y-58064435D01*
X50875499Y-57435566D01*
X50872654Y-57399402D01*
X50827681Y-57244606D01*
X50745626Y-57105857D01*
X50645224Y-57005455D01*
X50606661Y-56938661D01*
X50606661Y-56861533D01*
X50645225Y-56794738D01*
X50672365Y-56773279D01*
X50698039Y-56757443D01*
X50819944Y-56635538D01*
X50857285Y-56575000D01*
X51525001Y-56575000D01*
X51525001Y-56624141D01*
X51535319Y-56725151D01*
X51535320Y-56725154D01*
X51589543Y-56888795D01*
X51589546Y-56888802D01*
X51680055Y-57035538D01*
X51801961Y-57157444D01*
X51948697Y-57247953D01*
X51948704Y-57247956D01*
X52112350Y-57302181D01*
X52112351Y-57302182D01*
X52213347Y-57312499D01*
X52250000Y-57312498D01*
X52250000Y-56575000D01*
X52750000Y-56575000D01*
X52750000Y-57312499D01*
X52786642Y-57312499D01*
X52887651Y-57302180D01*
X52887654Y-57302179D01*
X53051295Y-57247956D01*
X53051302Y-57247953D01*
X53198038Y-57157444D01*
X53319944Y-57035538D01*
X53410453Y-56888802D01*
X53410456Y-56888795D01*
X53464681Y-56725149D01*
X53464682Y-56725148D01*
X53474999Y-56624157D01*
X53475000Y-56624147D01*
X53475000Y-56575000D01*
X52750000Y-56575000D01*
X52250000Y-56575000D01*
X51525001Y-56575000D01*
X50857285Y-56575000D01*
X50910453Y-56488802D01*
X50910456Y-56488795D01*
X50964681Y-56325149D01*
X50964682Y-56325148D01*
X50974999Y-56224157D01*
X50975000Y-56224147D01*
X50975000Y-56175000D01*
X49025001Y-56175000D01*
X49025001Y-56224141D01*
X49035319Y-56325151D01*
X49035320Y-56325154D01*
X49089543Y-56488795D01*
X49089546Y-56488802D01*
X49180055Y-56635538D01*
X49301960Y-56757443D01*
X49327636Y-56773280D01*
X49380564Y-56829381D01*
X49398352Y-56904430D01*
X49376232Y-56978318D01*
X49354774Y-57005455D01*
X49254378Y-57105851D01*
X49254373Y-57105858D01*
X49172318Y-57244606D01*
X49127347Y-57399393D01*
X49127346Y-57399398D01*
X49126311Y-57412552D01*
X49124500Y-57435565D01*
X49124500Y-57435566D01*
X49124500Y-57435572D01*
X49124500Y-58064422D01*
X49124501Y-58064440D01*
X49127345Y-58100593D01*
X49127345Y-58100596D01*
X49127346Y-58100598D01*
X49172319Y-58255394D01*
X49254374Y-58394143D01*
X49368357Y-58508126D01*
X49376344Y-58512849D01*
X49430309Y-58567952D01*
X49449500Y-58641101D01*
X49449500Y-59072475D01*
X49478895Y-59182180D01*
X49478898Y-59182186D01*
X49487015Y-59212484D01*
X49559490Y-59338015D01*
X49655859Y-59434384D01*
X49694423Y-59501179D01*
X49699500Y-59539743D01*
X49699500Y-60931518D01*
X49707978Y-60985047D01*
X49714354Y-61025304D01*
X49771950Y-61138342D01*
X49861658Y-61228050D01*
X49974696Y-61285646D01*
X50066116Y-61300125D01*
X50136573Y-61331495D01*
X50181908Y-61393892D01*
X50189971Y-61470598D01*
X50158600Y-61541058D01*
X50148164Y-61552649D01*
X49999951Y-61700862D01*
X49869437Y-61887258D01*
X49869435Y-61887261D01*
X49869434Y-61887263D01*
X49869432Y-61887266D01*
X49787008Y-62064024D01*
X49773260Y-62093507D01*
X49714365Y-62313306D01*
X49694532Y-62540000D01*
X49714365Y-62766693D01*
X49714365Y-62766696D01*
X49751358Y-62904757D01*
X49751358Y-62981885D01*
X49712794Y-63048679D01*
X48497490Y-64263984D01*
X48454038Y-64339247D01*
X48454037Y-64339246D01*
X48425017Y-64389511D01*
X48425016Y-64389515D01*
X48387500Y-64529525D01*
X48387500Y-83010475D01*
X48405298Y-83076898D01*
X48425016Y-83150485D01*
X48497490Y-83276015D01*
X51781986Y-86560510D01*
X51872010Y-86612485D01*
X51872011Y-86612486D01*
X51907511Y-86632982D01*
X51907512Y-86632982D01*
X51907515Y-86632984D01*
X52047525Y-86670500D01*
X52047526Y-86670500D01*
X52192475Y-86670500D01*
X59106455Y-86670500D01*
X59180955Y-86690462D01*
X59235493Y-86745000D01*
X59255455Y-86819500D01*
X59235493Y-86894000D01*
X59180955Y-86948537D01*
X59175775Y-86951528D01*
X59161984Y-86959490D01*
X56559490Y-89561984D01*
X56524770Y-89622122D01*
X56487016Y-89687515D01*
X56463232Y-89776275D01*
X56449500Y-89827524D01*
X56449500Y-98487775D01*
X56466307Y-98550500D01*
X56466308Y-98550500D01*
X56487016Y-98627784D01*
X56559490Y-98753313D01*
X58246687Y-100440510D01*
X58372217Y-100512984D01*
X58512227Y-100550500D01*
X62652475Y-100550500D01*
X62792485Y-100512984D01*
X62918015Y-100440510D01*
X63237231Y-100121293D01*
X98149500Y-100121293D01*
X98181160Y-100361781D01*
X98181161Y-100361787D01*
X98181162Y-100361789D01*
X98243946Y-100596100D01*
X98336776Y-100820212D01*
X98458064Y-101030289D01*
X98605735Y-101222738D01*
X98777262Y-101394265D01*
X98969711Y-101541936D01*
X99179788Y-101663224D01*
X99403900Y-101756054D01*
X99638211Y-101818838D01*
X99638217Y-101818838D01*
X99638218Y-101818839D01*
X99703600Y-101827446D01*
X99878712Y-101850500D01*
X100121288Y-101850500D01*
X100361789Y-101818838D01*
X100596100Y-101756054D01*
X100820212Y-101663224D01*
X101030289Y-101541936D01*
X101222738Y-101394265D01*
X101394265Y-101222738D01*
X101541936Y-101030289D01*
X101663224Y-100820212D01*
X101756054Y-100596100D01*
X101818838Y-100361789D01*
X101850500Y-100121288D01*
X101850500Y-99878712D01*
X101818838Y-99638211D01*
X101756054Y-99403900D01*
X101663224Y-99179788D01*
X101541936Y-98969711D01*
X101394265Y-98777262D01*
X101222738Y-98605735D01*
X101030289Y-98458064D01*
X100941889Y-98407026D01*
X100820216Y-98336778D01*
X100820214Y-98336777D01*
X100820212Y-98336776D01*
X100688932Y-98282398D01*
X100596103Y-98243947D01*
X100596101Y-98243946D01*
X100596100Y-98243946D01*
X100361789Y-98181162D01*
X100361787Y-98181161D01*
X100361781Y-98181160D01*
X100121293Y-98149500D01*
X100121288Y-98149500D01*
X99878712Y-98149500D01*
X99878706Y-98149500D01*
X99638218Y-98181160D01*
X99403896Y-98243947D01*
X99179783Y-98336778D01*
X98969712Y-98458063D01*
X98969711Y-98458064D01*
X98777262Y-98605735D01*
X98777260Y-98605736D01*
X98777256Y-98605740D01*
X98605740Y-98777256D01*
X98458063Y-98969712D01*
X98336778Y-99179783D01*
X98243947Y-99403896D01*
X98181160Y-99638218D01*
X98149500Y-99878706D01*
X98149500Y-100121293D01*
X63237231Y-100121293D01*
X64112145Y-99246378D01*
X64178938Y-99207816D01*
X64256066Y-99207816D01*
X64279472Y-99214087D01*
X64362023Y-99236207D01*
X64580000Y-99255277D01*
X64797977Y-99236207D01*
X65009330Y-99179575D01*
X65207639Y-99087102D01*
X65386877Y-98961598D01*
X65541598Y-98806877D01*
X65667102Y-98627639D01*
X65759575Y-98429330D01*
X65816207Y-98217977D01*
X65835277Y-98000000D01*
X65816207Y-97782023D01*
X65759575Y-97570670D01*
X65667102Y-97372362D01*
X65541598Y-97193123D01*
X65386877Y-97038402D01*
X65207639Y-96912898D01*
X65207637Y-96912897D01*
X65202310Y-96909167D01*
X65203416Y-96907586D01*
X65155677Y-96859847D01*
X65135716Y-96785347D01*
X65155679Y-96710847D01*
X65210217Y-96656309D01*
X65221747Y-96650307D01*
X65257586Y-96633595D01*
X65341373Y-96574926D01*
X64709409Y-95942962D01*
X64772993Y-95925925D01*
X64887007Y-95860099D01*
X64980099Y-95767007D01*
X65045925Y-95652993D01*
X65062962Y-95589408D01*
X65694926Y-96221372D01*
X65753595Y-96137586D01*
X65753598Y-96137580D01*
X65853430Y-95923491D01*
X65853431Y-95923489D01*
X65914568Y-95695321D01*
X65935157Y-95460000D01*
X65935157Y-95459999D01*
X65914568Y-95224678D01*
X65853431Y-94996512D01*
X65753597Y-94782418D01*
X65694925Y-94698626D01*
X65062962Y-95330589D01*
X65045925Y-95267007D01*
X64980099Y-95152993D01*
X64887007Y-95059901D01*
X64772993Y-94994075D01*
X64709409Y-94977037D01*
X65341372Y-94345073D01*
X65257578Y-94286399D01*
X65257573Y-94286396D01*
X65043491Y-94186569D01*
X65043489Y-94186568D01*
X64815321Y-94125431D01*
X64815322Y-94125431D01*
X64580001Y-94104843D01*
X64579998Y-94104843D01*
X64542538Y-94108120D01*
X64466582Y-94094726D01*
X64407499Y-94045149D01*
X64381120Y-93972672D01*
X64394514Y-93896716D01*
X64424189Y-93854334D01*
X66108568Y-92169955D01*
X66175361Y-92131393D01*
X66252489Y-92131393D01*
X66319284Y-92169957D01*
X66319672Y-92170385D01*
X66324638Y-92175351D01*
X66324643Y-92175357D01*
X66469375Y-92294136D01*
X66634499Y-92382396D01*
X66813669Y-92436747D01*
X67000000Y-92455099D01*
X67186331Y-92436747D01*
X67365501Y-92382396D01*
X67530625Y-92294136D01*
X67624192Y-92217346D01*
X67664435Y-92184321D01*
X67734688Y-92152490D01*
X67758959Y-92150500D01*
X75564065Y-92150500D01*
X75564069Y-92150500D01*
X75689744Y-92125501D01*
X75808127Y-92076465D01*
X75914669Y-92005277D01*
X78080460Y-89839486D01*
X83707000Y-89839486D01*
X83740798Y-90096212D01*
X83740801Y-90096229D01*
X83807822Y-90346361D01*
X83880194Y-90521079D01*
X83906926Y-90585616D01*
X84036407Y-90809884D01*
X84194053Y-91015333D01*
X84377167Y-91198447D01*
X84582616Y-91356093D01*
X84806884Y-91485574D01*
X84981597Y-91557943D01*
X85046138Y-91584677D01*
X85212892Y-91629357D01*
X85296272Y-91651699D01*
X85553019Y-91685500D01*
X85811981Y-91685500D01*
X86068728Y-91651699D01*
X86200243Y-91616459D01*
X86318861Y-91584677D01*
X86318866Y-91584675D01*
X86558116Y-91485574D01*
X86782384Y-91356093D01*
X86987833Y-91198447D01*
X87170947Y-91015333D01*
X87328593Y-90809884D01*
X87458074Y-90585616D01*
X87557175Y-90346366D01*
X87557175Y-90346365D01*
X87557177Y-90346361D01*
X87599142Y-90189743D01*
X87624199Y-90096228D01*
X87658000Y-89839481D01*
X87658000Y-89580519D01*
X87624199Y-89323772D01*
X87601857Y-89240392D01*
X87557177Y-89073638D01*
X87506031Y-88950162D01*
X87458074Y-88834384D01*
X87328593Y-88610116D01*
X87170947Y-88404667D01*
X86987833Y-88221553D01*
X86782384Y-88063907D01*
X86694183Y-88012984D01*
X86558120Y-87934428D01*
X86558118Y-87934427D01*
X86558116Y-87934426D01*
X86443659Y-87887016D01*
X86318861Y-87835322D01*
X86068729Y-87768301D01*
X86068712Y-87768298D01*
X85811986Y-87734500D01*
X85811981Y-87734500D01*
X85553019Y-87734500D01*
X85553013Y-87734500D01*
X85296287Y-87768298D01*
X85296270Y-87768301D01*
X85046138Y-87835322D01*
X84806879Y-87934428D01*
X84582617Y-88063906D01*
X84377165Y-88221554D01*
X84194054Y-88404665D01*
X84036406Y-88610117D01*
X83906928Y-88834379D01*
X83807822Y-89073638D01*
X83740801Y-89323770D01*
X83740798Y-89323787D01*
X83707000Y-89580513D01*
X83707000Y-89839486D01*
X78080460Y-89839486D01*
X83005277Y-84914669D01*
X83076465Y-84808127D01*
X83125501Y-84689744D01*
X83130688Y-84663664D01*
X83133282Y-84650626D01*
X83133282Y-84650625D01*
X83133283Y-84650618D01*
X83150500Y-84564069D01*
X83150500Y-82713487D01*
X83170462Y-82638987D01*
X83194141Y-82608128D01*
X83202731Y-82599538D01*
X83245626Y-82556643D01*
X83327681Y-82417894D01*
X83352387Y-82332855D01*
X83372652Y-82263106D01*
X83372653Y-82263101D01*
X83372652Y-82263101D01*
X83372654Y-82263098D01*
X83375500Y-82226935D01*
X83375499Y-81968663D01*
X83395461Y-81894163D01*
X83419136Y-81863308D01*
X88005277Y-77277169D01*
X88076465Y-77170627D01*
X88121466Y-77061985D01*
X88125501Y-77052244D01*
X88150500Y-76926569D01*
X88150500Y-76401164D01*
X88170462Y-76326664D01*
X88194141Y-76295805D01*
X88268081Y-76221865D01*
X88351744Y-76080398D01*
X88397598Y-75922569D01*
X88400500Y-75885694D01*
X88400500Y-75254306D01*
X88397598Y-75217431D01*
X88351744Y-75059602D01*
X88268081Y-74918135D01*
X88151865Y-74801919D01*
X88010398Y-74718256D01*
X87908185Y-74688560D01*
X87852571Y-74672402D01*
X87852572Y-74672402D01*
X87841506Y-74671531D01*
X87815694Y-74669500D01*
X87184306Y-74669500D01*
X87164842Y-74671031D01*
X87089008Y-74656976D01*
X87047796Y-74627850D01*
X85234764Y-72814818D01*
X85196200Y-72748023D01*
X85196200Y-72670895D01*
X85224945Y-72614934D01*
X85239677Y-72596983D01*
X85294136Y-72530625D01*
X85382396Y-72365501D01*
X85436747Y-72186331D01*
X85455099Y-72000000D01*
X85436790Y-71814105D01*
X85449353Y-71738007D01*
X85498283Y-71678386D01*
X85570467Y-71651218D01*
X85585072Y-71650500D01*
X86286513Y-71650500D01*
X86361013Y-71670462D01*
X86391872Y-71694141D01*
X86443359Y-71745628D01*
X86481923Y-71812423D01*
X86487000Y-71850987D01*
X86487000Y-72771572D01*
X86511998Y-72897243D01*
X86511999Y-72897245D01*
X86561031Y-73015619D01*
X86561039Y-73015634D01*
X86574388Y-73035612D01*
X86599181Y-73108647D01*
X86599500Y-73118393D01*
X86599500Y-73385694D01*
X86601757Y-73414374D01*
X86602402Y-73422571D01*
X86621017Y-73486641D01*
X86639347Y-73549735D01*
X86648257Y-73580400D01*
X86678559Y-73631638D01*
X86731919Y-73721865D01*
X86848135Y-73838081D01*
X86989602Y-73921744D01*
X87147428Y-73967597D01*
X87147427Y-73967597D01*
X87147431Y-73967598D01*
X87184306Y-73970500D01*
X87184313Y-73970500D01*
X87815687Y-73970500D01*
X87815694Y-73970500D01*
X87852569Y-73967598D01*
X88010398Y-73921744D01*
X88151865Y-73838081D01*
X88268081Y-73721865D01*
X88351744Y-73580398D01*
X88397598Y-73422569D01*
X88400500Y-73385694D01*
X88400500Y-72754306D01*
X88397598Y-72717431D01*
X88351744Y-72559602D01*
X88268081Y-72418135D01*
X88151865Y-72301919D01*
X88086056Y-72263000D01*
X88010397Y-72218255D01*
X87895429Y-72184853D01*
X87829457Y-72144898D01*
X87792301Y-72077310D01*
X87788000Y-72041770D01*
X87788000Y-71865701D01*
X87807962Y-71791201D01*
X87862500Y-71736663D01*
X87937000Y-71716701D01*
X88011500Y-71736663D01*
X88042359Y-71760342D01*
X88101961Y-71819944D01*
X88248697Y-71910453D01*
X88248704Y-71910456D01*
X88412350Y-71964681D01*
X88412351Y-71964682D01*
X88513347Y-71974999D01*
X88612499Y-71974998D01*
X88612500Y-71974998D01*
X88612500Y-71250000D01*
X89112500Y-71250000D01*
X89112500Y-71974999D01*
X89211642Y-71974999D01*
X89312651Y-71964680D01*
X89312654Y-71964679D01*
X89476295Y-71910456D01*
X89476302Y-71910453D01*
X89623038Y-71819944D01*
X89744944Y-71698038D01*
X89835453Y-71551302D01*
X89835456Y-71551295D01*
X89889681Y-71387649D01*
X89889682Y-71387648D01*
X89899999Y-71286657D01*
X89900000Y-71286647D01*
X89900000Y-71250000D01*
X89112500Y-71250000D01*
X88612500Y-71250000D01*
X88612500Y-70899000D01*
X88632462Y-70824500D01*
X88687000Y-70769962D01*
X88761500Y-70750000D01*
X89899999Y-70750000D01*
X89899999Y-70713358D01*
X89889680Y-70612348D01*
X89889679Y-70612345D01*
X89834681Y-70446366D01*
X89830196Y-70369368D01*
X89864812Y-70300444D01*
X89929251Y-70258062D01*
X89976115Y-70250499D01*
X90151518Y-70250499D01*
X90214194Y-70240572D01*
X90260808Y-70240572D01*
X90323481Y-70250500D01*
X90786518Y-70250499D01*
X90880304Y-70235646D01*
X90993342Y-70178050D01*
X91083050Y-70088342D01*
X91140646Y-69975304D01*
X91155500Y-69881519D01*
X91155499Y-69268740D01*
X91175461Y-69194242D01*
X91229999Y-69139704D01*
X91304499Y-69119742D01*
X91378999Y-69139704D01*
X91409858Y-69163383D01*
X92055859Y-69809384D01*
X92094423Y-69876179D01*
X92099500Y-69914743D01*
X92099500Y-71847476D01*
X92100441Y-71850987D01*
X92119880Y-71923535D01*
X92123202Y-71935930D01*
X92137016Y-71987486D01*
X92195940Y-72089546D01*
X92209490Y-72113015D01*
X95399485Y-75303010D01*
X95460456Y-75338211D01*
X95460457Y-75338212D01*
X95525011Y-75375482D01*
X95525015Y-75375484D01*
X95665025Y-75413000D01*
X97084436Y-75413000D01*
X97158936Y-75432962D01*
X97212687Y-75486154D01*
X97254370Y-75556638D01*
X97254373Y-75556642D01*
X97254374Y-75556643D01*
X97368357Y-75670626D01*
X97483066Y-75738464D01*
X97507106Y-75752681D01*
X97661893Y-75797652D01*
X97661898Y-75797653D01*
X97661902Y-75797654D01*
X97698065Y-75800500D01*
X98301934Y-75800499D01*
X98338098Y-75797654D01*
X98492894Y-75752681D01*
X98631643Y-75670626D01*
X98654552Y-75647716D01*
X98721345Y-75609153D01*
X98798473Y-75609151D01*
X98865268Y-75647714D01*
X99580859Y-76363305D01*
X99619423Y-76430100D01*
X99624500Y-76468663D01*
X99624500Y-76726922D01*
X99624501Y-76726940D01*
X99627345Y-76763093D01*
X99627345Y-76763096D01*
X99627346Y-76763098D01*
X99659992Y-76875466D01*
X99672320Y-76917896D01*
X99677446Y-76926564D01*
X99751772Y-77052244D01*
X99754373Y-77056641D01*
X99754375Y-77056644D01*
X99805859Y-77108128D01*
X99844423Y-77174923D01*
X99849500Y-77213487D01*
X99849500Y-78650500D01*
X99829538Y-78725000D01*
X99775000Y-78779538D01*
X99700504Y-78799500D01*
X99668487Y-78799500D01*
X99574695Y-78814354D01*
X99574693Y-78814355D01*
X99461656Y-78871951D01*
X99423959Y-78909648D01*
X99357163Y-78948211D01*
X99280035Y-78948211D01*
X99233138Y-78926341D01*
X99152490Y-78869870D01*
X99152477Y-78869862D01*
X98946325Y-78773733D01*
X98946323Y-78773732D01*
X98726605Y-78714859D01*
X98726606Y-78714859D01*
X98500000Y-78695034D01*
X98273393Y-78714859D01*
X98053676Y-78773732D01*
X98053674Y-78773733D01*
X97847522Y-78869862D01*
X97847517Y-78869865D01*
X97774527Y-78920974D01*
X98453553Y-79600000D01*
X98447339Y-79600000D01*
X98345606Y-79627259D01*
X98254394Y-79679920D01*
X98179920Y-79754394D01*
X98127259Y-79845606D01*
X98100000Y-79947339D01*
X98100000Y-79953553D01*
X97420974Y-79274527D01*
X97369865Y-79347517D01*
X97369862Y-79347522D01*
X97273733Y-79553674D01*
X97273732Y-79553676D01*
X97214859Y-79773393D01*
X97195034Y-80000000D01*
X97214859Y-80226606D01*
X97273732Y-80446323D01*
X97273733Y-80446325D01*
X97369866Y-80652483D01*
X97369872Y-80652492D01*
X97420973Y-80725471D01*
X98100000Y-80046444D01*
X98100000Y-80052661D01*
X98127259Y-80154394D01*
X98179920Y-80245606D01*
X98254394Y-80320080D01*
X98345606Y-80372741D01*
X98447339Y-80400000D01*
X98453551Y-80400000D01*
X97774526Y-81079024D01*
X97774526Y-81079025D01*
X97847509Y-81130129D01*
X97847515Y-81130132D01*
X98053674Y-81226266D01*
X98053676Y-81226267D01*
X98273394Y-81285140D01*
X98273393Y-81285140D01*
X98500000Y-81304965D01*
X98726606Y-81285140D01*
X98946323Y-81226267D01*
X98946325Y-81226266D01*
X99152477Y-81130137D01*
X99152484Y-81130132D01*
X99233138Y-81073658D01*
X99305615Y-81047278D01*
X99381571Y-81060671D01*
X99423958Y-81090350D01*
X99461658Y-81128050D01*
X99574696Y-81185646D01*
X99668481Y-81200500D01*
X101331518Y-81200499D01*
X101425304Y-81185646D01*
X101538342Y-81128050D01*
X101628050Y-81038342D01*
X101685646Y-80925304D01*
X101700500Y-80831519D01*
X101700499Y-79168482D01*
X101685646Y-79074696D01*
X101628050Y-78961658D01*
X101538342Y-78871950D01*
X101534244Y-78869862D01*
X101425305Y-78814354D01*
X101409673Y-78811878D01*
X101331519Y-78799500D01*
X101331514Y-78799500D01*
X101299500Y-78799500D01*
X101225000Y-78779538D01*
X101170462Y-78725000D01*
X101150500Y-78650500D01*
X101150500Y-77213487D01*
X101170462Y-77138987D01*
X101194141Y-77108128D01*
X101211207Y-77091062D01*
X101245626Y-77056643D01*
X101327681Y-76917894D01*
X101372654Y-76763098D01*
X101375500Y-76726935D01*
X101375499Y-75998066D01*
X101372654Y-75961902D01*
X101327681Y-75807106D01*
X101245626Y-75668357D01*
X101182628Y-75605359D01*
X101144064Y-75538564D01*
X101144064Y-75461436D01*
X101182628Y-75394641D01*
X101211410Y-75365859D01*
X101245626Y-75331643D01*
X101327681Y-75192894D01*
X101354293Y-75101295D01*
X101372652Y-75038106D01*
X101372653Y-75038101D01*
X101372652Y-75038101D01*
X101372654Y-75038098D01*
X101375500Y-75001935D01*
X101375499Y-74273066D01*
X101372654Y-74236902D01*
X101351600Y-74164438D01*
X101349985Y-74087328D01*
X101387141Y-74019740D01*
X101453113Y-73979785D01*
X101509834Y-73974640D01*
X101513355Y-73974999D01*
X101612499Y-73974998D01*
X101612500Y-73974998D01*
X101612500Y-73250000D01*
X102112500Y-73250000D01*
X102112500Y-73974999D01*
X102211642Y-73974999D01*
X102312651Y-73964680D01*
X102312654Y-73964679D01*
X102476295Y-73910456D01*
X102476302Y-73910453D01*
X102623038Y-73819944D01*
X102744944Y-73698038D01*
X102835453Y-73551302D01*
X102835456Y-73551295D01*
X102889681Y-73387649D01*
X102889682Y-73387648D01*
X102899999Y-73286657D01*
X102900000Y-73286647D01*
X102900000Y-73250000D01*
X102112500Y-73250000D01*
X101612500Y-73250000D01*
X101612500Y-72131000D01*
X101632462Y-72056500D01*
X101687000Y-72001962D01*
X101761500Y-71982000D01*
X101825000Y-71982000D01*
X101825000Y-71520000D01*
X102325000Y-71520000D01*
X102325000Y-72114000D01*
X102305038Y-72188500D01*
X102250500Y-72243038D01*
X102176000Y-72263000D01*
X102112500Y-72263000D01*
X102112500Y-72750000D01*
X102899999Y-72750000D01*
X102899999Y-72713358D01*
X102889680Y-72612348D01*
X102889679Y-72612345D01*
X102835456Y-72448704D01*
X102835451Y-72448693D01*
X102782079Y-72362164D01*
X102759958Y-72288277D01*
X102777745Y-72213227D01*
X102830674Y-72157127D01*
X102851876Y-72146284D01*
X102948681Y-72106186D01*
X102967717Y-72093467D01*
X103040751Y-72068673D01*
X103116397Y-72083718D01*
X103174387Y-72134571D01*
X103199181Y-72207605D01*
X103199500Y-72217354D01*
X103199500Y-99996094D01*
X103199296Y-100003892D01*
X103182381Y-100326638D01*
X103180751Y-100342149D01*
X103130803Y-100657504D01*
X103127560Y-100672759D01*
X103044927Y-100981152D01*
X103040108Y-100995985D01*
X102925686Y-101294066D01*
X102919342Y-101308314D01*
X102774391Y-101592794D01*
X102766593Y-101606300D01*
X102592705Y-101874066D01*
X102583538Y-101886684D01*
X102382604Y-102134816D01*
X102372168Y-102146406D01*
X102146406Y-102372168D01*
X102134816Y-102382604D01*
X101886684Y-102583538D01*
X101874066Y-102592705D01*
X101606300Y-102766593D01*
X101592794Y-102774391D01*
X101308314Y-102919342D01*
X101294066Y-102925686D01*
X100995985Y-103040108D01*
X100981152Y-103044927D01*
X100672759Y-103127560D01*
X100657504Y-103130803D01*
X100342149Y-103180751D01*
X100326638Y-103182381D01*
X100003893Y-103199296D01*
X99996095Y-103199500D01*
X50003905Y-103199500D01*
X49996107Y-103199296D01*
X49673361Y-103182381D01*
X49657850Y-103180751D01*
X49342495Y-103130803D01*
X49327240Y-103127560D01*
X49018847Y-103044927D01*
X49004014Y-103040108D01*
X48705933Y-102925686D01*
X48691685Y-102919342D01*
X48407205Y-102774391D01*
X48393699Y-102766593D01*
X48125933Y-102592705D01*
X48113315Y-102583538D01*
X47865183Y-102382604D01*
X47853593Y-102372168D01*
X47627831Y-102146406D01*
X47617395Y-102134816D01*
X47416457Y-101886679D01*
X47407294Y-101874066D01*
X47391990Y-101850500D01*
X47314950Y-101731868D01*
X47233406Y-101606300D01*
X47225608Y-101592794D01*
X47080657Y-101308314D01*
X47074313Y-101294066D01*
X46973059Y-101030289D01*
X46959888Y-100995977D01*
X46955074Y-100981161D01*
X46872439Y-100672759D01*
X46869196Y-100657504D01*
X46822359Y-100361789D01*
X46819247Y-100342146D01*
X46817618Y-100326638D01*
X46806857Y-100121293D01*
X48149500Y-100121293D01*
X48181160Y-100361781D01*
X48181161Y-100361787D01*
X48181162Y-100361789D01*
X48243946Y-100596100D01*
X48336776Y-100820212D01*
X48458064Y-101030289D01*
X48605735Y-101222738D01*
X48777262Y-101394265D01*
X48969711Y-101541936D01*
X49179788Y-101663224D01*
X49403900Y-101756054D01*
X49638211Y-101818838D01*
X49638217Y-101818838D01*
X49638218Y-101818839D01*
X49703600Y-101827446D01*
X49878712Y-101850500D01*
X50121288Y-101850500D01*
X50361789Y-101818838D01*
X50596100Y-101756054D01*
X50820212Y-101663224D01*
X51030289Y-101541936D01*
X51222738Y-101394265D01*
X51394265Y-101222738D01*
X51541936Y-101030289D01*
X51663224Y-100820212D01*
X51756054Y-100596100D01*
X51818838Y-100361789D01*
X51850500Y-100121288D01*
X51850500Y-99878712D01*
X51818838Y-99638211D01*
X51756054Y-99403900D01*
X51663224Y-99179788D01*
X51541936Y-98969711D01*
X51394265Y-98777262D01*
X51222738Y-98605735D01*
X51030289Y-98458064D01*
X50941889Y-98407026D01*
X50820216Y-98336778D01*
X50820214Y-98336777D01*
X50820212Y-98336776D01*
X50688932Y-98282398D01*
X50596103Y-98243947D01*
X50596101Y-98243946D01*
X50596100Y-98243946D01*
X50361789Y-98181162D01*
X50361787Y-98181161D01*
X50361781Y-98181160D01*
X50121293Y-98149500D01*
X50121288Y-98149500D01*
X49878712Y-98149500D01*
X49878706Y-98149500D01*
X49638218Y-98181160D01*
X49403896Y-98243947D01*
X49179783Y-98336778D01*
X48969712Y-98458063D01*
X48969711Y-98458064D01*
X48777262Y-98605735D01*
X48777260Y-98605736D01*
X48777256Y-98605740D01*
X48605740Y-98777256D01*
X48458063Y-98969712D01*
X48336778Y-99179783D01*
X48243947Y-99403896D01*
X48181160Y-99638218D01*
X48149500Y-99878706D01*
X48149500Y-100121293D01*
X46806857Y-100121293D01*
X46800704Y-100003892D01*
X46800500Y-99996094D01*
X46800500Y-55675000D01*
X49025000Y-55675000D01*
X49750000Y-55675000D01*
X49750000Y-54937500D01*
X50250000Y-54937500D01*
X50250000Y-55675000D01*
X50974999Y-55675000D01*
X50974999Y-55625858D01*
X50964680Y-55524848D01*
X50964679Y-55524845D01*
X50910456Y-55361204D01*
X50910453Y-55361197D01*
X50819944Y-55214461D01*
X50698038Y-55092555D01*
X50551302Y-55002046D01*
X50551295Y-55002043D01*
X50387649Y-54947818D01*
X50387648Y-54947817D01*
X50286657Y-54937500D01*
X50250000Y-54937500D01*
X49750000Y-54937500D01*
X49750000Y-54937499D01*
X49749999Y-54937499D01*
X49713358Y-54937500D01*
X49612348Y-54947819D01*
X49612345Y-54947820D01*
X49448704Y-55002043D01*
X49448697Y-55002046D01*
X49301961Y-55092555D01*
X49180055Y-55214461D01*
X49089546Y-55361197D01*
X49089543Y-55361204D01*
X49035318Y-55524850D01*
X49035317Y-55524851D01*
X49025000Y-55625842D01*
X49025000Y-55675000D01*
X46800500Y-55675000D01*
X46800500Y-50121293D01*
X48149500Y-50121293D01*
X48181160Y-50361781D01*
X48181161Y-50361787D01*
X48181162Y-50361789D01*
X48243946Y-50596100D01*
X48322958Y-50786853D01*
X48336778Y-50820216D01*
X48417634Y-50960263D01*
X48458064Y-51030289D01*
X48605735Y-51222738D01*
X48777262Y-51394265D01*
X48969711Y-51541936D01*
X49179788Y-51663224D01*
X49403900Y-51756054D01*
X49638211Y-51818838D01*
X49638217Y-51818838D01*
X49638218Y-51818839D01*
X49703600Y-51827446D01*
X49878712Y-51850500D01*
X50121288Y-51850500D01*
X50361789Y-51818838D01*
X50596100Y-51756054D01*
X50820212Y-51663224D01*
X51030289Y-51541936D01*
X51222738Y-51394265D01*
X51394265Y-51222738D01*
X51541936Y-51030289D01*
X51663224Y-50820212D01*
X51756054Y-50596100D01*
X51818838Y-50361789D01*
X51850500Y-50121288D01*
X51850500Y-49878712D01*
X51822439Y-49665561D01*
X51818839Y-49638218D01*
X51818838Y-49638217D01*
X51818838Y-49638211D01*
X51756054Y-49403900D01*
X51663224Y-49179788D01*
X51541936Y-48969711D01*
X51394265Y-48777262D01*
X51222738Y-48605735D01*
X51030289Y-48458064D01*
X50918806Y-48393699D01*
X50820216Y-48336778D01*
X50820214Y-48336777D01*
X50820212Y-48336776D01*
X50688932Y-48282398D01*
X50596103Y-48243947D01*
X50596101Y-48243946D01*
X50596100Y-48243946D01*
X50361789Y-48181162D01*
X50361787Y-48181161D01*
X50361781Y-48181160D01*
X50121293Y-48149500D01*
X50121288Y-48149500D01*
X49878712Y-48149500D01*
X49878706Y-48149500D01*
X49638218Y-48181160D01*
X49403896Y-48243947D01*
X49179783Y-48336778D01*
X48969712Y-48458063D01*
X48969711Y-48458064D01*
X48777262Y-48605735D01*
X48777260Y-48605736D01*
X48777256Y-48605740D01*
X48605740Y-48777256D01*
X48458063Y-48969712D01*
X48336778Y-49179783D01*
X48243947Y-49403896D01*
X48181160Y-49638218D01*
X48149500Y-49878706D01*
X48149500Y-50121293D01*
X46800500Y-50121293D01*
X46800500Y-50003905D01*
X46800704Y-49996107D01*
X46801242Y-49985847D01*
X46817618Y-49673356D01*
X46819248Y-49657850D01*
X46822358Y-49638218D01*
X46869196Y-49342492D01*
X46872439Y-49327240D01*
X46955076Y-49018833D01*
X46959886Y-49004027D01*
X47074318Y-48705920D01*
X47080651Y-48691697D01*
X47225610Y-48407201D01*
X47233406Y-48393699D01*
X47270372Y-48336776D01*
X47407304Y-48125918D01*
X47416450Y-48113328D01*
X47617403Y-47865173D01*
X47627821Y-47853603D01*
X47853603Y-47627821D01*
X47865173Y-47617403D01*
X48113328Y-47416450D01*
X48125918Y-47407304D01*
X48393702Y-47233403D01*
X48407205Y-47225608D01*
X48691697Y-47080651D01*
X48705920Y-47074318D01*
X49004027Y-46959886D01*
X49018833Y-46955076D01*
X49327243Y-46872438D01*
X49342492Y-46869196D01*
X49657855Y-46819247D01*
X49673356Y-46817618D01*
X49996107Y-46800703D01*
X50003905Y-46800500D01*
X50047595Y-46800500D01*
X99952405Y-46800500D01*
X99996095Y-46800500D01*
X100003892Y-46800703D01*
G37*
%TD.AperFunction*%
%TA.AperFunction,Conductor*%
G36*
X64114075Y-95652993D02*
G01*
X64179901Y-95767007D01*
X64272993Y-95860099D01*
X64387007Y-95925925D01*
X64450590Y-95942962D01*
X63818625Y-96574926D01*
X63902417Y-96633596D01*
X63938253Y-96650307D01*
X63997337Y-96699884D01*
X64023717Y-96772360D01*
X64010325Y-96848317D01*
X63960748Y-96907401D01*
X63954808Y-96911185D01*
X63773120Y-97038404D01*
X63618404Y-97193120D01*
X63618402Y-97193123D01*
X63492898Y-97372362D01*
X63445038Y-97474997D01*
X63395462Y-97534078D01*
X63322986Y-97560457D01*
X63247029Y-97547064D01*
X63187946Y-97497486D01*
X63174964Y-97475002D01*
X63127102Y-97372362D01*
X63001598Y-97193123D01*
X62846877Y-97038402D01*
X62757258Y-96975650D01*
X62667638Y-96912897D01*
X62667633Y-96912895D01*
X62565007Y-96865040D01*
X62505924Y-96815463D01*
X62479544Y-96742987D01*
X62492937Y-96667030D01*
X62542514Y-96607947D01*
X62565007Y-96594960D01*
X62667639Y-96547102D01*
X62846877Y-96421598D01*
X63001598Y-96266877D01*
X63127102Y-96087639D01*
X63127102Y-96087637D01*
X63130833Y-96082310D01*
X63132415Y-96083418D01*
X63180139Y-96035686D01*
X63254637Y-96015717D01*
X63329139Y-96035672D01*
X63383682Y-96090205D01*
X63389691Y-96101747D01*
X63406396Y-96137573D01*
X63406399Y-96137578D01*
X63465073Y-96221372D01*
X64097037Y-95589408D01*
X64114075Y-95652993D01*
G37*
%TD.AperFunction*%
%TA.AperFunction,Conductor*%
G36*
X62392757Y-72770462D02*
G01*
X62423616Y-72794141D01*
X66820116Y-77190641D01*
X66858680Y-77257436D01*
X66858680Y-77334564D01*
X66820116Y-77401359D01*
X61959489Y-82261985D01*
X61915595Y-82338014D01*
X61915594Y-82338016D01*
X61887017Y-82387511D01*
X61849500Y-82527523D01*
X61849500Y-82654587D01*
X61829538Y-82729087D01*
X61775000Y-82783625D01*
X61700500Y-82803587D01*
X61626000Y-82783625D01*
X61600119Y-82764699D01*
X61439063Y-82617877D01*
X61439062Y-82617876D01*
X61249901Y-82500753D01*
X61249900Y-82500752D01*
X61249896Y-82500750D01*
X61249894Y-82500749D01*
X61116153Y-82448938D01*
X61053895Y-82403412D01*
X61022741Y-82332855D01*
X61031040Y-82256175D01*
X61076566Y-82193917D01*
X61116153Y-82171062D01*
X61249894Y-82119250D01*
X61249896Y-82119249D01*
X61249896Y-82119248D01*
X61249901Y-82119247D01*
X61439062Y-82002124D01*
X61603481Y-81852236D01*
X61737558Y-81674689D01*
X61836729Y-81475528D01*
X61897615Y-81261536D01*
X61909984Y-81128049D01*
X61918143Y-81040004D01*
X61918143Y-81039995D01*
X61899454Y-80838309D01*
X61897615Y-80818464D01*
X61850389Y-80652483D01*
X61836729Y-80604471D01*
X61737560Y-80405314D01*
X61673194Y-80320080D01*
X61603481Y-80227764D01*
X61558848Y-80187076D01*
X61439063Y-80077877D01*
X61439062Y-80077876D01*
X61249901Y-79960753D01*
X61249900Y-79960752D01*
X61249896Y-79960750D01*
X61249894Y-79960749D01*
X61116153Y-79908938D01*
X61053895Y-79863412D01*
X61022741Y-79792855D01*
X61031040Y-79716175D01*
X61076566Y-79653917D01*
X61116153Y-79631062D01*
X61249894Y-79579250D01*
X61249896Y-79579249D01*
X61249896Y-79579248D01*
X61249901Y-79579247D01*
X61439062Y-79462124D01*
X61603481Y-79312236D01*
X61737558Y-79134689D01*
X61836729Y-78935528D01*
X61897615Y-78721536D01*
X61918143Y-78500000D01*
X61897615Y-78278464D01*
X61836729Y-78064472D01*
X61836729Y-78064471D01*
X61737560Y-77865314D01*
X61703612Y-77820360D01*
X61603481Y-77687764D01*
X61439062Y-77537876D01*
X61249901Y-77420753D01*
X61249900Y-77420752D01*
X61249896Y-77420750D01*
X61249894Y-77420749D01*
X61116153Y-77368938D01*
X61053895Y-77323412D01*
X61022741Y-77252855D01*
X61031040Y-77176175D01*
X61076566Y-77113917D01*
X61116153Y-77091062D01*
X61249894Y-77039250D01*
X61249896Y-77039249D01*
X61249896Y-77039248D01*
X61249901Y-77039247D01*
X61439062Y-76922124D01*
X61603481Y-76772236D01*
X61737558Y-76594689D01*
X61836729Y-76395528D01*
X61897615Y-76181536D01*
X61913334Y-76011898D01*
X61918143Y-75960004D01*
X61918143Y-75959995D01*
X61905262Y-75820986D01*
X61897615Y-75738464D01*
X61864733Y-75622896D01*
X61836729Y-75524471D01*
X61737560Y-75325314D01*
X61723352Y-75306500D01*
X61603481Y-75147764D01*
X61439062Y-74997876D01*
X61249901Y-74880753D01*
X61249900Y-74880752D01*
X61249896Y-74880750D01*
X61243732Y-74877681D01*
X61244445Y-74876247D01*
X61189142Y-74835799D01*
X61157995Y-74765240D01*
X61166301Y-74688560D01*
X61211833Y-74626306D01*
X61242265Y-74607358D01*
X61364973Y-74550139D01*
X61364982Y-74550134D01*
X61551317Y-74419660D01*
X61712160Y-74258817D01*
X61842634Y-74072482D01*
X61842637Y-74072477D01*
X61938766Y-73866325D01*
X61938767Y-73866323D01*
X61991372Y-73670000D01*
X61028186Y-73670000D01*
X61032580Y-73665606D01*
X61085241Y-73574394D01*
X61112500Y-73472661D01*
X61112500Y-73367339D01*
X61085241Y-73265606D01*
X61032580Y-73174394D01*
X61028186Y-73170000D01*
X61991372Y-73170000D01*
X61991372Y-73169999D01*
X61938767Y-72973676D01*
X61938766Y-72973674D01*
X61933541Y-72962468D01*
X61920149Y-72886511D01*
X61946530Y-72814035D01*
X62005614Y-72764459D01*
X62068582Y-72750500D01*
X62318257Y-72750500D01*
X62392757Y-72770462D01*
G37*
%TD.AperFunction*%
%TA.AperFunction,Conductor*%
G36*
X83743336Y-73170462D02*
G01*
X83774195Y-73194141D01*
X86618854Y-76038800D01*
X86642170Y-76073107D01*
X86643485Y-76072330D01*
X86648255Y-76080396D01*
X86648256Y-76080398D01*
X86708069Y-76181536D01*
X86731918Y-76221863D01*
X86731920Y-76221866D01*
X86805859Y-76295805D01*
X86844423Y-76362600D01*
X86849500Y-76401164D01*
X86849500Y-76531335D01*
X86829538Y-76605835D01*
X86805859Y-76636694D01*
X83707802Y-79734749D01*
X83641007Y-79773313D01*
X83563879Y-79773313D01*
X83497084Y-79734749D01*
X83461006Y-79676257D01*
X83410456Y-79523704D01*
X83410453Y-79523697D01*
X83319944Y-79376961D01*
X83198038Y-79255055D01*
X83051302Y-79164546D01*
X83051295Y-79164543D01*
X82887649Y-79110318D01*
X82887648Y-79110317D01*
X82786657Y-79100000D01*
X82750000Y-79100000D01*
X82750000Y-80238500D01*
X82730038Y-80313000D01*
X82675500Y-80367538D01*
X82601000Y-80387500D01*
X82399000Y-80387500D01*
X82324500Y-80367538D01*
X82269962Y-80313000D01*
X82250000Y-80238500D01*
X82250000Y-79099999D01*
X82249999Y-79099999D01*
X82213358Y-79100000D01*
X82112348Y-79110319D01*
X82112345Y-79110320D01*
X81948704Y-79164543D01*
X81948697Y-79164546D01*
X81801961Y-79255055D01*
X81680055Y-79376961D01*
X81589546Y-79523697D01*
X81589543Y-79523704D01*
X81535318Y-79687350D01*
X81535317Y-79687351D01*
X81525000Y-79788342D01*
X81525000Y-79810127D01*
X81505038Y-79884627D01*
X81450500Y-79939165D01*
X81376000Y-79959127D01*
X81334431Y-79953211D01*
X81264522Y-79932901D01*
X81264520Y-79932900D01*
X81227660Y-79930000D01*
X80762026Y-79930000D01*
X80762026Y-80831000D01*
X80742064Y-80905500D01*
X80687526Y-80960038D01*
X80613026Y-80980000D01*
X79214730Y-80980000D01*
X79214925Y-80982488D01*
X79260745Y-81140199D01*
X79261230Y-81141320D01*
X79261394Y-81142435D01*
X79263360Y-81149200D01*
X79262433Y-81149469D01*
X79272500Y-81217620D01*
X79244110Y-81289333D01*
X79183667Y-81337243D01*
X79124487Y-81349500D01*
X77085072Y-81349500D01*
X77010572Y-81329538D01*
X76956034Y-81275000D01*
X76936072Y-81200500D01*
X76936790Y-81185895D01*
X76946200Y-81090353D01*
X76955099Y-81000000D01*
X76936747Y-80813669D01*
X76882396Y-80634499D01*
X76799815Y-80479999D01*
X79214729Y-80479999D01*
X79214730Y-80480000D01*
X80262026Y-80480000D01*
X80262026Y-79930000D01*
X79796391Y-79930000D01*
X79759532Y-79932900D01*
X79601829Y-79978718D01*
X79601828Y-79978718D01*
X79460471Y-80062316D01*
X79460468Y-80062318D01*
X79344344Y-80178442D01*
X79344342Y-80178445D01*
X79260744Y-80319802D01*
X79260744Y-80319803D01*
X79214925Y-80477511D01*
X79214729Y-80479999D01*
X76799815Y-80479999D01*
X76794136Y-80469375D01*
X76675357Y-80324643D01*
X76530625Y-80205864D01*
X76495480Y-80187079D01*
X76365505Y-80117606D01*
X76365503Y-80117605D01*
X76365501Y-80117604D01*
X76293093Y-80095639D01*
X76186333Y-80063253D01*
X76000000Y-80044901D01*
X75813666Y-80063253D01*
X75634499Y-80117604D01*
X75634494Y-80117606D01*
X75551615Y-80161906D01*
X75481377Y-80179500D01*
X74395061Y-80179500D01*
X74320561Y-80159538D01*
X74305030Y-80149224D01*
X74234368Y-80095639D01*
X74234367Y-80095638D01*
X74093589Y-80040122D01*
X74005131Y-80029500D01*
X74005128Y-80029500D01*
X72618924Y-80029500D01*
X72618920Y-80029500D01*
X72530462Y-80040122D01*
X72389684Y-80095638D01*
X72389684Y-80095639D01*
X72269105Y-80187076D01*
X72269102Y-80187079D01*
X72177665Y-80307658D01*
X72177664Y-80307658D01*
X72122148Y-80448436D01*
X72111526Y-80536894D01*
X72111526Y-80923105D01*
X72122148Y-81011563D01*
X72177664Y-81152341D01*
X72178534Y-81153887D01*
X72179013Y-81155760D01*
X72181404Y-81161823D01*
X72180640Y-81162123D01*
X72197647Y-81228609D01*
X72176839Y-81302877D01*
X72121684Y-81356791D01*
X72046962Y-81375904D01*
X71972694Y-81355096D01*
X71943298Y-81332273D01*
X70415884Y-79804859D01*
X70377320Y-79738064D01*
X70377320Y-79660936D01*
X70415884Y-79594141D01*
X70482679Y-79555577D01*
X70521243Y-79550500D01*
X78943449Y-79550500D01*
X79083459Y-79512984D01*
X79104526Y-79500821D01*
X79208989Y-79440510D01*
X80619870Y-78029627D01*
X80686665Y-77991064D01*
X80725229Y-77985987D01*
X81525174Y-77985987D01*
X81665184Y-77948471D01*
X81790714Y-77875997D01*
X83440510Y-76226201D01*
X83512984Y-76100671D01*
X83531257Y-76032475D01*
X83550500Y-75960661D01*
X83550500Y-74177526D01*
X83512984Y-74037516D01*
X83498829Y-74012999D01*
X83440510Y-73911986D01*
X82933383Y-73404859D01*
X82894819Y-73338064D01*
X82894819Y-73260936D01*
X82933383Y-73194141D01*
X83000178Y-73155577D01*
X83038742Y-73150500D01*
X83668836Y-73150500D01*
X83743336Y-73170462D01*
G37*
%TD.AperFunction*%
%TA.AperFunction,Conductor*%
G36*
X51748359Y-74740882D02*
G01*
X51786923Y-74807677D01*
X51792000Y-74846241D01*
X51792000Y-75431922D01*
X51792001Y-75431940D01*
X51794845Y-75468093D01*
X51794845Y-75468096D01*
X51794846Y-75468098D01*
X51838397Y-75618000D01*
X51839820Y-75622896D01*
X51921874Y-75761643D01*
X51926979Y-75768224D01*
X51956869Y-75839325D01*
X51947204Y-75915845D01*
X51914608Y-75964908D01*
X51847555Y-76031961D01*
X51757046Y-76178697D01*
X51757043Y-76178704D01*
X51702818Y-76342350D01*
X51702817Y-76342351D01*
X51692500Y-76443342D01*
X51692500Y-76542500D01*
X53642499Y-76542500D01*
X53642499Y-76443358D01*
X53632180Y-76342348D01*
X53632179Y-76342345D01*
X53577956Y-76178704D01*
X53577953Y-76178697D01*
X53487444Y-76031961D01*
X53420392Y-75964909D01*
X53381828Y-75898114D01*
X53381828Y-75820986D01*
X53408024Y-75768219D01*
X53413118Y-75761650D01*
X53413126Y-75761643D01*
X53454813Y-75691154D01*
X53509919Y-75637190D01*
X53583064Y-75618000D01*
X55450800Y-75618000D01*
X55525300Y-75637962D01*
X55569704Y-75677207D01*
X55633468Y-75761643D01*
X55646128Y-75778407D01*
X55777440Y-75898114D01*
X55803697Y-75922051D01*
X55803698Y-75922052D01*
X55984977Y-76034296D01*
X55984983Y-76034299D01*
X55996602Y-76038800D01*
X56183802Y-76111321D01*
X56393390Y-76150500D01*
X56393393Y-76150500D01*
X56606607Y-76150500D01*
X56606610Y-76150500D01*
X56816198Y-76111321D01*
X57015019Y-76034298D01*
X57063364Y-76004364D01*
X57137213Y-75982117D01*
X57212293Y-75999775D01*
X57247162Y-76025687D01*
X57621985Y-76400510D01*
X57738186Y-76467598D01*
X57747515Y-76472984D01*
X57887525Y-76510500D01*
X57887526Y-76510500D01*
X58032474Y-76510500D01*
X59553264Y-76510500D01*
X59627764Y-76530462D01*
X59682302Y-76585000D01*
X59686643Y-76593085D01*
X59687440Y-76594687D01*
X59787309Y-76726935D01*
X59821519Y-76772236D01*
X59985938Y-76922124D01*
X60175099Y-77039247D01*
X60175101Y-77039247D01*
X60175103Y-77039249D01*
X60175105Y-77039250D01*
X60308846Y-77091062D01*
X60371104Y-77136589D01*
X60402258Y-77207145D01*
X60393959Y-77283825D01*
X60348432Y-77346083D01*
X60308846Y-77368938D01*
X60175105Y-77420749D01*
X60175103Y-77420750D01*
X59985936Y-77537877D01*
X59821519Y-77687763D01*
X59687440Y-77865312D01*
X59686643Y-77866915D01*
X59685992Y-77867650D01*
X59683815Y-77871168D01*
X59683213Y-77870795D01*
X59635566Y-77924707D01*
X59562437Y-77949217D01*
X59553264Y-77949500D01*
X57807521Y-77949500D01*
X57671357Y-77985985D01*
X57671358Y-77985986D01*
X57667514Y-77987016D01*
X57541984Y-78059490D01*
X56885716Y-78715757D01*
X56818921Y-78754321D01*
X56752978Y-78756861D01*
X56606614Y-78729500D01*
X56606610Y-78729500D01*
X56393390Y-78729500D01*
X56393385Y-78729500D01*
X56183802Y-78768679D01*
X56183795Y-78768681D01*
X55984983Y-78845700D01*
X55984977Y-78845703D01*
X55803698Y-78957947D01*
X55803697Y-78957948D01*
X55646127Y-79101593D01*
X55517636Y-79271740D01*
X55422594Y-79462612D01*
X55422593Y-79462614D01*
X55364243Y-79667694D01*
X55363404Y-79676749D01*
X55336653Y-79749089D01*
X55277315Y-79798362D01*
X55215040Y-79812000D01*
X53583064Y-79812000D01*
X53508564Y-79792038D01*
X53454813Y-79738846D01*
X53413126Y-79668356D01*
X53408018Y-79661771D01*
X53378129Y-79590669D01*
X53387796Y-79514149D01*
X53420394Y-79465088D01*
X53487443Y-79398040D01*
X53577953Y-79251302D01*
X53577956Y-79251295D01*
X53632181Y-79087649D01*
X53632182Y-79087648D01*
X53642499Y-78986657D01*
X53642500Y-78986647D01*
X53642500Y-78887500D01*
X51692501Y-78887500D01*
X51692501Y-78986641D01*
X51702819Y-79087651D01*
X51702820Y-79087654D01*
X51757043Y-79251295D01*
X51757046Y-79251302D01*
X51847555Y-79398038D01*
X51914607Y-79465090D01*
X51953171Y-79531885D01*
X51953171Y-79609013D01*
X51926986Y-79661766D01*
X51921876Y-79668353D01*
X51839818Y-79807106D01*
X51794847Y-79961893D01*
X51794846Y-79961898D01*
X51794846Y-79961902D01*
X51792000Y-79998065D01*
X51792000Y-79998071D01*
X51792000Y-79998072D01*
X51792000Y-80653757D01*
X51772038Y-80728257D01*
X51717500Y-80782795D01*
X51643000Y-80802757D01*
X51568500Y-80782795D01*
X51537641Y-80759116D01*
X50640141Y-79861616D01*
X50601577Y-79794821D01*
X50596500Y-79756257D01*
X50596500Y-78387500D01*
X51692500Y-78387500D01*
X52417500Y-78387500D01*
X52417500Y-77042500D01*
X52917500Y-77042500D01*
X52917500Y-78387500D01*
X53642499Y-78387500D01*
X53642499Y-78288358D01*
X53632180Y-78187348D01*
X53632179Y-78187345D01*
X53577956Y-78023704D01*
X53577953Y-78023697D01*
X53487444Y-77876961D01*
X53430842Y-77820360D01*
X53392277Y-77753565D01*
X53392277Y-77676437D01*
X53430840Y-77609642D01*
X53487444Y-77553038D01*
X53577953Y-77406302D01*
X53577956Y-77406295D01*
X53632181Y-77242649D01*
X53632182Y-77242648D01*
X53642499Y-77141657D01*
X53642500Y-77141647D01*
X53642500Y-77042500D01*
X52917500Y-77042500D01*
X52417500Y-77042500D01*
X51692501Y-77042500D01*
X51692501Y-77141641D01*
X51702819Y-77242651D01*
X51702820Y-77242654D01*
X51757043Y-77406295D01*
X51757046Y-77406302D01*
X51847555Y-77553038D01*
X51904158Y-77609641D01*
X51942722Y-77676436D01*
X51942722Y-77753564D01*
X51904158Y-77820359D01*
X51847555Y-77876961D01*
X51757046Y-78023697D01*
X51757043Y-78023704D01*
X51702818Y-78187350D01*
X51702817Y-78187351D01*
X51692500Y-78288342D01*
X51692500Y-78387500D01*
X50596500Y-78387500D01*
X50596500Y-75743742D01*
X50616462Y-75669242D01*
X50640141Y-75638383D01*
X51087604Y-75190920D01*
X51537643Y-74740880D01*
X51604436Y-74702318D01*
X51681564Y-74702318D01*
X51748359Y-74740882D01*
G37*
%TD.AperFunction*%
%TA.AperFunction,Conductor*%
G36*
X76918336Y-69345462D02*
G01*
X76949194Y-69369140D01*
X79085331Y-71505277D01*
X79191874Y-71576466D01*
X79261217Y-71605187D01*
X79261221Y-71605190D01*
X79261221Y-71605189D01*
X79310256Y-71625501D01*
X79310255Y-71625501D01*
X79341133Y-71631643D01*
X79435931Y-71650500D01*
X79435932Y-71650500D01*
X79564069Y-71650500D01*
X80021812Y-71650500D01*
X80096312Y-71670462D01*
X80150850Y-71725000D01*
X80170812Y-71799500D01*
X80150850Y-71874000D01*
X80104591Y-71923390D01*
X80104375Y-71923533D01*
X80104373Y-71923535D01*
X80042796Y-71964679D01*
X79997831Y-71994723D01*
X79997829Y-71994724D01*
X79186695Y-72805859D01*
X79119900Y-72844423D01*
X79081336Y-72849500D01*
X78806894Y-72849500D01*
X78718436Y-72860122D01*
X78577659Y-72915638D01*
X78577658Y-72915639D01*
X78572931Y-72919224D01*
X78501507Y-72948334D01*
X78482899Y-72949500D01*
X78449499Y-72949500D01*
X78374999Y-72929538D01*
X78320461Y-72875000D01*
X78300499Y-72800500D01*
X78300499Y-72698077D01*
X78300499Y-72698066D01*
X78297654Y-72661902D01*
X78252681Y-72507106D01*
X78170626Y-72368357D01*
X78056643Y-72254374D01*
X77995570Y-72218256D01*
X77917893Y-72172318D01*
X77763106Y-72127347D01*
X77763101Y-72127346D01*
X77753235Y-72126569D01*
X77726935Y-72124500D01*
X77726927Y-72124500D01*
X76998077Y-72124500D01*
X76998059Y-72124501D01*
X76961906Y-72127345D01*
X76961902Y-72127346D01*
X76807110Y-72172318D01*
X76807103Y-72172320D01*
X76668353Y-72254376D01*
X76661766Y-72259486D01*
X76590663Y-72289370D01*
X76514144Y-72279700D01*
X76465090Y-72247107D01*
X76398038Y-72180055D01*
X76251302Y-72089546D01*
X76251295Y-72089543D01*
X76087649Y-72035318D01*
X76087648Y-72035317D01*
X75986657Y-72025000D01*
X75887500Y-72025000D01*
X75887500Y-73974999D01*
X75986642Y-73974999D01*
X76087651Y-73964680D01*
X76087654Y-73964679D01*
X76251295Y-73910456D01*
X76251301Y-73910453D01*
X76354354Y-73846889D01*
X76428242Y-73824768D01*
X76503291Y-73842555D01*
X76559392Y-73895483D01*
X76581513Y-73969371D01*
X76574014Y-74020571D01*
X76535317Y-74137354D01*
X76525000Y-74238342D01*
X76525000Y-74287500D01*
X78161496Y-74287500D01*
X78217654Y-74255077D01*
X78256218Y-74250000D01*
X78794090Y-74250000D01*
X78802991Y-74250266D01*
X78806895Y-74250499D01*
X78806898Y-74250500D01*
X78806901Y-74250500D01*
X79463500Y-74250500D01*
X79538000Y-74270462D01*
X79592538Y-74325000D01*
X79612500Y-74399500D01*
X79612500Y-74600500D01*
X79592538Y-74675000D01*
X79538000Y-74729538D01*
X79463500Y-74749500D01*
X78806898Y-74749500D01*
X78806895Y-74749500D01*
X78802991Y-74749734D01*
X78794090Y-74750000D01*
X78513504Y-74750000D01*
X78457346Y-74782423D01*
X78418782Y-74787500D01*
X76525001Y-74787500D01*
X76525001Y-74836641D01*
X76535319Y-74937651D01*
X76535320Y-74937654D01*
X76589543Y-75101295D01*
X76589546Y-75101302D01*
X76680055Y-75248038D01*
X76801960Y-75369943D01*
X76827636Y-75385780D01*
X76880564Y-75441881D01*
X76898352Y-75516930D01*
X76876232Y-75590818D01*
X76854774Y-75617955D01*
X76754378Y-75718351D01*
X76754373Y-75718358D01*
X76672318Y-75857106D01*
X76627347Y-76011893D01*
X76627346Y-76011898D01*
X76627346Y-76011902D01*
X76624500Y-76048065D01*
X76624500Y-76048071D01*
X76624500Y-76048072D01*
X76624500Y-76676922D01*
X76624501Y-76676935D01*
X76625436Y-76688814D01*
X76611378Y-76764650D01*
X76561286Y-76823297D01*
X76488581Y-76849041D01*
X76476895Y-76849500D01*
X74747350Y-76849500D01*
X74672850Y-76829538D01*
X74641991Y-76805859D01*
X71086132Y-73250000D01*
X74600001Y-73250000D01*
X74600001Y-73286641D01*
X74610319Y-73387651D01*
X74610320Y-73387654D01*
X74664543Y-73551295D01*
X74664546Y-73551302D01*
X74755055Y-73698038D01*
X74876961Y-73819944D01*
X75023697Y-73910453D01*
X75023704Y-73910456D01*
X75187350Y-73964681D01*
X75187351Y-73964682D01*
X75288347Y-73974999D01*
X75387499Y-73974998D01*
X75387500Y-73974998D01*
X75387500Y-73250000D01*
X74600001Y-73250000D01*
X71086132Y-73250000D01*
X70586132Y-72750000D01*
X74600000Y-72750000D01*
X75387500Y-72750000D01*
X75387500Y-72025000D01*
X75387499Y-72024999D01*
X75288358Y-72025000D01*
X75187348Y-72035319D01*
X75187345Y-72035320D01*
X75023704Y-72089543D01*
X75023697Y-72089546D01*
X74876961Y-72180055D01*
X74755055Y-72301961D01*
X74664546Y-72448697D01*
X74664543Y-72448704D01*
X74610318Y-72612350D01*
X74610317Y-72612351D01*
X74600000Y-72713342D01*
X74600000Y-72750000D01*
X70586132Y-72750000D01*
X69506507Y-71670375D01*
X69467943Y-71603580D01*
X69467943Y-71526452D01*
X69476826Y-71502046D01*
X69544229Y-71357500D01*
X69593806Y-71298416D01*
X69666283Y-71272037D01*
X69742239Y-71285430D01*
X69784628Y-71315111D01*
X69801961Y-71332444D01*
X69948697Y-71422953D01*
X69948704Y-71422956D01*
X70112350Y-71477181D01*
X70112351Y-71477182D01*
X70213347Y-71487499D01*
X70250000Y-71487498D01*
X70250000Y-70750000D01*
X70750000Y-70750000D01*
X70750000Y-71487499D01*
X70786642Y-71487499D01*
X70887651Y-71477180D01*
X70887654Y-71477179D01*
X71051295Y-71422956D01*
X71051302Y-71422953D01*
X71198038Y-71332444D01*
X71319944Y-71210538D01*
X71410453Y-71063802D01*
X71410456Y-71063795D01*
X71464681Y-70900149D01*
X71464682Y-70900148D01*
X71474999Y-70799157D01*
X71475000Y-70799147D01*
X71475000Y-70750000D01*
X70750000Y-70750000D01*
X70250000Y-70750000D01*
X70250000Y-70399000D01*
X70269962Y-70324500D01*
X70324500Y-70269962D01*
X70399000Y-70250000D01*
X71474999Y-70250000D01*
X71474999Y-70200858D01*
X71464680Y-70099848D01*
X71464679Y-70099845D01*
X71410456Y-69936204D01*
X71410453Y-69936197D01*
X71319944Y-69789461D01*
X71198038Y-69667555D01*
X71172362Y-69651718D01*
X71119434Y-69595617D01*
X71101647Y-69520568D01*
X71123768Y-69446680D01*
X71145222Y-69419546D01*
X71195629Y-69369140D01*
X71262424Y-69330577D01*
X71300987Y-69325500D01*
X76843836Y-69325500D01*
X76918336Y-69345462D01*
G37*
%TD.AperFunction*%
%TA.AperFunction,Conductor*%
G36*
X58405859Y-68083383D02*
G01*
X58444423Y-68150178D01*
X58449500Y-68188742D01*
X58449500Y-71072475D01*
X58482136Y-71194275D01*
X58482138Y-71194279D01*
X58487015Y-71212483D01*
X58559490Y-71338015D01*
X59661422Y-72439947D01*
X59699986Y-72506742D01*
X59699986Y-72583870D01*
X59678117Y-72630768D01*
X59582369Y-72767511D01*
X59582362Y-72767522D01*
X59486233Y-72973674D01*
X59486232Y-72973676D01*
X59433627Y-73169999D01*
X59433628Y-73170000D01*
X60396814Y-73170000D01*
X60392420Y-73174394D01*
X60339759Y-73265606D01*
X60312500Y-73367339D01*
X60312500Y-73472661D01*
X60339759Y-73574394D01*
X60392420Y-73665606D01*
X60396814Y-73670000D01*
X59433628Y-73670000D01*
X59486232Y-73866323D01*
X59486233Y-73866325D01*
X59582362Y-74072477D01*
X59582365Y-74072482D01*
X59712839Y-74258817D01*
X59873682Y-74419660D01*
X60060017Y-74550134D01*
X60060022Y-74550136D01*
X60182735Y-74607358D01*
X60241818Y-74656935D01*
X60268198Y-74729411D01*
X60254805Y-74805368D01*
X60205228Y-74864451D01*
X60181095Y-74877333D01*
X60181268Y-74877681D01*
X60175103Y-74880750D01*
X59985936Y-74997877D01*
X59821519Y-75147763D01*
X59687440Y-75325312D01*
X59686643Y-75326915D01*
X59685992Y-75327650D01*
X59683815Y-75331168D01*
X59683213Y-75330795D01*
X59635566Y-75384707D01*
X59562437Y-75409217D01*
X59553264Y-75409500D01*
X58249743Y-75409500D01*
X58175243Y-75389538D01*
X58144384Y-75365859D01*
X57680899Y-74902374D01*
X57642335Y-74835579D01*
X57637893Y-74810760D01*
X57635756Y-74787690D01*
X57577405Y-74582611D01*
X57482366Y-74391745D01*
X57482364Y-74391743D01*
X57482363Y-74391740D01*
X57353872Y-74221593D01*
X57196302Y-74077948D01*
X57196301Y-74077947D01*
X57015022Y-73965703D01*
X57015016Y-73965700D01*
X56816204Y-73888681D01*
X56816200Y-73888680D01*
X56816198Y-73888679D01*
X56774280Y-73880843D01*
X56606614Y-73849500D01*
X56606610Y-73849500D01*
X56393390Y-73849500D01*
X56393385Y-73849500D01*
X56183802Y-73888679D01*
X56183795Y-73888681D01*
X55984983Y-73965700D01*
X55984977Y-73965703D01*
X55803698Y-74077947D01*
X55803697Y-74077948D01*
X55646127Y-74221593D01*
X55517636Y-74391740D01*
X55506446Y-74414213D01*
X55501267Y-74424616D01*
X55496388Y-74434414D01*
X55445311Y-74492206D01*
X55372182Y-74516717D01*
X55363008Y-74517000D01*
X53583064Y-74517000D01*
X53508564Y-74497038D01*
X53454813Y-74443846D01*
X53413129Y-74373361D01*
X53413124Y-74373355D01*
X53299144Y-74259375D01*
X53299143Y-74259374D01*
X53172302Y-74184361D01*
X53160393Y-74177318D01*
X53005606Y-74132347D01*
X53005601Y-74132346D01*
X52995735Y-74131569D01*
X52969435Y-74129500D01*
X52969427Y-74129500D01*
X52508741Y-74129500D01*
X52434241Y-74109538D01*
X52379703Y-74055000D01*
X52359741Y-73980500D01*
X52379703Y-73906000D01*
X52403378Y-73875145D01*
X58195141Y-68083383D01*
X58261936Y-68044819D01*
X58339064Y-68044819D01*
X58405859Y-68083383D01*
G37*
%TD.AperFunction*%
%TA.AperFunction,Conductor*%
G36*
X93663346Y-68445066D02*
G01*
X93715751Y-68497471D01*
X93741871Y-68541639D01*
X93741873Y-68541642D01*
X93741874Y-68541643D01*
X93855857Y-68655626D01*
X93956267Y-68715007D01*
X93994609Y-68737683D01*
X94003204Y-68741402D01*
X94002347Y-68743380D01*
X94057365Y-68776697D01*
X94094525Y-68844283D01*
X94092914Y-68921395D01*
X94052963Y-68987369D01*
X94025676Y-69008082D01*
X93955861Y-69049371D01*
X93955855Y-69049375D01*
X93841875Y-69163355D01*
X93841873Y-69163358D01*
X93759818Y-69302106D01*
X93714847Y-69456893D01*
X93714846Y-69456898D01*
X93713811Y-69470052D01*
X93712000Y-69493065D01*
X93712000Y-69493071D01*
X93712000Y-69493072D01*
X93712000Y-70121922D01*
X93712001Y-70121940D01*
X93714845Y-70158093D01*
X93714845Y-70158096D01*
X93714846Y-70158098D01*
X93759414Y-70311501D01*
X93759820Y-70312896D01*
X93790930Y-70365500D01*
X93831248Y-70433676D01*
X93841873Y-70451641D01*
X93841875Y-70451644D01*
X93942274Y-70552043D01*
X93980838Y-70618838D01*
X93980838Y-70695966D01*
X93942274Y-70762761D01*
X93915138Y-70784217D01*
X93889462Y-70800054D01*
X93767555Y-70921961D01*
X93677046Y-71068697D01*
X93677043Y-71068704D01*
X93622818Y-71232350D01*
X93622817Y-71232351D01*
X93612500Y-71333342D01*
X93612500Y-71382500D01*
X95562499Y-71382500D01*
X95562499Y-71333358D01*
X95552180Y-71232348D01*
X95552179Y-71232345D01*
X95497956Y-71068704D01*
X95497953Y-71068697D01*
X95407444Y-70921961D01*
X95285538Y-70800055D01*
X95259862Y-70784218D01*
X95206934Y-70728117D01*
X95189147Y-70653068D01*
X95211268Y-70579180D01*
X95232726Y-70552043D01*
X95333121Y-70451648D01*
X95333126Y-70451643D01*
X95415181Y-70312894D01*
X95447731Y-70200858D01*
X95460152Y-70158106D01*
X95460153Y-70158101D01*
X95460152Y-70158101D01*
X95460154Y-70158098D01*
X95463000Y-70121935D01*
X95462999Y-69772241D01*
X95482961Y-69697742D01*
X95506636Y-69666887D01*
X96090141Y-69083383D01*
X96156936Y-69044819D01*
X96234064Y-69044819D01*
X96300859Y-69083383D01*
X96339423Y-69150178D01*
X96344500Y-69188742D01*
X96344500Y-69493107D01*
X96349541Y-69535085D01*
X96338603Y-69611433D01*
X96329855Y-69628695D01*
X96293719Y-69689798D01*
X96293717Y-69689802D01*
X96247899Y-69847510D01*
X96247703Y-69849999D01*
X96247704Y-69850000D01*
X96461305Y-69850000D01*
X96535805Y-69869962D01*
X96551336Y-69880276D01*
X96622654Y-69934358D01*
X96622658Y-69934361D01*
X96763436Y-69989877D01*
X96851898Y-70000500D01*
X96851899Y-70000500D01*
X97421000Y-70000500D01*
X97495500Y-70020462D01*
X97550038Y-70075000D01*
X97570000Y-70149500D01*
X97570000Y-70201000D01*
X97550038Y-70275500D01*
X97495500Y-70330038D01*
X97421000Y-70350000D01*
X96247704Y-70350000D01*
X96247899Y-70352488D01*
X96293718Y-70510196D01*
X96293718Y-70510197D01*
X96377316Y-70651554D01*
X96377318Y-70651557D01*
X96392299Y-70666538D01*
X96430863Y-70733333D01*
X96430863Y-70810461D01*
X96424599Y-70828915D01*
X96383429Y-70928311D01*
X96383428Y-70928315D01*
X96375136Y-70969999D01*
X96375137Y-70970000D01*
X97178012Y-70970000D01*
X97160795Y-70979940D01*
X97104940Y-71035795D01*
X97065444Y-71104204D01*
X97045000Y-71180504D01*
X97045000Y-71259496D01*
X97065444Y-71335796D01*
X97104940Y-71404205D01*
X97160795Y-71460060D01*
X97178012Y-71470000D01*
X96375137Y-71470000D01*
X96383428Y-71511684D01*
X96383429Y-71511688D01*
X96458810Y-71693677D01*
X96568252Y-71857466D01*
X96707533Y-71996747D01*
X96871322Y-72106189D01*
X97053311Y-72181570D01*
X97063218Y-72183541D01*
X97132394Y-72217651D01*
X97175246Y-72281780D01*
X97180293Y-72358742D01*
X97160972Y-72407900D01*
X97089545Y-72523700D01*
X97089543Y-72523704D01*
X97035318Y-72687350D01*
X97035317Y-72687351D01*
X97025000Y-72788342D01*
X97025000Y-72887500D01*
X97750000Y-72887500D01*
X97750000Y-72263000D01*
X97733895Y-72246895D01*
X97719500Y-72243038D01*
X97664962Y-72188500D01*
X97645000Y-72114000D01*
X97645000Y-71520000D01*
X98145000Y-71520000D01*
X98145000Y-72057000D01*
X98161104Y-72073104D01*
X98175500Y-72076962D01*
X98230038Y-72131500D01*
X98250000Y-72206000D01*
X98250000Y-73238500D01*
X98230038Y-73313000D01*
X98175500Y-73367538D01*
X98101000Y-73387500D01*
X97025001Y-73387500D01*
X97025001Y-73486641D01*
X97035319Y-73587651D01*
X97035320Y-73587654D01*
X97089543Y-73751295D01*
X97089546Y-73751302D01*
X97180055Y-73898038D01*
X97247107Y-73965090D01*
X97285671Y-74031885D01*
X97285671Y-74109013D01*
X97259486Y-74161766D01*
X97254376Y-74168353D01*
X97244909Y-74184361D01*
X97212986Y-74238342D01*
X97212687Y-74238847D01*
X97157581Y-74292811D01*
X97084436Y-74312000D01*
X96027243Y-74312000D01*
X95952743Y-74292038D01*
X95921884Y-74268359D01*
X94381141Y-72727616D01*
X94342577Y-72660821D01*
X94337500Y-72622257D01*
X94337500Y-71882500D01*
X94837500Y-71882500D01*
X94837500Y-72619999D01*
X94874142Y-72619999D01*
X94975151Y-72609680D01*
X94975154Y-72609679D01*
X95138795Y-72555456D01*
X95138802Y-72555453D01*
X95285538Y-72464944D01*
X95407444Y-72343038D01*
X95497953Y-72196302D01*
X95497956Y-72196295D01*
X95552181Y-72032649D01*
X95552182Y-72032648D01*
X95562499Y-71931657D01*
X95562500Y-71931647D01*
X95562500Y-71882500D01*
X94837500Y-71882500D01*
X94337500Y-71882500D01*
X93597743Y-71882500D01*
X93523243Y-71862538D01*
X93492384Y-71838859D01*
X93244141Y-71590616D01*
X93205577Y-71523821D01*
X93200500Y-71485257D01*
X93200500Y-69552525D01*
X93162984Y-69412515D01*
X93155316Y-69399234D01*
X93139869Y-69372478D01*
X93139868Y-69372477D01*
X93139867Y-69372475D01*
X93090510Y-69286985D01*
X92843383Y-69039858D01*
X92804819Y-68973063D01*
X92804819Y-68895935D01*
X92843383Y-68829140D01*
X92910178Y-68790576D01*
X92948742Y-68785499D01*
X92989422Y-68785499D01*
X92989434Y-68785499D01*
X93025598Y-68782654D01*
X93180394Y-68737681D01*
X93319143Y-68655626D01*
X93433126Y-68541643D01*
X93459249Y-68497471D01*
X93514354Y-68443507D01*
X93589059Y-68424325D01*
X93663346Y-68445066D01*
G37*
%TD.AperFunction*%
%TA.AperFunction,Conductor*%
G36*
X67150665Y-62626462D02*
G01*
X67205203Y-62681000D01*
X67225165Y-62755500D01*
X67210478Y-62817939D01*
X67210759Y-62818048D01*
X67209980Y-62820058D01*
X67209542Y-62821918D01*
X67208785Y-62823438D01*
X67208268Y-62824477D01*
X67147384Y-63038465D01*
X67147384Y-63038468D01*
X67126857Y-63259995D01*
X67126857Y-63260004D01*
X67147384Y-63481531D01*
X67147384Y-63481534D01*
X67208270Y-63695528D01*
X67307439Y-63894685D01*
X67307441Y-63894688D01*
X67307442Y-63894689D01*
X67441519Y-64072236D01*
X67605938Y-64222124D01*
X67795099Y-64339247D01*
X67795101Y-64339247D01*
X67795103Y-64339249D01*
X67795105Y-64339250D01*
X67928846Y-64391062D01*
X67991104Y-64436589D01*
X68022258Y-64507145D01*
X68013959Y-64583825D01*
X67968432Y-64646083D01*
X67928846Y-64668938D01*
X67795105Y-64720749D01*
X67795103Y-64720750D01*
X67605936Y-64837877D01*
X67441519Y-64987763D01*
X67307439Y-65165314D01*
X67208270Y-65364471D01*
X67147384Y-65578465D01*
X67147384Y-65578468D01*
X67126857Y-65799995D01*
X67126857Y-65800004D01*
X67147384Y-66021531D01*
X67147384Y-66021534D01*
X67208270Y-66235528D01*
X67307439Y-66434685D01*
X67307441Y-66434688D01*
X67307442Y-66434689D01*
X67441519Y-66612236D01*
X67605938Y-66762124D01*
X67795099Y-66879247D01*
X67795101Y-66879247D01*
X67795103Y-66879249D01*
X67795105Y-66879250D01*
X67928846Y-66931062D01*
X67991104Y-66976589D01*
X68022258Y-67047145D01*
X68013959Y-67123825D01*
X67968432Y-67186083D01*
X67928846Y-67208938D01*
X67795105Y-67260749D01*
X67795103Y-67260750D01*
X67605936Y-67377877D01*
X67441519Y-67527763D01*
X67307439Y-67705314D01*
X67208270Y-67904471D01*
X67147384Y-68118465D01*
X67147384Y-68118468D01*
X67126857Y-68339995D01*
X67126857Y-68340004D01*
X67147384Y-68561531D01*
X67147384Y-68561534D01*
X67208270Y-68775528D01*
X67307439Y-68974685D01*
X67307441Y-68974688D01*
X67307442Y-68974689D01*
X67441519Y-69152236D01*
X67605938Y-69302124D01*
X67795099Y-69419247D01*
X67795101Y-69419247D01*
X67795103Y-69419249D01*
X67801268Y-69422319D01*
X67800552Y-69423754D01*
X67855847Y-69464188D01*
X67887001Y-69534744D01*
X67878704Y-69611424D01*
X67833178Y-69673683D01*
X67802735Y-69692641D01*
X67680023Y-69749862D01*
X67680017Y-69749865D01*
X67493682Y-69880339D01*
X67332839Y-70041182D01*
X67202365Y-70227517D01*
X67202362Y-70227522D01*
X67106233Y-70433674D01*
X67106232Y-70433676D01*
X67053627Y-70629999D01*
X67053628Y-70630000D01*
X68016814Y-70630000D01*
X68012420Y-70634394D01*
X67959759Y-70725606D01*
X67932500Y-70827339D01*
X67932500Y-70932661D01*
X67959759Y-71034394D01*
X68012420Y-71125606D01*
X68016814Y-71130000D01*
X67051923Y-71130000D01*
X66994874Y-71173773D01*
X66918406Y-71183839D01*
X66847149Y-71154322D01*
X66832498Y-71141473D01*
X61918540Y-66227515D01*
X61879976Y-66160720D01*
X61879976Y-66083592D01*
X61880551Y-66081508D01*
X61897615Y-66021536D01*
X61901188Y-65982975D01*
X61918143Y-65800004D01*
X61918143Y-65799995D01*
X61906560Y-65675000D01*
X61897615Y-65578464D01*
X61846507Y-65398838D01*
X61836729Y-65364471D01*
X61787654Y-65265915D01*
X61772316Y-65190328D01*
X61796826Y-65117198D01*
X61854618Y-65066121D01*
X61921033Y-65050500D01*
X62082475Y-65050500D01*
X62222485Y-65012984D01*
X62243181Y-65001035D01*
X62348015Y-64940510D01*
X63289427Y-63999096D01*
X63356220Y-63960534D01*
X63409386Y-63956174D01*
X63500000Y-63965099D01*
X63686331Y-63946747D01*
X63865501Y-63892396D01*
X64030625Y-63804136D01*
X64175357Y-63685357D01*
X64294136Y-63540625D01*
X64382396Y-63375501D01*
X64436747Y-63196331D01*
X64455099Y-63010000D01*
X64436747Y-62823669D01*
X64433181Y-62811915D01*
X64429189Y-62798752D01*
X64426665Y-62721665D01*
X64463024Y-62653644D01*
X64528521Y-62612916D01*
X64571773Y-62606500D01*
X67076165Y-62606500D01*
X67150665Y-62626462D01*
G37*
%TD.AperFunction*%
%TA.AperFunction,Conductor*%
G36*
X88120359Y-64886751D02*
G01*
X88171359Y-64937751D01*
X88209923Y-65004546D01*
X88215000Y-65043110D01*
X88215000Y-65150000D01*
X88258105Y-65193105D01*
X88296669Y-65259900D01*
X88296669Y-65337028D01*
X88295330Y-65341716D01*
X88250754Y-65488664D01*
X88250753Y-65488666D01*
X88250753Y-65488669D01*
X88232401Y-65675000D01*
X88245785Y-65810896D01*
X88233222Y-65886993D01*
X88184292Y-65946614D01*
X88112108Y-65973783D01*
X88097503Y-65974500D01*
X86989743Y-65974500D01*
X86915243Y-65954538D01*
X86884384Y-65930859D01*
X86704141Y-65750616D01*
X86665577Y-65683821D01*
X86660500Y-65645257D01*
X86660500Y-65199499D01*
X86680462Y-65124999D01*
X86735000Y-65070461D01*
X86809500Y-65050499D01*
X86976514Y-65050499D01*
X86976518Y-65050499D01*
X87039194Y-65040572D01*
X87085808Y-65040572D01*
X87148481Y-65050500D01*
X87466074Y-65050499D01*
X87540573Y-65070461D01*
X87555365Y-65080218D01*
X87572909Y-65093351D01*
X87572914Y-65093354D01*
X87707623Y-65143598D01*
X87707621Y-65143598D01*
X87767157Y-65149998D01*
X87767177Y-65150000D01*
X87815000Y-65150000D01*
X87815000Y-65043110D01*
X87834962Y-64968610D01*
X87858641Y-64937751D01*
X87909641Y-64886751D01*
X87976436Y-64848187D01*
X88053564Y-64848187D01*
X88120359Y-64886751D01*
G37*
%TD.AperFunction*%
%TA.AperFunction,Conductor*%
G36*
X73593577Y-56070462D02*
G01*
X73648115Y-56125000D01*
X73662160Y-56157928D01*
X73672319Y-56192894D01*
X73754374Y-56331643D01*
X73759479Y-56338224D01*
X73789369Y-56409325D01*
X73779704Y-56485845D01*
X73747108Y-56534908D01*
X73680055Y-56601961D01*
X73589546Y-56748697D01*
X73589543Y-56748704D01*
X73535318Y-56912350D01*
X73535317Y-56912351D01*
X73525000Y-57013342D01*
X73525000Y-57112500D01*
X75475247Y-57112500D01*
X75541452Y-57074275D01*
X75618580Y-57074275D01*
X75685376Y-57112838D01*
X75723941Y-57179632D01*
X75728164Y-57202267D01*
X75731402Y-57232378D01*
X75781645Y-57367084D01*
X75781650Y-57367094D01*
X75867809Y-57482187D01*
X75867812Y-57482190D01*
X75982905Y-57568349D01*
X75982915Y-57568354D01*
X76117623Y-57618598D01*
X76117621Y-57618598D01*
X76177157Y-57624998D01*
X76177177Y-57625000D01*
X76822823Y-57625000D01*
X76822842Y-57624998D01*
X76882377Y-57618598D01*
X77017083Y-57568355D01*
X77017091Y-57568350D01*
X77064105Y-57533156D01*
X77135708Y-57504489D01*
X77169120Y-57505128D01*
X77169167Y-57504541D01*
X77174997Y-57505000D01*
X77235756Y-57505000D01*
X77310256Y-57524962D01*
X77364794Y-57579500D01*
X77384756Y-57654000D01*
X77364794Y-57728500D01*
X77341115Y-57759359D01*
X76815616Y-58284859D01*
X76748821Y-58323423D01*
X76710257Y-58328500D01*
X75460183Y-58328500D01*
X75385683Y-58308538D01*
X75331145Y-58254000D01*
X75311183Y-58179500D01*
X75331145Y-58105000D01*
X75333367Y-58101279D01*
X75410451Y-57976306D01*
X75410456Y-57976295D01*
X75464681Y-57812649D01*
X75464682Y-57812648D01*
X75474999Y-57711657D01*
X75475000Y-57711647D01*
X75475000Y-57612500D01*
X73525000Y-57612500D01*
X73515864Y-57621636D01*
X73449069Y-57660199D01*
X73371941Y-57660199D01*
X73305146Y-57621634D01*
X73267423Y-57557847D01*
X73252681Y-57507106D01*
X73170626Y-57368357D01*
X73056643Y-57254374D01*
X72930260Y-57179632D01*
X72917893Y-57172318D01*
X72763106Y-57127347D01*
X72763101Y-57127346D01*
X72753235Y-57126569D01*
X72726935Y-57124500D01*
X72726927Y-57124500D01*
X72377243Y-57124500D01*
X72302743Y-57104538D01*
X72271884Y-57080859D01*
X72046383Y-56855358D01*
X72007819Y-56788563D01*
X72007819Y-56711435D01*
X72046380Y-56644644D01*
X72271884Y-56419139D01*
X72338679Y-56380576D01*
X72377243Y-56375499D01*
X72726922Y-56375499D01*
X72726934Y-56375499D01*
X72763098Y-56372654D01*
X72917894Y-56327681D01*
X73056643Y-56245626D01*
X73170626Y-56131643D01*
X73174555Y-56125000D01*
X73175353Y-56123651D01*
X73230459Y-56069688D01*
X73303602Y-56050500D01*
X73519077Y-56050500D01*
X73593577Y-56070462D01*
G37*
%TD.AperFunction*%
%TD*%
M02*
