%TF.GenerationSoftware,KiCad,Pcbnew,7.0.10*%
%TF.CreationDate,2024-01-09T16:20:09+01:00*%
%TF.ProjectId,mold_detect,6d6f6c64-5f64-4657-9465-63742e6b6963,rev?*%
%TF.SameCoordinates,Original*%
%TF.FileFunction,Drillmap*%
%TF.FilePolarity,Positive*%
%FSLAX45Y45*%
G04 Gerber Fmt 4.5, Leading zero omitted, Abs format (unit mm)*
G04 Created by KiCad (PCBNEW 7.0.10) date 2024-01-09 16:20:09*
%MOMM*%
%LPD*%
G01*
G04 APERTURE LIST*
%ADD10C,0.100000*%
%ADD11C,0.200000*%
%ADD12C,0.102000*%
G04 APERTURE END LIST*
D10*
X7850000Y-8300000D02*
X7850000Y-14400000D01*
X11200000Y-14750000D02*
G75*
G03*
X11550000Y-14400000I0J350000D01*
G01*
X8200000Y-14750000D02*
X11200000Y-14750000D01*
X7850000Y-14400000D02*
G75*
G03*
X8200000Y-14750000I350000J0D01*
G01*
X8200000Y-7950000D02*
X11200000Y-7950000D01*
X8200000Y-7950000D02*
G75*
G03*
X7850000Y-8300000I0J-350000D01*
G01*
X11550000Y-8300000D02*
X11550000Y-14400000D01*
X11550000Y-8300000D02*
G75*
G03*
X11200000Y-7950000I-350000J0D01*
G01*
D11*
D10*
X8835000Y-8260000D02*
X8885000Y-8310000D01*
X8885000Y-8260000D02*
X8835000Y-8310000D01*
X9030000Y-14530000D02*
X9080000Y-14580000D01*
X9080000Y-14530000D02*
X9030000Y-14580000D01*
X10155000Y-14195000D02*
X10205000Y-14245000D01*
X10205000Y-14195000D02*
X10155000Y-14245000D01*
X10845000Y-8715000D02*
X10895000Y-8765000D01*
X10895000Y-8715000D02*
X10845000Y-8765000D01*
X10858500Y-12915000D02*
X10908500Y-12965000D01*
X10908500Y-12915000D02*
X10858500Y-12965000D01*
X10642500Y-9391711D02*
G75*
G03*
X10562500Y-9391711I-40000J0D01*
G01*
X10562500Y-9391711D02*
G75*
G03*
X10642500Y-9391711I40000J0D01*
G01*
X10642500Y-9645711D02*
G75*
G03*
X10562500Y-9645711I-40000J0D01*
G01*
X10562500Y-9645711D02*
G75*
G03*
X10642500Y-9645711I40000J0D01*
G01*
X10642500Y-9899711D02*
G75*
G03*
X10562500Y-9899711I-40000J0D01*
G01*
X10562500Y-9899711D02*
G75*
G03*
X10642500Y-9899711I40000J0D01*
G01*
X10642500Y-10153711D02*
G75*
G03*
X10562500Y-10153711I-40000J0D01*
G01*
X10562500Y-10153711D02*
G75*
G03*
X10642500Y-10153711I40000J0D01*
G01*
X10642500Y-10407711D02*
G75*
G03*
X10562500Y-10407711I-40000J0D01*
G01*
X10562500Y-10407711D02*
G75*
G03*
X10642500Y-10407711I40000J0D01*
G01*
X10642500Y-10661711D02*
G75*
G03*
X10562500Y-10661711I-40000J0D01*
G01*
X10562500Y-10661711D02*
G75*
G03*
X10642500Y-10661711I40000J0D01*
G01*
X10642500Y-10915711D02*
G75*
G03*
X10562500Y-10915711I-40000J0D01*
G01*
X10562500Y-10915711D02*
G75*
G03*
X10642500Y-10915711I40000J0D01*
G01*
X10642500Y-11169711D02*
G75*
G03*
X10562500Y-11169711I-40000J0D01*
G01*
X10562500Y-11169711D02*
G75*
G03*
X10642500Y-11169711I40000J0D01*
G01*
X10642500Y-11423711D02*
G75*
G03*
X10562500Y-11423711I-40000J0D01*
G01*
X10562500Y-11423711D02*
G75*
G03*
X10642500Y-11423711I40000J0D01*
G01*
X10642500Y-11677711D02*
G75*
G03*
X10562500Y-11677711I-40000J0D01*
G01*
X10562500Y-11677711D02*
G75*
G03*
X10642500Y-11677711I40000J0D01*
G01*
X10642500Y-11931711D02*
G75*
G03*
X10562500Y-11931711I-40000J0D01*
G01*
X10562500Y-11931711D02*
G75*
G03*
X10642500Y-11931711I40000J0D01*
G01*
X10642500Y-12185711D02*
G75*
G03*
X10562500Y-12185711I-40000J0D01*
G01*
X10562500Y-12185711D02*
G75*
G03*
X10642500Y-12185711I40000J0D01*
G01*
X10642500Y-12439711D02*
G75*
G03*
X10562500Y-12439711I-40000J0D01*
G01*
X10562500Y-12439711D02*
G75*
G03*
X10642500Y-12439711I40000J0D01*
G01*
X10642500Y-12693711D02*
G75*
G03*
X10562500Y-12693711I-40000J0D01*
G01*
X10562500Y-12693711D02*
G75*
G03*
X10642500Y-12693711I40000J0D01*
G01*
X11404500Y-9391711D02*
G75*
G03*
X11324500Y-9391711I-40000J0D01*
G01*
X11324500Y-9391711D02*
G75*
G03*
X11404500Y-9391711I40000J0D01*
G01*
X11404500Y-9645711D02*
G75*
G03*
X11324500Y-9645711I-40000J0D01*
G01*
X11324500Y-9645711D02*
G75*
G03*
X11404500Y-9645711I40000J0D01*
G01*
X11404500Y-9899711D02*
G75*
G03*
X11324500Y-9899711I-40000J0D01*
G01*
X11324500Y-9899711D02*
G75*
G03*
X11404500Y-9899711I40000J0D01*
G01*
X11404500Y-10153711D02*
G75*
G03*
X11324500Y-10153711I-40000J0D01*
G01*
X11324500Y-10153711D02*
G75*
G03*
X11404500Y-10153711I40000J0D01*
G01*
X11404500Y-10407711D02*
G75*
G03*
X11324500Y-10407711I-40000J0D01*
G01*
X11324500Y-10407711D02*
G75*
G03*
X11404500Y-10407711I40000J0D01*
G01*
X11404500Y-10661711D02*
G75*
G03*
X11324500Y-10661711I-40000J0D01*
G01*
X11324500Y-10661711D02*
G75*
G03*
X11404500Y-10661711I40000J0D01*
G01*
X11404500Y-10915711D02*
G75*
G03*
X11324500Y-10915711I-40000J0D01*
G01*
X11324500Y-10915711D02*
G75*
G03*
X11404500Y-10915711I40000J0D01*
G01*
X11404500Y-11169711D02*
G75*
G03*
X11324500Y-11169711I-40000J0D01*
G01*
X11324500Y-11169711D02*
G75*
G03*
X11404500Y-11169711I40000J0D01*
G01*
X11404500Y-11423711D02*
G75*
G03*
X11324500Y-11423711I-40000J0D01*
G01*
X11324500Y-11423711D02*
G75*
G03*
X11404500Y-11423711I40000J0D01*
G01*
X11404500Y-11677711D02*
G75*
G03*
X11324500Y-11677711I-40000J0D01*
G01*
X11324500Y-11677711D02*
G75*
G03*
X11404500Y-11677711I40000J0D01*
G01*
X11404500Y-11931711D02*
G75*
G03*
X11324500Y-11931711I-40000J0D01*
G01*
X11324500Y-11931711D02*
G75*
G03*
X11404500Y-11931711I40000J0D01*
G01*
X11404500Y-12185711D02*
G75*
G03*
X11324500Y-12185711I-40000J0D01*
G01*
X11324500Y-12185711D02*
G75*
G03*
X11404500Y-12185711I40000J0D01*
G01*
X11404500Y-12439711D02*
G75*
G03*
X11324500Y-12439711I-40000J0D01*
G01*
X11324500Y-12439711D02*
G75*
G03*
X11404500Y-12439711I40000J0D01*
G01*
X11404500Y-12693711D02*
G75*
G03*
X11324500Y-12693711I-40000J0D01*
G01*
X11324500Y-12693711D02*
G75*
G03*
X11404500Y-12693711I40000J0D01*
G01*
X9720000Y-14198500D02*
X9720000Y-14288500D01*
X9675000Y-14243500D02*
X9765000Y-14243500D01*
X9720000Y-14452500D02*
X9720000Y-14542500D01*
X9675000Y-14497500D02*
X9765000Y-14497500D01*
X10540000Y-14198500D02*
X10540000Y-14288500D01*
X10495000Y-14243500D02*
X10585000Y-14243500D01*
X10540000Y-14452500D02*
X10540000Y-14542500D01*
X10495000Y-14497500D02*
X10585000Y-14497500D01*
X10705356Y-8163356D02*
X10705356Y-8092644D01*
X10634644Y-8092644D01*
X10634644Y-8163356D01*
X10705356Y-8163356D01*
X10705356Y-8417356D02*
X10705356Y-8346644D01*
X10634644Y-8346644D01*
X10634644Y-8417356D01*
X10705356Y-8417356D01*
X10705356Y-8671356D02*
X10705356Y-8600644D01*
X10634644Y-8600644D01*
X10634644Y-8671356D01*
X10705356Y-8671356D01*
X10705356Y-8925356D02*
X10705356Y-8854644D01*
X10634644Y-8854644D01*
X10634644Y-8925356D01*
X10705356Y-8925356D01*
D12*
X8565000Y-9011000D02*
X8616000Y-8960000D01*
X8565000Y-8909000D01*
X8514000Y-8960000D01*
X8565000Y-9011000D01*
X9835000Y-9011000D02*
X9886000Y-8960000D01*
X9835000Y-8909000D01*
X9784000Y-8960000D01*
X9835000Y-9011000D01*
D11*
X8105777Y-15066484D02*
X8105777Y-14866484D01*
X8105777Y-14866484D02*
X8153396Y-14866484D01*
X8153396Y-14866484D02*
X8181967Y-14876008D01*
X8181967Y-14876008D02*
X8201015Y-14895055D01*
X8201015Y-14895055D02*
X8210539Y-14914103D01*
X8210539Y-14914103D02*
X8220062Y-14952198D01*
X8220062Y-14952198D02*
X8220062Y-14980769D01*
X8220062Y-14980769D02*
X8210539Y-15018865D01*
X8210539Y-15018865D02*
X8201015Y-15037912D01*
X8201015Y-15037912D02*
X8181967Y-15056960D01*
X8181967Y-15056960D02*
X8153396Y-15066484D01*
X8153396Y-15066484D02*
X8105777Y-15066484D01*
X8305777Y-15066484D02*
X8305777Y-14933150D01*
X8305777Y-14971246D02*
X8315301Y-14952198D01*
X8315301Y-14952198D02*
X8324824Y-14942674D01*
X8324824Y-14942674D02*
X8343872Y-14933150D01*
X8343872Y-14933150D02*
X8362920Y-14933150D01*
X8429586Y-15066484D02*
X8429586Y-14933150D01*
X8429586Y-14866484D02*
X8420063Y-14876008D01*
X8420063Y-14876008D02*
X8429586Y-14885531D01*
X8429586Y-14885531D02*
X8439110Y-14876008D01*
X8439110Y-14876008D02*
X8429586Y-14866484D01*
X8429586Y-14866484D02*
X8429586Y-14885531D01*
X8553396Y-15066484D02*
X8534348Y-15056960D01*
X8534348Y-15056960D02*
X8524824Y-15037912D01*
X8524824Y-15037912D02*
X8524824Y-14866484D01*
X8658158Y-15066484D02*
X8639110Y-15056960D01*
X8639110Y-15056960D02*
X8629586Y-15037912D01*
X8629586Y-15037912D02*
X8629586Y-14866484D01*
X8886729Y-15066484D02*
X8886729Y-14866484D01*
X8886729Y-14866484D02*
X8953396Y-15009341D01*
X8953396Y-15009341D02*
X9020063Y-14866484D01*
X9020063Y-14866484D02*
X9020063Y-15066484D01*
X9201015Y-15066484D02*
X9201015Y-14961722D01*
X9201015Y-14961722D02*
X9191491Y-14942674D01*
X9191491Y-14942674D02*
X9172444Y-14933150D01*
X9172444Y-14933150D02*
X9134348Y-14933150D01*
X9134348Y-14933150D02*
X9115301Y-14942674D01*
X9201015Y-15056960D02*
X9181967Y-15066484D01*
X9181967Y-15066484D02*
X9134348Y-15066484D01*
X9134348Y-15066484D02*
X9115301Y-15056960D01*
X9115301Y-15056960D02*
X9105777Y-15037912D01*
X9105777Y-15037912D02*
X9105777Y-15018865D01*
X9105777Y-15018865D02*
X9115301Y-14999817D01*
X9115301Y-14999817D02*
X9134348Y-14990293D01*
X9134348Y-14990293D02*
X9181967Y-14990293D01*
X9181967Y-14990293D02*
X9201015Y-14980769D01*
X9296253Y-14933150D02*
X9296253Y-15133150D01*
X9296253Y-14942674D02*
X9315301Y-14933150D01*
X9315301Y-14933150D02*
X9353396Y-14933150D01*
X9353396Y-14933150D02*
X9372444Y-14942674D01*
X9372444Y-14942674D02*
X9381967Y-14952198D01*
X9381967Y-14952198D02*
X9391491Y-14971246D01*
X9391491Y-14971246D02*
X9391491Y-15028388D01*
X9391491Y-15028388D02*
X9381967Y-15047436D01*
X9381967Y-15047436D02*
X9372444Y-15056960D01*
X9372444Y-15056960D02*
X9353396Y-15066484D01*
X9353396Y-15066484D02*
X9315301Y-15066484D01*
X9315301Y-15066484D02*
X9296253Y-15056960D01*
X9477205Y-15047436D02*
X9486729Y-15056960D01*
X9486729Y-15056960D02*
X9477205Y-15066484D01*
X9477205Y-15066484D02*
X9467682Y-15056960D01*
X9467682Y-15056960D02*
X9477205Y-15047436D01*
X9477205Y-15047436D02*
X9477205Y-15066484D01*
X9477205Y-14942674D02*
X9486729Y-14952198D01*
X9486729Y-14952198D02*
X9477205Y-14961722D01*
X9477205Y-14961722D02*
X9467682Y-14952198D01*
X9467682Y-14952198D02*
X9477205Y-14942674D01*
X9477205Y-14942674D02*
X9477205Y-14961722D01*
D10*
X7795000Y-15370000D02*
X7845000Y-15420000D01*
X7845000Y-15370000D02*
X7795000Y-15420000D01*
D11*
X8143872Y-15286484D02*
X8162920Y-15286484D01*
X8162920Y-15286484D02*
X8181967Y-15296008D01*
X8181967Y-15296008D02*
X8191491Y-15305531D01*
X8191491Y-15305531D02*
X8201015Y-15324579D01*
X8201015Y-15324579D02*
X8210539Y-15362674D01*
X8210539Y-15362674D02*
X8210539Y-15410293D01*
X8210539Y-15410293D02*
X8201015Y-15448388D01*
X8201015Y-15448388D02*
X8191491Y-15467436D01*
X8191491Y-15467436D02*
X8181967Y-15476960D01*
X8181967Y-15476960D02*
X8162920Y-15486484D01*
X8162920Y-15486484D02*
X8143872Y-15486484D01*
X8143872Y-15486484D02*
X8124824Y-15476960D01*
X8124824Y-15476960D02*
X8115301Y-15467436D01*
X8115301Y-15467436D02*
X8105777Y-15448388D01*
X8105777Y-15448388D02*
X8096253Y-15410293D01*
X8096253Y-15410293D02*
X8096253Y-15362674D01*
X8096253Y-15362674D02*
X8105777Y-15324579D01*
X8105777Y-15324579D02*
X8115301Y-15305531D01*
X8115301Y-15305531D02*
X8124824Y-15296008D01*
X8124824Y-15296008D02*
X8143872Y-15286484D01*
X8296253Y-15467436D02*
X8305777Y-15476960D01*
X8305777Y-15476960D02*
X8296253Y-15486484D01*
X8296253Y-15486484D02*
X8286729Y-15476960D01*
X8286729Y-15476960D02*
X8296253Y-15467436D01*
X8296253Y-15467436D02*
X8296253Y-15486484D01*
X8486729Y-15286484D02*
X8391491Y-15286484D01*
X8391491Y-15286484D02*
X8381967Y-15381722D01*
X8381967Y-15381722D02*
X8391491Y-15372198D01*
X8391491Y-15372198D02*
X8410539Y-15362674D01*
X8410539Y-15362674D02*
X8458158Y-15362674D01*
X8458158Y-15362674D02*
X8477205Y-15372198D01*
X8477205Y-15372198D02*
X8486729Y-15381722D01*
X8486729Y-15381722D02*
X8496253Y-15400769D01*
X8496253Y-15400769D02*
X8496253Y-15448388D01*
X8496253Y-15448388D02*
X8486729Y-15467436D01*
X8486729Y-15467436D02*
X8477205Y-15476960D01*
X8477205Y-15476960D02*
X8458158Y-15486484D01*
X8458158Y-15486484D02*
X8410539Y-15486484D01*
X8410539Y-15486484D02*
X8391491Y-15476960D01*
X8391491Y-15476960D02*
X8381967Y-15467436D01*
X8620063Y-15286484D02*
X8639110Y-15286484D01*
X8639110Y-15286484D02*
X8658158Y-15296008D01*
X8658158Y-15296008D02*
X8667682Y-15305531D01*
X8667682Y-15305531D02*
X8677205Y-15324579D01*
X8677205Y-15324579D02*
X8686729Y-15362674D01*
X8686729Y-15362674D02*
X8686729Y-15410293D01*
X8686729Y-15410293D02*
X8677205Y-15448388D01*
X8677205Y-15448388D02*
X8667682Y-15467436D01*
X8667682Y-15467436D02*
X8658158Y-15476960D01*
X8658158Y-15476960D02*
X8639110Y-15486484D01*
X8639110Y-15486484D02*
X8620063Y-15486484D01*
X8620063Y-15486484D02*
X8601015Y-15476960D01*
X8601015Y-15476960D02*
X8591491Y-15467436D01*
X8591491Y-15467436D02*
X8581967Y-15448388D01*
X8581967Y-15448388D02*
X8572444Y-15410293D01*
X8572444Y-15410293D02*
X8572444Y-15362674D01*
X8572444Y-15362674D02*
X8581967Y-15324579D01*
X8581967Y-15324579D02*
X8591491Y-15305531D01*
X8591491Y-15305531D02*
X8601015Y-15296008D01*
X8601015Y-15296008D02*
X8620063Y-15286484D01*
X8810539Y-15286484D02*
X8829586Y-15286484D01*
X8829586Y-15286484D02*
X8848634Y-15296008D01*
X8848634Y-15296008D02*
X8858158Y-15305531D01*
X8858158Y-15305531D02*
X8867682Y-15324579D01*
X8867682Y-15324579D02*
X8877205Y-15362674D01*
X8877205Y-15362674D02*
X8877205Y-15410293D01*
X8877205Y-15410293D02*
X8867682Y-15448388D01*
X8867682Y-15448388D02*
X8858158Y-15467436D01*
X8858158Y-15467436D02*
X8848634Y-15476960D01*
X8848634Y-15476960D02*
X8829586Y-15486484D01*
X8829586Y-15486484D02*
X8810539Y-15486484D01*
X8810539Y-15486484D02*
X8791491Y-15476960D01*
X8791491Y-15476960D02*
X8781967Y-15467436D01*
X8781967Y-15467436D02*
X8772444Y-15448388D01*
X8772444Y-15448388D02*
X8762920Y-15410293D01*
X8762920Y-15410293D02*
X8762920Y-15362674D01*
X8762920Y-15362674D02*
X8772444Y-15324579D01*
X8772444Y-15324579D02*
X8781967Y-15305531D01*
X8781967Y-15305531D02*
X8791491Y-15296008D01*
X8791491Y-15296008D02*
X8810539Y-15286484D01*
X8962920Y-15486484D02*
X8962920Y-15353150D01*
X8962920Y-15372198D02*
X8972444Y-15362674D01*
X8972444Y-15362674D02*
X8991491Y-15353150D01*
X8991491Y-15353150D02*
X9020063Y-15353150D01*
X9020063Y-15353150D02*
X9039110Y-15362674D01*
X9039110Y-15362674D02*
X9048634Y-15381722D01*
X9048634Y-15381722D02*
X9048634Y-15486484D01*
X9048634Y-15381722D02*
X9058158Y-15362674D01*
X9058158Y-15362674D02*
X9077205Y-15353150D01*
X9077205Y-15353150D02*
X9105777Y-15353150D01*
X9105777Y-15353150D02*
X9124825Y-15362674D01*
X9124825Y-15362674D02*
X9134348Y-15381722D01*
X9134348Y-15381722D02*
X9134348Y-15486484D01*
X9229586Y-15486484D02*
X9229586Y-15353150D01*
X9229586Y-15372198D02*
X9239110Y-15362674D01*
X9239110Y-15362674D02*
X9258158Y-15353150D01*
X9258158Y-15353150D02*
X9286729Y-15353150D01*
X9286729Y-15353150D02*
X9305777Y-15362674D01*
X9305777Y-15362674D02*
X9315301Y-15381722D01*
X9315301Y-15381722D02*
X9315301Y-15486484D01*
X9315301Y-15381722D02*
X9324825Y-15362674D01*
X9324825Y-15362674D02*
X9343872Y-15353150D01*
X9343872Y-15353150D02*
X9372444Y-15353150D01*
X9372444Y-15353150D02*
X9391491Y-15362674D01*
X9391491Y-15362674D02*
X9401015Y-15381722D01*
X9401015Y-15381722D02*
X9401015Y-15486484D01*
X9791491Y-15276960D02*
X9620063Y-15534103D01*
X10048634Y-15286484D02*
X10067682Y-15286484D01*
X10067682Y-15286484D02*
X10086729Y-15296008D01*
X10086729Y-15296008D02*
X10096253Y-15305531D01*
X10096253Y-15305531D02*
X10105777Y-15324579D01*
X10105777Y-15324579D02*
X10115301Y-15362674D01*
X10115301Y-15362674D02*
X10115301Y-15410293D01*
X10115301Y-15410293D02*
X10105777Y-15448388D01*
X10105777Y-15448388D02*
X10096253Y-15467436D01*
X10096253Y-15467436D02*
X10086729Y-15476960D01*
X10086729Y-15476960D02*
X10067682Y-15486484D01*
X10067682Y-15486484D02*
X10048634Y-15486484D01*
X10048634Y-15486484D02*
X10029587Y-15476960D01*
X10029587Y-15476960D02*
X10020063Y-15467436D01*
X10020063Y-15467436D02*
X10010539Y-15448388D01*
X10010539Y-15448388D02*
X10001015Y-15410293D01*
X10001015Y-15410293D02*
X10001015Y-15362674D01*
X10001015Y-15362674D02*
X10010539Y-15324579D01*
X10010539Y-15324579D02*
X10020063Y-15305531D01*
X10020063Y-15305531D02*
X10029587Y-15296008D01*
X10029587Y-15296008D02*
X10048634Y-15286484D01*
X10201015Y-15467436D02*
X10210539Y-15476960D01*
X10210539Y-15476960D02*
X10201015Y-15486484D01*
X10201015Y-15486484D02*
X10191491Y-15476960D01*
X10191491Y-15476960D02*
X10201015Y-15467436D01*
X10201015Y-15467436D02*
X10201015Y-15486484D01*
X10334348Y-15286484D02*
X10353396Y-15286484D01*
X10353396Y-15286484D02*
X10372444Y-15296008D01*
X10372444Y-15296008D02*
X10381968Y-15305531D01*
X10381968Y-15305531D02*
X10391491Y-15324579D01*
X10391491Y-15324579D02*
X10401015Y-15362674D01*
X10401015Y-15362674D02*
X10401015Y-15410293D01*
X10401015Y-15410293D02*
X10391491Y-15448388D01*
X10391491Y-15448388D02*
X10381968Y-15467436D01*
X10381968Y-15467436D02*
X10372444Y-15476960D01*
X10372444Y-15476960D02*
X10353396Y-15486484D01*
X10353396Y-15486484D02*
X10334348Y-15486484D01*
X10334348Y-15486484D02*
X10315301Y-15476960D01*
X10315301Y-15476960D02*
X10305777Y-15467436D01*
X10305777Y-15467436D02*
X10296253Y-15448388D01*
X10296253Y-15448388D02*
X10286729Y-15410293D01*
X10286729Y-15410293D02*
X10286729Y-15362674D01*
X10286729Y-15362674D02*
X10296253Y-15324579D01*
X10296253Y-15324579D02*
X10305777Y-15305531D01*
X10305777Y-15305531D02*
X10315301Y-15296008D01*
X10315301Y-15296008D02*
X10334348Y-15286484D01*
X10591491Y-15486484D02*
X10477206Y-15486484D01*
X10534348Y-15486484D02*
X10534348Y-15286484D01*
X10534348Y-15286484D02*
X10515301Y-15315055D01*
X10515301Y-15315055D02*
X10496253Y-15334103D01*
X10496253Y-15334103D02*
X10477206Y-15343627D01*
X10686729Y-15486484D02*
X10724825Y-15486484D01*
X10724825Y-15486484D02*
X10743872Y-15476960D01*
X10743872Y-15476960D02*
X10753396Y-15467436D01*
X10753396Y-15467436D02*
X10772444Y-15438865D01*
X10772444Y-15438865D02*
X10781968Y-15400769D01*
X10781968Y-15400769D02*
X10781968Y-15324579D01*
X10781968Y-15324579D02*
X10772444Y-15305531D01*
X10772444Y-15305531D02*
X10762920Y-15296008D01*
X10762920Y-15296008D02*
X10743872Y-15286484D01*
X10743872Y-15286484D02*
X10705777Y-15286484D01*
X10705777Y-15286484D02*
X10686729Y-15296008D01*
X10686729Y-15296008D02*
X10677206Y-15305531D01*
X10677206Y-15305531D02*
X10667682Y-15324579D01*
X10667682Y-15324579D02*
X10667682Y-15372198D01*
X10667682Y-15372198D02*
X10677206Y-15391246D01*
X10677206Y-15391246D02*
X10686729Y-15400769D01*
X10686729Y-15400769D02*
X10705777Y-15410293D01*
X10705777Y-15410293D02*
X10743872Y-15410293D01*
X10743872Y-15410293D02*
X10762920Y-15400769D01*
X10762920Y-15400769D02*
X10772444Y-15391246D01*
X10772444Y-15391246D02*
X10781968Y-15372198D01*
X10848634Y-15286484D02*
X10981968Y-15286484D01*
X10981968Y-15286484D02*
X10896253Y-15486484D01*
X11048634Y-15286484D02*
X11048634Y-15324579D01*
X11124825Y-15286484D02*
X11124825Y-15324579D01*
X11420063Y-15562674D02*
X11410539Y-15553150D01*
X11410539Y-15553150D02*
X11391491Y-15524579D01*
X11391491Y-15524579D02*
X11381968Y-15505531D01*
X11381968Y-15505531D02*
X11372444Y-15476960D01*
X11372444Y-15476960D02*
X11362920Y-15429341D01*
X11362920Y-15429341D02*
X11362920Y-15391246D01*
X11362920Y-15391246D02*
X11372444Y-15343627D01*
X11372444Y-15343627D02*
X11381968Y-15315055D01*
X11381968Y-15315055D02*
X11391491Y-15296008D01*
X11391491Y-15296008D02*
X11410539Y-15267436D01*
X11410539Y-15267436D02*
X11420063Y-15257912D01*
X11591491Y-15286484D02*
X11496253Y-15286484D01*
X11496253Y-15286484D02*
X11486729Y-15381722D01*
X11486729Y-15381722D02*
X11496253Y-15372198D01*
X11496253Y-15372198D02*
X11515301Y-15362674D01*
X11515301Y-15362674D02*
X11562920Y-15362674D01*
X11562920Y-15362674D02*
X11581968Y-15372198D01*
X11581968Y-15372198D02*
X11591491Y-15381722D01*
X11591491Y-15381722D02*
X11601015Y-15400769D01*
X11601015Y-15400769D02*
X11601015Y-15448388D01*
X11601015Y-15448388D02*
X11591491Y-15467436D01*
X11591491Y-15467436D02*
X11581968Y-15476960D01*
X11581968Y-15476960D02*
X11562920Y-15486484D01*
X11562920Y-15486484D02*
X11515301Y-15486484D01*
X11515301Y-15486484D02*
X11496253Y-15476960D01*
X11496253Y-15476960D02*
X11486729Y-15467436D01*
X11839110Y-15486484D02*
X11839110Y-15286484D01*
X11924825Y-15486484D02*
X11924825Y-15381722D01*
X11924825Y-15381722D02*
X11915301Y-15362674D01*
X11915301Y-15362674D02*
X11896253Y-15353150D01*
X11896253Y-15353150D02*
X11867682Y-15353150D01*
X11867682Y-15353150D02*
X11848634Y-15362674D01*
X11848634Y-15362674D02*
X11839110Y-15372198D01*
X12048634Y-15486484D02*
X12029587Y-15476960D01*
X12029587Y-15476960D02*
X12020063Y-15467436D01*
X12020063Y-15467436D02*
X12010539Y-15448388D01*
X12010539Y-15448388D02*
X12010539Y-15391246D01*
X12010539Y-15391246D02*
X12020063Y-15372198D01*
X12020063Y-15372198D02*
X12029587Y-15362674D01*
X12029587Y-15362674D02*
X12048634Y-15353150D01*
X12048634Y-15353150D02*
X12077206Y-15353150D01*
X12077206Y-15353150D02*
X12096253Y-15362674D01*
X12096253Y-15362674D02*
X12105777Y-15372198D01*
X12105777Y-15372198D02*
X12115301Y-15391246D01*
X12115301Y-15391246D02*
X12115301Y-15448388D01*
X12115301Y-15448388D02*
X12105777Y-15467436D01*
X12105777Y-15467436D02*
X12096253Y-15476960D01*
X12096253Y-15476960D02*
X12077206Y-15486484D01*
X12077206Y-15486484D02*
X12048634Y-15486484D01*
X12229587Y-15486484D02*
X12210539Y-15476960D01*
X12210539Y-15476960D02*
X12201015Y-15457912D01*
X12201015Y-15457912D02*
X12201015Y-15286484D01*
X12381968Y-15476960D02*
X12362920Y-15486484D01*
X12362920Y-15486484D02*
X12324825Y-15486484D01*
X12324825Y-15486484D02*
X12305777Y-15476960D01*
X12305777Y-15476960D02*
X12296253Y-15457912D01*
X12296253Y-15457912D02*
X12296253Y-15381722D01*
X12296253Y-15381722D02*
X12305777Y-15362674D01*
X12305777Y-15362674D02*
X12324825Y-15353150D01*
X12324825Y-15353150D02*
X12362920Y-15353150D01*
X12362920Y-15353150D02*
X12381968Y-15362674D01*
X12381968Y-15362674D02*
X12391491Y-15381722D01*
X12391491Y-15381722D02*
X12391491Y-15400769D01*
X12391491Y-15400769D02*
X12296253Y-15419817D01*
X12467682Y-15476960D02*
X12486730Y-15486484D01*
X12486730Y-15486484D02*
X12524825Y-15486484D01*
X12524825Y-15486484D02*
X12543872Y-15476960D01*
X12543872Y-15476960D02*
X12553396Y-15457912D01*
X12553396Y-15457912D02*
X12553396Y-15448388D01*
X12553396Y-15448388D02*
X12543872Y-15429341D01*
X12543872Y-15429341D02*
X12524825Y-15419817D01*
X12524825Y-15419817D02*
X12496253Y-15419817D01*
X12496253Y-15419817D02*
X12477206Y-15410293D01*
X12477206Y-15410293D02*
X12467682Y-15391246D01*
X12467682Y-15391246D02*
X12467682Y-15381722D01*
X12467682Y-15381722D02*
X12477206Y-15362674D01*
X12477206Y-15362674D02*
X12496253Y-15353150D01*
X12496253Y-15353150D02*
X12524825Y-15353150D01*
X12524825Y-15353150D02*
X12543872Y-15362674D01*
X12620063Y-15562674D02*
X12629587Y-15553150D01*
X12629587Y-15553150D02*
X12648634Y-15524579D01*
X12648634Y-15524579D02*
X12658158Y-15505531D01*
X12658158Y-15505531D02*
X12667682Y-15476960D01*
X12667682Y-15476960D02*
X12677206Y-15429341D01*
X12677206Y-15429341D02*
X12677206Y-15391246D01*
X12677206Y-15391246D02*
X12667682Y-15343627D01*
X12667682Y-15343627D02*
X12658158Y-15315055D01*
X12658158Y-15315055D02*
X12648634Y-15296008D01*
X12648634Y-15296008D02*
X12629587Y-15267436D01*
X12629587Y-15267436D02*
X12620063Y-15257912D01*
D10*
X7845000Y-15659000D02*
G75*
G03*
X7765000Y-15659000I-40000J0D01*
G01*
X7765000Y-15659000D02*
G75*
G03*
X7845000Y-15659000I40000J0D01*
G01*
D11*
X8143872Y-15550484D02*
X8162920Y-15550484D01*
X8162920Y-15550484D02*
X8181967Y-15560008D01*
X8181967Y-15560008D02*
X8191491Y-15569531D01*
X8191491Y-15569531D02*
X8201015Y-15588579D01*
X8201015Y-15588579D02*
X8210539Y-15626674D01*
X8210539Y-15626674D02*
X8210539Y-15674293D01*
X8210539Y-15674293D02*
X8201015Y-15712388D01*
X8201015Y-15712388D02*
X8191491Y-15731436D01*
X8191491Y-15731436D02*
X8181967Y-15740960D01*
X8181967Y-15740960D02*
X8162920Y-15750484D01*
X8162920Y-15750484D02*
X8143872Y-15750484D01*
X8143872Y-15750484D02*
X8124824Y-15740960D01*
X8124824Y-15740960D02*
X8115301Y-15731436D01*
X8115301Y-15731436D02*
X8105777Y-15712388D01*
X8105777Y-15712388D02*
X8096253Y-15674293D01*
X8096253Y-15674293D02*
X8096253Y-15626674D01*
X8096253Y-15626674D02*
X8105777Y-15588579D01*
X8105777Y-15588579D02*
X8115301Y-15569531D01*
X8115301Y-15569531D02*
X8124824Y-15560008D01*
X8124824Y-15560008D02*
X8143872Y-15550484D01*
X8296253Y-15731436D02*
X8305777Y-15740960D01*
X8305777Y-15740960D02*
X8296253Y-15750484D01*
X8296253Y-15750484D02*
X8286729Y-15740960D01*
X8286729Y-15740960D02*
X8296253Y-15731436D01*
X8296253Y-15731436D02*
X8296253Y-15750484D01*
X8420063Y-15636198D02*
X8401015Y-15626674D01*
X8401015Y-15626674D02*
X8391491Y-15617150D01*
X8391491Y-15617150D02*
X8381967Y-15598103D01*
X8381967Y-15598103D02*
X8381967Y-15588579D01*
X8381967Y-15588579D02*
X8391491Y-15569531D01*
X8391491Y-15569531D02*
X8401015Y-15560008D01*
X8401015Y-15560008D02*
X8420063Y-15550484D01*
X8420063Y-15550484D02*
X8458158Y-15550484D01*
X8458158Y-15550484D02*
X8477205Y-15560008D01*
X8477205Y-15560008D02*
X8486729Y-15569531D01*
X8486729Y-15569531D02*
X8496253Y-15588579D01*
X8496253Y-15588579D02*
X8496253Y-15598103D01*
X8496253Y-15598103D02*
X8486729Y-15617150D01*
X8486729Y-15617150D02*
X8477205Y-15626674D01*
X8477205Y-15626674D02*
X8458158Y-15636198D01*
X8458158Y-15636198D02*
X8420063Y-15636198D01*
X8420063Y-15636198D02*
X8401015Y-15645722D01*
X8401015Y-15645722D02*
X8391491Y-15655246D01*
X8391491Y-15655246D02*
X8381967Y-15674293D01*
X8381967Y-15674293D02*
X8381967Y-15712388D01*
X8381967Y-15712388D02*
X8391491Y-15731436D01*
X8391491Y-15731436D02*
X8401015Y-15740960D01*
X8401015Y-15740960D02*
X8420063Y-15750484D01*
X8420063Y-15750484D02*
X8458158Y-15750484D01*
X8458158Y-15750484D02*
X8477205Y-15740960D01*
X8477205Y-15740960D02*
X8486729Y-15731436D01*
X8486729Y-15731436D02*
X8496253Y-15712388D01*
X8496253Y-15712388D02*
X8496253Y-15674293D01*
X8496253Y-15674293D02*
X8486729Y-15655246D01*
X8486729Y-15655246D02*
X8477205Y-15645722D01*
X8477205Y-15645722D02*
X8458158Y-15636198D01*
X8620063Y-15550484D02*
X8639110Y-15550484D01*
X8639110Y-15550484D02*
X8658158Y-15560008D01*
X8658158Y-15560008D02*
X8667682Y-15569531D01*
X8667682Y-15569531D02*
X8677205Y-15588579D01*
X8677205Y-15588579D02*
X8686729Y-15626674D01*
X8686729Y-15626674D02*
X8686729Y-15674293D01*
X8686729Y-15674293D02*
X8677205Y-15712388D01*
X8677205Y-15712388D02*
X8667682Y-15731436D01*
X8667682Y-15731436D02*
X8658158Y-15740960D01*
X8658158Y-15740960D02*
X8639110Y-15750484D01*
X8639110Y-15750484D02*
X8620063Y-15750484D01*
X8620063Y-15750484D02*
X8601015Y-15740960D01*
X8601015Y-15740960D02*
X8591491Y-15731436D01*
X8591491Y-15731436D02*
X8581967Y-15712388D01*
X8581967Y-15712388D02*
X8572444Y-15674293D01*
X8572444Y-15674293D02*
X8572444Y-15626674D01*
X8572444Y-15626674D02*
X8581967Y-15588579D01*
X8581967Y-15588579D02*
X8591491Y-15569531D01*
X8591491Y-15569531D02*
X8601015Y-15560008D01*
X8601015Y-15560008D02*
X8620063Y-15550484D01*
X8810539Y-15550484D02*
X8829586Y-15550484D01*
X8829586Y-15550484D02*
X8848634Y-15560008D01*
X8848634Y-15560008D02*
X8858158Y-15569531D01*
X8858158Y-15569531D02*
X8867682Y-15588579D01*
X8867682Y-15588579D02*
X8877205Y-15626674D01*
X8877205Y-15626674D02*
X8877205Y-15674293D01*
X8877205Y-15674293D02*
X8867682Y-15712388D01*
X8867682Y-15712388D02*
X8858158Y-15731436D01*
X8858158Y-15731436D02*
X8848634Y-15740960D01*
X8848634Y-15740960D02*
X8829586Y-15750484D01*
X8829586Y-15750484D02*
X8810539Y-15750484D01*
X8810539Y-15750484D02*
X8791491Y-15740960D01*
X8791491Y-15740960D02*
X8781967Y-15731436D01*
X8781967Y-15731436D02*
X8772444Y-15712388D01*
X8772444Y-15712388D02*
X8762920Y-15674293D01*
X8762920Y-15674293D02*
X8762920Y-15626674D01*
X8762920Y-15626674D02*
X8772444Y-15588579D01*
X8772444Y-15588579D02*
X8781967Y-15569531D01*
X8781967Y-15569531D02*
X8791491Y-15560008D01*
X8791491Y-15560008D02*
X8810539Y-15550484D01*
X8962920Y-15750484D02*
X8962920Y-15617150D01*
X8962920Y-15636198D02*
X8972444Y-15626674D01*
X8972444Y-15626674D02*
X8991491Y-15617150D01*
X8991491Y-15617150D02*
X9020063Y-15617150D01*
X9020063Y-15617150D02*
X9039110Y-15626674D01*
X9039110Y-15626674D02*
X9048634Y-15645722D01*
X9048634Y-15645722D02*
X9048634Y-15750484D01*
X9048634Y-15645722D02*
X9058158Y-15626674D01*
X9058158Y-15626674D02*
X9077205Y-15617150D01*
X9077205Y-15617150D02*
X9105777Y-15617150D01*
X9105777Y-15617150D02*
X9124825Y-15626674D01*
X9124825Y-15626674D02*
X9134348Y-15645722D01*
X9134348Y-15645722D02*
X9134348Y-15750484D01*
X9229586Y-15750484D02*
X9229586Y-15617150D01*
X9229586Y-15636198D02*
X9239110Y-15626674D01*
X9239110Y-15626674D02*
X9258158Y-15617150D01*
X9258158Y-15617150D02*
X9286729Y-15617150D01*
X9286729Y-15617150D02*
X9305777Y-15626674D01*
X9305777Y-15626674D02*
X9315301Y-15645722D01*
X9315301Y-15645722D02*
X9315301Y-15750484D01*
X9315301Y-15645722D02*
X9324825Y-15626674D01*
X9324825Y-15626674D02*
X9343872Y-15617150D01*
X9343872Y-15617150D02*
X9372444Y-15617150D01*
X9372444Y-15617150D02*
X9391491Y-15626674D01*
X9391491Y-15626674D02*
X9401015Y-15645722D01*
X9401015Y-15645722D02*
X9401015Y-15750484D01*
X9791491Y-15540960D02*
X9620063Y-15798103D01*
X10048634Y-15550484D02*
X10067682Y-15550484D01*
X10067682Y-15550484D02*
X10086729Y-15560008D01*
X10086729Y-15560008D02*
X10096253Y-15569531D01*
X10096253Y-15569531D02*
X10105777Y-15588579D01*
X10105777Y-15588579D02*
X10115301Y-15626674D01*
X10115301Y-15626674D02*
X10115301Y-15674293D01*
X10115301Y-15674293D02*
X10105777Y-15712388D01*
X10105777Y-15712388D02*
X10096253Y-15731436D01*
X10096253Y-15731436D02*
X10086729Y-15740960D01*
X10086729Y-15740960D02*
X10067682Y-15750484D01*
X10067682Y-15750484D02*
X10048634Y-15750484D01*
X10048634Y-15750484D02*
X10029587Y-15740960D01*
X10029587Y-15740960D02*
X10020063Y-15731436D01*
X10020063Y-15731436D02*
X10010539Y-15712388D01*
X10010539Y-15712388D02*
X10001015Y-15674293D01*
X10001015Y-15674293D02*
X10001015Y-15626674D01*
X10001015Y-15626674D02*
X10010539Y-15588579D01*
X10010539Y-15588579D02*
X10020063Y-15569531D01*
X10020063Y-15569531D02*
X10029587Y-15560008D01*
X10029587Y-15560008D02*
X10048634Y-15550484D01*
X10201015Y-15731436D02*
X10210539Y-15740960D01*
X10210539Y-15740960D02*
X10201015Y-15750484D01*
X10201015Y-15750484D02*
X10191491Y-15740960D01*
X10191491Y-15740960D02*
X10201015Y-15731436D01*
X10201015Y-15731436D02*
X10201015Y-15750484D01*
X10334348Y-15550484D02*
X10353396Y-15550484D01*
X10353396Y-15550484D02*
X10372444Y-15560008D01*
X10372444Y-15560008D02*
X10381968Y-15569531D01*
X10381968Y-15569531D02*
X10391491Y-15588579D01*
X10391491Y-15588579D02*
X10401015Y-15626674D01*
X10401015Y-15626674D02*
X10401015Y-15674293D01*
X10401015Y-15674293D02*
X10391491Y-15712388D01*
X10391491Y-15712388D02*
X10381968Y-15731436D01*
X10381968Y-15731436D02*
X10372444Y-15740960D01*
X10372444Y-15740960D02*
X10353396Y-15750484D01*
X10353396Y-15750484D02*
X10334348Y-15750484D01*
X10334348Y-15750484D02*
X10315301Y-15740960D01*
X10315301Y-15740960D02*
X10305777Y-15731436D01*
X10305777Y-15731436D02*
X10296253Y-15712388D01*
X10296253Y-15712388D02*
X10286729Y-15674293D01*
X10286729Y-15674293D02*
X10286729Y-15626674D01*
X10286729Y-15626674D02*
X10296253Y-15588579D01*
X10296253Y-15588579D02*
X10305777Y-15569531D01*
X10305777Y-15569531D02*
X10315301Y-15560008D01*
X10315301Y-15560008D02*
X10334348Y-15550484D01*
X10467682Y-15550484D02*
X10591491Y-15550484D01*
X10591491Y-15550484D02*
X10524825Y-15626674D01*
X10524825Y-15626674D02*
X10553396Y-15626674D01*
X10553396Y-15626674D02*
X10572444Y-15636198D01*
X10572444Y-15636198D02*
X10581968Y-15645722D01*
X10581968Y-15645722D02*
X10591491Y-15664769D01*
X10591491Y-15664769D02*
X10591491Y-15712388D01*
X10591491Y-15712388D02*
X10581968Y-15731436D01*
X10581968Y-15731436D02*
X10572444Y-15740960D01*
X10572444Y-15740960D02*
X10553396Y-15750484D01*
X10553396Y-15750484D02*
X10496253Y-15750484D01*
X10496253Y-15750484D02*
X10477206Y-15740960D01*
X10477206Y-15740960D02*
X10467682Y-15731436D01*
X10781968Y-15750484D02*
X10667682Y-15750484D01*
X10724825Y-15750484D02*
X10724825Y-15550484D01*
X10724825Y-15550484D02*
X10705777Y-15579055D01*
X10705777Y-15579055D02*
X10686729Y-15598103D01*
X10686729Y-15598103D02*
X10667682Y-15607627D01*
X10962920Y-15550484D02*
X10867682Y-15550484D01*
X10867682Y-15550484D02*
X10858158Y-15645722D01*
X10858158Y-15645722D02*
X10867682Y-15636198D01*
X10867682Y-15636198D02*
X10886729Y-15626674D01*
X10886729Y-15626674D02*
X10934349Y-15626674D01*
X10934349Y-15626674D02*
X10953396Y-15636198D01*
X10953396Y-15636198D02*
X10962920Y-15645722D01*
X10962920Y-15645722D02*
X10972444Y-15664769D01*
X10972444Y-15664769D02*
X10972444Y-15712388D01*
X10972444Y-15712388D02*
X10962920Y-15731436D01*
X10962920Y-15731436D02*
X10953396Y-15740960D01*
X10953396Y-15740960D02*
X10934349Y-15750484D01*
X10934349Y-15750484D02*
X10886729Y-15750484D01*
X10886729Y-15750484D02*
X10867682Y-15740960D01*
X10867682Y-15740960D02*
X10858158Y-15731436D01*
X11048634Y-15550484D02*
X11048634Y-15588579D01*
X11124825Y-15550484D02*
X11124825Y-15588579D01*
X11420063Y-15826674D02*
X11410539Y-15817150D01*
X11410539Y-15817150D02*
X11391491Y-15788579D01*
X11391491Y-15788579D02*
X11381968Y-15769531D01*
X11381968Y-15769531D02*
X11372444Y-15740960D01*
X11372444Y-15740960D02*
X11362920Y-15693341D01*
X11362920Y-15693341D02*
X11362920Y-15655246D01*
X11362920Y-15655246D02*
X11372444Y-15607627D01*
X11372444Y-15607627D02*
X11381968Y-15579055D01*
X11381968Y-15579055D02*
X11391491Y-15560008D01*
X11391491Y-15560008D02*
X11410539Y-15531436D01*
X11410539Y-15531436D02*
X11420063Y-15521912D01*
X11486729Y-15569531D02*
X11496253Y-15560008D01*
X11496253Y-15560008D02*
X11515301Y-15550484D01*
X11515301Y-15550484D02*
X11562920Y-15550484D01*
X11562920Y-15550484D02*
X11581968Y-15560008D01*
X11581968Y-15560008D02*
X11591491Y-15569531D01*
X11591491Y-15569531D02*
X11601015Y-15588579D01*
X11601015Y-15588579D02*
X11601015Y-15607627D01*
X11601015Y-15607627D02*
X11591491Y-15636198D01*
X11591491Y-15636198D02*
X11477206Y-15750484D01*
X11477206Y-15750484D02*
X11601015Y-15750484D01*
X11715301Y-15636198D02*
X11696253Y-15626674D01*
X11696253Y-15626674D02*
X11686729Y-15617150D01*
X11686729Y-15617150D02*
X11677206Y-15598103D01*
X11677206Y-15598103D02*
X11677206Y-15588579D01*
X11677206Y-15588579D02*
X11686729Y-15569531D01*
X11686729Y-15569531D02*
X11696253Y-15560008D01*
X11696253Y-15560008D02*
X11715301Y-15550484D01*
X11715301Y-15550484D02*
X11753396Y-15550484D01*
X11753396Y-15550484D02*
X11772444Y-15560008D01*
X11772444Y-15560008D02*
X11781968Y-15569531D01*
X11781968Y-15569531D02*
X11791491Y-15588579D01*
X11791491Y-15588579D02*
X11791491Y-15598103D01*
X11791491Y-15598103D02*
X11781968Y-15617150D01*
X11781968Y-15617150D02*
X11772444Y-15626674D01*
X11772444Y-15626674D02*
X11753396Y-15636198D01*
X11753396Y-15636198D02*
X11715301Y-15636198D01*
X11715301Y-15636198D02*
X11696253Y-15645722D01*
X11696253Y-15645722D02*
X11686729Y-15655246D01*
X11686729Y-15655246D02*
X11677206Y-15674293D01*
X11677206Y-15674293D02*
X11677206Y-15712388D01*
X11677206Y-15712388D02*
X11686729Y-15731436D01*
X11686729Y-15731436D02*
X11696253Y-15740960D01*
X11696253Y-15740960D02*
X11715301Y-15750484D01*
X11715301Y-15750484D02*
X11753396Y-15750484D01*
X11753396Y-15750484D02*
X11772444Y-15740960D01*
X11772444Y-15740960D02*
X11781968Y-15731436D01*
X11781968Y-15731436D02*
X11791491Y-15712388D01*
X11791491Y-15712388D02*
X11791491Y-15674293D01*
X11791491Y-15674293D02*
X11781968Y-15655246D01*
X11781968Y-15655246D02*
X11772444Y-15645722D01*
X11772444Y-15645722D02*
X11753396Y-15636198D01*
X12029587Y-15750484D02*
X12029587Y-15550484D01*
X12115301Y-15750484D02*
X12115301Y-15645722D01*
X12115301Y-15645722D02*
X12105777Y-15626674D01*
X12105777Y-15626674D02*
X12086730Y-15617150D01*
X12086730Y-15617150D02*
X12058158Y-15617150D01*
X12058158Y-15617150D02*
X12039110Y-15626674D01*
X12039110Y-15626674D02*
X12029587Y-15636198D01*
X12239110Y-15750484D02*
X12220063Y-15740960D01*
X12220063Y-15740960D02*
X12210539Y-15731436D01*
X12210539Y-15731436D02*
X12201015Y-15712388D01*
X12201015Y-15712388D02*
X12201015Y-15655246D01*
X12201015Y-15655246D02*
X12210539Y-15636198D01*
X12210539Y-15636198D02*
X12220063Y-15626674D01*
X12220063Y-15626674D02*
X12239110Y-15617150D01*
X12239110Y-15617150D02*
X12267682Y-15617150D01*
X12267682Y-15617150D02*
X12286730Y-15626674D01*
X12286730Y-15626674D02*
X12296253Y-15636198D01*
X12296253Y-15636198D02*
X12305777Y-15655246D01*
X12305777Y-15655246D02*
X12305777Y-15712388D01*
X12305777Y-15712388D02*
X12296253Y-15731436D01*
X12296253Y-15731436D02*
X12286730Y-15740960D01*
X12286730Y-15740960D02*
X12267682Y-15750484D01*
X12267682Y-15750484D02*
X12239110Y-15750484D01*
X12420063Y-15750484D02*
X12401015Y-15740960D01*
X12401015Y-15740960D02*
X12391491Y-15721912D01*
X12391491Y-15721912D02*
X12391491Y-15550484D01*
X12572444Y-15740960D02*
X12553396Y-15750484D01*
X12553396Y-15750484D02*
X12515301Y-15750484D01*
X12515301Y-15750484D02*
X12496253Y-15740960D01*
X12496253Y-15740960D02*
X12486730Y-15721912D01*
X12486730Y-15721912D02*
X12486730Y-15645722D01*
X12486730Y-15645722D02*
X12496253Y-15626674D01*
X12496253Y-15626674D02*
X12515301Y-15617150D01*
X12515301Y-15617150D02*
X12553396Y-15617150D01*
X12553396Y-15617150D02*
X12572444Y-15626674D01*
X12572444Y-15626674D02*
X12581968Y-15645722D01*
X12581968Y-15645722D02*
X12581968Y-15664769D01*
X12581968Y-15664769D02*
X12486730Y-15683817D01*
X12658158Y-15740960D02*
X12677206Y-15750484D01*
X12677206Y-15750484D02*
X12715301Y-15750484D01*
X12715301Y-15750484D02*
X12734349Y-15740960D01*
X12734349Y-15740960D02*
X12743872Y-15721912D01*
X12743872Y-15721912D02*
X12743872Y-15712388D01*
X12743872Y-15712388D02*
X12734349Y-15693341D01*
X12734349Y-15693341D02*
X12715301Y-15683817D01*
X12715301Y-15683817D02*
X12686730Y-15683817D01*
X12686730Y-15683817D02*
X12667682Y-15674293D01*
X12667682Y-15674293D02*
X12658158Y-15655246D01*
X12658158Y-15655246D02*
X12658158Y-15645722D01*
X12658158Y-15645722D02*
X12667682Y-15626674D01*
X12667682Y-15626674D02*
X12686730Y-15617150D01*
X12686730Y-15617150D02*
X12715301Y-15617150D01*
X12715301Y-15617150D02*
X12734349Y-15626674D01*
X12810539Y-15826674D02*
X12820063Y-15817150D01*
X12820063Y-15817150D02*
X12839111Y-15788579D01*
X12839111Y-15788579D02*
X12848634Y-15769531D01*
X12848634Y-15769531D02*
X12858158Y-15740960D01*
X12858158Y-15740960D02*
X12867682Y-15693341D01*
X12867682Y-15693341D02*
X12867682Y-15655246D01*
X12867682Y-15655246D02*
X12858158Y-15607627D01*
X12858158Y-15607627D02*
X12848634Y-15579055D01*
X12848634Y-15579055D02*
X12839111Y-15560008D01*
X12839111Y-15560008D02*
X12820063Y-15531436D01*
X12820063Y-15531436D02*
X12810539Y-15521912D01*
D10*
X7800000Y-15878000D02*
X7800000Y-15968000D01*
X7755000Y-15923000D02*
X7845000Y-15923000D01*
D11*
X8143872Y-15814484D02*
X8162920Y-15814484D01*
X8162920Y-15814484D02*
X8181967Y-15824008D01*
X8181967Y-15824008D02*
X8191491Y-15833531D01*
X8191491Y-15833531D02*
X8201015Y-15852579D01*
X8201015Y-15852579D02*
X8210539Y-15890674D01*
X8210539Y-15890674D02*
X8210539Y-15938293D01*
X8210539Y-15938293D02*
X8201015Y-15976388D01*
X8201015Y-15976388D02*
X8191491Y-15995436D01*
X8191491Y-15995436D02*
X8181967Y-16004960D01*
X8181967Y-16004960D02*
X8162920Y-16014484D01*
X8162920Y-16014484D02*
X8143872Y-16014484D01*
X8143872Y-16014484D02*
X8124824Y-16004960D01*
X8124824Y-16004960D02*
X8115301Y-15995436D01*
X8115301Y-15995436D02*
X8105777Y-15976388D01*
X8105777Y-15976388D02*
X8096253Y-15938293D01*
X8096253Y-15938293D02*
X8096253Y-15890674D01*
X8096253Y-15890674D02*
X8105777Y-15852579D01*
X8105777Y-15852579D02*
X8115301Y-15833531D01*
X8115301Y-15833531D02*
X8124824Y-15824008D01*
X8124824Y-15824008D02*
X8143872Y-15814484D01*
X8296253Y-15995436D02*
X8305777Y-16004960D01*
X8305777Y-16004960D02*
X8296253Y-16014484D01*
X8296253Y-16014484D02*
X8286729Y-16004960D01*
X8286729Y-16004960D02*
X8296253Y-15995436D01*
X8296253Y-15995436D02*
X8296253Y-16014484D01*
X8401015Y-16014484D02*
X8439110Y-16014484D01*
X8439110Y-16014484D02*
X8458158Y-16004960D01*
X8458158Y-16004960D02*
X8467682Y-15995436D01*
X8467682Y-15995436D02*
X8486729Y-15966865D01*
X8486729Y-15966865D02*
X8496253Y-15928769D01*
X8496253Y-15928769D02*
X8496253Y-15852579D01*
X8496253Y-15852579D02*
X8486729Y-15833531D01*
X8486729Y-15833531D02*
X8477205Y-15824008D01*
X8477205Y-15824008D02*
X8458158Y-15814484D01*
X8458158Y-15814484D02*
X8420063Y-15814484D01*
X8420063Y-15814484D02*
X8401015Y-15824008D01*
X8401015Y-15824008D02*
X8391491Y-15833531D01*
X8391491Y-15833531D02*
X8381967Y-15852579D01*
X8381967Y-15852579D02*
X8381967Y-15900198D01*
X8381967Y-15900198D02*
X8391491Y-15919246D01*
X8391491Y-15919246D02*
X8401015Y-15928769D01*
X8401015Y-15928769D02*
X8420063Y-15938293D01*
X8420063Y-15938293D02*
X8458158Y-15938293D01*
X8458158Y-15938293D02*
X8477205Y-15928769D01*
X8477205Y-15928769D02*
X8486729Y-15919246D01*
X8486729Y-15919246D02*
X8496253Y-15900198D01*
X8620063Y-15814484D02*
X8639110Y-15814484D01*
X8639110Y-15814484D02*
X8658158Y-15824008D01*
X8658158Y-15824008D02*
X8667682Y-15833531D01*
X8667682Y-15833531D02*
X8677205Y-15852579D01*
X8677205Y-15852579D02*
X8686729Y-15890674D01*
X8686729Y-15890674D02*
X8686729Y-15938293D01*
X8686729Y-15938293D02*
X8677205Y-15976388D01*
X8677205Y-15976388D02*
X8667682Y-15995436D01*
X8667682Y-15995436D02*
X8658158Y-16004960D01*
X8658158Y-16004960D02*
X8639110Y-16014484D01*
X8639110Y-16014484D02*
X8620063Y-16014484D01*
X8620063Y-16014484D02*
X8601015Y-16004960D01*
X8601015Y-16004960D02*
X8591491Y-15995436D01*
X8591491Y-15995436D02*
X8581967Y-15976388D01*
X8581967Y-15976388D02*
X8572444Y-15938293D01*
X8572444Y-15938293D02*
X8572444Y-15890674D01*
X8572444Y-15890674D02*
X8581967Y-15852579D01*
X8581967Y-15852579D02*
X8591491Y-15833531D01*
X8591491Y-15833531D02*
X8601015Y-15824008D01*
X8601015Y-15824008D02*
X8620063Y-15814484D01*
X8810539Y-15814484D02*
X8829586Y-15814484D01*
X8829586Y-15814484D02*
X8848634Y-15824008D01*
X8848634Y-15824008D02*
X8858158Y-15833531D01*
X8858158Y-15833531D02*
X8867682Y-15852579D01*
X8867682Y-15852579D02*
X8877205Y-15890674D01*
X8877205Y-15890674D02*
X8877205Y-15938293D01*
X8877205Y-15938293D02*
X8867682Y-15976388D01*
X8867682Y-15976388D02*
X8858158Y-15995436D01*
X8858158Y-15995436D02*
X8848634Y-16004960D01*
X8848634Y-16004960D02*
X8829586Y-16014484D01*
X8829586Y-16014484D02*
X8810539Y-16014484D01*
X8810539Y-16014484D02*
X8791491Y-16004960D01*
X8791491Y-16004960D02*
X8781967Y-15995436D01*
X8781967Y-15995436D02*
X8772444Y-15976388D01*
X8772444Y-15976388D02*
X8762920Y-15938293D01*
X8762920Y-15938293D02*
X8762920Y-15890674D01*
X8762920Y-15890674D02*
X8772444Y-15852579D01*
X8772444Y-15852579D02*
X8781967Y-15833531D01*
X8781967Y-15833531D02*
X8791491Y-15824008D01*
X8791491Y-15824008D02*
X8810539Y-15814484D01*
X8962920Y-16014484D02*
X8962920Y-15881150D01*
X8962920Y-15900198D02*
X8972444Y-15890674D01*
X8972444Y-15890674D02*
X8991491Y-15881150D01*
X8991491Y-15881150D02*
X9020063Y-15881150D01*
X9020063Y-15881150D02*
X9039110Y-15890674D01*
X9039110Y-15890674D02*
X9048634Y-15909722D01*
X9048634Y-15909722D02*
X9048634Y-16014484D01*
X9048634Y-15909722D02*
X9058158Y-15890674D01*
X9058158Y-15890674D02*
X9077205Y-15881150D01*
X9077205Y-15881150D02*
X9105777Y-15881150D01*
X9105777Y-15881150D02*
X9124825Y-15890674D01*
X9124825Y-15890674D02*
X9134348Y-15909722D01*
X9134348Y-15909722D02*
X9134348Y-16014484D01*
X9229586Y-16014484D02*
X9229586Y-15881150D01*
X9229586Y-15900198D02*
X9239110Y-15890674D01*
X9239110Y-15890674D02*
X9258158Y-15881150D01*
X9258158Y-15881150D02*
X9286729Y-15881150D01*
X9286729Y-15881150D02*
X9305777Y-15890674D01*
X9305777Y-15890674D02*
X9315301Y-15909722D01*
X9315301Y-15909722D02*
X9315301Y-16014484D01*
X9315301Y-15909722D02*
X9324825Y-15890674D01*
X9324825Y-15890674D02*
X9343872Y-15881150D01*
X9343872Y-15881150D02*
X9372444Y-15881150D01*
X9372444Y-15881150D02*
X9391491Y-15890674D01*
X9391491Y-15890674D02*
X9401015Y-15909722D01*
X9401015Y-15909722D02*
X9401015Y-16014484D01*
X9791491Y-15804960D02*
X9620063Y-16062103D01*
X10048634Y-15814484D02*
X10067682Y-15814484D01*
X10067682Y-15814484D02*
X10086729Y-15824008D01*
X10086729Y-15824008D02*
X10096253Y-15833531D01*
X10096253Y-15833531D02*
X10105777Y-15852579D01*
X10105777Y-15852579D02*
X10115301Y-15890674D01*
X10115301Y-15890674D02*
X10115301Y-15938293D01*
X10115301Y-15938293D02*
X10105777Y-15976388D01*
X10105777Y-15976388D02*
X10096253Y-15995436D01*
X10096253Y-15995436D02*
X10086729Y-16004960D01*
X10086729Y-16004960D02*
X10067682Y-16014484D01*
X10067682Y-16014484D02*
X10048634Y-16014484D01*
X10048634Y-16014484D02*
X10029587Y-16004960D01*
X10029587Y-16004960D02*
X10020063Y-15995436D01*
X10020063Y-15995436D02*
X10010539Y-15976388D01*
X10010539Y-15976388D02*
X10001015Y-15938293D01*
X10001015Y-15938293D02*
X10001015Y-15890674D01*
X10001015Y-15890674D02*
X10010539Y-15852579D01*
X10010539Y-15852579D02*
X10020063Y-15833531D01*
X10020063Y-15833531D02*
X10029587Y-15824008D01*
X10029587Y-15824008D02*
X10048634Y-15814484D01*
X10201015Y-15995436D02*
X10210539Y-16004960D01*
X10210539Y-16004960D02*
X10201015Y-16014484D01*
X10201015Y-16014484D02*
X10191491Y-16004960D01*
X10191491Y-16004960D02*
X10201015Y-15995436D01*
X10201015Y-15995436D02*
X10201015Y-16014484D01*
X10334348Y-15814484D02*
X10353396Y-15814484D01*
X10353396Y-15814484D02*
X10372444Y-15824008D01*
X10372444Y-15824008D02*
X10381968Y-15833531D01*
X10381968Y-15833531D02*
X10391491Y-15852579D01*
X10391491Y-15852579D02*
X10401015Y-15890674D01*
X10401015Y-15890674D02*
X10401015Y-15938293D01*
X10401015Y-15938293D02*
X10391491Y-15976388D01*
X10391491Y-15976388D02*
X10381968Y-15995436D01*
X10381968Y-15995436D02*
X10372444Y-16004960D01*
X10372444Y-16004960D02*
X10353396Y-16014484D01*
X10353396Y-16014484D02*
X10334348Y-16014484D01*
X10334348Y-16014484D02*
X10315301Y-16004960D01*
X10315301Y-16004960D02*
X10305777Y-15995436D01*
X10305777Y-15995436D02*
X10296253Y-15976388D01*
X10296253Y-15976388D02*
X10286729Y-15938293D01*
X10286729Y-15938293D02*
X10286729Y-15890674D01*
X10286729Y-15890674D02*
X10296253Y-15852579D01*
X10296253Y-15852579D02*
X10305777Y-15833531D01*
X10305777Y-15833531D02*
X10315301Y-15824008D01*
X10315301Y-15824008D02*
X10334348Y-15814484D01*
X10467682Y-15814484D02*
X10591491Y-15814484D01*
X10591491Y-15814484D02*
X10524825Y-15890674D01*
X10524825Y-15890674D02*
X10553396Y-15890674D01*
X10553396Y-15890674D02*
X10572444Y-15900198D01*
X10572444Y-15900198D02*
X10581968Y-15909722D01*
X10581968Y-15909722D02*
X10591491Y-15928769D01*
X10591491Y-15928769D02*
X10591491Y-15976388D01*
X10591491Y-15976388D02*
X10581968Y-15995436D01*
X10581968Y-15995436D02*
X10572444Y-16004960D01*
X10572444Y-16004960D02*
X10553396Y-16014484D01*
X10553396Y-16014484D02*
X10496253Y-16014484D01*
X10496253Y-16014484D02*
X10477206Y-16004960D01*
X10477206Y-16004960D02*
X10467682Y-15995436D01*
X10772444Y-15814484D02*
X10677206Y-15814484D01*
X10677206Y-15814484D02*
X10667682Y-15909722D01*
X10667682Y-15909722D02*
X10677206Y-15900198D01*
X10677206Y-15900198D02*
X10696253Y-15890674D01*
X10696253Y-15890674D02*
X10743872Y-15890674D01*
X10743872Y-15890674D02*
X10762920Y-15900198D01*
X10762920Y-15900198D02*
X10772444Y-15909722D01*
X10772444Y-15909722D02*
X10781968Y-15928769D01*
X10781968Y-15928769D02*
X10781968Y-15976388D01*
X10781968Y-15976388D02*
X10772444Y-15995436D01*
X10772444Y-15995436D02*
X10762920Y-16004960D01*
X10762920Y-16004960D02*
X10743872Y-16014484D01*
X10743872Y-16014484D02*
X10696253Y-16014484D01*
X10696253Y-16014484D02*
X10677206Y-16004960D01*
X10677206Y-16004960D02*
X10667682Y-15995436D01*
X10953396Y-15881150D02*
X10953396Y-16014484D01*
X10905777Y-15804960D02*
X10858158Y-15947817D01*
X10858158Y-15947817D02*
X10981968Y-15947817D01*
X11048634Y-15814484D02*
X11048634Y-15852579D01*
X11124825Y-15814484D02*
X11124825Y-15852579D01*
X11420063Y-16090674D02*
X11410539Y-16081150D01*
X11410539Y-16081150D02*
X11391491Y-16052579D01*
X11391491Y-16052579D02*
X11381968Y-16033531D01*
X11381968Y-16033531D02*
X11372444Y-16004960D01*
X11372444Y-16004960D02*
X11362920Y-15957341D01*
X11362920Y-15957341D02*
X11362920Y-15919246D01*
X11362920Y-15919246D02*
X11372444Y-15871627D01*
X11372444Y-15871627D02*
X11381968Y-15843055D01*
X11381968Y-15843055D02*
X11391491Y-15824008D01*
X11391491Y-15824008D02*
X11410539Y-15795436D01*
X11410539Y-15795436D02*
X11420063Y-15785912D01*
X11581968Y-15881150D02*
X11581968Y-16014484D01*
X11534348Y-15804960D02*
X11486729Y-15947817D01*
X11486729Y-15947817D02*
X11610539Y-15947817D01*
X11839110Y-16014484D02*
X11839110Y-15814484D01*
X11924825Y-16014484D02*
X11924825Y-15909722D01*
X11924825Y-15909722D02*
X11915301Y-15890674D01*
X11915301Y-15890674D02*
X11896253Y-15881150D01*
X11896253Y-15881150D02*
X11867682Y-15881150D01*
X11867682Y-15881150D02*
X11848634Y-15890674D01*
X11848634Y-15890674D02*
X11839110Y-15900198D01*
X12048634Y-16014484D02*
X12029587Y-16004960D01*
X12029587Y-16004960D02*
X12020063Y-15995436D01*
X12020063Y-15995436D02*
X12010539Y-15976388D01*
X12010539Y-15976388D02*
X12010539Y-15919246D01*
X12010539Y-15919246D02*
X12020063Y-15900198D01*
X12020063Y-15900198D02*
X12029587Y-15890674D01*
X12029587Y-15890674D02*
X12048634Y-15881150D01*
X12048634Y-15881150D02*
X12077206Y-15881150D01*
X12077206Y-15881150D02*
X12096253Y-15890674D01*
X12096253Y-15890674D02*
X12105777Y-15900198D01*
X12105777Y-15900198D02*
X12115301Y-15919246D01*
X12115301Y-15919246D02*
X12115301Y-15976388D01*
X12115301Y-15976388D02*
X12105777Y-15995436D01*
X12105777Y-15995436D02*
X12096253Y-16004960D01*
X12096253Y-16004960D02*
X12077206Y-16014484D01*
X12077206Y-16014484D02*
X12048634Y-16014484D01*
X12229587Y-16014484D02*
X12210539Y-16004960D01*
X12210539Y-16004960D02*
X12201015Y-15985912D01*
X12201015Y-15985912D02*
X12201015Y-15814484D01*
X12381968Y-16004960D02*
X12362920Y-16014484D01*
X12362920Y-16014484D02*
X12324825Y-16014484D01*
X12324825Y-16014484D02*
X12305777Y-16004960D01*
X12305777Y-16004960D02*
X12296253Y-15985912D01*
X12296253Y-15985912D02*
X12296253Y-15909722D01*
X12296253Y-15909722D02*
X12305777Y-15890674D01*
X12305777Y-15890674D02*
X12324825Y-15881150D01*
X12324825Y-15881150D02*
X12362920Y-15881150D01*
X12362920Y-15881150D02*
X12381968Y-15890674D01*
X12381968Y-15890674D02*
X12391491Y-15909722D01*
X12391491Y-15909722D02*
X12391491Y-15928769D01*
X12391491Y-15928769D02*
X12296253Y-15947817D01*
X12467682Y-16004960D02*
X12486730Y-16014484D01*
X12486730Y-16014484D02*
X12524825Y-16014484D01*
X12524825Y-16014484D02*
X12543872Y-16004960D01*
X12543872Y-16004960D02*
X12553396Y-15985912D01*
X12553396Y-15985912D02*
X12553396Y-15976388D01*
X12553396Y-15976388D02*
X12543872Y-15957341D01*
X12543872Y-15957341D02*
X12524825Y-15947817D01*
X12524825Y-15947817D02*
X12496253Y-15947817D01*
X12496253Y-15947817D02*
X12477206Y-15938293D01*
X12477206Y-15938293D02*
X12467682Y-15919246D01*
X12467682Y-15919246D02*
X12467682Y-15909722D01*
X12467682Y-15909722D02*
X12477206Y-15890674D01*
X12477206Y-15890674D02*
X12496253Y-15881150D01*
X12496253Y-15881150D02*
X12524825Y-15881150D01*
X12524825Y-15881150D02*
X12543872Y-15890674D01*
X12620063Y-16090674D02*
X12629587Y-16081150D01*
X12629587Y-16081150D02*
X12648634Y-16052579D01*
X12648634Y-16052579D02*
X12658158Y-16033531D01*
X12658158Y-16033531D02*
X12667682Y-16004960D01*
X12667682Y-16004960D02*
X12677206Y-15957341D01*
X12677206Y-15957341D02*
X12677206Y-15919246D01*
X12677206Y-15919246D02*
X12667682Y-15871627D01*
X12667682Y-15871627D02*
X12658158Y-15843055D01*
X12658158Y-15843055D02*
X12648634Y-15824008D01*
X12648634Y-15824008D02*
X12629587Y-15795436D01*
X12629587Y-15795436D02*
X12620063Y-15785912D01*
D10*
X7830356Y-16222356D02*
X7830356Y-16151644D01*
X7759644Y-16151644D01*
X7759644Y-16222356D01*
X7830356Y-16222356D01*
D11*
X8210539Y-16278484D02*
X8096253Y-16278484D01*
X8153396Y-16278484D02*
X8153396Y-16078484D01*
X8153396Y-16078484D02*
X8134348Y-16107055D01*
X8134348Y-16107055D02*
X8115301Y-16126103D01*
X8115301Y-16126103D02*
X8096253Y-16135627D01*
X8296253Y-16259436D02*
X8305777Y-16268960D01*
X8305777Y-16268960D02*
X8296253Y-16278484D01*
X8296253Y-16278484D02*
X8286729Y-16268960D01*
X8286729Y-16268960D02*
X8296253Y-16259436D01*
X8296253Y-16259436D02*
X8296253Y-16278484D01*
X8429586Y-16078484D02*
X8448634Y-16078484D01*
X8448634Y-16078484D02*
X8467682Y-16088008D01*
X8467682Y-16088008D02*
X8477205Y-16097531D01*
X8477205Y-16097531D02*
X8486729Y-16116579D01*
X8486729Y-16116579D02*
X8496253Y-16154674D01*
X8496253Y-16154674D02*
X8496253Y-16202293D01*
X8496253Y-16202293D02*
X8486729Y-16240388D01*
X8486729Y-16240388D02*
X8477205Y-16259436D01*
X8477205Y-16259436D02*
X8467682Y-16268960D01*
X8467682Y-16268960D02*
X8448634Y-16278484D01*
X8448634Y-16278484D02*
X8429586Y-16278484D01*
X8429586Y-16278484D02*
X8410539Y-16268960D01*
X8410539Y-16268960D02*
X8401015Y-16259436D01*
X8401015Y-16259436D02*
X8391491Y-16240388D01*
X8391491Y-16240388D02*
X8381967Y-16202293D01*
X8381967Y-16202293D02*
X8381967Y-16154674D01*
X8381967Y-16154674D02*
X8391491Y-16116579D01*
X8391491Y-16116579D02*
X8401015Y-16097531D01*
X8401015Y-16097531D02*
X8410539Y-16088008D01*
X8410539Y-16088008D02*
X8429586Y-16078484D01*
X8620063Y-16078484D02*
X8639110Y-16078484D01*
X8639110Y-16078484D02*
X8658158Y-16088008D01*
X8658158Y-16088008D02*
X8667682Y-16097531D01*
X8667682Y-16097531D02*
X8677205Y-16116579D01*
X8677205Y-16116579D02*
X8686729Y-16154674D01*
X8686729Y-16154674D02*
X8686729Y-16202293D01*
X8686729Y-16202293D02*
X8677205Y-16240388D01*
X8677205Y-16240388D02*
X8667682Y-16259436D01*
X8667682Y-16259436D02*
X8658158Y-16268960D01*
X8658158Y-16268960D02*
X8639110Y-16278484D01*
X8639110Y-16278484D02*
X8620063Y-16278484D01*
X8620063Y-16278484D02*
X8601015Y-16268960D01*
X8601015Y-16268960D02*
X8591491Y-16259436D01*
X8591491Y-16259436D02*
X8581967Y-16240388D01*
X8581967Y-16240388D02*
X8572444Y-16202293D01*
X8572444Y-16202293D02*
X8572444Y-16154674D01*
X8572444Y-16154674D02*
X8581967Y-16116579D01*
X8581967Y-16116579D02*
X8591491Y-16097531D01*
X8591491Y-16097531D02*
X8601015Y-16088008D01*
X8601015Y-16088008D02*
X8620063Y-16078484D01*
X8810539Y-16078484D02*
X8829586Y-16078484D01*
X8829586Y-16078484D02*
X8848634Y-16088008D01*
X8848634Y-16088008D02*
X8858158Y-16097531D01*
X8858158Y-16097531D02*
X8867682Y-16116579D01*
X8867682Y-16116579D02*
X8877205Y-16154674D01*
X8877205Y-16154674D02*
X8877205Y-16202293D01*
X8877205Y-16202293D02*
X8867682Y-16240388D01*
X8867682Y-16240388D02*
X8858158Y-16259436D01*
X8858158Y-16259436D02*
X8848634Y-16268960D01*
X8848634Y-16268960D02*
X8829586Y-16278484D01*
X8829586Y-16278484D02*
X8810539Y-16278484D01*
X8810539Y-16278484D02*
X8791491Y-16268960D01*
X8791491Y-16268960D02*
X8781967Y-16259436D01*
X8781967Y-16259436D02*
X8772444Y-16240388D01*
X8772444Y-16240388D02*
X8762920Y-16202293D01*
X8762920Y-16202293D02*
X8762920Y-16154674D01*
X8762920Y-16154674D02*
X8772444Y-16116579D01*
X8772444Y-16116579D02*
X8781967Y-16097531D01*
X8781967Y-16097531D02*
X8791491Y-16088008D01*
X8791491Y-16088008D02*
X8810539Y-16078484D01*
X8962920Y-16278484D02*
X8962920Y-16145150D01*
X8962920Y-16164198D02*
X8972444Y-16154674D01*
X8972444Y-16154674D02*
X8991491Y-16145150D01*
X8991491Y-16145150D02*
X9020063Y-16145150D01*
X9020063Y-16145150D02*
X9039110Y-16154674D01*
X9039110Y-16154674D02*
X9048634Y-16173722D01*
X9048634Y-16173722D02*
X9048634Y-16278484D01*
X9048634Y-16173722D02*
X9058158Y-16154674D01*
X9058158Y-16154674D02*
X9077205Y-16145150D01*
X9077205Y-16145150D02*
X9105777Y-16145150D01*
X9105777Y-16145150D02*
X9124825Y-16154674D01*
X9124825Y-16154674D02*
X9134348Y-16173722D01*
X9134348Y-16173722D02*
X9134348Y-16278484D01*
X9229586Y-16278484D02*
X9229586Y-16145150D01*
X9229586Y-16164198D02*
X9239110Y-16154674D01*
X9239110Y-16154674D02*
X9258158Y-16145150D01*
X9258158Y-16145150D02*
X9286729Y-16145150D01*
X9286729Y-16145150D02*
X9305777Y-16154674D01*
X9305777Y-16154674D02*
X9315301Y-16173722D01*
X9315301Y-16173722D02*
X9315301Y-16278484D01*
X9315301Y-16173722D02*
X9324825Y-16154674D01*
X9324825Y-16154674D02*
X9343872Y-16145150D01*
X9343872Y-16145150D02*
X9372444Y-16145150D01*
X9372444Y-16145150D02*
X9391491Y-16154674D01*
X9391491Y-16154674D02*
X9401015Y-16173722D01*
X9401015Y-16173722D02*
X9401015Y-16278484D01*
X9791491Y-16068960D02*
X9620063Y-16326103D01*
X10048634Y-16078484D02*
X10067682Y-16078484D01*
X10067682Y-16078484D02*
X10086729Y-16088008D01*
X10086729Y-16088008D02*
X10096253Y-16097531D01*
X10096253Y-16097531D02*
X10105777Y-16116579D01*
X10105777Y-16116579D02*
X10115301Y-16154674D01*
X10115301Y-16154674D02*
X10115301Y-16202293D01*
X10115301Y-16202293D02*
X10105777Y-16240388D01*
X10105777Y-16240388D02*
X10096253Y-16259436D01*
X10096253Y-16259436D02*
X10086729Y-16268960D01*
X10086729Y-16268960D02*
X10067682Y-16278484D01*
X10067682Y-16278484D02*
X10048634Y-16278484D01*
X10048634Y-16278484D02*
X10029587Y-16268960D01*
X10029587Y-16268960D02*
X10020063Y-16259436D01*
X10020063Y-16259436D02*
X10010539Y-16240388D01*
X10010539Y-16240388D02*
X10001015Y-16202293D01*
X10001015Y-16202293D02*
X10001015Y-16154674D01*
X10001015Y-16154674D02*
X10010539Y-16116579D01*
X10010539Y-16116579D02*
X10020063Y-16097531D01*
X10020063Y-16097531D02*
X10029587Y-16088008D01*
X10029587Y-16088008D02*
X10048634Y-16078484D01*
X10201015Y-16259436D02*
X10210539Y-16268960D01*
X10210539Y-16268960D02*
X10201015Y-16278484D01*
X10201015Y-16278484D02*
X10191491Y-16268960D01*
X10191491Y-16268960D02*
X10201015Y-16259436D01*
X10201015Y-16259436D02*
X10201015Y-16278484D01*
X10334348Y-16078484D02*
X10353396Y-16078484D01*
X10353396Y-16078484D02*
X10372444Y-16088008D01*
X10372444Y-16088008D02*
X10381968Y-16097531D01*
X10381968Y-16097531D02*
X10391491Y-16116579D01*
X10391491Y-16116579D02*
X10401015Y-16154674D01*
X10401015Y-16154674D02*
X10401015Y-16202293D01*
X10401015Y-16202293D02*
X10391491Y-16240388D01*
X10391491Y-16240388D02*
X10381968Y-16259436D01*
X10381968Y-16259436D02*
X10372444Y-16268960D01*
X10372444Y-16268960D02*
X10353396Y-16278484D01*
X10353396Y-16278484D02*
X10334348Y-16278484D01*
X10334348Y-16278484D02*
X10315301Y-16268960D01*
X10315301Y-16268960D02*
X10305777Y-16259436D01*
X10305777Y-16259436D02*
X10296253Y-16240388D01*
X10296253Y-16240388D02*
X10286729Y-16202293D01*
X10286729Y-16202293D02*
X10286729Y-16154674D01*
X10286729Y-16154674D02*
X10296253Y-16116579D01*
X10296253Y-16116579D02*
X10305777Y-16097531D01*
X10305777Y-16097531D02*
X10315301Y-16088008D01*
X10315301Y-16088008D02*
X10334348Y-16078484D01*
X10467682Y-16078484D02*
X10591491Y-16078484D01*
X10591491Y-16078484D02*
X10524825Y-16154674D01*
X10524825Y-16154674D02*
X10553396Y-16154674D01*
X10553396Y-16154674D02*
X10572444Y-16164198D01*
X10572444Y-16164198D02*
X10581968Y-16173722D01*
X10581968Y-16173722D02*
X10591491Y-16192769D01*
X10591491Y-16192769D02*
X10591491Y-16240388D01*
X10591491Y-16240388D02*
X10581968Y-16259436D01*
X10581968Y-16259436D02*
X10572444Y-16268960D01*
X10572444Y-16268960D02*
X10553396Y-16278484D01*
X10553396Y-16278484D02*
X10496253Y-16278484D01*
X10496253Y-16278484D02*
X10477206Y-16268960D01*
X10477206Y-16268960D02*
X10467682Y-16259436D01*
X10686729Y-16278484D02*
X10724825Y-16278484D01*
X10724825Y-16278484D02*
X10743872Y-16268960D01*
X10743872Y-16268960D02*
X10753396Y-16259436D01*
X10753396Y-16259436D02*
X10772444Y-16230865D01*
X10772444Y-16230865D02*
X10781968Y-16192769D01*
X10781968Y-16192769D02*
X10781968Y-16116579D01*
X10781968Y-16116579D02*
X10772444Y-16097531D01*
X10772444Y-16097531D02*
X10762920Y-16088008D01*
X10762920Y-16088008D02*
X10743872Y-16078484D01*
X10743872Y-16078484D02*
X10705777Y-16078484D01*
X10705777Y-16078484D02*
X10686729Y-16088008D01*
X10686729Y-16088008D02*
X10677206Y-16097531D01*
X10677206Y-16097531D02*
X10667682Y-16116579D01*
X10667682Y-16116579D02*
X10667682Y-16164198D01*
X10667682Y-16164198D02*
X10677206Y-16183246D01*
X10677206Y-16183246D02*
X10686729Y-16192769D01*
X10686729Y-16192769D02*
X10705777Y-16202293D01*
X10705777Y-16202293D02*
X10743872Y-16202293D01*
X10743872Y-16202293D02*
X10762920Y-16192769D01*
X10762920Y-16192769D02*
X10772444Y-16183246D01*
X10772444Y-16183246D02*
X10781968Y-16164198D01*
X10953396Y-16145150D02*
X10953396Y-16278484D01*
X10905777Y-16068960D02*
X10858158Y-16211817D01*
X10858158Y-16211817D02*
X10981968Y-16211817D01*
X11048634Y-16078484D02*
X11048634Y-16116579D01*
X11124825Y-16078484D02*
X11124825Y-16116579D01*
X11420063Y-16354674D02*
X11410539Y-16345150D01*
X11410539Y-16345150D02*
X11391491Y-16316579D01*
X11391491Y-16316579D02*
X11381968Y-16297531D01*
X11381968Y-16297531D02*
X11372444Y-16268960D01*
X11372444Y-16268960D02*
X11362920Y-16221341D01*
X11362920Y-16221341D02*
X11362920Y-16183246D01*
X11362920Y-16183246D02*
X11372444Y-16135627D01*
X11372444Y-16135627D02*
X11381968Y-16107055D01*
X11381968Y-16107055D02*
X11391491Y-16088008D01*
X11391491Y-16088008D02*
X11410539Y-16059436D01*
X11410539Y-16059436D02*
X11420063Y-16049912D01*
X11581968Y-16145150D02*
X11581968Y-16278484D01*
X11534348Y-16068960D02*
X11486729Y-16211817D01*
X11486729Y-16211817D02*
X11610539Y-16211817D01*
X11839110Y-16278484D02*
X11839110Y-16078484D01*
X11924825Y-16278484D02*
X11924825Y-16173722D01*
X11924825Y-16173722D02*
X11915301Y-16154674D01*
X11915301Y-16154674D02*
X11896253Y-16145150D01*
X11896253Y-16145150D02*
X11867682Y-16145150D01*
X11867682Y-16145150D02*
X11848634Y-16154674D01*
X11848634Y-16154674D02*
X11839110Y-16164198D01*
X12048634Y-16278484D02*
X12029587Y-16268960D01*
X12029587Y-16268960D02*
X12020063Y-16259436D01*
X12020063Y-16259436D02*
X12010539Y-16240388D01*
X12010539Y-16240388D02*
X12010539Y-16183246D01*
X12010539Y-16183246D02*
X12020063Y-16164198D01*
X12020063Y-16164198D02*
X12029587Y-16154674D01*
X12029587Y-16154674D02*
X12048634Y-16145150D01*
X12048634Y-16145150D02*
X12077206Y-16145150D01*
X12077206Y-16145150D02*
X12096253Y-16154674D01*
X12096253Y-16154674D02*
X12105777Y-16164198D01*
X12105777Y-16164198D02*
X12115301Y-16183246D01*
X12115301Y-16183246D02*
X12115301Y-16240388D01*
X12115301Y-16240388D02*
X12105777Y-16259436D01*
X12105777Y-16259436D02*
X12096253Y-16268960D01*
X12096253Y-16268960D02*
X12077206Y-16278484D01*
X12077206Y-16278484D02*
X12048634Y-16278484D01*
X12229587Y-16278484D02*
X12210539Y-16268960D01*
X12210539Y-16268960D02*
X12201015Y-16249912D01*
X12201015Y-16249912D02*
X12201015Y-16078484D01*
X12381968Y-16268960D02*
X12362920Y-16278484D01*
X12362920Y-16278484D02*
X12324825Y-16278484D01*
X12324825Y-16278484D02*
X12305777Y-16268960D01*
X12305777Y-16268960D02*
X12296253Y-16249912D01*
X12296253Y-16249912D02*
X12296253Y-16173722D01*
X12296253Y-16173722D02*
X12305777Y-16154674D01*
X12305777Y-16154674D02*
X12324825Y-16145150D01*
X12324825Y-16145150D02*
X12362920Y-16145150D01*
X12362920Y-16145150D02*
X12381968Y-16154674D01*
X12381968Y-16154674D02*
X12391491Y-16173722D01*
X12391491Y-16173722D02*
X12391491Y-16192769D01*
X12391491Y-16192769D02*
X12296253Y-16211817D01*
X12467682Y-16268960D02*
X12486730Y-16278484D01*
X12486730Y-16278484D02*
X12524825Y-16278484D01*
X12524825Y-16278484D02*
X12543872Y-16268960D01*
X12543872Y-16268960D02*
X12553396Y-16249912D01*
X12553396Y-16249912D02*
X12553396Y-16240388D01*
X12553396Y-16240388D02*
X12543872Y-16221341D01*
X12543872Y-16221341D02*
X12524825Y-16211817D01*
X12524825Y-16211817D02*
X12496253Y-16211817D01*
X12496253Y-16211817D02*
X12477206Y-16202293D01*
X12477206Y-16202293D02*
X12467682Y-16183246D01*
X12467682Y-16183246D02*
X12467682Y-16173722D01*
X12467682Y-16173722D02*
X12477206Y-16154674D01*
X12477206Y-16154674D02*
X12496253Y-16145150D01*
X12496253Y-16145150D02*
X12524825Y-16145150D01*
X12524825Y-16145150D02*
X12543872Y-16154674D01*
X12620063Y-16354674D02*
X12629587Y-16345150D01*
X12629587Y-16345150D02*
X12648634Y-16316579D01*
X12648634Y-16316579D02*
X12658158Y-16297531D01*
X12658158Y-16297531D02*
X12667682Y-16268960D01*
X12667682Y-16268960D02*
X12677206Y-16221341D01*
X12677206Y-16221341D02*
X12677206Y-16183246D01*
X12677206Y-16183246D02*
X12667682Y-16135627D01*
X12667682Y-16135627D02*
X12658158Y-16107055D01*
X12658158Y-16107055D02*
X12648634Y-16088008D01*
X12648634Y-16088008D02*
X12629587Y-16059436D01*
X12629587Y-16059436D02*
X12620063Y-16049912D01*
D12*
X7794000Y-16502000D02*
X7845000Y-16451000D01*
X7794000Y-16400000D01*
X7743000Y-16451000D01*
X7794000Y-16502000D01*
D11*
X8210539Y-16542484D02*
X8096253Y-16542484D01*
X8153396Y-16542484D02*
X8153396Y-16342484D01*
X8153396Y-16342484D02*
X8134348Y-16371055D01*
X8134348Y-16371055D02*
X8115301Y-16390103D01*
X8115301Y-16390103D02*
X8096253Y-16399627D01*
X8296253Y-16523436D02*
X8305777Y-16532960D01*
X8305777Y-16532960D02*
X8296253Y-16542484D01*
X8296253Y-16542484D02*
X8286729Y-16532960D01*
X8286729Y-16532960D02*
X8296253Y-16523436D01*
X8296253Y-16523436D02*
X8296253Y-16542484D01*
X8429586Y-16342484D02*
X8448634Y-16342484D01*
X8448634Y-16342484D02*
X8467682Y-16352008D01*
X8467682Y-16352008D02*
X8477205Y-16361531D01*
X8477205Y-16361531D02*
X8486729Y-16380579D01*
X8486729Y-16380579D02*
X8496253Y-16418674D01*
X8496253Y-16418674D02*
X8496253Y-16466293D01*
X8496253Y-16466293D02*
X8486729Y-16504388D01*
X8486729Y-16504388D02*
X8477205Y-16523436D01*
X8477205Y-16523436D02*
X8467682Y-16532960D01*
X8467682Y-16532960D02*
X8448634Y-16542484D01*
X8448634Y-16542484D02*
X8429586Y-16542484D01*
X8429586Y-16542484D02*
X8410539Y-16532960D01*
X8410539Y-16532960D02*
X8401015Y-16523436D01*
X8401015Y-16523436D02*
X8391491Y-16504388D01*
X8391491Y-16504388D02*
X8381967Y-16466293D01*
X8381967Y-16466293D02*
X8381967Y-16418674D01*
X8381967Y-16418674D02*
X8391491Y-16380579D01*
X8391491Y-16380579D02*
X8401015Y-16361531D01*
X8401015Y-16361531D02*
X8410539Y-16352008D01*
X8410539Y-16352008D02*
X8429586Y-16342484D01*
X8572444Y-16361531D02*
X8581967Y-16352008D01*
X8581967Y-16352008D02*
X8601015Y-16342484D01*
X8601015Y-16342484D02*
X8648634Y-16342484D01*
X8648634Y-16342484D02*
X8667682Y-16352008D01*
X8667682Y-16352008D02*
X8677205Y-16361531D01*
X8677205Y-16361531D02*
X8686729Y-16380579D01*
X8686729Y-16380579D02*
X8686729Y-16399627D01*
X8686729Y-16399627D02*
X8677205Y-16428198D01*
X8677205Y-16428198D02*
X8562920Y-16542484D01*
X8562920Y-16542484D02*
X8686729Y-16542484D01*
X8810539Y-16342484D02*
X8829586Y-16342484D01*
X8829586Y-16342484D02*
X8848634Y-16352008D01*
X8848634Y-16352008D02*
X8858158Y-16361531D01*
X8858158Y-16361531D02*
X8867682Y-16380579D01*
X8867682Y-16380579D02*
X8877205Y-16418674D01*
X8877205Y-16418674D02*
X8877205Y-16466293D01*
X8877205Y-16466293D02*
X8867682Y-16504388D01*
X8867682Y-16504388D02*
X8858158Y-16523436D01*
X8858158Y-16523436D02*
X8848634Y-16532960D01*
X8848634Y-16532960D02*
X8829586Y-16542484D01*
X8829586Y-16542484D02*
X8810539Y-16542484D01*
X8810539Y-16542484D02*
X8791491Y-16532960D01*
X8791491Y-16532960D02*
X8781967Y-16523436D01*
X8781967Y-16523436D02*
X8772444Y-16504388D01*
X8772444Y-16504388D02*
X8762920Y-16466293D01*
X8762920Y-16466293D02*
X8762920Y-16418674D01*
X8762920Y-16418674D02*
X8772444Y-16380579D01*
X8772444Y-16380579D02*
X8781967Y-16361531D01*
X8781967Y-16361531D02*
X8791491Y-16352008D01*
X8791491Y-16352008D02*
X8810539Y-16342484D01*
X8962920Y-16542484D02*
X8962920Y-16409150D01*
X8962920Y-16428198D02*
X8972444Y-16418674D01*
X8972444Y-16418674D02*
X8991491Y-16409150D01*
X8991491Y-16409150D02*
X9020063Y-16409150D01*
X9020063Y-16409150D02*
X9039110Y-16418674D01*
X9039110Y-16418674D02*
X9048634Y-16437722D01*
X9048634Y-16437722D02*
X9048634Y-16542484D01*
X9048634Y-16437722D02*
X9058158Y-16418674D01*
X9058158Y-16418674D02*
X9077205Y-16409150D01*
X9077205Y-16409150D02*
X9105777Y-16409150D01*
X9105777Y-16409150D02*
X9124825Y-16418674D01*
X9124825Y-16418674D02*
X9134348Y-16437722D01*
X9134348Y-16437722D02*
X9134348Y-16542484D01*
X9229586Y-16542484D02*
X9229586Y-16409150D01*
X9229586Y-16428198D02*
X9239110Y-16418674D01*
X9239110Y-16418674D02*
X9258158Y-16409150D01*
X9258158Y-16409150D02*
X9286729Y-16409150D01*
X9286729Y-16409150D02*
X9305777Y-16418674D01*
X9305777Y-16418674D02*
X9315301Y-16437722D01*
X9315301Y-16437722D02*
X9315301Y-16542484D01*
X9315301Y-16437722D02*
X9324825Y-16418674D01*
X9324825Y-16418674D02*
X9343872Y-16409150D01*
X9343872Y-16409150D02*
X9372444Y-16409150D01*
X9372444Y-16409150D02*
X9391491Y-16418674D01*
X9391491Y-16418674D02*
X9401015Y-16437722D01*
X9401015Y-16437722D02*
X9401015Y-16542484D01*
X9791491Y-16332960D02*
X9620063Y-16590103D01*
X10048634Y-16342484D02*
X10067682Y-16342484D01*
X10067682Y-16342484D02*
X10086729Y-16352008D01*
X10086729Y-16352008D02*
X10096253Y-16361531D01*
X10096253Y-16361531D02*
X10105777Y-16380579D01*
X10105777Y-16380579D02*
X10115301Y-16418674D01*
X10115301Y-16418674D02*
X10115301Y-16466293D01*
X10115301Y-16466293D02*
X10105777Y-16504388D01*
X10105777Y-16504388D02*
X10096253Y-16523436D01*
X10096253Y-16523436D02*
X10086729Y-16532960D01*
X10086729Y-16532960D02*
X10067682Y-16542484D01*
X10067682Y-16542484D02*
X10048634Y-16542484D01*
X10048634Y-16542484D02*
X10029587Y-16532960D01*
X10029587Y-16532960D02*
X10020063Y-16523436D01*
X10020063Y-16523436D02*
X10010539Y-16504388D01*
X10010539Y-16504388D02*
X10001015Y-16466293D01*
X10001015Y-16466293D02*
X10001015Y-16418674D01*
X10001015Y-16418674D02*
X10010539Y-16380579D01*
X10010539Y-16380579D02*
X10020063Y-16361531D01*
X10020063Y-16361531D02*
X10029587Y-16352008D01*
X10029587Y-16352008D02*
X10048634Y-16342484D01*
X10201015Y-16523436D02*
X10210539Y-16532960D01*
X10210539Y-16532960D02*
X10201015Y-16542484D01*
X10201015Y-16542484D02*
X10191491Y-16532960D01*
X10191491Y-16532960D02*
X10201015Y-16523436D01*
X10201015Y-16523436D02*
X10201015Y-16542484D01*
X10334348Y-16342484D02*
X10353396Y-16342484D01*
X10353396Y-16342484D02*
X10372444Y-16352008D01*
X10372444Y-16352008D02*
X10381968Y-16361531D01*
X10381968Y-16361531D02*
X10391491Y-16380579D01*
X10391491Y-16380579D02*
X10401015Y-16418674D01*
X10401015Y-16418674D02*
X10401015Y-16466293D01*
X10401015Y-16466293D02*
X10391491Y-16504388D01*
X10391491Y-16504388D02*
X10381968Y-16523436D01*
X10381968Y-16523436D02*
X10372444Y-16532960D01*
X10372444Y-16532960D02*
X10353396Y-16542484D01*
X10353396Y-16542484D02*
X10334348Y-16542484D01*
X10334348Y-16542484D02*
X10315301Y-16532960D01*
X10315301Y-16532960D02*
X10305777Y-16523436D01*
X10305777Y-16523436D02*
X10296253Y-16504388D01*
X10296253Y-16504388D02*
X10286729Y-16466293D01*
X10286729Y-16466293D02*
X10286729Y-16418674D01*
X10286729Y-16418674D02*
X10296253Y-16380579D01*
X10296253Y-16380579D02*
X10305777Y-16361531D01*
X10305777Y-16361531D02*
X10315301Y-16352008D01*
X10315301Y-16352008D02*
X10334348Y-16342484D01*
X10572444Y-16409150D02*
X10572444Y-16542484D01*
X10524825Y-16332960D02*
X10477206Y-16475817D01*
X10477206Y-16475817D02*
X10601015Y-16475817D01*
X10715301Y-16342484D02*
X10734349Y-16342484D01*
X10734349Y-16342484D02*
X10753396Y-16352008D01*
X10753396Y-16352008D02*
X10762920Y-16361531D01*
X10762920Y-16361531D02*
X10772444Y-16380579D01*
X10772444Y-16380579D02*
X10781968Y-16418674D01*
X10781968Y-16418674D02*
X10781968Y-16466293D01*
X10781968Y-16466293D02*
X10772444Y-16504388D01*
X10772444Y-16504388D02*
X10762920Y-16523436D01*
X10762920Y-16523436D02*
X10753396Y-16532960D01*
X10753396Y-16532960D02*
X10734349Y-16542484D01*
X10734349Y-16542484D02*
X10715301Y-16542484D01*
X10715301Y-16542484D02*
X10696253Y-16532960D01*
X10696253Y-16532960D02*
X10686729Y-16523436D01*
X10686729Y-16523436D02*
X10677206Y-16504388D01*
X10677206Y-16504388D02*
X10667682Y-16466293D01*
X10667682Y-16466293D02*
X10667682Y-16418674D01*
X10667682Y-16418674D02*
X10677206Y-16380579D01*
X10677206Y-16380579D02*
X10686729Y-16361531D01*
X10686729Y-16361531D02*
X10696253Y-16352008D01*
X10696253Y-16352008D02*
X10715301Y-16342484D01*
X10858158Y-16361531D02*
X10867682Y-16352008D01*
X10867682Y-16352008D02*
X10886729Y-16342484D01*
X10886729Y-16342484D02*
X10934349Y-16342484D01*
X10934349Y-16342484D02*
X10953396Y-16352008D01*
X10953396Y-16352008D02*
X10962920Y-16361531D01*
X10962920Y-16361531D02*
X10972444Y-16380579D01*
X10972444Y-16380579D02*
X10972444Y-16399627D01*
X10972444Y-16399627D02*
X10962920Y-16428198D01*
X10962920Y-16428198D02*
X10848634Y-16542484D01*
X10848634Y-16542484D02*
X10972444Y-16542484D01*
X11048634Y-16342484D02*
X11048634Y-16380579D01*
X11124825Y-16342484D02*
X11124825Y-16380579D01*
X11420063Y-16618674D02*
X11410539Y-16609150D01*
X11410539Y-16609150D02*
X11391491Y-16580579D01*
X11391491Y-16580579D02*
X11381968Y-16561531D01*
X11381968Y-16561531D02*
X11372444Y-16532960D01*
X11372444Y-16532960D02*
X11362920Y-16485341D01*
X11362920Y-16485341D02*
X11362920Y-16447246D01*
X11362920Y-16447246D02*
X11372444Y-16399627D01*
X11372444Y-16399627D02*
X11381968Y-16371055D01*
X11381968Y-16371055D02*
X11391491Y-16352008D01*
X11391491Y-16352008D02*
X11410539Y-16323436D01*
X11410539Y-16323436D02*
X11420063Y-16313912D01*
X11486729Y-16361531D02*
X11496253Y-16352008D01*
X11496253Y-16352008D02*
X11515301Y-16342484D01*
X11515301Y-16342484D02*
X11562920Y-16342484D01*
X11562920Y-16342484D02*
X11581968Y-16352008D01*
X11581968Y-16352008D02*
X11591491Y-16361531D01*
X11591491Y-16361531D02*
X11601015Y-16380579D01*
X11601015Y-16380579D02*
X11601015Y-16399627D01*
X11601015Y-16399627D02*
X11591491Y-16428198D01*
X11591491Y-16428198D02*
X11477206Y-16542484D01*
X11477206Y-16542484D02*
X11601015Y-16542484D01*
X11839110Y-16542484D02*
X11839110Y-16342484D01*
X11924825Y-16542484D02*
X11924825Y-16437722D01*
X11924825Y-16437722D02*
X11915301Y-16418674D01*
X11915301Y-16418674D02*
X11896253Y-16409150D01*
X11896253Y-16409150D02*
X11867682Y-16409150D01*
X11867682Y-16409150D02*
X11848634Y-16418674D01*
X11848634Y-16418674D02*
X11839110Y-16428198D01*
X12048634Y-16542484D02*
X12029587Y-16532960D01*
X12029587Y-16532960D02*
X12020063Y-16523436D01*
X12020063Y-16523436D02*
X12010539Y-16504388D01*
X12010539Y-16504388D02*
X12010539Y-16447246D01*
X12010539Y-16447246D02*
X12020063Y-16428198D01*
X12020063Y-16428198D02*
X12029587Y-16418674D01*
X12029587Y-16418674D02*
X12048634Y-16409150D01*
X12048634Y-16409150D02*
X12077206Y-16409150D01*
X12077206Y-16409150D02*
X12096253Y-16418674D01*
X12096253Y-16418674D02*
X12105777Y-16428198D01*
X12105777Y-16428198D02*
X12115301Y-16447246D01*
X12115301Y-16447246D02*
X12115301Y-16504388D01*
X12115301Y-16504388D02*
X12105777Y-16523436D01*
X12105777Y-16523436D02*
X12096253Y-16532960D01*
X12096253Y-16532960D02*
X12077206Y-16542484D01*
X12077206Y-16542484D02*
X12048634Y-16542484D01*
X12229587Y-16542484D02*
X12210539Y-16532960D01*
X12210539Y-16532960D02*
X12201015Y-16513912D01*
X12201015Y-16513912D02*
X12201015Y-16342484D01*
X12381968Y-16532960D02*
X12362920Y-16542484D01*
X12362920Y-16542484D02*
X12324825Y-16542484D01*
X12324825Y-16542484D02*
X12305777Y-16532960D01*
X12305777Y-16532960D02*
X12296253Y-16513912D01*
X12296253Y-16513912D02*
X12296253Y-16437722D01*
X12296253Y-16437722D02*
X12305777Y-16418674D01*
X12305777Y-16418674D02*
X12324825Y-16409150D01*
X12324825Y-16409150D02*
X12362920Y-16409150D01*
X12362920Y-16409150D02*
X12381968Y-16418674D01*
X12381968Y-16418674D02*
X12391491Y-16437722D01*
X12391491Y-16437722D02*
X12391491Y-16456769D01*
X12391491Y-16456769D02*
X12296253Y-16475817D01*
X12467682Y-16532960D02*
X12486730Y-16542484D01*
X12486730Y-16542484D02*
X12524825Y-16542484D01*
X12524825Y-16542484D02*
X12543872Y-16532960D01*
X12543872Y-16532960D02*
X12553396Y-16513912D01*
X12553396Y-16513912D02*
X12553396Y-16504388D01*
X12553396Y-16504388D02*
X12543872Y-16485341D01*
X12543872Y-16485341D02*
X12524825Y-16475817D01*
X12524825Y-16475817D02*
X12496253Y-16475817D01*
X12496253Y-16475817D02*
X12477206Y-16466293D01*
X12477206Y-16466293D02*
X12467682Y-16447246D01*
X12467682Y-16447246D02*
X12467682Y-16437722D01*
X12467682Y-16437722D02*
X12477206Y-16418674D01*
X12477206Y-16418674D02*
X12496253Y-16409150D01*
X12496253Y-16409150D02*
X12524825Y-16409150D01*
X12524825Y-16409150D02*
X12543872Y-16418674D01*
X12620063Y-16618674D02*
X12629587Y-16609150D01*
X12629587Y-16609150D02*
X12648634Y-16580579D01*
X12648634Y-16580579D02*
X12658158Y-16561531D01*
X12658158Y-16561531D02*
X12667682Y-16532960D01*
X12667682Y-16532960D02*
X12677206Y-16485341D01*
X12677206Y-16485341D02*
X12677206Y-16447246D01*
X12677206Y-16447246D02*
X12667682Y-16399627D01*
X12667682Y-16399627D02*
X12658158Y-16371055D01*
X12658158Y-16371055D02*
X12648634Y-16352008D01*
X12648634Y-16352008D02*
X12629587Y-16323436D01*
X12629587Y-16323436D02*
X12620063Y-16313912D01*
M02*
