M48
; DRILL file {KiCad 8.0.1} date 2024-04-18T16:05:35+0200
; FORMAT={-:-/ absolute / inch / decimal}
; #@! TF.CreationDate,2024-04-18T16:05:35+02:00
; #@! TF.GenerationSoftware,Kicad,Pcbnew,8.0.1
; #@! TF.FileFunction,Plated,1,2,PTH
FMAT,2
INCH
; #@! TA.AperFunction,Plated,PTH,ViaDrill
T1C0.0197
; #@! TA.AperFunction,Plated,PTH,ComponentDrill
T2C0.0236
; #@! TA.AperFunction,Plated,PTH,ComponentDrill
T3C0.0315
; #@! TA.AperFunction,Plated,PTH,ComponentDrill
T4C0.0354
; #@! TA.AperFunction,Plated,PTH,ComponentDrill
T5C0.0394
; #@! TA.AperFunction,Plated,PTH,ComponentDrill
T6C0.0402
%
G90
G05
T1
X2.0079Y-3.0512
X2.0669Y-2.2835
X2.1457Y-2.5591
X2.4409Y-3.6024
X2.5Y-2.3023
X2.5Y-2.4807
X2.5787Y-2.3023
X2.6378Y-3.6024
X2.8543Y-2.2327
X2.9921Y-3.189
X3.0709Y-3.3118
X3.1816Y-3.0959
X3.3268Y-2.3981
X3.3268Y-2.5
X3.3268Y-2.7538
X3.3268Y-2.8346
X3.438Y-2.5817
X3.4408Y-2.6733
X3.5113Y-2.5856
X3.5236Y-2.8543
X3.8839Y-2.6634
X3.8937Y-2.6043
T3
X2.2244Y-2.9528
X2.2244Y-3.1449
X2.3903Y-2.1906
X2.3903Y-2.2906
X2.3903Y-2.3906
X2.3903Y-2.4906
X2.3903Y-2.5906
X2.3903Y-2.6906
X2.3903Y-2.7906
X2.3903Y-2.8906
X2.3903Y-2.9906
X2.3903Y-3.0906
X2.3903Y-3.1906
X2.3903Y-3.2906
X2.3903Y-3.3906
X2.3903Y-3.4906
X2.6903Y-2.1906
X2.6903Y-2.2906
X2.6903Y-2.3906
X2.6903Y-2.4906
X2.6903Y-2.5906
X2.6903Y-2.6906
X2.6903Y-2.7906
X2.6903Y-2.8906
X2.6903Y-2.9906
X2.6903Y-3.0906
X2.6903Y-3.1906
X2.6903Y-3.2906
X2.6903Y-3.3906
X2.6903Y-3.4906
X3.878Y-3.1496
X3.9567Y-3.1496
T4
X2.0079Y-2.3622
X2.0079Y-2.4622
X2.0079Y-2.5689
X2.0079Y-2.6689
X2.2047Y-2.1545
X2.2047Y-2.2545
X2.2047Y-2.3616
X2.2047Y-2.4616
T5
X2.3425Y-3.7583
X2.3425Y-3.8583
X2.4425Y-3.7583
X2.4425Y-3.8583
X2.5425Y-3.7583
X2.5425Y-3.8583
T6
X3.0308Y-2.0118
X3.5308Y-2.0118
T2
G00X3.8325Y-2.4638
M15
G01X3.8758Y-2.4638
M16
G05
G00X3.8325Y-2.8039
M15
G01X3.8758Y-2.8039
M16
G05
G00X4.003Y-2.4638
M15
G01X4.0344Y-2.4638
M16
G05
G00X4.003Y-2.8039
M15
G01X4.0344Y-2.8039
M16
G05
M30
