%TF.GenerationSoftware,KiCad,Pcbnew,7.0.10*%
%TF.CreationDate,2024-01-09T16:20:14+01:00*%
%TF.ProjectId,mold_detect,6d6f6c64-5f64-4657-9465-63742e6b6963,rev?*%
%TF.SameCoordinates,Original*%
%TF.FileFunction,Soldermask,Bot*%
%TF.FilePolarity,Negative*%
%FSLAX46Y46*%
G04 Gerber Fmt 4.6, Leading zero omitted, Abs format (unit mm)*
G04 Created by KiCad (PCBNEW 7.0.10) date 2024-01-09 16:20:14*
%MOMM*%
%LPD*%
G01*
G04 APERTURE LIST*
%ADD10O,1.700000X1.700000*%
%ADD11R,1.700000X1.700000*%
%ADD12C,3.450000*%
%ADD13R,2.000000X2.000000*%
%ADD14C,2.000000*%
%ADD15C,3.200000*%
%ADD16R,1.800000X1.800000*%
%ADD17C,1.800000*%
%ADD18O,1.600000X1.600000*%
%ADD19R,1.600000X1.600000*%
G04 APERTURE END LIST*
D10*
%TO.C,J2*%
X106700000Y-81280000D03*
X106700000Y-83820000D03*
X106700000Y-86360000D03*
D11*
X106700000Y-88900000D03*
%TD*%
D12*
%TO.C,BT1*%
X89650000Y-128210000D03*
D13*
X98350000Y-89600000D03*
D14*
X85650000Y-89600000D03*
%TD*%
D15*
%TO.C,H4*%
X112000000Y-83000000D03*
%TD*%
D16*
%TO.C,Red1*%
X97200000Y-144975000D03*
D17*
X97200000Y-142435000D03*
%TD*%
D16*
%TO.C,Blue1*%
X105400000Y-144975000D03*
D17*
X105400000Y-142435000D03*
%TD*%
D15*
%TO.C,H1*%
X82000000Y-144000000D03*
%TD*%
%TO.C,H2*%
X82000000Y-83000000D03*
%TD*%
%TO.C,H3*%
X112000000Y-144000000D03*
%TD*%
D18*
%TO.C,U3*%
X113645000Y-93917107D03*
X113645000Y-96457107D03*
X113645000Y-98997107D03*
X113645000Y-101537107D03*
X113645000Y-104077107D03*
X113645000Y-106617107D03*
X113645000Y-109157107D03*
X113645000Y-111697107D03*
X113645000Y-114237107D03*
X113645000Y-116777107D03*
X113645000Y-119317107D03*
X113645000Y-121857107D03*
X113645000Y-124397107D03*
X113645000Y-126937107D03*
X106025000Y-126937107D03*
X106025000Y-124397107D03*
X106025000Y-121857107D03*
X106025000Y-119317107D03*
X106025000Y-116777107D03*
X106025000Y-114237107D03*
X106025000Y-111697107D03*
X106025000Y-109157107D03*
X106025000Y-106617107D03*
X106025000Y-104077107D03*
X106025000Y-101537107D03*
X106025000Y-98997107D03*
X106025000Y-96457107D03*
D19*
X106025000Y-93917107D03*
%TD*%
M02*
