%TF.GenerationSoftware,KiCad,Pcbnew,7.0.10*%
%TF.CreationDate,2024-01-15T09:17:29+01:00*%
%TF.ProjectId,mold_detect,6d6f6c64-5f64-4657-9465-63742e6b6963,rev?*%
%TF.SameCoordinates,Original*%
%TF.FileFunction,Drillmap*%
%TF.FilePolarity,Positive*%
%FSLAX45Y45*%
G04 Gerber Fmt 4.5, Leading zero omitted, Abs format (unit mm)*
G04 Created by KiCad (PCBNEW 7.0.10) date 2024-01-15 09:17:29*
%MOMM*%
%LPD*%
G01*
G04 APERTURE LIST*
%ADD10C,0.100000*%
%ADD11C,0.200000*%
%ADD12C,0.320000*%
%ADD13C,0.345000*%
G04 APERTURE END LIST*
D10*
X7850000Y-8105000D02*
X7850000Y-14400000D01*
X11200000Y-14750000D02*
G75*
G03*
X11550000Y-14400000I0J350000D01*
G01*
X8200000Y-14750000D02*
X11200000Y-14750000D01*
X7850000Y-14400000D02*
G75*
G03*
X8200000Y-14750000I350000J0D01*
G01*
X8200000Y-7755000D02*
X11200000Y-7755000D01*
X8200000Y-7755000D02*
G75*
G03*
X7850000Y-8105000I0J-350000D01*
G01*
X11550000Y-8105000D02*
X11550000Y-14400000D01*
X11550000Y-8105000D02*
G75*
G03*
X11200000Y-7755000I-350000J0D01*
G01*
D11*
D10*
X9738500Y-8242500D02*
X9803500Y-8307500D01*
X9803500Y-8242500D02*
X9738500Y-8307500D01*
X10316500Y-8242500D02*
X10381500Y-8307500D01*
X10381500Y-8242500D02*
X10316500Y-8307500D01*
D12*
X8360000Y-8100000D02*
G75*
G03*
X8040000Y-8100000I-160000J0D01*
G01*
X8040000Y-8100000D02*
G75*
G03*
X8360000Y-8100000I160000J0D01*
G01*
X8360000Y-14400000D02*
G75*
G03*
X8040000Y-14400000I-160000J0D01*
G01*
X8040000Y-14400000D02*
G75*
G03*
X8360000Y-14400000I160000J0D01*
G01*
X11360000Y-8100000D02*
G75*
G03*
X11040000Y-8100000I-160000J0D01*
G01*
X11040000Y-8100000D02*
G75*
G03*
X11360000Y-8100000I160000J0D01*
G01*
X11360000Y-14400000D02*
G75*
G03*
X11040000Y-14400000I-160000J0D01*
G01*
X11040000Y-14400000D02*
G75*
G03*
X11360000Y-14400000I160000J0D01*
G01*
D13*
X8965000Y-12648500D02*
X8965000Y-12993500D01*
X8792500Y-12821000D02*
X9137500Y-12821000D01*
X9435000Y-9651500D02*
X9435000Y-9996500D01*
X9262500Y-9824000D02*
X9607500Y-9824000D01*
D11*
X8105777Y-15066484D02*
X8105777Y-14866484D01*
X8105777Y-14866484D02*
X8153396Y-14866484D01*
X8153396Y-14866484D02*
X8181967Y-14876008D01*
X8181967Y-14876008D02*
X8201015Y-14895055D01*
X8201015Y-14895055D02*
X8210539Y-14914103D01*
X8210539Y-14914103D02*
X8220062Y-14952198D01*
X8220062Y-14952198D02*
X8220062Y-14980769D01*
X8220062Y-14980769D02*
X8210539Y-15018865D01*
X8210539Y-15018865D02*
X8201015Y-15037912D01*
X8201015Y-15037912D02*
X8181967Y-15056960D01*
X8181967Y-15056960D02*
X8153396Y-15066484D01*
X8153396Y-15066484D02*
X8105777Y-15066484D01*
X8305777Y-15066484D02*
X8305777Y-14933150D01*
X8305777Y-14971246D02*
X8315301Y-14952198D01*
X8315301Y-14952198D02*
X8324824Y-14942674D01*
X8324824Y-14942674D02*
X8343872Y-14933150D01*
X8343872Y-14933150D02*
X8362920Y-14933150D01*
X8429586Y-15066484D02*
X8429586Y-14933150D01*
X8429586Y-14866484D02*
X8420063Y-14876008D01*
X8420063Y-14876008D02*
X8429586Y-14885531D01*
X8429586Y-14885531D02*
X8439110Y-14876008D01*
X8439110Y-14876008D02*
X8429586Y-14866484D01*
X8429586Y-14866484D02*
X8429586Y-14885531D01*
X8553396Y-15066484D02*
X8534348Y-15056960D01*
X8534348Y-15056960D02*
X8524824Y-15037912D01*
X8524824Y-15037912D02*
X8524824Y-14866484D01*
X8658158Y-15066484D02*
X8639110Y-15056960D01*
X8639110Y-15056960D02*
X8629586Y-15037912D01*
X8629586Y-15037912D02*
X8629586Y-14866484D01*
X8886729Y-15066484D02*
X8886729Y-14866484D01*
X8886729Y-14866484D02*
X8953396Y-15009341D01*
X8953396Y-15009341D02*
X9020063Y-14866484D01*
X9020063Y-14866484D02*
X9020063Y-15066484D01*
X9201015Y-15066484D02*
X9201015Y-14961722D01*
X9201015Y-14961722D02*
X9191491Y-14942674D01*
X9191491Y-14942674D02*
X9172444Y-14933150D01*
X9172444Y-14933150D02*
X9134348Y-14933150D01*
X9134348Y-14933150D02*
X9115301Y-14942674D01*
X9201015Y-15056960D02*
X9181967Y-15066484D01*
X9181967Y-15066484D02*
X9134348Y-15066484D01*
X9134348Y-15066484D02*
X9115301Y-15056960D01*
X9115301Y-15056960D02*
X9105777Y-15037912D01*
X9105777Y-15037912D02*
X9105777Y-15018865D01*
X9105777Y-15018865D02*
X9115301Y-14999817D01*
X9115301Y-14999817D02*
X9134348Y-14990293D01*
X9134348Y-14990293D02*
X9181967Y-14990293D01*
X9181967Y-14990293D02*
X9201015Y-14980769D01*
X9296253Y-14933150D02*
X9296253Y-15133150D01*
X9296253Y-14942674D02*
X9315301Y-14933150D01*
X9315301Y-14933150D02*
X9353396Y-14933150D01*
X9353396Y-14933150D02*
X9372444Y-14942674D01*
X9372444Y-14942674D02*
X9381967Y-14952198D01*
X9381967Y-14952198D02*
X9391491Y-14971246D01*
X9391491Y-14971246D02*
X9391491Y-15028388D01*
X9391491Y-15028388D02*
X9381967Y-15047436D01*
X9381967Y-15047436D02*
X9372444Y-15056960D01*
X9372444Y-15056960D02*
X9353396Y-15066484D01*
X9353396Y-15066484D02*
X9315301Y-15066484D01*
X9315301Y-15066484D02*
X9296253Y-15056960D01*
X9477205Y-15047436D02*
X9486729Y-15056960D01*
X9486729Y-15056960D02*
X9477205Y-15066484D01*
X9477205Y-15066484D02*
X9467682Y-15056960D01*
X9467682Y-15056960D02*
X9477205Y-15047436D01*
X9477205Y-15047436D02*
X9477205Y-15066484D01*
X9477205Y-14942674D02*
X9486729Y-14952198D01*
X9486729Y-14952198D02*
X9477205Y-14961722D01*
X9477205Y-14961722D02*
X9467682Y-14952198D01*
X9467682Y-14952198D02*
X9477205Y-14942674D01*
X9477205Y-14942674D02*
X9477205Y-14961722D01*
D10*
X7780000Y-15362500D02*
X7845000Y-15427500D01*
X7845000Y-15362500D02*
X7780000Y-15427500D01*
D11*
X8143872Y-15286484D02*
X8162920Y-15286484D01*
X8162920Y-15286484D02*
X8181967Y-15296008D01*
X8181967Y-15296008D02*
X8191491Y-15305531D01*
X8191491Y-15305531D02*
X8201015Y-15324579D01*
X8201015Y-15324579D02*
X8210539Y-15362674D01*
X8210539Y-15362674D02*
X8210539Y-15410293D01*
X8210539Y-15410293D02*
X8201015Y-15448388D01*
X8201015Y-15448388D02*
X8191491Y-15467436D01*
X8191491Y-15467436D02*
X8181967Y-15476960D01*
X8181967Y-15476960D02*
X8162920Y-15486484D01*
X8162920Y-15486484D02*
X8143872Y-15486484D01*
X8143872Y-15486484D02*
X8124824Y-15476960D01*
X8124824Y-15476960D02*
X8115301Y-15467436D01*
X8115301Y-15467436D02*
X8105777Y-15448388D01*
X8105777Y-15448388D02*
X8096253Y-15410293D01*
X8096253Y-15410293D02*
X8096253Y-15362674D01*
X8096253Y-15362674D02*
X8105777Y-15324579D01*
X8105777Y-15324579D02*
X8115301Y-15305531D01*
X8115301Y-15305531D02*
X8124824Y-15296008D01*
X8124824Y-15296008D02*
X8143872Y-15286484D01*
X8296253Y-15467436D02*
X8305777Y-15476960D01*
X8305777Y-15476960D02*
X8296253Y-15486484D01*
X8296253Y-15486484D02*
X8286729Y-15476960D01*
X8286729Y-15476960D02*
X8296253Y-15467436D01*
X8296253Y-15467436D02*
X8296253Y-15486484D01*
X8477205Y-15286484D02*
X8439110Y-15286484D01*
X8439110Y-15286484D02*
X8420063Y-15296008D01*
X8420063Y-15296008D02*
X8410539Y-15305531D01*
X8410539Y-15305531D02*
X8391491Y-15334103D01*
X8391491Y-15334103D02*
X8381967Y-15372198D01*
X8381967Y-15372198D02*
X8381967Y-15448388D01*
X8381967Y-15448388D02*
X8391491Y-15467436D01*
X8391491Y-15467436D02*
X8401015Y-15476960D01*
X8401015Y-15476960D02*
X8420063Y-15486484D01*
X8420063Y-15486484D02*
X8458158Y-15486484D01*
X8458158Y-15486484D02*
X8477205Y-15476960D01*
X8477205Y-15476960D02*
X8486729Y-15467436D01*
X8486729Y-15467436D02*
X8496253Y-15448388D01*
X8496253Y-15448388D02*
X8496253Y-15400769D01*
X8496253Y-15400769D02*
X8486729Y-15381722D01*
X8486729Y-15381722D02*
X8477205Y-15372198D01*
X8477205Y-15372198D02*
X8458158Y-15362674D01*
X8458158Y-15362674D02*
X8420063Y-15362674D01*
X8420063Y-15362674D02*
X8401015Y-15372198D01*
X8401015Y-15372198D02*
X8391491Y-15381722D01*
X8391491Y-15381722D02*
X8381967Y-15400769D01*
X8677205Y-15286484D02*
X8581967Y-15286484D01*
X8581967Y-15286484D02*
X8572444Y-15381722D01*
X8572444Y-15381722D02*
X8581967Y-15372198D01*
X8581967Y-15372198D02*
X8601015Y-15362674D01*
X8601015Y-15362674D02*
X8648634Y-15362674D01*
X8648634Y-15362674D02*
X8667682Y-15372198D01*
X8667682Y-15372198D02*
X8677205Y-15381722D01*
X8677205Y-15381722D02*
X8686729Y-15400769D01*
X8686729Y-15400769D02*
X8686729Y-15448388D01*
X8686729Y-15448388D02*
X8677205Y-15467436D01*
X8677205Y-15467436D02*
X8667682Y-15476960D01*
X8667682Y-15476960D02*
X8648634Y-15486484D01*
X8648634Y-15486484D02*
X8601015Y-15486484D01*
X8601015Y-15486484D02*
X8581967Y-15476960D01*
X8581967Y-15476960D02*
X8572444Y-15467436D01*
X8810539Y-15286484D02*
X8829586Y-15286484D01*
X8829586Y-15286484D02*
X8848634Y-15296008D01*
X8848634Y-15296008D02*
X8858158Y-15305531D01*
X8858158Y-15305531D02*
X8867682Y-15324579D01*
X8867682Y-15324579D02*
X8877205Y-15362674D01*
X8877205Y-15362674D02*
X8877205Y-15410293D01*
X8877205Y-15410293D02*
X8867682Y-15448388D01*
X8867682Y-15448388D02*
X8858158Y-15467436D01*
X8858158Y-15467436D02*
X8848634Y-15476960D01*
X8848634Y-15476960D02*
X8829586Y-15486484D01*
X8829586Y-15486484D02*
X8810539Y-15486484D01*
X8810539Y-15486484D02*
X8791491Y-15476960D01*
X8791491Y-15476960D02*
X8781967Y-15467436D01*
X8781967Y-15467436D02*
X8772444Y-15448388D01*
X8772444Y-15448388D02*
X8762920Y-15410293D01*
X8762920Y-15410293D02*
X8762920Y-15362674D01*
X8762920Y-15362674D02*
X8772444Y-15324579D01*
X8772444Y-15324579D02*
X8781967Y-15305531D01*
X8781967Y-15305531D02*
X8791491Y-15296008D01*
X8791491Y-15296008D02*
X8810539Y-15286484D01*
X8962920Y-15486484D02*
X8962920Y-15353150D01*
X8962920Y-15372198D02*
X8972444Y-15362674D01*
X8972444Y-15362674D02*
X8991491Y-15353150D01*
X8991491Y-15353150D02*
X9020063Y-15353150D01*
X9020063Y-15353150D02*
X9039110Y-15362674D01*
X9039110Y-15362674D02*
X9048634Y-15381722D01*
X9048634Y-15381722D02*
X9048634Y-15486484D01*
X9048634Y-15381722D02*
X9058158Y-15362674D01*
X9058158Y-15362674D02*
X9077205Y-15353150D01*
X9077205Y-15353150D02*
X9105777Y-15353150D01*
X9105777Y-15353150D02*
X9124825Y-15362674D01*
X9124825Y-15362674D02*
X9134348Y-15381722D01*
X9134348Y-15381722D02*
X9134348Y-15486484D01*
X9229586Y-15486484D02*
X9229586Y-15353150D01*
X9229586Y-15372198D02*
X9239110Y-15362674D01*
X9239110Y-15362674D02*
X9258158Y-15353150D01*
X9258158Y-15353150D02*
X9286729Y-15353150D01*
X9286729Y-15353150D02*
X9305777Y-15362674D01*
X9305777Y-15362674D02*
X9315301Y-15381722D01*
X9315301Y-15381722D02*
X9315301Y-15486484D01*
X9315301Y-15381722D02*
X9324825Y-15362674D01*
X9324825Y-15362674D02*
X9343872Y-15353150D01*
X9343872Y-15353150D02*
X9372444Y-15353150D01*
X9372444Y-15353150D02*
X9391491Y-15362674D01*
X9391491Y-15362674D02*
X9401015Y-15381722D01*
X9401015Y-15381722D02*
X9401015Y-15486484D01*
X9791491Y-15276960D02*
X9620063Y-15534103D01*
X10048634Y-15286484D02*
X10067682Y-15286484D01*
X10067682Y-15286484D02*
X10086729Y-15296008D01*
X10086729Y-15296008D02*
X10096253Y-15305531D01*
X10096253Y-15305531D02*
X10105777Y-15324579D01*
X10105777Y-15324579D02*
X10115301Y-15362674D01*
X10115301Y-15362674D02*
X10115301Y-15410293D01*
X10115301Y-15410293D02*
X10105777Y-15448388D01*
X10105777Y-15448388D02*
X10096253Y-15467436D01*
X10096253Y-15467436D02*
X10086729Y-15476960D01*
X10086729Y-15476960D02*
X10067682Y-15486484D01*
X10067682Y-15486484D02*
X10048634Y-15486484D01*
X10048634Y-15486484D02*
X10029587Y-15476960D01*
X10029587Y-15476960D02*
X10020063Y-15467436D01*
X10020063Y-15467436D02*
X10010539Y-15448388D01*
X10010539Y-15448388D02*
X10001015Y-15410293D01*
X10001015Y-15410293D02*
X10001015Y-15362674D01*
X10001015Y-15362674D02*
X10010539Y-15324579D01*
X10010539Y-15324579D02*
X10020063Y-15305531D01*
X10020063Y-15305531D02*
X10029587Y-15296008D01*
X10029587Y-15296008D02*
X10048634Y-15286484D01*
X10201015Y-15467436D02*
X10210539Y-15476960D01*
X10210539Y-15476960D02*
X10201015Y-15486484D01*
X10201015Y-15486484D02*
X10191491Y-15476960D01*
X10191491Y-15476960D02*
X10201015Y-15467436D01*
X10201015Y-15467436D02*
X10201015Y-15486484D01*
X10334348Y-15286484D02*
X10353396Y-15286484D01*
X10353396Y-15286484D02*
X10372444Y-15296008D01*
X10372444Y-15296008D02*
X10381968Y-15305531D01*
X10381968Y-15305531D02*
X10391491Y-15324579D01*
X10391491Y-15324579D02*
X10401015Y-15362674D01*
X10401015Y-15362674D02*
X10401015Y-15410293D01*
X10401015Y-15410293D02*
X10391491Y-15448388D01*
X10391491Y-15448388D02*
X10381968Y-15467436D01*
X10381968Y-15467436D02*
X10372444Y-15476960D01*
X10372444Y-15476960D02*
X10353396Y-15486484D01*
X10353396Y-15486484D02*
X10334348Y-15486484D01*
X10334348Y-15486484D02*
X10315301Y-15476960D01*
X10315301Y-15476960D02*
X10305777Y-15467436D01*
X10305777Y-15467436D02*
X10296253Y-15448388D01*
X10296253Y-15448388D02*
X10286729Y-15410293D01*
X10286729Y-15410293D02*
X10286729Y-15362674D01*
X10286729Y-15362674D02*
X10296253Y-15324579D01*
X10296253Y-15324579D02*
X10305777Y-15305531D01*
X10305777Y-15305531D02*
X10315301Y-15296008D01*
X10315301Y-15296008D02*
X10334348Y-15286484D01*
X10477206Y-15305531D02*
X10486729Y-15296008D01*
X10486729Y-15296008D02*
X10505777Y-15286484D01*
X10505777Y-15286484D02*
X10553396Y-15286484D01*
X10553396Y-15286484D02*
X10572444Y-15296008D01*
X10572444Y-15296008D02*
X10581968Y-15305531D01*
X10581968Y-15305531D02*
X10591491Y-15324579D01*
X10591491Y-15324579D02*
X10591491Y-15343627D01*
X10591491Y-15343627D02*
X10581968Y-15372198D01*
X10581968Y-15372198D02*
X10467682Y-15486484D01*
X10467682Y-15486484D02*
X10591491Y-15486484D01*
X10772444Y-15286484D02*
X10677206Y-15286484D01*
X10677206Y-15286484D02*
X10667682Y-15381722D01*
X10667682Y-15381722D02*
X10677206Y-15372198D01*
X10677206Y-15372198D02*
X10696253Y-15362674D01*
X10696253Y-15362674D02*
X10743872Y-15362674D01*
X10743872Y-15362674D02*
X10762920Y-15372198D01*
X10762920Y-15372198D02*
X10772444Y-15381722D01*
X10772444Y-15381722D02*
X10781968Y-15400769D01*
X10781968Y-15400769D02*
X10781968Y-15448388D01*
X10781968Y-15448388D02*
X10772444Y-15467436D01*
X10772444Y-15467436D02*
X10762920Y-15476960D01*
X10762920Y-15476960D02*
X10743872Y-15486484D01*
X10743872Y-15486484D02*
X10696253Y-15486484D01*
X10696253Y-15486484D02*
X10677206Y-15476960D01*
X10677206Y-15476960D02*
X10667682Y-15467436D01*
X10953396Y-15286484D02*
X10915301Y-15286484D01*
X10915301Y-15286484D02*
X10896253Y-15296008D01*
X10896253Y-15296008D02*
X10886729Y-15305531D01*
X10886729Y-15305531D02*
X10867682Y-15334103D01*
X10867682Y-15334103D02*
X10858158Y-15372198D01*
X10858158Y-15372198D02*
X10858158Y-15448388D01*
X10858158Y-15448388D02*
X10867682Y-15467436D01*
X10867682Y-15467436D02*
X10877206Y-15476960D01*
X10877206Y-15476960D02*
X10896253Y-15486484D01*
X10896253Y-15486484D02*
X10934349Y-15486484D01*
X10934349Y-15486484D02*
X10953396Y-15476960D01*
X10953396Y-15476960D02*
X10962920Y-15467436D01*
X10962920Y-15467436D02*
X10972444Y-15448388D01*
X10972444Y-15448388D02*
X10972444Y-15400769D01*
X10972444Y-15400769D02*
X10962920Y-15381722D01*
X10962920Y-15381722D02*
X10953396Y-15372198D01*
X10953396Y-15372198D02*
X10934349Y-15362674D01*
X10934349Y-15362674D02*
X10896253Y-15362674D01*
X10896253Y-15362674D02*
X10877206Y-15372198D01*
X10877206Y-15372198D02*
X10867682Y-15381722D01*
X10867682Y-15381722D02*
X10858158Y-15400769D01*
X11048634Y-15286484D02*
X11048634Y-15324579D01*
X11124825Y-15286484D02*
X11124825Y-15324579D01*
X11420063Y-15562674D02*
X11410539Y-15553150D01*
X11410539Y-15553150D02*
X11391491Y-15524579D01*
X11391491Y-15524579D02*
X11381968Y-15505531D01*
X11381968Y-15505531D02*
X11372444Y-15476960D01*
X11372444Y-15476960D02*
X11362920Y-15429341D01*
X11362920Y-15429341D02*
X11362920Y-15391246D01*
X11362920Y-15391246D02*
X11372444Y-15343627D01*
X11372444Y-15343627D02*
X11381968Y-15315055D01*
X11381968Y-15315055D02*
X11391491Y-15296008D01*
X11391491Y-15296008D02*
X11410539Y-15267436D01*
X11410539Y-15267436D02*
X11420063Y-15257912D01*
X11486729Y-15305531D02*
X11496253Y-15296008D01*
X11496253Y-15296008D02*
X11515301Y-15286484D01*
X11515301Y-15286484D02*
X11562920Y-15286484D01*
X11562920Y-15286484D02*
X11581968Y-15296008D01*
X11581968Y-15296008D02*
X11591491Y-15305531D01*
X11591491Y-15305531D02*
X11601015Y-15324579D01*
X11601015Y-15324579D02*
X11601015Y-15343627D01*
X11601015Y-15343627D02*
X11591491Y-15372198D01*
X11591491Y-15372198D02*
X11477206Y-15486484D01*
X11477206Y-15486484D02*
X11601015Y-15486484D01*
X11839110Y-15486484D02*
X11839110Y-15286484D01*
X11924825Y-15486484D02*
X11924825Y-15381722D01*
X11924825Y-15381722D02*
X11915301Y-15362674D01*
X11915301Y-15362674D02*
X11896253Y-15353150D01*
X11896253Y-15353150D02*
X11867682Y-15353150D01*
X11867682Y-15353150D02*
X11848634Y-15362674D01*
X11848634Y-15362674D02*
X11839110Y-15372198D01*
X12048634Y-15486484D02*
X12029587Y-15476960D01*
X12029587Y-15476960D02*
X12020063Y-15467436D01*
X12020063Y-15467436D02*
X12010539Y-15448388D01*
X12010539Y-15448388D02*
X12010539Y-15391246D01*
X12010539Y-15391246D02*
X12020063Y-15372198D01*
X12020063Y-15372198D02*
X12029587Y-15362674D01*
X12029587Y-15362674D02*
X12048634Y-15353150D01*
X12048634Y-15353150D02*
X12077206Y-15353150D01*
X12077206Y-15353150D02*
X12096253Y-15362674D01*
X12096253Y-15362674D02*
X12105777Y-15372198D01*
X12105777Y-15372198D02*
X12115301Y-15391246D01*
X12115301Y-15391246D02*
X12115301Y-15448388D01*
X12115301Y-15448388D02*
X12105777Y-15467436D01*
X12105777Y-15467436D02*
X12096253Y-15476960D01*
X12096253Y-15476960D02*
X12077206Y-15486484D01*
X12077206Y-15486484D02*
X12048634Y-15486484D01*
X12229587Y-15486484D02*
X12210539Y-15476960D01*
X12210539Y-15476960D02*
X12201015Y-15457912D01*
X12201015Y-15457912D02*
X12201015Y-15286484D01*
X12381968Y-15476960D02*
X12362920Y-15486484D01*
X12362920Y-15486484D02*
X12324825Y-15486484D01*
X12324825Y-15486484D02*
X12305777Y-15476960D01*
X12305777Y-15476960D02*
X12296253Y-15457912D01*
X12296253Y-15457912D02*
X12296253Y-15381722D01*
X12296253Y-15381722D02*
X12305777Y-15362674D01*
X12305777Y-15362674D02*
X12324825Y-15353150D01*
X12324825Y-15353150D02*
X12362920Y-15353150D01*
X12362920Y-15353150D02*
X12381968Y-15362674D01*
X12381968Y-15362674D02*
X12391491Y-15381722D01*
X12391491Y-15381722D02*
X12391491Y-15400769D01*
X12391491Y-15400769D02*
X12296253Y-15419817D01*
X12467682Y-15476960D02*
X12486730Y-15486484D01*
X12486730Y-15486484D02*
X12524825Y-15486484D01*
X12524825Y-15486484D02*
X12543872Y-15476960D01*
X12543872Y-15476960D02*
X12553396Y-15457912D01*
X12553396Y-15457912D02*
X12553396Y-15448388D01*
X12553396Y-15448388D02*
X12543872Y-15429341D01*
X12543872Y-15429341D02*
X12524825Y-15419817D01*
X12524825Y-15419817D02*
X12496253Y-15419817D01*
X12496253Y-15419817D02*
X12477206Y-15410293D01*
X12477206Y-15410293D02*
X12467682Y-15391246D01*
X12467682Y-15391246D02*
X12467682Y-15381722D01*
X12467682Y-15381722D02*
X12477206Y-15362674D01*
X12477206Y-15362674D02*
X12496253Y-15353150D01*
X12496253Y-15353150D02*
X12524825Y-15353150D01*
X12524825Y-15353150D02*
X12543872Y-15362674D01*
X12620063Y-15562674D02*
X12629587Y-15553150D01*
X12629587Y-15553150D02*
X12648634Y-15524579D01*
X12648634Y-15524579D02*
X12658158Y-15505531D01*
X12658158Y-15505531D02*
X12667682Y-15476960D01*
X12667682Y-15476960D02*
X12677206Y-15429341D01*
X12677206Y-15429341D02*
X12677206Y-15391246D01*
X12677206Y-15391246D02*
X12667682Y-15343627D01*
X12667682Y-15343627D02*
X12658158Y-15315055D01*
X12658158Y-15315055D02*
X12648634Y-15296008D01*
X12648634Y-15296008D02*
X12629587Y-15267436D01*
X12629587Y-15267436D02*
X12620063Y-15257912D01*
X12981968Y-15562674D02*
X12972444Y-15553150D01*
X12972444Y-15553150D02*
X12953396Y-15524579D01*
X12953396Y-15524579D02*
X12943872Y-15505531D01*
X12943872Y-15505531D02*
X12934349Y-15476960D01*
X12934349Y-15476960D02*
X12924825Y-15429341D01*
X12924825Y-15429341D02*
X12924825Y-15391246D01*
X12924825Y-15391246D02*
X12934349Y-15343627D01*
X12934349Y-15343627D02*
X12943872Y-15315055D01*
X12943872Y-15315055D02*
X12953396Y-15296008D01*
X12953396Y-15296008D02*
X12972444Y-15267436D01*
X12972444Y-15267436D02*
X12981968Y-15257912D01*
X13058158Y-15353150D02*
X13058158Y-15486484D01*
X13058158Y-15372198D02*
X13067682Y-15362674D01*
X13067682Y-15362674D02*
X13086730Y-15353150D01*
X13086730Y-15353150D02*
X13115301Y-15353150D01*
X13115301Y-15353150D02*
X13134349Y-15362674D01*
X13134349Y-15362674D02*
X13143872Y-15381722D01*
X13143872Y-15381722D02*
X13143872Y-15486484D01*
X13267682Y-15486484D02*
X13248634Y-15476960D01*
X13248634Y-15476960D02*
X13239111Y-15467436D01*
X13239111Y-15467436D02*
X13229587Y-15448388D01*
X13229587Y-15448388D02*
X13229587Y-15391246D01*
X13229587Y-15391246D02*
X13239111Y-15372198D01*
X13239111Y-15372198D02*
X13248634Y-15362674D01*
X13248634Y-15362674D02*
X13267682Y-15353150D01*
X13267682Y-15353150D02*
X13296253Y-15353150D01*
X13296253Y-15353150D02*
X13315301Y-15362674D01*
X13315301Y-15362674D02*
X13324825Y-15372198D01*
X13324825Y-15372198D02*
X13334349Y-15391246D01*
X13334349Y-15391246D02*
X13334349Y-15448388D01*
X13334349Y-15448388D02*
X13324825Y-15467436D01*
X13324825Y-15467436D02*
X13315301Y-15476960D01*
X13315301Y-15476960D02*
X13296253Y-15486484D01*
X13296253Y-15486484D02*
X13267682Y-15486484D01*
X13391492Y-15353150D02*
X13467682Y-15353150D01*
X13420063Y-15286484D02*
X13420063Y-15457912D01*
X13420063Y-15457912D02*
X13429587Y-15476960D01*
X13429587Y-15476960D02*
X13448634Y-15486484D01*
X13448634Y-15486484D02*
X13467682Y-15486484D01*
X13686730Y-15353150D02*
X13686730Y-15553150D01*
X13686730Y-15362674D02*
X13705777Y-15353150D01*
X13705777Y-15353150D02*
X13743873Y-15353150D01*
X13743873Y-15353150D02*
X13762920Y-15362674D01*
X13762920Y-15362674D02*
X13772444Y-15372198D01*
X13772444Y-15372198D02*
X13781968Y-15391246D01*
X13781968Y-15391246D02*
X13781968Y-15448388D01*
X13781968Y-15448388D02*
X13772444Y-15467436D01*
X13772444Y-15467436D02*
X13762920Y-15476960D01*
X13762920Y-15476960D02*
X13743873Y-15486484D01*
X13743873Y-15486484D02*
X13705777Y-15486484D01*
X13705777Y-15486484D02*
X13686730Y-15476960D01*
X13896253Y-15486484D02*
X13877206Y-15476960D01*
X13877206Y-15476960D02*
X13867682Y-15457912D01*
X13867682Y-15457912D02*
X13867682Y-15286484D01*
X14058158Y-15486484D02*
X14058158Y-15381722D01*
X14058158Y-15381722D02*
X14048634Y-15362674D01*
X14048634Y-15362674D02*
X14029587Y-15353150D01*
X14029587Y-15353150D02*
X13991492Y-15353150D01*
X13991492Y-15353150D02*
X13972444Y-15362674D01*
X14058158Y-15476960D02*
X14039111Y-15486484D01*
X14039111Y-15486484D02*
X13991492Y-15486484D01*
X13991492Y-15486484D02*
X13972444Y-15476960D01*
X13972444Y-15476960D02*
X13962920Y-15457912D01*
X13962920Y-15457912D02*
X13962920Y-15438865D01*
X13962920Y-15438865D02*
X13972444Y-15419817D01*
X13972444Y-15419817D02*
X13991492Y-15410293D01*
X13991492Y-15410293D02*
X14039111Y-15410293D01*
X14039111Y-15410293D02*
X14058158Y-15400769D01*
X14124825Y-15353150D02*
X14201015Y-15353150D01*
X14153396Y-15286484D02*
X14153396Y-15457912D01*
X14153396Y-15457912D02*
X14162920Y-15476960D01*
X14162920Y-15476960D02*
X14181968Y-15486484D01*
X14181968Y-15486484D02*
X14201015Y-15486484D01*
X14343873Y-15476960D02*
X14324825Y-15486484D01*
X14324825Y-15486484D02*
X14286730Y-15486484D01*
X14286730Y-15486484D02*
X14267682Y-15476960D01*
X14267682Y-15476960D02*
X14258158Y-15457912D01*
X14258158Y-15457912D02*
X14258158Y-15381722D01*
X14258158Y-15381722D02*
X14267682Y-15362674D01*
X14267682Y-15362674D02*
X14286730Y-15353150D01*
X14286730Y-15353150D02*
X14324825Y-15353150D01*
X14324825Y-15353150D02*
X14343873Y-15362674D01*
X14343873Y-15362674D02*
X14353396Y-15381722D01*
X14353396Y-15381722D02*
X14353396Y-15400769D01*
X14353396Y-15400769D02*
X14258158Y-15419817D01*
X14524825Y-15486484D02*
X14524825Y-15286484D01*
X14524825Y-15476960D02*
X14505777Y-15486484D01*
X14505777Y-15486484D02*
X14467682Y-15486484D01*
X14467682Y-15486484D02*
X14448634Y-15476960D01*
X14448634Y-15476960D02*
X14439111Y-15467436D01*
X14439111Y-15467436D02*
X14429587Y-15448388D01*
X14429587Y-15448388D02*
X14429587Y-15391246D01*
X14429587Y-15391246D02*
X14439111Y-15372198D01*
X14439111Y-15372198D02*
X14448634Y-15362674D01*
X14448634Y-15362674D02*
X14467682Y-15353150D01*
X14467682Y-15353150D02*
X14505777Y-15353150D01*
X14505777Y-15353150D02*
X14524825Y-15362674D01*
X14601015Y-15562674D02*
X14610539Y-15553150D01*
X14610539Y-15553150D02*
X14629587Y-15524579D01*
X14629587Y-15524579D02*
X14639111Y-15505531D01*
X14639111Y-15505531D02*
X14648634Y-15476960D01*
X14648634Y-15476960D02*
X14658158Y-15429341D01*
X14658158Y-15429341D02*
X14658158Y-15391246D01*
X14658158Y-15391246D02*
X14648634Y-15343627D01*
X14648634Y-15343627D02*
X14639111Y-15315055D01*
X14639111Y-15315055D02*
X14629587Y-15296008D01*
X14629587Y-15296008D02*
X14610539Y-15267436D01*
X14610539Y-15267436D02*
X14601015Y-15257912D01*
X7845000Y-15659000D02*
G75*
G03*
X7645000Y-15659000I-100000J0D01*
G01*
X7645000Y-15659000D02*
G75*
G03*
X7845000Y-15659000I100000J0D01*
G01*
X8086729Y-15550484D02*
X8210539Y-15550484D01*
X8210539Y-15550484D02*
X8143872Y-15626674D01*
X8143872Y-15626674D02*
X8172443Y-15626674D01*
X8172443Y-15626674D02*
X8191491Y-15636198D01*
X8191491Y-15636198D02*
X8201015Y-15645722D01*
X8201015Y-15645722D02*
X8210539Y-15664769D01*
X8210539Y-15664769D02*
X8210539Y-15712388D01*
X8210539Y-15712388D02*
X8201015Y-15731436D01*
X8201015Y-15731436D02*
X8191491Y-15740960D01*
X8191491Y-15740960D02*
X8172443Y-15750484D01*
X8172443Y-15750484D02*
X8115301Y-15750484D01*
X8115301Y-15750484D02*
X8096253Y-15740960D01*
X8096253Y-15740960D02*
X8086729Y-15731436D01*
X8296253Y-15731436D02*
X8305777Y-15740960D01*
X8305777Y-15740960D02*
X8296253Y-15750484D01*
X8296253Y-15750484D02*
X8286729Y-15740960D01*
X8286729Y-15740960D02*
X8296253Y-15731436D01*
X8296253Y-15731436D02*
X8296253Y-15750484D01*
X8381967Y-15569531D02*
X8391491Y-15560008D01*
X8391491Y-15560008D02*
X8410539Y-15550484D01*
X8410539Y-15550484D02*
X8458158Y-15550484D01*
X8458158Y-15550484D02*
X8477205Y-15560008D01*
X8477205Y-15560008D02*
X8486729Y-15569531D01*
X8486729Y-15569531D02*
X8496253Y-15588579D01*
X8496253Y-15588579D02*
X8496253Y-15607627D01*
X8496253Y-15607627D02*
X8486729Y-15636198D01*
X8486729Y-15636198D02*
X8372443Y-15750484D01*
X8372443Y-15750484D02*
X8496253Y-15750484D01*
X8620063Y-15550484D02*
X8639110Y-15550484D01*
X8639110Y-15550484D02*
X8658158Y-15560008D01*
X8658158Y-15560008D02*
X8667682Y-15569531D01*
X8667682Y-15569531D02*
X8677205Y-15588579D01*
X8677205Y-15588579D02*
X8686729Y-15626674D01*
X8686729Y-15626674D02*
X8686729Y-15674293D01*
X8686729Y-15674293D02*
X8677205Y-15712388D01*
X8677205Y-15712388D02*
X8667682Y-15731436D01*
X8667682Y-15731436D02*
X8658158Y-15740960D01*
X8658158Y-15740960D02*
X8639110Y-15750484D01*
X8639110Y-15750484D02*
X8620063Y-15750484D01*
X8620063Y-15750484D02*
X8601015Y-15740960D01*
X8601015Y-15740960D02*
X8591491Y-15731436D01*
X8591491Y-15731436D02*
X8581967Y-15712388D01*
X8581967Y-15712388D02*
X8572444Y-15674293D01*
X8572444Y-15674293D02*
X8572444Y-15626674D01*
X8572444Y-15626674D02*
X8581967Y-15588579D01*
X8581967Y-15588579D02*
X8591491Y-15569531D01*
X8591491Y-15569531D02*
X8601015Y-15560008D01*
X8601015Y-15560008D02*
X8620063Y-15550484D01*
X8810539Y-15550484D02*
X8829586Y-15550484D01*
X8829586Y-15550484D02*
X8848634Y-15560008D01*
X8848634Y-15560008D02*
X8858158Y-15569531D01*
X8858158Y-15569531D02*
X8867682Y-15588579D01*
X8867682Y-15588579D02*
X8877205Y-15626674D01*
X8877205Y-15626674D02*
X8877205Y-15674293D01*
X8877205Y-15674293D02*
X8867682Y-15712388D01*
X8867682Y-15712388D02*
X8858158Y-15731436D01*
X8858158Y-15731436D02*
X8848634Y-15740960D01*
X8848634Y-15740960D02*
X8829586Y-15750484D01*
X8829586Y-15750484D02*
X8810539Y-15750484D01*
X8810539Y-15750484D02*
X8791491Y-15740960D01*
X8791491Y-15740960D02*
X8781967Y-15731436D01*
X8781967Y-15731436D02*
X8772444Y-15712388D01*
X8772444Y-15712388D02*
X8762920Y-15674293D01*
X8762920Y-15674293D02*
X8762920Y-15626674D01*
X8762920Y-15626674D02*
X8772444Y-15588579D01*
X8772444Y-15588579D02*
X8781967Y-15569531D01*
X8781967Y-15569531D02*
X8791491Y-15560008D01*
X8791491Y-15560008D02*
X8810539Y-15550484D01*
X8962920Y-15750484D02*
X8962920Y-15617150D01*
X8962920Y-15636198D02*
X8972444Y-15626674D01*
X8972444Y-15626674D02*
X8991491Y-15617150D01*
X8991491Y-15617150D02*
X9020063Y-15617150D01*
X9020063Y-15617150D02*
X9039110Y-15626674D01*
X9039110Y-15626674D02*
X9048634Y-15645722D01*
X9048634Y-15645722D02*
X9048634Y-15750484D01*
X9048634Y-15645722D02*
X9058158Y-15626674D01*
X9058158Y-15626674D02*
X9077205Y-15617150D01*
X9077205Y-15617150D02*
X9105777Y-15617150D01*
X9105777Y-15617150D02*
X9124825Y-15626674D01*
X9124825Y-15626674D02*
X9134348Y-15645722D01*
X9134348Y-15645722D02*
X9134348Y-15750484D01*
X9229586Y-15750484D02*
X9229586Y-15617150D01*
X9229586Y-15636198D02*
X9239110Y-15626674D01*
X9239110Y-15626674D02*
X9258158Y-15617150D01*
X9258158Y-15617150D02*
X9286729Y-15617150D01*
X9286729Y-15617150D02*
X9305777Y-15626674D01*
X9305777Y-15626674D02*
X9315301Y-15645722D01*
X9315301Y-15645722D02*
X9315301Y-15750484D01*
X9315301Y-15645722D02*
X9324825Y-15626674D01*
X9324825Y-15626674D02*
X9343872Y-15617150D01*
X9343872Y-15617150D02*
X9372444Y-15617150D01*
X9372444Y-15617150D02*
X9391491Y-15626674D01*
X9391491Y-15626674D02*
X9401015Y-15645722D01*
X9401015Y-15645722D02*
X9401015Y-15750484D01*
X9791491Y-15540960D02*
X9620063Y-15798103D01*
X10048634Y-15550484D02*
X10067682Y-15550484D01*
X10067682Y-15550484D02*
X10086729Y-15560008D01*
X10086729Y-15560008D02*
X10096253Y-15569531D01*
X10096253Y-15569531D02*
X10105777Y-15588579D01*
X10105777Y-15588579D02*
X10115301Y-15626674D01*
X10115301Y-15626674D02*
X10115301Y-15674293D01*
X10115301Y-15674293D02*
X10105777Y-15712388D01*
X10105777Y-15712388D02*
X10096253Y-15731436D01*
X10096253Y-15731436D02*
X10086729Y-15740960D01*
X10086729Y-15740960D02*
X10067682Y-15750484D01*
X10067682Y-15750484D02*
X10048634Y-15750484D01*
X10048634Y-15750484D02*
X10029587Y-15740960D01*
X10029587Y-15740960D02*
X10020063Y-15731436D01*
X10020063Y-15731436D02*
X10010539Y-15712388D01*
X10010539Y-15712388D02*
X10001015Y-15674293D01*
X10001015Y-15674293D02*
X10001015Y-15626674D01*
X10001015Y-15626674D02*
X10010539Y-15588579D01*
X10010539Y-15588579D02*
X10020063Y-15569531D01*
X10020063Y-15569531D02*
X10029587Y-15560008D01*
X10029587Y-15560008D02*
X10048634Y-15550484D01*
X10201015Y-15731436D02*
X10210539Y-15740960D01*
X10210539Y-15740960D02*
X10201015Y-15750484D01*
X10201015Y-15750484D02*
X10191491Y-15740960D01*
X10191491Y-15740960D02*
X10201015Y-15731436D01*
X10201015Y-15731436D02*
X10201015Y-15750484D01*
X10401015Y-15750484D02*
X10286729Y-15750484D01*
X10343872Y-15750484D02*
X10343872Y-15550484D01*
X10343872Y-15550484D02*
X10324825Y-15579055D01*
X10324825Y-15579055D02*
X10305777Y-15598103D01*
X10305777Y-15598103D02*
X10286729Y-15607627D01*
X10477206Y-15569531D02*
X10486729Y-15560008D01*
X10486729Y-15560008D02*
X10505777Y-15550484D01*
X10505777Y-15550484D02*
X10553396Y-15550484D01*
X10553396Y-15550484D02*
X10572444Y-15560008D01*
X10572444Y-15560008D02*
X10581968Y-15569531D01*
X10581968Y-15569531D02*
X10591491Y-15588579D01*
X10591491Y-15588579D02*
X10591491Y-15607627D01*
X10591491Y-15607627D02*
X10581968Y-15636198D01*
X10581968Y-15636198D02*
X10467682Y-15750484D01*
X10467682Y-15750484D02*
X10591491Y-15750484D01*
X10762920Y-15550484D02*
X10724825Y-15550484D01*
X10724825Y-15550484D02*
X10705777Y-15560008D01*
X10705777Y-15560008D02*
X10696253Y-15569531D01*
X10696253Y-15569531D02*
X10677206Y-15598103D01*
X10677206Y-15598103D02*
X10667682Y-15636198D01*
X10667682Y-15636198D02*
X10667682Y-15712388D01*
X10667682Y-15712388D02*
X10677206Y-15731436D01*
X10677206Y-15731436D02*
X10686729Y-15740960D01*
X10686729Y-15740960D02*
X10705777Y-15750484D01*
X10705777Y-15750484D02*
X10743872Y-15750484D01*
X10743872Y-15750484D02*
X10762920Y-15740960D01*
X10762920Y-15740960D02*
X10772444Y-15731436D01*
X10772444Y-15731436D02*
X10781968Y-15712388D01*
X10781968Y-15712388D02*
X10781968Y-15664769D01*
X10781968Y-15664769D02*
X10772444Y-15645722D01*
X10772444Y-15645722D02*
X10762920Y-15636198D01*
X10762920Y-15636198D02*
X10743872Y-15626674D01*
X10743872Y-15626674D02*
X10705777Y-15626674D01*
X10705777Y-15626674D02*
X10686729Y-15636198D01*
X10686729Y-15636198D02*
X10677206Y-15645722D01*
X10677206Y-15645722D02*
X10667682Y-15664769D01*
X10905777Y-15550484D02*
X10924825Y-15550484D01*
X10924825Y-15550484D02*
X10943872Y-15560008D01*
X10943872Y-15560008D02*
X10953396Y-15569531D01*
X10953396Y-15569531D02*
X10962920Y-15588579D01*
X10962920Y-15588579D02*
X10972444Y-15626674D01*
X10972444Y-15626674D02*
X10972444Y-15674293D01*
X10972444Y-15674293D02*
X10962920Y-15712388D01*
X10962920Y-15712388D02*
X10953396Y-15731436D01*
X10953396Y-15731436D02*
X10943872Y-15740960D01*
X10943872Y-15740960D02*
X10924825Y-15750484D01*
X10924825Y-15750484D02*
X10905777Y-15750484D01*
X10905777Y-15750484D02*
X10886729Y-15740960D01*
X10886729Y-15740960D02*
X10877206Y-15731436D01*
X10877206Y-15731436D02*
X10867682Y-15712388D01*
X10867682Y-15712388D02*
X10858158Y-15674293D01*
X10858158Y-15674293D02*
X10858158Y-15626674D01*
X10858158Y-15626674D02*
X10867682Y-15588579D01*
X10867682Y-15588579D02*
X10877206Y-15569531D01*
X10877206Y-15569531D02*
X10886729Y-15560008D01*
X10886729Y-15560008D02*
X10905777Y-15550484D01*
X11048634Y-15550484D02*
X11048634Y-15588579D01*
X11124825Y-15550484D02*
X11124825Y-15588579D01*
X11420063Y-15826674D02*
X11410539Y-15817150D01*
X11410539Y-15817150D02*
X11391491Y-15788579D01*
X11391491Y-15788579D02*
X11381968Y-15769531D01*
X11381968Y-15769531D02*
X11372444Y-15740960D01*
X11372444Y-15740960D02*
X11362920Y-15693341D01*
X11362920Y-15693341D02*
X11362920Y-15655246D01*
X11362920Y-15655246D02*
X11372444Y-15607627D01*
X11372444Y-15607627D02*
X11381968Y-15579055D01*
X11381968Y-15579055D02*
X11391491Y-15560008D01*
X11391491Y-15560008D02*
X11410539Y-15531436D01*
X11410539Y-15531436D02*
X11420063Y-15521912D01*
X11581968Y-15617150D02*
X11581968Y-15750484D01*
X11534348Y-15540960D02*
X11486729Y-15683817D01*
X11486729Y-15683817D02*
X11610539Y-15683817D01*
X11839110Y-15750484D02*
X11839110Y-15550484D01*
X11924825Y-15750484D02*
X11924825Y-15645722D01*
X11924825Y-15645722D02*
X11915301Y-15626674D01*
X11915301Y-15626674D02*
X11896253Y-15617150D01*
X11896253Y-15617150D02*
X11867682Y-15617150D01*
X11867682Y-15617150D02*
X11848634Y-15626674D01*
X11848634Y-15626674D02*
X11839110Y-15636198D01*
X12048634Y-15750484D02*
X12029587Y-15740960D01*
X12029587Y-15740960D02*
X12020063Y-15731436D01*
X12020063Y-15731436D02*
X12010539Y-15712388D01*
X12010539Y-15712388D02*
X12010539Y-15655246D01*
X12010539Y-15655246D02*
X12020063Y-15636198D01*
X12020063Y-15636198D02*
X12029587Y-15626674D01*
X12029587Y-15626674D02*
X12048634Y-15617150D01*
X12048634Y-15617150D02*
X12077206Y-15617150D01*
X12077206Y-15617150D02*
X12096253Y-15626674D01*
X12096253Y-15626674D02*
X12105777Y-15636198D01*
X12105777Y-15636198D02*
X12115301Y-15655246D01*
X12115301Y-15655246D02*
X12115301Y-15712388D01*
X12115301Y-15712388D02*
X12105777Y-15731436D01*
X12105777Y-15731436D02*
X12096253Y-15740960D01*
X12096253Y-15740960D02*
X12077206Y-15750484D01*
X12077206Y-15750484D02*
X12048634Y-15750484D01*
X12229587Y-15750484D02*
X12210539Y-15740960D01*
X12210539Y-15740960D02*
X12201015Y-15721912D01*
X12201015Y-15721912D02*
X12201015Y-15550484D01*
X12381968Y-15740960D02*
X12362920Y-15750484D01*
X12362920Y-15750484D02*
X12324825Y-15750484D01*
X12324825Y-15750484D02*
X12305777Y-15740960D01*
X12305777Y-15740960D02*
X12296253Y-15721912D01*
X12296253Y-15721912D02*
X12296253Y-15645722D01*
X12296253Y-15645722D02*
X12305777Y-15626674D01*
X12305777Y-15626674D02*
X12324825Y-15617150D01*
X12324825Y-15617150D02*
X12362920Y-15617150D01*
X12362920Y-15617150D02*
X12381968Y-15626674D01*
X12381968Y-15626674D02*
X12391491Y-15645722D01*
X12391491Y-15645722D02*
X12391491Y-15664769D01*
X12391491Y-15664769D02*
X12296253Y-15683817D01*
X12467682Y-15740960D02*
X12486730Y-15750484D01*
X12486730Y-15750484D02*
X12524825Y-15750484D01*
X12524825Y-15750484D02*
X12543872Y-15740960D01*
X12543872Y-15740960D02*
X12553396Y-15721912D01*
X12553396Y-15721912D02*
X12553396Y-15712388D01*
X12553396Y-15712388D02*
X12543872Y-15693341D01*
X12543872Y-15693341D02*
X12524825Y-15683817D01*
X12524825Y-15683817D02*
X12496253Y-15683817D01*
X12496253Y-15683817D02*
X12477206Y-15674293D01*
X12477206Y-15674293D02*
X12467682Y-15655246D01*
X12467682Y-15655246D02*
X12467682Y-15645722D01*
X12467682Y-15645722D02*
X12477206Y-15626674D01*
X12477206Y-15626674D02*
X12496253Y-15617150D01*
X12496253Y-15617150D02*
X12524825Y-15617150D01*
X12524825Y-15617150D02*
X12543872Y-15626674D01*
X12620063Y-15826674D02*
X12629587Y-15817150D01*
X12629587Y-15817150D02*
X12648634Y-15788579D01*
X12648634Y-15788579D02*
X12658158Y-15769531D01*
X12658158Y-15769531D02*
X12667682Y-15740960D01*
X12667682Y-15740960D02*
X12677206Y-15693341D01*
X12677206Y-15693341D02*
X12677206Y-15655246D01*
X12677206Y-15655246D02*
X12667682Y-15607627D01*
X12667682Y-15607627D02*
X12658158Y-15579055D01*
X12658158Y-15579055D02*
X12648634Y-15560008D01*
X12648634Y-15560008D02*
X12629587Y-15531436D01*
X12629587Y-15531436D02*
X12620063Y-15521912D01*
X12981968Y-15826674D02*
X12972444Y-15817150D01*
X12972444Y-15817150D02*
X12953396Y-15788579D01*
X12953396Y-15788579D02*
X12943872Y-15769531D01*
X12943872Y-15769531D02*
X12934349Y-15740960D01*
X12934349Y-15740960D02*
X12924825Y-15693341D01*
X12924825Y-15693341D02*
X12924825Y-15655246D01*
X12924825Y-15655246D02*
X12934349Y-15607627D01*
X12934349Y-15607627D02*
X12943872Y-15579055D01*
X12943872Y-15579055D02*
X12953396Y-15560008D01*
X12953396Y-15560008D02*
X12972444Y-15531436D01*
X12972444Y-15531436D02*
X12981968Y-15521912D01*
X13058158Y-15617150D02*
X13058158Y-15750484D01*
X13058158Y-15636198D02*
X13067682Y-15626674D01*
X13067682Y-15626674D02*
X13086730Y-15617150D01*
X13086730Y-15617150D02*
X13115301Y-15617150D01*
X13115301Y-15617150D02*
X13134349Y-15626674D01*
X13134349Y-15626674D02*
X13143872Y-15645722D01*
X13143872Y-15645722D02*
X13143872Y-15750484D01*
X13267682Y-15750484D02*
X13248634Y-15740960D01*
X13248634Y-15740960D02*
X13239111Y-15731436D01*
X13239111Y-15731436D02*
X13229587Y-15712388D01*
X13229587Y-15712388D02*
X13229587Y-15655246D01*
X13229587Y-15655246D02*
X13239111Y-15636198D01*
X13239111Y-15636198D02*
X13248634Y-15626674D01*
X13248634Y-15626674D02*
X13267682Y-15617150D01*
X13267682Y-15617150D02*
X13296253Y-15617150D01*
X13296253Y-15617150D02*
X13315301Y-15626674D01*
X13315301Y-15626674D02*
X13324825Y-15636198D01*
X13324825Y-15636198D02*
X13334349Y-15655246D01*
X13334349Y-15655246D02*
X13334349Y-15712388D01*
X13334349Y-15712388D02*
X13324825Y-15731436D01*
X13324825Y-15731436D02*
X13315301Y-15740960D01*
X13315301Y-15740960D02*
X13296253Y-15750484D01*
X13296253Y-15750484D02*
X13267682Y-15750484D01*
X13391492Y-15617150D02*
X13467682Y-15617150D01*
X13420063Y-15550484D02*
X13420063Y-15721912D01*
X13420063Y-15721912D02*
X13429587Y-15740960D01*
X13429587Y-15740960D02*
X13448634Y-15750484D01*
X13448634Y-15750484D02*
X13467682Y-15750484D01*
X13686730Y-15617150D02*
X13686730Y-15817150D01*
X13686730Y-15626674D02*
X13705777Y-15617150D01*
X13705777Y-15617150D02*
X13743873Y-15617150D01*
X13743873Y-15617150D02*
X13762920Y-15626674D01*
X13762920Y-15626674D02*
X13772444Y-15636198D01*
X13772444Y-15636198D02*
X13781968Y-15655246D01*
X13781968Y-15655246D02*
X13781968Y-15712388D01*
X13781968Y-15712388D02*
X13772444Y-15731436D01*
X13772444Y-15731436D02*
X13762920Y-15740960D01*
X13762920Y-15740960D02*
X13743873Y-15750484D01*
X13743873Y-15750484D02*
X13705777Y-15750484D01*
X13705777Y-15750484D02*
X13686730Y-15740960D01*
X13896253Y-15750484D02*
X13877206Y-15740960D01*
X13877206Y-15740960D02*
X13867682Y-15721912D01*
X13867682Y-15721912D02*
X13867682Y-15550484D01*
X14058158Y-15750484D02*
X14058158Y-15645722D01*
X14058158Y-15645722D02*
X14048634Y-15626674D01*
X14048634Y-15626674D02*
X14029587Y-15617150D01*
X14029587Y-15617150D02*
X13991492Y-15617150D01*
X13991492Y-15617150D02*
X13972444Y-15626674D01*
X14058158Y-15740960D02*
X14039111Y-15750484D01*
X14039111Y-15750484D02*
X13991492Y-15750484D01*
X13991492Y-15750484D02*
X13972444Y-15740960D01*
X13972444Y-15740960D02*
X13962920Y-15721912D01*
X13962920Y-15721912D02*
X13962920Y-15702865D01*
X13962920Y-15702865D02*
X13972444Y-15683817D01*
X13972444Y-15683817D02*
X13991492Y-15674293D01*
X13991492Y-15674293D02*
X14039111Y-15674293D01*
X14039111Y-15674293D02*
X14058158Y-15664769D01*
X14124825Y-15617150D02*
X14201015Y-15617150D01*
X14153396Y-15550484D02*
X14153396Y-15721912D01*
X14153396Y-15721912D02*
X14162920Y-15740960D01*
X14162920Y-15740960D02*
X14181968Y-15750484D01*
X14181968Y-15750484D02*
X14201015Y-15750484D01*
X14343873Y-15740960D02*
X14324825Y-15750484D01*
X14324825Y-15750484D02*
X14286730Y-15750484D01*
X14286730Y-15750484D02*
X14267682Y-15740960D01*
X14267682Y-15740960D02*
X14258158Y-15721912D01*
X14258158Y-15721912D02*
X14258158Y-15645722D01*
X14258158Y-15645722D02*
X14267682Y-15626674D01*
X14267682Y-15626674D02*
X14286730Y-15617150D01*
X14286730Y-15617150D02*
X14324825Y-15617150D01*
X14324825Y-15617150D02*
X14343873Y-15626674D01*
X14343873Y-15626674D02*
X14353396Y-15645722D01*
X14353396Y-15645722D02*
X14353396Y-15664769D01*
X14353396Y-15664769D02*
X14258158Y-15683817D01*
X14524825Y-15750484D02*
X14524825Y-15550484D01*
X14524825Y-15740960D02*
X14505777Y-15750484D01*
X14505777Y-15750484D02*
X14467682Y-15750484D01*
X14467682Y-15750484D02*
X14448634Y-15740960D01*
X14448634Y-15740960D02*
X14439111Y-15731436D01*
X14439111Y-15731436D02*
X14429587Y-15712388D01*
X14429587Y-15712388D02*
X14429587Y-15655246D01*
X14429587Y-15655246D02*
X14439111Y-15636198D01*
X14439111Y-15636198D02*
X14448634Y-15626674D01*
X14448634Y-15626674D02*
X14467682Y-15617150D01*
X14467682Y-15617150D02*
X14505777Y-15617150D01*
X14505777Y-15617150D02*
X14524825Y-15626674D01*
X14601015Y-15826674D02*
X14610539Y-15817150D01*
X14610539Y-15817150D02*
X14629587Y-15788579D01*
X14629587Y-15788579D02*
X14639111Y-15769531D01*
X14639111Y-15769531D02*
X14648634Y-15740960D01*
X14648634Y-15740960D02*
X14658158Y-15693341D01*
X14658158Y-15693341D02*
X14658158Y-15655246D01*
X14658158Y-15655246D02*
X14648634Y-15607627D01*
X14648634Y-15607627D02*
X14639111Y-15579055D01*
X14639111Y-15579055D02*
X14629587Y-15560008D01*
X14629587Y-15560008D02*
X14610539Y-15531436D01*
X14610539Y-15531436D02*
X14601015Y-15521912D01*
X7745000Y-15879000D02*
X7745000Y-16079000D01*
X7645000Y-15979000D02*
X7845000Y-15979000D01*
X8086729Y-15870484D02*
X8210539Y-15870484D01*
X8210539Y-15870484D02*
X8143872Y-15946674D01*
X8143872Y-15946674D02*
X8172443Y-15946674D01*
X8172443Y-15946674D02*
X8191491Y-15956198D01*
X8191491Y-15956198D02*
X8201015Y-15965722D01*
X8201015Y-15965722D02*
X8210539Y-15984769D01*
X8210539Y-15984769D02*
X8210539Y-16032388D01*
X8210539Y-16032388D02*
X8201015Y-16051436D01*
X8201015Y-16051436D02*
X8191491Y-16060960D01*
X8191491Y-16060960D02*
X8172443Y-16070484D01*
X8172443Y-16070484D02*
X8115301Y-16070484D01*
X8115301Y-16070484D02*
X8096253Y-16060960D01*
X8096253Y-16060960D02*
X8086729Y-16051436D01*
X8296253Y-16051436D02*
X8305777Y-16060960D01*
X8305777Y-16060960D02*
X8296253Y-16070484D01*
X8296253Y-16070484D02*
X8286729Y-16060960D01*
X8286729Y-16060960D02*
X8296253Y-16051436D01*
X8296253Y-16051436D02*
X8296253Y-16070484D01*
X8477205Y-15937150D02*
X8477205Y-16070484D01*
X8429586Y-15860960D02*
X8381967Y-16003817D01*
X8381967Y-16003817D02*
X8505777Y-16003817D01*
X8677205Y-15870484D02*
X8581967Y-15870484D01*
X8581967Y-15870484D02*
X8572444Y-15965722D01*
X8572444Y-15965722D02*
X8581967Y-15956198D01*
X8581967Y-15956198D02*
X8601015Y-15946674D01*
X8601015Y-15946674D02*
X8648634Y-15946674D01*
X8648634Y-15946674D02*
X8667682Y-15956198D01*
X8667682Y-15956198D02*
X8677205Y-15965722D01*
X8677205Y-15965722D02*
X8686729Y-15984769D01*
X8686729Y-15984769D02*
X8686729Y-16032388D01*
X8686729Y-16032388D02*
X8677205Y-16051436D01*
X8677205Y-16051436D02*
X8667682Y-16060960D01*
X8667682Y-16060960D02*
X8648634Y-16070484D01*
X8648634Y-16070484D02*
X8601015Y-16070484D01*
X8601015Y-16070484D02*
X8581967Y-16060960D01*
X8581967Y-16060960D02*
X8572444Y-16051436D01*
X8810539Y-15870484D02*
X8829586Y-15870484D01*
X8829586Y-15870484D02*
X8848634Y-15880008D01*
X8848634Y-15880008D02*
X8858158Y-15889531D01*
X8858158Y-15889531D02*
X8867682Y-15908579D01*
X8867682Y-15908579D02*
X8877205Y-15946674D01*
X8877205Y-15946674D02*
X8877205Y-15994293D01*
X8877205Y-15994293D02*
X8867682Y-16032388D01*
X8867682Y-16032388D02*
X8858158Y-16051436D01*
X8858158Y-16051436D02*
X8848634Y-16060960D01*
X8848634Y-16060960D02*
X8829586Y-16070484D01*
X8829586Y-16070484D02*
X8810539Y-16070484D01*
X8810539Y-16070484D02*
X8791491Y-16060960D01*
X8791491Y-16060960D02*
X8781967Y-16051436D01*
X8781967Y-16051436D02*
X8772444Y-16032388D01*
X8772444Y-16032388D02*
X8762920Y-15994293D01*
X8762920Y-15994293D02*
X8762920Y-15946674D01*
X8762920Y-15946674D02*
X8772444Y-15908579D01*
X8772444Y-15908579D02*
X8781967Y-15889531D01*
X8781967Y-15889531D02*
X8791491Y-15880008D01*
X8791491Y-15880008D02*
X8810539Y-15870484D01*
X8962920Y-16070484D02*
X8962920Y-15937150D01*
X8962920Y-15956198D02*
X8972444Y-15946674D01*
X8972444Y-15946674D02*
X8991491Y-15937150D01*
X8991491Y-15937150D02*
X9020063Y-15937150D01*
X9020063Y-15937150D02*
X9039110Y-15946674D01*
X9039110Y-15946674D02*
X9048634Y-15965722D01*
X9048634Y-15965722D02*
X9048634Y-16070484D01*
X9048634Y-15965722D02*
X9058158Y-15946674D01*
X9058158Y-15946674D02*
X9077205Y-15937150D01*
X9077205Y-15937150D02*
X9105777Y-15937150D01*
X9105777Y-15937150D02*
X9124825Y-15946674D01*
X9124825Y-15946674D02*
X9134348Y-15965722D01*
X9134348Y-15965722D02*
X9134348Y-16070484D01*
X9229586Y-16070484D02*
X9229586Y-15937150D01*
X9229586Y-15956198D02*
X9239110Y-15946674D01*
X9239110Y-15946674D02*
X9258158Y-15937150D01*
X9258158Y-15937150D02*
X9286729Y-15937150D01*
X9286729Y-15937150D02*
X9305777Y-15946674D01*
X9305777Y-15946674D02*
X9315301Y-15965722D01*
X9315301Y-15965722D02*
X9315301Y-16070484D01*
X9315301Y-15965722D02*
X9324825Y-15946674D01*
X9324825Y-15946674D02*
X9343872Y-15937150D01*
X9343872Y-15937150D02*
X9372444Y-15937150D01*
X9372444Y-15937150D02*
X9391491Y-15946674D01*
X9391491Y-15946674D02*
X9401015Y-15965722D01*
X9401015Y-15965722D02*
X9401015Y-16070484D01*
X9791491Y-15860960D02*
X9620063Y-16118103D01*
X10048634Y-15870484D02*
X10067682Y-15870484D01*
X10067682Y-15870484D02*
X10086729Y-15880008D01*
X10086729Y-15880008D02*
X10096253Y-15889531D01*
X10096253Y-15889531D02*
X10105777Y-15908579D01*
X10105777Y-15908579D02*
X10115301Y-15946674D01*
X10115301Y-15946674D02*
X10115301Y-15994293D01*
X10115301Y-15994293D02*
X10105777Y-16032388D01*
X10105777Y-16032388D02*
X10096253Y-16051436D01*
X10096253Y-16051436D02*
X10086729Y-16060960D01*
X10086729Y-16060960D02*
X10067682Y-16070484D01*
X10067682Y-16070484D02*
X10048634Y-16070484D01*
X10048634Y-16070484D02*
X10029587Y-16060960D01*
X10029587Y-16060960D02*
X10020063Y-16051436D01*
X10020063Y-16051436D02*
X10010539Y-16032388D01*
X10010539Y-16032388D02*
X10001015Y-15994293D01*
X10001015Y-15994293D02*
X10001015Y-15946674D01*
X10001015Y-15946674D02*
X10010539Y-15908579D01*
X10010539Y-15908579D02*
X10020063Y-15889531D01*
X10020063Y-15889531D02*
X10029587Y-15880008D01*
X10029587Y-15880008D02*
X10048634Y-15870484D01*
X10201015Y-16051436D02*
X10210539Y-16060960D01*
X10210539Y-16060960D02*
X10201015Y-16070484D01*
X10201015Y-16070484D02*
X10191491Y-16060960D01*
X10191491Y-16060960D02*
X10201015Y-16051436D01*
X10201015Y-16051436D02*
X10201015Y-16070484D01*
X10401015Y-16070484D02*
X10286729Y-16070484D01*
X10343872Y-16070484D02*
X10343872Y-15870484D01*
X10343872Y-15870484D02*
X10324825Y-15899055D01*
X10324825Y-15899055D02*
X10305777Y-15918103D01*
X10305777Y-15918103D02*
X10286729Y-15927627D01*
X10467682Y-15870484D02*
X10591491Y-15870484D01*
X10591491Y-15870484D02*
X10524825Y-15946674D01*
X10524825Y-15946674D02*
X10553396Y-15946674D01*
X10553396Y-15946674D02*
X10572444Y-15956198D01*
X10572444Y-15956198D02*
X10581968Y-15965722D01*
X10581968Y-15965722D02*
X10591491Y-15984769D01*
X10591491Y-15984769D02*
X10591491Y-16032388D01*
X10591491Y-16032388D02*
X10581968Y-16051436D01*
X10581968Y-16051436D02*
X10572444Y-16060960D01*
X10572444Y-16060960D02*
X10553396Y-16070484D01*
X10553396Y-16070484D02*
X10496253Y-16070484D01*
X10496253Y-16070484D02*
X10477206Y-16060960D01*
X10477206Y-16060960D02*
X10467682Y-16051436D01*
X10772444Y-15870484D02*
X10677206Y-15870484D01*
X10677206Y-15870484D02*
X10667682Y-15965722D01*
X10667682Y-15965722D02*
X10677206Y-15956198D01*
X10677206Y-15956198D02*
X10696253Y-15946674D01*
X10696253Y-15946674D02*
X10743872Y-15946674D01*
X10743872Y-15946674D02*
X10762920Y-15956198D01*
X10762920Y-15956198D02*
X10772444Y-15965722D01*
X10772444Y-15965722D02*
X10781968Y-15984769D01*
X10781968Y-15984769D02*
X10781968Y-16032388D01*
X10781968Y-16032388D02*
X10772444Y-16051436D01*
X10772444Y-16051436D02*
X10762920Y-16060960D01*
X10762920Y-16060960D02*
X10743872Y-16070484D01*
X10743872Y-16070484D02*
X10696253Y-16070484D01*
X10696253Y-16070484D02*
X10677206Y-16060960D01*
X10677206Y-16060960D02*
X10667682Y-16051436D01*
X10896253Y-15956198D02*
X10877206Y-15946674D01*
X10877206Y-15946674D02*
X10867682Y-15937150D01*
X10867682Y-15937150D02*
X10858158Y-15918103D01*
X10858158Y-15918103D02*
X10858158Y-15908579D01*
X10858158Y-15908579D02*
X10867682Y-15889531D01*
X10867682Y-15889531D02*
X10877206Y-15880008D01*
X10877206Y-15880008D02*
X10896253Y-15870484D01*
X10896253Y-15870484D02*
X10934349Y-15870484D01*
X10934349Y-15870484D02*
X10953396Y-15880008D01*
X10953396Y-15880008D02*
X10962920Y-15889531D01*
X10962920Y-15889531D02*
X10972444Y-15908579D01*
X10972444Y-15908579D02*
X10972444Y-15918103D01*
X10972444Y-15918103D02*
X10962920Y-15937150D01*
X10962920Y-15937150D02*
X10953396Y-15946674D01*
X10953396Y-15946674D02*
X10934349Y-15956198D01*
X10934349Y-15956198D02*
X10896253Y-15956198D01*
X10896253Y-15956198D02*
X10877206Y-15965722D01*
X10877206Y-15965722D02*
X10867682Y-15975246D01*
X10867682Y-15975246D02*
X10858158Y-15994293D01*
X10858158Y-15994293D02*
X10858158Y-16032388D01*
X10858158Y-16032388D02*
X10867682Y-16051436D01*
X10867682Y-16051436D02*
X10877206Y-16060960D01*
X10877206Y-16060960D02*
X10896253Y-16070484D01*
X10896253Y-16070484D02*
X10934349Y-16070484D01*
X10934349Y-16070484D02*
X10953396Y-16060960D01*
X10953396Y-16060960D02*
X10962920Y-16051436D01*
X10962920Y-16051436D02*
X10972444Y-16032388D01*
X10972444Y-16032388D02*
X10972444Y-15994293D01*
X10972444Y-15994293D02*
X10962920Y-15975246D01*
X10962920Y-15975246D02*
X10953396Y-15965722D01*
X10953396Y-15965722D02*
X10934349Y-15956198D01*
X11048634Y-15870484D02*
X11048634Y-15908579D01*
X11124825Y-15870484D02*
X11124825Y-15908579D01*
X11420063Y-16146674D02*
X11410539Y-16137150D01*
X11410539Y-16137150D02*
X11391491Y-16108579D01*
X11391491Y-16108579D02*
X11381968Y-16089531D01*
X11381968Y-16089531D02*
X11372444Y-16060960D01*
X11372444Y-16060960D02*
X11362920Y-16013341D01*
X11362920Y-16013341D02*
X11362920Y-15975246D01*
X11362920Y-15975246D02*
X11372444Y-15927627D01*
X11372444Y-15927627D02*
X11381968Y-15899055D01*
X11381968Y-15899055D02*
X11391491Y-15880008D01*
X11391491Y-15880008D02*
X11410539Y-15851436D01*
X11410539Y-15851436D02*
X11420063Y-15841912D01*
X11486729Y-15889531D02*
X11496253Y-15880008D01*
X11496253Y-15880008D02*
X11515301Y-15870484D01*
X11515301Y-15870484D02*
X11562920Y-15870484D01*
X11562920Y-15870484D02*
X11581968Y-15880008D01*
X11581968Y-15880008D02*
X11591491Y-15889531D01*
X11591491Y-15889531D02*
X11601015Y-15908579D01*
X11601015Y-15908579D02*
X11601015Y-15927627D01*
X11601015Y-15927627D02*
X11591491Y-15956198D01*
X11591491Y-15956198D02*
X11477206Y-16070484D01*
X11477206Y-16070484D02*
X11601015Y-16070484D01*
X11839110Y-16070484D02*
X11839110Y-15870484D01*
X11924825Y-16070484D02*
X11924825Y-15965722D01*
X11924825Y-15965722D02*
X11915301Y-15946674D01*
X11915301Y-15946674D02*
X11896253Y-15937150D01*
X11896253Y-15937150D02*
X11867682Y-15937150D01*
X11867682Y-15937150D02*
X11848634Y-15946674D01*
X11848634Y-15946674D02*
X11839110Y-15956198D01*
X12048634Y-16070484D02*
X12029587Y-16060960D01*
X12029587Y-16060960D02*
X12020063Y-16051436D01*
X12020063Y-16051436D02*
X12010539Y-16032388D01*
X12010539Y-16032388D02*
X12010539Y-15975246D01*
X12010539Y-15975246D02*
X12020063Y-15956198D01*
X12020063Y-15956198D02*
X12029587Y-15946674D01*
X12029587Y-15946674D02*
X12048634Y-15937150D01*
X12048634Y-15937150D02*
X12077206Y-15937150D01*
X12077206Y-15937150D02*
X12096253Y-15946674D01*
X12096253Y-15946674D02*
X12105777Y-15956198D01*
X12105777Y-15956198D02*
X12115301Y-15975246D01*
X12115301Y-15975246D02*
X12115301Y-16032388D01*
X12115301Y-16032388D02*
X12105777Y-16051436D01*
X12105777Y-16051436D02*
X12096253Y-16060960D01*
X12096253Y-16060960D02*
X12077206Y-16070484D01*
X12077206Y-16070484D02*
X12048634Y-16070484D01*
X12229587Y-16070484D02*
X12210539Y-16060960D01*
X12210539Y-16060960D02*
X12201015Y-16041912D01*
X12201015Y-16041912D02*
X12201015Y-15870484D01*
X12381968Y-16060960D02*
X12362920Y-16070484D01*
X12362920Y-16070484D02*
X12324825Y-16070484D01*
X12324825Y-16070484D02*
X12305777Y-16060960D01*
X12305777Y-16060960D02*
X12296253Y-16041912D01*
X12296253Y-16041912D02*
X12296253Y-15965722D01*
X12296253Y-15965722D02*
X12305777Y-15946674D01*
X12305777Y-15946674D02*
X12324825Y-15937150D01*
X12324825Y-15937150D02*
X12362920Y-15937150D01*
X12362920Y-15937150D02*
X12381968Y-15946674D01*
X12381968Y-15946674D02*
X12391491Y-15965722D01*
X12391491Y-15965722D02*
X12391491Y-15984769D01*
X12391491Y-15984769D02*
X12296253Y-16003817D01*
X12467682Y-16060960D02*
X12486730Y-16070484D01*
X12486730Y-16070484D02*
X12524825Y-16070484D01*
X12524825Y-16070484D02*
X12543872Y-16060960D01*
X12543872Y-16060960D02*
X12553396Y-16041912D01*
X12553396Y-16041912D02*
X12553396Y-16032388D01*
X12553396Y-16032388D02*
X12543872Y-16013341D01*
X12543872Y-16013341D02*
X12524825Y-16003817D01*
X12524825Y-16003817D02*
X12496253Y-16003817D01*
X12496253Y-16003817D02*
X12477206Y-15994293D01*
X12477206Y-15994293D02*
X12467682Y-15975246D01*
X12467682Y-15975246D02*
X12467682Y-15965722D01*
X12467682Y-15965722D02*
X12477206Y-15946674D01*
X12477206Y-15946674D02*
X12496253Y-15937150D01*
X12496253Y-15937150D02*
X12524825Y-15937150D01*
X12524825Y-15937150D02*
X12543872Y-15946674D01*
X12620063Y-16146674D02*
X12629587Y-16137150D01*
X12629587Y-16137150D02*
X12648634Y-16108579D01*
X12648634Y-16108579D02*
X12658158Y-16089531D01*
X12658158Y-16089531D02*
X12667682Y-16060960D01*
X12667682Y-16060960D02*
X12677206Y-16013341D01*
X12677206Y-16013341D02*
X12677206Y-15975246D01*
X12677206Y-15975246D02*
X12667682Y-15927627D01*
X12667682Y-15927627D02*
X12658158Y-15899055D01*
X12658158Y-15899055D02*
X12648634Y-15880008D01*
X12648634Y-15880008D02*
X12629587Y-15851436D01*
X12629587Y-15851436D02*
X12620063Y-15841912D01*
X12981968Y-16146674D02*
X12972444Y-16137150D01*
X12972444Y-16137150D02*
X12953396Y-16108579D01*
X12953396Y-16108579D02*
X12943872Y-16089531D01*
X12943872Y-16089531D02*
X12934349Y-16060960D01*
X12934349Y-16060960D02*
X12924825Y-16013341D01*
X12924825Y-16013341D02*
X12924825Y-15975246D01*
X12924825Y-15975246D02*
X12934349Y-15927627D01*
X12934349Y-15927627D02*
X12943872Y-15899055D01*
X12943872Y-15899055D02*
X12953396Y-15880008D01*
X12953396Y-15880008D02*
X12972444Y-15851436D01*
X12972444Y-15851436D02*
X12981968Y-15841912D01*
X13058158Y-15937150D02*
X13058158Y-16070484D01*
X13058158Y-15956198D02*
X13067682Y-15946674D01*
X13067682Y-15946674D02*
X13086730Y-15937150D01*
X13086730Y-15937150D02*
X13115301Y-15937150D01*
X13115301Y-15937150D02*
X13134349Y-15946674D01*
X13134349Y-15946674D02*
X13143872Y-15965722D01*
X13143872Y-15965722D02*
X13143872Y-16070484D01*
X13267682Y-16070484D02*
X13248634Y-16060960D01*
X13248634Y-16060960D02*
X13239111Y-16051436D01*
X13239111Y-16051436D02*
X13229587Y-16032388D01*
X13229587Y-16032388D02*
X13229587Y-15975246D01*
X13229587Y-15975246D02*
X13239111Y-15956198D01*
X13239111Y-15956198D02*
X13248634Y-15946674D01*
X13248634Y-15946674D02*
X13267682Y-15937150D01*
X13267682Y-15937150D02*
X13296253Y-15937150D01*
X13296253Y-15937150D02*
X13315301Y-15946674D01*
X13315301Y-15946674D02*
X13324825Y-15956198D01*
X13324825Y-15956198D02*
X13334349Y-15975246D01*
X13334349Y-15975246D02*
X13334349Y-16032388D01*
X13334349Y-16032388D02*
X13324825Y-16051436D01*
X13324825Y-16051436D02*
X13315301Y-16060960D01*
X13315301Y-16060960D02*
X13296253Y-16070484D01*
X13296253Y-16070484D02*
X13267682Y-16070484D01*
X13391492Y-15937150D02*
X13467682Y-15937150D01*
X13420063Y-15870484D02*
X13420063Y-16041912D01*
X13420063Y-16041912D02*
X13429587Y-16060960D01*
X13429587Y-16060960D02*
X13448634Y-16070484D01*
X13448634Y-16070484D02*
X13467682Y-16070484D01*
X13686730Y-15937150D02*
X13686730Y-16137150D01*
X13686730Y-15946674D02*
X13705777Y-15937150D01*
X13705777Y-15937150D02*
X13743873Y-15937150D01*
X13743873Y-15937150D02*
X13762920Y-15946674D01*
X13762920Y-15946674D02*
X13772444Y-15956198D01*
X13772444Y-15956198D02*
X13781968Y-15975246D01*
X13781968Y-15975246D02*
X13781968Y-16032388D01*
X13781968Y-16032388D02*
X13772444Y-16051436D01*
X13772444Y-16051436D02*
X13762920Y-16060960D01*
X13762920Y-16060960D02*
X13743873Y-16070484D01*
X13743873Y-16070484D02*
X13705777Y-16070484D01*
X13705777Y-16070484D02*
X13686730Y-16060960D01*
X13896253Y-16070484D02*
X13877206Y-16060960D01*
X13877206Y-16060960D02*
X13867682Y-16041912D01*
X13867682Y-16041912D02*
X13867682Y-15870484D01*
X14058158Y-16070484D02*
X14058158Y-15965722D01*
X14058158Y-15965722D02*
X14048634Y-15946674D01*
X14048634Y-15946674D02*
X14029587Y-15937150D01*
X14029587Y-15937150D02*
X13991492Y-15937150D01*
X13991492Y-15937150D02*
X13972444Y-15946674D01*
X14058158Y-16060960D02*
X14039111Y-16070484D01*
X14039111Y-16070484D02*
X13991492Y-16070484D01*
X13991492Y-16070484D02*
X13972444Y-16060960D01*
X13972444Y-16060960D02*
X13962920Y-16041912D01*
X13962920Y-16041912D02*
X13962920Y-16022865D01*
X13962920Y-16022865D02*
X13972444Y-16003817D01*
X13972444Y-16003817D02*
X13991492Y-15994293D01*
X13991492Y-15994293D02*
X14039111Y-15994293D01*
X14039111Y-15994293D02*
X14058158Y-15984769D01*
X14124825Y-15937150D02*
X14201015Y-15937150D01*
X14153396Y-15870484D02*
X14153396Y-16041912D01*
X14153396Y-16041912D02*
X14162920Y-16060960D01*
X14162920Y-16060960D02*
X14181968Y-16070484D01*
X14181968Y-16070484D02*
X14201015Y-16070484D01*
X14343873Y-16060960D02*
X14324825Y-16070484D01*
X14324825Y-16070484D02*
X14286730Y-16070484D01*
X14286730Y-16070484D02*
X14267682Y-16060960D01*
X14267682Y-16060960D02*
X14258158Y-16041912D01*
X14258158Y-16041912D02*
X14258158Y-15965722D01*
X14258158Y-15965722D02*
X14267682Y-15946674D01*
X14267682Y-15946674D02*
X14286730Y-15937150D01*
X14286730Y-15937150D02*
X14324825Y-15937150D01*
X14324825Y-15937150D02*
X14343873Y-15946674D01*
X14343873Y-15946674D02*
X14353396Y-15965722D01*
X14353396Y-15965722D02*
X14353396Y-15984769D01*
X14353396Y-15984769D02*
X14258158Y-16003817D01*
X14524825Y-16070484D02*
X14524825Y-15870484D01*
X14524825Y-16060960D02*
X14505777Y-16070484D01*
X14505777Y-16070484D02*
X14467682Y-16070484D01*
X14467682Y-16070484D02*
X14448634Y-16060960D01*
X14448634Y-16060960D02*
X14439111Y-16051436D01*
X14439111Y-16051436D02*
X14429587Y-16032388D01*
X14429587Y-16032388D02*
X14429587Y-15975246D01*
X14429587Y-15975246D02*
X14439111Y-15956198D01*
X14439111Y-15956198D02*
X14448634Y-15946674D01*
X14448634Y-15946674D02*
X14467682Y-15937150D01*
X14467682Y-15937150D02*
X14505777Y-15937150D01*
X14505777Y-15937150D02*
X14524825Y-15946674D01*
X14601015Y-16146674D02*
X14610539Y-16137150D01*
X14610539Y-16137150D02*
X14629587Y-16108579D01*
X14629587Y-16108579D02*
X14639111Y-16089531D01*
X14639111Y-16089531D02*
X14648634Y-16060960D01*
X14648634Y-16060960D02*
X14658158Y-16013341D01*
X14658158Y-16013341D02*
X14658158Y-15975246D01*
X14658158Y-15975246D02*
X14648634Y-15927627D01*
X14648634Y-15927627D02*
X14639111Y-15899055D01*
X14639111Y-15899055D02*
X14629587Y-15880008D01*
X14629587Y-15880008D02*
X14610539Y-15851436D01*
X14610539Y-15851436D02*
X14601015Y-15841912D01*
M02*
