%TF.GenerationSoftware,KiCad,Pcbnew,8.0.1*%
%TF.CreationDate,2024-04-11T17:25:41+02:00*%
%TF.ProjectId,mold_detect,6d6f6c64-5f64-4657-9465-63742e6b6963,rev?*%
%TF.SameCoordinates,Original*%
%TF.FileFunction,Paste,Top*%
%TF.FilePolarity,Positive*%
%FSLAX46Y46*%
G04 Gerber Fmt 4.6, Leading zero omitted, Abs format (unit mm)*
G04 Created by KiCad (PCBNEW 8.0.1) date 2024-04-11 17:25:41*
%MOMM*%
%LPD*%
G01*
G04 APERTURE LIST*
G04 Aperture macros list*
%AMRoundRect*
0 Rectangle with rounded corners*
0 $1 Rounding radius*
0 $2 $3 $4 $5 $6 $7 $8 $9 X,Y pos of 4 corners*
0 Add a 4 corners polygon primitive as box body*
4,1,4,$2,$3,$4,$5,$6,$7,$8,$9,$2,$3,0*
0 Add four circle primitives for the rounded corners*
1,1,$1+$1,$2,$3*
1,1,$1+$1,$4,$5*
1,1,$1+$1,$6,$7*
1,1,$1+$1,$8,$9*
0 Add four rect primitives between the rounded corners*
20,1,$1+$1,$2,$3,$4,$5,0*
20,1,$1+$1,$4,$5,$6,$7,0*
20,1,$1+$1,$6,$7,$8,$9,0*
20,1,$1+$1,$8,$9,$2,$3,0*%
%AMFreePoly0*
4,1,6,0.450000,-0.800000,-0.450000,-0.800000,-0.450000,0.530000,-0.180000,0.800000,0.450000,0.800000,0.450000,-0.800000,0.450000,-0.800000,$1*%
G04 Aperture macros list end*
%ADD10RoundRect,0.237500X-0.237500X0.300000X-0.237500X-0.300000X0.237500X-0.300000X0.237500X0.300000X0*%
%ADD11RoundRect,0.237500X-0.237500X0.250000X-0.237500X-0.250000X0.237500X-0.250000X0.237500X0.250000X0*%
%ADD12RoundRect,0.237500X0.300000X0.237500X-0.300000X0.237500X-0.300000X-0.237500X0.300000X-0.237500X0*%
%ADD13RoundRect,0.150000X0.425000X-0.150000X0.425000X0.150000X-0.425000X0.150000X-0.425000X-0.150000X0*%
%ADD14RoundRect,0.075000X0.500000X-0.075000X0.500000X0.075000X-0.500000X0.075000X-0.500000X-0.075000X0*%
%ADD15O,2.100000X1.000000*%
%ADD16O,1.800000X1.000000*%
%ADD17RoundRect,0.237500X0.237500X-0.250000X0.237500X0.250000X-0.237500X0.250000X-0.237500X-0.250000X0*%
%ADD18RoundRect,0.237500X0.237500X-0.300000X0.237500X0.300000X-0.237500X0.300000X-0.237500X-0.300000X0*%
%ADD19R,0.550000X0.250000*%
%ADD20FreePoly0,180.000000*%
%ADD21RoundRect,0.250000X0.250000X-0.250000X0.250000X0.250000X-0.250000X0.250000X-0.250000X-0.250000X0*%
%ADD22RoundRect,0.237500X0.250000X0.237500X-0.250000X0.237500X-0.250000X-0.237500X0.250000X-0.237500X0*%
%ADD23R,0.400000X1.200000*%
%ADD24RoundRect,0.150000X0.650000X0.150000X-0.650000X0.150000X-0.650000X-0.150000X0.650000X-0.150000X0*%
%ADD25RoundRect,0.150000X-0.512500X-0.150000X0.512500X-0.150000X0.512500X0.150000X-0.512500X0.150000X0*%
%ADD26RoundRect,0.237500X-0.300000X-0.237500X0.300000X-0.237500X0.300000X0.237500X-0.300000X0.237500X0*%
G04 APERTURE END LIST*
D10*
%TO.C,C12*%
X82500000Y-80137500D03*
X82500000Y-81862500D03*
%TD*%
%TO.C,FB1*%
X100500000Y-74637500D03*
X100500000Y-76362500D03*
%TD*%
D11*
%TO.C,R13*%
X54500000Y-68412500D03*
X54500000Y-66587500D03*
%TD*%
D12*
%TO.C,C10*%
X88862500Y-71000000D03*
X87137500Y-71000000D03*
%TD*%
D13*
%TO.C,J1*%
X97320000Y-70100000D03*
X97320000Y-69300000D03*
D14*
X97320000Y-68150000D03*
X97320000Y-67150000D03*
X97320000Y-66650000D03*
X97320000Y-65650000D03*
D13*
X97320000Y-64500000D03*
X97320000Y-63700000D03*
X97320000Y-63700000D03*
X97320000Y-64500000D03*
D14*
X97320000Y-65150000D03*
X97320000Y-66150000D03*
X97320000Y-67650000D03*
X97320000Y-68650000D03*
D13*
X97320000Y-69300000D03*
X97320000Y-70100000D03*
D15*
X97895000Y-71220000D03*
D16*
X102075000Y-71220000D03*
D15*
X97895000Y-62580000D03*
D16*
X102075000Y-62580000D03*
%TD*%
D17*
%TO.C,R12*%
X52500000Y-54500000D03*
X52500000Y-56325000D03*
%TD*%
D18*
%TO.C,C11*%
X74500000Y-55637500D03*
X74500000Y-57362500D03*
%TD*%
D12*
%TO.C,C1*%
X101862500Y-73000000D03*
X100137500Y-73000000D03*
%TD*%
D17*
%TO.C,R3*%
X94587500Y-64045000D03*
X94587500Y-62220000D03*
%TD*%
D18*
%TO.C,C6*%
X52667500Y-75067500D03*
X52667500Y-76792500D03*
%TD*%
D19*
%TO.C,U4*%
X76500000Y-57000000D03*
X76500000Y-56500000D03*
X76500000Y-56000000D03*
X76500000Y-55500000D03*
X78850000Y-55500000D03*
X78850000Y-56000000D03*
X78850000Y-56500000D03*
X78850000Y-57000000D03*
D20*
X77675000Y-56250000D03*
%TD*%
D17*
%TO.C,R1*%
X77500000Y-74537500D03*
X77500000Y-76362500D03*
%TD*%
D21*
%TO.C,D1*%
X87500000Y-75570000D03*
X87500000Y-73070000D03*
%TD*%
D10*
%TO.C,C2*%
X98000000Y-73137500D03*
X98000000Y-74862500D03*
%TD*%
D11*
%TO.C,R6*%
X70500000Y-70500000D03*
X70500000Y-68675000D03*
%TD*%
D22*
%TO.C,R7*%
X60587500Y-53000000D03*
X62412500Y-53000000D03*
%TD*%
D21*
%TO.C,D2*%
X74500000Y-50750000D03*
X74500000Y-53250000D03*
%TD*%
D22*
%TO.C,R9*%
X70587500Y-58000000D03*
X72412500Y-58000000D03*
%TD*%
%TO.C,R8*%
X70587500Y-55500000D03*
X72412500Y-55500000D03*
%TD*%
D17*
%TO.C,R10*%
X56500000Y-64587500D03*
X56500000Y-66412500D03*
%TD*%
D10*
%TO.C,C7*%
X52667500Y-78637500D03*
X52667500Y-80362500D03*
%TD*%
D11*
%TO.C,R11*%
X50000000Y-57750000D03*
X50000000Y-55925000D03*
%TD*%
%TO.C,R2*%
X94587500Y-69807500D03*
X94587500Y-71632500D03*
%TD*%
D23*
%TO.C,U2*%
X90555000Y-64050000D03*
X89920000Y-64050000D03*
X89285000Y-64050000D03*
X88650000Y-64050000D03*
X88015000Y-64050000D03*
X87380000Y-64050000D03*
X86745000Y-64050000D03*
X86110000Y-64050000D03*
X86110000Y-69250000D03*
X86745000Y-69250000D03*
X87380000Y-69250000D03*
X88015000Y-69250000D03*
X88650000Y-69250000D03*
X89285000Y-69250000D03*
X89920000Y-69250000D03*
X90555000Y-69250000D03*
%TD*%
D22*
%TO.C,R4*%
X92675000Y-67910000D03*
X94500000Y-67910000D03*
%TD*%
D24*
%TO.C,U5*%
X73312026Y-84540000D03*
X73312026Y-83270000D03*
X73312026Y-82000000D03*
X73312026Y-80730000D03*
X80512026Y-80730000D03*
X80512026Y-82000000D03*
X80512026Y-83270000D03*
X80512026Y-84540000D03*
%TD*%
D25*
%TO.C,U1*%
X81637500Y-73550000D03*
X81637500Y-74500000D03*
X81637500Y-75450000D03*
X79362500Y-75450000D03*
X79362500Y-74500000D03*
X79362500Y-73550000D03*
%TD*%
D22*
%TO.C,R5*%
X92675000Y-65720000D03*
X94500000Y-65720000D03*
%TD*%
D26*
%TO.C,C4*%
X77362500Y-73000000D03*
X75637500Y-73000000D03*
%TD*%
M02*
