%TF.GenerationSoftware,KiCad,Pcbnew,7.0.10*%
%TF.CreationDate,2024-01-09T16:20:14+01:00*%
%TF.ProjectId,mold_detect,6d6f6c64-5f64-4657-9465-63742e6b6963,rev?*%
%TF.SameCoordinates,Original*%
%TF.FileFunction,Soldermask,Top*%
%TF.FilePolarity,Negative*%
%FSLAX46Y46*%
G04 Gerber Fmt 4.6, Leading zero omitted, Abs format (unit mm)*
G04 Created by KiCad (PCBNEW 7.0.10) date 2024-01-09 16:20:14*
%MOMM*%
%LPD*%
G01*
G04 APERTURE LIST*
G04 Aperture macros list*
%AMRoundRect*
0 Rectangle with rounded corners*
0 $1 Rounding radius*
0 $2 $3 $4 $5 $6 $7 $8 $9 X,Y pos of 4 corners*
0 Add a 4 corners polygon primitive as box body*
4,1,4,$2,$3,$4,$5,$6,$7,$8,$9,$2,$3,0*
0 Add four circle primitives for the rounded corners*
1,1,$1+$1,$2,$3*
1,1,$1+$1,$4,$5*
1,1,$1+$1,$6,$7*
1,1,$1+$1,$8,$9*
0 Add four rect primitives between the rounded corners*
20,1,$1+$1,$2,$3,$4,$5,0*
20,1,$1+$1,$4,$5,$6,$7,0*
20,1,$1+$1,$6,$7,$8,$9,0*
20,1,$1+$1,$8,$9,$2,$3,0*%
%AMFreePoly0*
4,1,6,0.500000,-0.850000,-0.500000,-0.850000,-0.500000,0.550000,-0.200000,0.850000,0.500000,0.850000,0.500000,-0.850000,0.500000,-0.850000,$1*%
G04 Aperture macros list end*
%ADD10O,1.700000X1.700000*%
%ADD11R,1.700000X1.700000*%
%ADD12RoundRect,0.150000X-0.150000X0.650000X-0.150000X-0.650000X0.150000X-0.650000X0.150000X0.650000X0*%
%ADD13C,3.450000*%
%ADD14R,2.000000X2.000000*%
%ADD15C,2.000000*%
%ADD16RoundRect,0.200000X0.275000X-0.200000X0.275000X0.200000X-0.275000X0.200000X-0.275000X-0.200000X0*%
%ADD17R,0.550000X0.250000*%
%ADD18FreePoly0,180.000000*%
%ADD19C,3.200000*%
%ADD20RoundRect,0.200000X-0.275000X0.200000X-0.275000X-0.200000X0.275000X-0.200000X0.275000X0.200000X0*%
%ADD21RoundRect,0.200000X0.200000X0.275000X-0.200000X0.275000X-0.200000X-0.275000X0.200000X-0.275000X0*%
%ADD22R,1.800000X1.800000*%
%ADD23C,1.800000*%
%ADD24R,2.160000X1.120000*%
%ADD25RoundRect,0.125000X-0.125000X-0.125000X0.125000X-0.125000X0.125000X0.125000X-0.125000X0.125000X0*%
%ADD26RoundRect,0.150000X-0.512500X-0.150000X0.512500X-0.150000X0.512500X0.150000X-0.512500X0.150000X0*%
%ADD27O,1.600000X1.600000*%
%ADD28R,1.600000X1.600000*%
%ADD29RoundRect,0.200000X-0.200000X-0.275000X0.200000X-0.275000X0.200000X0.275000X-0.200000X0.275000X0*%
%ADD30RoundRect,0.250000X0.475000X-0.250000X0.475000X0.250000X-0.475000X0.250000X-0.475000X-0.250000X0*%
%ADD31RoundRect,0.250000X0.250000X0.475000X-0.250000X0.475000X-0.250000X-0.475000X0.250000X-0.475000X0*%
G04 APERTURE END LIST*
D10*
%TO.C,J2*%
X106700000Y-81280000D03*
X106700000Y-83820000D03*
X106700000Y-86360000D03*
D11*
X106700000Y-88900000D03*
%TD*%
D12*
%TO.C,U4*%
X111805000Y-131082500D03*
X110535000Y-131082500D03*
X109265000Y-131082500D03*
X107995000Y-131082500D03*
X107995000Y-138282500D03*
X109265000Y-138282500D03*
X110535000Y-138282500D03*
X111805000Y-138282500D03*
%TD*%
D13*
%TO.C,BT1*%
X89650000Y-128210000D03*
D14*
X98350000Y-89600000D03*
D15*
X85650000Y-89600000D03*
%TD*%
D16*
%TO.C,R3*%
X90000000Y-83825000D03*
X90000000Y-82175000D03*
%TD*%
D17*
%TO.C,U1*%
X91725000Y-144350000D03*
X91725000Y-143850000D03*
X91725000Y-143350000D03*
X91725000Y-142850000D03*
X89375000Y-142850000D03*
X89375000Y-143350000D03*
X89375000Y-143850000D03*
X89375000Y-144350000D03*
D18*
X90550000Y-143600000D03*
%TD*%
D16*
%TO.C,R6*%
X93075000Y-146000000D03*
X93075000Y-144350000D03*
%TD*%
D19*
%TO.C,H4*%
X112000000Y-83000000D03*
%TD*%
D20*
%TO.C,R5*%
X93075000Y-141300000D03*
X93075000Y-142950000D03*
%TD*%
D21*
%TO.C,R4*%
X105600000Y-91557107D03*
X107250000Y-91557107D03*
%TD*%
D22*
%TO.C,Red1*%
X97200000Y-144975000D03*
D23*
X97200000Y-142435000D03*
%TD*%
D24*
%TO.C,SW1*%
X96535000Y-82400000D03*
X103265000Y-82400000D03*
%TD*%
D22*
%TO.C,Blue1*%
X105400000Y-144975000D03*
D23*
X105400000Y-142435000D03*
%TD*%
D25*
%TO.C,D1*%
X89600000Y-85500000D03*
X91800000Y-85500000D03*
%TD*%
D21*
%TO.C,R2*%
X100775000Y-145400000D03*
X102425000Y-145400000D03*
%TD*%
D19*
%TO.C,H1*%
X82000000Y-144000000D03*
%TD*%
D26*
%TO.C,U2*%
X91762500Y-81800000D03*
X91762500Y-82750000D03*
X91762500Y-83700000D03*
X94037500Y-83700000D03*
X94037500Y-82750000D03*
X94037500Y-81800000D03*
%TD*%
D19*
%TO.C,H2*%
X82000000Y-83000000D03*
%TD*%
%TO.C,H3*%
X112000000Y-144000000D03*
%TD*%
D27*
%TO.C,U3*%
X113645000Y-93917107D03*
X113645000Y-96457107D03*
X113645000Y-98997107D03*
X113645000Y-101537107D03*
X113645000Y-104077107D03*
X113645000Y-106617107D03*
X113645000Y-109157107D03*
X113645000Y-111697107D03*
X113645000Y-114237107D03*
X113645000Y-116777107D03*
X113645000Y-119317107D03*
X113645000Y-121857107D03*
X113645000Y-124397107D03*
X113645000Y-126937107D03*
X106025000Y-126937107D03*
X106025000Y-124397107D03*
X106025000Y-121857107D03*
X106025000Y-119317107D03*
X106025000Y-116777107D03*
X106025000Y-114237107D03*
X106025000Y-111697107D03*
X106025000Y-109157107D03*
X106025000Y-106617107D03*
X106025000Y-104077107D03*
X106025000Y-101537107D03*
X106025000Y-98997107D03*
X106025000Y-96457107D03*
D28*
X106025000Y-93917107D03*
%TD*%
D29*
%TO.C,R1*%
X100175000Y-143800000D03*
X101825000Y-143800000D03*
%TD*%
D30*
%TO.C,C1*%
X87775000Y-144590000D03*
X87775000Y-142690000D03*
%TD*%
D31*
%TO.C,C2*%
X87950000Y-85500000D03*
X86050000Y-85500000D03*
%TD*%
M02*
