%TF.GenerationSoftware,KiCad,Pcbnew,8.0.1*%
%TF.CreationDate,2024-04-17T16:40:04+02:00*%
%TF.ProjectId,mold_detect,6d6f6c64-5f64-4657-9465-63742e6b6963,rev?*%
%TF.SameCoordinates,Original*%
%TF.FileFunction,Copper,L1,Top*%
%TF.FilePolarity,Positive*%
%FSLAX46Y46*%
G04 Gerber Fmt 4.6, Leading zero omitted, Abs format (unit mm)*
G04 Created by KiCad (PCBNEW 8.0.1) date 2024-04-17 16:40:04*
%MOMM*%
%LPD*%
G01*
G04 APERTURE LIST*
G04 Aperture macros list*
%AMRoundRect*
0 Rectangle with rounded corners*
0 $1 Rounding radius*
0 $2 $3 $4 $5 $6 $7 $8 $9 X,Y pos of 4 corners*
0 Add a 4 corners polygon primitive as box body*
4,1,4,$2,$3,$4,$5,$6,$7,$8,$9,$2,$3,0*
0 Add four circle primitives for the rounded corners*
1,1,$1+$1,$2,$3*
1,1,$1+$1,$4,$5*
1,1,$1+$1,$6,$7*
1,1,$1+$1,$8,$9*
0 Add four rect primitives between the rounded corners*
20,1,$1+$1,$2,$3,$4,$5,0*
20,1,$1+$1,$4,$5,$6,$7,0*
20,1,$1+$1,$6,$7,$8,$9,0*
20,1,$1+$1,$8,$9,$2,$3,0*%
%AMFreePoly0*
4,1,6,0.500000,-0.850000,-0.500000,-0.850000,-0.500000,0.550000,-0.200000,0.850000,0.500000,0.850000,0.500000,-0.850000,0.500000,-0.850000,$1*%
G04 Aperture macros list end*
%TA.AperFunction,SMDPad,CuDef*%
%ADD10RoundRect,0.237500X-0.300000X-0.237500X0.300000X-0.237500X0.300000X0.237500X-0.300000X0.237500X0*%
%TD*%
%TA.AperFunction,SMDPad,CuDef*%
%ADD11RoundRect,0.237500X-0.237500X0.250000X-0.237500X-0.250000X0.237500X-0.250000X0.237500X0.250000X0*%
%TD*%
%TA.AperFunction,SMDPad,CuDef*%
%ADD12RoundRect,0.150000X-0.512500X-0.150000X0.512500X-0.150000X0.512500X0.150000X-0.512500X0.150000X0*%
%TD*%
%TA.AperFunction,SMDPad,CuDef*%
%ADD13RoundRect,0.237500X0.250000X0.237500X-0.250000X0.237500X-0.250000X-0.237500X0.250000X-0.237500X0*%
%TD*%
%TA.AperFunction,ComponentPad*%
%ADD14R,1.600000X1.600000*%
%TD*%
%TA.AperFunction,ComponentPad*%
%ADD15C,1.600000*%
%TD*%
%TA.AperFunction,SMDPad,CuDef*%
%ADD16RoundRect,0.150000X0.425000X-0.150000X0.425000X0.150000X-0.425000X0.150000X-0.425000X-0.150000X0*%
%TD*%
%TA.AperFunction,SMDPad,CuDef*%
%ADD17RoundRect,0.075000X0.500000X-0.075000X0.500000X0.075000X-0.500000X0.075000X-0.500000X-0.075000X0*%
%TD*%
%TA.AperFunction,ComponentPad*%
%ADD18O,2.100000X1.000000*%
%TD*%
%TA.AperFunction,ComponentPad*%
%ADD19O,1.800000X1.000000*%
%TD*%
%TA.AperFunction,SMDPad,CuDef*%
%ADD20RoundRect,0.237500X0.237500X-0.250000X0.237500X0.250000X-0.237500X0.250000X-0.237500X-0.250000X0*%
%TD*%
%TA.AperFunction,SMDPad,CuDef*%
%ADD21RoundRect,0.250000X0.250000X-0.250000X0.250000X0.250000X-0.250000X0.250000X-0.250000X-0.250000X0*%
%TD*%
%TA.AperFunction,SMDPad,CuDef*%
%ADD22RoundRect,0.237500X0.300000X0.237500X-0.300000X0.237500X-0.300000X-0.237500X0.300000X-0.237500X0*%
%TD*%
%TA.AperFunction,SMDPad,CuDef*%
%ADD23RoundRect,0.237500X0.237500X-0.300000X0.237500X0.300000X-0.237500X0.300000X-0.237500X-0.300000X0*%
%TD*%
%TA.AperFunction,SMDPad,CuDef*%
%ADD24RoundRect,0.237500X-0.237500X0.300000X-0.237500X-0.300000X0.237500X-0.300000X0.237500X0.300000X0*%
%TD*%
%TA.AperFunction,ComponentPad*%
%ADD25R,1.800000X1.800000*%
%TD*%
%TA.AperFunction,ComponentPad*%
%ADD26C,1.800000*%
%TD*%
%TA.AperFunction,ComponentPad*%
%ADD27RoundRect,0.250000X0.600000X-0.600000X0.600000X0.600000X-0.600000X0.600000X-0.600000X-0.600000X0*%
%TD*%
%TA.AperFunction,ComponentPad*%
%ADD28C,1.700000*%
%TD*%
%TA.AperFunction,ComponentPad*%
%ADD29O,1.600000X1.600000*%
%TD*%
%TA.AperFunction,SMDPad,CuDef*%
%ADD30R,0.400000X1.200000*%
%TD*%
%TA.AperFunction,SMDPad,CuDef*%
%ADD31RoundRect,0.150000X0.650000X0.150000X-0.650000X0.150000X-0.650000X-0.150000X0.650000X-0.150000X0*%
%TD*%
%TA.AperFunction,ComponentPad*%
%ADD32C,1.500000*%
%TD*%
%TA.AperFunction,SMDPad,CuDef*%
%ADD33R,0.550000X0.250000*%
%TD*%
%TA.AperFunction,SMDPad,CuDef*%
%ADD34FreePoly0,180.000000*%
%TD*%
%TA.AperFunction,ComponentPad*%
%ADD35R,2.000000X2.000000*%
%TD*%
%TA.AperFunction,ComponentPad*%
%ADD36C,2.000000*%
%TD*%
%TA.AperFunction,ViaPad*%
%ADD37C,1.100000*%
%TD*%
%TA.AperFunction,Conductor*%
%ADD38C,0.300000*%
%TD*%
%TA.AperFunction,Conductor*%
%ADD39C,0.500000*%
%TD*%
G04 APERTURE END LIST*
D10*
%TO.P,C4,1*%
%TO.N,GND*%
X75637500Y-73000000D03*
%TO.P,C4,2*%
%TO.N,+3V0*%
X77362500Y-73000000D03*
%TD*%
D11*
%TO.P,R2,1*%
%TO.N,Net-(J1-CC1)*%
X94587500Y-69807500D03*
%TO.P,R2,2*%
%TO.N,GND*%
X94587500Y-71632500D03*
%TD*%
D12*
%TO.P,U1,1,VDD*%
%TO.N,+3V0*%
X79362500Y-73550000D03*
%TO.P,U1,2,GND*%
%TO.N,GND*%
X79362500Y-74500000D03*
%TO.P,U1,3,DELAY/M_RST*%
%TO.N,Net-(U1-DELAY{slash}M_RST)*%
X79362500Y-75450000D03*
%TO.P,U1,4,DONE*%
%TO.N,DONE*%
X81637500Y-75450000D03*
%TO.P,U1,5,WAKE*%
%TO.N,WAKE_INTR*%
X81637500Y-74500000D03*
%TO.P,U1,6,~{RST}*%
%TO.N,RST*%
X81637500Y-73550000D03*
%TD*%
D13*
%TO.P,R8,1*%
%TO.N,+3V0*%
X72412500Y-55500000D03*
%TO.P,R8,2*%
%TO.N,SCL*%
X70587500Y-55500000D03*
%TD*%
D14*
%TO.P,C3,1*%
%TO.N,Net-(U2-VCC)*%
X100500000Y-80000000D03*
D15*
%TO.P,C3,2*%
%TO.N,GND*%
X98500000Y-80000000D03*
%TD*%
D16*
%TO.P,J1,A1,GND*%
%TO.N,GND*%
X97320000Y-70100000D03*
%TO.P,J1,A4,VBUS*%
%TO.N,Net-(C1-Pad2)*%
X97320000Y-69300000D03*
D17*
%TO.P,J1,A5,CC1*%
%TO.N,Net-(J1-CC1)*%
X97320000Y-68150000D03*
%TO.P,J1,A6,D+*%
%TO.N,Net-(C9-Pad2)*%
X97320000Y-67150000D03*
%TO.P,J1,A7,D-*%
%TO.N,Net-(C8-Pad2)*%
X97320000Y-66650000D03*
%TO.P,J1,A8*%
%TO.N,N/C*%
X97320000Y-65650000D03*
D16*
%TO.P,J1,A9,VBUS*%
%TO.N,Net-(C1-Pad2)*%
X97320000Y-64500000D03*
%TO.P,J1,A12,GND*%
%TO.N,GND*%
X97320000Y-63700000D03*
%TO.P,J1,B1,GND*%
X97320000Y-63700000D03*
%TO.P,J1,B4,VBUS*%
%TO.N,Net-(C1-Pad2)*%
X97320000Y-64500000D03*
D17*
%TO.P,J1,B5,CC2*%
%TO.N,Net-(J1-CC2)*%
X97320000Y-65150000D03*
%TO.P,J1,B6,D+*%
%TO.N,Net-(C9-Pad2)*%
X97320000Y-66150000D03*
%TO.P,J1,B7,D-*%
%TO.N,Net-(C8-Pad2)*%
X97320000Y-67650000D03*
%TO.P,J1,B8*%
%TO.N,N/C*%
X97320000Y-68650000D03*
D16*
%TO.P,J1,B9,VBUS*%
%TO.N,Net-(C1-Pad2)*%
X97320000Y-69300000D03*
%TO.P,J1,B12,GND*%
%TO.N,GND*%
X97320000Y-70100000D03*
D18*
%TO.P,J1,S1,SHIELD*%
X97895000Y-71220000D03*
D19*
X102075000Y-71220000D03*
D18*
X97895000Y-62580000D03*
D19*
X102075000Y-62580000D03*
%TD*%
D20*
%TO.P,R1,1*%
%TO.N,Net-(U1-DELAY{slash}M_RST)*%
X77500000Y-76362500D03*
%TO.P,R1,2*%
%TO.N,GND*%
X77500000Y-74537500D03*
%TD*%
D21*
%TO.P,D1,1,K*%
%TO.N,+3V0*%
X87500000Y-75570000D03*
%TO.P,D1,2,A*%
%TO.N,USB_ENABLE_INTR*%
X87500000Y-73070000D03*
%TD*%
%TO.P,D2,1,K*%
%TO.N,+3V0*%
X74500000Y-53250000D03*
%TO.P,D2,2,A*%
%TO.N,Net-(BT1-+)*%
X74500000Y-50750000D03*
%TD*%
D22*
%TO.P,C10,1*%
%TO.N,GND*%
X88862500Y-71000000D03*
%TO.P,C10,2*%
%TO.N,USB_ENABLE_INTR*%
X87137500Y-71000000D03*
%TD*%
D23*
%TO.P,C6,1*%
%TO.N,GND*%
X52667500Y-76792500D03*
%TO.P,C6,2*%
%TO.N,Net-(U3-XTAL1{slash}PB6)*%
X52667500Y-75067500D03*
%TD*%
D11*
%TO.P,R6,1*%
%TO.N,USB_ENABLE_INTR*%
X70500000Y-68675000D03*
%TO.P,R6,2*%
%TO.N,GND*%
X70500000Y-70500000D03*
%TD*%
D13*
%TO.P,R5,1*%
%TO.N,Net-(C9-Pad2)*%
X94500000Y-65720000D03*
%TO.P,R5,2*%
%TO.N,Net-(U2-USBDP)*%
X92675000Y-65720000D03*
%TD*%
D24*
%TO.P,C7,1*%
%TO.N,GND*%
X52667500Y-78637500D03*
%TO.P,C7,2*%
%TO.N,Net-(U3-XTAL2{slash}PB7)*%
X52667500Y-80362500D03*
%TD*%
D25*
%TO.P,Red2,1,K*%
%TO.N,Net-(Red2-K)*%
X56000000Y-54725000D03*
D26*
%TO.P,Red2,2,A*%
%TO.N,TEMP_LED*%
X56000000Y-57265000D03*
%TD*%
D27*
%TO.P,J2,1,Pin_1*%
%TO.N,CIPO*%
X59500000Y-98000000D03*
D28*
%TO.P,J2,2,Pin_2*%
%TO.N,+3V0*%
X59500000Y-95460000D03*
%TO.P,J2,3,Pin_3*%
%TO.N,SCK*%
X62040000Y-98000000D03*
%TO.P,J2,4,Pin_4*%
%TO.N,COPI*%
X62040000Y-95460000D03*
%TO.P,J2,5,Pin_5*%
%TO.N,RST*%
X64580000Y-98000000D03*
%TO.P,J2,6,Pin_6*%
%TO.N,GND*%
X64580000Y-95460000D03*
%TD*%
D24*
%TO.P,C2,1*%
%TO.N,GND*%
X98000000Y-73137500D03*
%TO.P,C2,2*%
%TO.N,Net-(U2-VCC)*%
X98000000Y-74862500D03*
%TD*%
D11*
%TO.P,R13,1*%
%TO.N,GND*%
X54500000Y-66587500D03*
%TO.P,R13,2*%
%TO.N,Net-(Blue1-K)*%
X54500000Y-68412500D03*
%TD*%
D23*
%TO.P,C11,1*%
%TO.N,GND*%
X74500000Y-57362500D03*
%TO.P,C11,2*%
%TO.N,+3V0*%
X74500000Y-55637500D03*
%TD*%
D24*
%TO.P,FB1,1*%
%TO.N,Net-(C1-Pad2)*%
X100500000Y-74637500D03*
%TO.P,FB1,2*%
%TO.N,Net-(U2-VCC)*%
X100500000Y-76362500D03*
%TD*%
D25*
%TO.P,Red1,1,K*%
%TO.N,Net-(Red1-K)*%
X51000000Y-60000000D03*
D26*
%TO.P,Red1,2,A*%
%TO.N,ERROR_LED*%
X51000000Y-62540000D03*
%TD*%
D11*
%TO.P,R11,1*%
%TO.N,GND*%
X50000000Y-55925000D03*
%TO.P,R11,2*%
%TO.N,Net-(Red1-K)*%
X50000000Y-57750000D03*
%TD*%
D20*
%TO.P,R10,1*%
%TO.N,GND*%
X56500000Y-66412500D03*
%TO.P,R10,2*%
%TO.N,Net-(Green1-K)*%
X56500000Y-64587500D03*
%TD*%
D13*
%TO.P,R4,1*%
%TO.N,Net-(C8-Pad2)*%
X94500000Y-67910000D03*
%TO.P,R4,2*%
%TO.N,Net-(U2-USBDM)*%
X92675000Y-67910000D03*
%TD*%
%TO.P,R9,1*%
%TO.N,+3V0*%
X72412500Y-58000000D03*
%TO.P,R9,2*%
%TO.N,SDA*%
X70587500Y-58000000D03*
%TD*%
D20*
%TO.P,R12,1*%
%TO.N,GND*%
X52500000Y-56325000D03*
%TO.P,R12,2*%
%TO.N,Net-(Red2-K)*%
X52500000Y-54500000D03*
%TD*%
D14*
%TO.P,U3,1,~{RESET}/PC6*%
%TO.N,RST*%
X60712500Y-55640000D03*
D29*
%TO.P,U3,2,PD0*%
%TO.N,RXD*%
X60712500Y-58180000D03*
%TO.P,U3,3,PD1*%
%TO.N,TXD*%
X60712500Y-60720000D03*
%TO.P,U3,4,PD2*%
%TO.N,TEMP_LED*%
X60712500Y-63260000D03*
%TO.P,U3,5,PD3*%
%TO.N,WAKE_INTR*%
X60712500Y-65800000D03*
%TO.P,U3,6,PD4*%
%TO.N,DONE*%
X60712500Y-68340000D03*
%TO.P,U3,7,VCC*%
%TO.N,+3V0*%
X60712500Y-70880000D03*
%TO.P,U3,8,GND*%
%TO.N,GND*%
X60712500Y-73420000D03*
%TO.P,U3,9,XTAL1/PB6*%
%TO.N,Net-(U3-XTAL1{slash}PB6)*%
X60712500Y-75960000D03*
%TO.P,U3,10,XTAL2/PB7*%
%TO.N,Net-(U3-XTAL2{slash}PB7)*%
X60712500Y-78500000D03*
%TO.P,U3,11,PD5*%
%TO.N,GENERAL_LED*%
X60712500Y-81040000D03*
%TO.P,U3,12,PD6*%
%TO.N,HUM_LED*%
X60712500Y-83580000D03*
%TO.P,U3,13,PD7*%
%TO.N,ERROR_LED*%
X60712500Y-86120000D03*
%TO.P,U3,14,PB0*%
%TO.N,unconnected-(U3-PB0-Pad14)*%
X60712500Y-88660000D03*
%TO.P,U3,15,PB1*%
%TO.N,unconnected-(U3-PB1-Pad15)*%
X68332500Y-88660000D03*
%TO.P,U3,16,PB2*%
%TO.N,FLASH_CS*%
X68332500Y-86120000D03*
%TO.P,U3,17,PB3*%
%TO.N,COPI*%
X68332500Y-83580000D03*
%TO.P,U3,18,PB4*%
%TO.N,CIPO*%
X68332500Y-81040000D03*
%TO.P,U3,19,PB5*%
%TO.N,SCK*%
X68332500Y-78500000D03*
%TO.P,U3,20,AVCC*%
%TO.N,unconnected-(U3-AVCC-Pad20)*%
X68332500Y-75960000D03*
%TO.P,U3,21,AREF*%
%TO.N,unconnected-(U3-AREF-Pad21)*%
X68332500Y-73420000D03*
%TO.P,U3,22,GND*%
%TO.N,GND*%
X68332500Y-70880000D03*
%TO.P,U3,23,PC0*%
%TO.N,USB_ENABLE_INTR*%
X68332500Y-68340000D03*
%TO.P,U3,24,PC1*%
%TO.N,unconnected-(U3-PC1-Pad24)*%
X68332500Y-65800000D03*
%TO.P,U3,25,PC2*%
%TO.N,unconnected-(U3-PC2-Pad25)*%
X68332500Y-63260000D03*
%TO.P,U3,26,PC3*%
%TO.N,unconnected-(U3-PC3-Pad26)*%
X68332500Y-60720000D03*
%TO.P,U3,27,PC4*%
%TO.N,SDA*%
X68332500Y-58180000D03*
%TO.P,U3,28,PC5*%
%TO.N,SCL*%
X68332500Y-55640000D03*
%TD*%
D25*
%TO.P,Green1,1,K*%
%TO.N,Net-(Green1-K)*%
X56000000Y-62525000D03*
D26*
%TO.P,Green1,2,A*%
%TO.N,GENERAL_LED*%
X56000000Y-59985000D03*
%TD*%
D30*
%TO.P,U2,1,TXD*%
%TO.N,RXD*%
X90555000Y-64050000D03*
%TO.P,U2,2,~{RTS}*%
%TO.N,unconnected-(U2-~{RTS}-Pad2)*%
X89920000Y-64050000D03*
%TO.P,U2,3,VCCIO*%
%TO.N,USB_ENABLE_INTR*%
X89285000Y-64050000D03*
%TO.P,U2,4,RXD*%
%TO.N,TXD*%
X88650000Y-64050000D03*
%TO.P,U2,5,GND*%
%TO.N,GND*%
X88015000Y-64050000D03*
%TO.P,U2,6,~{CTS}*%
%TO.N,unconnected-(U2-~{CTS}-Pad6)*%
X87380000Y-64050000D03*
%TO.P,U2,7,CBUS2*%
%TO.N,unconnected-(U2-CBUS2-Pad7)*%
X86745000Y-64050000D03*
%TO.P,U2,8,USBDP*%
%TO.N,Net-(U2-USBDP)*%
X86110000Y-64050000D03*
%TO.P,U2,9,USBDM*%
%TO.N,Net-(U2-USBDM)*%
X86110000Y-69250000D03*
%TO.P,U2,10,3V3OUT*%
%TO.N,USB_ENABLE_INTR*%
X86745000Y-69250000D03*
%TO.P,U2,11,~{RESET}*%
X87380000Y-69250000D03*
%TO.P,U2,12,VCC*%
%TO.N,Net-(U2-VCC)*%
X88015000Y-69250000D03*
%TO.P,U2,13,GND*%
%TO.N,GND*%
X88650000Y-69250000D03*
%TO.P,U2,14,CBUS1*%
%TO.N,unconnected-(U2-CBUS1-Pad14)*%
X89285000Y-69250000D03*
%TO.P,U2,15,CBUS0*%
%TO.N,unconnected-(U2-CBUS0-Pad15)*%
X89920000Y-69250000D03*
%TO.P,U2,16,CBUS3*%
%TO.N,unconnected-(U2-CBUS3-Pad16)*%
X90555000Y-69250000D03*
%TD*%
D24*
%TO.P,C12,1*%
%TO.N,GND*%
X82500000Y-80137500D03*
%TO.P,C12,2*%
%TO.N,+3V0*%
X82500000Y-81862500D03*
%TD*%
D31*
%TO.P,U5,1,~{CS}*%
%TO.N,FLASH_CS*%
X80512026Y-84540000D03*
%TO.P,U5,2,DO(IO1)*%
%TO.N,CIPO*%
X80512026Y-83270000D03*
%TO.P,U5,3,IO2*%
%TO.N,+3V0*%
X80512026Y-82000000D03*
%TO.P,U5,4,GND*%
%TO.N,GND*%
X80512026Y-80730000D03*
%TO.P,U5,5,DI(IO0)*%
%TO.N,COPI*%
X73312026Y-80730000D03*
%TO.P,U5,6,CLK*%
%TO.N,SCK*%
X73312026Y-82000000D03*
%TO.P,U5,7,IO3*%
%TO.N,+3V0*%
X73312026Y-83270000D03*
%TO.P,U5,8,VCC*%
X73312026Y-84540000D03*
%TD*%
D13*
%TO.P,R7,1*%
%TO.N,+3V0*%
X62412500Y-53000000D03*
%TO.P,R7,2*%
%TO.N,RST*%
X60587500Y-53000000D03*
%TD*%
D20*
%TO.P,R3,1*%
%TO.N,Net-(J1-CC2)*%
X94587500Y-64045000D03*
%TO.P,R3,2*%
%TO.N,GND*%
X94587500Y-62220000D03*
%TD*%
D32*
%TO.P,Y1,1,1*%
%TO.N,Net-(U3-XTAL2{slash}PB7)*%
X56500000Y-79880000D03*
%TO.P,Y1,2,2*%
%TO.N,Net-(U3-XTAL1{slash}PB6)*%
X56500000Y-75000000D03*
%TD*%
D25*
%TO.P,Blue1,1,K*%
%TO.N,Net-(Blue1-K)*%
X51000000Y-67790000D03*
D26*
%TO.P,Blue1,2,A*%
%TO.N,HUM_LED*%
X51000000Y-65250000D03*
%TD*%
D22*
%TO.P,C1,1*%
%TO.N,GND*%
X101862500Y-73000000D03*
%TO.P,C1,2*%
%TO.N,Net-(C1-Pad2)*%
X100137500Y-73000000D03*
%TD*%
D33*
%TO.P,U4,1,SDA*%
%TO.N,SDA*%
X78850000Y-57000000D03*
%TO.P,U4,2,ADDR*%
%TO.N,GND*%
X78850000Y-56500000D03*
%TO.P,U4,3,ALERT*%
%TO.N,unconnected-(U4-ALERT-Pad3)*%
X78850000Y-56000000D03*
%TO.P,U4,4,SCL*%
%TO.N,SCL*%
X78850000Y-55500000D03*
%TO.P,U4,5,VDD*%
%TO.N,+3V0*%
X76500000Y-55500000D03*
%TO.P,U4,6,~{RESET}*%
%TO.N,unconnected-(U4-~{RESET}-Pad6)*%
X76500000Y-56000000D03*
%TO.P,U4,7,R*%
%TO.N,GND*%
X76500000Y-56500000D03*
%TO.P,U4,8,VSS*%
X76500000Y-57000000D03*
D34*
%TO.P,U4,9,VSS*%
X77675000Y-56250000D03*
%TD*%
D35*
%TO.P,BT1,1,+*%
%TO.N,Net-(BT1-+)*%
X76982500Y-51100000D03*
D36*
%TO.P,BT1,2,-*%
%TO.N,GND*%
X89682500Y-51100000D03*
%TD*%
D37*
%TO.N,RST*%
X65880830Y-69619170D03*
X63500000Y-63010000D03*
X63500000Y-58479000D03*
X65000000Y-74000000D03*
%TO.N,+3V0*%
X84500000Y-69946000D03*
X62000000Y-91500000D03*
X84500000Y-63500000D03*
X84500000Y-72000000D03*
X65500000Y-58479000D03*
X67000000Y-91500000D03*
X84500000Y-60911000D03*
%TO.N,GND*%
X52500000Y-58000000D03*
X87325000Y-65575000D03*
X51000000Y-77500000D03*
X54500000Y-65000000D03*
X89500000Y-72500000D03*
X72500000Y-56710436D03*
X80812026Y-78635000D03*
%TO.N,COPI*%
X78000000Y-84120000D03*
X76000000Y-81000000D03*
%TO.N,Net-(C8-Pad2)*%
X98650000Y-67650000D03*
%TO.N,USB_ENABLE_INTR*%
X89187500Y-65675000D03*
X87397038Y-67901369D03*
%TO.N,Net-(C9-Pad2)*%
X98900000Y-66150000D03*
%TD*%
D38*
%TO.N,Net-(Blue1-K)*%
X51622500Y-68412500D02*
X51000000Y-67790000D01*
X54500000Y-68412500D02*
X51622500Y-68412500D01*
%TO.N,TEMP_LED*%
X59000000Y-61547500D02*
X60712500Y-63260000D01*
X59000000Y-60265000D02*
X59000000Y-61547500D01*
X56000000Y-57265000D02*
X59000000Y-60265000D01*
%TO.N,SCK*%
X62040000Y-98000000D02*
X60786000Y-99254000D01*
X73312026Y-82000000D02*
X71832500Y-82000000D01*
X71832500Y-82000000D02*
X68332500Y-78500000D01*
X63000000Y-83500000D02*
X68000000Y-78500000D01*
X63000000Y-89000000D02*
X63000000Y-83500000D01*
X68000000Y-78500000D02*
X68332500Y-78500000D01*
X58000000Y-94000000D02*
X63000000Y-89000000D01*
X58622176Y-99254000D02*
X58000000Y-98631824D01*
X60786000Y-99254000D02*
X58622176Y-99254000D01*
X58000000Y-98631824D02*
X58000000Y-94000000D01*
%TO.N,RST*%
X67704000Y-77296000D02*
X62000000Y-83000000D01*
X63500000Y-58427500D02*
X60712500Y-55640000D01*
X81637500Y-73550000D02*
X82299999Y-73550000D01*
X57000000Y-94216526D02*
X57000000Y-98415298D01*
X62000000Y-89216526D02*
X57000000Y-94216526D01*
X62000000Y-83000000D02*
X62000000Y-89216526D01*
X62580000Y-100000000D02*
X64580000Y-98000000D01*
X79268041Y-78602933D02*
X70138147Y-78602933D01*
X65000000Y-74592000D02*
X65000000Y-74000000D01*
X81452699Y-77435487D02*
X80435487Y-77435487D01*
X82299999Y-73550000D02*
X83000000Y-74250001D01*
X68831214Y-77296000D02*
X67704000Y-77296000D01*
X58584702Y-100000000D02*
X62580000Y-100000000D01*
X67704000Y-77296000D02*
X65000000Y-74592000D01*
X83000000Y-74250001D02*
X83000000Y-75888186D01*
X83000000Y-75888186D02*
X81452699Y-77435487D01*
X65880830Y-69619170D02*
X63500000Y-67238340D01*
X80435487Y-77435487D02*
X79268041Y-78602933D01*
X60587500Y-55515000D02*
X60712500Y-55640000D01*
X57000000Y-98415298D02*
X58584702Y-100000000D01*
X63500000Y-58479000D02*
X63500000Y-58427500D01*
X60587500Y-53000000D02*
X60587500Y-55515000D01*
X63500000Y-67238340D02*
X63500000Y-63010000D01*
X70138147Y-78602933D02*
X68831214Y-77296000D01*
D39*
%TO.N,+3V0*%
X84000000Y-72500000D02*
X80412500Y-72500000D01*
D38*
X72412500Y-55500000D02*
X74362500Y-55500000D01*
D39*
X82409526Y-82000000D02*
X82412026Y-81997500D01*
X62000000Y-91500000D02*
X59500000Y-94000000D01*
X84500000Y-63500000D02*
X84500000Y-69946000D01*
D38*
X77862500Y-73500000D02*
X79312500Y-73500000D01*
D39*
X67135000Y-56844000D02*
X65500000Y-58479000D01*
X87500000Y-75570000D02*
X87070000Y-75570000D01*
X59500000Y-94000000D02*
X59500000Y-95460000D01*
X74500000Y-53250000D02*
X74250000Y-53000000D01*
X75500000Y-91500000D02*
X82500000Y-84500000D01*
X65000000Y-53000000D02*
X65000000Y-54500000D01*
D38*
X77362500Y-73000000D02*
X77862500Y-73500000D01*
D39*
X87500000Y-76862500D02*
X82500000Y-81862500D01*
X73312026Y-83270000D02*
X75730000Y-83270000D01*
X75730000Y-83270000D02*
X77000000Y-82000000D01*
D38*
X79312500Y-73500000D02*
X79362500Y-73550000D01*
X74666500Y-55471000D02*
X76500000Y-55471000D01*
X72412500Y-55500000D02*
X71068500Y-56844000D01*
D39*
X65000000Y-54500000D02*
X67344000Y-56844000D01*
X80512026Y-82000000D02*
X82409526Y-82000000D01*
X82500000Y-84500000D02*
X82500000Y-81862500D01*
D38*
X74500000Y-55637500D02*
X74666500Y-55471000D01*
D39*
X87070000Y-75570000D02*
X84000000Y-72500000D01*
X67000000Y-91500000D02*
X75500000Y-91500000D01*
X65000000Y-53000000D02*
X62412500Y-53000000D01*
X84000000Y-59242000D02*
X84500000Y-59742000D01*
X74500000Y-53250000D02*
X78008000Y-53250000D01*
X78008000Y-53250000D02*
X84000000Y-59242000D01*
X67344000Y-56844000D02*
X67135000Y-56844000D01*
D38*
X71256500Y-56844000D02*
X72412500Y-58000000D01*
X71068500Y-56844000D02*
X67344000Y-56844000D01*
X74362500Y-55500000D02*
X74500000Y-55637500D01*
D39*
X84500000Y-72000000D02*
X84000000Y-72500000D01*
X77000000Y-82000000D02*
X80512026Y-82000000D01*
X87500000Y-75570000D02*
X87500000Y-76862500D01*
X73312026Y-84540000D02*
X73312026Y-83270000D01*
X84500000Y-59742000D02*
X84500000Y-60911000D01*
X74250000Y-53000000D02*
X65000000Y-53000000D01*
D38*
X71068500Y-56844000D02*
X71256500Y-56844000D01*
D39*
X80412500Y-72500000D02*
X79362500Y-73550000D01*
D38*
%TO.N,HUM_LED*%
X51000000Y-65250000D02*
X49492000Y-66758000D01*
X49492000Y-81492000D02*
X51580000Y-83580000D01*
X49492000Y-66758000D02*
X49492000Y-81492000D01*
X51580000Y-83580000D02*
X60712500Y-83580000D01*
D39*
%TO.N,Net-(BT1-+)*%
X76632500Y-50750000D02*
X76982500Y-51100000D01*
X74500000Y-50750000D02*
X76632500Y-50750000D01*
D38*
%TO.N,DONE*%
X67128500Y-74756000D02*
X69756000Y-74756000D01*
X79087500Y-78000000D02*
X81637500Y-75450000D01*
X69756000Y-74756000D02*
X73000000Y-78000000D01*
X73000000Y-78000000D02*
X79087500Y-78000000D01*
X60712500Y-68340000D02*
X67128500Y-74756000D01*
%TO.N,WAKE_INTR*%
X80975001Y-74500000D02*
X80500000Y-74975001D01*
X80500000Y-74975001D02*
X80500000Y-75762632D01*
X69141607Y-72084000D02*
X66996500Y-72084000D01*
X79008632Y-77254000D02*
X74311607Y-77254000D01*
X74311607Y-77254000D02*
X69141607Y-72084000D01*
X66996500Y-72084000D02*
X60712500Y-65800000D01*
X80500000Y-75762632D02*
X79008632Y-77254000D01*
X81637500Y-74500000D02*
X80975001Y-74500000D01*
D39*
%TO.N,GND*%
X75637500Y-73000000D02*
X73000000Y-73000000D01*
X97895000Y-70675000D02*
X97324000Y-70104000D01*
D38*
X52667500Y-76792500D02*
X51707500Y-76792500D01*
D39*
X101862500Y-73000000D02*
X101862500Y-71432500D01*
D38*
X52500000Y-56325000D02*
X52500000Y-58000000D01*
D39*
X73847936Y-56710436D02*
X74500000Y-57362500D01*
X77400000Y-56525000D02*
X76500000Y-56525000D01*
X97895000Y-71220000D02*
X97895000Y-70675000D01*
X97324000Y-63696000D02*
X97320000Y-63696000D01*
X80512026Y-78935000D02*
X80812026Y-78635000D01*
X76500000Y-57000000D02*
X76500000Y-56525000D01*
D38*
X54500000Y-66587500D02*
X56325000Y-66587500D01*
X77925000Y-56500000D02*
X77675000Y-56250000D01*
X77500000Y-74537500D02*
X77175000Y-74537500D01*
X52667500Y-78637500D02*
X52667500Y-76792500D01*
D39*
X94587500Y-71632500D02*
X97482500Y-71632500D01*
X97535000Y-62220000D02*
X97895000Y-62580000D01*
X73000000Y-73000000D02*
X70500000Y-70500000D01*
X77675000Y-56250000D02*
X77400000Y-56525000D01*
X97895000Y-62580000D02*
X97895000Y-63125000D01*
D38*
X52100000Y-55925000D02*
X52500000Y-56325000D01*
X79325000Y-74537500D02*
X79362500Y-74500000D01*
X77500000Y-74537500D02*
X79325000Y-74537500D01*
D39*
X88862500Y-71862500D02*
X89500000Y-72500000D01*
X97324000Y-70104000D02*
X97320000Y-70104000D01*
X97895000Y-73032500D02*
X98000000Y-73137500D01*
X97895000Y-63125000D02*
X97324000Y-63696000D01*
X94587500Y-62220000D02*
X97535000Y-62220000D01*
X101862500Y-71432500D02*
X102075000Y-71220000D01*
X97895000Y-71220000D02*
X97895000Y-73032500D01*
D38*
X50000000Y-55925000D02*
X52100000Y-55925000D01*
D39*
X88862500Y-71000000D02*
X88650000Y-70787500D01*
X97482500Y-71632500D02*
X97895000Y-71220000D01*
D38*
X77175000Y-74537500D02*
X75637500Y-73000000D01*
X51707500Y-76792500D02*
X51000000Y-77500000D01*
D39*
X88862500Y-71000000D02*
X88862500Y-71862500D01*
D38*
X78850000Y-56500000D02*
X77925000Y-56500000D01*
X56325000Y-66587500D02*
X56500000Y-66412500D01*
D39*
X74500000Y-57362500D02*
X76137500Y-57362500D01*
X68712500Y-70500000D02*
X68332500Y-70880000D01*
X70500000Y-70500000D02*
X68712500Y-70500000D01*
X81954526Y-80730000D02*
X82412026Y-80272500D01*
X88650000Y-70787500D02*
X88650000Y-69250000D01*
X88015000Y-64885000D02*
X87325000Y-65575000D01*
X76137500Y-57362500D02*
X76500000Y-57000000D01*
X72500000Y-56710436D02*
X73847936Y-56710436D01*
X80512026Y-80730000D02*
X81954526Y-80730000D01*
D38*
X54500000Y-66587500D02*
X54500000Y-65000000D01*
D39*
X88015000Y-64050000D02*
X88015000Y-64885000D01*
X80512026Y-80730000D02*
X80512026Y-78935000D01*
D38*
%TO.N,SCL*%
X70447500Y-55640000D02*
X70587500Y-55500000D01*
X68332500Y-55640000D02*
X70447500Y-55640000D01*
X70587500Y-55500000D02*
X71466500Y-54621000D01*
X78000000Y-54621000D02*
X78850000Y-55471000D01*
X71466500Y-54621000D02*
X78000000Y-54621000D01*
%TO.N,SDA*%
X70407500Y-58180000D02*
X70587500Y-58000000D01*
X68332500Y-58180000D02*
X70407500Y-58180000D01*
X70587500Y-58000000D02*
X71466500Y-58879000D01*
X71466500Y-58879000D02*
X77000000Y-58879000D01*
X77000000Y-58879000D02*
X78850000Y-57029000D01*
%TO.N,RXD*%
X89343000Y-61865000D02*
X90555000Y-63077000D01*
X61965500Y-59433000D02*
X76933000Y-59433000D01*
X79365000Y-61865000D02*
X89343000Y-61865000D01*
X90555000Y-63077000D02*
X90555000Y-64050000D01*
X76933000Y-59433000D02*
X79365000Y-61865000D01*
X60712500Y-58180000D02*
X61965500Y-59433000D01*
%TO.N,CIPO*%
X74924896Y-85500000D02*
X72500000Y-85500000D01*
X72500000Y-85500000D02*
X68332500Y-81332500D01*
X80512026Y-83270000D02*
X77154896Y-83270000D01*
X64500000Y-91000000D02*
X64500000Y-84872500D01*
X60786000Y-96714000D02*
X60786000Y-94714000D01*
X60786000Y-94714000D02*
X64500000Y-91000000D01*
X77154896Y-83270000D02*
X74924896Y-85500000D01*
X68332500Y-81332500D02*
X68332500Y-81040000D01*
X59500000Y-98000000D02*
X60786000Y-96714000D01*
X64500000Y-84872500D02*
X68332500Y-81040000D01*
%TO.N,TXD*%
X78000000Y-62500000D02*
X88073000Y-62500000D01*
X60712500Y-60720000D02*
X62048500Y-62056000D01*
X88073000Y-62500000D02*
X88650000Y-63077000D01*
X88650000Y-63077000D02*
X88650000Y-64050000D01*
X62048500Y-62056000D02*
X77556000Y-62056000D01*
X77556000Y-62056000D02*
X78000000Y-62500000D01*
%TO.N,FLASH_CS*%
X77552026Y-87500000D02*
X80512026Y-84540000D01*
X68332500Y-86120000D02*
X69712500Y-87500000D01*
X69712500Y-87500000D02*
X77552026Y-87500000D01*
%TO.N,Net-(J1-CC1)*%
X96245000Y-68150000D02*
X97320000Y-68150000D01*
X94587500Y-69807500D02*
X96245000Y-68150000D01*
%TO.N,Net-(J1-CC2)*%
X95692500Y-65150000D02*
X97320000Y-65150000D01*
X94587500Y-64045000D02*
X95692500Y-65150000D01*
%TO.N,COPI*%
X66000000Y-85912500D02*
X68332500Y-83580000D01*
X78000000Y-84120000D02*
X75620000Y-86500000D01*
X76000000Y-81000000D02*
X75730000Y-80730000D01*
X75730000Y-80730000D02*
X73312026Y-80730000D01*
X62040000Y-95460000D02*
X66000000Y-91500000D01*
X71252500Y-86500000D02*
X68332500Y-83580000D01*
X75620000Y-86500000D02*
X71252500Y-86500000D01*
X66000000Y-91500000D02*
X66000000Y-85912500D01*
%TO.N,Net-(Red2-K)*%
X53500000Y-54500000D02*
X53725000Y-54725000D01*
X52500000Y-54500000D02*
X53500000Y-54500000D01*
X53725000Y-54725000D02*
X56000000Y-54725000D01*
%TO.N,ERROR_LED*%
X48938000Y-64602000D02*
X48938000Y-82938000D01*
X52120000Y-86120000D02*
X60712500Y-86120000D01*
X51000000Y-62540000D02*
X48938000Y-64602000D01*
X48938000Y-82938000D02*
X52120000Y-86120000D01*
D39*
%TO.N,Net-(U2-VCC)*%
X100500000Y-76362500D02*
X100500000Y-80000000D01*
D38*
X92650000Y-71775000D02*
X95737500Y-74862500D01*
X88525000Y-67975000D02*
X91000000Y-67975000D01*
D39*
X98000000Y-74862500D02*
X99000000Y-74862500D01*
D38*
X95737500Y-74862500D02*
X98000000Y-74862500D01*
X88015000Y-68485000D02*
X88525000Y-67975000D01*
D39*
X99000000Y-74862500D02*
X100500000Y-76362500D01*
D38*
X92650000Y-69625000D02*
X92650000Y-71775000D01*
X91000000Y-67975000D02*
X92650000Y-69625000D01*
X88015000Y-69250000D02*
X88015000Y-68485000D01*
%TO.N,Net-(U3-XTAL1{slash}PB6)*%
X56432500Y-75067500D02*
X56500000Y-75000000D01*
X56500000Y-75000000D02*
X57000000Y-75000000D01*
X52667500Y-75067500D02*
X56432500Y-75067500D01*
X57960000Y-75960000D02*
X60712500Y-75960000D01*
X57000000Y-75000000D02*
X57960000Y-75960000D01*
%TO.N,Net-(U3-XTAL2{slash}PB7)*%
X60712500Y-78500000D02*
X57880000Y-78500000D01*
X52667500Y-80362500D02*
X56017500Y-80362500D01*
X56017500Y-80362500D02*
X56500000Y-79880000D01*
X57880000Y-78500000D02*
X56500000Y-79880000D01*
%TO.N,Net-(C8-Pad2)*%
X97927410Y-66650000D02*
X98195000Y-66917590D01*
X94760000Y-67650000D02*
X97320000Y-67650000D01*
X94500000Y-67910000D02*
X94760000Y-67650000D01*
X98195000Y-67405000D02*
X97950000Y-67650000D01*
X97320000Y-66650000D02*
X97927410Y-66650000D01*
X98195000Y-66917590D02*
X98195000Y-67405000D01*
X97320000Y-67650000D02*
X98650000Y-67650000D01*
X97950000Y-67650000D02*
X97320000Y-67650000D01*
%TO.N,Net-(U1-DELAY{slash}M_RST)*%
X78450000Y-76362500D02*
X79362500Y-75450000D01*
X77500000Y-76362500D02*
X78450000Y-76362500D01*
%TO.N,Net-(U2-USBDM)*%
X86700000Y-67050000D02*
X86110000Y-67640000D01*
X91815000Y-67050000D02*
X86700000Y-67050000D01*
X92675000Y-67910000D02*
X91815000Y-67050000D01*
X86110000Y-67640000D02*
X86110000Y-69250000D01*
%TO.N,Net-(U2-USBDP)*%
X92675000Y-65720000D02*
X91870000Y-66525000D01*
X86110000Y-65935000D02*
X86110000Y-64050000D01*
X91870000Y-66525000D02*
X86700000Y-66525000D01*
X86700000Y-66525000D02*
X86110000Y-65935000D01*
%TO.N,GENERAL_LED*%
X58000000Y-67500000D02*
X50046000Y-75454000D01*
X50046000Y-80046000D02*
X51839999Y-81839999D01*
X58000000Y-61985000D02*
X58000000Y-67500000D01*
X51839999Y-81839999D02*
X59912501Y-81839999D01*
X56000000Y-59985000D02*
X58000000Y-61985000D01*
X59912501Y-81839999D02*
X60712500Y-81040000D01*
X50046000Y-75454000D02*
X50046000Y-80046000D01*
D39*
%TO.N,USB_ENABLE_INTR*%
X87137500Y-71000000D02*
X87137500Y-72707500D01*
X87137500Y-70862500D02*
X87311000Y-70689000D01*
X79500000Y-71000000D02*
X87137500Y-71000000D01*
X70500000Y-68675000D02*
X77175000Y-68675000D01*
X86745000Y-69250000D02*
X87380000Y-69250000D01*
X87380000Y-69250000D02*
X87380000Y-67918407D01*
X89187500Y-65675000D02*
X89285000Y-65577500D01*
X87311000Y-70689000D02*
X87311000Y-69250000D01*
X87137500Y-71000000D02*
X87137500Y-70862500D01*
X68667500Y-68675000D02*
X68332500Y-68340000D01*
X87137500Y-72707500D02*
X87500000Y-73070000D01*
X70500000Y-68675000D02*
X68667500Y-68675000D01*
X89285000Y-65577500D02*
X89285000Y-64050000D01*
X77175000Y-68675000D02*
X79500000Y-71000000D01*
X87380000Y-67918407D02*
X87397038Y-67901369D01*
D38*
%TO.N,Net-(C1-Pad2)*%
X99800000Y-65847918D02*
X99099672Y-65147590D01*
X97859695Y-69300000D02*
X97320000Y-69300000D01*
X99142653Y-68617652D02*
X99800000Y-67960305D01*
D39*
X100500000Y-74637500D02*
X100500000Y-73362500D01*
D38*
X99142652Y-68617652D02*
X98542043Y-68617652D01*
X99099672Y-65147590D02*
X98425000Y-65147590D01*
X98542043Y-68617652D02*
X97859695Y-69300000D01*
X100137500Y-73000000D02*
X100137500Y-69612500D01*
X99800000Y-67960305D02*
X99800000Y-65847918D01*
D39*
X100500000Y-73362500D02*
X100137500Y-73000000D01*
D38*
X98425000Y-65147590D02*
X97777410Y-64500000D01*
X100137500Y-69612500D02*
X99142653Y-68617652D01*
X97777410Y-64500000D02*
X97320000Y-64500000D01*
%TO.N,Net-(Green1-K)*%
X56500000Y-63025000D02*
X56000000Y-62525000D01*
X56500000Y-64587500D02*
X56500000Y-63025000D01*
%TO.N,Net-(C9-Pad2)*%
X94500000Y-65720000D02*
X95507410Y-65720000D01*
X96325000Y-66537590D02*
X96325000Y-66762410D01*
X97320000Y-66150000D02*
X98900000Y-66150000D01*
X96325000Y-66762410D02*
X96712590Y-67150000D01*
X96712590Y-66150000D02*
X96325000Y-66537590D01*
X97320000Y-66150000D02*
X96712590Y-66150000D01*
X95507410Y-65720000D02*
X96325000Y-66537590D01*
X96712590Y-67150000D02*
X97320000Y-67150000D01*
%TO.N,Net-(Red1-K)*%
X50000000Y-57750000D02*
X50000000Y-59000000D01*
X50000000Y-59000000D02*
X51000000Y-60000000D01*
%TD*%
%TA.AperFunction,Conductor*%
%TO.N,GND*%
G36*
X100003892Y-46800703D02*
G01*
X100326641Y-46817618D01*
X100342146Y-46819247D01*
X100657504Y-46869196D01*
X100672760Y-46872439D01*
X100981161Y-46955074D01*
X100995977Y-46959888D01*
X101294072Y-47074315D01*
X101308309Y-47080654D01*
X101459801Y-47157844D01*
X101592794Y-47225608D01*
X101606300Y-47233406D01*
X101731868Y-47314950D01*
X101874071Y-47407298D01*
X101886684Y-47416461D01*
X102134816Y-47617395D01*
X102146406Y-47627831D01*
X102372168Y-47853593D01*
X102382604Y-47865183D01*
X102583538Y-48113315D01*
X102592705Y-48125933D01*
X102766593Y-48393699D01*
X102774391Y-48407205D01*
X102919342Y-48691685D01*
X102925686Y-48705933D01*
X103040108Y-49004014D01*
X103044927Y-49018847D01*
X103127560Y-49327240D01*
X103130803Y-49342495D01*
X103180751Y-49657850D01*
X103182381Y-49673361D01*
X103199296Y-49996107D01*
X103199500Y-50003905D01*
X103199500Y-61582645D01*
X103179538Y-61657145D01*
X103125000Y-61711683D01*
X103050500Y-61731645D01*
X102976000Y-61711683D01*
X102967720Y-61706534D01*
X102948680Y-61693812D01*
X102766688Y-61618429D01*
X102766686Y-61618428D01*
X102573491Y-61580000D01*
X102325000Y-61580000D01*
X102325000Y-62280000D01*
X101825000Y-62280000D01*
X101825000Y-61580000D01*
X101576509Y-61580000D01*
X101383313Y-61618428D01*
X101383311Y-61618429D01*
X101201322Y-61693810D01*
X101037533Y-61803252D01*
X100898252Y-61942533D01*
X100788810Y-62106322D01*
X100713429Y-62288311D01*
X100713428Y-62288315D01*
X100705136Y-62329999D01*
X100705137Y-62330000D01*
X101508012Y-62330000D01*
X101490795Y-62339940D01*
X101434940Y-62395795D01*
X101395444Y-62464204D01*
X101375000Y-62540504D01*
X101375000Y-62619496D01*
X101395444Y-62695796D01*
X101434940Y-62764205D01*
X101490795Y-62820060D01*
X101508012Y-62830000D01*
X100705137Y-62830000D01*
X100713428Y-62871684D01*
X100713429Y-62871688D01*
X100788810Y-63053677D01*
X100898252Y-63217466D01*
X101037533Y-63356747D01*
X101201322Y-63466189D01*
X101383311Y-63541570D01*
X101383313Y-63541571D01*
X101576509Y-63580000D01*
X101825000Y-63580000D01*
X101825000Y-62880000D01*
X102325000Y-62880000D01*
X102325000Y-63580000D01*
X102573491Y-63580000D01*
X102766686Y-63541571D01*
X102766688Y-63541570D01*
X102948679Y-63466188D01*
X102967717Y-63453467D01*
X103040751Y-63428673D01*
X103116397Y-63443718D01*
X103174387Y-63494571D01*
X103199181Y-63567605D01*
X103199500Y-63577354D01*
X103199500Y-70222645D01*
X103179538Y-70297145D01*
X103125000Y-70351683D01*
X103050500Y-70371645D01*
X102976000Y-70351683D01*
X102967720Y-70346534D01*
X102948680Y-70333812D01*
X102766688Y-70258429D01*
X102766686Y-70258428D01*
X102573491Y-70220000D01*
X102325000Y-70220000D01*
X102325000Y-70920000D01*
X101825000Y-70920000D01*
X101825000Y-70220000D01*
X101576509Y-70220000D01*
X101383313Y-70258428D01*
X101383311Y-70258429D01*
X101201322Y-70333810D01*
X101037533Y-70443252D01*
X100898252Y-70582533D01*
X100898246Y-70582540D01*
X100860888Y-70638451D01*
X100802900Y-70689304D01*
X100727254Y-70704351D01*
X100654219Y-70679558D01*
X100603366Y-70621570D01*
X100588000Y-70555670D01*
X100588000Y-69553191D01*
X100557299Y-69438614D01*
X100557297Y-69438611D01*
X100557297Y-69438609D01*
X100536752Y-69403025D01*
X100536750Y-69403022D01*
X100516847Y-69368549D01*
X100497990Y-69335886D01*
X99885114Y-68723010D01*
X99846550Y-68656215D01*
X99846550Y-68579087D01*
X99885111Y-68512296D01*
X100160489Y-68236919D01*
X100219799Y-68134192D01*
X100222396Y-68124500D01*
X100226285Y-68109984D01*
X100226286Y-68109980D01*
X100238196Y-68065532D01*
X100250500Y-68019614D01*
X100250500Y-65788609D01*
X100219799Y-65674032D01*
X100214322Y-65664546D01*
X100177347Y-65600503D01*
X100177346Y-65600502D01*
X100177345Y-65600500D01*
X100160489Y-65571304D01*
X99376286Y-64787101D01*
X99376283Y-64787099D01*
X99376279Y-64787096D01*
X99273562Y-64727792D01*
X99273560Y-64727791D01*
X99262905Y-64724936D01*
X99244448Y-64719991D01*
X99244447Y-64719990D01*
X99158981Y-64697090D01*
X98881507Y-64697090D01*
X98807007Y-64677128D01*
X98752469Y-64622590D01*
X98732507Y-64548090D01*
X98752469Y-64473590D01*
X98776144Y-64442735D01*
X98855515Y-64363365D01*
X98931281Y-64232135D01*
X98970500Y-64085766D01*
X98970500Y-63934234D01*
X98931281Y-63787865D01*
X98884539Y-63706905D01*
X98863365Y-63670231D01*
X98843403Y-63595731D01*
X98863365Y-63521231D01*
X98913291Y-63471304D01*
X98912591Y-63470256D01*
X98917862Y-63466733D01*
X98917903Y-63466693D01*
X98918023Y-63466625D01*
X99082466Y-63356747D01*
X99221747Y-63217466D01*
X99331189Y-63053677D01*
X99406570Y-62871688D01*
X99406571Y-62871684D01*
X99414863Y-62830000D01*
X98611988Y-62830000D01*
X98629205Y-62820060D01*
X98685060Y-62764205D01*
X98724556Y-62695796D01*
X98745000Y-62619496D01*
X98745000Y-62540504D01*
X98724556Y-62464204D01*
X98685060Y-62395795D01*
X98629205Y-62339940D01*
X98611988Y-62330000D01*
X99414863Y-62330000D01*
X99414863Y-62329999D01*
X99406571Y-62288315D01*
X99406570Y-62288311D01*
X99331189Y-62106322D01*
X99221747Y-61942533D01*
X99082466Y-61803252D01*
X98918677Y-61693810D01*
X98736688Y-61618429D01*
X98736686Y-61618428D01*
X98543491Y-61580000D01*
X98145000Y-61580000D01*
X98145000Y-62280000D01*
X97645000Y-62280000D01*
X97645000Y-61580000D01*
X97246509Y-61580000D01*
X97053313Y-61618428D01*
X97053311Y-61618429D01*
X96871322Y-61693810D01*
X96707533Y-61803252D01*
X96568252Y-61942533D01*
X96458810Y-62106322D01*
X96383429Y-62288311D01*
X96383428Y-62288315D01*
X96375136Y-62329999D01*
X96375137Y-62330000D01*
X97178012Y-62330000D01*
X97160795Y-62339940D01*
X97104940Y-62395795D01*
X97065444Y-62464204D01*
X97045000Y-62540504D01*
X97045000Y-62619496D01*
X97065444Y-62695796D01*
X97104940Y-62764205D01*
X97160795Y-62820060D01*
X97178012Y-62830000D01*
X96375137Y-62830000D01*
X96383428Y-62871684D01*
X96383430Y-62871693D01*
X96424598Y-62971082D01*
X96434665Y-63047550D01*
X96405149Y-63118807D01*
X96392304Y-63133455D01*
X96377320Y-63148440D01*
X96377316Y-63148445D01*
X96293718Y-63289802D01*
X96293718Y-63289803D01*
X96247899Y-63447511D01*
X96247703Y-63449999D01*
X96247704Y-63450000D01*
X97070000Y-63450000D01*
X97070000Y-63006000D01*
X97089962Y-62931500D01*
X97144500Y-62876962D01*
X97219000Y-62857000D01*
X97224777Y-62857000D01*
X97229204Y-62859556D01*
X97305504Y-62880000D01*
X97498538Y-62880000D01*
X97550038Y-62931500D01*
X97570000Y-63006000D01*
X97570000Y-63750500D01*
X97550038Y-63825000D01*
X97495500Y-63879538D01*
X97421000Y-63899500D01*
X96840724Y-63899500D01*
X96810304Y-63902353D01*
X96810301Y-63902353D01*
X96810301Y-63902354D01*
X96698030Y-63941639D01*
X96648820Y-63950000D01*
X96247704Y-63950000D01*
X96247899Y-63952488D01*
X96293718Y-64110196D01*
X96293718Y-64110197D01*
X96377316Y-64251554D01*
X96377318Y-64251557D01*
X96400859Y-64275098D01*
X96439423Y-64341893D01*
X96444500Y-64380457D01*
X96444500Y-64550500D01*
X96424538Y-64625000D01*
X96370000Y-64679538D01*
X96295500Y-64699500D01*
X95940821Y-64699500D01*
X95866321Y-64679538D01*
X95835462Y-64655859D01*
X95406641Y-64227038D01*
X95368077Y-64160243D01*
X95363000Y-64121679D01*
X95363000Y-63752883D01*
X95363000Y-63752882D01*
X95352617Y-63666423D01*
X95298362Y-63528842D01*
X95253634Y-63469859D01*
X95209001Y-63411001D01*
X95208998Y-63410998D01*
X95155849Y-63370694D01*
X95108549Y-63309772D01*
X95098046Y-63233363D01*
X95127156Y-63161939D01*
X95167659Y-63125154D01*
X95285537Y-63052445D01*
X95407444Y-62930538D01*
X95497953Y-62783802D01*
X95497956Y-62783795D01*
X95552181Y-62620149D01*
X95552182Y-62620148D01*
X95562499Y-62519157D01*
X95562500Y-62519147D01*
X95562500Y-62470000D01*
X93612501Y-62470000D01*
X93612501Y-62519141D01*
X93622819Y-62620151D01*
X93622820Y-62620154D01*
X93677043Y-62783795D01*
X93677046Y-62783802D01*
X93767555Y-62930538D01*
X93889461Y-63052444D01*
X94007341Y-63125154D01*
X94060269Y-63181255D01*
X94078056Y-63256304D01*
X94055935Y-63330192D01*
X94019151Y-63370693D01*
X93966002Y-63410997D01*
X93965998Y-63411001D01*
X93876637Y-63528842D01*
X93876637Y-63528843D01*
X93822383Y-63666424D01*
X93822382Y-63666426D01*
X93812000Y-63752881D01*
X93812000Y-64337118D01*
X93822382Y-64423573D01*
X93822382Y-64423574D01*
X93822383Y-64423577D01*
X93840893Y-64470515D01*
X93876637Y-64561156D01*
X93876637Y-64561157D01*
X93965998Y-64678998D01*
X93966001Y-64679001D01*
X94047364Y-64740700D01*
X94094664Y-64801621D01*
X94105167Y-64878031D01*
X94076057Y-64949455D01*
X94015136Y-64996755D01*
X94011995Y-64998035D01*
X93983847Y-65009134D01*
X93983842Y-65009137D01*
X93866001Y-65098498D01*
X93865998Y-65098501D01*
X93776637Y-65216342D01*
X93776637Y-65216343D01*
X93746957Y-65291606D01*
X93732938Y-65327159D01*
X93726112Y-65344468D01*
X93680211Y-65406450D01*
X93609468Y-65437179D01*
X93532839Y-65428419D01*
X93470857Y-65382518D01*
X93448888Y-65344468D01*
X93442062Y-65327159D01*
X93398362Y-65216342D01*
X93328052Y-65123624D01*
X93309001Y-65098501D01*
X93308998Y-65098498D01*
X93231162Y-65039474D01*
X93191158Y-65009138D01*
X93191156Y-65009137D01*
X93159757Y-64996755D01*
X93053577Y-64954883D01*
X93053574Y-64954882D01*
X93053573Y-64954882D01*
X92967118Y-64944500D01*
X92382882Y-64944500D01*
X92382881Y-64944500D01*
X92296426Y-64954882D01*
X92296424Y-64954882D01*
X92296423Y-64954883D01*
X92268037Y-64966077D01*
X92158843Y-65009137D01*
X92158842Y-65009137D01*
X92041001Y-65098498D01*
X92040998Y-65098501D01*
X91951637Y-65216342D01*
X91951637Y-65216343D01*
X91919042Y-65299000D01*
X91900885Y-65345044D01*
X91897383Y-65353924D01*
X91897382Y-65353926D01*
X91887000Y-65440381D01*
X91887000Y-65809179D01*
X91867038Y-65883679D01*
X91843359Y-65914538D01*
X91727038Y-66030859D01*
X91660243Y-66069423D01*
X91621679Y-66074500D01*
X90157044Y-66074500D01*
X90082544Y-66054538D01*
X90028006Y-66000000D01*
X90008044Y-65925500D01*
X90015335Y-65879460D01*
X90023997Y-65852803D01*
X90042685Y-65675000D01*
X90023997Y-65497197D01*
X89968750Y-65327165D01*
X89934992Y-65268694D01*
X89880320Y-65173998D01*
X89860358Y-65099498D01*
X89880321Y-65024998D01*
X89934859Y-64970461D01*
X90009358Y-64950499D01*
X90164867Y-64950499D01*
X90177427Y-64949042D01*
X90189991Y-64947585D01*
X90189995Y-64947582D01*
X90198377Y-64945303D01*
X90275504Y-64945004D01*
X90276620Y-64945302D01*
X90285003Y-64947582D01*
X90285009Y-64947585D01*
X90310135Y-64950500D01*
X90799864Y-64950499D01*
X90799866Y-64950499D01*
X90812427Y-64949042D01*
X90824991Y-64947585D01*
X90927765Y-64902206D01*
X91007206Y-64822765D01*
X91052585Y-64719991D01*
X91055500Y-64694865D01*
X91055499Y-63405136D01*
X91052585Y-63380009D01*
X91042795Y-63357836D01*
X91018196Y-63302124D01*
X91005500Y-63241940D01*
X91005500Y-63017691D01*
X91005499Y-63017689D01*
X91003062Y-63008595D01*
X90974799Y-62903114D01*
X90974799Y-62903113D01*
X90915490Y-62800386D01*
X90085103Y-61970000D01*
X93612500Y-61970000D01*
X94337500Y-61970000D01*
X94337500Y-61232500D01*
X94837500Y-61232500D01*
X94837500Y-61970000D01*
X95562499Y-61970000D01*
X95562499Y-61920858D01*
X95552180Y-61819848D01*
X95552179Y-61819845D01*
X95497956Y-61656204D01*
X95497953Y-61656197D01*
X95407444Y-61509461D01*
X95285538Y-61387555D01*
X95138802Y-61297046D01*
X95138795Y-61297043D01*
X94975149Y-61242818D01*
X94975148Y-61242817D01*
X94874157Y-61232500D01*
X94837500Y-61232500D01*
X94337500Y-61232500D01*
X94337500Y-61232499D01*
X94337499Y-61232499D01*
X94300858Y-61232500D01*
X94199848Y-61242819D01*
X94199845Y-61242820D01*
X94036204Y-61297043D01*
X94036197Y-61297046D01*
X93889461Y-61387555D01*
X93767555Y-61509461D01*
X93677046Y-61656197D01*
X93677043Y-61656204D01*
X93622818Y-61819850D01*
X93622817Y-61819851D01*
X93612500Y-61920842D01*
X93612500Y-61970000D01*
X90085103Y-61970000D01*
X89619614Y-61504511D01*
X89619611Y-61504509D01*
X89619607Y-61504506D01*
X89516890Y-61445202D01*
X89516887Y-61445201D01*
X89492673Y-61438713D01*
X89402309Y-61414500D01*
X85435752Y-61414500D01*
X85361252Y-61394538D01*
X85306714Y-61340000D01*
X85286752Y-61265500D01*
X85294045Y-61219456D01*
X85300204Y-61200500D01*
X85336497Y-61088803D01*
X85355185Y-60911000D01*
X85336497Y-60733197D01*
X85281250Y-60563165D01*
X85191859Y-60408335D01*
X85191858Y-60408334D01*
X85191856Y-60408330D01*
X85088772Y-60293845D01*
X85053756Y-60225123D01*
X85050500Y-60194144D01*
X85050500Y-59669525D01*
X85050499Y-59669523D01*
X85012984Y-59529515D01*
X84999902Y-59506857D01*
X84991505Y-59492312D01*
X84991504Y-59492311D01*
X84991503Y-59492309D01*
X84940510Y-59403985D01*
X84338015Y-58801490D01*
X84338012Y-58801488D01*
X78346015Y-52809490D01*
X78220485Y-52737016D01*
X78169621Y-52723387D01*
X78169619Y-52723386D01*
X78169617Y-52723385D01*
X78080477Y-52699500D01*
X78080475Y-52699500D01*
X75287014Y-52699500D01*
X75212514Y-52679538D01*
X75168290Y-52640531D01*
X75142922Y-52607078D01*
X75142921Y-52607077D01*
X75142920Y-52607076D01*
X75079630Y-52559082D01*
X75022342Y-52515639D01*
X75022341Y-52515638D01*
X74881563Y-52460122D01*
X74793105Y-52449500D01*
X74793102Y-52449500D01*
X74322475Y-52449500D01*
X65072475Y-52449500D01*
X63174348Y-52449500D01*
X63099848Y-52429538D01*
X63055625Y-52390532D01*
X63046502Y-52378502D01*
X63046498Y-52378498D01*
X62974115Y-52323609D01*
X62928658Y-52289138D01*
X62928656Y-52289137D01*
X62887136Y-52272764D01*
X62791077Y-52234883D01*
X62791074Y-52234882D01*
X62791073Y-52234882D01*
X62704618Y-52224500D01*
X62120382Y-52224500D01*
X62120381Y-52224500D01*
X62033926Y-52234882D01*
X62033924Y-52234882D01*
X62033923Y-52234883D01*
X61979669Y-52256278D01*
X61896343Y-52289137D01*
X61896342Y-52289137D01*
X61778501Y-52378498D01*
X61778498Y-52378501D01*
X61689137Y-52496342D01*
X61689137Y-52496343D01*
X61659457Y-52571606D01*
X61645470Y-52607078D01*
X61638612Y-52624468D01*
X61592711Y-52686450D01*
X61521968Y-52717179D01*
X61445339Y-52708419D01*
X61383357Y-52662518D01*
X61361388Y-52624468D01*
X61354530Y-52607078D01*
X61310862Y-52496342D01*
X61221500Y-52378500D01*
X61221498Y-52378498D01*
X61149115Y-52323609D01*
X61103658Y-52289138D01*
X61103656Y-52289137D01*
X61062136Y-52272764D01*
X60966077Y-52234883D01*
X60966074Y-52234882D01*
X60966073Y-52234882D01*
X60879618Y-52224500D01*
X60295382Y-52224500D01*
X60295381Y-52224500D01*
X60208926Y-52234882D01*
X60208924Y-52234882D01*
X60208923Y-52234883D01*
X60154669Y-52256278D01*
X60071343Y-52289137D01*
X60071342Y-52289137D01*
X59953501Y-52378498D01*
X59953498Y-52378501D01*
X59864137Y-52496342D01*
X59864137Y-52496343D01*
X59831278Y-52579669D01*
X59820470Y-52607078D01*
X59809883Y-52633924D01*
X59809882Y-52633926D01*
X59799500Y-52720381D01*
X59799500Y-53279618D01*
X59809882Y-53366073D01*
X59809882Y-53366074D01*
X59809883Y-53366077D01*
X59813612Y-53375532D01*
X59864137Y-53503656D01*
X59864137Y-53503657D01*
X59953498Y-53621498D01*
X59953501Y-53621501D01*
X60078031Y-53715934D01*
X60125331Y-53776855D01*
X60137000Y-53834658D01*
X60137000Y-54390500D01*
X60117038Y-54465000D01*
X60062500Y-54519538D01*
X59988001Y-54539500D01*
X59867633Y-54539500D01*
X59842510Y-54542414D01*
X59842507Y-54542415D01*
X59739735Y-54587793D01*
X59660293Y-54667235D01*
X59614916Y-54770005D01*
X59614915Y-54770008D01*
X59614915Y-54770009D01*
X59612000Y-54795135D01*
X59612000Y-54795136D01*
X59612000Y-54795140D01*
X59612000Y-56484866D01*
X59614914Y-56509989D01*
X59614915Y-56509992D01*
X59660293Y-56612764D01*
X59660294Y-56612765D01*
X59739735Y-56692206D01*
X59842509Y-56737585D01*
X59867635Y-56740500D01*
X61114178Y-56740499D01*
X61188678Y-56760461D01*
X61219537Y-56784140D01*
X61402256Y-56966859D01*
X61440820Y-57033654D01*
X61440820Y-57110782D01*
X61402256Y-57177577D01*
X61335461Y-57216141D01*
X61258333Y-57216141D01*
X61218461Y-57198901D01*
X61205137Y-57190652D01*
X61205135Y-57190651D01*
X61205132Y-57190649D01*
X61014962Y-57116978D01*
X61014958Y-57116977D01*
X61014956Y-57116976D01*
X60974860Y-57109480D01*
X60814480Y-57079500D01*
X60814476Y-57079500D01*
X60610524Y-57079500D01*
X60610519Y-57079500D01*
X60410044Y-57116976D01*
X60410037Y-57116978D01*
X60219867Y-57190649D01*
X60219856Y-57190655D01*
X60046463Y-57298015D01*
X60046458Y-57298019D01*
X59958175Y-57378500D01*
X59909817Y-57422585D01*
X59895734Y-57435423D01*
X59772828Y-57598176D01*
X59681916Y-57780754D01*
X59633810Y-57949828D01*
X59629657Y-57964428D01*
X59626102Y-57976921D01*
X59607285Y-58179995D01*
X59607285Y-58180004D01*
X59626102Y-58383078D01*
X59626102Y-58383080D01*
X59626103Y-58383083D01*
X59639103Y-58428772D01*
X59681916Y-58579245D01*
X59681917Y-58579247D01*
X59681918Y-58579250D01*
X59769765Y-58755671D01*
X59772828Y-58761823D01*
X59837750Y-58847793D01*
X59895736Y-58924579D01*
X60043528Y-59059309D01*
X60046458Y-59061980D01*
X60046463Y-59061984D01*
X60219856Y-59169344D01*
X60219867Y-59169350D01*
X60321053Y-59208549D01*
X60410044Y-59243024D01*
X60610524Y-59280500D01*
X60610527Y-59280500D01*
X60814473Y-59280500D01*
X60814476Y-59280500D01*
X61014956Y-59243024D01*
X61014959Y-59243022D01*
X61014963Y-59243022D01*
X61021587Y-59241138D01*
X61022028Y-59242691D01*
X61090081Y-59235321D01*
X61160640Y-59266469D01*
X61172597Y-59277201D01*
X61402253Y-59506857D01*
X61440817Y-59573652D01*
X61440817Y-59650780D01*
X61402253Y-59717575D01*
X61335458Y-59756139D01*
X61258330Y-59756139D01*
X61218457Y-59738899D01*
X61205140Y-59730654D01*
X61205132Y-59730649D01*
X61014962Y-59656978D01*
X61014958Y-59656977D01*
X61014956Y-59656976D01*
X60974860Y-59649480D01*
X60814480Y-59619500D01*
X60814476Y-59619500D01*
X60610524Y-59619500D01*
X60610519Y-59619500D01*
X60410044Y-59656976D01*
X60410037Y-59656978D01*
X60219867Y-59730649D01*
X60219856Y-59730655D01*
X60046463Y-59838015D01*
X60046458Y-59838019D01*
X59895734Y-59975423D01*
X59772825Y-60138180D01*
X59726941Y-60230330D01*
X59675864Y-60288122D01*
X59602735Y-60312632D01*
X59527147Y-60297294D01*
X59469355Y-60246217D01*
X59449639Y-60202479D01*
X59426286Y-60115325D01*
X59426286Y-60115324D01*
X59426283Y-60115316D01*
X59419799Y-60091114D01*
X59419799Y-60091113D01*
X59369471Y-60003942D01*
X59360490Y-59988386D01*
X57174714Y-57802611D01*
X57136151Y-57735817D01*
X57136151Y-57658689D01*
X57136742Y-57656548D01*
X57185115Y-57486536D01*
X57202198Y-57302179D01*
X57205643Y-57265004D01*
X57205643Y-57264995D01*
X57188454Y-57079500D01*
X57185115Y-57043464D01*
X57136723Y-56873383D01*
X57124229Y-56829471D01*
X57025060Y-56630314D01*
X57020410Y-56624157D01*
X56890981Y-56452764D01*
X56726562Y-56302876D01*
X56562317Y-56201180D01*
X56509486Y-56144990D01*
X56491828Y-56069911D01*
X56514074Y-55996061D01*
X56570266Y-55943228D01*
X56640756Y-55925499D01*
X56944864Y-55925499D01*
X56944867Y-55925499D01*
X56959940Y-55923750D01*
X56969991Y-55922585D01*
X57072765Y-55877206D01*
X57152206Y-55797765D01*
X57197585Y-55694991D01*
X57200500Y-55669865D01*
X57200499Y-53780136D01*
X57200118Y-53776855D01*
X57197585Y-53755010D01*
X57197584Y-53755008D01*
X57152206Y-53652235D01*
X57072765Y-53572794D01*
X57072764Y-53572793D01*
X56969994Y-53527416D01*
X56969991Y-53527415D01*
X56969982Y-53527414D01*
X56944865Y-53524500D01*
X56944859Y-53524500D01*
X55055133Y-53524500D01*
X55030010Y-53527414D01*
X55030007Y-53527415D01*
X54927235Y-53572793D01*
X54847793Y-53652235D01*
X54802416Y-53755005D01*
X54802415Y-53755008D01*
X54802415Y-53755009D01*
X54799500Y-53780135D01*
X54799500Y-53780136D01*
X54799500Y-53780140D01*
X54799500Y-54125500D01*
X54779538Y-54200000D01*
X54725000Y-54254538D01*
X54650500Y-54274500D01*
X53973321Y-54274500D01*
X53898821Y-54254538D01*
X53867963Y-54230859D01*
X53776616Y-54139513D01*
X53776614Y-54139511D01*
X53776611Y-54139509D01*
X53776607Y-54139506D01*
X53673890Y-54080202D01*
X53673887Y-54080201D01*
X53649673Y-54073713D01*
X53559309Y-54049500D01*
X53334658Y-54049500D01*
X53260158Y-54029538D01*
X53215934Y-53990531D01*
X53121501Y-53866001D01*
X53121498Y-53865998D01*
X53035125Y-53800500D01*
X53003658Y-53776638D01*
X53003656Y-53776637D01*
X52974440Y-53765116D01*
X52866077Y-53722383D01*
X52866074Y-53722382D01*
X52866073Y-53722382D01*
X52779618Y-53712000D01*
X52220382Y-53712000D01*
X52220381Y-53712000D01*
X52133926Y-53722382D01*
X52133924Y-53722382D01*
X52133923Y-53722383D01*
X52097481Y-53736754D01*
X51996343Y-53776637D01*
X51996342Y-53776637D01*
X51878501Y-53865998D01*
X51878498Y-53866001D01*
X51789137Y-53983842D01*
X51789137Y-53983843D01*
X51766950Y-54040107D01*
X51751139Y-54080202D01*
X51734883Y-54121424D01*
X51734882Y-54121426D01*
X51724500Y-54207881D01*
X51724500Y-54792118D01*
X51734882Y-54878573D01*
X51734882Y-54878574D01*
X51734883Y-54878577D01*
X51762188Y-54947817D01*
X51789137Y-55016156D01*
X51789137Y-55016157D01*
X51878498Y-55133998D01*
X51878501Y-55134001D01*
X51931650Y-55174305D01*
X51978950Y-55235226D01*
X51989453Y-55311636D01*
X51960343Y-55383060D01*
X51919842Y-55419845D01*
X51801959Y-55492557D01*
X51680055Y-55614461D01*
X51589546Y-55761197D01*
X51589543Y-55761204D01*
X51535318Y-55924850D01*
X51535317Y-55924851D01*
X51525000Y-56025842D01*
X51525000Y-56075000D01*
X53474999Y-56075000D01*
X53474999Y-56025858D01*
X53464680Y-55924848D01*
X53464679Y-55924845D01*
X53410456Y-55761204D01*
X53410453Y-55761197D01*
X53319944Y-55614461D01*
X53198038Y-55492555D01*
X53080158Y-55419845D01*
X53027230Y-55363744D01*
X53009443Y-55288695D01*
X53031564Y-55214807D01*
X53068347Y-55174306D01*
X53121500Y-55134000D01*
X53180148Y-55056660D01*
X53241067Y-55009361D01*
X53317477Y-54998858D01*
X53388901Y-55027967D01*
X53404229Y-55041332D01*
X53448386Y-55085489D01*
X53448388Y-55085490D01*
X53448389Y-55085491D01*
X53499500Y-55115000D01*
X53532410Y-55134001D01*
X53551115Y-55144800D01*
X53565424Y-55148633D01*
X53575317Y-55151283D01*
X53575324Y-55151287D01*
X53575325Y-55151286D01*
X53597188Y-55157144D01*
X53665691Y-55175500D01*
X54650501Y-55175500D01*
X54725001Y-55195462D01*
X54779539Y-55250000D01*
X54799501Y-55324500D01*
X54799501Y-55669866D01*
X54802414Y-55694989D01*
X54802415Y-55694992D01*
X54847793Y-55797764D01*
X54847794Y-55797765D01*
X54927235Y-55877206D01*
X55030009Y-55922585D01*
X55055135Y-55925500D01*
X55359244Y-55925499D01*
X55433741Y-55945461D01*
X55488279Y-55999999D01*
X55508241Y-56074499D01*
X55488279Y-56148999D01*
X55437680Y-56201181D01*
X55273438Y-56302875D01*
X55273437Y-56302876D01*
X55109019Y-56452763D01*
X54974939Y-56630314D01*
X54875770Y-56829471D01*
X54814884Y-57043465D01*
X54814884Y-57043468D01*
X54794357Y-57264995D01*
X54794357Y-57265004D01*
X54814884Y-57486531D01*
X54814884Y-57486534D01*
X54875770Y-57700528D01*
X54974939Y-57899685D01*
X54974941Y-57899688D01*
X54974942Y-57899689D01*
X55109019Y-58077236D01*
X55273438Y-58227124D01*
X55462599Y-58344247D01*
X55462601Y-58344247D01*
X55462603Y-58344249D01*
X55462605Y-58344250D01*
X55617208Y-58404143D01*
X55670060Y-58424618D01*
X55888757Y-58465500D01*
X55888759Y-58465500D01*
X56111241Y-58465500D01*
X56111243Y-58465500D01*
X56329940Y-58424618D01*
X56378210Y-58405917D01*
X56454888Y-58397619D01*
X56525445Y-58428772D01*
X56537394Y-58439497D01*
X56853568Y-58755671D01*
X56892132Y-58822466D01*
X56892132Y-58899594D01*
X56853568Y-58966389D01*
X56786773Y-59004953D01*
X56709645Y-59004953D01*
X56669772Y-58987713D01*
X56537401Y-58905753D01*
X56537398Y-58905752D01*
X56537397Y-58905751D01*
X56537394Y-58905749D01*
X56329944Y-58825383D01*
X56329941Y-58825382D01*
X56329940Y-58825382D01*
X56274775Y-58815069D01*
X56111247Y-58784500D01*
X56111243Y-58784500D01*
X55888757Y-58784500D01*
X55888752Y-58784500D01*
X55670055Y-58825383D01*
X55462605Y-58905749D01*
X55462603Y-58905750D01*
X55273436Y-59022877D01*
X55109019Y-59172763D01*
X54974939Y-59350314D01*
X54875770Y-59549471D01*
X54814884Y-59763465D01*
X54814884Y-59763468D01*
X54794357Y-59984995D01*
X54794357Y-59985004D01*
X54814884Y-60206531D01*
X54814884Y-60206534D01*
X54875770Y-60420528D01*
X54974939Y-60619685D01*
X54974941Y-60619688D01*
X54974942Y-60619689D01*
X55109019Y-60797236D01*
X55273438Y-60947124D01*
X55437681Y-61048819D01*
X55490513Y-61105009D01*
X55508171Y-61180088D01*
X55485925Y-61253938D01*
X55429733Y-61306771D01*
X55359242Y-61324500D01*
X55055133Y-61324500D01*
X55030010Y-61327414D01*
X55030007Y-61327415D01*
X54927235Y-61372793D01*
X54847793Y-61452235D01*
X54802416Y-61555005D01*
X54802415Y-61555008D01*
X54802415Y-61555009D01*
X54799500Y-61580135D01*
X54799500Y-61580139D01*
X54799500Y-61580140D01*
X54799500Y-63469866D01*
X54802414Y-63494989D01*
X54802415Y-63494992D01*
X54847793Y-63597764D01*
X54847794Y-63597765D01*
X54927235Y-63677206D01*
X55030009Y-63722585D01*
X55055135Y-63725500D01*
X55751412Y-63725499D01*
X55825911Y-63745461D01*
X55880449Y-63799999D01*
X55900411Y-63874499D01*
X55880449Y-63948999D01*
X55870136Y-63964529D01*
X55789137Y-64071343D01*
X55734883Y-64208924D01*
X55734882Y-64208926D01*
X55724500Y-64295381D01*
X55724500Y-64879618D01*
X55734882Y-64966073D01*
X55734882Y-64966074D01*
X55734883Y-64966077D01*
X55759486Y-65028465D01*
X55789137Y-65103656D01*
X55789137Y-65103657D01*
X55878498Y-65221498D01*
X55878501Y-65221501D01*
X55931650Y-65261805D01*
X55978950Y-65322726D01*
X55989453Y-65399136D01*
X55960343Y-65470560D01*
X55919842Y-65507345D01*
X55801959Y-65580057D01*
X55680055Y-65701961D01*
X55589546Y-65848697D01*
X55585876Y-65856569D01*
X55584576Y-65855962D01*
X55547358Y-65912550D01*
X55478433Y-65947164D01*
X55401436Y-65942679D01*
X55336996Y-65900296D01*
X55321488Y-65879463D01*
X55319945Y-65876962D01*
X55198038Y-65755055D01*
X55051302Y-65664546D01*
X55051295Y-65664543D01*
X54887649Y-65610318D01*
X54887648Y-65610317D01*
X54786657Y-65600000D01*
X54750000Y-65600000D01*
X54750000Y-66337500D01*
X55474999Y-66337500D01*
X55474999Y-66311500D01*
X55494961Y-66237000D01*
X55549499Y-66182462D01*
X55623999Y-66162500D01*
X56601000Y-66162500D01*
X56675500Y-66182462D01*
X56730038Y-66237000D01*
X56750000Y-66311500D01*
X56750000Y-67399999D01*
X56786642Y-67399999D01*
X56887651Y-67389680D01*
X56887654Y-67389679D01*
X57051295Y-67335456D01*
X57051302Y-67335453D01*
X57205424Y-67240389D01*
X57206174Y-67241604D01*
X57268379Y-67214767D01*
X57344986Y-67223715D01*
X57406856Y-67269768D01*
X57437410Y-67340586D01*
X57428462Y-67417193D01*
X57395344Y-67467551D01*
X50196859Y-74666037D01*
X50130064Y-74704601D01*
X50052936Y-74704601D01*
X49986141Y-74666037D01*
X49947577Y-74599242D01*
X49942500Y-74560678D01*
X49942500Y-69139499D01*
X49962462Y-69064999D01*
X50017000Y-69010461D01*
X50091496Y-68990499D01*
X51944864Y-68990499D01*
X51944867Y-68990499D01*
X51959940Y-68988750D01*
X51969991Y-68987585D01*
X52072765Y-68942206D01*
X52108330Y-68906641D01*
X52175125Y-68868077D01*
X52213689Y-68863000D01*
X53665342Y-68863000D01*
X53739842Y-68882962D01*
X53784066Y-68921969D01*
X53789137Y-68928656D01*
X53789138Y-68928658D01*
X53827150Y-68978785D01*
X53833823Y-68987585D01*
X53878500Y-69046500D01*
X53996342Y-69135862D01*
X54133923Y-69190117D01*
X54220382Y-69200500D01*
X54220383Y-69200500D01*
X54779617Y-69200500D01*
X54779618Y-69200500D01*
X54866077Y-69190117D01*
X55003658Y-69135862D01*
X55121500Y-69046500D01*
X55210862Y-68928658D01*
X55265117Y-68791077D01*
X55275500Y-68704618D01*
X55275500Y-68120382D01*
X55265117Y-68033923D01*
X55210862Y-67896342D01*
X55121500Y-67778500D01*
X55121498Y-67778498D01*
X55068349Y-67738194D01*
X55021049Y-67677272D01*
X55010546Y-67600863D01*
X55039656Y-67529439D01*
X55080159Y-67492654D01*
X55198037Y-67419945D01*
X55319944Y-67298038D01*
X55410453Y-67151302D01*
X55414124Y-67143431D01*
X55415427Y-67144038D01*
X55452624Y-67087465D01*
X55521543Y-67052840D01*
X55598541Y-67057313D01*
X55662987Y-67099686D01*
X55678509Y-67120532D01*
X55680054Y-67123037D01*
X55801961Y-67244944D01*
X55948697Y-67335453D01*
X55948704Y-67335456D01*
X56112350Y-67389681D01*
X56112351Y-67389682D01*
X56213347Y-67399999D01*
X56250000Y-67399998D01*
X56250000Y-66662500D01*
X55525001Y-66662500D01*
X55525001Y-66688500D01*
X55505039Y-66763000D01*
X55450501Y-66817538D01*
X55376001Y-66837500D01*
X53525001Y-66837500D01*
X53525001Y-66886641D01*
X53535319Y-66987651D01*
X53535320Y-66987654D01*
X53589543Y-67151295D01*
X53589546Y-67151302D01*
X53680055Y-67298038D01*
X53801961Y-67419944D01*
X53919841Y-67492654D01*
X53972769Y-67548755D01*
X53990556Y-67623804D01*
X53968435Y-67697692D01*
X53931651Y-67738193D01*
X53878502Y-67778497D01*
X53878498Y-67778501D01*
X53784066Y-67903031D01*
X53723145Y-67950331D01*
X53665342Y-67962000D01*
X52349500Y-67962000D01*
X52275000Y-67942038D01*
X52220462Y-67887500D01*
X52200500Y-67813000D01*
X52200499Y-66845133D01*
X52197585Y-66820010D01*
X52197584Y-66820007D01*
X52152206Y-66717235D01*
X52072764Y-66637793D01*
X51969994Y-66592416D01*
X51969991Y-66592415D01*
X51944865Y-66589500D01*
X51944859Y-66589500D01*
X51640759Y-66589500D01*
X51566259Y-66569538D01*
X51511721Y-66515000D01*
X51491759Y-66440500D01*
X51511721Y-66366000D01*
X51539357Y-66337500D01*
X53525000Y-66337500D01*
X54250000Y-66337500D01*
X54250000Y-65599999D01*
X54249999Y-65599999D01*
X54213358Y-65600000D01*
X54112348Y-65610319D01*
X54112345Y-65610320D01*
X53948704Y-65664543D01*
X53948697Y-65664546D01*
X53801961Y-65755055D01*
X53680055Y-65876961D01*
X53589546Y-66023697D01*
X53589543Y-66023704D01*
X53535318Y-66187350D01*
X53535317Y-66187351D01*
X53525000Y-66288342D01*
X53525000Y-66337500D01*
X51539357Y-66337500D01*
X51562321Y-66313818D01*
X51726557Y-66212127D01*
X51726556Y-66212127D01*
X51726562Y-66212124D01*
X51890981Y-66062236D01*
X52025058Y-65884689D01*
X52124229Y-65685528D01*
X52185115Y-65471536D01*
X52198904Y-65322726D01*
X52205643Y-65250004D01*
X52205643Y-65249995D01*
X52192083Y-65103658D01*
X52185115Y-65028464D01*
X52152058Y-64912281D01*
X52124229Y-64814471D01*
X52025060Y-64615314D01*
X51984163Y-64561158D01*
X51890981Y-64437764D01*
X51880395Y-64428114D01*
X51734796Y-64295382D01*
X51726562Y-64287876D01*
X51537401Y-64170753D01*
X51537400Y-64170752D01*
X51537396Y-64170750D01*
X51537394Y-64170749D01*
X51329944Y-64090383D01*
X51329941Y-64090382D01*
X51329940Y-64090382D01*
X51274775Y-64080069D01*
X51111247Y-64049500D01*
X51111243Y-64049500D01*
X50888757Y-64049500D01*
X50888752Y-64049500D01*
X50670055Y-64090383D01*
X50462605Y-64170749D01*
X50462602Y-64170751D01*
X50462599Y-64170753D01*
X50363464Y-64232135D01*
X50356485Y-64236456D01*
X50282635Y-64258702D01*
X50207556Y-64241044D01*
X50151364Y-64188211D01*
X50129118Y-64114361D01*
X50146776Y-64039282D01*
X50172688Y-64004414D01*
X50462605Y-63714497D01*
X50529400Y-63675933D01*
X50606528Y-63675933D01*
X50621790Y-63680918D01*
X50670054Y-63699616D01*
X50670060Y-63699618D01*
X50888757Y-63740500D01*
X50888759Y-63740500D01*
X51111241Y-63740500D01*
X51111243Y-63740500D01*
X51329940Y-63699618D01*
X51469567Y-63645526D01*
X51537394Y-63619250D01*
X51537396Y-63619249D01*
X51537396Y-63619248D01*
X51537401Y-63619247D01*
X51726562Y-63502124D01*
X51890981Y-63352236D01*
X52025058Y-63174689D01*
X52124229Y-62975528D01*
X52185115Y-62761536D01*
X52204179Y-62555800D01*
X52205643Y-62540004D01*
X52205643Y-62539995D01*
X52186184Y-62329999D01*
X52185115Y-62318464D01*
X52143869Y-62173500D01*
X52124229Y-62104471D01*
X52025060Y-61905314D01*
X52013088Y-61889461D01*
X51890981Y-61727764D01*
X51853737Y-61693812D01*
X51771045Y-61618428D01*
X51726562Y-61577876D01*
X51562317Y-61476180D01*
X51509486Y-61419990D01*
X51491828Y-61344911D01*
X51514074Y-61271061D01*
X51570266Y-61218228D01*
X51640756Y-61200499D01*
X51944864Y-61200499D01*
X51944867Y-61200499D01*
X51959940Y-61198750D01*
X51969991Y-61197585D01*
X52072765Y-61152206D01*
X52152206Y-61072765D01*
X52197585Y-60969991D01*
X52200500Y-60944865D01*
X52200499Y-59055136D01*
X52197585Y-59030009D01*
X52152206Y-58927235D01*
X52072765Y-58847794D01*
X52072764Y-58847793D01*
X51969994Y-58802416D01*
X51969991Y-58802415D01*
X51944865Y-58799500D01*
X51944859Y-58799500D01*
X50599500Y-58799500D01*
X50525000Y-58779538D01*
X50470462Y-58725000D01*
X50450500Y-58650500D01*
X50450500Y-58587680D01*
X50470462Y-58513180D01*
X50509469Y-58468956D01*
X50587700Y-58409631D01*
X50621500Y-58384000D01*
X50710862Y-58266158D01*
X50765117Y-58128577D01*
X50775500Y-58042118D01*
X50775500Y-57457882D01*
X50765117Y-57371423D01*
X50710862Y-57233842D01*
X50681403Y-57194994D01*
X50621501Y-57116001D01*
X50621498Y-57115998D01*
X50568349Y-57075694D01*
X50521049Y-57014772D01*
X50510546Y-56938363D01*
X50539656Y-56866939D01*
X50580159Y-56830154D01*
X50698037Y-56757445D01*
X50819944Y-56635538D01*
X50857285Y-56575000D01*
X51525001Y-56575000D01*
X51525001Y-56624141D01*
X51535319Y-56725151D01*
X51535320Y-56725154D01*
X51589543Y-56888795D01*
X51589546Y-56888802D01*
X51680055Y-57035538D01*
X51801961Y-57157444D01*
X51948697Y-57247953D01*
X51948704Y-57247956D01*
X52112350Y-57302181D01*
X52112351Y-57302182D01*
X52213347Y-57312499D01*
X52250000Y-57312498D01*
X52250000Y-56575000D01*
X52750000Y-56575000D01*
X52750000Y-57312499D01*
X52786642Y-57312499D01*
X52887651Y-57302180D01*
X52887654Y-57302179D01*
X53051295Y-57247956D01*
X53051302Y-57247953D01*
X53198038Y-57157444D01*
X53319944Y-57035538D01*
X53410453Y-56888802D01*
X53410456Y-56888795D01*
X53464681Y-56725149D01*
X53464682Y-56725148D01*
X53474999Y-56624157D01*
X53475000Y-56624144D01*
X53475000Y-56575000D01*
X52750000Y-56575000D01*
X52250000Y-56575000D01*
X51525001Y-56575000D01*
X50857285Y-56575000D01*
X50910453Y-56488802D01*
X50910456Y-56488795D01*
X50964681Y-56325149D01*
X50964682Y-56325148D01*
X50974999Y-56224157D01*
X50975000Y-56224147D01*
X50975000Y-56175000D01*
X49025001Y-56175000D01*
X49025001Y-56224141D01*
X49035319Y-56325151D01*
X49035320Y-56325154D01*
X49089543Y-56488795D01*
X49089546Y-56488802D01*
X49180055Y-56635538D01*
X49301961Y-56757444D01*
X49419841Y-56830154D01*
X49472769Y-56886255D01*
X49490556Y-56961304D01*
X49468435Y-57035192D01*
X49431651Y-57075693D01*
X49378502Y-57115997D01*
X49378498Y-57116001D01*
X49289137Y-57233842D01*
X49289137Y-57233843D01*
X49262188Y-57302182D01*
X49236591Y-57367094D01*
X49234883Y-57371424D01*
X49234882Y-57371426D01*
X49224500Y-57457881D01*
X49224500Y-58042118D01*
X49234882Y-58128573D01*
X49234882Y-58128574D01*
X49234883Y-58128577D01*
X49273744Y-58227122D01*
X49289137Y-58266156D01*
X49289137Y-58266157D01*
X49378498Y-58383998D01*
X49378501Y-58384001D01*
X49490531Y-58468956D01*
X49537831Y-58529878D01*
X49549500Y-58587680D01*
X49549500Y-59059310D01*
X49550216Y-59061981D01*
X49573704Y-59149641D01*
X49573713Y-59149672D01*
X49580202Y-59173891D01*
X49639506Y-59276607D01*
X49639509Y-59276611D01*
X49639511Y-59276614D01*
X49755860Y-59392963D01*
X49794423Y-59459756D01*
X49799500Y-59498320D01*
X49799500Y-60944866D01*
X49802414Y-60969989D01*
X49802415Y-60969992D01*
X49847793Y-61072764D01*
X49847794Y-61072765D01*
X49927235Y-61152206D01*
X50030009Y-61197585D01*
X50055135Y-61200500D01*
X50359244Y-61200499D01*
X50433741Y-61220461D01*
X50488279Y-61274999D01*
X50508241Y-61349499D01*
X50488279Y-61423999D01*
X50437680Y-61476181D01*
X50273438Y-61577875D01*
X50273437Y-61577876D01*
X50109019Y-61727763D01*
X49974939Y-61905314D01*
X49875770Y-62104471D01*
X49814884Y-62318465D01*
X49814884Y-62318468D01*
X49794357Y-62539995D01*
X49794357Y-62540004D01*
X49814884Y-62761531D01*
X49814884Y-62761533D01*
X49814885Y-62761536D01*
X49842047Y-62857000D01*
X49863237Y-62931476D01*
X49864425Y-63008595D01*
X49826894Y-63075976D01*
X49825284Y-63077611D01*
X48577509Y-64325388D01*
X48577508Y-64325389D01*
X48518201Y-64428111D01*
X48518202Y-64428111D01*
X48518201Y-64428113D01*
X48518201Y-64428114D01*
X48507967Y-64466306D01*
X48487500Y-64542689D01*
X48487500Y-64542691D01*
X48487500Y-82997309D01*
X48495805Y-83028305D01*
X48504113Y-83059308D01*
X48504113Y-83059309D01*
X48518202Y-83111890D01*
X48577506Y-83214607D01*
X48577509Y-83214611D01*
X48577511Y-83214614D01*
X51843387Y-86480490D01*
X51910522Y-86519250D01*
X51910524Y-86519251D01*
X51910525Y-86519252D01*
X51946110Y-86539797D01*
X51946114Y-86539799D01*
X52060691Y-86570500D01*
X59615180Y-86570500D01*
X59689680Y-86590462D01*
X59744218Y-86645000D01*
X59748559Y-86653085D01*
X59772825Y-86701819D01*
X59843299Y-86795141D01*
X59895736Y-86864579D01*
X60046458Y-87001980D01*
X60046463Y-87001984D01*
X60219856Y-87109344D01*
X60219867Y-87109350D01*
X60321053Y-87148549D01*
X60410044Y-87183024D01*
X60610524Y-87220500D01*
X60610527Y-87220500D01*
X60814473Y-87220500D01*
X60814476Y-87220500D01*
X61014956Y-87183024D01*
X61205137Y-87109348D01*
X61322063Y-87036950D01*
X61395911Y-87014704D01*
X61470990Y-87032362D01*
X61527182Y-87085194D01*
X61549429Y-87159044D01*
X61549500Y-87163633D01*
X61549500Y-87616366D01*
X61529538Y-87690866D01*
X61475000Y-87745404D01*
X61400500Y-87765366D01*
X61326000Y-87745404D01*
X61322062Y-87743049D01*
X61237783Y-87690866D01*
X61205137Y-87670652D01*
X61205135Y-87670651D01*
X61205132Y-87670649D01*
X61014962Y-87596978D01*
X61014958Y-87596977D01*
X61014956Y-87596976D01*
X60974860Y-87589480D01*
X60814480Y-87559500D01*
X60814476Y-87559500D01*
X60610524Y-87559500D01*
X60610519Y-87559500D01*
X60410044Y-87596976D01*
X60410037Y-87596978D01*
X60219867Y-87670649D01*
X60219856Y-87670655D01*
X60046463Y-87778015D01*
X60046458Y-87778019D01*
X59895734Y-87915423D01*
X59772828Y-88078176D01*
X59681916Y-88260754D01*
X59626102Y-88456921D01*
X59607285Y-88659995D01*
X59607285Y-88660004D01*
X59626102Y-88863078D01*
X59681916Y-89059245D01*
X59681917Y-89059247D01*
X59681918Y-89059250D01*
X59726943Y-89149673D01*
X59772828Y-89241823D01*
X59799101Y-89276614D01*
X59895736Y-89404579D01*
X60046458Y-89541980D01*
X60046463Y-89541984D01*
X60219856Y-89649344D01*
X60219867Y-89649350D01*
X60335832Y-89694274D01*
X60410044Y-89723024D01*
X60508239Y-89741379D01*
X60577802Y-89774690D01*
X60621390Y-89838320D01*
X60627323Y-89915220D01*
X60594012Y-89984784D01*
X60586219Y-89993201D01*
X56639509Y-93939914D01*
X56639508Y-93939915D01*
X56580201Y-94042639D01*
X56580201Y-94042640D01*
X56573713Y-94066853D01*
X56549500Y-94157213D01*
X56549500Y-98474608D01*
X56573713Y-98564970D01*
X56580202Y-98589189D01*
X56639506Y-98691905D01*
X56639509Y-98691909D01*
X56639511Y-98691912D01*
X58308088Y-100360489D01*
X58308090Y-100360490D01*
X58308091Y-100360491D01*
X58410817Y-100419800D01*
X58425126Y-100423633D01*
X58435019Y-100426283D01*
X58435026Y-100426287D01*
X58435027Y-100426286D01*
X58459241Y-100432774D01*
X58525393Y-100450500D01*
X58525396Y-100450500D01*
X62639306Y-100450500D01*
X62639309Y-100450500D01*
X62729673Y-100426286D01*
X62753887Y-100419799D01*
X62856614Y-100360489D01*
X63095810Y-100121293D01*
X98149500Y-100121293D01*
X98181160Y-100361781D01*
X98181161Y-100361787D01*
X98181162Y-100361789D01*
X98243946Y-100596100D01*
X98336776Y-100820212D01*
X98458064Y-101030289D01*
X98605735Y-101222738D01*
X98777262Y-101394265D01*
X98969711Y-101541936D01*
X99179788Y-101663224D01*
X99403900Y-101756054D01*
X99638211Y-101818838D01*
X99638217Y-101818838D01*
X99638218Y-101818839D01*
X99703600Y-101827446D01*
X99878712Y-101850500D01*
X100121288Y-101850500D01*
X100361789Y-101818838D01*
X100596100Y-101756054D01*
X100820212Y-101663224D01*
X101030289Y-101541936D01*
X101222738Y-101394265D01*
X101394265Y-101222738D01*
X101541936Y-101030289D01*
X101663224Y-100820212D01*
X101756054Y-100596100D01*
X101818838Y-100361789D01*
X101850500Y-100121288D01*
X101850500Y-99878712D01*
X101818838Y-99638211D01*
X101756054Y-99403900D01*
X101663224Y-99179788D01*
X101541936Y-98969711D01*
X101394265Y-98777262D01*
X101222738Y-98605735D01*
X101030289Y-98458064D01*
X100959831Y-98417385D01*
X100820216Y-98336778D01*
X100820214Y-98336777D01*
X100820212Y-98336776D01*
X100688932Y-98282398D01*
X100596103Y-98243947D01*
X100596101Y-98243946D01*
X100596100Y-98243946D01*
X100361789Y-98181162D01*
X100361787Y-98181161D01*
X100361781Y-98181160D01*
X100121293Y-98149500D01*
X100121288Y-98149500D01*
X99878712Y-98149500D01*
X99878706Y-98149500D01*
X99638218Y-98181160D01*
X99403896Y-98243947D01*
X99179783Y-98336778D01*
X98969712Y-98458063D01*
X98948150Y-98474608D01*
X98777262Y-98605735D01*
X98777260Y-98605736D01*
X98777256Y-98605740D01*
X98605740Y-98777256D01*
X98605736Y-98777260D01*
X98605735Y-98777262D01*
X98600948Y-98783501D01*
X98458063Y-98969712D01*
X98336778Y-99179783D01*
X98243947Y-99403896D01*
X98181160Y-99638218D01*
X98149500Y-99878706D01*
X98149500Y-100121293D01*
X63095810Y-100121293D01*
X64081255Y-99135846D01*
X64148048Y-99097284D01*
X64225176Y-99097284D01*
X64240426Y-99102265D01*
X64263802Y-99111321D01*
X64473390Y-99150500D01*
X64473393Y-99150500D01*
X64686607Y-99150500D01*
X64686610Y-99150500D01*
X64896198Y-99111321D01*
X65095019Y-99034298D01*
X65276302Y-98922052D01*
X65433872Y-98778407D01*
X65562366Y-98608255D01*
X65657405Y-98417389D01*
X65715756Y-98212310D01*
X65735429Y-98000000D01*
X65715756Y-97787690D01*
X65657405Y-97582611D01*
X65562366Y-97391745D01*
X65562364Y-97391743D01*
X65562363Y-97391740D01*
X65433872Y-97221593D01*
X65276302Y-97077948D01*
X65276301Y-97077947D01*
X65093369Y-96964680D01*
X65040537Y-96908489D01*
X65022879Y-96833409D01*
X65045126Y-96759559D01*
X65101317Y-96706727D01*
X65108838Y-96702958D01*
X65257581Y-96633598D01*
X65257586Y-96633595D01*
X65341373Y-96574926D01*
X64709409Y-95942962D01*
X64772993Y-95925925D01*
X64887007Y-95860099D01*
X64980099Y-95767007D01*
X65045925Y-95652993D01*
X65062962Y-95589408D01*
X65694926Y-96221372D01*
X65753595Y-96137586D01*
X65753598Y-96137580D01*
X65853430Y-95923491D01*
X65853431Y-95923489D01*
X65914568Y-95695321D01*
X65935157Y-95460000D01*
X65935157Y-95459999D01*
X65914568Y-95224678D01*
X65853431Y-94996512D01*
X65753597Y-94782418D01*
X65694925Y-94698626D01*
X65062962Y-95330589D01*
X65045925Y-95267007D01*
X64980099Y-95152993D01*
X64887007Y-95059901D01*
X64772993Y-94994075D01*
X64709409Y-94977037D01*
X65341372Y-94345073D01*
X65257578Y-94286399D01*
X65257573Y-94286396D01*
X65043491Y-94186569D01*
X65043489Y-94186568D01*
X64815321Y-94125431D01*
X64815322Y-94125431D01*
X64580001Y-94104843D01*
X64579999Y-94104843D01*
X64387558Y-94121679D01*
X64311602Y-94108286D01*
X64252518Y-94058709D01*
X64226139Y-93986232D01*
X64239532Y-93910276D01*
X64269207Y-93867894D01*
X66114818Y-92022284D01*
X66181611Y-91983722D01*
X66258739Y-91983722D01*
X66325534Y-92022286D01*
X66330890Y-92027930D01*
X66427770Y-92135526D01*
X66572407Y-92240612D01*
X66735733Y-92313329D01*
X66865445Y-92340900D01*
X66910608Y-92350500D01*
X66910609Y-92350500D01*
X67089392Y-92350500D01*
X67112089Y-92345675D01*
X67264267Y-92313329D01*
X67427593Y-92240612D01*
X67572230Y-92135526D01*
X67604400Y-92099797D01*
X67669083Y-92057793D01*
X67715126Y-92050500D01*
X75572475Y-92050500D01*
X75712485Y-92012984D01*
X75730358Y-92002665D01*
X75838015Y-91940510D01*
X77939039Y-89839486D01*
X83707000Y-89839486D01*
X83740798Y-90096212D01*
X83740801Y-90096229D01*
X83807822Y-90346361D01*
X83880194Y-90521079D01*
X83906926Y-90585616D01*
X84036407Y-90809884D01*
X84194053Y-91015333D01*
X84377167Y-91198447D01*
X84582616Y-91356093D01*
X84806884Y-91485574D01*
X84981597Y-91557943D01*
X85046138Y-91584677D01*
X85212892Y-91629357D01*
X85296272Y-91651699D01*
X85553019Y-91685500D01*
X85811981Y-91685500D01*
X86068728Y-91651699D01*
X86200243Y-91616459D01*
X86318861Y-91584677D01*
X86355820Y-91569368D01*
X86558116Y-91485574D01*
X86782384Y-91356093D01*
X86987833Y-91198447D01*
X87170947Y-91015333D01*
X87328593Y-90809884D01*
X87458074Y-90585616D01*
X87557175Y-90346366D01*
X87557175Y-90346365D01*
X87557177Y-90346361D01*
X87588959Y-90227743D01*
X87624199Y-90096228D01*
X87658000Y-89839481D01*
X87658000Y-89580519D01*
X87624199Y-89323772D01*
X87584038Y-89173887D01*
X87557177Y-89073638D01*
X87530443Y-89009097D01*
X87458074Y-88834384D01*
X87328593Y-88610116D01*
X87170947Y-88404667D01*
X86987833Y-88221553D01*
X86782384Y-88063907D01*
X86707628Y-88020746D01*
X86558120Y-87934428D01*
X86558118Y-87934427D01*
X86558116Y-87934426D01*
X86444359Y-87887306D01*
X86318861Y-87835322D01*
X86068729Y-87768301D01*
X86068712Y-87768298D01*
X85811986Y-87734500D01*
X85811981Y-87734500D01*
X85553019Y-87734500D01*
X85553013Y-87734500D01*
X85296287Y-87768298D01*
X85296270Y-87768301D01*
X85046138Y-87835322D01*
X84806879Y-87934428D01*
X84582617Y-88063906D01*
X84377165Y-88221554D01*
X84194054Y-88404665D01*
X84036406Y-88610117D01*
X83906928Y-88834379D01*
X83807822Y-89073638D01*
X83740801Y-89323770D01*
X83740798Y-89323787D01*
X83707000Y-89580513D01*
X83707000Y-89839486D01*
X77939039Y-89839486D01*
X82940510Y-84838015D01*
X83012984Y-84712485D01*
X83043310Y-84599309D01*
X83050500Y-84572475D01*
X83050500Y-82674346D01*
X83070462Y-82599846D01*
X83109466Y-82555624D01*
X83121500Y-82546500D01*
X83210862Y-82428658D01*
X83265117Y-82291077D01*
X83275500Y-82204618D01*
X83275500Y-81927243D01*
X83295462Y-81852743D01*
X83319141Y-81821884D01*
X85621078Y-79519947D01*
X87940510Y-77200515D01*
X88012984Y-77074985D01*
X88037099Y-76984987D01*
X88050500Y-76934975D01*
X88050500Y-76357014D01*
X88070462Y-76282514D01*
X88109468Y-76238290D01*
X88142922Y-76212922D01*
X88234361Y-76092342D01*
X88289877Y-75951564D01*
X88300500Y-75863102D01*
X88300500Y-75276898D01*
X88289877Y-75188436D01*
X88234361Y-75047658D01*
X88142923Y-74927079D01*
X88142920Y-74927076D01*
X88065826Y-74868614D01*
X88022342Y-74835639D01*
X88022341Y-74835638D01*
X87881563Y-74780122D01*
X87793105Y-74769500D01*
X87793102Y-74769500D01*
X87206898Y-74769500D01*
X87206892Y-74769500D01*
X87136966Y-74777897D01*
X87060617Y-74766959D01*
X87013843Y-74735319D01*
X85097267Y-72818742D01*
X85058703Y-72751947D01*
X85058703Y-72674819D01*
X85091898Y-72613682D01*
X85093097Y-72612351D01*
X85191859Y-72502665D01*
X85281250Y-72347835D01*
X85336497Y-72177803D01*
X85355185Y-72000000D01*
X85336497Y-71822197D01*
X85311589Y-71745541D01*
X85307554Y-71668521D01*
X85342570Y-71599799D01*
X85407255Y-71557792D01*
X85453298Y-71550500D01*
X86325652Y-71550500D01*
X86400152Y-71570462D01*
X86444375Y-71609468D01*
X86453497Y-71621497D01*
X86453500Y-71621500D01*
X86528031Y-71678018D01*
X86575331Y-71738939D01*
X86587000Y-71796742D01*
X86587000Y-72779980D01*
X86592157Y-72799223D01*
X86592158Y-72799225D01*
X86624516Y-72919985D01*
X86679538Y-73015287D01*
X86699500Y-73089786D01*
X86699500Y-73363105D01*
X86710122Y-73451563D01*
X86765638Y-73592341D01*
X86855515Y-73710862D01*
X86857078Y-73712922D01*
X86977658Y-73804361D01*
X87118436Y-73859877D01*
X87206898Y-73870500D01*
X87206899Y-73870500D01*
X87793101Y-73870500D01*
X87793102Y-73870500D01*
X87881564Y-73859877D01*
X88022342Y-73804361D01*
X88142922Y-73712922D01*
X88234361Y-73592342D01*
X88289877Y-73451564D01*
X88300500Y-73363102D01*
X88300500Y-72776898D01*
X88289877Y-72688436D01*
X88234361Y-72547658D01*
X88142923Y-72427079D01*
X88142920Y-72427076D01*
X88078864Y-72378501D01*
X88022342Y-72335639D01*
X88022341Y-72335638D01*
X87881563Y-72280122D01*
X87819235Y-72272638D01*
X87747646Y-72243936D01*
X87700000Y-72183284D01*
X87688000Y-72124701D01*
X87688000Y-71796742D01*
X87707962Y-71722242D01*
X87746963Y-71678022D01*
X87766640Y-71663101D01*
X87838059Y-71633991D01*
X87914469Y-71644491D01*
X87975392Y-71691789D01*
X87977202Y-71694431D01*
X87980052Y-71698035D01*
X88101961Y-71819944D01*
X88248697Y-71910453D01*
X88248704Y-71910456D01*
X88412350Y-71964681D01*
X88412351Y-71964682D01*
X88513347Y-71974999D01*
X88612499Y-71974998D01*
X88612500Y-71974998D01*
X88612500Y-71250000D01*
X89112500Y-71250000D01*
X89112500Y-71974999D01*
X89211642Y-71974999D01*
X89312651Y-71964680D01*
X89312654Y-71964679D01*
X89476295Y-71910456D01*
X89476302Y-71910453D01*
X89623038Y-71819944D01*
X89744944Y-71698038D01*
X89835453Y-71551302D01*
X89835456Y-71551295D01*
X89889681Y-71387649D01*
X89889682Y-71387648D01*
X89899999Y-71286657D01*
X89900000Y-71286647D01*
X89900000Y-71250000D01*
X89112500Y-71250000D01*
X88612500Y-71250000D01*
X88612500Y-70899000D01*
X88632462Y-70824500D01*
X88687000Y-70769962D01*
X88761500Y-70750000D01*
X89899999Y-70750000D01*
X89899999Y-70713358D01*
X89889680Y-70612348D01*
X89889679Y-70612345D01*
X89835456Y-70448704D01*
X89835451Y-70448693D01*
X89791674Y-70377720D01*
X89769553Y-70303833D01*
X89787340Y-70228784D01*
X89840269Y-70172683D01*
X89914156Y-70150562D01*
X89918455Y-70150499D01*
X90164864Y-70150499D01*
X90164867Y-70150499D01*
X90177427Y-70149042D01*
X90189991Y-70147585D01*
X90189995Y-70147582D01*
X90198377Y-70145303D01*
X90275504Y-70145004D01*
X90276620Y-70145302D01*
X90285003Y-70147582D01*
X90285009Y-70147585D01*
X90310135Y-70150500D01*
X90799864Y-70150499D01*
X90799866Y-70150499D01*
X90812427Y-70149042D01*
X90824991Y-70147585D01*
X90927765Y-70102206D01*
X91007206Y-70022765D01*
X91052585Y-69919991D01*
X91055500Y-69894865D01*
X91055499Y-69027318D01*
X91075461Y-68952820D01*
X91129999Y-68898282D01*
X91204499Y-68878320D01*
X91278999Y-68898282D01*
X91309858Y-68921961D01*
X92155859Y-69767962D01*
X92194423Y-69834757D01*
X92199500Y-69873321D01*
X92199500Y-71834312D01*
X92208887Y-71869344D01*
X92208889Y-71869348D01*
X92230202Y-71948890D01*
X92289506Y-72051607D01*
X92289509Y-72051611D01*
X92289511Y-72051614D01*
X95460886Y-75222989D01*
X95492751Y-75241386D01*
X95492752Y-75241387D01*
X95563609Y-75282297D01*
X95563611Y-75282297D01*
X95563614Y-75282299D01*
X95678191Y-75313000D01*
X97142120Y-75313000D01*
X97216620Y-75332962D01*
X97271158Y-75387500D01*
X97280727Y-75407330D01*
X97286479Y-75421915D01*
X97289138Y-75428658D01*
X97378498Y-75546498D01*
X97378501Y-75546501D01*
X97397295Y-75560753D01*
X97496342Y-75635862D01*
X97633923Y-75690117D01*
X97720382Y-75700500D01*
X97720383Y-75700500D01*
X98279617Y-75700500D01*
X98279618Y-75700500D01*
X98366077Y-75690117D01*
X98503658Y-75635862D01*
X98621500Y-75546500D01*
X98640719Y-75521154D01*
X98701638Y-75473856D01*
X98778047Y-75463352D01*
X98849472Y-75492460D01*
X98864802Y-75505827D01*
X99680859Y-76321884D01*
X99719423Y-76388679D01*
X99724500Y-76427243D01*
X99724500Y-76704618D01*
X99734882Y-76791073D01*
X99734882Y-76791074D01*
X99734883Y-76791077D01*
X99763892Y-76864638D01*
X99789137Y-76928656D01*
X99789137Y-76928657D01*
X99875467Y-77042500D01*
X99878500Y-77046500D01*
X99890531Y-77055623D01*
X99937830Y-77116539D01*
X99949500Y-77174346D01*
X99949500Y-78750500D01*
X99929538Y-78825000D01*
X99875000Y-78879538D01*
X99800501Y-78899500D01*
X99655133Y-78899500D01*
X99630010Y-78902414D01*
X99630007Y-78902415D01*
X99527234Y-78947793D01*
X99507137Y-78967891D01*
X99440342Y-79006454D01*
X99363214Y-79006452D01*
X99316317Y-78984584D01*
X99152482Y-78869865D01*
X99152477Y-78869862D01*
X98946325Y-78773733D01*
X98946323Y-78773732D01*
X98726605Y-78714859D01*
X98726606Y-78714859D01*
X98500000Y-78695034D01*
X98273393Y-78714859D01*
X98053676Y-78773732D01*
X98053674Y-78773733D01*
X97847522Y-78869862D01*
X97847517Y-78869865D01*
X97774527Y-78920974D01*
X98453553Y-79600000D01*
X98447339Y-79600000D01*
X98345606Y-79627259D01*
X98254394Y-79679920D01*
X98179920Y-79754394D01*
X98127259Y-79845606D01*
X98100000Y-79947339D01*
X98100000Y-79953553D01*
X97420974Y-79274527D01*
X97369865Y-79347517D01*
X97369862Y-79347522D01*
X97273733Y-79553674D01*
X97273732Y-79553676D01*
X97214859Y-79773393D01*
X97195034Y-80000000D01*
X97214859Y-80226606D01*
X97273732Y-80446323D01*
X97273733Y-80446325D01*
X97369866Y-80652483D01*
X97369872Y-80652492D01*
X97420973Y-80725471D01*
X98100000Y-80046444D01*
X98100000Y-80052661D01*
X98127259Y-80154394D01*
X98179920Y-80245606D01*
X98254394Y-80320080D01*
X98345606Y-80372741D01*
X98447339Y-80400000D01*
X98453551Y-80400000D01*
X97774526Y-81079024D01*
X97774526Y-81079025D01*
X97847509Y-81130129D01*
X97847515Y-81130132D01*
X98053674Y-81226266D01*
X98053676Y-81226267D01*
X98273394Y-81285140D01*
X98273393Y-81285140D01*
X98500000Y-81304965D01*
X98726606Y-81285140D01*
X98946323Y-81226267D01*
X98946325Y-81226266D01*
X99152477Y-81130137D01*
X99152490Y-81130129D01*
X99316317Y-81015416D01*
X99388793Y-80989036D01*
X99464750Y-81002429D01*
X99507139Y-81032110D01*
X99527235Y-81052206D01*
X99630009Y-81097585D01*
X99655135Y-81100500D01*
X101344864Y-81100499D01*
X101344866Y-81100499D01*
X101357427Y-81099042D01*
X101369991Y-81097585D01*
X101472765Y-81052206D01*
X101552206Y-80972765D01*
X101597585Y-80869991D01*
X101600500Y-80844865D01*
X101600499Y-79155136D01*
X101597585Y-79130009D01*
X101552206Y-79027235D01*
X101472765Y-78947794D01*
X101472764Y-78947793D01*
X101369994Y-78902416D01*
X101369991Y-78902415D01*
X101369982Y-78902414D01*
X101344865Y-78899500D01*
X101344859Y-78899500D01*
X101199500Y-78899500D01*
X101125000Y-78879538D01*
X101070462Y-78825000D01*
X101050500Y-78750500D01*
X101050500Y-77174346D01*
X101070462Y-77099846D01*
X101109466Y-77055624D01*
X101121500Y-77046500D01*
X101210862Y-76928658D01*
X101265117Y-76791077D01*
X101275500Y-76704618D01*
X101275500Y-76020382D01*
X101265117Y-75933923D01*
X101210862Y-75796342D01*
X101135255Y-75696639D01*
X101121501Y-75678501D01*
X101121498Y-75678498D01*
X101042673Y-75618724D01*
X100995373Y-75557803D01*
X100984870Y-75481393D01*
X101013980Y-75409969D01*
X101042673Y-75381276D01*
X101046761Y-75378176D01*
X101121500Y-75321500D01*
X101210862Y-75203658D01*
X101265117Y-75066077D01*
X101275500Y-74979618D01*
X101275500Y-74295382D01*
X101265117Y-74208923D01*
X101248298Y-74166272D01*
X101239537Y-74089643D01*
X101270265Y-74018901D01*
X101332248Y-73973000D01*
X101404161Y-73964778D01*
X101404256Y-73963855D01*
X101408470Y-73964285D01*
X101408877Y-73964239D01*
X101409987Y-73964440D01*
X101513347Y-73974999D01*
X101612499Y-73974998D01*
X101612500Y-73974998D01*
X101612500Y-73250000D01*
X102112500Y-73250000D01*
X102112500Y-73974999D01*
X102211642Y-73974999D01*
X102312651Y-73964680D01*
X102312654Y-73964679D01*
X102476295Y-73910456D01*
X102476302Y-73910453D01*
X102623038Y-73819944D01*
X102744944Y-73698038D01*
X102835453Y-73551302D01*
X102835456Y-73551295D01*
X102889681Y-73387649D01*
X102889682Y-73387648D01*
X102899999Y-73286657D01*
X102900000Y-73286647D01*
X102900000Y-73250000D01*
X102112500Y-73250000D01*
X101612500Y-73250000D01*
X101612500Y-72131000D01*
X101632462Y-72056500D01*
X101687000Y-72001962D01*
X101761500Y-71982000D01*
X101825000Y-71982000D01*
X101825000Y-71520000D01*
X102325000Y-71520000D01*
X102325000Y-72114000D01*
X102305038Y-72188500D01*
X102250500Y-72243038D01*
X102176000Y-72263000D01*
X102112500Y-72263000D01*
X102112500Y-72750000D01*
X102899999Y-72750000D01*
X102899999Y-72713358D01*
X102889680Y-72612348D01*
X102889679Y-72612345D01*
X102835456Y-72448704D01*
X102835451Y-72448693D01*
X102782079Y-72362164D01*
X102759958Y-72288277D01*
X102777745Y-72213227D01*
X102830674Y-72157127D01*
X102851876Y-72146284D01*
X102948681Y-72106186D01*
X102967717Y-72093467D01*
X103040751Y-72068673D01*
X103116397Y-72083718D01*
X103174387Y-72134571D01*
X103199181Y-72207605D01*
X103199500Y-72217354D01*
X103199500Y-99996094D01*
X103199296Y-100003892D01*
X103182381Y-100326638D01*
X103180751Y-100342149D01*
X103130803Y-100657504D01*
X103127560Y-100672759D01*
X103044927Y-100981152D01*
X103040108Y-100995985D01*
X102925686Y-101294066D01*
X102919342Y-101308314D01*
X102774391Y-101592794D01*
X102766593Y-101606300D01*
X102592705Y-101874066D01*
X102583538Y-101886684D01*
X102382604Y-102134816D01*
X102372168Y-102146406D01*
X102146406Y-102372168D01*
X102134816Y-102382604D01*
X101886684Y-102583538D01*
X101874066Y-102592705D01*
X101606300Y-102766593D01*
X101592794Y-102774391D01*
X101308314Y-102919342D01*
X101294066Y-102925686D01*
X100995985Y-103040108D01*
X100981152Y-103044927D01*
X100672759Y-103127560D01*
X100657504Y-103130803D01*
X100342149Y-103180751D01*
X100326638Y-103182381D01*
X100003893Y-103199296D01*
X99996095Y-103199500D01*
X50003905Y-103199500D01*
X49996107Y-103199296D01*
X49673361Y-103182381D01*
X49657850Y-103180751D01*
X49342495Y-103130803D01*
X49327240Y-103127560D01*
X49018847Y-103044927D01*
X49004014Y-103040108D01*
X48705933Y-102925686D01*
X48691685Y-102919342D01*
X48407205Y-102774391D01*
X48393699Y-102766593D01*
X48125933Y-102592705D01*
X48113315Y-102583538D01*
X47865183Y-102382604D01*
X47853593Y-102372168D01*
X47627831Y-102146406D01*
X47617395Y-102134816D01*
X47416457Y-101886679D01*
X47407294Y-101874066D01*
X47391990Y-101850500D01*
X47314950Y-101731868D01*
X47233406Y-101606300D01*
X47225608Y-101592794D01*
X47080657Y-101308314D01*
X47074313Y-101294066D01*
X46973059Y-101030289D01*
X46959888Y-100995977D01*
X46955074Y-100981161D01*
X46872439Y-100672759D01*
X46869196Y-100657504D01*
X46822359Y-100361789D01*
X46819247Y-100342146D01*
X46817618Y-100326638D01*
X46806857Y-100121293D01*
X48149500Y-100121293D01*
X48181160Y-100361781D01*
X48181161Y-100361787D01*
X48181162Y-100361789D01*
X48243946Y-100596100D01*
X48336776Y-100820212D01*
X48458064Y-101030289D01*
X48605735Y-101222738D01*
X48777262Y-101394265D01*
X48969711Y-101541936D01*
X49179788Y-101663224D01*
X49403900Y-101756054D01*
X49638211Y-101818838D01*
X49638217Y-101818838D01*
X49638218Y-101818839D01*
X49703600Y-101827446D01*
X49878712Y-101850500D01*
X50121288Y-101850500D01*
X50361789Y-101818838D01*
X50596100Y-101756054D01*
X50820212Y-101663224D01*
X51030289Y-101541936D01*
X51222738Y-101394265D01*
X51394265Y-101222738D01*
X51541936Y-101030289D01*
X51663224Y-100820212D01*
X51756054Y-100596100D01*
X51818838Y-100361789D01*
X51850500Y-100121288D01*
X51850500Y-99878712D01*
X51818838Y-99638211D01*
X51756054Y-99403900D01*
X51663224Y-99179788D01*
X51541936Y-98969711D01*
X51394265Y-98777262D01*
X51222738Y-98605735D01*
X51030289Y-98458064D01*
X50959831Y-98417385D01*
X50820216Y-98336778D01*
X50820214Y-98336777D01*
X50820212Y-98336776D01*
X50688932Y-98282398D01*
X50596103Y-98243947D01*
X50596101Y-98243946D01*
X50596100Y-98243946D01*
X50361789Y-98181162D01*
X50361787Y-98181161D01*
X50361781Y-98181160D01*
X50121293Y-98149500D01*
X50121288Y-98149500D01*
X49878712Y-98149500D01*
X49878706Y-98149500D01*
X49638218Y-98181160D01*
X49403896Y-98243947D01*
X49179783Y-98336778D01*
X48969712Y-98458063D01*
X48948150Y-98474608D01*
X48777262Y-98605735D01*
X48777260Y-98605736D01*
X48777256Y-98605740D01*
X48605740Y-98777256D01*
X48605736Y-98777260D01*
X48605735Y-98777262D01*
X48600948Y-98783501D01*
X48458063Y-98969712D01*
X48336778Y-99179783D01*
X48243947Y-99403896D01*
X48181160Y-99638218D01*
X48149500Y-99878706D01*
X48149500Y-100121293D01*
X46806857Y-100121293D01*
X46800704Y-100003892D01*
X46800500Y-99996094D01*
X46800500Y-55675000D01*
X49025000Y-55675000D01*
X49750000Y-55675000D01*
X49750000Y-54937500D01*
X50250000Y-54937500D01*
X50250000Y-55675000D01*
X50974999Y-55675000D01*
X50974999Y-55625858D01*
X50964680Y-55524848D01*
X50964679Y-55524845D01*
X50910456Y-55361204D01*
X50910453Y-55361197D01*
X50819944Y-55214461D01*
X50698038Y-55092555D01*
X50551302Y-55002046D01*
X50551295Y-55002043D01*
X50387649Y-54947818D01*
X50387648Y-54947817D01*
X50286657Y-54937500D01*
X50250000Y-54937500D01*
X49750000Y-54937500D01*
X49750000Y-54937499D01*
X49749999Y-54937499D01*
X49713358Y-54937500D01*
X49612348Y-54947819D01*
X49612345Y-54947820D01*
X49448704Y-55002043D01*
X49448697Y-55002046D01*
X49301961Y-55092555D01*
X49180055Y-55214461D01*
X49089546Y-55361197D01*
X49089543Y-55361204D01*
X49035318Y-55524850D01*
X49035317Y-55524851D01*
X49025000Y-55625842D01*
X49025000Y-55675000D01*
X46800500Y-55675000D01*
X46800500Y-50121293D01*
X48149500Y-50121293D01*
X48181160Y-50361781D01*
X48181161Y-50361787D01*
X48181162Y-50361789D01*
X48243946Y-50596100D01*
X48322958Y-50786853D01*
X48336778Y-50820216D01*
X48417634Y-50960263D01*
X48458064Y-51030289D01*
X48605735Y-51222738D01*
X48777262Y-51394265D01*
X48969711Y-51541936D01*
X49179788Y-51663224D01*
X49403900Y-51756054D01*
X49638211Y-51818838D01*
X49638217Y-51818838D01*
X49638218Y-51818839D01*
X49703600Y-51827446D01*
X49878712Y-51850500D01*
X50121288Y-51850500D01*
X50361789Y-51818838D01*
X50596100Y-51756054D01*
X50820212Y-51663224D01*
X51030289Y-51541936D01*
X51222738Y-51394265D01*
X51394265Y-51222738D01*
X51532102Y-51043105D01*
X73699500Y-51043105D01*
X73710122Y-51131563D01*
X73765638Y-51272341D01*
X73802129Y-51320462D01*
X73857078Y-51392922D01*
X73977658Y-51484361D01*
X74118436Y-51539877D01*
X74206898Y-51550500D01*
X74206899Y-51550500D01*
X74793101Y-51550500D01*
X74793102Y-51550500D01*
X74881564Y-51539877D01*
X75022342Y-51484361D01*
X75142922Y-51392922D01*
X75168290Y-51359469D01*
X75229210Y-51312169D01*
X75287014Y-51300500D01*
X75533001Y-51300500D01*
X75607501Y-51320462D01*
X75662039Y-51375000D01*
X75682001Y-51449500D01*
X75682001Y-52144866D01*
X75684914Y-52169989D01*
X75684915Y-52169992D01*
X75730293Y-52272764D01*
X75730294Y-52272765D01*
X75809735Y-52352206D01*
X75912509Y-52397585D01*
X75937635Y-52400500D01*
X78027364Y-52400499D01*
X78027366Y-52400499D01*
X78039927Y-52399042D01*
X78052491Y-52397585D01*
X78155265Y-52352206D01*
X78234706Y-52272765D01*
X78280085Y-52169991D01*
X78283000Y-52144865D01*
X78283000Y-51100001D01*
X88177359Y-51100001D01*
X88197886Y-51347733D01*
X88258912Y-51588721D01*
X88358763Y-51816358D01*
X88358767Y-51816365D01*
X88459063Y-51969881D01*
X89191371Y-51237573D01*
X89207255Y-51296853D01*
X89274398Y-51413147D01*
X89369353Y-51508102D01*
X89485647Y-51575245D01*
X89544924Y-51591128D01*
X88812442Y-52323609D01*
X88812442Y-52323610D01*
X88859266Y-52360054D01*
X89077893Y-52478368D01*
X89313006Y-52559082D01*
X89558208Y-52599999D01*
X89558208Y-52600000D01*
X89806792Y-52600000D01*
X89806791Y-52599999D01*
X90051993Y-52559082D01*
X90287106Y-52478368D01*
X90505733Y-52360054D01*
X90552556Y-52323609D01*
X89820075Y-51591128D01*
X89879353Y-51575245D01*
X89995647Y-51508102D01*
X90090602Y-51413147D01*
X90157745Y-51296853D01*
X90173628Y-51237575D01*
X90905935Y-51969882D01*
X90905935Y-51969881D01*
X91006228Y-51816374D01*
X91006236Y-51816358D01*
X91106087Y-51588721D01*
X91167113Y-51347733D01*
X91187641Y-51100001D01*
X91187641Y-51099998D01*
X91167113Y-50852266D01*
X91106087Y-50611278D01*
X91006236Y-50383641D01*
X91006232Y-50383634D01*
X90905934Y-50230117D01*
X90173627Y-50962423D01*
X90157745Y-50903147D01*
X90090602Y-50786853D01*
X89995647Y-50691898D01*
X89879353Y-50624755D01*
X89820073Y-50608871D01*
X90307652Y-50121293D01*
X98149500Y-50121293D01*
X98181160Y-50361781D01*
X98181161Y-50361787D01*
X98181162Y-50361789D01*
X98243946Y-50596100D01*
X98322958Y-50786853D01*
X98336778Y-50820216D01*
X98417634Y-50960263D01*
X98458064Y-51030289D01*
X98605735Y-51222738D01*
X98777262Y-51394265D01*
X98969711Y-51541936D01*
X99179788Y-51663224D01*
X99403900Y-51756054D01*
X99638211Y-51818838D01*
X99638217Y-51818838D01*
X99638218Y-51818839D01*
X99703600Y-51827446D01*
X99878712Y-51850500D01*
X100121288Y-51850500D01*
X100361789Y-51818838D01*
X100596100Y-51756054D01*
X100820212Y-51663224D01*
X101030289Y-51541936D01*
X101222738Y-51394265D01*
X101394265Y-51222738D01*
X101541936Y-51030289D01*
X101663224Y-50820212D01*
X101756054Y-50596100D01*
X101818838Y-50361789D01*
X101850500Y-50121288D01*
X101850500Y-49878712D01*
X101822439Y-49665561D01*
X101818839Y-49638218D01*
X101818838Y-49638217D01*
X101818838Y-49638211D01*
X101756054Y-49403900D01*
X101663224Y-49179788D01*
X101541936Y-48969711D01*
X101394265Y-48777262D01*
X101222738Y-48605735D01*
X101030289Y-48458064D01*
X100918806Y-48393699D01*
X100820216Y-48336778D01*
X100820214Y-48336777D01*
X100820212Y-48336776D01*
X100688932Y-48282398D01*
X100596103Y-48243947D01*
X100596101Y-48243946D01*
X100596100Y-48243946D01*
X100361789Y-48181162D01*
X100361787Y-48181161D01*
X100361781Y-48181160D01*
X100121293Y-48149500D01*
X100121288Y-48149500D01*
X99878712Y-48149500D01*
X99878706Y-48149500D01*
X99638218Y-48181160D01*
X99403896Y-48243947D01*
X99179783Y-48336778D01*
X98969712Y-48458063D01*
X98969711Y-48458064D01*
X98777262Y-48605735D01*
X98777260Y-48605736D01*
X98777256Y-48605740D01*
X98605740Y-48777256D01*
X98458063Y-48969712D01*
X98336778Y-49179783D01*
X98243947Y-49403896D01*
X98181160Y-49638218D01*
X98149500Y-49878706D01*
X98149500Y-50121293D01*
X90307652Y-50121293D01*
X90552556Y-49876389D01*
X90552556Y-49876388D01*
X90505735Y-49839946D01*
X90505731Y-49839944D01*
X90287106Y-49721631D01*
X90051993Y-49640917D01*
X89806791Y-49600000D01*
X89558208Y-49600000D01*
X89313006Y-49640917D01*
X89077893Y-49721631D01*
X88859263Y-49839947D01*
X88812442Y-49876388D01*
X88812442Y-49876389D01*
X89544924Y-50608871D01*
X89485647Y-50624755D01*
X89369353Y-50691898D01*
X89274398Y-50786853D01*
X89207255Y-50903147D01*
X89191371Y-50962424D01*
X88459063Y-50230116D01*
X88358766Y-50383632D01*
X88258912Y-50611278D01*
X88197886Y-50852266D01*
X88177359Y-51099998D01*
X88177359Y-51100001D01*
X78283000Y-51100001D01*
X78282999Y-50055136D01*
X78280085Y-50030009D01*
X78234706Y-49927235D01*
X78155265Y-49847794D01*
X78155264Y-49847793D01*
X78052494Y-49802416D01*
X78052491Y-49802415D01*
X78052482Y-49802414D01*
X78027365Y-49799500D01*
X78027359Y-49799500D01*
X75937633Y-49799500D01*
X75912510Y-49802414D01*
X75912507Y-49802415D01*
X75809735Y-49847793D01*
X75730293Y-49927235D01*
X75684916Y-50030005D01*
X75684915Y-50030008D01*
X75681998Y-50055149D01*
X75681770Y-50059107D01*
X75657538Y-50132330D01*
X75599941Y-50183626D01*
X75533019Y-50199500D01*
X75287014Y-50199500D01*
X75212514Y-50179538D01*
X75168290Y-50140531D01*
X75142922Y-50107078D01*
X75142921Y-50107077D01*
X75142920Y-50107076D01*
X75079663Y-50059107D01*
X75022342Y-50015639D01*
X75022341Y-50015638D01*
X74881563Y-49960122D01*
X74793105Y-49949500D01*
X74793102Y-49949500D01*
X74206898Y-49949500D01*
X74206894Y-49949500D01*
X74118436Y-49960122D01*
X73977658Y-50015638D01*
X73977658Y-50015639D01*
X73857079Y-50107076D01*
X73857076Y-50107079D01*
X73765639Y-50227658D01*
X73765638Y-50227658D01*
X73710122Y-50368436D01*
X73699500Y-50456894D01*
X73699500Y-51043105D01*
X51532102Y-51043105D01*
X51541936Y-51030289D01*
X51663224Y-50820212D01*
X51756054Y-50596100D01*
X51818838Y-50361789D01*
X51850500Y-50121288D01*
X51850500Y-49878712D01*
X51822439Y-49665561D01*
X51818839Y-49638218D01*
X51818838Y-49638217D01*
X51818838Y-49638211D01*
X51756054Y-49403900D01*
X51663224Y-49179788D01*
X51541936Y-48969711D01*
X51394265Y-48777262D01*
X51222738Y-48605735D01*
X51030289Y-48458064D01*
X50918806Y-48393699D01*
X50820216Y-48336778D01*
X50820214Y-48336777D01*
X50820212Y-48336776D01*
X50688932Y-48282398D01*
X50596103Y-48243947D01*
X50596101Y-48243946D01*
X50596100Y-48243946D01*
X50361789Y-48181162D01*
X50361787Y-48181161D01*
X50361781Y-48181160D01*
X50121293Y-48149500D01*
X50121288Y-48149500D01*
X49878712Y-48149500D01*
X49878706Y-48149500D01*
X49638218Y-48181160D01*
X49403896Y-48243947D01*
X49179783Y-48336778D01*
X48969712Y-48458063D01*
X48969711Y-48458064D01*
X48777262Y-48605735D01*
X48777260Y-48605736D01*
X48777256Y-48605740D01*
X48605740Y-48777256D01*
X48458063Y-48969712D01*
X48336778Y-49179783D01*
X48243947Y-49403896D01*
X48181160Y-49638218D01*
X48149500Y-49878706D01*
X48149500Y-50121293D01*
X46800500Y-50121293D01*
X46800500Y-50003905D01*
X46800704Y-49996107D01*
X46810855Y-49802414D01*
X46817618Y-49673356D01*
X46819248Y-49657850D01*
X46822358Y-49638218D01*
X46869196Y-49342492D01*
X46872439Y-49327240D01*
X46955076Y-49018833D01*
X46959886Y-49004027D01*
X47074318Y-48705920D01*
X47080651Y-48691697D01*
X47225610Y-48407201D01*
X47233406Y-48393699D01*
X47270372Y-48336776D01*
X47407304Y-48125918D01*
X47416450Y-48113328D01*
X47617403Y-47865173D01*
X47627821Y-47853603D01*
X47853603Y-47627821D01*
X47865173Y-47617403D01*
X48113328Y-47416450D01*
X48125918Y-47407304D01*
X48393702Y-47233403D01*
X48407205Y-47225608D01*
X48691697Y-47080651D01*
X48705920Y-47074318D01*
X49004027Y-46959886D01*
X49018833Y-46955076D01*
X49327243Y-46872438D01*
X49342492Y-46869196D01*
X49657855Y-46819247D01*
X49673356Y-46817618D01*
X49996107Y-46800703D01*
X50003905Y-46800500D01*
X50047595Y-46800500D01*
X99952405Y-46800500D01*
X99996095Y-46800500D01*
X100003892Y-46800703D01*
G37*
%TD.AperFunction*%
%TA.AperFunction,Conductor*%
G36*
X64114075Y-95652993D02*
G01*
X64179901Y-95767007D01*
X64272993Y-95860099D01*
X64387007Y-95925925D01*
X64450590Y-95942962D01*
X63818625Y-96574926D01*
X63902419Y-96633598D01*
X63902420Y-96633599D01*
X64051161Y-96702958D01*
X64110245Y-96752535D01*
X64136624Y-96825012D01*
X64123231Y-96900968D01*
X64073654Y-96960052D01*
X64066630Y-96964680D01*
X63883698Y-97077947D01*
X63883697Y-97077948D01*
X63726127Y-97221593D01*
X63597636Y-97391740D01*
X63502594Y-97582612D01*
X63502593Y-97582614D01*
X63453312Y-97755820D01*
X63413724Y-97822013D01*
X63346343Y-97859544D01*
X63269224Y-97858356D01*
X63203031Y-97818768D01*
X63166688Y-97755820D01*
X63117406Y-97582614D01*
X63117405Y-97582612D01*
X63069599Y-97486603D01*
X63022366Y-97391745D01*
X63022364Y-97391743D01*
X63022363Y-97391740D01*
X62893872Y-97221593D01*
X62736302Y-97077948D01*
X62736301Y-97077947D01*
X62555022Y-96965703D01*
X62555016Y-96965700D01*
X62356204Y-96888681D01*
X62356200Y-96888680D01*
X62356198Y-96888679D01*
X62290846Y-96876462D01*
X62221284Y-96843151D01*
X62177696Y-96779521D01*
X62171763Y-96702621D01*
X62205075Y-96633058D01*
X62268705Y-96589470D01*
X62290843Y-96583537D01*
X62356198Y-96571321D01*
X62555019Y-96494298D01*
X62736302Y-96382052D01*
X62893872Y-96238407D01*
X63022366Y-96068255D01*
X63066206Y-95980210D01*
X63117282Y-95922420D01*
X63190411Y-95897909D01*
X63265999Y-95913246D01*
X63323791Y-95964323D01*
X63334625Y-95983656D01*
X63406397Y-96137573D01*
X63406399Y-96137578D01*
X63465073Y-96221372D01*
X64097037Y-95589408D01*
X64114075Y-95652993D01*
G37*
%TD.AperFunction*%
%TA.AperFunction,Conductor*%
G36*
X61896725Y-70165536D02*
G01*
X61919781Y-70184384D01*
X64711366Y-72975969D01*
X64749930Y-73042764D01*
X64749930Y-73119892D01*
X64711366Y-73186687D01*
X64666611Y-73217446D01*
X64572409Y-73259387D01*
X64427771Y-73364472D01*
X64427769Y-73364474D01*
X64308143Y-73497330D01*
X64218751Y-73652163D01*
X64218748Y-73652170D01*
X64163502Y-73822199D01*
X64144815Y-74000000D01*
X64163502Y-74177800D01*
X64208945Y-74317660D01*
X64218750Y-74347835D01*
X64239340Y-74383498D01*
X64308143Y-74502669D01*
X64403043Y-74608064D01*
X64427770Y-74635526D01*
X64505573Y-74692054D01*
X64535072Y-74713486D01*
X64576530Y-74759529D01*
X64639508Y-74868610D01*
X64639509Y-74868611D01*
X64639511Y-74868614D01*
X66961539Y-77190642D01*
X67000102Y-77257435D01*
X67000102Y-77334563D01*
X66961538Y-77401358D01*
X65624070Y-78738827D01*
X61639511Y-82723386D01*
X61639509Y-82723388D01*
X61632606Y-82730292D01*
X61630858Y-82728544D01*
X61581070Y-82766736D01*
X61504600Y-82776790D01*
X61433348Y-82747262D01*
X61423698Y-82739185D01*
X61378541Y-82698019D01*
X61378536Y-82698015D01*
X61205143Y-82590655D01*
X61205132Y-82590649D01*
X61014962Y-82516978D01*
X61014958Y-82516977D01*
X61014956Y-82516976D01*
X60974860Y-82509480D01*
X60814480Y-82479500D01*
X60814476Y-82479500D01*
X60610524Y-82479500D01*
X60610519Y-82479500D01*
X60410044Y-82516976D01*
X60410037Y-82516978D01*
X60219867Y-82590649D01*
X60219856Y-82590655D01*
X60046463Y-82698015D01*
X60046458Y-82698019D01*
X59946804Y-82788866D01*
X59905947Y-82826113D01*
X59895734Y-82835423D01*
X59772825Y-82998180D01*
X59748559Y-83046915D01*
X59697482Y-83104707D01*
X59624352Y-83129217D01*
X59615180Y-83129500D01*
X51828321Y-83129500D01*
X51753821Y-83109538D01*
X51722962Y-83085859D01*
X49986141Y-81349038D01*
X49947577Y-81282243D01*
X49942500Y-81243679D01*
X49942500Y-80939321D01*
X49962462Y-80864821D01*
X50017000Y-80810283D01*
X50091500Y-80790321D01*
X50166000Y-80810283D01*
X50196858Y-80833961D01*
X51563385Y-82200489D01*
X51666112Y-82259798D01*
X51690316Y-82266282D01*
X51690323Y-82266286D01*
X51690324Y-82266285D01*
X51714538Y-82272773D01*
X51780690Y-82290499D01*
X51780693Y-82290499D01*
X59971807Y-82290499D01*
X59971810Y-82290499D01*
X60062174Y-82266285D01*
X60086388Y-82259798D01*
X60189115Y-82200488D01*
X60252403Y-82137200D01*
X60319194Y-82098637D01*
X60396322Y-82098636D01*
X60407804Y-82102386D01*
X60410034Y-82103020D01*
X60410044Y-82103024D01*
X60610524Y-82140500D01*
X60610527Y-82140500D01*
X60814473Y-82140500D01*
X60814476Y-82140500D01*
X61014956Y-82103024D01*
X61205137Y-82029348D01*
X61378541Y-81921981D01*
X61529264Y-81784579D01*
X61652173Y-81621821D01*
X61743082Y-81439250D01*
X61798897Y-81243083D01*
X61814099Y-81079024D01*
X61817715Y-81040004D01*
X61817715Y-81039995D01*
X61806160Y-80915299D01*
X61798897Y-80836917D01*
X61743082Y-80640750D01*
X61652173Y-80458179D01*
X61529264Y-80295421D01*
X61378541Y-80158019D01*
X61378536Y-80158015D01*
X61205143Y-80050655D01*
X61205132Y-80050649D01*
X61014962Y-79976978D01*
X61014958Y-79976977D01*
X61014956Y-79976976D01*
X60974860Y-79969480D01*
X60814480Y-79939500D01*
X60814476Y-79939500D01*
X60610524Y-79939500D01*
X60610519Y-79939500D01*
X60410044Y-79976976D01*
X60410037Y-79976978D01*
X60219867Y-80050649D01*
X60219856Y-80050655D01*
X60046463Y-80158015D01*
X60046458Y-80158019D01*
X59895734Y-80295423D01*
X59772828Y-80458176D01*
X59681916Y-80640754D01*
X59626102Y-80836921D01*
X59607285Y-81039995D01*
X59607285Y-81040004D01*
X59624589Y-81226751D01*
X59611586Y-81302776D01*
X59562313Y-81362113D01*
X59489973Y-81388863D01*
X59476225Y-81389499D01*
X53279765Y-81389499D01*
X53205265Y-81369537D01*
X53150727Y-81314999D01*
X53130765Y-81240499D01*
X53150727Y-81165999D01*
X53189733Y-81121776D01*
X53289000Y-81046500D01*
X53378362Y-80928658D01*
X53386769Y-80907337D01*
X53432668Y-80845357D01*
X53503411Y-80814628D01*
X53525380Y-80813000D01*
X55979713Y-80813000D01*
X56049951Y-80830593D01*
X56096046Y-80855232D01*
X56294063Y-80915299D01*
X56294066Y-80915300D01*
X56500000Y-80935583D01*
X56705934Y-80915300D01*
X56903954Y-80855232D01*
X57086450Y-80757685D01*
X57246410Y-80626410D01*
X57377685Y-80466450D01*
X57475232Y-80283954D01*
X57535300Y-80085934D01*
X57555583Y-79880000D01*
X57535300Y-79674066D01*
X57516475Y-79612011D01*
X57513952Y-79534927D01*
X57550310Y-79466905D01*
X57553667Y-79463435D01*
X58022963Y-78994141D01*
X58089758Y-78955577D01*
X58128322Y-78950500D01*
X59615180Y-78950500D01*
X59689680Y-78970462D01*
X59744218Y-79025000D01*
X59748559Y-79033085D01*
X59772825Y-79081819D01*
X59828191Y-79155135D01*
X59895736Y-79244579D01*
X60040952Y-79376961D01*
X60046458Y-79381980D01*
X60046463Y-79381984D01*
X60219856Y-79489344D01*
X60219867Y-79489350D01*
X60318771Y-79527665D01*
X60410044Y-79563024D01*
X60610524Y-79600500D01*
X60610527Y-79600500D01*
X60814473Y-79600500D01*
X60814476Y-79600500D01*
X61014956Y-79563024D01*
X61205137Y-79489348D01*
X61378541Y-79381981D01*
X61529264Y-79244579D01*
X61652173Y-79081821D01*
X61743082Y-78899250D01*
X61798897Y-78703083D01*
X61809351Y-78590259D01*
X61817715Y-78500004D01*
X61817715Y-78499995D01*
X61798897Y-78296921D01*
X61798897Y-78296917D01*
X61743082Y-78100750D01*
X61652173Y-77918179D01*
X61636990Y-77898074D01*
X61604678Y-77855286D01*
X61529264Y-77755421D01*
X61378541Y-77618019D01*
X61378536Y-77618015D01*
X61205143Y-77510655D01*
X61205132Y-77510649D01*
X61014962Y-77436978D01*
X61014958Y-77436977D01*
X61014956Y-77436976D01*
X60974860Y-77429480D01*
X60814480Y-77399500D01*
X60814476Y-77399500D01*
X60610524Y-77399500D01*
X60610519Y-77399500D01*
X60410044Y-77436976D01*
X60410037Y-77436978D01*
X60219867Y-77510649D01*
X60219856Y-77510655D01*
X60046463Y-77618015D01*
X60046458Y-77618019D01*
X59895734Y-77755423D01*
X59772825Y-77918180D01*
X59748559Y-77966915D01*
X59697482Y-78024707D01*
X59624352Y-78049217D01*
X59615180Y-78049500D01*
X57820687Y-78049500D01*
X57730326Y-78073712D01*
X57730326Y-78073713D01*
X57718219Y-78076957D01*
X57706112Y-78080201D01*
X57603385Y-78139510D01*
X56916597Y-78826297D01*
X56849802Y-78864861D01*
X56772674Y-78864861D01*
X56767988Y-78863523D01*
X56729254Y-78851774D01*
X56705934Y-78844700D01*
X56705937Y-78844700D01*
X56500000Y-78824417D01*
X56294062Y-78844700D01*
X56096044Y-78904768D01*
X55913557Y-79002310D01*
X55913547Y-79002317D01*
X55753590Y-79133589D01*
X55753589Y-79133590D01*
X55622317Y-79293547D01*
X55622310Y-79293557D01*
X55524768Y-79476044D01*
X55464700Y-79674063D01*
X55461788Y-79703627D01*
X55454501Y-79777606D01*
X55427334Y-79849789D01*
X55367713Y-79898719D01*
X55306220Y-79912000D01*
X53525380Y-79912000D01*
X53450880Y-79892038D01*
X53396342Y-79837500D01*
X53386772Y-79817669D01*
X53378362Y-79796342D01*
X53330599Y-79733356D01*
X53301490Y-79661936D01*
X53311993Y-79585526D01*
X53359293Y-79524604D01*
X53361935Y-79522793D01*
X53365535Y-79519947D01*
X53487444Y-79398038D01*
X53577953Y-79251302D01*
X53577956Y-79251295D01*
X53632181Y-79087649D01*
X53632182Y-79087648D01*
X53642499Y-78986657D01*
X53642500Y-78986647D01*
X53642500Y-78887500D01*
X51692501Y-78887500D01*
X51692501Y-78986641D01*
X51702819Y-79087651D01*
X51702820Y-79087654D01*
X51757043Y-79251295D01*
X51757046Y-79251302D01*
X51847555Y-79398038D01*
X51969464Y-79519947D01*
X51976267Y-79525326D01*
X51974417Y-79527665D01*
X52016819Y-79572602D01*
X52034612Y-79647649D01*
X52012498Y-79721539D01*
X52004400Y-79733358D01*
X51956637Y-79796343D01*
X51940903Y-79836242D01*
X51902787Y-79932900D01*
X51902383Y-79933924D01*
X51902382Y-79933926D01*
X51892000Y-80020381D01*
X51892000Y-80704618D01*
X51902382Y-80791073D01*
X51902383Y-80791078D01*
X51948098Y-80907004D01*
X51956858Y-80983633D01*
X51926129Y-81054375D01*
X51864146Y-81100276D01*
X51787517Y-81109036D01*
X51716775Y-81078307D01*
X51704127Y-81067023D01*
X50540141Y-79903037D01*
X50501577Y-79836242D01*
X50496500Y-79797678D01*
X50496500Y-78387500D01*
X51692500Y-78387500D01*
X52417500Y-78387500D01*
X52417500Y-77042500D01*
X52917500Y-77042500D01*
X52917500Y-78387500D01*
X53642499Y-78387500D01*
X53642499Y-78288358D01*
X53632180Y-78187348D01*
X53632179Y-78187345D01*
X53577956Y-78023704D01*
X53577953Y-78023697D01*
X53487444Y-77876961D01*
X53430842Y-77820360D01*
X53392277Y-77753565D01*
X53392277Y-77676437D01*
X53430840Y-77609642D01*
X53487444Y-77553038D01*
X53577953Y-77406302D01*
X53577956Y-77406295D01*
X53632181Y-77242649D01*
X53632182Y-77242648D01*
X53642499Y-77141657D01*
X53642500Y-77141647D01*
X53642500Y-77042500D01*
X52917500Y-77042500D01*
X52417500Y-77042500D01*
X51692501Y-77042500D01*
X51692501Y-77141641D01*
X51702819Y-77242651D01*
X51702820Y-77242654D01*
X51757043Y-77406295D01*
X51757046Y-77406302D01*
X51847555Y-77553038D01*
X51904158Y-77609641D01*
X51942722Y-77676436D01*
X51942722Y-77753564D01*
X51904158Y-77820359D01*
X51847555Y-77876961D01*
X51757046Y-78023697D01*
X51757043Y-78023704D01*
X51702818Y-78187350D01*
X51702817Y-78187351D01*
X51692500Y-78288342D01*
X51692500Y-78387500D01*
X50496500Y-78387500D01*
X50496500Y-75702321D01*
X50516462Y-75627821D01*
X50540141Y-75596962D01*
X51089445Y-75047658D01*
X51658552Y-74478550D01*
X51725345Y-74439988D01*
X51802473Y-74439988D01*
X51869268Y-74478552D01*
X51907832Y-74545347D01*
X51907832Y-74622475D01*
X51902526Y-74638559D01*
X51902384Y-74638916D01*
X51902382Y-74638926D01*
X51892000Y-74725381D01*
X51892000Y-75409618D01*
X51902382Y-75496073D01*
X51902382Y-75496074D01*
X51902383Y-75496077D01*
X51936598Y-75582839D01*
X51956637Y-75633656D01*
X51956637Y-75633657D01*
X51967280Y-75647692D01*
X51999451Y-75690116D01*
X52004399Y-75696640D01*
X52033509Y-75768064D01*
X52023006Y-75844473D01*
X51976266Y-75904673D01*
X51976267Y-75904674D01*
X51976263Y-75904676D01*
X51975706Y-75905395D01*
X51973068Y-75907202D01*
X51969464Y-75910052D01*
X51847555Y-76031961D01*
X51757046Y-76178697D01*
X51757043Y-76178704D01*
X51702818Y-76342350D01*
X51702817Y-76342351D01*
X51692500Y-76443342D01*
X51692500Y-76542500D01*
X53642499Y-76542500D01*
X53642499Y-76443358D01*
X53632180Y-76342348D01*
X53632179Y-76342345D01*
X53577956Y-76178704D01*
X53577953Y-76178697D01*
X53487444Y-76031961D01*
X53365535Y-75910052D01*
X53358733Y-75904674D01*
X53360580Y-75902337D01*
X53318169Y-75857377D01*
X53300387Y-75782327D01*
X53322513Y-75708441D01*
X53330589Y-75696655D01*
X53378362Y-75633658D01*
X53386769Y-75612337D01*
X53432668Y-75550357D01*
X53503411Y-75519628D01*
X53525380Y-75518000D01*
X55496936Y-75518000D01*
X55571436Y-75537962D01*
X55617402Y-75581013D01*
X55617672Y-75580792D01*
X55619352Y-75582839D01*
X55620822Y-75584216D01*
X55622312Y-75586446D01*
X55622314Y-75586449D01*
X55622315Y-75586450D01*
X55662866Y-75635862D01*
X55738892Y-75728501D01*
X55753590Y-75746410D01*
X55913550Y-75877685D01*
X55913555Y-75877687D01*
X55913557Y-75877689D01*
X56084207Y-75968904D01*
X56096046Y-75975232D01*
X56294063Y-76035299D01*
X56294066Y-76035300D01*
X56500000Y-76055583D01*
X56705934Y-76035300D01*
X56903954Y-75975232D01*
X57086450Y-75877685D01*
X57086455Y-75877680D01*
X57089433Y-75876089D01*
X57164546Y-75858574D01*
X57238354Y-75880962D01*
X57265032Y-75902135D01*
X57683386Y-76320489D01*
X57683388Y-76320490D01*
X57683389Y-76320491D01*
X57786115Y-76379800D01*
X57800424Y-76383633D01*
X57810317Y-76386283D01*
X57810324Y-76386287D01*
X57810325Y-76386286D01*
X57834539Y-76392774D01*
X57900691Y-76410500D01*
X59615180Y-76410500D01*
X59689680Y-76430462D01*
X59744218Y-76485000D01*
X59748559Y-76493085D01*
X59772825Y-76541819D01*
X59796188Y-76572756D01*
X59895736Y-76704579D01*
X60039884Y-76835987D01*
X60046458Y-76841980D01*
X60046463Y-76841984D01*
X60219856Y-76949344D01*
X60219867Y-76949350D01*
X60335832Y-76994274D01*
X60410044Y-77023024D01*
X60610524Y-77060500D01*
X60610527Y-77060500D01*
X60814473Y-77060500D01*
X60814476Y-77060500D01*
X61014956Y-77023024D01*
X61205137Y-76949348D01*
X61378541Y-76841981D01*
X61529264Y-76704579D01*
X61652173Y-76541821D01*
X61743082Y-76359250D01*
X61798897Y-76163083D01*
X61815498Y-75983924D01*
X61817715Y-75960004D01*
X61817715Y-75959995D01*
X61802550Y-75796342D01*
X61798897Y-75756917D01*
X61743082Y-75560750D01*
X61652173Y-75378179D01*
X61529264Y-75215421D01*
X61378541Y-75078019D01*
X61378536Y-75078015D01*
X61205143Y-74970655D01*
X61205131Y-74970649D01*
X61116600Y-74936352D01*
X61054342Y-74890825D01*
X61023188Y-74820269D01*
X61031487Y-74743589D01*
X61077014Y-74681331D01*
X61131864Y-74653490D01*
X61158826Y-74646266D01*
X61364977Y-74550137D01*
X61364982Y-74550134D01*
X61551317Y-74419660D01*
X61712160Y-74258817D01*
X61842634Y-74072482D01*
X61842637Y-74072477D01*
X61938766Y-73866325D01*
X61938767Y-73866323D01*
X61991372Y-73670000D01*
X61028186Y-73670000D01*
X61032580Y-73665606D01*
X61085241Y-73574394D01*
X61112500Y-73472661D01*
X61112500Y-73367339D01*
X61085241Y-73265606D01*
X61032580Y-73174394D01*
X61028186Y-73170000D01*
X61991372Y-73170000D01*
X61991372Y-73169999D01*
X61938767Y-72973676D01*
X61938766Y-72973674D01*
X61842637Y-72767522D01*
X61842634Y-72767517D01*
X61712160Y-72581182D01*
X61551317Y-72420339D01*
X61364982Y-72289865D01*
X61364977Y-72289862D01*
X61158825Y-72193733D01*
X61131860Y-72186508D01*
X61065065Y-72147943D01*
X61026502Y-72081148D01*
X61026502Y-72004020D01*
X61065067Y-71937225D01*
X61116598Y-71903647D01*
X61205137Y-71869348D01*
X61378541Y-71761981D01*
X61529264Y-71624579D01*
X61652173Y-71461821D01*
X61743082Y-71279250D01*
X61798897Y-71083083D01*
X61812114Y-70940444D01*
X61817715Y-70880004D01*
X61817715Y-70879995D01*
X61805328Y-70746322D01*
X61798897Y-70676917D01*
X61743082Y-70480750D01*
X61733283Y-70461071D01*
X61681043Y-70356158D01*
X61665705Y-70280570D01*
X61690215Y-70207440D01*
X61748007Y-70156364D01*
X61823595Y-70141026D01*
X61896725Y-70165536D01*
G37*
%TD.AperFunction*%
%TA.AperFunction,Conductor*%
G36*
X83784757Y-73070462D02*
G01*
X83815616Y-73094141D01*
X86712373Y-75990897D01*
X86745624Y-76041592D01*
X86765637Y-76092339D01*
X86765639Y-76092342D01*
X86846899Y-76199500D01*
X86857078Y-76212922D01*
X86890530Y-76238290D01*
X86937831Y-76299210D01*
X86949500Y-76357014D01*
X86949500Y-76572756D01*
X86929538Y-76647256D01*
X86905859Y-76678115D01*
X83726437Y-79857536D01*
X83659642Y-79896100D01*
X83582514Y-79896100D01*
X83515719Y-79857536D01*
X83477155Y-79790741D01*
X83472849Y-79767317D01*
X83464680Y-79687349D01*
X83464679Y-79687345D01*
X83410456Y-79523704D01*
X83410453Y-79523697D01*
X83319944Y-79376961D01*
X83198038Y-79255055D01*
X83051302Y-79164546D01*
X83051295Y-79164543D01*
X82887649Y-79110318D01*
X82887648Y-79110317D01*
X82786657Y-79100000D01*
X82750000Y-79100000D01*
X82750000Y-80238500D01*
X82730038Y-80313000D01*
X82675500Y-80367538D01*
X82601000Y-80387500D01*
X82399000Y-80387500D01*
X82324500Y-80367538D01*
X82269962Y-80313000D01*
X82250000Y-80238500D01*
X82250000Y-79099999D01*
X82249999Y-79099999D01*
X82213358Y-79100000D01*
X82112348Y-79110319D01*
X82112345Y-79110320D01*
X81948704Y-79164543D01*
X81948697Y-79164546D01*
X81801961Y-79255055D01*
X81680055Y-79376961D01*
X81589546Y-79523697D01*
X81589543Y-79523704D01*
X81535318Y-79687350D01*
X81535317Y-79687351D01*
X81525000Y-79788342D01*
X81525000Y-79810127D01*
X81505038Y-79884627D01*
X81450500Y-79939165D01*
X81376000Y-79959127D01*
X81334431Y-79953211D01*
X81264522Y-79932901D01*
X81264520Y-79932900D01*
X81227660Y-79930000D01*
X80762026Y-79930000D01*
X80762026Y-80831000D01*
X80742064Y-80905500D01*
X80687526Y-80960038D01*
X80613026Y-80980000D01*
X79214730Y-80980000D01*
X79214925Y-80982488D01*
X79260744Y-81140196D01*
X79260744Y-81140197D01*
X79310691Y-81224653D01*
X79331432Y-81298940D01*
X79312251Y-81373645D01*
X79258287Y-81428751D01*
X79184000Y-81449492D01*
X79182440Y-81449500D01*
X76953298Y-81449500D01*
X76878798Y-81429538D01*
X76824260Y-81375000D01*
X76804298Y-81300500D01*
X76811590Y-81254457D01*
X76836497Y-81177803D01*
X76855185Y-81000000D01*
X76836497Y-80822197D01*
X76781250Y-80652165D01*
X76691859Y-80497335D01*
X76691858Y-80497334D01*
X76691856Y-80497330D01*
X76676251Y-80479999D01*
X79214729Y-80479999D01*
X79214730Y-80480000D01*
X80262026Y-80480000D01*
X80262026Y-79930000D01*
X79796391Y-79930000D01*
X79759532Y-79932900D01*
X79601829Y-79978718D01*
X79601828Y-79978718D01*
X79460471Y-80062316D01*
X79460468Y-80062318D01*
X79344344Y-80178442D01*
X79344342Y-80178445D01*
X79260744Y-80319802D01*
X79260744Y-80319803D01*
X79214925Y-80477511D01*
X79214729Y-80479999D01*
X76676251Y-80479999D01*
X76572231Y-80364475D01*
X76544578Y-80344384D01*
X76427593Y-80259388D01*
X76427591Y-80259387D01*
X76427588Y-80259385D01*
X76264275Y-80186674D01*
X76264271Y-80186672D01*
X76264267Y-80186671D01*
X76129451Y-80158015D01*
X76089392Y-80149500D01*
X76089391Y-80149500D01*
X75910609Y-80149500D01*
X75910608Y-80149500D01*
X75870530Y-80158019D01*
X75735733Y-80186671D01*
X75735730Y-80186672D01*
X75735728Y-80186673D01*
X75572408Y-80259387D01*
X75572147Y-80259539D01*
X75571951Y-80259591D01*
X75565275Y-80262564D01*
X75564804Y-80261506D01*
X75497649Y-80279500D01*
X74362541Y-80279500D01*
X74288041Y-80259538D01*
X74274062Y-80250385D01*
X74174909Y-80177207D01*
X74109712Y-80154394D01*
X74046725Y-80132354D01*
X74046723Y-80132353D01*
X74046721Y-80132353D01*
X74016301Y-80129500D01*
X74016292Y-80129500D01*
X72607760Y-80129500D01*
X72607750Y-80129500D01*
X72577330Y-80132353D01*
X72449142Y-80177207D01*
X72339877Y-80257848D01*
X72339874Y-80257851D01*
X72259233Y-80367116D01*
X72214379Y-80495304D01*
X72211526Y-80525724D01*
X72211526Y-80934275D01*
X72214379Y-80964695D01*
X72214379Y-80964697D01*
X72214380Y-80964699D01*
X72227582Y-81002429D01*
X72259233Y-81092883D01*
X72339874Y-81202148D01*
X72339877Y-81202151D01*
X72398091Y-81245115D01*
X72446180Y-81305416D01*
X72457675Y-81381683D01*
X72429497Y-81453479D01*
X72398091Y-81484885D01*
X72349990Y-81520385D01*
X72278193Y-81548563D01*
X72261511Y-81549500D01*
X72080821Y-81549500D01*
X72006321Y-81529538D01*
X71975462Y-81505859D01*
X69426275Y-78956672D01*
X69387711Y-78889877D01*
X69387711Y-78812749D01*
X69388304Y-78810603D01*
X69389894Y-78805015D01*
X69429489Y-78738827D01*
X69496875Y-78701304D01*
X69573993Y-78702501D01*
X69638560Y-78740449D01*
X69861533Y-78963422D01*
X69920843Y-78997664D01*
X69964261Y-79022732D01*
X70078838Y-79053433D01*
X79327350Y-79053433D01*
X79425122Y-79027235D01*
X79441928Y-79022732D01*
X79544655Y-78963422D01*
X80578449Y-77929628D01*
X80645244Y-77891064D01*
X80683808Y-77885987D01*
X81512005Y-77885987D01*
X81512008Y-77885987D01*
X81602372Y-77861773D01*
X81626586Y-77855286D01*
X81729313Y-77795976D01*
X83360489Y-76164800D01*
X83419799Y-76062073D01*
X83426973Y-76035300D01*
X83450500Y-75947495D01*
X83450500Y-74190692D01*
X83419799Y-74076115D01*
X83419799Y-74076114D01*
X83417699Y-74072477D01*
X83360491Y-73973390D01*
X83360490Y-73973389D01*
X83360489Y-73973387D01*
X82691958Y-73304856D01*
X82653396Y-73238064D01*
X82653396Y-73160936D01*
X82691960Y-73094141D01*
X82758755Y-73055577D01*
X82797319Y-73050500D01*
X83710257Y-73050500D01*
X83784757Y-73070462D01*
G37*
%TD.AperFunction*%
%TA.AperFunction,Conductor*%
G36*
X76959757Y-69245462D02*
G01*
X76990616Y-69269141D01*
X79161985Y-71440509D01*
X79161990Y-71440513D01*
X79266368Y-71500775D01*
X79287515Y-71512984D01*
X79427525Y-71550500D01*
X79427526Y-71550500D01*
X79572475Y-71550500D01*
X83546702Y-71550500D01*
X83621202Y-71570462D01*
X83675740Y-71625000D01*
X83695702Y-71699500D01*
X83688410Y-71745540D01*
X83663503Y-71822197D01*
X83663502Y-71822199D01*
X83663501Y-71822205D01*
X83661877Y-71829844D01*
X83659091Y-71829251D01*
X83636495Y-71888095D01*
X83576549Y-71936626D01*
X83515962Y-71949500D01*
X80340025Y-71949500D01*
X80200015Y-71987016D01*
X80200013Y-71987016D01*
X80200013Y-71987017D01*
X80074484Y-72059490D01*
X79228116Y-72905859D01*
X79161321Y-72944423D01*
X79122757Y-72949500D01*
X78795724Y-72949500D01*
X78765304Y-72952353D01*
X78637116Y-72997207D01*
X78605712Y-73020385D01*
X78533915Y-73048563D01*
X78517233Y-73049500D01*
X78349500Y-73049500D01*
X78275000Y-73029538D01*
X78220462Y-72975000D01*
X78200500Y-72900500D01*
X78200500Y-72720383D01*
X78200500Y-72720382D01*
X78190117Y-72633923D01*
X78135862Y-72496342D01*
X78096541Y-72444489D01*
X78046501Y-72378501D01*
X78046498Y-72378498D01*
X77989538Y-72335304D01*
X77928658Y-72289138D01*
X77928656Y-72289137D01*
X77883061Y-72271157D01*
X77791077Y-72234883D01*
X77791074Y-72234882D01*
X77791073Y-72234882D01*
X77704618Y-72224500D01*
X77020382Y-72224500D01*
X77020381Y-72224500D01*
X76933926Y-72234882D01*
X76933924Y-72234882D01*
X76933923Y-72234883D01*
X76903463Y-72246895D01*
X76796343Y-72289137D01*
X76733358Y-72336900D01*
X76661934Y-72366009D01*
X76585525Y-72355506D01*
X76525326Y-72308766D01*
X76525326Y-72308767D01*
X76525324Y-72308765D01*
X76524603Y-72308205D01*
X76522793Y-72305563D01*
X76519947Y-72301964D01*
X76398038Y-72180055D01*
X76251302Y-72089546D01*
X76251295Y-72089543D01*
X76087649Y-72035318D01*
X76087648Y-72035317D01*
X75986657Y-72025000D01*
X75887500Y-72025000D01*
X75887500Y-73974999D01*
X75986642Y-73974999D01*
X76087651Y-73964680D01*
X76087654Y-73964679D01*
X76251295Y-73910456D01*
X76251301Y-73910453D01*
X76354354Y-73846889D01*
X76428242Y-73824768D01*
X76503291Y-73842555D01*
X76559392Y-73895483D01*
X76581513Y-73969371D01*
X76574014Y-74020571D01*
X76535317Y-74137354D01*
X76525000Y-74238342D01*
X76525000Y-74287500D01*
X78161496Y-74287500D01*
X78217654Y-74255077D01*
X78256218Y-74250000D01*
X79463500Y-74250000D01*
X79538000Y-74269962D01*
X79592538Y-74324500D01*
X79612500Y-74399000D01*
X79612500Y-74601000D01*
X79592538Y-74675500D01*
X79538000Y-74730038D01*
X79463500Y-74750000D01*
X78513504Y-74750000D01*
X78457346Y-74782423D01*
X78418782Y-74787500D01*
X76525001Y-74787500D01*
X76525001Y-74836641D01*
X76535319Y-74937651D01*
X76535320Y-74937654D01*
X76589543Y-75101295D01*
X76589546Y-75101302D01*
X76680055Y-75248038D01*
X76801961Y-75369944D01*
X76919841Y-75442654D01*
X76972769Y-75498755D01*
X76990556Y-75573804D01*
X76968435Y-75647692D01*
X76931651Y-75688193D01*
X76878502Y-75728497D01*
X76878498Y-75728501D01*
X76789137Y-75846342D01*
X76789137Y-75846343D01*
X76756278Y-75929669D01*
X76738311Y-75975232D01*
X76734883Y-75983924D01*
X76734882Y-75983926D01*
X76724500Y-76070381D01*
X76724500Y-76654500D01*
X76704538Y-76729000D01*
X76650000Y-76783538D01*
X76575500Y-76803500D01*
X74559928Y-76803500D01*
X74485428Y-76783538D01*
X74454569Y-76759859D01*
X70944710Y-73250000D01*
X74600001Y-73250000D01*
X74600001Y-73286641D01*
X74610319Y-73387651D01*
X74610320Y-73387654D01*
X74664543Y-73551295D01*
X74664546Y-73551302D01*
X74755055Y-73698038D01*
X74876961Y-73819944D01*
X75023697Y-73910453D01*
X75023704Y-73910456D01*
X75187350Y-73964681D01*
X75187351Y-73964682D01*
X75288347Y-73974999D01*
X75387499Y-73974998D01*
X75387500Y-73974998D01*
X75387500Y-73250000D01*
X74600001Y-73250000D01*
X70944710Y-73250000D01*
X70444710Y-72750000D01*
X74600000Y-72750000D01*
X75387500Y-72750000D01*
X75387500Y-72025000D01*
X75387499Y-72024999D01*
X75288358Y-72025000D01*
X75187348Y-72035319D01*
X75187345Y-72035320D01*
X75023704Y-72089543D01*
X75023697Y-72089546D01*
X74876961Y-72180055D01*
X74755055Y-72301961D01*
X74664546Y-72448697D01*
X74664543Y-72448704D01*
X74610318Y-72612350D01*
X74610317Y-72612351D01*
X74600000Y-72713342D01*
X74600000Y-72750000D01*
X70444710Y-72750000D01*
X69454077Y-71759367D01*
X69415513Y-71692572D01*
X69415513Y-71615444D01*
X69437383Y-71568544D01*
X69462631Y-71532486D01*
X69462633Y-71532483D01*
X69544229Y-71357500D01*
X69593806Y-71298416D01*
X69666283Y-71272037D01*
X69742239Y-71285430D01*
X69784628Y-71315111D01*
X69801961Y-71332444D01*
X69948697Y-71422953D01*
X69948704Y-71422956D01*
X70112350Y-71477181D01*
X70112351Y-71477182D01*
X70213347Y-71487499D01*
X70250000Y-71487498D01*
X70250000Y-70750000D01*
X70750000Y-70750000D01*
X70750000Y-71487499D01*
X70786642Y-71487499D01*
X70887651Y-71477180D01*
X70887654Y-71477179D01*
X71051295Y-71422956D01*
X71051302Y-71422953D01*
X71198038Y-71332444D01*
X71319944Y-71210538D01*
X71410453Y-71063802D01*
X71410456Y-71063795D01*
X71464681Y-70900149D01*
X71464682Y-70900148D01*
X71474999Y-70799157D01*
X71475000Y-70799147D01*
X71475000Y-70750000D01*
X70750000Y-70750000D01*
X70250000Y-70750000D01*
X70250000Y-70399000D01*
X70269962Y-70324500D01*
X70324500Y-70269962D01*
X70399000Y-70250000D01*
X71474999Y-70250000D01*
X71474999Y-70200858D01*
X71464680Y-70099848D01*
X71464679Y-70099845D01*
X71410456Y-69936204D01*
X71410453Y-69936197D01*
X71319944Y-69789461D01*
X71198038Y-69667555D01*
X71080158Y-69594845D01*
X71027230Y-69538744D01*
X71009443Y-69463695D01*
X71031564Y-69389807D01*
X71068347Y-69349306D01*
X71121500Y-69309000D01*
X71140103Y-69284467D01*
X71201025Y-69237168D01*
X71258827Y-69225500D01*
X76885257Y-69225500D01*
X76959757Y-69245462D01*
G37*
%TD.AperFunction*%
%TA.AperFunction,Conductor*%
G36*
X58674000Y-61865782D02*
G01*
X58704854Y-61889457D01*
X59396396Y-62581000D01*
X59618723Y-62803327D01*
X59657287Y-62870122D01*
X59657287Y-62947250D01*
X59656676Y-62949461D01*
X59626102Y-63056917D01*
X59626102Y-63056921D01*
X59607285Y-63259995D01*
X59607285Y-63260004D01*
X59626102Y-63463078D01*
X59626102Y-63463080D01*
X59626103Y-63463083D01*
X59640212Y-63512669D01*
X59681916Y-63659245D01*
X59681917Y-63659247D01*
X59681918Y-63659250D01*
X59745959Y-63787862D01*
X59772828Y-63841823D01*
X59842611Y-63934230D01*
X59895736Y-64004579D01*
X60019225Y-64117154D01*
X60046458Y-64141980D01*
X60046463Y-64141984D01*
X60219856Y-64249344D01*
X60219867Y-64249350D01*
X60335832Y-64294274D01*
X60410044Y-64323024D01*
X60610524Y-64360500D01*
X60610527Y-64360500D01*
X60814473Y-64360500D01*
X60814476Y-64360500D01*
X61014956Y-64323024D01*
X61205137Y-64249348D01*
X61378541Y-64141981D01*
X61529264Y-64004579D01*
X61652173Y-63841821D01*
X61743082Y-63659250D01*
X61798897Y-63463083D01*
X61813812Y-63302124D01*
X61817715Y-63260004D01*
X61817715Y-63259995D01*
X61802843Y-63099500D01*
X61798897Y-63056917D01*
X61743082Y-62860750D01*
X61652173Y-62678179D01*
X61652171Y-62678177D01*
X61652170Y-62678174D01*
X61651749Y-62677617D01*
X61651604Y-62677259D01*
X61648547Y-62672322D01*
X61649391Y-62671799D01*
X61622785Y-62606134D01*
X61633443Y-62529746D01*
X61680867Y-62468921D01*
X61752350Y-62439957D01*
X61828738Y-62450615D01*
X61845149Y-62458787D01*
X61874612Y-62475798D01*
X61874613Y-62475798D01*
X61874614Y-62475799D01*
X61989191Y-62506500D01*
X62564248Y-62506500D01*
X62638748Y-62526462D01*
X62693286Y-62581000D01*
X62713248Y-62655500D01*
X62705955Y-62701544D01*
X62663502Y-62832199D01*
X62644815Y-63010000D01*
X62663502Y-63187800D01*
X62663503Y-63187803D01*
X62718750Y-63357835D01*
X62770361Y-63447229D01*
X62808143Y-63512669D01*
X62927768Y-63645524D01*
X62927770Y-63645526D01*
X62988081Y-63689344D01*
X63036618Y-63749283D01*
X63049500Y-63809887D01*
X63049500Y-67140179D01*
X63029538Y-67214679D01*
X62975000Y-67269217D01*
X62900500Y-67289179D01*
X62826000Y-67269217D01*
X62795141Y-67245538D01*
X61806275Y-66256672D01*
X61767711Y-66189877D01*
X61767711Y-66112749D01*
X61768299Y-66110619D01*
X61798897Y-66003083D01*
X61807286Y-65912550D01*
X61817715Y-65800004D01*
X61817715Y-65799995D01*
X61806042Y-65674028D01*
X61798897Y-65596917D01*
X61743082Y-65400750D01*
X61652173Y-65218179D01*
X61529264Y-65055421D01*
X61378541Y-64918019D01*
X61378536Y-64918015D01*
X61205143Y-64810655D01*
X61205132Y-64810649D01*
X61014962Y-64736978D01*
X61014958Y-64736977D01*
X61014956Y-64736976D01*
X60965826Y-64727792D01*
X60814480Y-64699500D01*
X60814476Y-64699500D01*
X60610524Y-64699500D01*
X60610519Y-64699500D01*
X60410044Y-64736976D01*
X60410037Y-64736978D01*
X60219867Y-64810649D01*
X60219856Y-64810655D01*
X60046463Y-64918015D01*
X60046458Y-64918019D01*
X59895734Y-65055423D01*
X59772828Y-65218176D01*
X59681916Y-65400754D01*
X59626102Y-65596921D01*
X59607285Y-65799995D01*
X59607285Y-65800004D01*
X59626102Y-66003078D01*
X59626102Y-66003080D01*
X59626103Y-66003083D01*
X59641581Y-66057481D01*
X59681916Y-66199245D01*
X59681917Y-66199247D01*
X59681918Y-66199250D01*
X59750758Y-66337500D01*
X59772828Y-66381823D01*
X59793818Y-66409618D01*
X59895736Y-66544579D01*
X60046458Y-66681980D01*
X60046463Y-66681984D01*
X60219856Y-66789344D01*
X60219867Y-66789350D01*
X60321053Y-66828549D01*
X60410044Y-66863024D01*
X60610524Y-66900500D01*
X60610527Y-66900500D01*
X60814473Y-66900500D01*
X60814476Y-66900500D01*
X61014956Y-66863024D01*
X61014959Y-66863022D01*
X61014963Y-66863022D01*
X61021587Y-66861138D01*
X61022028Y-66862690D01*
X61090092Y-66855323D01*
X61160649Y-66886475D01*
X61172598Y-66897201D01*
X61402256Y-67126859D01*
X61440820Y-67193654D01*
X61440820Y-67270782D01*
X61402256Y-67337577D01*
X61335461Y-67376141D01*
X61258333Y-67376141D01*
X61218461Y-67358901D01*
X61205137Y-67350652D01*
X61205135Y-67350651D01*
X61205132Y-67350649D01*
X61014962Y-67276978D01*
X61014958Y-67276977D01*
X61014956Y-67276976D01*
X60973449Y-67269217D01*
X60814480Y-67239500D01*
X60814476Y-67239500D01*
X60610524Y-67239500D01*
X60610519Y-67239500D01*
X60410044Y-67276976D01*
X60410037Y-67276978D01*
X60219867Y-67350649D01*
X60219856Y-67350655D01*
X60046463Y-67458015D01*
X60046458Y-67458019D01*
X59895734Y-67595423D01*
X59772828Y-67758176D01*
X59681916Y-67940754D01*
X59653394Y-68041000D01*
X59626880Y-68134188D01*
X59626102Y-68136921D01*
X59607285Y-68339995D01*
X59607285Y-68340004D01*
X59626102Y-68543078D01*
X59626102Y-68543080D01*
X59626103Y-68543083D01*
X59642440Y-68600500D01*
X59681916Y-68739245D01*
X59681917Y-68739247D01*
X59681918Y-68739250D01*
X59746066Y-68868077D01*
X59772828Y-68921823D01*
X59824690Y-68990499D01*
X59895736Y-69084579D01*
X60046458Y-69221980D01*
X60046463Y-69221984D01*
X60219856Y-69329344D01*
X60219867Y-69329350D01*
X60297204Y-69359310D01*
X60410044Y-69403024D01*
X60610524Y-69440500D01*
X60610527Y-69440500D01*
X60814473Y-69440500D01*
X60814476Y-69440500D01*
X61014956Y-69403024D01*
X61014959Y-69403022D01*
X61014963Y-69403022D01*
X61021587Y-69401138D01*
X61022028Y-69402690D01*
X61090092Y-69395323D01*
X61160649Y-69426475D01*
X61172598Y-69437201D01*
X61402256Y-69666859D01*
X61440820Y-69733654D01*
X61440820Y-69810782D01*
X61402256Y-69877577D01*
X61335461Y-69916141D01*
X61258333Y-69916141D01*
X61218461Y-69898901D01*
X61205137Y-69890652D01*
X61205135Y-69890651D01*
X61205132Y-69890649D01*
X61014962Y-69816978D01*
X61014958Y-69816977D01*
X61014956Y-69816976D01*
X60974860Y-69809480D01*
X60814480Y-69779500D01*
X60814476Y-69779500D01*
X60610524Y-69779500D01*
X60610519Y-69779500D01*
X60410044Y-69816976D01*
X60410037Y-69816978D01*
X60219867Y-69890649D01*
X60219856Y-69890655D01*
X60046463Y-69998015D01*
X60046458Y-69998019D01*
X59895734Y-70135423D01*
X59772828Y-70298176D01*
X59681916Y-70480754D01*
X59626102Y-70676921D01*
X59607285Y-70879995D01*
X59607285Y-70880004D01*
X59626102Y-71083078D01*
X59626102Y-71083080D01*
X59626103Y-71083083D01*
X59638202Y-71125606D01*
X59681916Y-71279245D01*
X59681917Y-71279247D01*
X59681918Y-71279250D01*
X59762217Y-71440513D01*
X59772828Y-71461823D01*
X59840400Y-71551302D01*
X59895736Y-71624579D01*
X60043592Y-71759367D01*
X60046458Y-71761980D01*
X60046463Y-71761984D01*
X60219856Y-71869344D01*
X60219858Y-71869345D01*
X60219863Y-71869348D01*
X60308401Y-71903647D01*
X60370657Y-71949173D01*
X60401811Y-72019729D01*
X60393513Y-72096410D01*
X60347986Y-72158668D01*
X60293140Y-72186507D01*
X60266182Y-72193730D01*
X60266174Y-72193733D01*
X60060022Y-72289862D01*
X60060017Y-72289865D01*
X59873682Y-72420339D01*
X59712839Y-72581182D01*
X59582365Y-72767517D01*
X59582362Y-72767522D01*
X59486233Y-72973674D01*
X59486232Y-72973676D01*
X59433627Y-73169999D01*
X59433628Y-73170000D01*
X60396814Y-73170000D01*
X60392420Y-73174394D01*
X60339759Y-73265606D01*
X60312500Y-73367339D01*
X60312500Y-73472661D01*
X60339759Y-73574394D01*
X60392420Y-73665606D01*
X60396814Y-73670000D01*
X59433628Y-73670000D01*
X59486232Y-73866323D01*
X59486233Y-73866325D01*
X59582362Y-74072477D01*
X59582365Y-74072482D01*
X59712839Y-74258817D01*
X59873682Y-74419660D01*
X60060017Y-74550134D01*
X60060022Y-74550137D01*
X60266174Y-74646266D01*
X60266181Y-74646268D01*
X60293136Y-74653491D01*
X60359931Y-74692054D01*
X60398496Y-74758848D01*
X60398497Y-74835976D01*
X60359934Y-74902771D01*
X60308400Y-74936352D01*
X60219864Y-74970651D01*
X60219856Y-74970655D01*
X60046463Y-75078015D01*
X60046458Y-75078019D01*
X59937457Y-75177387D01*
X59908640Y-75203658D01*
X59895734Y-75215423D01*
X59772825Y-75378180D01*
X59748559Y-75426915D01*
X59697482Y-75484707D01*
X59624352Y-75509217D01*
X59615180Y-75509500D01*
X58208321Y-75509500D01*
X58133821Y-75489538D01*
X58102962Y-75465859D01*
X57584374Y-74947271D01*
X57545810Y-74880476D01*
X57541451Y-74856522D01*
X57535300Y-74794066D01*
X57475232Y-74596046D01*
X57425321Y-74502669D01*
X57377689Y-74413557D01*
X57377687Y-74413555D01*
X57377685Y-74413550D01*
X57246410Y-74253590D01*
X57232560Y-74242224D01*
X57154059Y-74177800D01*
X57086450Y-74122315D01*
X57086446Y-74122313D01*
X57086442Y-74122310D01*
X56903955Y-74024768D01*
X56705936Y-73964700D01*
X56705937Y-73964700D01*
X56500000Y-73944417D01*
X56294062Y-73964700D01*
X56096044Y-74024768D01*
X55913557Y-74122310D01*
X55913547Y-74122317D01*
X55753590Y-74253589D01*
X55753589Y-74253590D01*
X55622317Y-74413547D01*
X55622308Y-74413561D01*
X55555667Y-74538238D01*
X55502943Y-74594531D01*
X55429136Y-74616920D01*
X55424261Y-74617000D01*
X53525380Y-74617000D01*
X53450880Y-74597038D01*
X53396342Y-74542500D01*
X53386772Y-74522669D01*
X53378362Y-74501342D01*
X53298107Y-74395509D01*
X53289001Y-74383501D01*
X53288998Y-74383498D01*
X53211196Y-74324500D01*
X53171158Y-74294138D01*
X53171156Y-74294137D01*
X53142085Y-74282673D01*
X53033577Y-74239883D01*
X53033574Y-74239882D01*
X53033573Y-74239882D01*
X52947118Y-74229500D01*
X52387882Y-74229500D01*
X52387881Y-74229500D01*
X52301426Y-74239882D01*
X52301416Y-74239884D01*
X52301059Y-74240026D01*
X52300693Y-74240067D01*
X52292163Y-74242224D01*
X52291872Y-74241075D01*
X52224430Y-74248779D01*
X52153690Y-74218044D01*
X52107794Y-74156057D01*
X52099041Y-74079428D01*
X52129776Y-74008688D01*
X52141041Y-73996061D01*
X58360490Y-67776614D01*
X58419799Y-67673887D01*
X58419801Y-67673880D01*
X58433032Y-67624502D01*
X58433032Y-67624499D01*
X58435212Y-67616364D01*
X58450500Y-67559309D01*
X58450500Y-61994820D01*
X58470462Y-61920320D01*
X58525000Y-61865782D01*
X58599500Y-61845820D01*
X58674000Y-61865782D01*
G37*
%TD.AperFunction*%
%TA.AperFunction,Conductor*%
G36*
X93642160Y-68201580D02*
G01*
X93704143Y-68247481D01*
X93726112Y-68285532D01*
X93776635Y-68413653D01*
X93776637Y-68413657D01*
X93865998Y-68531498D01*
X93866001Y-68531501D01*
X93881284Y-68543090D01*
X93983842Y-68620862D01*
X94121423Y-68675117D01*
X94207882Y-68685500D01*
X94207883Y-68685500D01*
X94712679Y-68685500D01*
X94787179Y-68705462D01*
X94841717Y-68760000D01*
X94861679Y-68834500D01*
X94841717Y-68909000D01*
X94818038Y-68939859D01*
X94782038Y-68975859D01*
X94715243Y-69014423D01*
X94676679Y-69019500D01*
X94307881Y-69019500D01*
X94221426Y-69029882D01*
X94221424Y-69029882D01*
X94221423Y-69029883D01*
X94179285Y-69046500D01*
X94083843Y-69084137D01*
X94083842Y-69084137D01*
X93966001Y-69173498D01*
X93965998Y-69173501D01*
X93876637Y-69291342D01*
X93876637Y-69291343D01*
X93854143Y-69348386D01*
X93823349Y-69426475D01*
X93822383Y-69428924D01*
X93822382Y-69428926D01*
X93812000Y-69515381D01*
X93812000Y-70099618D01*
X93822382Y-70186073D01*
X93822382Y-70186074D01*
X93822383Y-70186077D01*
X93863025Y-70289138D01*
X93876637Y-70323656D01*
X93876637Y-70323657D01*
X93965998Y-70441498D01*
X93966001Y-70441501D01*
X94019150Y-70481805D01*
X94066450Y-70542726D01*
X94076953Y-70619136D01*
X94047843Y-70690560D01*
X94007342Y-70727345D01*
X93889459Y-70800057D01*
X93767555Y-70921961D01*
X93677046Y-71068697D01*
X93677043Y-71068704D01*
X93622818Y-71232350D01*
X93622817Y-71232351D01*
X93612500Y-71333342D01*
X93612500Y-71382500D01*
X95562499Y-71382500D01*
X95562499Y-71333358D01*
X95552180Y-71232348D01*
X95552179Y-71232345D01*
X95497956Y-71068704D01*
X95497953Y-71068697D01*
X95407444Y-70921961D01*
X95285538Y-70800055D01*
X95167658Y-70727345D01*
X95114730Y-70671244D01*
X95096943Y-70596195D01*
X95119064Y-70522307D01*
X95155847Y-70481806D01*
X95209000Y-70441500D01*
X95298362Y-70323658D01*
X95352617Y-70186077D01*
X95363000Y-70099618D01*
X95363000Y-69730821D01*
X95382962Y-69656321D01*
X95406641Y-69625462D01*
X95810123Y-69221980D01*
X96223298Y-68808804D01*
X96290091Y-68770242D01*
X96367219Y-68770242D01*
X96434014Y-68808806D01*
X96462515Y-68848724D01*
X96470514Y-68865086D01*
X96485301Y-68940783D01*
X96477293Y-68979737D01*
X96447353Y-69065301D01*
X96447353Y-69065304D01*
X96444500Y-69095724D01*
X96444500Y-69419543D01*
X96424538Y-69494043D01*
X96400859Y-69524902D01*
X96377318Y-69548442D01*
X96377316Y-69548445D01*
X96293718Y-69689802D01*
X96293718Y-69689803D01*
X96247899Y-69847511D01*
X96247703Y-69849999D01*
X96247704Y-69850000D01*
X96648820Y-69850000D01*
X96698030Y-69858360D01*
X96810301Y-69897646D01*
X96840734Y-69900500D01*
X96840741Y-69900500D01*
X97421000Y-69900500D01*
X97495500Y-69920462D01*
X97550038Y-69975000D01*
X97570000Y-70049500D01*
X97570000Y-70201000D01*
X97550038Y-70275500D01*
X97495500Y-70330038D01*
X97421000Y-70350000D01*
X96247704Y-70350000D01*
X96247899Y-70352488D01*
X96293718Y-70510196D01*
X96293718Y-70510197D01*
X96377316Y-70651554D01*
X96377318Y-70651557D01*
X96392299Y-70666538D01*
X96430863Y-70733333D01*
X96430863Y-70810461D01*
X96424599Y-70828915D01*
X96383429Y-70928311D01*
X96383428Y-70928315D01*
X96375136Y-70969999D01*
X96375137Y-70970000D01*
X97178012Y-70970000D01*
X97160795Y-70979940D01*
X97104940Y-71035795D01*
X97065444Y-71104204D01*
X97045000Y-71180504D01*
X97045000Y-71259496D01*
X97065444Y-71335796D01*
X97104940Y-71404205D01*
X97160795Y-71460060D01*
X97178012Y-71470000D01*
X96375137Y-71470000D01*
X96383428Y-71511684D01*
X96383429Y-71511688D01*
X96458810Y-71693677D01*
X96568252Y-71857466D01*
X96707533Y-71996747D01*
X96871322Y-72106189D01*
X97053311Y-72181570D01*
X97063218Y-72183541D01*
X97132394Y-72217651D01*
X97175246Y-72281780D01*
X97180293Y-72358742D01*
X97160972Y-72407900D01*
X97089545Y-72523700D01*
X97089543Y-72523704D01*
X97035318Y-72687350D01*
X97035317Y-72687351D01*
X97025000Y-72788342D01*
X97025000Y-72887500D01*
X97750000Y-72887500D01*
X97750000Y-72263000D01*
X97733895Y-72246895D01*
X97719500Y-72243038D01*
X97664962Y-72188500D01*
X97645000Y-72114000D01*
X97645000Y-71520000D01*
X98145000Y-71520000D01*
X98145000Y-72057000D01*
X98161104Y-72073104D01*
X98175500Y-72076962D01*
X98230038Y-72131500D01*
X98250000Y-72206000D01*
X98250000Y-72887500D01*
X98974999Y-72887500D01*
X98974999Y-72788358D01*
X98964680Y-72687348D01*
X98964679Y-72687345D01*
X98910456Y-72523704D01*
X98910453Y-72523697D01*
X98819944Y-72376961D01*
X98815078Y-72372095D01*
X98776514Y-72305300D01*
X98776514Y-72228172D01*
X98815078Y-72161377D01*
X98863419Y-72129077D01*
X98918678Y-72106188D01*
X99082466Y-71996747D01*
X99221747Y-71857466D01*
X99331190Y-71693675D01*
X99400342Y-71526727D01*
X99447294Y-71465537D01*
X99518551Y-71436021D01*
X99595019Y-71446088D01*
X99656209Y-71493040D01*
X99685725Y-71564297D01*
X99687000Y-71583746D01*
X99687000Y-72142119D01*
X99667038Y-72216619D01*
X99612500Y-72271157D01*
X99592664Y-72280729D01*
X99571345Y-72289136D01*
X99571342Y-72289138D01*
X99453501Y-72378498D01*
X99453498Y-72378501D01*
X99364137Y-72496342D01*
X99364137Y-72496343D01*
X99340826Y-72555456D01*
X99314608Y-72621943D01*
X99309883Y-72633924D01*
X99309882Y-72633926D01*
X99299500Y-72720381D01*
X99299500Y-73279618D01*
X99309882Y-73366073D01*
X99309882Y-73366074D01*
X99309883Y-73366077D01*
X99343595Y-73451564D01*
X99364137Y-73503656D01*
X99364137Y-73503657D01*
X99453498Y-73621498D01*
X99453501Y-73621501D01*
X99481981Y-73643097D01*
X99571342Y-73710862D01*
X99708923Y-73765117D01*
X99734776Y-73768221D01*
X99737351Y-73768531D01*
X99808939Y-73797234D01*
X99856585Y-73857885D01*
X99867522Y-73934234D01*
X99838819Y-74005822D01*
X99838310Y-74006498D01*
X99789137Y-74071343D01*
X99776735Y-74102793D01*
X99734886Y-74208917D01*
X99734883Y-74208924D01*
X99734882Y-74208926D01*
X99724500Y-74295381D01*
X99724500Y-74448757D01*
X99704538Y-74523257D01*
X99650000Y-74577795D01*
X99575500Y-74597757D01*
X99501000Y-74577795D01*
X99470141Y-74554116D01*
X99338015Y-74421990D01*
X99212486Y-74349516D01*
X99179591Y-74340702D01*
X99162793Y-74336201D01*
X99162791Y-74336200D01*
X99162789Y-74336199D01*
X99072477Y-74312000D01*
X99072475Y-74312000D01*
X98796743Y-74312000D01*
X98722243Y-74292038D01*
X98678020Y-74253032D01*
X98663102Y-74233360D01*
X98633992Y-74161937D01*
X98644493Y-74085527D01*
X98691793Y-74024605D01*
X98694431Y-74022797D01*
X98698035Y-74019947D01*
X98819944Y-73898038D01*
X98910453Y-73751302D01*
X98910456Y-73751295D01*
X98964681Y-73587649D01*
X98964682Y-73587648D01*
X98974999Y-73486657D01*
X98975000Y-73486647D01*
X98975000Y-73387500D01*
X97025001Y-73387500D01*
X97025001Y-73486641D01*
X97035319Y-73587651D01*
X97035320Y-73587654D01*
X97089543Y-73751295D01*
X97089546Y-73751302D01*
X97180055Y-73898038D01*
X97301964Y-74019947D01*
X97308767Y-74025326D01*
X97306917Y-74027665D01*
X97349319Y-74072602D01*
X97367112Y-74147649D01*
X97344998Y-74221539D01*
X97336900Y-74233358D01*
X97289138Y-74296341D01*
X97289138Y-74296342D01*
X97280730Y-74317662D01*
X97234832Y-74379643D01*
X97164089Y-74410372D01*
X97142120Y-74412000D01*
X95985821Y-74412000D01*
X95911321Y-74392038D01*
X95880462Y-74368359D01*
X94340159Y-72828056D01*
X94301595Y-72761261D01*
X94301595Y-72684133D01*
X94337500Y-72621943D01*
X94337500Y-71882500D01*
X94837500Y-71882500D01*
X94837500Y-72619999D01*
X94874142Y-72619999D01*
X94975151Y-72609680D01*
X94975154Y-72609679D01*
X95138795Y-72555456D01*
X95138802Y-72555453D01*
X95285538Y-72464944D01*
X95407444Y-72343038D01*
X95497953Y-72196302D01*
X95497956Y-72196295D01*
X95552181Y-72032649D01*
X95552182Y-72032648D01*
X95562499Y-71931657D01*
X95562500Y-71931647D01*
X95562500Y-71882500D01*
X94837500Y-71882500D01*
X94337500Y-71882500D01*
X93612501Y-71882500D01*
X93608911Y-71886090D01*
X93542116Y-71924654D01*
X93464988Y-71924654D01*
X93398193Y-71886090D01*
X93144141Y-71632038D01*
X93105577Y-71565243D01*
X93100500Y-71526679D01*
X93100500Y-69565691D01*
X93100499Y-69565689D01*
X93098013Y-69556410D01*
X93069799Y-69451114D01*
X93063671Y-69440500D01*
X93016796Y-69359310D01*
X93016793Y-69359305D01*
X93010489Y-69348386D01*
X92601962Y-68939859D01*
X92563398Y-68873064D01*
X92563398Y-68795936D01*
X92601962Y-68729141D01*
X92668757Y-68690577D01*
X92707321Y-68685500D01*
X92967117Y-68685500D01*
X92967118Y-68685500D01*
X93053577Y-68675117D01*
X93191158Y-68620862D01*
X93309000Y-68531500D01*
X93398362Y-68413658D01*
X93448888Y-68285530D01*
X93494789Y-68223549D01*
X93565531Y-68192820D01*
X93642160Y-68201580D01*
G37*
%TD.AperFunction*%
%TA.AperFunction,Conductor*%
G36*
X67312170Y-62526462D02*
G01*
X67366708Y-62581000D01*
X67386670Y-62655500D01*
X67371049Y-62721915D01*
X67301918Y-62860747D01*
X67301916Y-62860753D01*
X67260590Y-63006000D01*
X67247376Y-63052445D01*
X67246102Y-63056921D01*
X67227285Y-63259995D01*
X67227285Y-63260004D01*
X67246102Y-63463078D01*
X67246102Y-63463080D01*
X67246103Y-63463083D01*
X67260212Y-63512669D01*
X67301916Y-63659245D01*
X67301917Y-63659247D01*
X67301918Y-63659250D01*
X67365959Y-63787862D01*
X67392828Y-63841823D01*
X67462611Y-63934230D01*
X67515736Y-64004579D01*
X67639225Y-64117154D01*
X67666458Y-64141980D01*
X67666463Y-64141984D01*
X67839856Y-64249344D01*
X67839867Y-64249350D01*
X67955832Y-64294274D01*
X68030044Y-64323024D01*
X68230524Y-64360500D01*
X68230527Y-64360500D01*
X68434473Y-64360500D01*
X68434476Y-64360500D01*
X68634956Y-64323024D01*
X68825137Y-64249348D01*
X68998541Y-64141981D01*
X69149264Y-64004579D01*
X69272173Y-63841821D01*
X69363082Y-63659250D01*
X69418897Y-63463083D01*
X69433812Y-63302124D01*
X69437715Y-63260004D01*
X69437715Y-63259995D01*
X69422843Y-63099500D01*
X69418897Y-63056917D01*
X69365749Y-62870122D01*
X69363083Y-62860753D01*
X69363081Y-62860747D01*
X69293951Y-62721915D01*
X69278613Y-62646327D01*
X69303123Y-62573197D01*
X69360915Y-62522121D01*
X69427330Y-62506500D01*
X77307679Y-62506500D01*
X77382179Y-62526462D01*
X77413037Y-62550140D01*
X77723386Y-62860490D01*
X77826113Y-62919799D01*
X77850317Y-62926283D01*
X77850324Y-62926287D01*
X77850325Y-62926286D01*
X77866194Y-62930538D01*
X77940691Y-62950500D01*
X83579194Y-62950500D01*
X83653694Y-62970462D01*
X83708232Y-63025000D01*
X83728194Y-63099500D01*
X83720901Y-63145543D01*
X83663503Y-63322196D01*
X83663502Y-63322199D01*
X83644815Y-63500000D01*
X83663502Y-63677800D01*
X83699263Y-63787862D01*
X83718750Y-63847835D01*
X83808141Y-64002665D01*
X83808143Y-64002668D01*
X83911228Y-64117154D01*
X83946244Y-64185875D01*
X83949500Y-64216855D01*
X83949500Y-69229144D01*
X83929538Y-69303644D01*
X83911228Y-69328845D01*
X83808143Y-69443330D01*
X83718751Y-69598163D01*
X83718748Y-69598170D01*
X83663502Y-69768199D01*
X83644815Y-69946000D01*
X83663502Y-70123800D01*
X83663503Y-70123803D01*
X83683736Y-70186075D01*
X83705955Y-70254456D01*
X83709992Y-70331479D01*
X83674977Y-70400200D01*
X83610292Y-70442207D01*
X83564248Y-70449500D01*
X79789742Y-70449500D01*
X79715242Y-70429538D01*
X79684383Y-70405859D01*
X78614411Y-69335887D01*
X77513015Y-68234490D01*
X77387485Y-68162016D01*
X77338487Y-68148887D01*
X77338485Y-68148886D01*
X77338483Y-68148885D01*
X77247477Y-68124500D01*
X77247475Y-68124500D01*
X71258827Y-68124500D01*
X71184327Y-68104538D01*
X71140103Y-68065532D01*
X71121498Y-68040998D01*
X71017322Y-67962000D01*
X71003658Y-67951638D01*
X71003656Y-67951637D01*
X70974585Y-67940173D01*
X70866077Y-67897383D01*
X70866074Y-67897382D01*
X70866073Y-67897382D01*
X70779618Y-67887000D01*
X70220382Y-67887000D01*
X70220381Y-67887000D01*
X70133926Y-67897382D01*
X70133924Y-67897382D01*
X70133923Y-67897383D01*
X70119601Y-67903031D01*
X69996343Y-67951637D01*
X69996342Y-67951637D01*
X69878501Y-68040998D01*
X69859897Y-68065532D01*
X69798975Y-68112832D01*
X69741173Y-68124500D01*
X69527883Y-68124500D01*
X69453383Y-68104538D01*
X69398845Y-68050000D01*
X69384571Y-68016275D01*
X69363084Y-67940756D01*
X69363083Y-67940753D01*
X69363082Y-67940750D01*
X69272173Y-67758179D01*
X69149264Y-67595421D01*
X68998541Y-67458019D01*
X68998536Y-67458015D01*
X68825143Y-67350655D01*
X68825132Y-67350649D01*
X68634962Y-67276978D01*
X68634958Y-67276977D01*
X68634956Y-67276976D01*
X68593449Y-67269217D01*
X68434480Y-67239500D01*
X68434476Y-67239500D01*
X68230524Y-67239500D01*
X68230519Y-67239500D01*
X68030044Y-67276976D01*
X68030037Y-67276978D01*
X67839867Y-67350649D01*
X67839856Y-67350655D01*
X67666463Y-67458015D01*
X67666458Y-67458019D01*
X67515734Y-67595423D01*
X67392828Y-67758176D01*
X67301916Y-67940754D01*
X67273394Y-68041000D01*
X67246880Y-68134188D01*
X67246102Y-68136921D01*
X67227285Y-68339995D01*
X67227285Y-68340004D01*
X67246102Y-68543078D01*
X67246102Y-68543080D01*
X67246103Y-68543083D01*
X67262440Y-68600500D01*
X67301916Y-68739245D01*
X67301917Y-68739247D01*
X67301918Y-68739250D01*
X67366066Y-68868077D01*
X67392828Y-68921823D01*
X67444690Y-68990499D01*
X67515736Y-69084579D01*
X67666458Y-69221980D01*
X67666463Y-69221984D01*
X67839856Y-69329344D01*
X67839858Y-69329345D01*
X67839863Y-69329348D01*
X67928401Y-69363647D01*
X67990657Y-69409173D01*
X68021811Y-69479729D01*
X68013513Y-69556410D01*
X67967986Y-69618668D01*
X67913140Y-69646507D01*
X67886182Y-69653730D01*
X67886174Y-69653733D01*
X67680022Y-69749862D01*
X67680017Y-69749865D01*
X67493682Y-69880339D01*
X67332839Y-70041182D01*
X67202365Y-70227517D01*
X67202362Y-70227522D01*
X67106233Y-70433674D01*
X67106232Y-70433676D01*
X67053627Y-70629999D01*
X67053628Y-70630000D01*
X68016814Y-70630000D01*
X68012420Y-70634394D01*
X67959759Y-70725606D01*
X67932500Y-70827339D01*
X67932500Y-70932661D01*
X67959759Y-71034394D01*
X68012420Y-71125606D01*
X68016814Y-71130000D01*
X67053628Y-71130000D01*
X67046607Y-71139150D01*
X67046607Y-71180928D01*
X67008043Y-71247722D01*
X66941248Y-71286286D01*
X66864119Y-71286286D01*
X66797325Y-71247722D01*
X66185613Y-70636010D01*
X66147049Y-70569215D01*
X66147049Y-70492087D01*
X66185613Y-70425292D01*
X66230364Y-70394535D01*
X66308423Y-70359782D01*
X66453060Y-70254696D01*
X66549504Y-70147585D01*
X66572686Y-70121839D01*
X66572687Y-70121837D01*
X66572689Y-70121835D01*
X66662080Y-69967005D01*
X66717327Y-69796973D01*
X66736015Y-69619170D01*
X66717327Y-69441367D01*
X66662080Y-69271335D01*
X66572689Y-69116505D01*
X66572688Y-69116504D01*
X66572686Y-69116500D01*
X66453061Y-68983645D01*
X66447682Y-68979737D01*
X66308423Y-68878558D01*
X66308418Y-68878555D01*
X66145105Y-68805844D01*
X66145101Y-68805842D01*
X66145097Y-68805841D01*
X65993354Y-68773587D01*
X65970222Y-68768670D01*
X65970221Y-68768670D01*
X65791439Y-68768670D01*
X65791435Y-68768670D01*
X65768301Y-68773587D01*
X65691279Y-68769550D01*
X65631965Y-68733202D01*
X63994141Y-67095378D01*
X63955577Y-67028583D01*
X63950500Y-66990019D01*
X63950500Y-65800004D01*
X67227285Y-65800004D01*
X67246102Y-66003078D01*
X67246102Y-66003080D01*
X67246103Y-66003083D01*
X67261581Y-66057481D01*
X67301916Y-66199245D01*
X67301917Y-66199247D01*
X67301918Y-66199250D01*
X67370758Y-66337500D01*
X67392828Y-66381823D01*
X67413818Y-66409618D01*
X67515736Y-66544579D01*
X67666458Y-66681980D01*
X67666463Y-66681984D01*
X67839856Y-66789344D01*
X67839867Y-66789350D01*
X67941053Y-66828549D01*
X68030044Y-66863024D01*
X68230524Y-66900500D01*
X68230527Y-66900500D01*
X68434473Y-66900500D01*
X68434476Y-66900500D01*
X68634956Y-66863024D01*
X68825137Y-66789348D01*
X68998541Y-66681981D01*
X69149264Y-66544579D01*
X69272173Y-66381821D01*
X69363082Y-66199250D01*
X69418897Y-66003083D01*
X69432473Y-65856569D01*
X69437715Y-65800004D01*
X69437715Y-65799995D01*
X69426042Y-65674028D01*
X69418897Y-65596917D01*
X69363082Y-65400750D01*
X69272173Y-65218179D01*
X69149264Y-65055421D01*
X68998541Y-64918019D01*
X68998536Y-64918015D01*
X68825143Y-64810655D01*
X68825132Y-64810649D01*
X68634962Y-64736978D01*
X68634958Y-64736977D01*
X68634956Y-64736976D01*
X68585826Y-64727792D01*
X68434480Y-64699500D01*
X68434476Y-64699500D01*
X68230524Y-64699500D01*
X68230519Y-64699500D01*
X68030044Y-64736976D01*
X68030037Y-64736978D01*
X67839867Y-64810649D01*
X67839856Y-64810655D01*
X67666463Y-64918015D01*
X67666458Y-64918019D01*
X67515734Y-65055423D01*
X67392828Y-65218176D01*
X67301916Y-65400754D01*
X67246102Y-65596921D01*
X67227285Y-65799995D01*
X67227285Y-65800004D01*
X63950500Y-65800004D01*
X63950500Y-63809887D01*
X63970462Y-63735387D01*
X64011917Y-63689345D01*
X64072230Y-63645526D01*
X64165833Y-63541570D01*
X64191856Y-63512669D01*
X64191857Y-63512667D01*
X64191859Y-63512665D01*
X64281250Y-63357835D01*
X64336497Y-63187803D01*
X64355185Y-63010000D01*
X64336497Y-62832197D01*
X64294044Y-62701543D01*
X64290008Y-62624521D01*
X64325023Y-62555800D01*
X64389708Y-62513793D01*
X64435752Y-62506500D01*
X67237670Y-62506500D01*
X67312170Y-62526462D01*
G37*
%TD.AperFunction*%
%TA.AperFunction,Conductor*%
G36*
X88075182Y-64641354D02*
G01*
X88135272Y-64689707D01*
X88151303Y-64717474D01*
X88163440Y-64744961D01*
X88194132Y-64814472D01*
X88202304Y-64832978D01*
X88215000Y-64893163D01*
X88215000Y-65150000D01*
X88258734Y-65150000D01*
X88333234Y-65169962D01*
X88387772Y-65224500D01*
X88407734Y-65299000D01*
X88400441Y-65345042D01*
X88397555Y-65353926D01*
X88351002Y-65497199D01*
X88332315Y-65675000D01*
X88345453Y-65800004D01*
X88351003Y-65852803D01*
X88359664Y-65879459D01*
X88363700Y-65956480D01*
X88328684Y-66025201D01*
X88263999Y-66067208D01*
X88217956Y-66074500D01*
X86948321Y-66074500D01*
X86873821Y-66054538D01*
X86842962Y-66030859D01*
X86604141Y-65792038D01*
X86565577Y-65725243D01*
X86560500Y-65686679D01*
X86560500Y-65099499D01*
X86580462Y-65024999D01*
X86635000Y-64970461D01*
X86709500Y-64950499D01*
X86989867Y-64950499D01*
X87002427Y-64949042D01*
X87014991Y-64947585D01*
X87014995Y-64947582D01*
X87023377Y-64945303D01*
X87100504Y-64945004D01*
X87101620Y-64945302D01*
X87110003Y-64947582D01*
X87110009Y-64947585D01*
X87135135Y-64950500D01*
X87340790Y-64950499D01*
X87415288Y-64970461D01*
X87449290Y-65000639D01*
X87450276Y-64999654D01*
X87457812Y-65007190D01*
X87572905Y-65093349D01*
X87572915Y-65093354D01*
X87707623Y-65143598D01*
X87707621Y-65143598D01*
X87767157Y-65149998D01*
X87767177Y-65150000D01*
X87815000Y-65150000D01*
X87815000Y-64893163D01*
X87827695Y-64832980D01*
X87832204Y-64822766D01*
X87832206Y-64822765D01*
X87877585Y-64719991D01*
X87877585Y-64719986D01*
X87878694Y-64717476D01*
X87927047Y-64657386D01*
X87998967Y-64629524D01*
X88075182Y-64641354D01*
G37*
%TD.AperFunction*%
%TA.AperFunction,Conductor*%
G36*
X73664145Y-55970462D02*
G01*
X73718683Y-56025000D01*
X73734101Y-56062985D01*
X73734880Y-56066070D01*
X73789137Y-56203656D01*
X73789137Y-56203657D01*
X73789138Y-56203658D01*
X73820109Y-56244500D01*
X73836899Y-56266640D01*
X73866009Y-56338064D01*
X73855506Y-56414473D01*
X73808766Y-56474673D01*
X73808767Y-56474674D01*
X73808763Y-56474676D01*
X73808206Y-56475395D01*
X73805568Y-56477202D01*
X73801964Y-56480052D01*
X73680055Y-56601961D01*
X73589546Y-56748697D01*
X73589543Y-56748704D01*
X73535318Y-56912350D01*
X73535317Y-56912351D01*
X73525000Y-57013342D01*
X73525000Y-57112500D01*
X75475247Y-57112500D01*
X75541452Y-57074275D01*
X75618580Y-57074275D01*
X75685376Y-57112838D01*
X75723941Y-57179632D01*
X75728164Y-57202267D01*
X75731402Y-57232378D01*
X75781645Y-57367084D01*
X75781650Y-57367094D01*
X75867809Y-57482187D01*
X75867812Y-57482190D01*
X75982905Y-57568349D01*
X75982915Y-57568354D01*
X76117623Y-57618598D01*
X76117621Y-57618598D01*
X76177157Y-57624998D01*
X76177177Y-57625000D01*
X76822823Y-57625000D01*
X76822842Y-57624998D01*
X76882377Y-57618598D01*
X77017084Y-57568354D01*
X77017094Y-57568349D01*
X77132187Y-57482190D01*
X77132188Y-57482189D01*
X77145275Y-57464708D01*
X77205902Y-57417030D01*
X77264556Y-57405000D01*
X77477178Y-57405000D01*
X77551678Y-57424962D01*
X77606216Y-57479500D01*
X77626178Y-57554000D01*
X77606216Y-57628500D01*
X77582537Y-57659359D01*
X76857038Y-58384859D01*
X76790243Y-58423423D01*
X76751679Y-58428500D01*
X75374201Y-58428500D01*
X75299701Y-58408538D01*
X75245163Y-58354000D01*
X75225201Y-58279500D01*
X75245163Y-58205000D01*
X75268842Y-58174141D01*
X75319944Y-58123038D01*
X75410453Y-57976302D01*
X75410456Y-57976295D01*
X75464681Y-57812649D01*
X75464682Y-57812648D01*
X75474999Y-57711657D01*
X75475000Y-57711647D01*
X75475000Y-57612500D01*
X73525001Y-57612500D01*
X73525001Y-57711641D01*
X73535319Y-57812651D01*
X73535320Y-57812654D01*
X73589543Y-57976295D01*
X73589546Y-57976302D01*
X73680055Y-58123038D01*
X73731158Y-58174141D01*
X73769722Y-58240936D01*
X73769722Y-58318064D01*
X73731158Y-58384859D01*
X73664363Y-58423423D01*
X73625799Y-58428500D01*
X73349500Y-58428500D01*
X73275000Y-58408538D01*
X73220462Y-58354000D01*
X73200500Y-58279500D01*
X73200500Y-57720383D01*
X73200500Y-57720382D01*
X73190117Y-57633923D01*
X73135862Y-57496342D01*
X73125130Y-57482190D01*
X73046501Y-57378501D01*
X73046498Y-57378498D01*
X72945859Y-57302182D01*
X72928658Y-57289138D01*
X72928656Y-57289137D01*
X72867448Y-57265000D01*
X72791077Y-57234883D01*
X72791074Y-57234882D01*
X72791073Y-57234882D01*
X72704618Y-57224500D01*
X72335821Y-57224500D01*
X72261321Y-57204538D01*
X72230462Y-57180859D01*
X71904962Y-56855359D01*
X71866398Y-56788564D01*
X71866398Y-56711436D01*
X71904962Y-56644641D01*
X72230462Y-56319141D01*
X72297257Y-56280577D01*
X72335821Y-56275500D01*
X72704617Y-56275500D01*
X72704618Y-56275500D01*
X72791077Y-56265117D01*
X72928658Y-56210862D01*
X73046500Y-56121500D01*
X73131457Y-56009466D01*
X73192376Y-55962169D01*
X73250179Y-55950500D01*
X73589645Y-55950500D01*
X73664145Y-55970462D01*
G37*
%TD.AperFunction*%
%TD*%
M02*
