%TF.GenerationSoftware,KiCad,Pcbnew,7.0.10*%
%TF.CreationDate,2024-01-09T16:20:13+01:00*%
%TF.ProjectId,mold_detect,6d6f6c64-5f64-4657-9465-63742e6b6963,rev?*%
%TF.SameCoordinates,Original*%
%TF.FileFunction,Copper,L2,Bot*%
%TF.FilePolarity,Positive*%
%FSLAX46Y46*%
G04 Gerber Fmt 4.6, Leading zero omitted, Abs format (unit mm)*
G04 Created by KiCad (PCBNEW 7.0.10) date 2024-01-09 16:20:13*
%MOMM*%
%LPD*%
G01*
G04 APERTURE LIST*
%TA.AperFunction,ComponentPad*%
%ADD10O,1.700000X1.700000*%
%TD*%
%TA.AperFunction,ComponentPad*%
%ADD11R,1.700000X1.700000*%
%TD*%
%TA.AperFunction,ComponentPad*%
%ADD12R,2.000000X2.000000*%
%TD*%
%TA.AperFunction,ComponentPad*%
%ADD13C,2.000000*%
%TD*%
%TA.AperFunction,ComponentPad*%
%ADD14R,1.800000X1.800000*%
%TD*%
%TA.AperFunction,ComponentPad*%
%ADD15C,1.800000*%
%TD*%
%TA.AperFunction,ComponentPad*%
%ADD16O,1.600000X1.600000*%
%TD*%
%TA.AperFunction,ComponentPad*%
%ADD17R,1.600000X1.600000*%
%TD*%
%TA.AperFunction,ViaPad*%
%ADD18C,1.100000*%
%TD*%
%TA.AperFunction,Conductor*%
%ADD19C,0.300000*%
%TD*%
G04 APERTURE END LIST*
D10*
%TO.P,J2,4,Pin_4*%
%TO.N,TXD*%
X106700000Y-81280000D03*
%TO.P,J2,3,Pin_3*%
%TO.N,RXD*%
X106700000Y-83820000D03*
%TO.P,J2,2,Pin_2*%
%TO.N,GND*%
X106700000Y-86360000D03*
D11*
%TO.P,J2,1,Pin_1*%
%TO.N,+3V0*%
X106700000Y-88900000D03*
%TD*%
D12*
%TO.P,BT1,1,+*%
%TO.N,Net-(BT1-+)*%
X98350000Y-89600000D03*
D13*
%TO.P,BT1,2,-*%
%TO.N,GND*%
X85650000Y-89600000D03*
%TD*%
D14*
%TO.P,Red1,1,K*%
%TO.N,Net-(Red1-K)*%
X97200000Y-144975000D03*
D15*
%TO.P,Red1,2,A*%
%TO.N,HUM_LED*%
X97200000Y-142435000D03*
%TD*%
D14*
%TO.P,Blue1,1,K*%
%TO.N,Net-(Blue1-K)*%
X105400000Y-144975000D03*
D15*
%TO.P,Blue1,2,A*%
%TO.N,TEMP_LED*%
X105400000Y-142435000D03*
%TD*%
D16*
%TO.P,U3,28,PC5*%
%TO.N,SCL*%
X113645000Y-93917107D03*
%TO.P,U3,27,PC4*%
%TO.N,SDA*%
X113645000Y-96457107D03*
%TO.P,U3,26,PC3*%
%TO.N,unconnected-(U3-PC3-Pad26)*%
X113645000Y-98997107D03*
%TO.P,U3,25,PC2*%
%TO.N,unconnected-(U3-PC2-Pad25)*%
X113645000Y-101537107D03*
%TO.P,U3,24,PC1*%
%TO.N,unconnected-(U3-PC1-Pad24)*%
X113645000Y-104077107D03*
%TO.P,U3,23,PC0*%
%TO.N,unconnected-(U3-PC0-Pad23)*%
X113645000Y-106617107D03*
%TO.P,U3,22,GND*%
%TO.N,GND*%
X113645000Y-109157107D03*
%TO.P,U3,21,AREF*%
%TO.N,unconnected-(U3-AREF-Pad21)*%
X113645000Y-111697107D03*
%TO.P,U3,20,AVCC*%
%TO.N,unconnected-(U3-AVCC-Pad20)*%
X113645000Y-114237107D03*
%TO.P,U3,19,PB5*%
%TO.N,SCK*%
X113645000Y-116777107D03*
%TO.P,U3,18,PB4*%
%TO.N,MISO*%
X113645000Y-119317107D03*
%TO.P,U3,17,PB3*%
%TO.N,MOSI*%
X113645000Y-121857107D03*
%TO.P,U3,16,PB2*%
%TO.N,unconnected-(U3-PB2-Pad16)*%
X113645000Y-124397107D03*
%TO.P,U3,15,PB1*%
%TO.N,FLASH_CS*%
X113645000Y-126937107D03*
%TO.P,U3,14,PB0*%
%TO.N,unconnected-(U3-PB0-Pad14)*%
X106025000Y-126937107D03*
%TO.P,U3,13,PD7*%
%TO.N,unconnected-(U3-PD7-Pad13)*%
X106025000Y-124397107D03*
%TO.P,U3,12,PD6*%
%TO.N,TEMP_LED*%
X106025000Y-121857107D03*
%TO.P,U3,11,PD5*%
%TO.N,HUM_LED*%
X106025000Y-119317107D03*
%TO.P,U3,10,XTAL2/PB7*%
%TO.N,unconnected-(U3-XTAL2{slash}PB7-Pad10)*%
X106025000Y-116777107D03*
%TO.P,U3,9,XTAL1/PB6*%
%TO.N,unconnected-(U3-XTAL1{slash}PB6-Pad9)*%
X106025000Y-114237107D03*
%TO.P,U3,8,GND*%
%TO.N,GND*%
X106025000Y-111697107D03*
%TO.P,U3,7,VCC*%
%TO.N,+3V0*%
X106025000Y-109157107D03*
%TO.P,U3,6,PD4*%
%TO.N,unconnected-(U3-PD4-Pad6)*%
X106025000Y-106617107D03*
%TO.P,U3,5,PD3*%
%TO.N,DONE*%
X106025000Y-104077107D03*
%TO.P,U3,4,PD2*%
%TO.N,WAKE_INTR*%
X106025000Y-101537107D03*
%TO.P,U3,3,PD1*%
%TO.N,TXD*%
X106025000Y-98997107D03*
%TO.P,U3,2,PD0*%
%TO.N,RXD*%
X106025000Y-96457107D03*
D17*
%TO.P,U3,1,~{RESET}/PC6*%
%TO.N,RST*%
X106025000Y-93917107D03*
%TD*%
D18*
%TO.N,GND*%
X101800000Y-142200000D03*
X108700000Y-87400000D03*
X108835000Y-129400000D03*
X88600000Y-82850000D03*
X90550000Y-145550000D03*
%TD*%
D19*
%TO.N,TXD*%
X106065000Y-98957107D02*
X106025000Y-98997107D01*
%TD*%
%TA.AperFunction,Conductor*%
%TO.N,GND*%
G36*
X112003892Y-79700703D02*
G01*
X112337094Y-79718166D01*
X112352599Y-79719795D01*
X112678296Y-79771381D01*
X112693552Y-79774624D01*
X113012079Y-79859973D01*
X113026880Y-79864782D01*
X113334737Y-79982958D01*
X113348980Y-79989299D01*
X113642794Y-80139005D01*
X113656300Y-80146803D01*
X113785739Y-80230861D01*
X113932849Y-80326396D01*
X113945457Y-80335555D01*
X113973110Y-80357948D01*
X114201729Y-80543081D01*
X114213319Y-80553517D01*
X114446482Y-80786680D01*
X114456918Y-80798270D01*
X114664440Y-81054537D01*
X114673607Y-81067155D01*
X114853196Y-81343699D01*
X114860994Y-81357205D01*
X115010700Y-81651019D01*
X115017043Y-81665267D01*
X115135211Y-81973103D01*
X115140029Y-81987932D01*
X115157301Y-82052390D01*
X115225375Y-82306448D01*
X115228618Y-82321703D01*
X115280203Y-82647397D01*
X115281833Y-82662908D01*
X115299296Y-82996107D01*
X115299500Y-83003905D01*
X115299500Y-143996094D01*
X115299296Y-144003892D01*
X115281833Y-144337091D01*
X115280203Y-144352602D01*
X115228618Y-144678296D01*
X115225375Y-144693551D01*
X115140031Y-145012063D01*
X115135211Y-145026896D01*
X115017043Y-145334732D01*
X115010700Y-145348980D01*
X114860994Y-145642794D01*
X114853196Y-145656300D01*
X114673607Y-145932844D01*
X114664440Y-145945462D01*
X114456918Y-146201729D01*
X114446482Y-146213319D01*
X114213319Y-146446482D01*
X114201729Y-146456918D01*
X113945462Y-146664440D01*
X113932844Y-146673607D01*
X113656300Y-146853196D01*
X113642794Y-146860994D01*
X113348980Y-147010700D01*
X113334732Y-147017043D01*
X113026896Y-147135211D01*
X113012063Y-147140031D01*
X112693551Y-147225375D01*
X112678296Y-147228618D01*
X112352602Y-147280203D01*
X112337091Y-147281833D01*
X112003893Y-147299296D01*
X111996095Y-147299500D01*
X82003905Y-147299500D01*
X81996107Y-147299296D01*
X81662908Y-147281833D01*
X81647397Y-147280203D01*
X81321703Y-147228618D01*
X81306448Y-147225375D01*
X81052390Y-147157301D01*
X80987932Y-147140029D01*
X80973107Y-147135212D01*
X80819185Y-147076127D01*
X80665267Y-147017043D01*
X80651019Y-147010700D01*
X80357205Y-146860994D01*
X80343699Y-146853196D01*
X80067155Y-146673607D01*
X80054537Y-146664440D01*
X79798270Y-146456918D01*
X79786680Y-146446482D01*
X79553517Y-146213319D01*
X79543081Y-146201729D01*
X79335559Y-145945462D01*
X79326392Y-145932844D01*
X79317963Y-145919865D01*
X79162202Y-145680013D01*
X79146803Y-145656300D01*
X79139005Y-145642794D01*
X79006068Y-145381891D01*
X78989297Y-145348976D01*
X78982956Y-145334732D01*
X78964945Y-145287812D01*
X78864782Y-145026880D01*
X78859973Y-145012079D01*
X78774624Y-144693551D01*
X78771381Y-144678296D01*
X78719796Y-144352602D01*
X78718166Y-144337091D01*
X78718161Y-144337005D01*
X78704052Y-144067773D01*
X80145788Y-144067773D01*
X80175412Y-144337005D01*
X80175414Y-144337019D01*
X80243926Y-144599081D01*
X80243928Y-144599088D01*
X80297722Y-144725675D01*
X80349870Y-144848390D01*
X80349875Y-144848399D01*
X80490981Y-145079610D01*
X80490984Y-145079614D01*
X80664247Y-145287812D01*
X80664259Y-145287824D01*
X80865990Y-145468575D01*
X80865999Y-145468583D01*
X80978954Y-145543313D01*
X81091910Y-145618044D01*
X81337176Y-145733020D01*
X81596569Y-145811060D01*
X81864561Y-145850500D01*
X81864568Y-145850500D01*
X82067622Y-145850500D01*
X82067631Y-145850500D01*
X82270156Y-145835677D01*
X82534553Y-145776780D01*
X82787558Y-145680014D01*
X83023777Y-145547441D01*
X83238177Y-145381888D01*
X83426186Y-145186881D01*
X83583799Y-144966579D01*
X83707656Y-144725675D01*
X83795118Y-144469305D01*
X83844319Y-144202933D01*
X83854212Y-143932235D01*
X83824586Y-143662982D01*
X83756072Y-143400912D01*
X83650130Y-143151610D01*
X83577999Y-143033419D01*
X83509018Y-142920389D01*
X83509015Y-142920385D01*
X83335752Y-142712187D01*
X83335740Y-142712175D01*
X83134009Y-142531424D01*
X83134000Y-142531416D01*
X82988272Y-142435004D01*
X95994357Y-142435004D01*
X96014884Y-142656531D01*
X96014884Y-142656534D01*
X96075770Y-142870528D01*
X96174939Y-143069685D01*
X96174941Y-143069688D01*
X96174942Y-143069689D01*
X96309019Y-143247236D01*
X96473438Y-143397124D01*
X96637681Y-143498819D01*
X96690513Y-143555009D01*
X96708171Y-143630088D01*
X96685925Y-143703938D01*
X96629733Y-143756771D01*
X96559242Y-143774500D01*
X96255133Y-143774500D01*
X96230010Y-143777414D01*
X96230007Y-143777415D01*
X96127235Y-143822793D01*
X96047793Y-143902235D01*
X96002416Y-144005005D01*
X96002415Y-144005008D01*
X96002415Y-144005009D01*
X95999500Y-144030135D01*
X95999500Y-144030136D01*
X95999500Y-144030140D01*
X95999500Y-145919866D01*
X96002414Y-145944989D01*
X96002415Y-145944992D01*
X96047793Y-146047764D01*
X96047794Y-146047765D01*
X96127235Y-146127206D01*
X96230009Y-146172585D01*
X96255135Y-146175500D01*
X98144864Y-146175499D01*
X98144866Y-146175499D01*
X98157427Y-146174042D01*
X98169991Y-146172585D01*
X98272765Y-146127206D01*
X98352206Y-146047765D01*
X98397585Y-145944991D01*
X98400500Y-145919865D01*
X98400499Y-144030136D01*
X98397585Y-144005009D01*
X98352206Y-143902235D01*
X98272765Y-143822794D01*
X98272764Y-143822793D01*
X98169994Y-143777416D01*
X98169991Y-143777415D01*
X98169982Y-143777414D01*
X98144865Y-143774500D01*
X98144859Y-143774500D01*
X97840758Y-143774500D01*
X97766258Y-143754538D01*
X97711720Y-143700000D01*
X97691758Y-143625500D01*
X97711720Y-143551000D01*
X97762317Y-143498819D01*
X97926562Y-143397124D01*
X98090981Y-143247236D01*
X98225058Y-143069689D01*
X98324229Y-142870528D01*
X98385115Y-142656536D01*
X98405643Y-142435004D01*
X104194357Y-142435004D01*
X104214884Y-142656531D01*
X104214884Y-142656534D01*
X104275770Y-142870528D01*
X104374939Y-143069685D01*
X104374941Y-143069688D01*
X104374942Y-143069689D01*
X104509019Y-143247236D01*
X104673438Y-143397124D01*
X104837681Y-143498819D01*
X104890513Y-143555009D01*
X104908171Y-143630088D01*
X104885925Y-143703938D01*
X104829733Y-143756771D01*
X104759242Y-143774500D01*
X104455133Y-143774500D01*
X104430010Y-143777414D01*
X104430007Y-143777415D01*
X104327235Y-143822793D01*
X104247793Y-143902235D01*
X104202416Y-144005005D01*
X104202415Y-144005008D01*
X104202415Y-144005009D01*
X104199500Y-144030135D01*
X104199500Y-144030136D01*
X104199500Y-144030140D01*
X104199500Y-145919866D01*
X104202414Y-145944989D01*
X104202415Y-145944992D01*
X104247793Y-146047764D01*
X104247794Y-146047765D01*
X104327235Y-146127206D01*
X104430009Y-146172585D01*
X104455135Y-146175500D01*
X106344864Y-146175499D01*
X106344866Y-146175499D01*
X106357427Y-146174042D01*
X106369991Y-146172585D01*
X106472765Y-146127206D01*
X106552206Y-146047765D01*
X106597585Y-145944991D01*
X106600500Y-145919865D01*
X106600499Y-144067773D01*
X110145788Y-144067773D01*
X110175412Y-144337005D01*
X110175414Y-144337019D01*
X110243926Y-144599081D01*
X110243928Y-144599088D01*
X110297722Y-144725675D01*
X110349870Y-144848390D01*
X110349875Y-144848399D01*
X110490981Y-145079610D01*
X110490984Y-145079614D01*
X110664247Y-145287812D01*
X110664259Y-145287824D01*
X110865990Y-145468575D01*
X110865999Y-145468583D01*
X110978954Y-145543313D01*
X111091910Y-145618044D01*
X111337176Y-145733020D01*
X111596569Y-145811060D01*
X111864561Y-145850500D01*
X111864568Y-145850500D01*
X112067622Y-145850500D01*
X112067631Y-145850500D01*
X112270156Y-145835677D01*
X112534553Y-145776780D01*
X112787558Y-145680014D01*
X113023777Y-145547441D01*
X113238177Y-145381888D01*
X113426186Y-145186881D01*
X113583799Y-144966579D01*
X113707656Y-144725675D01*
X113795118Y-144469305D01*
X113844319Y-144202933D01*
X113854212Y-143932235D01*
X113824586Y-143662982D01*
X113756072Y-143400912D01*
X113650130Y-143151610D01*
X113577999Y-143033419D01*
X113509018Y-142920389D01*
X113509015Y-142920385D01*
X113335752Y-142712187D01*
X113335740Y-142712175D01*
X113134009Y-142531424D01*
X113134000Y-142531416D01*
X112908090Y-142381956D01*
X112662825Y-142266980D01*
X112517369Y-142223219D01*
X112403431Y-142188940D01*
X112403427Y-142188939D01*
X112403426Y-142188939D01*
X112135446Y-142149501D01*
X112135445Y-142149500D01*
X112135439Y-142149500D01*
X111932369Y-142149500D01*
X111729844Y-142164323D01*
X111729836Y-142164324D01*
X111465449Y-142223219D01*
X111465439Y-142223222D01*
X111212440Y-142319986D01*
X111212438Y-142319987D01*
X110976224Y-142452558D01*
X110976217Y-142452562D01*
X110761830Y-142618105D01*
X110761826Y-142618108D01*
X110573810Y-142813123D01*
X110416201Y-143033419D01*
X110292344Y-143274324D01*
X110292344Y-143274325D01*
X110204886Y-143530680D01*
X110204880Y-143530703D01*
X110155681Y-143797060D01*
X110151064Y-143923392D01*
X110147164Y-144030133D01*
X110145788Y-144067773D01*
X106600499Y-144067773D01*
X106600499Y-144030136D01*
X106597585Y-144005009D01*
X106552206Y-143902235D01*
X106472765Y-143822794D01*
X106472764Y-143822793D01*
X106369994Y-143777416D01*
X106369991Y-143777415D01*
X106369982Y-143777414D01*
X106344865Y-143774500D01*
X106344859Y-143774500D01*
X106040758Y-143774500D01*
X105966258Y-143754538D01*
X105911720Y-143700000D01*
X105891758Y-143625500D01*
X105911720Y-143551000D01*
X105962317Y-143498819D01*
X106126562Y-143397124D01*
X106290981Y-143247236D01*
X106425058Y-143069689D01*
X106524229Y-142870528D01*
X106585115Y-142656536D01*
X106605643Y-142435000D01*
X106585115Y-142213464D01*
X106524229Y-141999472D01*
X106524229Y-141999471D01*
X106425060Y-141800314D01*
X106290980Y-141622763D01*
X106126563Y-141472877D01*
X106126562Y-141472876D01*
X105937401Y-141355753D01*
X105937400Y-141355752D01*
X105937396Y-141355750D01*
X105937394Y-141355749D01*
X105729944Y-141275383D01*
X105729941Y-141275382D01*
X105729940Y-141275382D01*
X105674775Y-141265069D01*
X105511247Y-141234500D01*
X105511243Y-141234500D01*
X105288757Y-141234500D01*
X105288752Y-141234500D01*
X105070055Y-141275383D01*
X104862605Y-141355749D01*
X104862603Y-141355750D01*
X104673436Y-141472877D01*
X104509019Y-141622763D01*
X104374939Y-141800314D01*
X104275770Y-141999471D01*
X104214884Y-142213465D01*
X104214884Y-142213468D01*
X104194357Y-142434995D01*
X104194357Y-142435004D01*
X98405643Y-142435004D01*
X98405643Y-142435000D01*
X98385115Y-142213464D01*
X98324229Y-141999472D01*
X98324229Y-141999471D01*
X98225060Y-141800314D01*
X98090980Y-141622763D01*
X97926563Y-141472877D01*
X97926562Y-141472876D01*
X97737401Y-141355753D01*
X97737400Y-141355752D01*
X97737396Y-141355750D01*
X97737394Y-141355749D01*
X97529944Y-141275383D01*
X97529941Y-141275382D01*
X97529940Y-141275382D01*
X97474775Y-141265069D01*
X97311247Y-141234500D01*
X97311243Y-141234500D01*
X97088757Y-141234500D01*
X97088752Y-141234500D01*
X96870055Y-141275383D01*
X96662605Y-141355749D01*
X96662603Y-141355750D01*
X96473436Y-141472877D01*
X96309019Y-141622763D01*
X96174939Y-141800314D01*
X96075770Y-141999471D01*
X96014884Y-142213465D01*
X96014884Y-142213468D01*
X95994357Y-142434995D01*
X95994357Y-142435004D01*
X82988272Y-142435004D01*
X82908090Y-142381956D01*
X82662825Y-142266980D01*
X82517369Y-142223219D01*
X82403431Y-142188940D01*
X82403427Y-142188939D01*
X82403426Y-142188939D01*
X82135446Y-142149501D01*
X82135445Y-142149500D01*
X82135439Y-142149500D01*
X81932369Y-142149500D01*
X81729844Y-142164323D01*
X81729836Y-142164324D01*
X81465449Y-142223219D01*
X81465439Y-142223222D01*
X81212440Y-142319986D01*
X81212438Y-142319987D01*
X80976224Y-142452558D01*
X80976217Y-142452562D01*
X80761830Y-142618105D01*
X80761826Y-142618108D01*
X80573810Y-142813123D01*
X80416201Y-143033419D01*
X80292344Y-143274324D01*
X80292344Y-143274325D01*
X80204886Y-143530680D01*
X80204880Y-143530703D01*
X80155681Y-143797060D01*
X80151064Y-143923392D01*
X80147164Y-144030133D01*
X80145788Y-144067773D01*
X78704052Y-144067773D01*
X78700704Y-144003892D01*
X78700500Y-143996094D01*
X78700500Y-128210006D01*
X87669454Y-128210006D01*
X87689611Y-128491846D01*
X87689613Y-128491863D01*
X87749678Y-128767978D01*
X87749679Y-128767982D01*
X87749680Y-128767984D01*
X87848432Y-129032749D01*
X87848433Y-129032750D01*
X87983856Y-129280761D01*
X88153202Y-129506981D01*
X88353018Y-129706797D01*
X88579238Y-129876143D01*
X88703243Y-129943854D01*
X88827251Y-130011568D01*
X89092016Y-130110320D01*
X89368139Y-130170387D01*
X89579447Y-130185500D01*
X89579451Y-130185500D01*
X89720549Y-130185500D01*
X89720553Y-130185500D01*
X89931861Y-130170387D01*
X90207984Y-130110320D01*
X90472749Y-130011568D01*
X90671335Y-129903130D01*
X90720761Y-129876143D01*
X90720764Y-129876141D01*
X90946982Y-129706797D01*
X91146797Y-129506982D01*
X91316141Y-129280764D01*
X91451568Y-129032749D01*
X91550320Y-128767984D01*
X91610387Y-128491861D01*
X91630546Y-128210000D01*
X91630546Y-128209993D01*
X91610388Y-127928153D01*
X91610387Y-127928139D01*
X91550320Y-127652016D01*
X91451568Y-127387251D01*
X91383854Y-127263243D01*
X91316143Y-127139238D01*
X91164833Y-126937111D01*
X104919785Y-126937111D01*
X104938602Y-127140185D01*
X104994416Y-127336352D01*
X105085328Y-127518930D01*
X105166174Y-127625987D01*
X105208236Y-127681686D01*
X105358958Y-127819087D01*
X105358963Y-127819091D01*
X105532356Y-127926451D01*
X105532367Y-127926457D01*
X105648332Y-127971381D01*
X105722544Y-128000131D01*
X105923024Y-128037607D01*
X105923027Y-128037607D01*
X106126973Y-128037607D01*
X106126976Y-128037607D01*
X106327456Y-128000131D01*
X106517637Y-127926455D01*
X106691041Y-127819088D01*
X106841764Y-127681686D01*
X106964673Y-127518928D01*
X107055582Y-127336357D01*
X107111397Y-127140190D01*
X107130215Y-126937111D01*
X112539785Y-126937111D01*
X112558602Y-127140185D01*
X112614416Y-127336352D01*
X112705328Y-127518930D01*
X112786174Y-127625987D01*
X112828236Y-127681686D01*
X112978958Y-127819087D01*
X112978963Y-127819091D01*
X113152356Y-127926451D01*
X113152367Y-127926457D01*
X113268332Y-127971381D01*
X113342544Y-128000131D01*
X113543024Y-128037607D01*
X113543027Y-128037607D01*
X113746973Y-128037607D01*
X113746976Y-128037607D01*
X113947456Y-128000131D01*
X114137637Y-127926455D01*
X114311041Y-127819088D01*
X114461764Y-127681686D01*
X114584673Y-127518928D01*
X114675582Y-127336357D01*
X114731397Y-127140190D01*
X114750215Y-126937107D01*
X114731397Y-126734024D01*
X114675582Y-126537857D01*
X114584673Y-126355286D01*
X114550231Y-126309678D01*
X114542611Y-126299587D01*
X114461764Y-126192528D01*
X114311041Y-126055126D01*
X114311036Y-126055122D01*
X114137643Y-125947762D01*
X114137632Y-125947756D01*
X113947462Y-125874085D01*
X113947458Y-125874084D01*
X113947456Y-125874083D01*
X113907360Y-125866587D01*
X113746980Y-125836607D01*
X113746976Y-125836607D01*
X113543024Y-125836607D01*
X113543019Y-125836607D01*
X113342544Y-125874083D01*
X113342537Y-125874085D01*
X113152367Y-125947756D01*
X113152356Y-125947762D01*
X112978963Y-126055122D01*
X112978958Y-126055126D01*
X112828234Y-126192530D01*
X112705328Y-126355283D01*
X112614416Y-126537861D01*
X112558602Y-126734028D01*
X112539785Y-126937102D01*
X112539785Y-126937111D01*
X107130215Y-126937111D01*
X107130215Y-126937107D01*
X107111397Y-126734024D01*
X107055582Y-126537857D01*
X106964673Y-126355286D01*
X106930231Y-126309678D01*
X106922611Y-126299587D01*
X106841764Y-126192528D01*
X106691041Y-126055126D01*
X106691036Y-126055122D01*
X106517643Y-125947762D01*
X106517632Y-125947756D01*
X106327462Y-125874085D01*
X106327458Y-125874084D01*
X106327456Y-125874083D01*
X106287360Y-125866587D01*
X106126980Y-125836607D01*
X106126976Y-125836607D01*
X105923024Y-125836607D01*
X105923019Y-125836607D01*
X105722544Y-125874083D01*
X105722537Y-125874085D01*
X105532367Y-125947756D01*
X105532356Y-125947762D01*
X105358963Y-126055122D01*
X105358958Y-126055126D01*
X105208234Y-126192530D01*
X105085328Y-126355283D01*
X104994416Y-126537861D01*
X104938602Y-126734028D01*
X104919785Y-126937102D01*
X104919785Y-126937111D01*
X91164833Y-126937111D01*
X91146797Y-126913018D01*
X90946981Y-126713202D01*
X90720761Y-126543856D01*
X90534752Y-126442288D01*
X90472749Y-126408432D01*
X90207984Y-126309680D01*
X90207982Y-126309679D01*
X90207978Y-126309678D01*
X89931863Y-126249613D01*
X89931846Y-126249611D01*
X89720564Y-126234500D01*
X89720553Y-126234500D01*
X89579447Y-126234500D01*
X89579435Y-126234500D01*
X89368153Y-126249611D01*
X89368136Y-126249613D01*
X89092021Y-126309678D01*
X89092016Y-126309680D01*
X88827251Y-126408432D01*
X88827249Y-126408432D01*
X88827249Y-126408433D01*
X88579238Y-126543856D01*
X88353018Y-126713202D01*
X88353017Y-126713204D01*
X88153204Y-126913017D01*
X88153202Y-126913018D01*
X87983856Y-127139238D01*
X87848433Y-127387249D01*
X87749678Y-127652021D01*
X87689613Y-127928136D01*
X87689611Y-127928153D01*
X87669454Y-128209993D01*
X87669454Y-128210006D01*
X78700500Y-128210006D01*
X78700500Y-124397111D01*
X104919785Y-124397111D01*
X104938602Y-124600185D01*
X104994416Y-124796352D01*
X105085328Y-124978930D01*
X105166174Y-125085987D01*
X105208236Y-125141686D01*
X105358958Y-125279087D01*
X105358963Y-125279091D01*
X105532356Y-125386451D01*
X105532367Y-125386457D01*
X105648332Y-125431381D01*
X105722544Y-125460131D01*
X105923024Y-125497607D01*
X105923027Y-125497607D01*
X106126973Y-125497607D01*
X106126976Y-125497607D01*
X106327456Y-125460131D01*
X106517637Y-125386455D01*
X106691041Y-125279088D01*
X106841764Y-125141686D01*
X106964673Y-124978928D01*
X107055582Y-124796357D01*
X107111397Y-124600190D01*
X107130215Y-124397111D01*
X112539785Y-124397111D01*
X112558602Y-124600185D01*
X112614416Y-124796352D01*
X112705328Y-124978930D01*
X112786174Y-125085987D01*
X112828236Y-125141686D01*
X112978958Y-125279087D01*
X112978963Y-125279091D01*
X113152356Y-125386451D01*
X113152367Y-125386457D01*
X113268332Y-125431381D01*
X113342544Y-125460131D01*
X113543024Y-125497607D01*
X113543027Y-125497607D01*
X113746973Y-125497607D01*
X113746976Y-125497607D01*
X113947456Y-125460131D01*
X114137637Y-125386455D01*
X114311041Y-125279088D01*
X114461764Y-125141686D01*
X114584673Y-124978928D01*
X114675582Y-124796357D01*
X114731397Y-124600190D01*
X114750215Y-124397107D01*
X114731397Y-124194024D01*
X114675582Y-123997857D01*
X114584673Y-123815286D01*
X114461764Y-123652528D01*
X114311041Y-123515126D01*
X114311036Y-123515122D01*
X114137643Y-123407762D01*
X114137632Y-123407756D01*
X113947462Y-123334085D01*
X113947458Y-123334084D01*
X113947456Y-123334083D01*
X113907360Y-123326587D01*
X113746980Y-123296607D01*
X113746976Y-123296607D01*
X113543024Y-123296607D01*
X113543019Y-123296607D01*
X113342544Y-123334083D01*
X113342537Y-123334085D01*
X113152367Y-123407756D01*
X113152356Y-123407762D01*
X112978963Y-123515122D01*
X112978958Y-123515126D01*
X112828234Y-123652530D01*
X112705328Y-123815283D01*
X112614416Y-123997861D01*
X112558602Y-124194028D01*
X112539785Y-124397102D01*
X112539785Y-124397111D01*
X107130215Y-124397111D01*
X107130215Y-124397107D01*
X107111397Y-124194024D01*
X107055582Y-123997857D01*
X106964673Y-123815286D01*
X106841764Y-123652528D01*
X106691041Y-123515126D01*
X106691036Y-123515122D01*
X106517643Y-123407762D01*
X106517632Y-123407756D01*
X106327462Y-123334085D01*
X106327458Y-123334084D01*
X106327456Y-123334083D01*
X106287360Y-123326587D01*
X106126980Y-123296607D01*
X106126976Y-123296607D01*
X105923024Y-123296607D01*
X105923019Y-123296607D01*
X105722544Y-123334083D01*
X105722537Y-123334085D01*
X105532367Y-123407756D01*
X105532356Y-123407762D01*
X105358963Y-123515122D01*
X105358958Y-123515126D01*
X105208234Y-123652530D01*
X105085328Y-123815283D01*
X104994416Y-123997861D01*
X104938602Y-124194028D01*
X104919785Y-124397102D01*
X104919785Y-124397111D01*
X78700500Y-124397111D01*
X78700500Y-121857111D01*
X104919785Y-121857111D01*
X104938602Y-122060185D01*
X104994416Y-122256352D01*
X105085328Y-122438930D01*
X105166174Y-122545987D01*
X105208236Y-122601686D01*
X105358958Y-122739087D01*
X105358963Y-122739091D01*
X105532356Y-122846451D01*
X105532367Y-122846457D01*
X105648332Y-122891381D01*
X105722544Y-122920131D01*
X105923024Y-122957607D01*
X105923027Y-122957607D01*
X106126973Y-122957607D01*
X106126976Y-122957607D01*
X106327456Y-122920131D01*
X106517637Y-122846455D01*
X106691041Y-122739088D01*
X106841764Y-122601686D01*
X106964673Y-122438928D01*
X107055582Y-122256357D01*
X107111397Y-122060190D01*
X107130215Y-121857111D01*
X112539785Y-121857111D01*
X112558602Y-122060185D01*
X112614416Y-122256352D01*
X112705328Y-122438930D01*
X112786174Y-122545987D01*
X112828236Y-122601686D01*
X112978958Y-122739087D01*
X112978963Y-122739091D01*
X113152356Y-122846451D01*
X113152367Y-122846457D01*
X113268332Y-122891381D01*
X113342544Y-122920131D01*
X113543024Y-122957607D01*
X113543027Y-122957607D01*
X113746973Y-122957607D01*
X113746976Y-122957607D01*
X113947456Y-122920131D01*
X114137637Y-122846455D01*
X114311041Y-122739088D01*
X114461764Y-122601686D01*
X114584673Y-122438928D01*
X114675582Y-122256357D01*
X114731397Y-122060190D01*
X114750215Y-121857107D01*
X114731397Y-121654024D01*
X114675582Y-121457857D01*
X114584673Y-121275286D01*
X114461764Y-121112528D01*
X114311041Y-120975126D01*
X114311036Y-120975122D01*
X114137643Y-120867762D01*
X114137632Y-120867756D01*
X113947462Y-120794085D01*
X113947458Y-120794084D01*
X113947456Y-120794083D01*
X113907360Y-120786587D01*
X113746980Y-120756607D01*
X113746976Y-120756607D01*
X113543024Y-120756607D01*
X113543019Y-120756607D01*
X113342544Y-120794083D01*
X113342537Y-120794085D01*
X113152367Y-120867756D01*
X113152356Y-120867762D01*
X112978963Y-120975122D01*
X112978958Y-120975126D01*
X112828234Y-121112530D01*
X112705328Y-121275283D01*
X112614416Y-121457861D01*
X112558602Y-121654028D01*
X112539785Y-121857102D01*
X112539785Y-121857111D01*
X107130215Y-121857111D01*
X107130215Y-121857107D01*
X107111397Y-121654024D01*
X107055582Y-121457857D01*
X106964673Y-121275286D01*
X106841764Y-121112528D01*
X106691041Y-120975126D01*
X106691036Y-120975122D01*
X106517643Y-120867762D01*
X106517632Y-120867756D01*
X106327462Y-120794085D01*
X106327458Y-120794084D01*
X106327456Y-120794083D01*
X106287360Y-120786587D01*
X106126980Y-120756607D01*
X106126976Y-120756607D01*
X105923024Y-120756607D01*
X105923019Y-120756607D01*
X105722544Y-120794083D01*
X105722537Y-120794085D01*
X105532367Y-120867756D01*
X105532356Y-120867762D01*
X105358963Y-120975122D01*
X105358958Y-120975126D01*
X105208234Y-121112530D01*
X105085328Y-121275283D01*
X104994416Y-121457861D01*
X104938602Y-121654028D01*
X104919785Y-121857102D01*
X104919785Y-121857111D01*
X78700500Y-121857111D01*
X78700500Y-119317111D01*
X104919785Y-119317111D01*
X104938602Y-119520185D01*
X104994416Y-119716352D01*
X105085328Y-119898930D01*
X105166174Y-120005987D01*
X105208236Y-120061686D01*
X105358958Y-120199087D01*
X105358963Y-120199091D01*
X105532356Y-120306451D01*
X105532367Y-120306457D01*
X105648332Y-120351381D01*
X105722544Y-120380131D01*
X105923024Y-120417607D01*
X105923027Y-120417607D01*
X106126973Y-120417607D01*
X106126976Y-120417607D01*
X106327456Y-120380131D01*
X106517637Y-120306455D01*
X106691041Y-120199088D01*
X106841764Y-120061686D01*
X106964673Y-119898928D01*
X107055582Y-119716357D01*
X107111397Y-119520190D01*
X107130215Y-119317111D01*
X112539785Y-119317111D01*
X112558602Y-119520185D01*
X112614416Y-119716352D01*
X112705328Y-119898930D01*
X112786174Y-120005987D01*
X112828236Y-120061686D01*
X112978958Y-120199087D01*
X112978963Y-120199091D01*
X113152356Y-120306451D01*
X113152367Y-120306457D01*
X113268332Y-120351381D01*
X113342544Y-120380131D01*
X113543024Y-120417607D01*
X113543027Y-120417607D01*
X113746973Y-120417607D01*
X113746976Y-120417607D01*
X113947456Y-120380131D01*
X114137637Y-120306455D01*
X114311041Y-120199088D01*
X114461764Y-120061686D01*
X114584673Y-119898928D01*
X114675582Y-119716357D01*
X114731397Y-119520190D01*
X114750215Y-119317107D01*
X114731397Y-119114024D01*
X114675582Y-118917857D01*
X114584673Y-118735286D01*
X114461764Y-118572528D01*
X114311041Y-118435126D01*
X114311036Y-118435122D01*
X114137643Y-118327762D01*
X114137632Y-118327756D01*
X113947462Y-118254085D01*
X113947458Y-118254084D01*
X113947456Y-118254083D01*
X113907360Y-118246587D01*
X113746980Y-118216607D01*
X113746976Y-118216607D01*
X113543024Y-118216607D01*
X113543019Y-118216607D01*
X113342544Y-118254083D01*
X113342537Y-118254085D01*
X113152367Y-118327756D01*
X113152356Y-118327762D01*
X112978963Y-118435122D01*
X112978958Y-118435126D01*
X112828234Y-118572530D01*
X112705328Y-118735283D01*
X112614416Y-118917861D01*
X112558602Y-119114028D01*
X112539785Y-119317102D01*
X112539785Y-119317111D01*
X107130215Y-119317111D01*
X107130215Y-119317107D01*
X107111397Y-119114024D01*
X107055582Y-118917857D01*
X106964673Y-118735286D01*
X106841764Y-118572528D01*
X106691041Y-118435126D01*
X106691036Y-118435122D01*
X106517643Y-118327762D01*
X106517632Y-118327756D01*
X106327462Y-118254085D01*
X106327458Y-118254084D01*
X106327456Y-118254083D01*
X106287360Y-118246587D01*
X106126980Y-118216607D01*
X106126976Y-118216607D01*
X105923024Y-118216607D01*
X105923019Y-118216607D01*
X105722544Y-118254083D01*
X105722537Y-118254085D01*
X105532367Y-118327756D01*
X105532356Y-118327762D01*
X105358963Y-118435122D01*
X105358958Y-118435126D01*
X105208234Y-118572530D01*
X105085328Y-118735283D01*
X104994416Y-118917861D01*
X104938602Y-119114028D01*
X104919785Y-119317102D01*
X104919785Y-119317111D01*
X78700500Y-119317111D01*
X78700500Y-116777111D01*
X104919785Y-116777111D01*
X104938602Y-116980185D01*
X104994416Y-117176352D01*
X105085328Y-117358930D01*
X105166174Y-117465987D01*
X105208236Y-117521686D01*
X105358958Y-117659087D01*
X105358963Y-117659091D01*
X105532356Y-117766451D01*
X105532367Y-117766457D01*
X105648332Y-117811381D01*
X105722544Y-117840131D01*
X105923024Y-117877607D01*
X105923027Y-117877607D01*
X106126973Y-117877607D01*
X106126976Y-117877607D01*
X106327456Y-117840131D01*
X106517637Y-117766455D01*
X106691041Y-117659088D01*
X106841764Y-117521686D01*
X106964673Y-117358928D01*
X107055582Y-117176357D01*
X107111397Y-116980190D01*
X107130215Y-116777111D01*
X112539785Y-116777111D01*
X112558602Y-116980185D01*
X112614416Y-117176352D01*
X112705328Y-117358930D01*
X112786174Y-117465987D01*
X112828236Y-117521686D01*
X112978958Y-117659087D01*
X112978963Y-117659091D01*
X113152356Y-117766451D01*
X113152367Y-117766457D01*
X113268332Y-117811381D01*
X113342544Y-117840131D01*
X113543024Y-117877607D01*
X113543027Y-117877607D01*
X113746973Y-117877607D01*
X113746976Y-117877607D01*
X113947456Y-117840131D01*
X114137637Y-117766455D01*
X114311041Y-117659088D01*
X114461764Y-117521686D01*
X114584673Y-117358928D01*
X114675582Y-117176357D01*
X114731397Y-116980190D01*
X114750215Y-116777107D01*
X114731397Y-116574024D01*
X114675582Y-116377857D01*
X114584673Y-116195286D01*
X114461764Y-116032528D01*
X114311041Y-115895126D01*
X114311036Y-115895122D01*
X114137643Y-115787762D01*
X114137632Y-115787756D01*
X113947462Y-115714085D01*
X113947458Y-115714084D01*
X113947456Y-115714083D01*
X113907360Y-115706587D01*
X113746980Y-115676607D01*
X113746976Y-115676607D01*
X113543024Y-115676607D01*
X113543019Y-115676607D01*
X113342544Y-115714083D01*
X113342537Y-115714085D01*
X113152367Y-115787756D01*
X113152356Y-115787762D01*
X112978963Y-115895122D01*
X112978958Y-115895126D01*
X112828234Y-116032530D01*
X112705328Y-116195283D01*
X112614416Y-116377861D01*
X112558602Y-116574028D01*
X112539785Y-116777102D01*
X112539785Y-116777111D01*
X107130215Y-116777111D01*
X107130215Y-116777107D01*
X107111397Y-116574024D01*
X107055582Y-116377857D01*
X106964673Y-116195286D01*
X106841764Y-116032528D01*
X106691041Y-115895126D01*
X106691036Y-115895122D01*
X106517643Y-115787762D01*
X106517632Y-115787756D01*
X106327462Y-115714085D01*
X106327458Y-115714084D01*
X106327456Y-115714083D01*
X106287360Y-115706587D01*
X106126980Y-115676607D01*
X106126976Y-115676607D01*
X105923024Y-115676607D01*
X105923019Y-115676607D01*
X105722544Y-115714083D01*
X105722537Y-115714085D01*
X105532367Y-115787756D01*
X105532356Y-115787762D01*
X105358963Y-115895122D01*
X105358958Y-115895126D01*
X105208234Y-116032530D01*
X105085328Y-116195283D01*
X104994416Y-116377861D01*
X104938602Y-116574028D01*
X104919785Y-116777102D01*
X104919785Y-116777111D01*
X78700500Y-116777111D01*
X78700500Y-111447106D01*
X104746127Y-111447106D01*
X104746128Y-111447107D01*
X105709314Y-111447107D01*
X105697359Y-111459062D01*
X105639835Y-111571959D01*
X105620014Y-111697107D01*
X105639835Y-111822255D01*
X105697359Y-111935152D01*
X105709314Y-111947107D01*
X104746128Y-111947107D01*
X104798732Y-112143430D01*
X104798733Y-112143432D01*
X104894862Y-112349584D01*
X104894865Y-112349589D01*
X105025339Y-112535924D01*
X105186182Y-112696767D01*
X105372517Y-112827241D01*
X105372522Y-112827244D01*
X105578674Y-112923373D01*
X105578681Y-112923375D01*
X105605636Y-112930598D01*
X105672431Y-112969161D01*
X105710996Y-113035955D01*
X105710997Y-113113083D01*
X105672434Y-113179878D01*
X105620900Y-113213459D01*
X105532364Y-113247758D01*
X105532356Y-113247762D01*
X105358963Y-113355122D01*
X105358958Y-113355126D01*
X105208234Y-113492530D01*
X105085328Y-113655283D01*
X104994416Y-113837861D01*
X104938602Y-114034028D01*
X104919785Y-114237102D01*
X104919785Y-114237111D01*
X104938602Y-114440185D01*
X104994416Y-114636352D01*
X105085328Y-114818930D01*
X105166174Y-114925987D01*
X105208236Y-114981686D01*
X105358958Y-115119087D01*
X105358963Y-115119091D01*
X105532356Y-115226451D01*
X105532367Y-115226457D01*
X105648332Y-115271381D01*
X105722544Y-115300131D01*
X105923024Y-115337607D01*
X105923027Y-115337607D01*
X106126973Y-115337607D01*
X106126976Y-115337607D01*
X106327456Y-115300131D01*
X106517637Y-115226455D01*
X106691041Y-115119088D01*
X106841764Y-114981686D01*
X106964673Y-114818928D01*
X107055582Y-114636357D01*
X107111397Y-114440190D01*
X107130215Y-114237111D01*
X112539785Y-114237111D01*
X112558602Y-114440185D01*
X112614416Y-114636352D01*
X112705328Y-114818930D01*
X112786174Y-114925987D01*
X112828236Y-114981686D01*
X112978958Y-115119087D01*
X112978963Y-115119091D01*
X113152356Y-115226451D01*
X113152367Y-115226457D01*
X113268332Y-115271381D01*
X113342544Y-115300131D01*
X113543024Y-115337607D01*
X113543027Y-115337607D01*
X113746973Y-115337607D01*
X113746976Y-115337607D01*
X113947456Y-115300131D01*
X114137637Y-115226455D01*
X114311041Y-115119088D01*
X114461764Y-114981686D01*
X114584673Y-114818928D01*
X114675582Y-114636357D01*
X114731397Y-114440190D01*
X114750215Y-114237107D01*
X114731397Y-114034024D01*
X114675582Y-113837857D01*
X114584673Y-113655286D01*
X114461764Y-113492528D01*
X114311041Y-113355126D01*
X114311036Y-113355122D01*
X114137643Y-113247762D01*
X114137632Y-113247756D01*
X113947462Y-113174085D01*
X113947458Y-113174084D01*
X113947456Y-113174083D01*
X113907360Y-113166587D01*
X113746980Y-113136607D01*
X113746976Y-113136607D01*
X113543024Y-113136607D01*
X113543019Y-113136607D01*
X113342544Y-113174083D01*
X113342537Y-113174085D01*
X113152367Y-113247756D01*
X113152356Y-113247762D01*
X112978963Y-113355122D01*
X112978958Y-113355126D01*
X112828234Y-113492530D01*
X112705328Y-113655283D01*
X112614416Y-113837861D01*
X112558602Y-114034028D01*
X112539785Y-114237102D01*
X112539785Y-114237111D01*
X107130215Y-114237111D01*
X107130215Y-114237107D01*
X107111397Y-114034024D01*
X107055582Y-113837857D01*
X106964673Y-113655286D01*
X106841764Y-113492528D01*
X106691041Y-113355126D01*
X106691036Y-113355122D01*
X106517643Y-113247762D01*
X106517631Y-113247756D01*
X106429100Y-113213459D01*
X106366842Y-113167932D01*
X106335688Y-113097376D01*
X106343987Y-113020696D01*
X106389514Y-112958438D01*
X106444364Y-112930597D01*
X106471326Y-112923373D01*
X106677477Y-112827244D01*
X106677482Y-112827241D01*
X106863817Y-112696767D01*
X107024660Y-112535924D01*
X107155134Y-112349589D01*
X107155137Y-112349584D01*
X107251266Y-112143432D01*
X107251267Y-112143430D01*
X107303872Y-111947107D01*
X106340686Y-111947107D01*
X106352641Y-111935152D01*
X106410165Y-111822255D01*
X106429986Y-111697107D01*
X106410165Y-111571959D01*
X106352641Y-111459062D01*
X106340686Y-111447107D01*
X107303872Y-111447107D01*
X107303872Y-111447106D01*
X107251267Y-111250783D01*
X107251266Y-111250781D01*
X107155137Y-111044629D01*
X107155134Y-111044624D01*
X107024660Y-110858289D01*
X106863817Y-110697446D01*
X106677482Y-110566972D01*
X106677477Y-110566969D01*
X106471325Y-110470840D01*
X106444360Y-110463615D01*
X106377565Y-110425050D01*
X106339002Y-110358255D01*
X106339002Y-110281127D01*
X106377567Y-110214332D01*
X106429098Y-110180754D01*
X106517637Y-110146455D01*
X106691041Y-110039088D01*
X106841764Y-109901686D01*
X106964673Y-109738928D01*
X107055582Y-109556357D01*
X107111397Y-109360190D01*
X107130215Y-109157107D01*
X107111397Y-108954024D01*
X107098048Y-108907106D01*
X112366127Y-108907106D01*
X112366128Y-108907107D01*
X113329314Y-108907107D01*
X113317359Y-108919062D01*
X113259835Y-109031959D01*
X113240014Y-109157107D01*
X113259835Y-109282255D01*
X113317359Y-109395152D01*
X113329314Y-109407107D01*
X112366128Y-109407107D01*
X112418732Y-109603430D01*
X112418733Y-109603432D01*
X112514862Y-109809584D01*
X112514865Y-109809589D01*
X112645339Y-109995924D01*
X112806182Y-110156767D01*
X112992517Y-110287241D01*
X112992522Y-110287244D01*
X113198674Y-110383373D01*
X113198681Y-110383375D01*
X113225636Y-110390598D01*
X113292431Y-110429161D01*
X113330996Y-110495955D01*
X113330997Y-110573083D01*
X113292434Y-110639878D01*
X113240900Y-110673459D01*
X113152364Y-110707758D01*
X113152356Y-110707762D01*
X112978963Y-110815122D01*
X112978958Y-110815126D01*
X112828234Y-110952530D01*
X112705328Y-111115283D01*
X112614416Y-111297861D01*
X112558602Y-111494028D01*
X112539785Y-111697102D01*
X112539785Y-111697111D01*
X112558602Y-111900185D01*
X112614416Y-112096352D01*
X112614417Y-112096354D01*
X112614418Y-112096357D01*
X112705327Y-112278928D01*
X112705328Y-112278930D01*
X112786174Y-112385987D01*
X112828236Y-112441686D01*
X112978958Y-112579087D01*
X112978963Y-112579091D01*
X113152356Y-112686451D01*
X113152367Y-112686457D01*
X113268332Y-112731381D01*
X113342544Y-112760131D01*
X113543024Y-112797607D01*
X113543027Y-112797607D01*
X113746973Y-112797607D01*
X113746976Y-112797607D01*
X113947456Y-112760131D01*
X114137637Y-112686455D01*
X114311041Y-112579088D01*
X114461764Y-112441686D01*
X114584673Y-112278928D01*
X114675582Y-112096357D01*
X114731397Y-111900190D01*
X114750215Y-111697107D01*
X114731397Y-111494024D01*
X114675582Y-111297857D01*
X114584673Y-111115286D01*
X114461764Y-110952528D01*
X114311041Y-110815126D01*
X114311036Y-110815122D01*
X114137643Y-110707762D01*
X114137631Y-110707756D01*
X114049100Y-110673459D01*
X113986842Y-110627932D01*
X113955688Y-110557376D01*
X113963987Y-110480696D01*
X114009514Y-110418438D01*
X114064364Y-110390597D01*
X114091326Y-110383373D01*
X114297477Y-110287244D01*
X114297482Y-110287241D01*
X114483817Y-110156767D01*
X114644660Y-109995924D01*
X114775134Y-109809589D01*
X114775137Y-109809584D01*
X114871266Y-109603432D01*
X114871267Y-109603430D01*
X114923872Y-109407107D01*
X113960686Y-109407107D01*
X113972641Y-109395152D01*
X114030165Y-109282255D01*
X114049986Y-109157107D01*
X114030165Y-109031959D01*
X113972641Y-108919062D01*
X113960686Y-108907107D01*
X114923872Y-108907107D01*
X114923872Y-108907106D01*
X114871267Y-108710783D01*
X114871266Y-108710781D01*
X114775137Y-108504629D01*
X114775134Y-108504624D01*
X114644660Y-108318289D01*
X114483817Y-108157446D01*
X114297482Y-108026972D01*
X114297477Y-108026969D01*
X114091325Y-107930840D01*
X114064360Y-107923615D01*
X113997565Y-107885050D01*
X113959002Y-107818255D01*
X113959002Y-107741127D01*
X113997567Y-107674332D01*
X114049098Y-107640754D01*
X114137637Y-107606455D01*
X114311041Y-107499088D01*
X114461764Y-107361686D01*
X114584673Y-107198928D01*
X114675582Y-107016357D01*
X114731397Y-106820190D01*
X114750215Y-106617107D01*
X114731397Y-106414024D01*
X114675582Y-106217857D01*
X114584673Y-106035286D01*
X114461764Y-105872528D01*
X114311041Y-105735126D01*
X114311036Y-105735122D01*
X114137643Y-105627762D01*
X114137632Y-105627756D01*
X113947462Y-105554085D01*
X113947458Y-105554084D01*
X113947456Y-105554083D01*
X113907360Y-105546587D01*
X113746980Y-105516607D01*
X113746976Y-105516607D01*
X113543024Y-105516607D01*
X113543019Y-105516607D01*
X113342544Y-105554083D01*
X113342537Y-105554085D01*
X113152367Y-105627756D01*
X113152356Y-105627762D01*
X112978963Y-105735122D01*
X112978958Y-105735126D01*
X112828234Y-105872530D01*
X112705328Y-106035283D01*
X112614416Y-106217861D01*
X112558602Y-106414028D01*
X112539785Y-106617102D01*
X112539785Y-106617111D01*
X112558602Y-106820185D01*
X112614416Y-107016352D01*
X112705328Y-107198930D01*
X112786174Y-107305987D01*
X112828236Y-107361686D01*
X112978958Y-107499087D01*
X112978963Y-107499091D01*
X113152356Y-107606451D01*
X113152358Y-107606452D01*
X113152363Y-107606455D01*
X113240901Y-107640754D01*
X113303157Y-107686280D01*
X113334311Y-107756836D01*
X113326013Y-107833517D01*
X113280486Y-107895775D01*
X113225640Y-107923614D01*
X113198682Y-107930837D01*
X113198674Y-107930840D01*
X112992522Y-108026969D01*
X112992517Y-108026972D01*
X112806182Y-108157446D01*
X112645339Y-108318289D01*
X112514865Y-108504624D01*
X112514862Y-108504629D01*
X112418733Y-108710781D01*
X112418732Y-108710783D01*
X112366127Y-108907106D01*
X107098048Y-108907106D01*
X107055582Y-108757857D01*
X106964673Y-108575286D01*
X106841764Y-108412528D01*
X106691041Y-108275126D01*
X106691036Y-108275122D01*
X106517643Y-108167762D01*
X106517632Y-108167756D01*
X106327462Y-108094085D01*
X106327458Y-108094084D01*
X106327456Y-108094083D01*
X106287360Y-108086587D01*
X106126980Y-108056607D01*
X106126976Y-108056607D01*
X105923024Y-108056607D01*
X105923019Y-108056607D01*
X105722544Y-108094083D01*
X105722537Y-108094085D01*
X105532367Y-108167756D01*
X105532356Y-108167762D01*
X105358963Y-108275122D01*
X105358958Y-108275126D01*
X105208234Y-108412530D01*
X105085328Y-108575283D01*
X104994416Y-108757861D01*
X104938602Y-108954028D01*
X104919785Y-109157102D01*
X104919785Y-109157111D01*
X104938602Y-109360185D01*
X104994416Y-109556352D01*
X104994417Y-109556354D01*
X104994418Y-109556357D01*
X105085327Y-109738928D01*
X105085328Y-109738930D01*
X105166174Y-109845987D01*
X105208236Y-109901686D01*
X105358958Y-110039087D01*
X105358963Y-110039091D01*
X105532356Y-110146451D01*
X105532358Y-110146452D01*
X105532363Y-110146455D01*
X105620901Y-110180754D01*
X105683157Y-110226280D01*
X105714311Y-110296836D01*
X105706013Y-110373517D01*
X105660486Y-110435775D01*
X105605640Y-110463614D01*
X105578682Y-110470837D01*
X105578674Y-110470840D01*
X105372522Y-110566969D01*
X105372517Y-110566972D01*
X105186182Y-110697446D01*
X105025339Y-110858289D01*
X104894865Y-111044624D01*
X104894862Y-111044629D01*
X104798733Y-111250781D01*
X104798732Y-111250783D01*
X104746127Y-111447106D01*
X78700500Y-111447106D01*
X78700500Y-106617111D01*
X104919785Y-106617111D01*
X104938602Y-106820185D01*
X104994416Y-107016352D01*
X105085328Y-107198930D01*
X105166174Y-107305987D01*
X105208236Y-107361686D01*
X105358958Y-107499087D01*
X105358963Y-107499091D01*
X105532356Y-107606451D01*
X105532367Y-107606457D01*
X105620897Y-107640753D01*
X105722544Y-107680131D01*
X105923024Y-107717607D01*
X105923027Y-107717607D01*
X106126973Y-107717607D01*
X106126976Y-107717607D01*
X106327456Y-107680131D01*
X106517637Y-107606455D01*
X106691041Y-107499088D01*
X106841764Y-107361686D01*
X106964673Y-107198928D01*
X107055582Y-107016357D01*
X107111397Y-106820190D01*
X107130215Y-106617107D01*
X107111397Y-106414024D01*
X107055582Y-106217857D01*
X106964673Y-106035286D01*
X106841764Y-105872528D01*
X106691041Y-105735126D01*
X106691036Y-105735122D01*
X106517643Y-105627762D01*
X106517632Y-105627756D01*
X106327462Y-105554085D01*
X106327458Y-105554084D01*
X106327456Y-105554083D01*
X106287360Y-105546587D01*
X106126980Y-105516607D01*
X106126976Y-105516607D01*
X105923024Y-105516607D01*
X105923019Y-105516607D01*
X105722544Y-105554083D01*
X105722537Y-105554085D01*
X105532367Y-105627756D01*
X105532356Y-105627762D01*
X105358963Y-105735122D01*
X105358958Y-105735126D01*
X105208234Y-105872530D01*
X105085328Y-106035283D01*
X104994416Y-106217861D01*
X104938602Y-106414028D01*
X104919785Y-106617102D01*
X104919785Y-106617111D01*
X78700500Y-106617111D01*
X78700500Y-104077111D01*
X104919785Y-104077111D01*
X104938602Y-104280185D01*
X104994416Y-104476352D01*
X105085328Y-104658930D01*
X105166174Y-104765987D01*
X105208236Y-104821686D01*
X105358958Y-104959087D01*
X105358963Y-104959091D01*
X105532356Y-105066451D01*
X105532367Y-105066457D01*
X105648332Y-105111381D01*
X105722544Y-105140131D01*
X105923024Y-105177607D01*
X105923027Y-105177607D01*
X106126973Y-105177607D01*
X106126976Y-105177607D01*
X106327456Y-105140131D01*
X106517637Y-105066455D01*
X106691041Y-104959088D01*
X106841764Y-104821686D01*
X106964673Y-104658928D01*
X107055582Y-104476357D01*
X107111397Y-104280190D01*
X107130215Y-104077111D01*
X112539785Y-104077111D01*
X112558602Y-104280185D01*
X112614416Y-104476352D01*
X112705328Y-104658930D01*
X112786174Y-104765987D01*
X112828236Y-104821686D01*
X112978958Y-104959087D01*
X112978963Y-104959091D01*
X113152356Y-105066451D01*
X113152367Y-105066457D01*
X113268332Y-105111381D01*
X113342544Y-105140131D01*
X113543024Y-105177607D01*
X113543027Y-105177607D01*
X113746973Y-105177607D01*
X113746976Y-105177607D01*
X113947456Y-105140131D01*
X114137637Y-105066455D01*
X114311041Y-104959088D01*
X114461764Y-104821686D01*
X114584673Y-104658928D01*
X114675582Y-104476357D01*
X114731397Y-104280190D01*
X114750215Y-104077107D01*
X114731397Y-103874024D01*
X114675582Y-103677857D01*
X114584673Y-103495286D01*
X114461764Y-103332528D01*
X114311041Y-103195126D01*
X114311036Y-103195122D01*
X114137643Y-103087762D01*
X114137632Y-103087756D01*
X113947462Y-103014085D01*
X113947458Y-103014084D01*
X113947456Y-103014083D01*
X113907360Y-103006587D01*
X113746980Y-102976607D01*
X113746976Y-102976607D01*
X113543024Y-102976607D01*
X113543019Y-102976607D01*
X113342544Y-103014083D01*
X113342537Y-103014085D01*
X113152367Y-103087756D01*
X113152356Y-103087762D01*
X112978963Y-103195122D01*
X112978958Y-103195126D01*
X112828234Y-103332530D01*
X112705328Y-103495283D01*
X112614416Y-103677861D01*
X112558602Y-103874028D01*
X112539785Y-104077102D01*
X112539785Y-104077111D01*
X107130215Y-104077111D01*
X107130215Y-104077107D01*
X107111397Y-103874024D01*
X107055582Y-103677857D01*
X106964673Y-103495286D01*
X106841764Y-103332528D01*
X106691041Y-103195126D01*
X106691036Y-103195122D01*
X106517643Y-103087762D01*
X106517632Y-103087756D01*
X106327462Y-103014085D01*
X106327458Y-103014084D01*
X106327456Y-103014083D01*
X106287360Y-103006587D01*
X106126980Y-102976607D01*
X106126976Y-102976607D01*
X105923024Y-102976607D01*
X105923019Y-102976607D01*
X105722544Y-103014083D01*
X105722537Y-103014085D01*
X105532367Y-103087756D01*
X105532356Y-103087762D01*
X105358963Y-103195122D01*
X105358958Y-103195126D01*
X105208234Y-103332530D01*
X105085328Y-103495283D01*
X104994416Y-103677861D01*
X104938602Y-103874028D01*
X104919785Y-104077102D01*
X104919785Y-104077111D01*
X78700500Y-104077111D01*
X78700500Y-101537111D01*
X104919785Y-101537111D01*
X104938602Y-101740185D01*
X104994416Y-101936352D01*
X105085328Y-102118930D01*
X105166174Y-102225987D01*
X105208236Y-102281686D01*
X105358958Y-102419087D01*
X105358963Y-102419091D01*
X105532356Y-102526451D01*
X105532367Y-102526457D01*
X105648332Y-102571381D01*
X105722544Y-102600131D01*
X105923024Y-102637607D01*
X105923027Y-102637607D01*
X106126973Y-102637607D01*
X106126976Y-102637607D01*
X106327456Y-102600131D01*
X106517637Y-102526455D01*
X106691041Y-102419088D01*
X106841764Y-102281686D01*
X106964673Y-102118928D01*
X107055582Y-101936357D01*
X107111397Y-101740190D01*
X107130215Y-101537111D01*
X112539785Y-101537111D01*
X112558602Y-101740185D01*
X112614416Y-101936352D01*
X112705328Y-102118930D01*
X112786174Y-102225987D01*
X112828236Y-102281686D01*
X112978958Y-102419087D01*
X112978963Y-102419091D01*
X113152356Y-102526451D01*
X113152367Y-102526457D01*
X113268332Y-102571381D01*
X113342544Y-102600131D01*
X113543024Y-102637607D01*
X113543027Y-102637607D01*
X113746973Y-102637607D01*
X113746976Y-102637607D01*
X113947456Y-102600131D01*
X114137637Y-102526455D01*
X114311041Y-102419088D01*
X114461764Y-102281686D01*
X114584673Y-102118928D01*
X114675582Y-101936357D01*
X114731397Y-101740190D01*
X114750215Y-101537107D01*
X114731397Y-101334024D01*
X114675582Y-101137857D01*
X114584673Y-100955286D01*
X114461764Y-100792528D01*
X114311041Y-100655126D01*
X114311036Y-100655122D01*
X114137643Y-100547762D01*
X114137632Y-100547756D01*
X113947462Y-100474085D01*
X113947458Y-100474084D01*
X113947456Y-100474083D01*
X113907360Y-100466587D01*
X113746980Y-100436607D01*
X113746976Y-100436607D01*
X113543024Y-100436607D01*
X113543019Y-100436607D01*
X113342544Y-100474083D01*
X113342537Y-100474085D01*
X113152367Y-100547756D01*
X113152356Y-100547762D01*
X112978963Y-100655122D01*
X112978958Y-100655126D01*
X112828234Y-100792530D01*
X112705328Y-100955283D01*
X112614416Y-101137861D01*
X112558602Y-101334028D01*
X112539785Y-101537102D01*
X112539785Y-101537111D01*
X107130215Y-101537111D01*
X107130215Y-101537107D01*
X107111397Y-101334024D01*
X107055582Y-101137857D01*
X106964673Y-100955286D01*
X106841764Y-100792528D01*
X106691041Y-100655126D01*
X106691036Y-100655122D01*
X106517643Y-100547762D01*
X106517632Y-100547756D01*
X106327462Y-100474085D01*
X106327458Y-100474084D01*
X106327456Y-100474083D01*
X106287360Y-100466587D01*
X106126980Y-100436607D01*
X106126976Y-100436607D01*
X105923024Y-100436607D01*
X105923019Y-100436607D01*
X105722544Y-100474083D01*
X105722537Y-100474085D01*
X105532367Y-100547756D01*
X105532356Y-100547762D01*
X105358963Y-100655122D01*
X105358958Y-100655126D01*
X105208234Y-100792530D01*
X105085328Y-100955283D01*
X104994416Y-101137861D01*
X104938602Y-101334028D01*
X104919785Y-101537102D01*
X104919785Y-101537111D01*
X78700500Y-101537111D01*
X78700500Y-98240006D01*
X92369454Y-98240006D01*
X92389611Y-98521846D01*
X92389613Y-98521863D01*
X92449678Y-98797978D01*
X92449679Y-98797982D01*
X92449680Y-98797984D01*
X92548432Y-99062749D01*
X92548433Y-99062750D01*
X92683856Y-99310761D01*
X92853202Y-99536981D01*
X93053018Y-99736797D01*
X93279238Y-99906143D01*
X93403243Y-99973854D01*
X93527251Y-100041568D01*
X93792016Y-100140320D01*
X94068139Y-100200387D01*
X94279447Y-100215500D01*
X94279451Y-100215500D01*
X94420549Y-100215500D01*
X94420553Y-100215500D01*
X94631861Y-100200387D01*
X94907984Y-100140320D01*
X95172749Y-100041568D01*
X95371335Y-99933130D01*
X95420761Y-99906143D01*
X95420764Y-99906141D01*
X95646982Y-99736797D01*
X95846797Y-99536982D01*
X96016141Y-99310764D01*
X96151568Y-99062749D01*
X96176050Y-98997111D01*
X104919785Y-98997111D01*
X104938602Y-99200185D01*
X104994416Y-99396352D01*
X105085328Y-99578930D01*
X105166174Y-99685987D01*
X105208236Y-99741686D01*
X105358958Y-99879087D01*
X105358963Y-99879091D01*
X105532356Y-99986451D01*
X105532367Y-99986457D01*
X105648332Y-100031381D01*
X105722544Y-100060131D01*
X105923024Y-100097607D01*
X105923027Y-100097607D01*
X106126973Y-100097607D01*
X106126976Y-100097607D01*
X106327456Y-100060131D01*
X106517637Y-99986455D01*
X106691041Y-99879088D01*
X106841764Y-99741686D01*
X106964673Y-99578928D01*
X107055582Y-99396357D01*
X107111397Y-99200190D01*
X107121851Y-99087366D01*
X107130215Y-98997111D01*
X112539785Y-98997111D01*
X112558602Y-99200185D01*
X112614416Y-99396352D01*
X112705328Y-99578930D01*
X112786174Y-99685987D01*
X112828236Y-99741686D01*
X112978958Y-99879087D01*
X112978963Y-99879091D01*
X113152356Y-99986451D01*
X113152367Y-99986457D01*
X113268332Y-100031381D01*
X113342544Y-100060131D01*
X113543024Y-100097607D01*
X113543027Y-100097607D01*
X113746973Y-100097607D01*
X113746976Y-100097607D01*
X113947456Y-100060131D01*
X114137637Y-99986455D01*
X114311041Y-99879088D01*
X114461764Y-99741686D01*
X114584673Y-99578928D01*
X114675582Y-99396357D01*
X114731397Y-99200190D01*
X114741851Y-99087366D01*
X114750215Y-98997111D01*
X114750215Y-98997102D01*
X114731397Y-98794028D01*
X114731397Y-98794024D01*
X114675582Y-98597857D01*
X114584673Y-98415286D01*
X114461764Y-98252528D01*
X114311041Y-98115126D01*
X114311036Y-98115122D01*
X114137643Y-98007762D01*
X114137632Y-98007756D01*
X113947462Y-97934085D01*
X113947458Y-97934084D01*
X113947456Y-97934083D01*
X113907360Y-97926587D01*
X113746980Y-97896607D01*
X113746976Y-97896607D01*
X113543024Y-97896607D01*
X113543019Y-97896607D01*
X113342544Y-97934083D01*
X113342537Y-97934085D01*
X113152367Y-98007756D01*
X113152356Y-98007762D01*
X112978963Y-98115122D01*
X112978958Y-98115126D01*
X112828234Y-98252530D01*
X112705328Y-98415283D01*
X112614416Y-98597861D01*
X112558602Y-98794028D01*
X112539785Y-98997102D01*
X112539785Y-98997111D01*
X107130215Y-98997111D01*
X107130215Y-98997102D01*
X107111397Y-98794028D01*
X107111397Y-98794024D01*
X107055582Y-98597857D01*
X106964673Y-98415286D01*
X106841764Y-98252528D01*
X106691041Y-98115126D01*
X106691036Y-98115122D01*
X106517643Y-98007762D01*
X106517632Y-98007756D01*
X106327462Y-97934085D01*
X106327458Y-97934084D01*
X106327456Y-97934083D01*
X106287360Y-97926587D01*
X106126980Y-97896607D01*
X106126976Y-97896607D01*
X105923024Y-97896607D01*
X105923019Y-97896607D01*
X105722544Y-97934083D01*
X105722537Y-97934085D01*
X105532367Y-98007756D01*
X105532356Y-98007762D01*
X105358963Y-98115122D01*
X105358958Y-98115126D01*
X105208234Y-98252530D01*
X105085328Y-98415283D01*
X104994416Y-98597861D01*
X104938602Y-98794028D01*
X104919785Y-98997102D01*
X104919785Y-98997111D01*
X96176050Y-98997111D01*
X96250320Y-98797984D01*
X96310387Y-98521861D01*
X96330546Y-98240000D01*
X96330546Y-98239993D01*
X96310388Y-97958153D01*
X96310387Y-97958139D01*
X96250320Y-97682016D01*
X96151568Y-97417251D01*
X96083854Y-97293243D01*
X96016143Y-97169238D01*
X95846797Y-96943018D01*
X95646981Y-96743202D01*
X95420761Y-96573856D01*
X95206957Y-96457111D01*
X104919785Y-96457111D01*
X104938602Y-96660185D01*
X104994416Y-96856352D01*
X104994417Y-96856354D01*
X104994418Y-96856357D01*
X105037570Y-96943018D01*
X105085328Y-97038930D01*
X105166174Y-97145987D01*
X105208236Y-97201686D01*
X105358958Y-97339087D01*
X105358963Y-97339091D01*
X105532356Y-97446451D01*
X105532367Y-97446457D01*
X105648332Y-97491381D01*
X105722544Y-97520131D01*
X105923024Y-97557607D01*
X105923027Y-97557607D01*
X106126973Y-97557607D01*
X106126976Y-97557607D01*
X106327456Y-97520131D01*
X106517637Y-97446455D01*
X106691041Y-97339088D01*
X106841764Y-97201686D01*
X106964673Y-97038928D01*
X107055582Y-96856357D01*
X107111397Y-96660190D01*
X107130215Y-96457111D01*
X112539785Y-96457111D01*
X112558602Y-96660185D01*
X112614416Y-96856352D01*
X112614417Y-96856354D01*
X112614418Y-96856357D01*
X112657570Y-96943018D01*
X112705328Y-97038930D01*
X112786174Y-97145987D01*
X112828236Y-97201686D01*
X112978958Y-97339087D01*
X112978963Y-97339091D01*
X113152356Y-97446451D01*
X113152367Y-97446457D01*
X113268332Y-97491381D01*
X113342544Y-97520131D01*
X113543024Y-97557607D01*
X113543027Y-97557607D01*
X113746973Y-97557607D01*
X113746976Y-97557607D01*
X113947456Y-97520131D01*
X114137637Y-97446455D01*
X114311041Y-97339088D01*
X114461764Y-97201686D01*
X114584673Y-97038928D01*
X114675582Y-96856357D01*
X114731397Y-96660190D01*
X114750215Y-96457107D01*
X114731397Y-96254024D01*
X114675582Y-96057857D01*
X114584673Y-95875286D01*
X114461764Y-95712528D01*
X114311041Y-95575126D01*
X114311036Y-95575122D01*
X114137643Y-95467762D01*
X114137632Y-95467756D01*
X113947462Y-95394085D01*
X113947458Y-95394084D01*
X113947456Y-95394083D01*
X113907360Y-95386587D01*
X113746980Y-95356607D01*
X113746976Y-95356607D01*
X113543024Y-95356607D01*
X113543019Y-95356607D01*
X113342544Y-95394083D01*
X113342537Y-95394085D01*
X113152367Y-95467756D01*
X113152356Y-95467762D01*
X112978963Y-95575122D01*
X112978958Y-95575126D01*
X112828234Y-95712530D01*
X112705328Y-95875283D01*
X112614416Y-96057861D01*
X112558602Y-96254028D01*
X112539785Y-96457102D01*
X112539785Y-96457111D01*
X107130215Y-96457111D01*
X107130215Y-96457107D01*
X107111397Y-96254024D01*
X107055582Y-96057857D01*
X106964673Y-95875286D01*
X106841764Y-95712528D01*
X106691041Y-95575126D01*
X106691036Y-95575122D01*
X106517643Y-95467762D01*
X106517632Y-95467756D01*
X106327462Y-95394085D01*
X106327458Y-95394084D01*
X106327456Y-95394083D01*
X106287360Y-95386587D01*
X106126980Y-95356607D01*
X106126976Y-95356607D01*
X105923024Y-95356607D01*
X105923019Y-95356607D01*
X105722544Y-95394083D01*
X105722537Y-95394085D01*
X105532367Y-95467756D01*
X105532356Y-95467762D01*
X105358963Y-95575122D01*
X105358958Y-95575126D01*
X105208234Y-95712530D01*
X105085328Y-95875283D01*
X104994416Y-96057861D01*
X104938602Y-96254028D01*
X104919785Y-96457102D01*
X104919785Y-96457111D01*
X95206957Y-96457111D01*
X95172749Y-96438432D01*
X94907984Y-96339680D01*
X94907982Y-96339679D01*
X94907978Y-96339678D01*
X94631863Y-96279613D01*
X94631846Y-96279611D01*
X94420564Y-96264500D01*
X94420553Y-96264500D01*
X94279447Y-96264500D01*
X94279435Y-96264500D01*
X94068153Y-96279611D01*
X94068136Y-96279613D01*
X93792021Y-96339678D01*
X93792016Y-96339680D01*
X93527251Y-96438432D01*
X93527249Y-96438432D01*
X93527249Y-96438433D01*
X93279238Y-96573856D01*
X93053018Y-96743202D01*
X93053017Y-96743204D01*
X92853204Y-96943017D01*
X92853202Y-96943018D01*
X92683856Y-97169238D01*
X92548433Y-97417249D01*
X92548432Y-97417251D01*
X92537539Y-97446457D01*
X92449678Y-97682021D01*
X92389613Y-97958136D01*
X92389611Y-97958153D01*
X92369454Y-98239993D01*
X92369454Y-98240006D01*
X78700500Y-98240006D01*
X78700500Y-94761973D01*
X104924500Y-94761973D01*
X104927414Y-94787096D01*
X104927415Y-94787099D01*
X104972793Y-94889871D01*
X104972794Y-94889872D01*
X105052235Y-94969313D01*
X105155009Y-95014692D01*
X105180135Y-95017607D01*
X106869864Y-95017606D01*
X106869866Y-95017606D01*
X106882427Y-95016149D01*
X106894991Y-95014692D01*
X106997765Y-94969313D01*
X107077206Y-94889872D01*
X107122585Y-94787098D01*
X107125500Y-94761972D01*
X107125500Y-93917111D01*
X112539785Y-93917111D01*
X112558602Y-94120185D01*
X112614416Y-94316352D01*
X112705328Y-94498930D01*
X112786174Y-94605987D01*
X112828236Y-94661686D01*
X112965807Y-94787098D01*
X112978958Y-94799087D01*
X112978963Y-94799091D01*
X113152356Y-94906451D01*
X113152367Y-94906457D01*
X113268332Y-94951381D01*
X113342544Y-94980131D01*
X113543024Y-95017607D01*
X113543027Y-95017607D01*
X113746973Y-95017607D01*
X113746976Y-95017607D01*
X113947456Y-94980131D01*
X114137637Y-94906455D01*
X114311041Y-94799088D01*
X114461764Y-94661686D01*
X114584673Y-94498928D01*
X114675582Y-94316357D01*
X114731397Y-94120190D01*
X114750215Y-93917107D01*
X114731397Y-93714024D01*
X114675582Y-93517857D01*
X114584673Y-93335286D01*
X114461764Y-93172528D01*
X114311041Y-93035126D01*
X114311036Y-93035122D01*
X114137643Y-92927762D01*
X114137632Y-92927756D01*
X113947462Y-92854085D01*
X113947458Y-92854084D01*
X113947456Y-92854083D01*
X113907360Y-92846587D01*
X113746980Y-92816607D01*
X113746976Y-92816607D01*
X113543024Y-92816607D01*
X113543019Y-92816607D01*
X113342544Y-92854083D01*
X113342537Y-92854085D01*
X113152367Y-92927756D01*
X113152356Y-92927762D01*
X112978963Y-93035122D01*
X112978958Y-93035126D01*
X112828234Y-93172530D01*
X112705328Y-93335283D01*
X112614416Y-93517861D01*
X112558602Y-93714028D01*
X112539785Y-93917102D01*
X112539785Y-93917111D01*
X107125500Y-93917111D01*
X107125499Y-93072243D01*
X107122585Y-93047116D01*
X107077206Y-92944342D01*
X106997765Y-92864901D01*
X106997764Y-92864900D01*
X106894994Y-92819523D01*
X106894991Y-92819522D01*
X106894982Y-92819521D01*
X106869865Y-92816607D01*
X106869859Y-92816607D01*
X105180133Y-92816607D01*
X105155010Y-92819521D01*
X105155007Y-92819522D01*
X105052235Y-92864900D01*
X104972793Y-92944342D01*
X104927416Y-93047112D01*
X104927415Y-93047115D01*
X104927415Y-93047116D01*
X104924500Y-93072242D01*
X104924500Y-93072243D01*
X104924500Y-93072247D01*
X104924500Y-94761973D01*
X78700500Y-94761973D01*
X78700500Y-89600001D01*
X84144859Y-89600001D01*
X84165386Y-89847733D01*
X84226412Y-90088721D01*
X84326263Y-90316358D01*
X84326267Y-90316365D01*
X84426563Y-90469881D01*
X85158866Y-89737578D01*
X85181318Y-89814040D01*
X85260605Y-89937413D01*
X85371438Y-90033451D01*
X85504839Y-90094373D01*
X85508634Y-90094918D01*
X84779942Y-90823609D01*
X84779942Y-90823610D01*
X84826766Y-90860054D01*
X85045393Y-90978368D01*
X85280506Y-91059082D01*
X85525708Y-91099999D01*
X85525708Y-91100000D01*
X85774292Y-91100000D01*
X85774291Y-91099999D01*
X86019493Y-91059082D01*
X86254606Y-90978368D01*
X86473233Y-90860054D01*
X86520056Y-90823609D01*
X86341313Y-90644866D01*
X97049500Y-90644866D01*
X97052414Y-90669989D01*
X97052415Y-90669992D01*
X97097793Y-90772764D01*
X97097794Y-90772765D01*
X97177235Y-90852206D01*
X97280009Y-90897585D01*
X97305135Y-90900500D01*
X99394864Y-90900499D01*
X99394866Y-90900499D01*
X99407427Y-90899042D01*
X99419991Y-90897585D01*
X99522765Y-90852206D01*
X99602206Y-90772765D01*
X99647585Y-90669991D01*
X99650500Y-90644865D01*
X99650499Y-88555136D01*
X99647585Y-88530009D01*
X99602206Y-88427235D01*
X99522765Y-88347794D01*
X99522764Y-88347793D01*
X99419994Y-88302416D01*
X99419991Y-88302415D01*
X99419982Y-88302414D01*
X99394865Y-88299500D01*
X99394859Y-88299500D01*
X97305133Y-88299500D01*
X97280010Y-88302414D01*
X97280007Y-88302415D01*
X97177235Y-88347793D01*
X97097793Y-88427235D01*
X97052416Y-88530005D01*
X97052415Y-88530008D01*
X97052415Y-88530009D01*
X97049500Y-88555135D01*
X97049500Y-88555136D01*
X97049500Y-88555140D01*
X97049500Y-90644866D01*
X86341313Y-90644866D01*
X85791365Y-90094918D01*
X85795161Y-90094373D01*
X85928562Y-90033451D01*
X86039395Y-89937413D01*
X86118682Y-89814040D01*
X86141133Y-89737580D01*
X86873435Y-90469882D01*
X86873435Y-90469881D01*
X86973728Y-90316374D01*
X86973736Y-90316358D01*
X87073587Y-90088721D01*
X87134613Y-89847733D01*
X87155141Y-89600001D01*
X87155141Y-89599998D01*
X87134613Y-89352266D01*
X87073587Y-89111278D01*
X86973736Y-88883641D01*
X86973732Y-88883634D01*
X86873434Y-88730117D01*
X86141132Y-89462418D01*
X86118682Y-89385960D01*
X86039395Y-89262587D01*
X85928562Y-89166549D01*
X85795161Y-89105627D01*
X85791363Y-89105081D01*
X86520056Y-88376389D01*
X86520056Y-88376388D01*
X86473235Y-88339946D01*
X86473231Y-88339944D01*
X86254606Y-88221631D01*
X86019493Y-88140917D01*
X85774291Y-88100000D01*
X85525708Y-88100000D01*
X85280506Y-88140917D01*
X85045393Y-88221631D01*
X84826763Y-88339947D01*
X84779942Y-88376388D01*
X84779942Y-88376389D01*
X85508634Y-89105081D01*
X85504839Y-89105627D01*
X85371438Y-89166549D01*
X85260605Y-89262587D01*
X85181318Y-89385960D01*
X85158866Y-89462419D01*
X84426563Y-88730116D01*
X84326266Y-88883632D01*
X84226412Y-89111278D01*
X84165386Y-89352266D01*
X84144859Y-89599998D01*
X84144859Y-89600001D01*
X78700500Y-89600001D01*
X78700500Y-86610000D01*
X105369364Y-86610000D01*
X105426568Y-86823489D01*
X105426569Y-86823491D01*
X105526400Y-87037579D01*
X105526406Y-87037588D01*
X105661888Y-87231076D01*
X105828919Y-87398107D01*
X105943655Y-87478446D01*
X105993232Y-87537530D01*
X106006625Y-87613486D01*
X105980246Y-87685963D01*
X105921162Y-87735540D01*
X105858195Y-87749500D01*
X105805133Y-87749500D01*
X105780010Y-87752414D01*
X105780007Y-87752415D01*
X105677235Y-87797793D01*
X105597793Y-87877235D01*
X105552416Y-87980005D01*
X105552415Y-87980008D01*
X105552415Y-87980009D01*
X105549500Y-88005135D01*
X105549500Y-88005136D01*
X105549500Y-88005140D01*
X105549500Y-89794866D01*
X105552414Y-89819989D01*
X105552415Y-89819992D01*
X105597793Y-89922764D01*
X105597794Y-89922765D01*
X105677235Y-90002206D01*
X105780009Y-90047585D01*
X105805135Y-90050500D01*
X107594864Y-90050499D01*
X107594866Y-90050499D01*
X107607427Y-90049042D01*
X107619991Y-90047585D01*
X107722765Y-90002206D01*
X107802206Y-89922765D01*
X107847585Y-89819991D01*
X107850500Y-89794865D01*
X107850499Y-88005136D01*
X107847585Y-87980009D01*
X107802206Y-87877235D01*
X107722765Y-87797794D01*
X107722764Y-87797793D01*
X107619994Y-87752416D01*
X107619991Y-87752415D01*
X107619982Y-87752414D01*
X107594865Y-87749500D01*
X107594859Y-87749500D01*
X107541809Y-87749500D01*
X107467309Y-87729538D01*
X107412771Y-87675000D01*
X107392809Y-87600500D01*
X107412771Y-87526000D01*
X107456346Y-87478447D01*
X107571076Y-87398111D01*
X107738111Y-87231076D01*
X107873593Y-87037588D01*
X107873599Y-87037579D01*
X107973430Y-86823491D01*
X107973431Y-86823489D01*
X108030636Y-86610000D01*
X107133686Y-86610000D01*
X107159493Y-86569844D01*
X107200000Y-86431889D01*
X107200000Y-86288111D01*
X107159493Y-86150156D01*
X107133686Y-86110000D01*
X108030636Y-86110000D01*
X108030635Y-86109999D01*
X107973431Y-85896512D01*
X107873597Y-85682419D01*
X107738108Y-85488920D01*
X107571076Y-85321888D01*
X107377588Y-85186406D01*
X107377583Y-85186403D01*
X107228837Y-85117041D01*
X107169754Y-85067464D01*
X107143375Y-84994987D01*
X107156768Y-84919030D01*
X107206345Y-84859947D01*
X107213370Y-84855319D01*
X107245096Y-84835675D01*
X107396302Y-84742052D01*
X107553872Y-84598407D01*
X107682366Y-84428255D01*
X107777405Y-84237389D01*
X107835756Y-84032310D01*
X107852798Y-83848399D01*
X107855429Y-83820004D01*
X107855429Y-83819995D01*
X107835756Y-83607694D01*
X107835756Y-83607690D01*
X107777405Y-83402611D01*
X107682366Y-83211745D01*
X107682364Y-83211743D01*
X107682363Y-83211740D01*
X107573643Y-83067773D01*
X110145788Y-83067773D01*
X110175412Y-83337005D01*
X110175414Y-83337018D01*
X110243928Y-83599088D01*
X110337806Y-83820000D01*
X110349870Y-83848390D01*
X110349875Y-83848399D01*
X110490981Y-84079610D01*
X110490984Y-84079614D01*
X110664247Y-84287812D01*
X110664259Y-84287824D01*
X110865990Y-84468575D01*
X110865999Y-84468583D01*
X110978954Y-84543313D01*
X111091910Y-84618044D01*
X111337176Y-84733020D01*
X111596569Y-84811060D01*
X111864561Y-84850500D01*
X111864568Y-84850500D01*
X112067622Y-84850500D01*
X112067631Y-84850500D01*
X112270156Y-84835677D01*
X112534553Y-84776780D01*
X112787558Y-84680014D01*
X113023777Y-84547441D01*
X113238177Y-84381888D01*
X113426186Y-84186881D01*
X113583799Y-83966579D01*
X113707656Y-83725675D01*
X113795118Y-83469305D01*
X113844319Y-83202933D01*
X113854212Y-82932235D01*
X113824586Y-82662982D01*
X113756072Y-82400912D01*
X113650130Y-82151610D01*
X113593249Y-82058407D01*
X113509018Y-81920389D01*
X113509015Y-81920385D01*
X113335752Y-81712187D01*
X113335740Y-81712175D01*
X113134009Y-81531424D01*
X113134000Y-81531416D01*
X112908090Y-81381956D01*
X112662825Y-81266980D01*
X112517369Y-81223219D01*
X112403431Y-81188940D01*
X112403427Y-81188939D01*
X112403426Y-81188939D01*
X112135446Y-81149501D01*
X112135445Y-81149500D01*
X112135439Y-81149500D01*
X111932369Y-81149500D01*
X111729844Y-81164323D01*
X111729836Y-81164324D01*
X111465449Y-81223219D01*
X111465439Y-81223222D01*
X111212440Y-81319986D01*
X111212438Y-81319987D01*
X110976224Y-81452558D01*
X110976217Y-81452562D01*
X110761830Y-81618105D01*
X110761826Y-81618108D01*
X110573810Y-81813123D01*
X110416201Y-82033419D01*
X110292344Y-82274324D01*
X110292344Y-82274325D01*
X110204886Y-82530680D01*
X110204880Y-82530703D01*
X110155681Y-82797060D01*
X110155681Y-82797067D01*
X110146745Y-83041593D01*
X110145788Y-83067773D01*
X107573643Y-83067773D01*
X107553872Y-83041593D01*
X107396302Y-82897948D01*
X107396301Y-82897947D01*
X107215022Y-82785703D01*
X107215016Y-82785700D01*
X107016204Y-82708681D01*
X107016200Y-82708680D01*
X107016198Y-82708679D01*
X106950846Y-82696462D01*
X106881284Y-82663151D01*
X106837696Y-82599521D01*
X106831763Y-82522621D01*
X106865075Y-82453058D01*
X106928705Y-82409470D01*
X106950843Y-82403537D01*
X107016198Y-82391321D01*
X107215019Y-82314298D01*
X107396302Y-82202052D01*
X107553872Y-82058407D01*
X107682366Y-81888255D01*
X107777405Y-81697389D01*
X107835756Y-81492310D01*
X107855429Y-81280000D01*
X107835756Y-81067690D01*
X107777405Y-80862611D01*
X107682366Y-80671745D01*
X107682364Y-80671743D01*
X107682363Y-80671740D01*
X107553872Y-80501593D01*
X107396302Y-80357948D01*
X107396301Y-80357947D01*
X107215022Y-80245703D01*
X107215016Y-80245700D01*
X107016204Y-80168681D01*
X107016200Y-80168680D01*
X107016198Y-80168679D01*
X106974280Y-80160843D01*
X106806614Y-80129500D01*
X106806610Y-80129500D01*
X106593390Y-80129500D01*
X106593385Y-80129500D01*
X106383802Y-80168679D01*
X106383795Y-80168681D01*
X106184983Y-80245700D01*
X106184977Y-80245703D01*
X106003698Y-80357947D01*
X106003697Y-80357948D01*
X105846127Y-80501593D01*
X105717636Y-80671740D01*
X105622594Y-80862612D01*
X105622593Y-80862614D01*
X105570517Y-81045643D01*
X105566261Y-81060603D01*
X105564243Y-81067694D01*
X105544571Y-81279995D01*
X105544571Y-81280004D01*
X105564243Y-81492305D01*
X105564243Y-81492307D01*
X105564244Y-81492310D01*
X105575373Y-81531424D01*
X105622593Y-81697385D01*
X105622594Y-81697387D01*
X105717636Y-81888259D01*
X105827259Y-82033421D01*
X105846128Y-82058407D01*
X105891498Y-82099767D01*
X106003697Y-82202051D01*
X106003698Y-82202052D01*
X106184977Y-82314296D01*
X106184983Y-82314299D01*
X106272189Y-82348082D01*
X106383802Y-82391321D01*
X106449152Y-82403537D01*
X106518716Y-82436849D01*
X106562303Y-82500480D01*
X106568236Y-82577379D01*
X106534924Y-82646943D01*
X106471293Y-82690530D01*
X106449153Y-82696462D01*
X106383802Y-82708679D01*
X106383795Y-82708681D01*
X106184983Y-82785700D01*
X106184977Y-82785703D01*
X106003698Y-82897947D01*
X106003697Y-82897948D01*
X105846127Y-83041593D01*
X105717636Y-83211740D01*
X105622594Y-83402612D01*
X105622593Y-83402614D01*
X105564243Y-83607694D01*
X105544571Y-83819995D01*
X105544571Y-83820004D01*
X105564243Y-84032305D01*
X105564243Y-84032307D01*
X105564244Y-84032310D01*
X105583441Y-84099782D01*
X105622593Y-84237385D01*
X105622594Y-84237387D01*
X105717636Y-84428259D01*
X105846127Y-84598406D01*
X105846128Y-84598407D01*
X106003698Y-84742052D01*
X106154904Y-84835675D01*
X106186630Y-84855319D01*
X106239462Y-84911510D01*
X106257120Y-84986590D01*
X106234873Y-85060440D01*
X106178682Y-85113272D01*
X106171162Y-85117040D01*
X106022427Y-85186397D01*
X106022420Y-85186401D01*
X105828920Y-85321891D01*
X105661891Y-85488920D01*
X105526402Y-85682419D01*
X105426568Y-85896512D01*
X105369364Y-86109999D01*
X105369364Y-86110000D01*
X106266314Y-86110000D01*
X106240507Y-86150156D01*
X106200000Y-86288111D01*
X106200000Y-86431889D01*
X106240507Y-86569844D01*
X106266314Y-86610000D01*
X105369364Y-86610000D01*
X78700500Y-86610000D01*
X78700500Y-83067773D01*
X80145788Y-83067773D01*
X80175412Y-83337005D01*
X80175414Y-83337018D01*
X80243928Y-83599088D01*
X80337806Y-83820000D01*
X80349870Y-83848390D01*
X80349875Y-83848399D01*
X80490981Y-84079610D01*
X80490984Y-84079614D01*
X80664247Y-84287812D01*
X80664259Y-84287824D01*
X80865990Y-84468575D01*
X80865999Y-84468583D01*
X80978954Y-84543313D01*
X81091910Y-84618044D01*
X81337176Y-84733020D01*
X81596569Y-84811060D01*
X81864561Y-84850500D01*
X81864568Y-84850500D01*
X82067622Y-84850500D01*
X82067631Y-84850500D01*
X82270156Y-84835677D01*
X82534553Y-84776780D01*
X82787558Y-84680014D01*
X83023777Y-84547441D01*
X83238177Y-84381888D01*
X83426186Y-84186881D01*
X83583799Y-83966579D01*
X83707656Y-83725675D01*
X83795118Y-83469305D01*
X83844319Y-83202933D01*
X83854212Y-82932235D01*
X83824586Y-82662982D01*
X83756072Y-82400912D01*
X83650130Y-82151610D01*
X83593249Y-82058407D01*
X83509018Y-81920389D01*
X83509015Y-81920385D01*
X83335752Y-81712187D01*
X83335740Y-81712175D01*
X83134009Y-81531424D01*
X83134000Y-81531416D01*
X82908090Y-81381956D01*
X82662825Y-81266980D01*
X82517369Y-81223219D01*
X82403431Y-81188940D01*
X82403427Y-81188939D01*
X82403426Y-81188939D01*
X82135446Y-81149501D01*
X82135445Y-81149500D01*
X82135439Y-81149500D01*
X81932369Y-81149500D01*
X81729844Y-81164323D01*
X81729836Y-81164324D01*
X81465449Y-81223219D01*
X81465439Y-81223222D01*
X81212440Y-81319986D01*
X81212438Y-81319987D01*
X80976224Y-81452558D01*
X80976217Y-81452562D01*
X80761830Y-81618105D01*
X80761826Y-81618108D01*
X80573810Y-81813123D01*
X80416201Y-82033419D01*
X80292344Y-82274324D01*
X80292344Y-82274325D01*
X80204886Y-82530680D01*
X80204880Y-82530703D01*
X80155681Y-82797060D01*
X80155681Y-82797067D01*
X80146745Y-83041593D01*
X80145788Y-83067773D01*
X78700500Y-83067773D01*
X78700500Y-83003905D01*
X78700704Y-82996107D01*
X78711135Y-82797067D01*
X78718166Y-82662903D01*
X78719796Y-82647397D01*
X78743066Y-82500480D01*
X78771381Y-82321699D01*
X78774624Y-82306448D01*
X78859974Y-81987914D01*
X78864780Y-81973124D01*
X78982961Y-81665255D01*
X78989293Y-81651030D01*
X79139007Y-81357201D01*
X79146803Y-81343699D01*
X79162202Y-81319987D01*
X79326402Y-81067140D01*
X79335548Y-81054551D01*
X79543089Y-80798260D01*
X79553507Y-80786690D01*
X79786690Y-80553507D01*
X79798260Y-80543089D01*
X80054551Y-80335548D01*
X80067140Y-80326402D01*
X80343702Y-80146800D01*
X80357201Y-80139007D01*
X80651030Y-79989293D01*
X80665255Y-79982961D01*
X80973124Y-79864780D01*
X80987914Y-79859974D01*
X81306451Y-79774623D01*
X81321699Y-79771381D01*
X81647402Y-79719795D01*
X81662903Y-79718166D01*
X81996107Y-79700703D01*
X82003905Y-79700500D01*
X82039882Y-79700500D01*
X111960118Y-79700500D01*
X111996095Y-79700500D01*
X112003892Y-79700703D01*
G37*
%TD.AperFunction*%
%TD*%
M02*
