%TF.GenerationSoftware,KiCad,Pcbnew,7.0.10*%
%TF.CreationDate,2024-01-10T19:28:58+01:00*%
%TF.ProjectId,mold_detect,6d6f6c64-5f64-4657-9465-63742e6b6963,rev?*%
%TF.SameCoordinates,Original*%
%TF.FileFunction,Copper,L1,Top*%
%TF.FilePolarity,Positive*%
%FSLAX46Y46*%
G04 Gerber Fmt 4.6, Leading zero omitted, Abs format (unit mm)*
G04 Created by KiCad (PCBNEW 7.0.10) date 2024-01-10 19:28:58*
%MOMM*%
%LPD*%
G01*
G04 APERTURE LIST*
G04 Aperture macros list*
%AMRoundRect*
0 Rectangle with rounded corners*
0 $1 Rounding radius*
0 $2 $3 $4 $5 $6 $7 $8 $9 X,Y pos of 4 corners*
0 Add a 4 corners polygon primitive as box body*
4,1,4,$2,$3,$4,$5,$6,$7,$8,$9,$2,$3,0*
0 Add four circle primitives for the rounded corners*
1,1,$1+$1,$2,$3*
1,1,$1+$1,$4,$5*
1,1,$1+$1,$6,$7*
1,1,$1+$1,$8,$9*
0 Add four rect primitives between the rounded corners*
20,1,$1+$1,$2,$3,$4,$5,0*
20,1,$1+$1,$4,$5,$6,$7,0*
20,1,$1+$1,$6,$7,$8,$9,0*
20,1,$1+$1,$8,$9,$2,$3,0*%
%AMFreePoly0*
4,1,6,0.500000,-0.850000,-0.500000,-0.850000,-0.500000,0.550000,-0.200000,0.850000,0.500000,0.850000,0.500000,-0.850000,0.500000,-0.850000,$1*%
G04 Aperture macros list end*
%TA.AperFunction,ComponentPad*%
%ADD10R,2.000000X2.000000*%
%TD*%
%TA.AperFunction,ComponentPad*%
%ADD11C,2.000000*%
%TD*%
%TA.AperFunction,SMDPad,CuDef*%
%ADD12RoundRect,0.200000X0.275000X-0.200000X0.275000X0.200000X-0.275000X0.200000X-0.275000X-0.200000X0*%
%TD*%
%TA.AperFunction,SMDPad,CuDef*%
%ADD13R,0.550000X0.250000*%
%TD*%
%TA.AperFunction,SMDPad,CuDef*%
%ADD14FreePoly0,180.000000*%
%TD*%
%TA.AperFunction,SMDPad,CuDef*%
%ADD15RoundRect,0.200000X-0.275000X0.200000X-0.275000X-0.200000X0.275000X-0.200000X0.275000X0.200000X0*%
%TD*%
%TA.AperFunction,SMDPad,CuDef*%
%ADD16RoundRect,0.200000X0.200000X0.275000X-0.200000X0.275000X-0.200000X-0.275000X0.200000X-0.275000X0*%
%TD*%
%TA.AperFunction,SMDPad,CuDef*%
%ADD17RoundRect,0.150000X-0.150000X0.650000X-0.150000X-0.650000X0.150000X-0.650000X0.150000X0.650000X0*%
%TD*%
%TA.AperFunction,ComponentPad*%
%ADD18R,1.800000X1.800000*%
%TD*%
%TA.AperFunction,ComponentPad*%
%ADD19C,1.800000*%
%TD*%
%TA.AperFunction,ComponentPad*%
%ADD20R,1.700000X1.700000*%
%TD*%
%TA.AperFunction,ComponentPad*%
%ADD21O,1.700000X1.700000*%
%TD*%
%TA.AperFunction,SMDPad,CuDef*%
%ADD22R,2.160000X1.120000*%
%TD*%
%TA.AperFunction,SMDPad,CuDef*%
%ADD23RoundRect,0.125000X-0.125000X-0.125000X0.125000X-0.125000X0.125000X0.125000X-0.125000X0.125000X0*%
%TD*%
%TA.AperFunction,SMDPad,CuDef*%
%ADD24RoundRect,0.150000X-0.512500X-0.150000X0.512500X-0.150000X0.512500X0.150000X-0.512500X0.150000X0*%
%TD*%
%TA.AperFunction,ComponentPad*%
%ADD25O,1.600000X1.600000*%
%TD*%
%TA.AperFunction,ComponentPad*%
%ADD26R,1.600000X1.600000*%
%TD*%
%TA.AperFunction,SMDPad,CuDef*%
%ADD27RoundRect,0.200000X-0.200000X-0.275000X0.200000X-0.275000X0.200000X0.275000X-0.200000X0.275000X0*%
%TD*%
%TA.AperFunction,SMDPad,CuDef*%
%ADD28RoundRect,0.250000X0.475000X-0.250000X0.475000X0.250000X-0.475000X0.250000X-0.475000X-0.250000X0*%
%TD*%
%TA.AperFunction,SMDPad,CuDef*%
%ADD29RoundRect,0.250000X0.250000X0.475000X-0.250000X0.475000X-0.250000X-0.475000X0.250000X-0.475000X0*%
%TD*%
%TA.AperFunction,ViaPad*%
%ADD30C,1.100000*%
%TD*%
%TA.AperFunction,Conductor*%
%ADD31C,0.300000*%
%TD*%
%TA.AperFunction,Conductor*%
%ADD32C,0.500000*%
%TD*%
G04 APERTURE END LIST*
D10*
%TO.P,BT1,1,+*%
%TO.N,Net-(BT1-+)*%
X98350000Y-89600000D03*
D11*
%TO.P,BT1,2,-*%
%TO.N,GND*%
X85650000Y-89600000D03*
%TD*%
D12*
%TO.P,R3,1*%
%TO.N,Net-(U2-DELAY{slash}M_RST)*%
X90000000Y-83825000D03*
%TO.P,R3,2*%
%TO.N,GND*%
X90000000Y-82175000D03*
%TD*%
D13*
%TO.P,U1,1,SDA*%
%TO.N,SDA*%
X91725000Y-144350000D03*
%TO.P,U1,2,ADDR*%
%TO.N,GND*%
X91725000Y-143850000D03*
%TO.P,U1,3,ALERT*%
%TO.N,unconnected-(U1-ALERT-Pad3)*%
X91725000Y-143350000D03*
%TO.P,U1,4,SCL*%
%TO.N,SCL*%
X91725000Y-142850000D03*
%TO.P,U1,5,VDD*%
%TO.N,+3V0*%
X89375000Y-142850000D03*
%TO.P,U1,6,~{RESET}*%
%TO.N,unconnected-(U1-~{RESET}-Pad6)*%
X89375000Y-143350000D03*
%TO.P,U1,7,R*%
%TO.N,GND*%
X89375000Y-143850000D03*
%TO.P,U1,8,VSS*%
X89375000Y-144350000D03*
D14*
%TO.P,U1,9,VSS*%
X90550000Y-143600000D03*
%TD*%
D12*
%TO.P,R6,1*%
%TO.N,+3V0*%
X93075000Y-146000000D03*
%TO.P,R6,2*%
%TO.N,SDA*%
X93075000Y-144350000D03*
%TD*%
D15*
%TO.P,R5,1*%
%TO.N,+3V0*%
X93075000Y-141300000D03*
%TO.P,R5,2*%
%TO.N,SCL*%
X93075000Y-142950000D03*
%TD*%
D16*
%TO.P,R4,1*%
%TO.N,+3V0*%
X107250000Y-91557107D03*
%TO.P,R4,2*%
%TO.N,RST*%
X105600000Y-91557107D03*
%TD*%
D17*
%TO.P,U4,1,~{CS}*%
%TO.N,FLASH_CS*%
X111805000Y-131082500D03*
%TO.P,U4,2,DO(IO1)*%
%TO.N,MISO*%
X110535000Y-131082500D03*
%TO.P,U4,3,IO2*%
%TO.N,+3V0*%
X109265000Y-131082500D03*
%TO.P,U4,4,GND*%
%TO.N,GND*%
X107995000Y-131082500D03*
%TO.P,U4,5,DI(IO0)*%
%TO.N,MOSI*%
X107995000Y-138282500D03*
%TO.P,U4,6,CLK*%
%TO.N,SCK*%
X109265000Y-138282500D03*
%TO.P,U4,7,IO3*%
%TO.N,+3V0*%
X110535000Y-138282500D03*
%TO.P,U4,8,VCC*%
X111805000Y-138282500D03*
%TD*%
D18*
%TO.P,Red1,1,K*%
%TO.N,Net-(Red1-K)*%
X97200000Y-144975000D03*
D19*
%TO.P,Red1,2,A*%
%TO.N,HUM_LED*%
X97200000Y-142435000D03*
%TD*%
D20*
%TO.P,J2,1,Pin_1*%
%TO.N,+3V0*%
X106700000Y-88900000D03*
D21*
%TO.P,J2,2,Pin_2*%
%TO.N,GND*%
X106700000Y-86360000D03*
%TO.P,J2,3,Pin_3*%
%TO.N,RXD*%
X106700000Y-83820000D03*
%TO.P,J2,4,Pin_4*%
%TO.N,TXD*%
X106700000Y-81280000D03*
%TD*%
D22*
%TO.P,SW1,1,A*%
%TO.N,Net-(SW1-A)*%
X96535000Y-82400000D03*
%TO.P,SW1,2,B*%
%TO.N,RST*%
X103265000Y-82400000D03*
%TD*%
D18*
%TO.P,Blue1,1,K*%
%TO.N,Net-(Blue1-K)*%
X105400000Y-144975000D03*
D19*
%TO.P,Blue1,2,A*%
%TO.N,TEMP_LED*%
X105400000Y-142435000D03*
%TD*%
D23*
%TO.P,D1,1,K*%
%TO.N,+3V0*%
X89600000Y-85500000D03*
%TO.P,D1,2,A*%
%TO.N,Net-(BT1-+)*%
X91800000Y-85500000D03*
%TD*%
D16*
%TO.P,R2,1*%
%TO.N,Net-(Blue1-K)*%
X102425000Y-145400000D03*
%TO.P,R2,2*%
%TO.N,GND*%
X100775000Y-145400000D03*
%TD*%
D24*
%TO.P,U2,1,VDD*%
%TO.N,+3V0*%
X91762500Y-81800000D03*
%TO.P,U2,2,GND*%
%TO.N,GND*%
X91762500Y-82750000D03*
%TO.P,U2,3,DELAY/M_RST*%
%TO.N,Net-(U2-DELAY{slash}M_RST)*%
X91762500Y-83700000D03*
%TO.P,U2,4,DONE*%
%TO.N,DONE*%
X94037500Y-83700000D03*
%TO.P,U2,5,WAKE*%
%TO.N,WAKE_INTR*%
X94037500Y-82750000D03*
%TO.P,U2,6,~{RST}*%
%TO.N,Net-(SW1-A)*%
X94037500Y-81800000D03*
%TD*%
D25*
%TO.P,U3,28,PC5*%
%TO.N,SCL*%
X113645000Y-93917107D03*
%TO.P,U3,27,PC4*%
%TO.N,SDA*%
X113645000Y-96457107D03*
%TO.P,U3,26,PC3*%
%TO.N,unconnected-(U3-PC3-Pad26)*%
X113645000Y-98997107D03*
%TO.P,U3,25,PC2*%
%TO.N,unconnected-(U3-PC2-Pad25)*%
X113645000Y-101537107D03*
%TO.P,U3,24,PC1*%
%TO.N,unconnected-(U3-PC1-Pad24)*%
X113645000Y-104077107D03*
%TO.P,U3,23,PC0*%
%TO.N,unconnected-(U3-PC0-Pad23)*%
X113645000Y-106617107D03*
%TO.P,U3,22,GND*%
%TO.N,GND*%
X113645000Y-109157107D03*
%TO.P,U3,21,AREF*%
%TO.N,unconnected-(U3-AREF-Pad21)*%
X113645000Y-111697107D03*
%TO.P,U3,20,AVCC*%
%TO.N,unconnected-(U3-AVCC-Pad20)*%
X113645000Y-114237107D03*
%TO.P,U3,19,PB5*%
%TO.N,SCK*%
X113645000Y-116777107D03*
%TO.P,U3,18,PB4*%
%TO.N,MISO*%
X113645000Y-119317107D03*
%TO.P,U3,17,PB3*%
%TO.N,MOSI*%
X113645000Y-121857107D03*
%TO.P,U3,16,PB2*%
%TO.N,unconnected-(U3-PB2-Pad16)*%
X113645000Y-124397107D03*
%TO.P,U3,15,PB1*%
%TO.N,FLASH_CS*%
X113645000Y-126937107D03*
%TO.P,U3,14,PB0*%
%TO.N,unconnected-(U3-PB0-Pad14)*%
X106025000Y-126937107D03*
%TO.P,U3,13,PD7*%
%TO.N,unconnected-(U3-PD7-Pad13)*%
X106025000Y-124397107D03*
%TO.P,U3,12,PD6*%
%TO.N,TEMP_LED*%
X106025000Y-121857107D03*
%TO.P,U3,11,PD5*%
%TO.N,HUM_LED*%
X106025000Y-119317107D03*
%TO.P,U3,10,XTAL2/PB7*%
%TO.N,unconnected-(U3-XTAL2{slash}PB7-Pad10)*%
X106025000Y-116777107D03*
%TO.P,U3,9,XTAL1/PB6*%
%TO.N,unconnected-(U3-XTAL1{slash}PB6-Pad9)*%
X106025000Y-114237107D03*
%TO.P,U3,8,GND*%
%TO.N,GND*%
X106025000Y-111697107D03*
%TO.P,U3,7,VCC*%
%TO.N,+3V0*%
X106025000Y-109157107D03*
%TO.P,U3,6,PD4*%
%TO.N,unconnected-(U3-PD4-Pad6)*%
X106025000Y-106617107D03*
%TO.P,U3,5,PD3*%
%TO.N,DONE*%
X106025000Y-104077107D03*
%TO.P,U3,4,PD2*%
%TO.N,WAKE_INTR*%
X106025000Y-101537107D03*
%TO.P,U3,3,PD1*%
%TO.N,TXD*%
X106025000Y-98997107D03*
%TO.P,U3,2,PD0*%
%TO.N,RXD*%
X106025000Y-96457107D03*
D26*
%TO.P,U3,1,~{RESET}/PC6*%
%TO.N,RST*%
X106025000Y-93917107D03*
%TD*%
D27*
%TO.P,R1,1*%
%TO.N,Net-(Red1-K)*%
X100175000Y-143800000D03*
%TO.P,R1,2*%
%TO.N,GND*%
X101825000Y-143800000D03*
%TD*%
D28*
%TO.P,C1,1*%
%TO.N,GND*%
X87775000Y-144590000D03*
%TO.P,C1,2*%
%TO.N,+3V0*%
X87775000Y-142690000D03*
%TD*%
D29*
%TO.P,C2,1*%
%TO.N,+3V0*%
X87950000Y-85500000D03*
%TO.P,C2,2*%
%TO.N,GND*%
X86050000Y-85500000D03*
%TD*%
D30*
%TO.N,GND*%
X89600000Y-145750000D03*
X88600000Y-82850000D03*
X108835000Y-129400000D03*
X101800000Y-142200000D03*
X108700000Y-87400000D03*
%TD*%
D31*
%TO.N,WAKE_INTR*%
X94602684Y-82750000D02*
X94037500Y-82750000D01*
X95852684Y-84000000D02*
X94602684Y-82750000D01*
X98900000Y-84000000D02*
X95852684Y-84000000D01*
X103400000Y-88500000D02*
X98900000Y-84000000D01*
X103400000Y-98847107D02*
X103400000Y-88500000D01*
X106090000Y-101537107D02*
X103400000Y-98847107D01*
%TO.N,DONE*%
X94037500Y-83700000D02*
X94400000Y-83700000D01*
X94400000Y-83700000D02*
X95800000Y-85100000D01*
X97500000Y-85100000D02*
X101800000Y-89400000D01*
X95800000Y-85100000D02*
X97500000Y-85100000D01*
X101800000Y-89400000D02*
X101800000Y-99787107D01*
X101800000Y-99787107D02*
X106090000Y-104077107D01*
%TO.N,RST*%
X103265000Y-82400000D02*
X103200000Y-82465000D01*
X103200000Y-82465000D02*
X103200000Y-86100000D01*
X103200000Y-86100000D02*
X104300000Y-87200000D01*
X104300000Y-87200000D02*
X104300000Y-90192107D01*
X104300000Y-90192107D02*
X105665000Y-91557107D01*
%TO.N,FLASH_CS*%
X113645000Y-126937107D02*
X113645000Y-130155000D01*
X113645000Y-130155000D02*
X112717500Y-131082500D01*
X112717500Y-131082500D02*
X111805000Y-131082500D01*
%TO.N,MOSI*%
X107995000Y-138282500D02*
X107995000Y-136895000D01*
X107995000Y-136895000D02*
X106535000Y-135435000D01*
X106535000Y-135435000D02*
X106535000Y-130285786D01*
X106535000Y-130285786D02*
X111335000Y-125485786D01*
X111335000Y-125485786D02*
X111335000Y-124167107D01*
X111335000Y-124167107D02*
X113645000Y-121857107D01*
D32*
%TO.N,GND*%
X89600000Y-145750000D02*
X87775000Y-145750000D01*
X87775000Y-145750000D02*
X87775000Y-144590000D01*
%TO.N,+3V0*%
X93075000Y-146000000D02*
X93975000Y-146900000D01*
X93975000Y-146900000D02*
X106200000Y-146900000D01*
X106300000Y-146800000D02*
X107800000Y-145300000D01*
X107800000Y-145300000D02*
X107800000Y-141817499D01*
X107800000Y-141817499D02*
X110535000Y-139082499D01*
X110535000Y-139082499D02*
X110535000Y-138282500D01*
X106090000Y-109157107D02*
X98357107Y-109157107D01*
X98357107Y-109157107D02*
X93600000Y-104400000D01*
X93600000Y-104400000D02*
X87275062Y-104400000D01*
%TO.N,Net-(Blue1-K)*%
X104975000Y-145400000D02*
X105400000Y-144975000D01*
X102425000Y-145400000D02*
X104975000Y-145400000D01*
%TO.N,Net-(Red1-K)*%
X100175000Y-143800000D02*
X98375000Y-143800000D01*
X98375000Y-143800000D02*
X97200000Y-144975000D01*
D31*
%TO.N,TEMP_LED*%
X103300000Y-124647107D02*
X106090000Y-121857107D01*
X103300000Y-124647107D02*
X103300000Y-140335000D01*
X103300000Y-140335000D02*
X105400000Y-142435000D01*
%TO.N,MISO*%
X113645000Y-119317107D02*
X114895000Y-120567107D01*
X110535000Y-127847107D02*
X110535000Y-131082500D01*
X114162767Y-125647107D02*
X112735000Y-125647107D01*
X112735000Y-125647107D02*
X110535000Y-127847107D01*
X114895000Y-124914874D02*
X114162767Y-125647107D01*
X114895000Y-120567107D02*
X114895000Y-124914874D01*
%TO.N,SCK*%
X109265000Y-139082499D02*
X108814999Y-139532500D01*
X106767500Y-139532500D02*
X105635000Y-138400000D01*
X109035000Y-121387107D02*
X113645000Y-116777107D01*
X109265000Y-138282500D02*
X109265000Y-139082499D01*
X108814999Y-139532500D02*
X106767500Y-139532500D01*
X109035000Y-126500000D02*
X109035000Y-121387107D01*
X105635000Y-138400000D02*
X105635000Y-129900000D01*
X105635000Y-129900000D02*
X109035000Y-126500000D01*
%TO.N,RST*%
X105600000Y-91557107D02*
X105600000Y-93492107D01*
X105600000Y-93492107D02*
X106025000Y-93917107D01*
D32*
%TO.N,+3V0*%
X87775000Y-142690000D02*
X87790000Y-142675000D01*
X87425000Y-146850000D02*
X86125000Y-145550000D01*
X87775000Y-142690000D02*
X89310000Y-142690000D01*
X87450062Y-85000062D02*
X87450062Y-82269572D01*
X87950000Y-85500000D02*
X87450062Y-85000062D01*
X91800000Y-80050000D02*
X103490101Y-80050000D01*
X87275062Y-86174938D02*
X87950000Y-85500000D01*
X87275062Y-142190062D02*
X87275062Y-104400000D01*
X110535000Y-138282500D02*
X111805000Y-138282500D01*
X93075000Y-141300000D02*
X90830000Y-141300000D01*
X103490101Y-80050000D02*
X105300000Y-81859899D01*
X90830000Y-141300000D02*
X89375000Y-142755000D01*
X89310000Y-142690000D02*
X89375000Y-142755000D01*
X110535000Y-135317500D02*
X109265000Y-134047500D01*
X91762500Y-80087500D02*
X91800000Y-80050000D01*
X93075000Y-146000000D02*
X92225000Y-146850000D01*
X86125000Y-142730000D02*
X86165000Y-142690000D01*
X86125000Y-145550000D02*
X86125000Y-142730000D01*
X91762500Y-81800000D02*
X91762500Y-80087500D01*
X87450062Y-82269572D02*
X89669634Y-80050000D01*
X86165000Y-142690000D02*
X87775000Y-142690000D01*
X107315000Y-91557107D02*
X107315000Y-89515000D01*
X89669634Y-80050000D02*
X91800000Y-80050000D01*
X105300000Y-87500000D02*
X106700000Y-88900000D01*
X107315000Y-89515000D02*
X106700000Y-88900000D01*
X87775000Y-142690000D02*
X87275062Y-142190062D01*
X110535000Y-138282500D02*
X110535000Y-135317500D01*
X87275062Y-104400000D02*
X87275062Y-86174938D01*
X89600000Y-85500000D02*
X87950000Y-85500000D01*
X92225000Y-146850000D02*
X87425000Y-146850000D01*
X105300000Y-81859899D02*
X105300000Y-87500000D01*
X109265000Y-134047500D02*
X109265000Y-131082500D01*
D31*
%TO.N,HUM_LED*%
X101300000Y-124107107D02*
X106090000Y-119317107D01*
X101300000Y-138335000D02*
X97200000Y-142435000D01*
X101300000Y-124107107D02*
X101300000Y-138335000D01*
D32*
%TO.N,Net-(BT1-+)*%
X95900000Y-89600000D02*
X98350000Y-89600000D01*
X91800000Y-85500000D02*
X95900000Y-89600000D01*
%TO.N,GND*%
X107660000Y-86360000D02*
X108700000Y-87400000D01*
X86050000Y-89200000D02*
X85650000Y-89600000D01*
X106700000Y-86360000D02*
X107660000Y-86360000D01*
X87775000Y-144590000D02*
X89135000Y-144590000D01*
D31*
X89275000Y-82175000D02*
X90000000Y-82175000D01*
D32*
X90205000Y-143945000D02*
X89375000Y-143945000D01*
X89375000Y-144350000D02*
X89375000Y-143945000D01*
X101825000Y-143800000D02*
X101825000Y-142225000D01*
X100775000Y-145400000D02*
X100775000Y-144850000D01*
X100775000Y-144850000D02*
X101825000Y-143800000D01*
D31*
X88600000Y-82850000D02*
X89275000Y-82175000D01*
X90550000Y-143600000D02*
X90795000Y-143845000D01*
D32*
X90550000Y-143600000D02*
X90205000Y-143945000D01*
D31*
X90575000Y-82750000D02*
X90000000Y-82175000D01*
D32*
X107995000Y-131082500D02*
X107995000Y-130240000D01*
X89135000Y-144590000D02*
X89375000Y-144350000D01*
X86050000Y-85500000D02*
X86050000Y-89200000D01*
X107995000Y-130240000D02*
X108835000Y-129400000D01*
X101825000Y-142225000D02*
X101800000Y-142200000D01*
D31*
X91762500Y-82750000D02*
X90575000Y-82750000D01*
X90795000Y-143845000D02*
X91494609Y-143845000D01*
%TO.N,Net-(U2-DELAY{slash}M_RST)*%
X91762500Y-83700000D02*
X90125000Y-83700000D01*
X90125000Y-83700000D02*
X90000000Y-83825000D01*
%TO.N,SCL*%
X110225000Y-97337107D02*
X110225000Y-111804874D01*
X105112893Y-115487107D02*
X97200000Y-123400000D01*
X113645000Y-93917107D02*
X110225000Y-97337107D01*
X91725000Y-142850000D02*
X92975000Y-142850000D01*
X93225000Y-142850000D02*
X93325000Y-142950000D01*
X92975000Y-142850000D02*
X93075000Y-142950000D01*
X110225000Y-111804874D02*
X106542767Y-115487107D01*
X97200000Y-138825000D02*
X93075000Y-142950000D01*
X97200000Y-123400000D02*
X97200000Y-138825000D01*
X106542767Y-115487107D02*
X105047893Y-115487107D01*
%TO.N,SDA*%
X111525000Y-113044874D02*
X106542767Y-118027107D01*
X99400000Y-123900000D02*
X99400000Y-138025000D01*
X91725000Y-144350000D02*
X93075000Y-144350000D01*
X111525000Y-98577107D02*
X111525000Y-113044874D01*
X113645000Y-96457107D02*
X111525000Y-98577107D01*
X106542767Y-118027107D02*
X105207893Y-118027107D01*
X105272893Y-118027107D02*
X99400000Y-123900000D01*
X99400000Y-138025000D02*
X93075000Y-144350000D01*
%TO.N,RXD*%
X109935000Y-92547107D02*
X106025000Y-96457107D01*
X110000000Y-87120000D02*
X110000000Y-92547107D01*
X106700000Y-83820000D02*
X110000000Y-87120000D01*
%TO.N,TXD*%
X112000000Y-88200000D02*
X112000000Y-93087107D01*
X108300000Y-84500000D02*
X112000000Y-88200000D01*
X111935000Y-93087107D02*
X106025000Y-98997107D01*
X106700000Y-81280000D02*
X108300000Y-82880000D01*
X108300000Y-82880000D02*
X108300000Y-84500000D01*
%TO.N,Net-(SW1-A)*%
X95935000Y-81800000D02*
X96535000Y-82400000D01*
X94037500Y-81800000D02*
X95935000Y-81800000D01*
%TD*%
M02*
