%TF.GenerationSoftware,KiCad,Pcbnew,7.0.10*%
%TF.CreationDate,2024-01-15T09:17:33+01:00*%
%TF.ProjectId,mold_detect,6d6f6c64-5f64-4657-9465-63742e6b6963,rev?*%
%TF.SameCoordinates,Original*%
%TF.FileFunction,Soldermask,Top*%
%TF.FilePolarity,Negative*%
%FSLAX46Y46*%
G04 Gerber Fmt 4.6, Leading zero omitted, Abs format (unit mm)*
G04 Created by KiCad (PCBNEW 7.0.10) date 2024-01-15 09:17:33*
%MOMM*%
%LPD*%
G01*
G04 APERTURE LIST*
G04 Aperture macros list*
%AMRoundRect*
0 Rectangle with rounded corners*
0 $1 Rounding radius*
0 $2 $3 $4 $5 $6 $7 $8 $9 X,Y pos of 4 corners*
0 Add a 4 corners polygon primitive as box body*
4,1,4,$2,$3,$4,$5,$6,$7,$8,$9,$2,$3,0*
0 Add four circle primitives for the rounded corners*
1,1,$1+$1,$2,$3*
1,1,$1+$1,$4,$5*
1,1,$1+$1,$6,$7*
1,1,$1+$1,$8,$9*
0 Add four rect primitives between the rounded corners*
20,1,$1+$1,$2,$3,$4,$5,0*
20,1,$1+$1,$4,$5,$6,$7,0*
20,1,$1+$1,$6,$7,$8,$9,0*
20,1,$1+$1,$8,$9,$2,$3,0*%
%AMFreePoly0*
4,1,6,0.500000,-0.850000,-0.500000,-0.850000,-0.500000,0.550000,-0.200000,0.850000,0.500000,0.850000,0.500000,-0.850000,0.500000,-0.850000,$1*%
G04 Aperture macros list end*
%ADD10RoundRect,0.250000X-0.250000X0.250000X-0.250000X-0.250000X0.250000X-0.250000X0.250000X0.250000X0*%
%ADD11RoundRect,0.237500X0.250000X0.237500X-0.250000X0.237500X-0.250000X-0.237500X0.250000X-0.237500X0*%
%ADD12RoundRect,0.237500X-0.250000X-0.237500X0.250000X-0.237500X0.250000X0.237500X-0.250000X0.237500X0*%
%ADD13RoundRect,0.237500X0.237500X-0.250000X0.237500X0.250000X-0.237500X0.250000X-0.237500X-0.250000X0*%
%ADD14RoundRect,0.237500X-0.237500X0.250000X-0.237500X-0.250000X0.237500X-0.250000X0.237500X0.250000X0*%
%ADD15RoundRect,0.237500X-0.237500X0.300000X-0.237500X-0.300000X0.237500X-0.300000X0.237500X0.300000X0*%
%ADD16RoundRect,0.237500X0.237500X-0.300000X0.237500X0.300000X-0.237500X0.300000X-0.237500X-0.300000X0*%
%ADD17O,1.000000X1.800000*%
%ADD18O,1.000000X2.100000*%
%ADD19RoundRect,0.150000X0.150000X0.425000X-0.150000X0.425000X-0.150000X-0.425000X0.150000X-0.425000X0*%
%ADD20RoundRect,0.075000X0.075000X0.500000X-0.075000X0.500000X-0.075000X-0.500000X0.075000X-0.500000X0*%
%ADD21C,0.650000*%
%ADD22R,0.400000X1.200000*%
%ADD23C,3.450000*%
%ADD24R,2.000000X2.000000*%
%ADD25C,2.000000*%
%ADD26R,0.550000X0.250000*%
%ADD27FreePoly0,180.000000*%
%ADD28C,3.200000*%
%ADD29RoundRect,0.150000X-0.150000X0.650000X-0.150000X-0.650000X0.150000X-0.650000X0.150000X0.650000X0*%
%ADD30R,1.800000X1.800000*%
%ADD31C,1.800000*%
%ADD32RoundRect,0.150000X0.512500X0.150000X-0.512500X0.150000X-0.512500X-0.150000X0.512500X-0.150000X0*%
%ADD33O,1.600000X1.600000*%
%ADD34R,1.600000X1.600000*%
%ADD35C,1.100000*%
G04 APERTURE END LIST*
D10*
%TO.C,D1*%
X105900000Y-86100000D03*
X105900000Y-88600000D03*
%TD*%
D11*
%TO.C,R8*%
X99112500Y-85700000D03*
X97287500Y-85700000D03*
%TD*%
D12*
%TO.C,R7*%
X102087500Y-85700000D03*
X103912500Y-85700000D03*
%TD*%
D13*
%TO.C,R6*%
X93075000Y-146512500D03*
X93075000Y-144687500D03*
%TD*%
D14*
%TO.C,R5*%
X93075000Y-141287500D03*
X93075000Y-143112500D03*
%TD*%
D11*
%TO.C,R4*%
X107462500Y-91550000D03*
X105637500Y-91550000D03*
%TD*%
D14*
%TO.C,R3*%
X113550000Y-88137500D03*
X113550000Y-89962500D03*
%TD*%
D11*
%TO.C,R2*%
X102262500Y-145300000D03*
X100437500Y-145300000D03*
%TD*%
D12*
%TO.C,R1*%
X100337500Y-143550000D03*
X102162500Y-143550000D03*
%TD*%
D15*
%TO.C,C3*%
X88150000Y-82587500D03*
X88150000Y-84312500D03*
%TD*%
D16*
%TO.C,C1*%
X88050000Y-144362500D03*
X88050000Y-142637500D03*
%TD*%
D17*
%TO.C,J1*%
X96280000Y-79070000D03*
D18*
X96280000Y-83250000D03*
D17*
X104920000Y-79070000D03*
D18*
X104920000Y-83250000D03*
D19*
X103800000Y-83825000D03*
X103000000Y-83825000D03*
D20*
X102350000Y-83825000D03*
X101350000Y-83825000D03*
X99850000Y-83825000D03*
X98850000Y-83825000D03*
D19*
X98200000Y-83825000D03*
X97400000Y-83825000D03*
X97400000Y-83825000D03*
X98200000Y-83825000D03*
D20*
X99350000Y-83825000D03*
X100350000Y-83825000D03*
X100850000Y-83825000D03*
X101850000Y-83825000D03*
D19*
X103000000Y-83825000D03*
X103800000Y-83825000D03*
D21*
X97710000Y-82750000D03*
X103490000Y-82750000D03*
%TD*%
D22*
%TO.C,U5*%
X89577500Y-79950000D03*
X90212500Y-79950000D03*
X90847500Y-79950000D03*
X91482500Y-79950000D03*
X92117500Y-79950000D03*
X92752500Y-79950000D03*
X93387500Y-79950000D03*
X94022500Y-79950000D03*
X94022500Y-85150000D03*
X93387500Y-85150000D03*
X92752500Y-85150000D03*
X92117500Y-85150000D03*
X91482500Y-85150000D03*
X90847500Y-85150000D03*
X90212500Y-85150000D03*
X89577500Y-85150000D03*
%TD*%
D23*
%TO.C,BT1*%
X89650000Y-128210000D03*
D24*
X98350000Y-89600000D03*
D25*
X85650000Y-89600000D03*
%TD*%
D26*
%TO.C,U1*%
X91725000Y-144350000D03*
X91725000Y-143850000D03*
X91725000Y-143350000D03*
X91725000Y-142850000D03*
X89375000Y-142850000D03*
X89375000Y-143350000D03*
X89375000Y-143850000D03*
X89375000Y-144350000D03*
D27*
X90550000Y-143600000D03*
%TD*%
D28*
%TO.C,H4*%
X112000000Y-81000000D03*
%TD*%
D29*
%TO.C,U4*%
X111805000Y-131082500D03*
X110535000Y-131082500D03*
X109265000Y-131082500D03*
X107995000Y-131082500D03*
X107995000Y-138282500D03*
X109265000Y-138282500D03*
X110535000Y-138282500D03*
X111805000Y-138282500D03*
%TD*%
D30*
%TO.C,Red1*%
X97200000Y-144975000D03*
D31*
X97200000Y-142435000D03*
%TD*%
D30*
%TO.C,Blue1*%
X105400000Y-144975000D03*
D31*
X105400000Y-142435000D03*
%TD*%
D28*
%TO.C,H1*%
X82000000Y-144000000D03*
%TD*%
D32*
%TO.C,U2*%
X109512500Y-90250000D03*
X109512500Y-89300000D03*
X109512500Y-88350000D03*
X111787500Y-88350000D03*
X111787500Y-89300000D03*
X111787500Y-90250000D03*
%TD*%
D28*
%TO.C,H2*%
X82000000Y-81000000D03*
%TD*%
%TO.C,H3*%
X112000000Y-144000000D03*
%TD*%
D33*
%TO.C,U3*%
X113645000Y-93917107D03*
X113645000Y-96457107D03*
X113645000Y-98997107D03*
X113645000Y-101537107D03*
X113645000Y-104077107D03*
X113645000Y-106617107D03*
X113645000Y-109157107D03*
X113645000Y-111697107D03*
X113645000Y-114237107D03*
X113645000Y-116777107D03*
X113645000Y-119317107D03*
X113645000Y-121857107D03*
X113645000Y-124397107D03*
X113645000Y-126937107D03*
X106025000Y-126937107D03*
X106025000Y-124397107D03*
X106025000Y-121857107D03*
X106025000Y-119317107D03*
X106025000Y-116777107D03*
X106025000Y-114237107D03*
X106025000Y-111697107D03*
X106025000Y-109157107D03*
X106025000Y-106617107D03*
X106025000Y-104077107D03*
X106025000Y-101537107D03*
X106025000Y-98997107D03*
X106025000Y-96457107D03*
D34*
X106025000Y-93917107D03*
%TD*%
D35*
X99250000Y-79900000D03*
X94650000Y-78300000D03*
X97250000Y-81700000D03*
X100550000Y-81638603D03*
X103950000Y-110100000D03*
X109500000Y-92650000D03*
X106565739Y-92538702D03*
X113600000Y-91400000D03*
X92800000Y-82600000D03*
X89600000Y-145750000D03*
X108835000Y-129400000D03*
X102500000Y-142000000D03*
M02*
