%TF.GenerationSoftware,KiCad,Pcbnew,8.0.1*%
%TF.CreationDate,2024-04-11T17:25:42+02:00*%
%TF.ProjectId,mold_detect,6d6f6c64-5f64-4657-9465-63742e6b6963,rev?*%
%TF.SameCoordinates,Original*%
%TF.FileFunction,Legend,Bot*%
%TF.FilePolarity,Positive*%
%FSLAX46Y46*%
G04 Gerber Fmt 4.6, Leading zero omitted, Abs format (unit mm)*
G04 Created by KiCad (PCBNEW 8.0.1) date 2024-04-11 17:25:42*
%MOMM*%
%LPD*%
G01*
G04 APERTURE LIST*
%ADD10C,0.150000*%
%ADD11C,0.120000*%
G04 APERTURE END LIST*
D10*
X63999166Y-69584580D02*
X64046785Y-69632200D01*
X64046785Y-69632200D02*
X64189642Y-69679819D01*
X64189642Y-69679819D02*
X64284880Y-69679819D01*
X64284880Y-69679819D02*
X64427737Y-69632200D01*
X64427737Y-69632200D02*
X64522975Y-69536961D01*
X64522975Y-69536961D02*
X64570594Y-69441723D01*
X64570594Y-69441723D02*
X64618213Y-69251247D01*
X64618213Y-69251247D02*
X64618213Y-69108390D01*
X64618213Y-69108390D02*
X64570594Y-68917914D01*
X64570594Y-68917914D02*
X64522975Y-68822676D01*
X64522975Y-68822676D02*
X64427737Y-68727438D01*
X64427737Y-68727438D02*
X64284880Y-68679819D01*
X64284880Y-68679819D02*
X64189642Y-68679819D01*
X64189642Y-68679819D02*
X64046785Y-68727438D01*
X64046785Y-68727438D02*
X63999166Y-68775057D01*
X63094404Y-68679819D02*
X63570594Y-68679819D01*
X63570594Y-68679819D02*
X63618213Y-69156009D01*
X63618213Y-69156009D02*
X63570594Y-69108390D01*
X63570594Y-69108390D02*
X63475356Y-69060771D01*
X63475356Y-69060771D02*
X63237261Y-69060771D01*
X63237261Y-69060771D02*
X63142023Y-69108390D01*
X63142023Y-69108390D02*
X63094404Y-69156009D01*
X63094404Y-69156009D02*
X63046785Y-69251247D01*
X63046785Y-69251247D02*
X63046785Y-69489342D01*
X63046785Y-69489342D02*
X63094404Y-69584580D01*
X63094404Y-69584580D02*
X63142023Y-69632200D01*
X63142023Y-69632200D02*
X63237261Y-69679819D01*
X63237261Y-69679819D02*
X63475356Y-69679819D01*
X63475356Y-69679819D02*
X63570594Y-69632200D01*
X63570594Y-69632200D02*
X63618213Y-69584580D01*
X102591666Y-65359580D02*
X102639285Y-65407200D01*
X102639285Y-65407200D02*
X102782142Y-65454819D01*
X102782142Y-65454819D02*
X102877380Y-65454819D01*
X102877380Y-65454819D02*
X103020237Y-65407200D01*
X103020237Y-65407200D02*
X103115475Y-65311961D01*
X103115475Y-65311961D02*
X103163094Y-65216723D01*
X103163094Y-65216723D02*
X103210713Y-65026247D01*
X103210713Y-65026247D02*
X103210713Y-64883390D01*
X103210713Y-64883390D02*
X103163094Y-64692914D01*
X103163094Y-64692914D02*
X103115475Y-64597676D01*
X103115475Y-64597676D02*
X103020237Y-64502438D01*
X103020237Y-64502438D02*
X102877380Y-64454819D01*
X102877380Y-64454819D02*
X102782142Y-64454819D01*
X102782142Y-64454819D02*
X102639285Y-64502438D01*
X102639285Y-64502438D02*
X102591666Y-64550057D01*
X102115475Y-65454819D02*
X101924999Y-65454819D01*
X101924999Y-65454819D02*
X101829761Y-65407200D01*
X101829761Y-65407200D02*
X101782142Y-65359580D01*
X101782142Y-65359580D02*
X101686904Y-65216723D01*
X101686904Y-65216723D02*
X101639285Y-65026247D01*
X101639285Y-65026247D02*
X101639285Y-64645295D01*
X101639285Y-64645295D02*
X101686904Y-64550057D01*
X101686904Y-64550057D02*
X101734523Y-64502438D01*
X101734523Y-64502438D02*
X101829761Y-64454819D01*
X101829761Y-64454819D02*
X102020237Y-64454819D01*
X102020237Y-64454819D02*
X102115475Y-64502438D01*
X102115475Y-64502438D02*
X102163094Y-64550057D01*
X102163094Y-64550057D02*
X102210713Y-64645295D01*
X102210713Y-64645295D02*
X102210713Y-64883390D01*
X102210713Y-64883390D02*
X102163094Y-64978628D01*
X102163094Y-64978628D02*
X102115475Y-65026247D01*
X102115475Y-65026247D02*
X102020237Y-65073866D01*
X102020237Y-65073866D02*
X101829761Y-65073866D01*
X101829761Y-65073866D02*
X101734523Y-65026247D01*
X101734523Y-65026247D02*
X101686904Y-64978628D01*
X101686904Y-64978628D02*
X101639285Y-64883390D01*
X69913509Y-50314285D02*
X69961128Y-50457142D01*
X69961128Y-50457142D02*
X70008747Y-50504761D01*
X70008747Y-50504761D02*
X70103985Y-50552380D01*
X70103985Y-50552380D02*
X70246842Y-50552380D01*
X70246842Y-50552380D02*
X70342080Y-50504761D01*
X70342080Y-50504761D02*
X70389700Y-50457142D01*
X70389700Y-50457142D02*
X70437319Y-50361904D01*
X70437319Y-50361904D02*
X70437319Y-49980952D01*
X70437319Y-49980952D02*
X69437319Y-49980952D01*
X69437319Y-49980952D02*
X69437319Y-50314285D01*
X69437319Y-50314285D02*
X69484938Y-50409523D01*
X69484938Y-50409523D02*
X69532557Y-50457142D01*
X69532557Y-50457142D02*
X69627795Y-50504761D01*
X69627795Y-50504761D02*
X69723033Y-50504761D01*
X69723033Y-50504761D02*
X69818271Y-50457142D01*
X69818271Y-50457142D02*
X69865890Y-50409523D01*
X69865890Y-50409523D02*
X69913509Y-50314285D01*
X69913509Y-50314285D02*
X69913509Y-49980952D01*
X69437319Y-50838095D02*
X69437319Y-51409523D01*
X70437319Y-51123809D02*
X69437319Y-51123809D01*
X70437319Y-52266666D02*
X70437319Y-51695238D01*
X70437319Y-51980952D02*
X69437319Y-51980952D01*
X69437319Y-51980952D02*
X69580176Y-51885714D01*
X69580176Y-51885714D02*
X69675414Y-51790476D01*
X69675414Y-51790476D02*
X69723033Y-51695238D01*
X89797200Y-63228571D02*
X89797200Y-64371429D01*
X89797200Y-85628571D02*
X89797200Y-86771429D01*
X90368628Y-86200000D02*
X89225771Y-86200000D01*
X77097200Y-46718571D02*
X77097200Y-47861429D01*
X77668628Y-47290000D02*
X76525771Y-47290000D01*
X77097200Y-63228571D02*
X77097200Y-64371429D01*
X77668628Y-63800000D02*
X76525771Y-63800000D01*
X89797200Y-46718571D02*
X89797200Y-47861429D01*
X77097200Y-85628571D02*
X77097200Y-86771429D01*
X102289580Y-68733333D02*
X102337200Y-68685714D01*
X102337200Y-68685714D02*
X102384819Y-68542857D01*
X102384819Y-68542857D02*
X102384819Y-68447619D01*
X102384819Y-68447619D02*
X102337200Y-68304762D01*
X102337200Y-68304762D02*
X102241961Y-68209524D01*
X102241961Y-68209524D02*
X102146723Y-68161905D01*
X102146723Y-68161905D02*
X101956247Y-68114286D01*
X101956247Y-68114286D02*
X101813390Y-68114286D01*
X101813390Y-68114286D02*
X101622914Y-68161905D01*
X101622914Y-68161905D02*
X101527676Y-68209524D01*
X101527676Y-68209524D02*
X101432438Y-68304762D01*
X101432438Y-68304762D02*
X101384819Y-68447619D01*
X101384819Y-68447619D02*
X101384819Y-68542857D01*
X101384819Y-68542857D02*
X101432438Y-68685714D01*
X101432438Y-68685714D02*
X101480057Y-68733333D01*
X101813390Y-69304762D02*
X101765771Y-69209524D01*
X101765771Y-69209524D02*
X101718152Y-69161905D01*
X101718152Y-69161905D02*
X101622914Y-69114286D01*
X101622914Y-69114286D02*
X101575295Y-69114286D01*
X101575295Y-69114286D02*
X101480057Y-69161905D01*
X101480057Y-69161905D02*
X101432438Y-69209524D01*
X101432438Y-69209524D02*
X101384819Y-69304762D01*
X101384819Y-69304762D02*
X101384819Y-69495238D01*
X101384819Y-69495238D02*
X101432438Y-69590476D01*
X101432438Y-69590476D02*
X101480057Y-69638095D01*
X101480057Y-69638095D02*
X101575295Y-69685714D01*
X101575295Y-69685714D02*
X101622914Y-69685714D01*
X101622914Y-69685714D02*
X101718152Y-69638095D01*
X101718152Y-69638095D02*
X101765771Y-69590476D01*
X101765771Y-69590476D02*
X101813390Y-69495238D01*
X101813390Y-69495238D02*
X101813390Y-69304762D01*
X101813390Y-69304762D02*
X101861009Y-69209524D01*
X101861009Y-69209524D02*
X101908628Y-69161905D01*
X101908628Y-69161905D02*
X102003866Y-69114286D01*
X102003866Y-69114286D02*
X102194342Y-69114286D01*
X102194342Y-69114286D02*
X102289580Y-69161905D01*
X102289580Y-69161905D02*
X102337200Y-69209524D01*
X102337200Y-69209524D02*
X102384819Y-69304762D01*
X102384819Y-69304762D02*
X102384819Y-69495238D01*
X102384819Y-69495238D02*
X102337200Y-69590476D01*
X102337200Y-69590476D02*
X102289580Y-69638095D01*
X102289580Y-69638095D02*
X102194342Y-69685714D01*
X102194342Y-69685714D02*
X102003866Y-69685714D01*
X102003866Y-69685714D02*
X101908628Y-69638095D01*
X101908628Y-69638095D02*
X101861009Y-69590476D01*
X101861009Y-69590476D02*
X101813390Y-69495238D01*
D11*
%TO.C,C5*%
X62990000Y-71716233D02*
X62990000Y-72008767D01*
X64010000Y-71716233D02*
X64010000Y-72008767D01*
%TO.C,C9*%
X99990000Y-65146267D02*
X99990000Y-64853733D01*
X101010000Y-65146267D02*
X101010000Y-64853733D01*
%TO.C,BT1*%
X95732500Y-48400000D02*
X70932500Y-48400000D01*
X95737500Y-101600000D02*
X95737500Y-48400000D01*
X94762500Y-49830000D02*
X71902500Y-49830000D01*
X82982500Y-72690000D02*
X82982500Y-49830000D01*
X94762500Y-52370000D02*
X94762500Y-49830000D01*
X71902500Y-49830000D02*
X71902500Y-52370000D01*
X71902500Y-52370000D02*
X73172500Y-52370000D01*
X73172500Y-65070000D02*
X73172500Y-52370000D01*
X93492500Y-65070000D02*
X93492500Y-52370000D01*
X93492500Y-52370000D02*
X94762500Y-52370000D01*
X73172500Y-65070000D02*
X71902500Y-65070000D01*
X75712500Y-66340000D02*
X75712500Y-65070000D01*
X75712500Y-65070000D02*
X78252500Y-65070000D01*
X87142500Y-83660000D02*
X87142500Y-65070000D01*
X87142500Y-65070000D02*
X92222500Y-65070000D01*
X94762500Y-65070000D02*
X93492500Y-65070000D01*
X94762500Y-84930000D02*
X94762500Y-65070000D01*
X74442500Y-84930000D02*
X74442500Y-66340000D01*
X74442500Y-66340000D02*
X75712500Y-66340000D01*
X78252500Y-65070000D02*
X78252500Y-66340000D01*
X78252500Y-66340000D02*
X79522500Y-66340000D01*
X83682500Y-72690000D02*
X82982500Y-72690000D01*
X83682500Y-49830000D02*
X83682500Y-72690000D01*
X83682500Y-79850000D02*
X82982500Y-79850000D01*
X83682500Y-100170000D02*
X83682500Y-79850000D01*
X88412500Y-83660000D02*
X87142500Y-83660000D01*
X88412500Y-84930000D02*
X88412500Y-83660000D01*
X92222500Y-83660000D02*
X90952500Y-83660000D01*
X92222500Y-65070000D02*
X92222500Y-83660000D01*
X71902500Y-65070000D02*
X71902500Y-84930000D01*
X71902500Y-84930000D02*
X73172500Y-84930000D01*
X79522500Y-84930000D02*
X74442500Y-84930000D01*
X79522500Y-66340000D02*
X79522500Y-84930000D01*
X90952500Y-84930000D02*
X88412500Y-84930000D01*
X90952500Y-83660000D02*
X90952500Y-84930000D01*
X93492500Y-84930000D02*
X94762500Y-84930000D01*
X73172500Y-97630000D02*
X71902500Y-97630000D01*
X73172500Y-84930000D02*
X73172500Y-97630000D01*
X93492500Y-84930000D02*
X93492500Y-97630000D01*
X93492500Y-97630000D02*
X94762500Y-97630000D01*
X71902500Y-97630000D02*
X71902500Y-100170000D01*
X94762500Y-100170000D02*
X71902500Y-100170000D01*
X82982500Y-79850000D02*
X82982500Y-100170000D01*
X94762500Y-97630000D02*
X94762500Y-100170000D01*
X70927500Y-48400000D02*
X70927500Y-101600000D01*
X70932500Y-101600000D02*
X95732500Y-101600000D01*
%TO.C,C8*%
X101010000Y-68753733D02*
X101010000Y-69046267D01*
X99990000Y-68753733D02*
X99990000Y-69046267D01*
%TD*%
M02*
