%TF.GenerationSoftware,KiCad,Pcbnew,7.0.10*%
%TF.CreationDate,2024-01-08T08:34:31+01:00*%
%TF.ProjectId,mold_detect,6d6f6c64-5f64-4657-9465-63742e6b6963,rev?*%
%TF.SameCoordinates,Original*%
%TF.FileFunction,Soldermask,Bot*%
%TF.FilePolarity,Negative*%
%FSLAX46Y46*%
G04 Gerber Fmt 4.6, Leading zero omitted, Abs format (unit mm)*
G04 Created by KiCad (PCBNEW 7.0.10) date 2024-01-08 08:34:31*
%MOMM*%
%LPD*%
G01*
G04 APERTURE LIST*
G04 Aperture macros list*
%AMRoundRect*
0 Rectangle with rounded corners*
0 $1 Rounding radius*
0 $2 $3 $4 $5 $6 $7 $8 $9 X,Y pos of 4 corners*
0 Add a 4 corners polygon primitive as box body*
4,1,4,$2,$3,$4,$5,$6,$7,$8,$9,$2,$3,0*
0 Add four circle primitives for the rounded corners*
1,1,$1+$1,$2,$3*
1,1,$1+$1,$4,$5*
1,1,$1+$1,$6,$7*
1,1,$1+$1,$8,$9*
0 Add four rect primitives between the rounded corners*
20,1,$1+$1,$2,$3,$4,$5,0*
20,1,$1+$1,$4,$5,$6,$7,0*
20,1,$1+$1,$6,$7,$8,$9,0*
20,1,$1+$1,$8,$9,$2,$3,0*%
G04 Aperture macros list end*
%ADD10RoundRect,0.250000X-0.600000X-0.600000X0.600000X-0.600000X0.600000X0.600000X-0.600000X0.600000X0*%
%ADD11C,1.700000*%
%ADD12C,3.450000*%
%ADD13R,2.000000X2.000000*%
%ADD14C,2.000000*%
%ADD15C,3.200000*%
%ADD16R,1.800000X1.800000*%
%ADD17C,1.800000*%
%ADD18R,1.600000X1.600000*%
%ADD19O,1.600000X1.600000*%
G04 APERTURE END LIST*
D10*
%TO.C,J1*%
X108580000Y-129750000D03*
D11*
X111120000Y-129750000D03*
X108580000Y-132290000D03*
X111120000Y-132290000D03*
X108580000Y-134830000D03*
X111120000Y-134830000D03*
%TD*%
D12*
%TO.C,BT1*%
X89650000Y-128210000D03*
D13*
X98350000Y-89600000D03*
D14*
X85650000Y-89600000D03*
%TD*%
D15*
%TO.C,H4*%
X112000000Y-83000000D03*
%TD*%
D16*
%TO.C,Red1*%
X93840000Y-145250000D03*
D17*
X93840000Y-142710000D03*
%TD*%
D16*
%TO.C,Blue1*%
X100535000Y-145315000D03*
D17*
X100535000Y-142775000D03*
%TD*%
D15*
%TO.C,H1*%
X82000000Y-144000000D03*
%TD*%
%TO.C,H2*%
X82000000Y-83000000D03*
%TD*%
%TO.C,H3*%
X112000000Y-144000000D03*
%TD*%
D18*
%TO.C,U3*%
X106000000Y-89460000D03*
D19*
X106000000Y-92000000D03*
X106000000Y-94540000D03*
X106000000Y-97080000D03*
X106000000Y-99620000D03*
X106000000Y-102160000D03*
X106000000Y-104700000D03*
X106000000Y-107240000D03*
X106000000Y-109780000D03*
X106000000Y-112320000D03*
X106000000Y-114860000D03*
X106000000Y-117400000D03*
X106000000Y-119940000D03*
X106000000Y-122480000D03*
X113620000Y-122480000D03*
X113620000Y-119940000D03*
X113620000Y-117400000D03*
X113620000Y-114860000D03*
X113620000Y-112320000D03*
X113620000Y-109780000D03*
X113620000Y-107240000D03*
X113620000Y-104700000D03*
X113620000Y-102160000D03*
X113620000Y-99620000D03*
X113620000Y-97080000D03*
X113620000Y-94540000D03*
X113620000Y-92000000D03*
X113620000Y-89460000D03*
%TD*%
M02*
