%TF.GenerationSoftware,KiCad,Pcbnew,8.0.1*%
%TF.CreationDate,2024-04-18T16:05:37+02:00*%
%TF.ProjectId,mold_detect,6d6f6c64-5f64-4657-9465-63742e6b6963,rev?*%
%TF.SameCoordinates,Original*%
%TF.FileFunction,Copper,L2,Bot*%
%TF.FilePolarity,Positive*%
%FSLAX46Y46*%
G04 Gerber Fmt 4.6, Leading zero omitted, Abs format (unit mm)*
G04 Created by KiCad (PCBNEW 8.0.1) date 2024-04-18 16:05:37*
%MOMM*%
%LPD*%
G01*
G04 APERTURE LIST*
G04 Aperture macros list*
%AMRoundRect*
0 Rectangle with rounded corners*
0 $1 Rounding radius*
0 $2 $3 $4 $5 $6 $7 $8 $9 X,Y pos of 4 corners*
0 Add a 4 corners polygon primitive as box body*
4,1,4,$2,$3,$4,$5,$6,$7,$8,$9,$2,$3,0*
0 Add four circle primitives for the rounded corners*
1,1,$1+$1,$2,$3*
1,1,$1+$1,$4,$5*
1,1,$1+$1,$6,$7*
1,1,$1+$1,$8,$9*
0 Add four rect primitives between the rounded corners*
20,1,$1+$1,$2,$3,$4,$5,0*
20,1,$1+$1,$4,$5,$6,$7,0*
20,1,$1+$1,$6,$7,$8,$9,0*
20,1,$1+$1,$8,$9,$2,$3,0*%
G04 Aperture macros list end*
%TA.AperFunction,ComponentPad*%
%ADD10R,1.600000X1.600000*%
%TD*%
%TA.AperFunction,ComponentPad*%
%ADD11C,1.600000*%
%TD*%
%TA.AperFunction,ComponentPad*%
%ADD12O,2.100000X1.000000*%
%TD*%
%TA.AperFunction,ComponentPad*%
%ADD13O,1.800000X1.000000*%
%TD*%
%TA.AperFunction,ComponentPad*%
%ADD14R,1.800000X1.800000*%
%TD*%
%TA.AperFunction,ComponentPad*%
%ADD15C,1.800000*%
%TD*%
%TA.AperFunction,ComponentPad*%
%ADD16RoundRect,0.250000X0.600000X-0.600000X0.600000X0.600000X-0.600000X0.600000X-0.600000X-0.600000X0*%
%TD*%
%TA.AperFunction,ComponentPad*%
%ADD17C,1.700000*%
%TD*%
%TA.AperFunction,ComponentPad*%
%ADD18O,1.600000X1.600000*%
%TD*%
%TA.AperFunction,ComponentPad*%
%ADD19C,1.500000*%
%TD*%
%TA.AperFunction,ComponentPad*%
%ADD20R,2.000000X2.000000*%
%TD*%
%TA.AperFunction,ComponentPad*%
%ADD21C,2.000000*%
%TD*%
%TA.AperFunction,SMDPad,CuDef*%
%ADD22RoundRect,0.237500X-0.237500X0.300000X-0.237500X-0.300000X0.237500X-0.300000X0.237500X0.300000X0*%
%TD*%
%TA.AperFunction,SMDPad,CuDef*%
%ADD23RoundRect,0.237500X0.237500X-0.300000X0.237500X0.300000X-0.237500X0.300000X-0.237500X-0.300000X0*%
%TD*%
%TA.AperFunction,ViaPad*%
%ADD24C,1.100000*%
%TD*%
%TA.AperFunction,Conductor*%
%ADD25C,0.300000*%
%TD*%
%TA.AperFunction,Conductor*%
%ADD26C,0.500000*%
%TD*%
G04 APERTURE END LIST*
D10*
%TO.P,C3,1*%
%TO.N,Net-(U2-VCC)*%
X100500000Y-80000000D03*
D11*
%TO.P,C3,2*%
%TO.N,GND*%
X98500000Y-80000000D03*
%TD*%
D12*
%TO.P,J1,S1,SHIELD*%
%TO.N,GND*%
X97895000Y-71220000D03*
D13*
X102075000Y-71220000D03*
D12*
X97895000Y-62580000D03*
D13*
X102075000Y-62580000D03*
%TD*%
D14*
%TO.P,Red2,1,K*%
%TO.N,Net-(Red2-K)*%
X56000000Y-54725000D03*
D15*
%TO.P,Red2,2,A*%
%TO.N,TEMP_LED*%
X56000000Y-57265000D03*
%TD*%
D16*
%TO.P,J2,1,Pin_1*%
%TO.N,CIPO*%
X59500000Y-98000000D03*
D17*
%TO.P,J2,2,Pin_2*%
%TO.N,+3V0*%
X59500000Y-95460000D03*
%TO.P,J2,3,Pin_3*%
%TO.N,SCK*%
X62040000Y-98000000D03*
%TO.P,J2,4,Pin_4*%
%TO.N,COPI*%
X62040000Y-95460000D03*
%TO.P,J2,5,Pin_5*%
%TO.N,RST*%
X64580000Y-98000000D03*
%TO.P,J2,6,Pin_6*%
%TO.N,GND*%
X64580000Y-95460000D03*
%TD*%
D14*
%TO.P,Red1,1,K*%
%TO.N,Net-(Red1-K)*%
X51000000Y-60000000D03*
D15*
%TO.P,Red1,2,A*%
%TO.N,ERROR_LED*%
X51000000Y-62540000D03*
%TD*%
D10*
%TO.P,U3,1,~{RESET}/PC6*%
%TO.N,RST*%
X60712500Y-55640000D03*
D18*
%TO.P,U3,2,PD0*%
%TO.N,RXD*%
X60712500Y-58180000D03*
%TO.P,U3,3,PD1*%
%TO.N,TXD*%
X60712500Y-60720000D03*
%TO.P,U3,4,PD2*%
%TO.N,TEMP_LED*%
X60712500Y-63260000D03*
%TO.P,U3,5,PD3*%
%TO.N,WAKE_INTR*%
X60712500Y-65800000D03*
%TO.P,U3,6,PD4*%
%TO.N,DONE*%
X60712500Y-68340000D03*
%TO.P,U3,7,VCC*%
%TO.N,+3V0*%
X60712500Y-70880000D03*
%TO.P,U3,8,GND*%
%TO.N,GND*%
X60712500Y-73420000D03*
%TO.P,U3,9,XTAL1/PB6*%
%TO.N,Net-(U3-XTAL1{slash}PB6)*%
X60712500Y-75960000D03*
%TO.P,U3,10,XTAL2/PB7*%
%TO.N,Net-(U3-XTAL2{slash}PB7)*%
X60712500Y-78500000D03*
%TO.P,U3,11,PD5*%
%TO.N,GENERAL_LED*%
X60712500Y-81040000D03*
%TO.P,U3,12,PD6*%
%TO.N,HUM_LED*%
X60712500Y-83580000D03*
%TO.P,U3,13,PD7*%
%TO.N,ERROR_LED*%
X60712500Y-86120000D03*
%TO.P,U3,14,PB0*%
%TO.N,unconnected-(U3-PB0-Pad14)*%
X60712500Y-88660000D03*
%TO.P,U3,15,PB1*%
%TO.N,unconnected-(U3-PB1-Pad15)*%
X68332500Y-88660000D03*
%TO.P,U3,16,PB2*%
%TO.N,FLASH_CS*%
X68332500Y-86120000D03*
%TO.P,U3,17,PB3*%
%TO.N,COPI*%
X68332500Y-83580000D03*
%TO.P,U3,18,PB4*%
%TO.N,CIPO*%
X68332500Y-81040000D03*
%TO.P,U3,19,PB5*%
%TO.N,SCK*%
X68332500Y-78500000D03*
%TO.P,U3,20,AVCC*%
%TO.N,unconnected-(U3-AVCC-Pad20)*%
X68332500Y-75960000D03*
%TO.P,U3,21,AREF*%
%TO.N,unconnected-(U3-AREF-Pad21)*%
X68332500Y-73420000D03*
%TO.P,U3,22,GND*%
%TO.N,GND*%
X68332500Y-70880000D03*
%TO.P,U3,23,PC0*%
%TO.N,USB_ENABLE_INTR*%
X68332500Y-68340000D03*
%TO.P,U3,24,PC1*%
%TO.N,unconnected-(U3-PC1-Pad24)*%
X68332500Y-65800000D03*
%TO.P,U3,25,PC2*%
%TO.N,unconnected-(U3-PC2-Pad25)*%
X68332500Y-63260000D03*
%TO.P,U3,26,PC3*%
%TO.N,unconnected-(U3-PC3-Pad26)*%
X68332500Y-60720000D03*
%TO.P,U3,27,PC4*%
%TO.N,SDA*%
X68332500Y-58180000D03*
%TO.P,U3,28,PC5*%
%TO.N,SCL*%
X68332500Y-55640000D03*
%TD*%
D14*
%TO.P,Green1,1,K*%
%TO.N,Net-(Green1-K)*%
X56000000Y-62525000D03*
D15*
%TO.P,Green1,2,A*%
%TO.N,GENERAL_LED*%
X56000000Y-59985000D03*
%TD*%
D19*
%TO.P,Y1,1,1*%
%TO.N,Net-(U3-XTAL2{slash}PB7)*%
X56500000Y-79880000D03*
%TO.P,Y1,2,2*%
%TO.N,Net-(U3-XTAL1{slash}PB6)*%
X56500000Y-75000000D03*
%TD*%
D14*
%TO.P,Blue1,1,K*%
%TO.N,Net-(Blue1-K)*%
X51000000Y-67790000D03*
D15*
%TO.P,Blue1,2,A*%
%TO.N,HUM_LED*%
X51000000Y-65250000D03*
%TD*%
D20*
%TO.P,BT1,1,+*%
%TO.N,Net-(BT1-+)*%
X76982500Y-51100000D03*
D21*
%TO.P,BT1,2,-*%
%TO.N,GND*%
X89682500Y-51100000D03*
%TD*%
D22*
%TO.P,C9,1*%
%TO.N,GND*%
X100500000Y-64137500D03*
%TO.P,C9,2*%
%TO.N,Net-(C9-Pad2)*%
X100500000Y-65862500D03*
%TD*%
D23*
%TO.P,C5,1*%
%TO.N,GND*%
X63500000Y-72725000D03*
%TO.P,C5,2*%
%TO.N,+3V0*%
X63500000Y-71000000D03*
%TD*%
%TO.P,C8,1*%
%TO.N,GND*%
X100500000Y-69762500D03*
%TO.P,C8,2*%
%TO.N,Net-(C8-Pad2)*%
X100500000Y-68037500D03*
%TD*%
D24*
%TO.N,RST*%
X63500000Y-63010000D03*
X63500000Y-58479000D03*
%TO.N,+3V0*%
X84500000Y-69946000D03*
X62000000Y-91500000D03*
X84500000Y-63500000D03*
X84500000Y-72000000D03*
X65500000Y-58479000D03*
X67000000Y-91500000D03*
X84500000Y-60911000D03*
%TO.N,GND*%
X52500000Y-58000000D03*
X87325000Y-65575000D03*
X51000000Y-77500000D03*
X54500000Y-65000000D03*
X89500000Y-72500000D03*
X72500000Y-56710436D03*
X80812026Y-78635000D03*
%TO.N,COPI*%
X78000000Y-84120000D03*
X76000000Y-81000000D03*
%TO.N,Net-(C8-Pad2)*%
X98650000Y-67650000D03*
%TO.N,USB_ENABLE_INTR*%
X89187500Y-65675000D03*
X87397038Y-67901369D03*
%TO.N,Net-(C9-Pad2)*%
X98900000Y-66150000D03*
%TD*%
D25*
%TO.N,RST*%
X63500000Y-63010000D02*
X63500000Y-58479000D01*
%TO.N,+3V0*%
X63500000Y-71000000D02*
X60832500Y-71000000D01*
D26*
X64500000Y-66500000D02*
X64500000Y-70000000D01*
X65500000Y-65500000D02*
X64500000Y-66500000D01*
X84500000Y-69946000D02*
X84500000Y-72000000D01*
X65500000Y-58479000D02*
X65500000Y-65500000D01*
D25*
X60832500Y-71000000D02*
X60712500Y-70880000D01*
D26*
X84500000Y-60911000D02*
X84500000Y-63500000D01*
X64500000Y-70000000D02*
X63500000Y-71000000D01*
X67000000Y-91500000D02*
X62000000Y-91500000D01*
D25*
%TO.N,COPI*%
X76000000Y-82120000D02*
X76000000Y-81000000D01*
X78000000Y-84120000D02*
X76000000Y-82120000D01*
%TO.N,Net-(C8-Pad2)*%
X100112500Y-67650000D02*
X100500000Y-68037500D01*
X98650000Y-67650000D02*
X100112500Y-67650000D01*
D26*
%TO.N,USB_ENABLE_INTR*%
X89187500Y-65675000D02*
X87397038Y-67465462D01*
X87397038Y-67465462D02*
X87397038Y-67901369D01*
D25*
%TO.N,Net-(C9-Pad2)*%
X98900000Y-66150000D02*
X100212500Y-66150000D01*
X100212500Y-66150000D02*
X100500000Y-65862500D01*
%TD*%
%TA.AperFunction,Conductor*%
%TO.N,GND*%
G36*
X64114075Y-95652993D02*
G01*
X64179901Y-95767007D01*
X64272993Y-95860099D01*
X64387007Y-95925925D01*
X64450590Y-95942962D01*
X63818625Y-96574925D01*
X63902419Y-96633598D01*
X63985865Y-96672509D01*
X64038305Y-96718681D01*
X64057457Y-96785875D01*
X64037242Y-96852756D01*
X63985868Y-96897273D01*
X63952363Y-96912897D01*
X63952357Y-96912900D01*
X63773121Y-97038402D01*
X63618402Y-97193121D01*
X63492900Y-97372357D01*
X63492898Y-97372361D01*
X63422382Y-97523583D01*
X63376209Y-97576022D01*
X63309016Y-97595174D01*
X63242135Y-97574958D01*
X63197618Y-97523583D01*
X63183118Y-97492488D01*
X63127102Y-97372362D01*
X63127100Y-97372359D01*
X63127099Y-97372357D01*
X63001599Y-97193124D01*
X62948077Y-97139602D01*
X62846877Y-97038402D01*
X62667639Y-96912898D01*
X62516414Y-96842381D01*
X62463977Y-96796210D01*
X62444825Y-96729016D01*
X62465041Y-96662135D01*
X62516414Y-96617618D01*
X62667639Y-96547102D01*
X62846877Y-96421598D01*
X63001598Y-96266877D01*
X63127102Y-96087639D01*
X63142726Y-96054132D01*
X63188896Y-96001695D01*
X63256090Y-95982543D01*
X63322971Y-96002758D01*
X63367489Y-96054134D01*
X63406400Y-96137579D01*
X63406402Y-96137583D01*
X63465072Y-96221373D01*
X63465073Y-96221373D01*
X64097037Y-95589409D01*
X64114075Y-95652993D01*
G37*
%TD.AperFunction*%
%TA.AperFunction,Conductor*%
G36*
X100003243Y-46800669D02*
G01*
X100327952Y-46817687D01*
X100340860Y-46819044D01*
X100658794Y-46869400D01*
X100671478Y-46872095D01*
X100982429Y-46955414D01*
X100994770Y-46959425D01*
X101295282Y-47074780D01*
X101307138Y-47080058D01*
X101593976Y-47226210D01*
X101605192Y-47232686D01*
X101875165Y-47408008D01*
X101885666Y-47415637D01*
X102135836Y-47618221D01*
X102145481Y-47626906D01*
X102373093Y-47854518D01*
X102381778Y-47864163D01*
X102584362Y-48114333D01*
X102591991Y-48124834D01*
X102767310Y-48394802D01*
X102773792Y-48406029D01*
X102848733Y-48553107D01*
X102919940Y-48692859D01*
X102925219Y-48704717D01*
X103040574Y-49005229D01*
X103044585Y-49017572D01*
X103127902Y-49328515D01*
X103130600Y-49341211D01*
X103180955Y-49659139D01*
X103182312Y-49672047D01*
X103199330Y-49996756D01*
X103199500Y-50003246D01*
X103199500Y-61629416D01*
X103179815Y-61696455D01*
X103127011Y-61742210D01*
X103057853Y-61752154D01*
X103006610Y-61732519D01*
X102948682Y-61693813D01*
X102948671Y-61693807D01*
X102766693Y-61618430D01*
X102766681Y-61618427D01*
X102573495Y-61580000D01*
X102325000Y-61580000D01*
X102325000Y-62280000D01*
X101825000Y-62280000D01*
X101825000Y-61580000D01*
X101576504Y-61580000D01*
X101383318Y-61618427D01*
X101383306Y-61618430D01*
X101201328Y-61693807D01*
X101201315Y-61693814D01*
X101037537Y-61803248D01*
X101037533Y-61803251D01*
X100898251Y-61942533D01*
X100898248Y-61942537D01*
X100788814Y-62106315D01*
X100788807Y-62106328D01*
X100713430Y-62288307D01*
X100713430Y-62288309D01*
X100705138Y-62330000D01*
X101508012Y-62330000D01*
X101490795Y-62339940D01*
X101434940Y-62395795D01*
X101395444Y-62464204D01*
X101375000Y-62540504D01*
X101375000Y-62619496D01*
X101395444Y-62695796D01*
X101434940Y-62764205D01*
X101490795Y-62820060D01*
X101508012Y-62830000D01*
X100705138Y-62830000D01*
X100713430Y-62871690D01*
X100713430Y-62871692D01*
X100759304Y-62982442D01*
X100766773Y-63051911D01*
X100750000Y-63085418D01*
X100750000Y-63887500D01*
X101474999Y-63887500D01*
X101474999Y-63788360D01*
X101474998Y-63788345D01*
X101467669Y-63716602D01*
X101480438Y-63647909D01*
X101528319Y-63597025D01*
X101591027Y-63580000D01*
X101825000Y-63580000D01*
X101825000Y-62880000D01*
X102325000Y-62880000D01*
X102325000Y-63580000D01*
X102573492Y-63580000D01*
X102573495Y-63579999D01*
X102766681Y-63541572D01*
X102766693Y-63541569D01*
X102948671Y-63466192D01*
X102948684Y-63466185D01*
X103006609Y-63427481D01*
X103073286Y-63406603D01*
X103140666Y-63425087D01*
X103187357Y-63477066D01*
X103199500Y-63530583D01*
X103199500Y-70269416D01*
X103179815Y-70336455D01*
X103127011Y-70382210D01*
X103057853Y-70392154D01*
X103006610Y-70372519D01*
X102948682Y-70333813D01*
X102948671Y-70333807D01*
X102766693Y-70258430D01*
X102766681Y-70258427D01*
X102573495Y-70220000D01*
X102325000Y-70220000D01*
X102325000Y-70920000D01*
X101825000Y-70920000D01*
X101825000Y-70220000D01*
X101599000Y-70220000D01*
X101531961Y-70200315D01*
X101486206Y-70147511D01*
X101475000Y-70096000D01*
X101475000Y-70012500D01*
X100750000Y-70012500D01*
X100750000Y-70815357D01*
X100740561Y-70862810D01*
X100713429Y-70928310D01*
X100705138Y-70970000D01*
X101508012Y-70970000D01*
X101490795Y-70979940D01*
X101434940Y-71035795D01*
X101395444Y-71104204D01*
X101375000Y-71180504D01*
X101375000Y-71259496D01*
X101395444Y-71335796D01*
X101434940Y-71404205D01*
X101490795Y-71460060D01*
X101508012Y-71470000D01*
X100705138Y-71470000D01*
X100713430Y-71511690D01*
X100713430Y-71511692D01*
X100788807Y-71693671D01*
X100788814Y-71693684D01*
X100898248Y-71857462D01*
X100898251Y-71857466D01*
X101037533Y-71996748D01*
X101037537Y-71996751D01*
X101201315Y-72106185D01*
X101201328Y-72106192D01*
X101383306Y-72181569D01*
X101383318Y-72181572D01*
X101576504Y-72219999D01*
X101576508Y-72220000D01*
X101825000Y-72220000D01*
X101825000Y-71520000D01*
X102325000Y-71520000D01*
X102325000Y-72220000D01*
X102573492Y-72220000D01*
X102573495Y-72219999D01*
X102766681Y-72181572D01*
X102766693Y-72181569D01*
X102948671Y-72106192D01*
X102948684Y-72106185D01*
X103006609Y-72067481D01*
X103073286Y-72046603D01*
X103140666Y-72065087D01*
X103187357Y-72117066D01*
X103199500Y-72170583D01*
X103199500Y-99996753D01*
X103199330Y-100003243D01*
X103182312Y-100327952D01*
X103180955Y-100340860D01*
X103130600Y-100658788D01*
X103127902Y-100671484D01*
X103044585Y-100982427D01*
X103040574Y-100994770D01*
X102925219Y-101295282D01*
X102919940Y-101307140D01*
X102773796Y-101593964D01*
X102767306Y-101605204D01*
X102591991Y-101875165D01*
X102584362Y-101885666D01*
X102381778Y-102135836D01*
X102373093Y-102145481D01*
X102145481Y-102373093D01*
X102135836Y-102381778D01*
X101885666Y-102584362D01*
X101875165Y-102591991D01*
X101605204Y-102767306D01*
X101593964Y-102773796D01*
X101307140Y-102919940D01*
X101295282Y-102925219D01*
X100994770Y-103040574D01*
X100982427Y-103044585D01*
X100671484Y-103127902D01*
X100658788Y-103130600D01*
X100340860Y-103180955D01*
X100327952Y-103182312D01*
X100003244Y-103199330D01*
X99996754Y-103199500D01*
X50003246Y-103199500D01*
X49996756Y-103199330D01*
X49672047Y-103182312D01*
X49659139Y-103180955D01*
X49341211Y-103130600D01*
X49328515Y-103127902D01*
X49017572Y-103044585D01*
X49005229Y-103040574D01*
X48704717Y-102925219D01*
X48692859Y-102919940D01*
X48495501Y-102819381D01*
X48406029Y-102773792D01*
X48394802Y-102767310D01*
X48124834Y-102591991D01*
X48114333Y-102584362D01*
X47864163Y-102381778D01*
X47854518Y-102373093D01*
X47626906Y-102145481D01*
X47618221Y-102135836D01*
X47415637Y-101885666D01*
X47408008Y-101875165D01*
X47232686Y-101605192D01*
X47226210Y-101593976D01*
X47080058Y-101307138D01*
X47074780Y-101295282D01*
X47046932Y-101222736D01*
X46959424Y-100994769D01*
X46955414Y-100982427D01*
X46872097Y-100671484D01*
X46869399Y-100658788D01*
X46819044Y-100340860D01*
X46817687Y-100327952D01*
X46806856Y-100121288D01*
X48149500Y-100121288D01*
X48181161Y-100361785D01*
X48243947Y-100596104D01*
X48269912Y-100658788D01*
X48336776Y-100820212D01*
X48458064Y-101030289D01*
X48458066Y-101030292D01*
X48458067Y-101030293D01*
X48605733Y-101222736D01*
X48605739Y-101222743D01*
X48777256Y-101394260D01*
X48777262Y-101394265D01*
X48969711Y-101541936D01*
X49179788Y-101663224D01*
X49403900Y-101756054D01*
X49638211Y-101818838D01*
X49818586Y-101842584D01*
X49878711Y-101850500D01*
X49878712Y-101850500D01*
X50121289Y-101850500D01*
X50169388Y-101844167D01*
X50361789Y-101818838D01*
X50596100Y-101756054D01*
X50820212Y-101663224D01*
X51030289Y-101541936D01*
X51222738Y-101394265D01*
X51394265Y-101222738D01*
X51541936Y-101030289D01*
X51663224Y-100820212D01*
X51756054Y-100596100D01*
X51818838Y-100361789D01*
X51850500Y-100121288D01*
X98149500Y-100121288D01*
X98181161Y-100361785D01*
X98243947Y-100596104D01*
X98269912Y-100658788D01*
X98336776Y-100820212D01*
X98458064Y-101030289D01*
X98458066Y-101030292D01*
X98458067Y-101030293D01*
X98605733Y-101222736D01*
X98605739Y-101222743D01*
X98777256Y-101394260D01*
X98777262Y-101394265D01*
X98969711Y-101541936D01*
X99179788Y-101663224D01*
X99403900Y-101756054D01*
X99638211Y-101818838D01*
X99818586Y-101842584D01*
X99878711Y-101850500D01*
X99878712Y-101850500D01*
X100121289Y-101850500D01*
X100169388Y-101844167D01*
X100361789Y-101818838D01*
X100596100Y-101756054D01*
X100820212Y-101663224D01*
X101030289Y-101541936D01*
X101222738Y-101394265D01*
X101394265Y-101222738D01*
X101541936Y-101030289D01*
X101663224Y-100820212D01*
X101756054Y-100596100D01*
X101818838Y-100361789D01*
X101850500Y-100121288D01*
X101850500Y-99878712D01*
X101818838Y-99638211D01*
X101756054Y-99403900D01*
X101663224Y-99179788D01*
X101541936Y-98969711D01*
X101458054Y-98860393D01*
X101394266Y-98777263D01*
X101394260Y-98777256D01*
X101222743Y-98605739D01*
X101222736Y-98605733D01*
X101030293Y-98458067D01*
X101030292Y-98458066D01*
X101030289Y-98458064D01*
X100820212Y-98336776D01*
X100820205Y-98336773D01*
X100596104Y-98243947D01*
X100361785Y-98181161D01*
X100121289Y-98149500D01*
X100121288Y-98149500D01*
X99878712Y-98149500D01*
X99878711Y-98149500D01*
X99638214Y-98181161D01*
X99403895Y-98243947D01*
X99179794Y-98336773D01*
X99179785Y-98336777D01*
X98969706Y-98458067D01*
X98777263Y-98605733D01*
X98777256Y-98605739D01*
X98605739Y-98777256D01*
X98605733Y-98777263D01*
X98458067Y-98969706D01*
X98336777Y-99179785D01*
X98336773Y-99179794D01*
X98243947Y-99403895D01*
X98181161Y-99638214D01*
X98149500Y-99878711D01*
X98149500Y-100121288D01*
X51850500Y-100121288D01*
X51850500Y-99878712D01*
X51818838Y-99638211D01*
X51756054Y-99403900D01*
X51663224Y-99179788D01*
X51541936Y-98969711D01*
X51458054Y-98860393D01*
X51394266Y-98777263D01*
X51394260Y-98777256D01*
X51222743Y-98605739D01*
X51222736Y-98605733D01*
X51030293Y-98458067D01*
X51030292Y-98458066D01*
X51030289Y-98458064D01*
X50820212Y-98336776D01*
X50820205Y-98336773D01*
X50596104Y-98243947D01*
X50361785Y-98181161D01*
X50121289Y-98149500D01*
X50121288Y-98149500D01*
X49878712Y-98149500D01*
X49878711Y-98149500D01*
X49638214Y-98181161D01*
X49403895Y-98243947D01*
X49179794Y-98336773D01*
X49179785Y-98336777D01*
X48969706Y-98458067D01*
X48777263Y-98605733D01*
X48777256Y-98605739D01*
X48605739Y-98777256D01*
X48605733Y-98777263D01*
X48458067Y-98969706D01*
X48336777Y-99179785D01*
X48336773Y-99179794D01*
X48243947Y-99403895D01*
X48181161Y-99638214D01*
X48149500Y-99878711D01*
X48149500Y-100121288D01*
X46806856Y-100121288D01*
X46800670Y-100003243D01*
X46800500Y-99996753D01*
X46800500Y-95460002D01*
X58244723Y-95460002D01*
X58263793Y-95677975D01*
X58263793Y-95677979D01*
X58320422Y-95889322D01*
X58320424Y-95889326D01*
X58320425Y-95889330D01*
X58336351Y-95923483D01*
X58412897Y-96087638D01*
X58437998Y-96123486D01*
X58538402Y-96266877D01*
X58693123Y-96421598D01*
X58846287Y-96528845D01*
X58889909Y-96583419D01*
X58897102Y-96652918D01*
X58865580Y-96715272D01*
X58805350Y-96750686D01*
X58797461Y-96752395D01*
X58797441Y-96752398D01*
X58639606Y-96798254D01*
X58639603Y-96798255D01*
X58498137Y-96881917D01*
X58498129Y-96881923D01*
X58381923Y-96998129D01*
X58381917Y-96998137D01*
X58298255Y-97139603D01*
X58298254Y-97139606D01*
X58252402Y-97297426D01*
X58252401Y-97297432D01*
X58249500Y-97334298D01*
X58249500Y-98665701D01*
X58252401Y-98702567D01*
X58252402Y-98702573D01*
X58298254Y-98860393D01*
X58298255Y-98860396D01*
X58381917Y-99001862D01*
X58381923Y-99001870D01*
X58498129Y-99118076D01*
X58498133Y-99118079D01*
X58498135Y-99118081D01*
X58639602Y-99201744D01*
X58681224Y-99213836D01*
X58797426Y-99247597D01*
X58797429Y-99247597D01*
X58797431Y-99247598D01*
X58834306Y-99250500D01*
X58834314Y-99250500D01*
X60165686Y-99250500D01*
X60165694Y-99250500D01*
X60202569Y-99247598D01*
X60202571Y-99247597D01*
X60202573Y-99247597D01*
X60244191Y-99235505D01*
X60360398Y-99201744D01*
X60501865Y-99118081D01*
X60618081Y-99001865D01*
X60701744Y-98860398D01*
X60747598Y-98702569D01*
X60747598Y-98702567D01*
X60747600Y-98702560D01*
X60747602Y-98702555D01*
X60749366Y-98696485D01*
X60750492Y-98696812D01*
X60779008Y-98640148D01*
X60839174Y-98604624D01*
X60908993Y-98607268D01*
X60966300Y-98647239D01*
X60971141Y-98653692D01*
X61078402Y-98806877D01*
X61233123Y-98961598D01*
X61412361Y-99087102D01*
X61610670Y-99179575D01*
X61610676Y-99179576D01*
X61610677Y-99179577D01*
X61611487Y-99179794D01*
X61822023Y-99236207D01*
X62004926Y-99252208D01*
X62039998Y-99255277D01*
X62040000Y-99255277D01*
X62040002Y-99255277D01*
X62068254Y-99252805D01*
X62257977Y-99236207D01*
X62469330Y-99179575D01*
X62667639Y-99087102D01*
X62846877Y-98961598D01*
X63001598Y-98806877D01*
X63127102Y-98627639D01*
X63197618Y-98476414D01*
X63243790Y-98423977D01*
X63310984Y-98404825D01*
X63377865Y-98425041D01*
X63422381Y-98476414D01*
X63492898Y-98627639D01*
X63618402Y-98806877D01*
X63773123Y-98961598D01*
X63952361Y-99087102D01*
X64150670Y-99179575D01*
X64150676Y-99179576D01*
X64150677Y-99179577D01*
X64151487Y-99179794D01*
X64362023Y-99236207D01*
X64544926Y-99252208D01*
X64579998Y-99255277D01*
X64580000Y-99255277D01*
X64580002Y-99255277D01*
X64608254Y-99252805D01*
X64797977Y-99236207D01*
X65009330Y-99179575D01*
X65207639Y-99087102D01*
X65386877Y-98961598D01*
X65541598Y-98806877D01*
X65667102Y-98627639D01*
X65759575Y-98429330D01*
X65816207Y-98217977D01*
X65835277Y-98000000D01*
X65816207Y-97782023D01*
X65759575Y-97570670D01*
X65667102Y-97372362D01*
X65667100Y-97372359D01*
X65667099Y-97372357D01*
X65541599Y-97193124D01*
X65488077Y-97139602D01*
X65386877Y-97038402D01*
X65207639Y-96912898D01*
X65207633Y-96912895D01*
X65174133Y-96897273D01*
X65121694Y-96851100D01*
X65102543Y-96783907D01*
X65122760Y-96717026D01*
X65174136Y-96672509D01*
X65257579Y-96633599D01*
X65257582Y-96633598D01*
X65341373Y-96574926D01*
X65341373Y-96574925D01*
X64709409Y-95942962D01*
X64772993Y-95925925D01*
X64887007Y-95860099D01*
X64980099Y-95767007D01*
X65045925Y-95652993D01*
X65062962Y-95589410D01*
X65694925Y-96221373D01*
X65694926Y-96221373D01*
X65753598Y-96137582D01*
X65753600Y-96137578D01*
X65853429Y-95923492D01*
X65853433Y-95923483D01*
X65914567Y-95695326D01*
X65914569Y-95695315D01*
X65935157Y-95460001D01*
X65935157Y-95459998D01*
X65914569Y-95224684D01*
X65914567Y-95224673D01*
X65853433Y-94996516D01*
X65853429Y-94996507D01*
X65753600Y-94782423D01*
X65753599Y-94782421D01*
X65694925Y-94698626D01*
X65694925Y-94698625D01*
X65062962Y-95330589D01*
X65045925Y-95267007D01*
X64980099Y-95152993D01*
X64887007Y-95059901D01*
X64772993Y-94994075D01*
X64709410Y-94977037D01*
X65341373Y-94345073D01*
X65341373Y-94345072D01*
X65257583Y-94286402D01*
X65257579Y-94286400D01*
X65043492Y-94186570D01*
X65043483Y-94186566D01*
X64815326Y-94125432D01*
X64815315Y-94125430D01*
X64580002Y-94104843D01*
X64579998Y-94104843D01*
X64344684Y-94125430D01*
X64344673Y-94125432D01*
X64116516Y-94186566D01*
X64116507Y-94186570D01*
X63902419Y-94286401D01*
X63818625Y-94345072D01*
X64450590Y-94977037D01*
X64387007Y-94994075D01*
X64272993Y-95059901D01*
X64179901Y-95152993D01*
X64114075Y-95267007D01*
X64097037Y-95330590D01*
X63465072Y-94698625D01*
X63406401Y-94782419D01*
X63367489Y-94865866D01*
X63321316Y-94918305D01*
X63254122Y-94937457D01*
X63187241Y-94917241D01*
X63142725Y-94865866D01*
X63127102Y-94832362D01*
X63127100Y-94832359D01*
X63127099Y-94832357D01*
X63001599Y-94653124D01*
X63001596Y-94653121D01*
X62846877Y-94498402D01*
X62667639Y-94372898D01*
X62667640Y-94372898D01*
X62667638Y-94372897D01*
X62568484Y-94326661D01*
X62469330Y-94280425D01*
X62469326Y-94280424D01*
X62469322Y-94280422D01*
X62257977Y-94223793D01*
X62040002Y-94204723D01*
X62039998Y-94204723D01*
X61894682Y-94217436D01*
X61822023Y-94223793D01*
X61822020Y-94223793D01*
X61610677Y-94280422D01*
X61610670Y-94280424D01*
X61610670Y-94280425D01*
X61597852Y-94286402D01*
X61412361Y-94372898D01*
X61412357Y-94372900D01*
X61233121Y-94498402D01*
X61078402Y-94653121D01*
X60952900Y-94832357D01*
X60952898Y-94832361D01*
X60882382Y-94983583D01*
X60836209Y-95036022D01*
X60769016Y-95055174D01*
X60702135Y-95034958D01*
X60657618Y-94983583D01*
X60602725Y-94865866D01*
X60587102Y-94832362D01*
X60587100Y-94832359D01*
X60587099Y-94832357D01*
X60461599Y-94653124D01*
X60461596Y-94653121D01*
X60306877Y-94498402D01*
X60127639Y-94372898D01*
X60127640Y-94372898D01*
X60127638Y-94372897D01*
X60028484Y-94326661D01*
X59929330Y-94280425D01*
X59929326Y-94280424D01*
X59929322Y-94280422D01*
X59717977Y-94223793D01*
X59500002Y-94204723D01*
X59499998Y-94204723D01*
X59354682Y-94217436D01*
X59282023Y-94223793D01*
X59282020Y-94223793D01*
X59070677Y-94280422D01*
X59070670Y-94280424D01*
X59070670Y-94280425D01*
X59057852Y-94286402D01*
X58872361Y-94372898D01*
X58872357Y-94372900D01*
X58693121Y-94498402D01*
X58538402Y-94653121D01*
X58412900Y-94832357D01*
X58412898Y-94832361D01*
X58320426Y-95030668D01*
X58320422Y-95030677D01*
X58263793Y-95242020D01*
X58263793Y-95242024D01*
X58244723Y-95459997D01*
X58244723Y-95460002D01*
X46800500Y-95460002D01*
X46800500Y-91500000D01*
X61044901Y-91500000D01*
X61063252Y-91686331D01*
X61063253Y-91686333D01*
X61117604Y-91865502D01*
X61205862Y-92030623D01*
X61205864Y-92030626D01*
X61324642Y-92175357D01*
X61469373Y-92294135D01*
X61469376Y-92294137D01*
X61634497Y-92382395D01*
X61634499Y-92382396D01*
X61813666Y-92436746D01*
X61813668Y-92436747D01*
X61830374Y-92438392D01*
X62000000Y-92455099D01*
X62186331Y-92436747D01*
X62365501Y-92382396D01*
X62530625Y-92294136D01*
X62559158Y-92270719D01*
X62671349Y-92178647D01*
X62735659Y-92151334D01*
X62750014Y-92150500D01*
X66249986Y-92150500D01*
X66317025Y-92170185D01*
X66328651Y-92178647D01*
X66469373Y-92294135D01*
X66469376Y-92294137D01*
X66634497Y-92382395D01*
X66634499Y-92382396D01*
X66813666Y-92436746D01*
X66813668Y-92436747D01*
X66830374Y-92438392D01*
X67000000Y-92455099D01*
X67186331Y-92436747D01*
X67365501Y-92382396D01*
X67530625Y-92294136D01*
X67675357Y-92175357D01*
X67794136Y-92030625D01*
X67882396Y-91865501D01*
X67936747Y-91686331D01*
X67955099Y-91500000D01*
X67936747Y-91313669D01*
X67882396Y-91134499D01*
X67794136Y-90969375D01*
X67794135Y-90969373D01*
X67675357Y-90824642D01*
X67530626Y-90705864D01*
X67530623Y-90705862D01*
X67365502Y-90617604D01*
X67186333Y-90563253D01*
X67186331Y-90563252D01*
X67000000Y-90544901D01*
X66813668Y-90563252D01*
X66813666Y-90563253D01*
X66634497Y-90617604D01*
X66469376Y-90705862D01*
X66469373Y-90705864D01*
X66328651Y-90821353D01*
X66264341Y-90848666D01*
X66249986Y-90849500D01*
X62750014Y-90849500D01*
X62682975Y-90829815D01*
X62671349Y-90821353D01*
X62530626Y-90705864D01*
X62530623Y-90705862D01*
X62365502Y-90617604D01*
X62186333Y-90563253D01*
X62186331Y-90563252D01*
X62000000Y-90544901D01*
X61813668Y-90563252D01*
X61813666Y-90563253D01*
X61634497Y-90617604D01*
X61469376Y-90705862D01*
X61469373Y-90705864D01*
X61324642Y-90824642D01*
X61205864Y-90969373D01*
X61205862Y-90969376D01*
X61117604Y-91134497D01*
X61063253Y-91313666D01*
X61063252Y-91313668D01*
X61044901Y-91500000D01*
X46800500Y-91500000D01*
X46800500Y-79880000D01*
X55344571Y-79880000D01*
X55364244Y-80092310D01*
X55396553Y-80205864D01*
X55422596Y-80297392D01*
X55422596Y-80297394D01*
X55517632Y-80488253D01*
X55646127Y-80658406D01*
X55646128Y-80658407D01*
X55803698Y-80802052D01*
X55984981Y-80914298D01*
X56183802Y-80991321D01*
X56393390Y-81030500D01*
X56393392Y-81030500D01*
X56606608Y-81030500D01*
X56606610Y-81030500D01*
X56816198Y-80991321D01*
X57015019Y-80914298D01*
X57196302Y-80802052D01*
X57353872Y-80658407D01*
X57482366Y-80488255D01*
X57491768Y-80469373D01*
X57577403Y-80297394D01*
X57577403Y-80297393D01*
X57577405Y-80297389D01*
X57635756Y-80092310D01*
X57655429Y-79880000D01*
X57635756Y-79667690D01*
X57577405Y-79462611D01*
X57577403Y-79462606D01*
X57577403Y-79462605D01*
X57482367Y-79271746D01*
X57353872Y-79101593D01*
X57324369Y-79074697D01*
X57196302Y-78957948D01*
X57015019Y-78845702D01*
X57015017Y-78845701D01*
X56895757Y-78799500D01*
X56816198Y-78768679D01*
X56606610Y-78729500D01*
X56393390Y-78729500D01*
X56183802Y-78768679D01*
X56183799Y-78768679D01*
X56183799Y-78768680D01*
X55984982Y-78845701D01*
X55984980Y-78845702D01*
X55803699Y-78957947D01*
X55646127Y-79101593D01*
X55517632Y-79271746D01*
X55422596Y-79462605D01*
X55422596Y-79462607D01*
X55366541Y-79659618D01*
X55364244Y-79667690D01*
X55344571Y-79880000D01*
X46800500Y-79880000D01*
X46800500Y-75000000D01*
X55344571Y-75000000D01*
X55364244Y-75212310D01*
X55422596Y-75417392D01*
X55422596Y-75417394D01*
X55517632Y-75608253D01*
X55615964Y-75738464D01*
X55646128Y-75778407D01*
X55803698Y-75922052D01*
X55984981Y-76034298D01*
X56183802Y-76111321D01*
X56393390Y-76150500D01*
X56393392Y-76150500D01*
X56606608Y-76150500D01*
X56606610Y-76150500D01*
X56816198Y-76111321D01*
X57015019Y-76034298D01*
X57196302Y-75922052D01*
X57353872Y-75778407D01*
X57482366Y-75608255D01*
X57577405Y-75417389D01*
X57635756Y-75212310D01*
X57655429Y-75000000D01*
X57635756Y-74787690D01*
X57577405Y-74582611D01*
X57577403Y-74582606D01*
X57577403Y-74582605D01*
X57482367Y-74391746D01*
X57353872Y-74221593D01*
X57196302Y-74077948D01*
X57015019Y-73965702D01*
X57015017Y-73965701D01*
X56915608Y-73927190D01*
X56816198Y-73888679D01*
X56606610Y-73849500D01*
X56393390Y-73849500D01*
X56183802Y-73888679D01*
X56183799Y-73888679D01*
X56183799Y-73888680D01*
X55984982Y-73965701D01*
X55984980Y-73965702D01*
X55803699Y-74077947D01*
X55646127Y-74221593D01*
X55517632Y-74391746D01*
X55422596Y-74582605D01*
X55422596Y-74582607D01*
X55364244Y-74787689D01*
X55344571Y-74999999D01*
X55344571Y-75000000D01*
X46800500Y-75000000D01*
X46800500Y-73169999D01*
X59433627Y-73169999D01*
X59433628Y-73170000D01*
X60396814Y-73170000D01*
X60392420Y-73174394D01*
X60339759Y-73265606D01*
X60312500Y-73367339D01*
X60312500Y-73472661D01*
X60339759Y-73574394D01*
X60392420Y-73665606D01*
X60396814Y-73670000D01*
X59433628Y-73670000D01*
X59486230Y-73866317D01*
X59486234Y-73866326D01*
X59582365Y-74072482D01*
X59712842Y-74258820D01*
X59873679Y-74419657D01*
X60060017Y-74550133D01*
X60235887Y-74632143D01*
X60288326Y-74678315D01*
X60307478Y-74745509D01*
X60287262Y-74812390D01*
X60234097Y-74857724D01*
X60228276Y-74860152D01*
X60175101Y-74880751D01*
X60175095Y-74880754D01*
X59985939Y-74997874D01*
X59985937Y-74997876D01*
X59821520Y-75147761D01*
X59687443Y-75325308D01*
X59687438Y-75325316D01*
X59588275Y-75524461D01*
X59588269Y-75524476D01*
X59527385Y-75738462D01*
X59527384Y-75738464D01*
X59506857Y-75959999D01*
X59506857Y-75960000D01*
X59527384Y-76181535D01*
X59527385Y-76181537D01*
X59588269Y-76395523D01*
X59588275Y-76395538D01*
X59687438Y-76594683D01*
X59687443Y-76594691D01*
X59821520Y-76772238D01*
X59985937Y-76922123D01*
X59985939Y-76922125D01*
X60175095Y-77039245D01*
X60175096Y-77039245D01*
X60175099Y-77039247D01*
X60369024Y-77114374D01*
X60424424Y-77156946D01*
X60448015Y-77222713D01*
X60432304Y-77290793D01*
X60382280Y-77339572D01*
X60369033Y-77345622D01*
X60220988Y-77402975D01*
X60175101Y-77420752D01*
X60175095Y-77420754D01*
X59985939Y-77537874D01*
X59985937Y-77537876D01*
X59821520Y-77687761D01*
X59687443Y-77865308D01*
X59687438Y-77865316D01*
X59588275Y-78064461D01*
X59588269Y-78064476D01*
X59527385Y-78278462D01*
X59527384Y-78278464D01*
X59506857Y-78499999D01*
X59506857Y-78500000D01*
X59527384Y-78721535D01*
X59527385Y-78721537D01*
X59588269Y-78935523D01*
X59588275Y-78935538D01*
X59687438Y-79134683D01*
X59687443Y-79134691D01*
X59821520Y-79312238D01*
X59985937Y-79462123D01*
X59985939Y-79462125D01*
X60175095Y-79579245D01*
X60175096Y-79579245D01*
X60175099Y-79579247D01*
X60369024Y-79654374D01*
X60424424Y-79696946D01*
X60448015Y-79762713D01*
X60432304Y-79830793D01*
X60382280Y-79879572D01*
X60369033Y-79885622D01*
X60220988Y-79942975D01*
X60175101Y-79960752D01*
X60175095Y-79960754D01*
X59985939Y-80077874D01*
X59985937Y-80077876D01*
X59821520Y-80227761D01*
X59687443Y-80405308D01*
X59687438Y-80405316D01*
X59588275Y-80604461D01*
X59588269Y-80604476D01*
X59527385Y-80818462D01*
X59527384Y-80818464D01*
X59506857Y-81039999D01*
X59506857Y-81040000D01*
X59527384Y-81261535D01*
X59527385Y-81261537D01*
X59588269Y-81475523D01*
X59588275Y-81475538D01*
X59687438Y-81674683D01*
X59687443Y-81674691D01*
X59821520Y-81852238D01*
X59985937Y-82002123D01*
X59985939Y-82002125D01*
X60175095Y-82119245D01*
X60175096Y-82119245D01*
X60175099Y-82119247D01*
X60369024Y-82194374D01*
X60424424Y-82236946D01*
X60448015Y-82302713D01*
X60432304Y-82370793D01*
X60382280Y-82419572D01*
X60369033Y-82425622D01*
X60285416Y-82458016D01*
X60175101Y-82500752D01*
X60175095Y-82500754D01*
X59985939Y-82617874D01*
X59985937Y-82617876D01*
X59821520Y-82767761D01*
X59687443Y-82945308D01*
X59687438Y-82945316D01*
X59588275Y-83144461D01*
X59588269Y-83144476D01*
X59527385Y-83358462D01*
X59527384Y-83358464D01*
X59506857Y-83579999D01*
X59506857Y-83580000D01*
X59527384Y-83801535D01*
X59527385Y-83801537D01*
X59588269Y-84015523D01*
X59588275Y-84015538D01*
X59687438Y-84214683D01*
X59687443Y-84214691D01*
X59821520Y-84392238D01*
X59985937Y-84542123D01*
X59985939Y-84542125D01*
X60175095Y-84659245D01*
X60175096Y-84659245D01*
X60175099Y-84659247D01*
X60369024Y-84734374D01*
X60424424Y-84776946D01*
X60448015Y-84842713D01*
X60432304Y-84910793D01*
X60382280Y-84959572D01*
X60369033Y-84965622D01*
X60274110Y-85002396D01*
X60175101Y-85040752D01*
X60175095Y-85040754D01*
X59985939Y-85157874D01*
X59985937Y-85157876D01*
X59821520Y-85307761D01*
X59687443Y-85485308D01*
X59687438Y-85485316D01*
X59588275Y-85684461D01*
X59588269Y-85684476D01*
X59527385Y-85898462D01*
X59527384Y-85898464D01*
X59506857Y-86119999D01*
X59506857Y-86120000D01*
X59527384Y-86341535D01*
X59527385Y-86341537D01*
X59588269Y-86555523D01*
X59588275Y-86555538D01*
X59687438Y-86754683D01*
X59687443Y-86754691D01*
X59821520Y-86932238D01*
X59985937Y-87082123D01*
X59985939Y-87082125D01*
X60175095Y-87199245D01*
X60175096Y-87199245D01*
X60175099Y-87199247D01*
X60369024Y-87274374D01*
X60424424Y-87316946D01*
X60448015Y-87382713D01*
X60432304Y-87450793D01*
X60382280Y-87499572D01*
X60369033Y-87505622D01*
X60220988Y-87562975D01*
X60175101Y-87580752D01*
X60175095Y-87580754D01*
X59985939Y-87697874D01*
X59985937Y-87697876D01*
X59821520Y-87847761D01*
X59687443Y-88025308D01*
X59687438Y-88025316D01*
X59588275Y-88224461D01*
X59588269Y-88224476D01*
X59527385Y-88438462D01*
X59527384Y-88438464D01*
X59506857Y-88659999D01*
X59506857Y-88660000D01*
X59527384Y-88881535D01*
X59527385Y-88881537D01*
X59588269Y-89095523D01*
X59588275Y-89095538D01*
X59687438Y-89294683D01*
X59687443Y-89294691D01*
X59821520Y-89472238D01*
X59985937Y-89622123D01*
X59985939Y-89622125D01*
X60175095Y-89739245D01*
X60175096Y-89739245D01*
X60175099Y-89739247D01*
X60382560Y-89819618D01*
X60601257Y-89860500D01*
X60601259Y-89860500D01*
X60823741Y-89860500D01*
X60823743Y-89860500D01*
X61042440Y-89819618D01*
X61249901Y-89739247D01*
X61439062Y-89622124D01*
X61603481Y-89472236D01*
X61737558Y-89294689D01*
X61836729Y-89095528D01*
X61897615Y-88881536D01*
X61918143Y-88660000D01*
X61897615Y-88438464D01*
X61836729Y-88224472D01*
X61836724Y-88224461D01*
X61737561Y-88025316D01*
X61737556Y-88025308D01*
X61603479Y-87847761D01*
X61439062Y-87697876D01*
X61439060Y-87697874D01*
X61249904Y-87580754D01*
X61249895Y-87580750D01*
X61156456Y-87544552D01*
X61055975Y-87505625D01*
X61000575Y-87463054D01*
X60976984Y-87397288D01*
X60992695Y-87329207D01*
X61042719Y-87280428D01*
X61055966Y-87274377D01*
X61249901Y-87199247D01*
X61439062Y-87082124D01*
X61603481Y-86932236D01*
X61737558Y-86754689D01*
X61836729Y-86555528D01*
X61897615Y-86341536D01*
X61918143Y-86120000D01*
X61897615Y-85898464D01*
X61836729Y-85684472D01*
X61836724Y-85684461D01*
X61737561Y-85485316D01*
X61737556Y-85485308D01*
X61603479Y-85307761D01*
X61439062Y-85157876D01*
X61439060Y-85157874D01*
X61249904Y-85040754D01*
X61249895Y-85040750D01*
X61150888Y-85002395D01*
X61055975Y-84965625D01*
X61000575Y-84923054D01*
X60976984Y-84857288D01*
X60992695Y-84789207D01*
X61042719Y-84740428D01*
X61055966Y-84734377D01*
X61249901Y-84659247D01*
X61439062Y-84542124D01*
X61603481Y-84392236D01*
X61737558Y-84214689D01*
X61836729Y-84015528D01*
X61897615Y-83801536D01*
X61918143Y-83580000D01*
X61897615Y-83358464D01*
X61836729Y-83144472D01*
X61836724Y-83144461D01*
X61737561Y-82945316D01*
X61737556Y-82945308D01*
X61603479Y-82767761D01*
X61439062Y-82617876D01*
X61439060Y-82617874D01*
X61249904Y-82500754D01*
X61249895Y-82500750D01*
X61139584Y-82458016D01*
X61055975Y-82425625D01*
X61000575Y-82383054D01*
X60976984Y-82317288D01*
X60992695Y-82249207D01*
X61042719Y-82200428D01*
X61055966Y-82194377D01*
X61249901Y-82119247D01*
X61439062Y-82002124D01*
X61603481Y-81852236D01*
X61737558Y-81674689D01*
X61836729Y-81475528D01*
X61897615Y-81261536D01*
X61918143Y-81040000D01*
X61897615Y-80818464D01*
X61836729Y-80604472D01*
X61836724Y-80604461D01*
X61737561Y-80405316D01*
X61737556Y-80405308D01*
X61603479Y-80227761D01*
X61439062Y-80077876D01*
X61439060Y-80077874D01*
X61249904Y-79960754D01*
X61249895Y-79960750D01*
X61124876Y-79912318D01*
X61055975Y-79885625D01*
X61000575Y-79843054D01*
X60976984Y-79777288D01*
X60992695Y-79709207D01*
X61042719Y-79660428D01*
X61055966Y-79654377D01*
X61249901Y-79579247D01*
X61439062Y-79462124D01*
X61603481Y-79312236D01*
X61737558Y-79134689D01*
X61836729Y-78935528D01*
X61897615Y-78721536D01*
X61918143Y-78500000D01*
X61897615Y-78278464D01*
X61836729Y-78064472D01*
X61836724Y-78064461D01*
X61737561Y-77865316D01*
X61737556Y-77865308D01*
X61603479Y-77687761D01*
X61439062Y-77537876D01*
X61439060Y-77537874D01*
X61249904Y-77420754D01*
X61249895Y-77420750D01*
X61156456Y-77384552D01*
X61055975Y-77345625D01*
X61000575Y-77303054D01*
X60976984Y-77237288D01*
X60992695Y-77169207D01*
X61042719Y-77120428D01*
X61055966Y-77114377D01*
X61249901Y-77039247D01*
X61439062Y-76922124D01*
X61603481Y-76772236D01*
X61737558Y-76594689D01*
X61836729Y-76395528D01*
X61897615Y-76181536D01*
X61918143Y-75960000D01*
X61897615Y-75738464D01*
X61836729Y-75524472D01*
X61836724Y-75524461D01*
X61737561Y-75325316D01*
X61737556Y-75325308D01*
X61603479Y-75147761D01*
X61439062Y-74997876D01*
X61439060Y-74997874D01*
X61249904Y-74880754D01*
X61249895Y-74880750D01*
X61196724Y-74860152D01*
X61141322Y-74817579D01*
X61117731Y-74751813D01*
X61133442Y-74683732D01*
X61183466Y-74634953D01*
X61189113Y-74632143D01*
X61364979Y-74550135D01*
X61364981Y-74550134D01*
X61551320Y-74419657D01*
X61712157Y-74258820D01*
X61842634Y-74072482D01*
X61938765Y-73866326D01*
X61938769Y-73866317D01*
X61991372Y-73670000D01*
X61028186Y-73670000D01*
X61032580Y-73665606D01*
X61085241Y-73574394D01*
X61112500Y-73472661D01*
X61112500Y-73367339D01*
X61085241Y-73265606D01*
X61032580Y-73174394D01*
X61028186Y-73170000D01*
X61991372Y-73170000D01*
X61991372Y-73169999D01*
X61939122Y-72975000D01*
X62525001Y-72975000D01*
X62525001Y-73074154D01*
X62535319Y-73175152D01*
X62589546Y-73338800D01*
X62589551Y-73338811D01*
X62680052Y-73485534D01*
X62680055Y-73485538D01*
X62801961Y-73607444D01*
X62801965Y-73607447D01*
X62948688Y-73697948D01*
X62948699Y-73697953D01*
X63112347Y-73752180D01*
X63213352Y-73762499D01*
X63250000Y-73762499D01*
X63250000Y-72975000D01*
X63750000Y-72975000D01*
X63750000Y-73762499D01*
X63786640Y-73762499D01*
X63786654Y-73762498D01*
X63887652Y-73752180D01*
X64051300Y-73697953D01*
X64051311Y-73697948D01*
X64198034Y-73607447D01*
X64198038Y-73607444D01*
X64319944Y-73485538D01*
X64319947Y-73485534D01*
X64410448Y-73338811D01*
X64410453Y-73338800D01*
X64464680Y-73175152D01*
X64474999Y-73074154D01*
X64475000Y-73074141D01*
X64475000Y-72975000D01*
X63750000Y-72975000D01*
X63250000Y-72975000D01*
X62525001Y-72975000D01*
X61939122Y-72975000D01*
X61938769Y-72973682D01*
X61938765Y-72973673D01*
X61842634Y-72767517D01*
X61712157Y-72581179D01*
X61551320Y-72420342D01*
X61364982Y-72289865D01*
X61189112Y-72207856D01*
X61136673Y-72161684D01*
X61117521Y-72094490D01*
X61137737Y-72027609D01*
X61190902Y-71982274D01*
X61196706Y-71979854D01*
X61236432Y-71964465D01*
X61249892Y-71959251D01*
X61249896Y-71959248D01*
X61249901Y-71959247D01*
X61439062Y-71842124D01*
X61603481Y-71692236D01*
X61673306Y-71599773D01*
X61729415Y-71558137D01*
X61772260Y-71550500D01*
X62598696Y-71550500D01*
X62665735Y-71570185D01*
X62705428Y-71611380D01*
X62754369Y-71694136D01*
X62754378Y-71694148D01*
X62764692Y-71704462D01*
X62798177Y-71765785D01*
X62793193Y-71835477D01*
X62764693Y-71879824D01*
X62680052Y-71964465D01*
X62589551Y-72111188D01*
X62589546Y-72111199D01*
X62535319Y-72274847D01*
X62525000Y-72375845D01*
X62525000Y-72475000D01*
X64474999Y-72475000D01*
X64474999Y-72375860D01*
X64474998Y-72375845D01*
X64464680Y-72274847D01*
X64410453Y-72111199D01*
X64410448Y-72111188D01*
X64319947Y-71964465D01*
X64319944Y-71964461D01*
X64235307Y-71879824D01*
X64201822Y-71818501D01*
X64206806Y-71748809D01*
X64235310Y-71704459D01*
X64245622Y-71694147D01*
X64245626Y-71694143D01*
X64327681Y-71555394D01*
X64372654Y-71400598D01*
X64375500Y-71364435D01*
X64375499Y-71095806D01*
X64395183Y-71028768D01*
X64411813Y-71008131D01*
X64789946Y-70629999D01*
X67053627Y-70629999D01*
X67053628Y-70630000D01*
X68016814Y-70630000D01*
X68012420Y-70634394D01*
X67959759Y-70725606D01*
X67932500Y-70827339D01*
X67932500Y-70932661D01*
X67959759Y-71034394D01*
X68012420Y-71125606D01*
X68016814Y-71130000D01*
X67053628Y-71130000D01*
X67106230Y-71326317D01*
X67106234Y-71326326D01*
X67202365Y-71532482D01*
X67332842Y-71718820D01*
X67493679Y-71879657D01*
X67680017Y-72010133D01*
X67855887Y-72092143D01*
X67908326Y-72138315D01*
X67927478Y-72205509D01*
X67907262Y-72272390D01*
X67854097Y-72317724D01*
X67848276Y-72320152D01*
X67795101Y-72340751D01*
X67795095Y-72340754D01*
X67605939Y-72457874D01*
X67605937Y-72457876D01*
X67441520Y-72607761D01*
X67307443Y-72785308D01*
X67307438Y-72785316D01*
X67208275Y-72984461D01*
X67208269Y-72984476D01*
X67147385Y-73198462D01*
X67147384Y-73198464D01*
X67126857Y-73419999D01*
X67126857Y-73420000D01*
X67147384Y-73641535D01*
X67147385Y-73641537D01*
X67208269Y-73855523D01*
X67208275Y-73855538D01*
X67307438Y-74054683D01*
X67307443Y-74054691D01*
X67441520Y-74232238D01*
X67605937Y-74382123D01*
X67605939Y-74382125D01*
X67795095Y-74499245D01*
X67795096Y-74499245D01*
X67795099Y-74499247D01*
X67989024Y-74574374D01*
X68044424Y-74616946D01*
X68068015Y-74682713D01*
X68052304Y-74750793D01*
X68002280Y-74799572D01*
X67989033Y-74805622D01*
X67854544Y-74857724D01*
X67795101Y-74880752D01*
X67795095Y-74880754D01*
X67605939Y-74997874D01*
X67605937Y-74997876D01*
X67441520Y-75147761D01*
X67307443Y-75325308D01*
X67307438Y-75325316D01*
X67208275Y-75524461D01*
X67208269Y-75524476D01*
X67147385Y-75738462D01*
X67147384Y-75738464D01*
X67126857Y-75959999D01*
X67126857Y-75960000D01*
X67147384Y-76181535D01*
X67147385Y-76181537D01*
X67208269Y-76395523D01*
X67208275Y-76395538D01*
X67307438Y-76594683D01*
X67307443Y-76594691D01*
X67441520Y-76772238D01*
X67605937Y-76922123D01*
X67605939Y-76922125D01*
X67795095Y-77039245D01*
X67795096Y-77039245D01*
X67795099Y-77039247D01*
X67989024Y-77114374D01*
X68044424Y-77156946D01*
X68068015Y-77222713D01*
X68052304Y-77290793D01*
X68002280Y-77339572D01*
X67989033Y-77345622D01*
X67840988Y-77402975D01*
X67795101Y-77420752D01*
X67795095Y-77420754D01*
X67605939Y-77537874D01*
X67605937Y-77537876D01*
X67441520Y-77687761D01*
X67307443Y-77865308D01*
X67307438Y-77865316D01*
X67208275Y-78064461D01*
X67208269Y-78064476D01*
X67147385Y-78278462D01*
X67147384Y-78278464D01*
X67126857Y-78499999D01*
X67126857Y-78500000D01*
X67147384Y-78721535D01*
X67147385Y-78721537D01*
X67208269Y-78935523D01*
X67208275Y-78935538D01*
X67307438Y-79134683D01*
X67307443Y-79134691D01*
X67441520Y-79312238D01*
X67605937Y-79462123D01*
X67605939Y-79462125D01*
X67795095Y-79579245D01*
X67795096Y-79579245D01*
X67795099Y-79579247D01*
X67989024Y-79654374D01*
X68044424Y-79696946D01*
X68068015Y-79762713D01*
X68052304Y-79830793D01*
X68002280Y-79879572D01*
X67989033Y-79885622D01*
X67840988Y-79942975D01*
X67795101Y-79960752D01*
X67795095Y-79960754D01*
X67605939Y-80077874D01*
X67605937Y-80077876D01*
X67441520Y-80227761D01*
X67307443Y-80405308D01*
X67307438Y-80405316D01*
X67208275Y-80604461D01*
X67208269Y-80604476D01*
X67147385Y-80818462D01*
X67147384Y-80818464D01*
X67126857Y-81039999D01*
X67126857Y-81040000D01*
X67147384Y-81261535D01*
X67147385Y-81261537D01*
X67208269Y-81475523D01*
X67208275Y-81475538D01*
X67307438Y-81674683D01*
X67307443Y-81674691D01*
X67441520Y-81852238D01*
X67605937Y-82002123D01*
X67605939Y-82002125D01*
X67795095Y-82119245D01*
X67795096Y-82119245D01*
X67795099Y-82119247D01*
X67989024Y-82194374D01*
X68044424Y-82236946D01*
X68068015Y-82302713D01*
X68052304Y-82370793D01*
X68002280Y-82419572D01*
X67989033Y-82425622D01*
X67905416Y-82458016D01*
X67795101Y-82500752D01*
X67795095Y-82500754D01*
X67605939Y-82617874D01*
X67605937Y-82617876D01*
X67441520Y-82767761D01*
X67307443Y-82945308D01*
X67307438Y-82945316D01*
X67208275Y-83144461D01*
X67208269Y-83144476D01*
X67147385Y-83358462D01*
X67147384Y-83358464D01*
X67126857Y-83579999D01*
X67126857Y-83580000D01*
X67147384Y-83801535D01*
X67147385Y-83801537D01*
X67208269Y-84015523D01*
X67208275Y-84015538D01*
X67307438Y-84214683D01*
X67307443Y-84214691D01*
X67441520Y-84392238D01*
X67605937Y-84542123D01*
X67605939Y-84542125D01*
X67795095Y-84659245D01*
X67795096Y-84659245D01*
X67795099Y-84659247D01*
X67989024Y-84734374D01*
X68044424Y-84776946D01*
X68068015Y-84842713D01*
X68052304Y-84910793D01*
X68002280Y-84959572D01*
X67989033Y-84965622D01*
X67894110Y-85002396D01*
X67795101Y-85040752D01*
X67795095Y-85040754D01*
X67605939Y-85157874D01*
X67605937Y-85157876D01*
X67441520Y-85307761D01*
X67307443Y-85485308D01*
X67307438Y-85485316D01*
X67208275Y-85684461D01*
X67208269Y-85684476D01*
X67147385Y-85898462D01*
X67147384Y-85898464D01*
X67126857Y-86119999D01*
X67126857Y-86120000D01*
X67147384Y-86341535D01*
X67147385Y-86341537D01*
X67208269Y-86555523D01*
X67208275Y-86555538D01*
X67307438Y-86754683D01*
X67307443Y-86754691D01*
X67441520Y-86932238D01*
X67605937Y-87082123D01*
X67605939Y-87082125D01*
X67795095Y-87199245D01*
X67795096Y-87199245D01*
X67795099Y-87199247D01*
X67989024Y-87274374D01*
X68044424Y-87316946D01*
X68068015Y-87382713D01*
X68052304Y-87450793D01*
X68002280Y-87499572D01*
X67989033Y-87505622D01*
X67840988Y-87562975D01*
X67795101Y-87580752D01*
X67795095Y-87580754D01*
X67605939Y-87697874D01*
X67605937Y-87697876D01*
X67441520Y-87847761D01*
X67307443Y-88025308D01*
X67307438Y-88025316D01*
X67208275Y-88224461D01*
X67208269Y-88224476D01*
X67147385Y-88438462D01*
X67147384Y-88438464D01*
X67126857Y-88659999D01*
X67126857Y-88660000D01*
X67147384Y-88881535D01*
X67147385Y-88881537D01*
X67208269Y-89095523D01*
X67208275Y-89095538D01*
X67307438Y-89294683D01*
X67307443Y-89294691D01*
X67441520Y-89472238D01*
X67605937Y-89622123D01*
X67605939Y-89622125D01*
X67795095Y-89739245D01*
X67795096Y-89739245D01*
X67795099Y-89739247D01*
X68002560Y-89819618D01*
X68221257Y-89860500D01*
X68221259Y-89860500D01*
X68443741Y-89860500D01*
X68443743Y-89860500D01*
X68556221Y-89839474D01*
X83707000Y-89839474D01*
X83707001Y-89839491D01*
X83740799Y-90096217D01*
X83740800Y-90096222D01*
X83740801Y-90096228D01*
X83740802Y-90096230D01*
X83807824Y-90346364D01*
X83906923Y-90585609D01*
X83906927Y-90585619D01*
X84036406Y-90809883D01*
X84194051Y-91015331D01*
X84194057Y-91015338D01*
X84377161Y-91198442D01*
X84377168Y-91198448D01*
X84582616Y-91356093D01*
X84806880Y-91485572D01*
X84806881Y-91485572D01*
X84806884Y-91485574D01*
X85046134Y-91584675D01*
X85296272Y-91651699D01*
X85553019Y-91685500D01*
X85553026Y-91685500D01*
X85811974Y-91685500D01*
X85811981Y-91685500D01*
X86068728Y-91651699D01*
X86318866Y-91584675D01*
X86558116Y-91485574D01*
X86782384Y-91356093D01*
X86987833Y-91198447D01*
X87170947Y-91015333D01*
X87328593Y-90809884D01*
X87458074Y-90585616D01*
X87557175Y-90346366D01*
X87624199Y-90096228D01*
X87658000Y-89839481D01*
X87658000Y-89580519D01*
X87624199Y-89323772D01*
X87557175Y-89073634D01*
X87458074Y-88834384D01*
X87357393Y-88660000D01*
X87328593Y-88610116D01*
X87170948Y-88404668D01*
X87170942Y-88404661D01*
X86987838Y-88221557D01*
X86987831Y-88221551D01*
X86782383Y-88063906D01*
X86558119Y-87934427D01*
X86558109Y-87934423D01*
X86318864Y-87835324D01*
X86193797Y-87801813D01*
X86068728Y-87768301D01*
X86068722Y-87768300D01*
X86068717Y-87768299D01*
X85811991Y-87734501D01*
X85811986Y-87734500D01*
X85811981Y-87734500D01*
X85553019Y-87734500D01*
X85553013Y-87734500D01*
X85553008Y-87734501D01*
X85296282Y-87768299D01*
X85296275Y-87768300D01*
X85296272Y-87768301D01*
X85243408Y-87782465D01*
X85046135Y-87835324D01*
X84806890Y-87934423D01*
X84806880Y-87934427D01*
X84582616Y-88063906D01*
X84377168Y-88221551D01*
X84377161Y-88221557D01*
X84194057Y-88404661D01*
X84194051Y-88404668D01*
X84036406Y-88610116D01*
X83906927Y-88834380D01*
X83906923Y-88834390D01*
X83807824Y-89073635D01*
X83740802Y-89323769D01*
X83740799Y-89323782D01*
X83707001Y-89580508D01*
X83707000Y-89580525D01*
X83707000Y-89839474D01*
X68556221Y-89839474D01*
X68662440Y-89819618D01*
X68869901Y-89739247D01*
X69059062Y-89622124D01*
X69223481Y-89472236D01*
X69357558Y-89294689D01*
X69456729Y-89095528D01*
X69517615Y-88881536D01*
X69538143Y-88660000D01*
X69517615Y-88438464D01*
X69456729Y-88224472D01*
X69456724Y-88224461D01*
X69357561Y-88025316D01*
X69357556Y-88025308D01*
X69223479Y-87847761D01*
X69059062Y-87697876D01*
X69059060Y-87697874D01*
X68869904Y-87580754D01*
X68869895Y-87580750D01*
X68776456Y-87544552D01*
X68675975Y-87505625D01*
X68620575Y-87463054D01*
X68596984Y-87397288D01*
X68612695Y-87329207D01*
X68662719Y-87280428D01*
X68675966Y-87274377D01*
X68869901Y-87199247D01*
X69059062Y-87082124D01*
X69223481Y-86932236D01*
X69357558Y-86754689D01*
X69456729Y-86555528D01*
X69517615Y-86341536D01*
X69538143Y-86120000D01*
X69517615Y-85898464D01*
X69456729Y-85684472D01*
X69456724Y-85684461D01*
X69357561Y-85485316D01*
X69357556Y-85485308D01*
X69223479Y-85307761D01*
X69059062Y-85157876D01*
X69059060Y-85157874D01*
X68869904Y-85040754D01*
X68869895Y-85040750D01*
X68770888Y-85002395D01*
X68675975Y-84965625D01*
X68620575Y-84923054D01*
X68596984Y-84857288D01*
X68612695Y-84789207D01*
X68662719Y-84740428D01*
X68675966Y-84734377D01*
X68869901Y-84659247D01*
X69059062Y-84542124D01*
X69223481Y-84392236D01*
X69357558Y-84214689D01*
X69456729Y-84015528D01*
X69517615Y-83801536D01*
X69538143Y-83580000D01*
X69517615Y-83358464D01*
X69456729Y-83144472D01*
X69456724Y-83144461D01*
X69357561Y-82945316D01*
X69357556Y-82945308D01*
X69223479Y-82767761D01*
X69059062Y-82617876D01*
X69059060Y-82617874D01*
X68869904Y-82500754D01*
X68869895Y-82500750D01*
X68759584Y-82458016D01*
X68675975Y-82425625D01*
X68620575Y-82383054D01*
X68596984Y-82317288D01*
X68612695Y-82249207D01*
X68662719Y-82200428D01*
X68675966Y-82194377D01*
X68869901Y-82119247D01*
X69059062Y-82002124D01*
X69223481Y-81852236D01*
X69357558Y-81674689D01*
X69456729Y-81475528D01*
X69517615Y-81261536D01*
X69538143Y-81040000D01*
X69534437Y-81000000D01*
X75044901Y-81000000D01*
X75063252Y-81186331D01*
X75063253Y-81186333D01*
X75117604Y-81365502D01*
X75205862Y-81530623D01*
X75205864Y-81530626D01*
X75324641Y-81675356D01*
X75358057Y-81702779D01*
X75404165Y-81740619D01*
X75443499Y-81798362D01*
X75449500Y-81836471D01*
X75449500Y-82192475D01*
X75479039Y-82302713D01*
X75487016Y-82332485D01*
X75559489Y-82458013D01*
X75559491Y-82458016D01*
X77019261Y-83917786D01*
X77052746Y-83979109D01*
X77054983Y-84017619D01*
X77044901Y-84119998D01*
X77044901Y-84119999D01*
X77063252Y-84306331D01*
X77063253Y-84306333D01*
X77117604Y-84485502D01*
X77205862Y-84650623D01*
X77205864Y-84650626D01*
X77324642Y-84795357D01*
X77469373Y-84914135D01*
X77469376Y-84914137D01*
X77634497Y-85002395D01*
X77634499Y-85002396D01*
X77760948Y-85040754D01*
X77813666Y-85056746D01*
X77813668Y-85056747D01*
X77830374Y-85058392D01*
X78000000Y-85075099D01*
X78186331Y-85056747D01*
X78365501Y-85002396D01*
X78530625Y-84914136D01*
X78675357Y-84795357D01*
X78794136Y-84650625D01*
X78882396Y-84485501D01*
X78936747Y-84306331D01*
X78955099Y-84120000D01*
X78936747Y-83933669D01*
X78882396Y-83754499D01*
X78794136Y-83589375D01*
X78794135Y-83589373D01*
X78675357Y-83444642D01*
X78530626Y-83325864D01*
X78530623Y-83325862D01*
X78365502Y-83237604D01*
X78186333Y-83183253D01*
X78186331Y-83183252D01*
X78000000Y-83164901D01*
X77999999Y-83164901D01*
X77897619Y-83174983D01*
X77828973Y-83161963D01*
X77797786Y-83139261D01*
X76586819Y-81928294D01*
X76553334Y-81866971D01*
X76550500Y-81840613D01*
X76550500Y-81836471D01*
X76570185Y-81769432D01*
X76595833Y-81740620D01*
X76675357Y-81675357D01*
X76794136Y-81530625D01*
X76882396Y-81365501D01*
X76936747Y-81186331D01*
X76955099Y-81000000D01*
X76936747Y-80813669D01*
X76882396Y-80634499D01*
X76882395Y-80634497D01*
X76794137Y-80469376D01*
X76794135Y-80469373D01*
X76675357Y-80324642D01*
X76530626Y-80205864D01*
X76530623Y-80205862D01*
X76365502Y-80117604D01*
X76186333Y-80063253D01*
X76186331Y-80063252D01*
X76000000Y-80044901D01*
X75813668Y-80063252D01*
X75813666Y-80063253D01*
X75634497Y-80117604D01*
X75469376Y-80205862D01*
X75469373Y-80205864D01*
X75324642Y-80324642D01*
X75205864Y-80469373D01*
X75205862Y-80469376D01*
X75117604Y-80634497D01*
X75063253Y-80813666D01*
X75063252Y-80813668D01*
X75044901Y-81000000D01*
X69534437Y-81000000D01*
X69517615Y-80818464D01*
X69456729Y-80604472D01*
X69456724Y-80604461D01*
X69357561Y-80405316D01*
X69357556Y-80405308D01*
X69223479Y-80227761D01*
X69059062Y-80077876D01*
X69059060Y-80077874D01*
X68933292Y-80000002D01*
X97195034Y-80000002D01*
X97214858Y-80226599D01*
X97214860Y-80226610D01*
X97273730Y-80446317D01*
X97273735Y-80446331D01*
X97369863Y-80652478D01*
X97420974Y-80725472D01*
X98100000Y-80046446D01*
X98100000Y-80052661D01*
X98127259Y-80154394D01*
X98179920Y-80245606D01*
X98254394Y-80320080D01*
X98345606Y-80372741D01*
X98447339Y-80400000D01*
X98453551Y-80400000D01*
X97774526Y-81079025D01*
X97847513Y-81130132D01*
X97847521Y-81130136D01*
X98053668Y-81226264D01*
X98053682Y-81226269D01*
X98273389Y-81285139D01*
X98273400Y-81285141D01*
X98499998Y-81304966D01*
X98500002Y-81304966D01*
X98726599Y-81285141D01*
X98726610Y-81285139D01*
X98946317Y-81226269D01*
X98946326Y-81226265D01*
X99152483Y-81130133D01*
X99250320Y-81061626D01*
X99316526Y-81039298D01*
X99384294Y-81056307D01*
X99409126Y-81075519D01*
X99461652Y-81128045D01*
X99461654Y-81128046D01*
X99461658Y-81128050D01*
X99574694Y-81185645D01*
X99574698Y-81185647D01*
X99668475Y-81200499D01*
X99668481Y-81200500D01*
X101331518Y-81200499D01*
X101425304Y-81185646D01*
X101538342Y-81128050D01*
X101628050Y-81038342D01*
X101685646Y-80925304D01*
X101685646Y-80925302D01*
X101685647Y-80925301D01*
X101700499Y-80831524D01*
X101700500Y-80831519D01*
X101700499Y-79168482D01*
X101685646Y-79074696D01*
X101628050Y-78961658D01*
X101628046Y-78961654D01*
X101628045Y-78961652D01*
X101538347Y-78871954D01*
X101538344Y-78871952D01*
X101538342Y-78871950D01*
X101461517Y-78832805D01*
X101425301Y-78814352D01*
X101331524Y-78799500D01*
X99668482Y-78799500D01*
X99587519Y-78812323D01*
X99574696Y-78814354D01*
X99461658Y-78871950D01*
X99461657Y-78871951D01*
X99461655Y-78871951D01*
X99409126Y-78924481D01*
X99347802Y-78957965D01*
X99278110Y-78952980D01*
X99250321Y-78938374D01*
X99152482Y-78869865D01*
X98946326Y-78773734D01*
X98946317Y-78773730D01*
X98726610Y-78714860D01*
X98726599Y-78714858D01*
X98500002Y-78695034D01*
X98499998Y-78695034D01*
X98273400Y-78714858D01*
X98273389Y-78714860D01*
X98053682Y-78773730D01*
X98053673Y-78773734D01*
X97847516Y-78869866D01*
X97847512Y-78869868D01*
X97774526Y-78920973D01*
X97774526Y-78920974D01*
X98453553Y-79600000D01*
X98447339Y-79600000D01*
X98345606Y-79627259D01*
X98254394Y-79679920D01*
X98179920Y-79754394D01*
X98127259Y-79845606D01*
X98100000Y-79947339D01*
X98100000Y-79953552D01*
X97420974Y-79274526D01*
X97420973Y-79274526D01*
X97369868Y-79347512D01*
X97369866Y-79347516D01*
X97273734Y-79553673D01*
X97273730Y-79553682D01*
X97214860Y-79773389D01*
X97214858Y-79773400D01*
X97195034Y-79999997D01*
X97195034Y-80000002D01*
X68933292Y-80000002D01*
X68869904Y-79960754D01*
X68869895Y-79960750D01*
X68744876Y-79912318D01*
X68675975Y-79885625D01*
X68620575Y-79843054D01*
X68596984Y-79777288D01*
X68612695Y-79709207D01*
X68662719Y-79660428D01*
X68675966Y-79654377D01*
X68869901Y-79579247D01*
X69059062Y-79462124D01*
X69223481Y-79312236D01*
X69357558Y-79134689D01*
X69456729Y-78935528D01*
X69517615Y-78721536D01*
X69538143Y-78500000D01*
X69517615Y-78278464D01*
X69456729Y-78064472D01*
X69456724Y-78064461D01*
X69357561Y-77865316D01*
X69357556Y-77865308D01*
X69223479Y-77687761D01*
X69059062Y-77537876D01*
X69059060Y-77537874D01*
X68869904Y-77420754D01*
X68869895Y-77420750D01*
X68776456Y-77384552D01*
X68675975Y-77345625D01*
X68620575Y-77303054D01*
X68596984Y-77237288D01*
X68612695Y-77169207D01*
X68662719Y-77120428D01*
X68675966Y-77114377D01*
X68869901Y-77039247D01*
X69059062Y-76922124D01*
X69223481Y-76772236D01*
X69357558Y-76594689D01*
X69456729Y-76395528D01*
X69517615Y-76181536D01*
X69538143Y-75960000D01*
X69517615Y-75738464D01*
X69456729Y-75524472D01*
X69456724Y-75524461D01*
X69357561Y-75325316D01*
X69357556Y-75325308D01*
X69223479Y-75147761D01*
X69059062Y-74997876D01*
X69059060Y-74997874D01*
X68869904Y-74880754D01*
X68869895Y-74880750D01*
X68776456Y-74844552D01*
X68675975Y-74805625D01*
X68620575Y-74763054D01*
X68596984Y-74697288D01*
X68612695Y-74629207D01*
X68662719Y-74580428D01*
X68675966Y-74574377D01*
X68869901Y-74499247D01*
X69059062Y-74382124D01*
X69223481Y-74232236D01*
X69357558Y-74054689D01*
X69456729Y-73855528D01*
X69517615Y-73641536D01*
X69538143Y-73420000D01*
X69517615Y-73198464D01*
X69456729Y-72984472D01*
X69456724Y-72984461D01*
X69357561Y-72785316D01*
X69357556Y-72785308D01*
X69223479Y-72607761D01*
X69059062Y-72457876D01*
X69059060Y-72457874D01*
X68869904Y-72340754D01*
X68869895Y-72340750D01*
X68816724Y-72320152D01*
X68761322Y-72277579D01*
X68737731Y-72211813D01*
X68753442Y-72143732D01*
X68803466Y-72094953D01*
X68809113Y-72092143D01*
X68984979Y-72010135D01*
X68984981Y-72010134D01*
X68999454Y-72000000D01*
X83544901Y-72000000D01*
X83563252Y-72186331D01*
X83563253Y-72186333D01*
X83617604Y-72365502D01*
X83705862Y-72530623D01*
X83705864Y-72530626D01*
X83824642Y-72675357D01*
X83969373Y-72794135D01*
X83969376Y-72794137D01*
X84134497Y-72882395D01*
X84134499Y-72882396D01*
X84313666Y-72936746D01*
X84313668Y-72936747D01*
X84330374Y-72938392D01*
X84500000Y-72955099D01*
X84686331Y-72936747D01*
X84865501Y-72882396D01*
X85030625Y-72794136D01*
X85175357Y-72675357D01*
X85294136Y-72530625D01*
X85382396Y-72365501D01*
X85436747Y-72186331D01*
X85455099Y-72000000D01*
X85436747Y-71813669D01*
X85382396Y-71634499D01*
X85327867Y-71532482D01*
X85294471Y-71470000D01*
X96375138Y-71470000D01*
X96383430Y-71511690D01*
X96383430Y-71511692D01*
X96458807Y-71693671D01*
X96458814Y-71693684D01*
X96568248Y-71857462D01*
X96568251Y-71857466D01*
X96707533Y-71996748D01*
X96707537Y-71996751D01*
X96871315Y-72106185D01*
X96871328Y-72106192D01*
X97053306Y-72181569D01*
X97053318Y-72181572D01*
X97246504Y-72219999D01*
X97246508Y-72220000D01*
X97645000Y-72220000D01*
X97645000Y-71520000D01*
X98145000Y-71520000D01*
X98145000Y-72220000D01*
X98543492Y-72220000D01*
X98543495Y-72219999D01*
X98736681Y-72181572D01*
X98736693Y-72181569D01*
X98918671Y-72106192D01*
X98918684Y-72106185D01*
X99082462Y-71996751D01*
X99082466Y-71996748D01*
X99221748Y-71857466D01*
X99221751Y-71857462D01*
X99331185Y-71693684D01*
X99331192Y-71693671D01*
X99406569Y-71511692D01*
X99406569Y-71511690D01*
X99414862Y-71470000D01*
X98611988Y-71470000D01*
X98629205Y-71460060D01*
X98685060Y-71404205D01*
X98724556Y-71335796D01*
X98745000Y-71259496D01*
X98745000Y-71180504D01*
X98724556Y-71104204D01*
X98685060Y-71035795D01*
X98629205Y-70979940D01*
X98611988Y-70970000D01*
X99414862Y-70970000D01*
X99406569Y-70928309D01*
X99406569Y-70928307D01*
X99331192Y-70746328D01*
X99331185Y-70746315D01*
X99221751Y-70582537D01*
X99221748Y-70582533D01*
X99082466Y-70443251D01*
X99082462Y-70443248D01*
X98918684Y-70333814D01*
X98918674Y-70333809D01*
X98909157Y-70329867D01*
X98854754Y-70286026D01*
X98832689Y-70219731D01*
X98849969Y-70152032D01*
X98853648Y-70146597D01*
X98855512Y-70143367D01*
X98855515Y-70143365D01*
X98931070Y-70012500D01*
X99525001Y-70012500D01*
X99525001Y-70111654D01*
X99535319Y-70212652D01*
X99589546Y-70376300D01*
X99589551Y-70376311D01*
X99680052Y-70523034D01*
X99680055Y-70523038D01*
X99801961Y-70644944D01*
X99801965Y-70644947D01*
X99948688Y-70735448D01*
X99948699Y-70735453D01*
X100112347Y-70789680D01*
X100213352Y-70799999D01*
X100250000Y-70799999D01*
X100250000Y-70012500D01*
X99525001Y-70012500D01*
X98931070Y-70012500D01*
X98931281Y-70012135D01*
X98970500Y-69865766D01*
X98970500Y-69714234D01*
X98931281Y-69567865D01*
X98855515Y-69436635D01*
X98748365Y-69329485D01*
X98682750Y-69291602D01*
X98617136Y-69253719D01*
X98543950Y-69234109D01*
X98470766Y-69214500D01*
X98319234Y-69214500D01*
X98172863Y-69253719D01*
X98041635Y-69329485D01*
X98041632Y-69329487D01*
X97934487Y-69436632D01*
X97934485Y-69436635D01*
X97858719Y-69567863D01*
X97819500Y-69714234D01*
X97819500Y-69865766D01*
X97840998Y-69946000D01*
X97858720Y-70012137D01*
X97858720Y-70012138D01*
X97871342Y-70034000D01*
X97887815Y-70101901D01*
X97864962Y-70167927D01*
X97810041Y-70211118D01*
X97763955Y-70220000D01*
X97246504Y-70220000D01*
X97053318Y-70258427D01*
X97053306Y-70258430D01*
X96871328Y-70333807D01*
X96871315Y-70333814D01*
X96707537Y-70443248D01*
X96707533Y-70443251D01*
X96568251Y-70582533D01*
X96568248Y-70582537D01*
X96458814Y-70746315D01*
X96458807Y-70746328D01*
X96383430Y-70928307D01*
X96383430Y-70928309D01*
X96375138Y-70970000D01*
X97178012Y-70970000D01*
X97160795Y-70979940D01*
X97104940Y-71035795D01*
X97065444Y-71104204D01*
X97045000Y-71180504D01*
X97045000Y-71259496D01*
X97065444Y-71335796D01*
X97104940Y-71404205D01*
X97160795Y-71460060D01*
X97178012Y-71470000D01*
X96375138Y-71470000D01*
X85294471Y-71470000D01*
X85294137Y-71469376D01*
X85294135Y-71469373D01*
X85178647Y-71328651D01*
X85151334Y-71264341D01*
X85150500Y-71249986D01*
X85150500Y-70696012D01*
X85170185Y-70628973D01*
X85178633Y-70617364D01*
X85294136Y-70476625D01*
X85382396Y-70311501D01*
X85436747Y-70132331D01*
X85455099Y-69946000D01*
X85436747Y-69759669D01*
X85382396Y-69580499D01*
X85346050Y-69512500D01*
X85294137Y-69415376D01*
X85294135Y-69415373D01*
X85175357Y-69270642D01*
X85030626Y-69151864D01*
X85030623Y-69151862D01*
X84865502Y-69063604D01*
X84686333Y-69009253D01*
X84686331Y-69009252D01*
X84500000Y-68990901D01*
X84313668Y-69009252D01*
X84313666Y-69009253D01*
X84134497Y-69063604D01*
X83969376Y-69151862D01*
X83969373Y-69151864D01*
X83824642Y-69270642D01*
X83705864Y-69415373D01*
X83705862Y-69415376D01*
X83617604Y-69580497D01*
X83563253Y-69759666D01*
X83563252Y-69759668D01*
X83544901Y-69946000D01*
X83563252Y-70132331D01*
X83563253Y-70132333D01*
X83617604Y-70311502D01*
X83691365Y-70449500D01*
X83705864Y-70476625D01*
X83821354Y-70617350D01*
X83848666Y-70681656D01*
X83849500Y-70696012D01*
X83849500Y-71249986D01*
X83829815Y-71317025D01*
X83821353Y-71328651D01*
X83705864Y-71469373D01*
X83705862Y-71469376D01*
X83617604Y-71634497D01*
X83563253Y-71813666D01*
X83563252Y-71813668D01*
X83544901Y-72000000D01*
X68999454Y-72000000D01*
X69171320Y-71879657D01*
X69332157Y-71718820D01*
X69462634Y-71532482D01*
X69558765Y-71326326D01*
X69558769Y-71326317D01*
X69611372Y-71130000D01*
X68648186Y-71130000D01*
X68652580Y-71125606D01*
X68705241Y-71034394D01*
X68732500Y-70932661D01*
X68732500Y-70827339D01*
X68705241Y-70725606D01*
X68652580Y-70634394D01*
X68648186Y-70630000D01*
X69611372Y-70630000D01*
X69611372Y-70629999D01*
X69558769Y-70433682D01*
X69558765Y-70433673D01*
X69462634Y-70227517D01*
X69332157Y-70041179D01*
X69171320Y-69880342D01*
X68984982Y-69749865D01*
X68809112Y-69667856D01*
X68756673Y-69621684D01*
X68737521Y-69554490D01*
X68757737Y-69487609D01*
X68810902Y-69442274D01*
X68816706Y-69439854D01*
X68843940Y-69429304D01*
X68869892Y-69419251D01*
X68869896Y-69419248D01*
X68869901Y-69419247D01*
X69059062Y-69302124D01*
X69223481Y-69152236D01*
X69357558Y-68974689D01*
X69456729Y-68775528D01*
X69517615Y-68561536D01*
X69538143Y-68340000D01*
X69529417Y-68245835D01*
X69517615Y-68118464D01*
X69517614Y-68118462D01*
X69508861Y-68087700D01*
X69456729Y-67904472D01*
X69455184Y-67901369D01*
X86441939Y-67901369D01*
X86460290Y-68087700D01*
X86460291Y-68087702D01*
X86514642Y-68266871D01*
X86602900Y-68431992D01*
X86602902Y-68431995D01*
X86721680Y-68576726D01*
X86866411Y-68695504D01*
X86866414Y-68695506D01*
X87016145Y-68775538D01*
X87031537Y-68783765D01*
X87210704Y-68838115D01*
X87210706Y-68838116D01*
X87227412Y-68839761D01*
X87397038Y-68856468D01*
X87583369Y-68838116D01*
X87762539Y-68783765D01*
X87927663Y-68695505D01*
X88072395Y-68576726D01*
X88191174Y-68431994D01*
X88279434Y-68266870D01*
X88333785Y-68087700D01*
X88352137Y-67901369D01*
X88333785Y-67715038D01*
X88314055Y-67650000D01*
X97694901Y-67650000D01*
X97713252Y-67836331D01*
X97713253Y-67836333D01*
X97767604Y-68015502D01*
X97855862Y-68180623D01*
X97855864Y-68180626D01*
X97974642Y-68325357D01*
X98119373Y-68444135D01*
X98119376Y-68444137D01*
X98284497Y-68532395D01*
X98284499Y-68532396D01*
X98463666Y-68586746D01*
X98463668Y-68586747D01*
X98480374Y-68588392D01*
X98650000Y-68605099D01*
X98836331Y-68586747D01*
X99015501Y-68532396D01*
X99180625Y-68444136D01*
X99325357Y-68325357D01*
X99368335Y-68272989D01*
X99390620Y-68245835D01*
X99448366Y-68206501D01*
X99486473Y-68200500D01*
X99500501Y-68200500D01*
X99567540Y-68220185D01*
X99613295Y-68272989D01*
X99624501Y-68324500D01*
X99624501Y-68401947D01*
X99627346Y-68438098D01*
X99672317Y-68592889D01*
X99672320Y-68592896D01*
X99754369Y-68731636D01*
X99754378Y-68731648D01*
X99764692Y-68741962D01*
X99798177Y-68803285D01*
X99793193Y-68872977D01*
X99764693Y-68917324D01*
X99680052Y-69001965D01*
X99589551Y-69148688D01*
X99589546Y-69148699D01*
X99535319Y-69312347D01*
X99525000Y-69413345D01*
X99525000Y-69512500D01*
X101474999Y-69512500D01*
X101474999Y-69413360D01*
X101474998Y-69413345D01*
X101464680Y-69312347D01*
X101410453Y-69148699D01*
X101410448Y-69148688D01*
X101319947Y-69001965D01*
X101319944Y-69001961D01*
X101235307Y-68917324D01*
X101201822Y-68856001D01*
X101206806Y-68786309D01*
X101235310Y-68741959D01*
X101245622Y-68731647D01*
X101245626Y-68731643D01*
X101327681Y-68592894D01*
X101360793Y-68478920D01*
X101372653Y-68438102D01*
X101372654Y-68438096D01*
X101373134Y-68431994D01*
X101375500Y-68401935D01*
X101375499Y-67673066D01*
X101372654Y-67636902D01*
X101327681Y-67482106D01*
X101300329Y-67435856D01*
X101245630Y-67343363D01*
X101245621Y-67343351D01*
X101131648Y-67229378D01*
X101131636Y-67229369D01*
X100992896Y-67147320D01*
X100992889Y-67147317D01*
X100838102Y-67102346D01*
X100838096Y-67102345D01*
X100801935Y-67099500D01*
X100195635Y-67099501D01*
X100195635Y-67099352D01*
X100193094Y-67099236D01*
X100193094Y-67099500D01*
X99587870Y-67099500D01*
X99520831Y-67079815D01*
X99475076Y-67027011D01*
X99465132Y-66957853D01*
X99494157Y-66894297D01*
X99509205Y-66879647D01*
X99575357Y-66825357D01*
X99640620Y-66745835D01*
X99698366Y-66706501D01*
X99736473Y-66700500D01*
X99884950Y-66700500D01*
X99948070Y-66717767D01*
X100007106Y-66752681D01*
X100010851Y-66753769D01*
X100161897Y-66797653D01*
X100161900Y-66797653D01*
X100161902Y-66797654D01*
X100198065Y-66800500D01*
X100801934Y-66800499D01*
X100838098Y-66797654D01*
X100992894Y-66752681D01*
X101131643Y-66670626D01*
X101245626Y-66556643D01*
X101327681Y-66417894D01*
X101372654Y-66263098D01*
X101375500Y-66226935D01*
X101375499Y-65498066D01*
X101372654Y-65461902D01*
X101327681Y-65307106D01*
X101293908Y-65249998D01*
X101245630Y-65168363D01*
X101245621Y-65168351D01*
X101235307Y-65158037D01*
X101201822Y-65096714D01*
X101206806Y-65027022D01*
X101235307Y-64982674D01*
X101319948Y-64898033D01*
X101410448Y-64751311D01*
X101410453Y-64751300D01*
X101464680Y-64587652D01*
X101474999Y-64486654D01*
X101475000Y-64486641D01*
X101475000Y-64387500D01*
X99525001Y-64387500D01*
X99525001Y-64486654D01*
X99535319Y-64587652D01*
X99589546Y-64751300D01*
X99589551Y-64751311D01*
X99680052Y-64898034D01*
X99680055Y-64898038D01*
X99764692Y-64982675D01*
X99798177Y-65043998D01*
X99793193Y-65113690D01*
X99764698Y-65158032D01*
X99754376Y-65168354D01*
X99754368Y-65168365D01*
X99672320Y-65307103D01*
X99672316Y-65307111D01*
X99666787Y-65326142D01*
X99629179Y-65385027D01*
X99565705Y-65414231D01*
X99496519Y-65404482D01*
X99469047Y-65387396D01*
X99430626Y-65355864D01*
X99430623Y-65355862D01*
X99265502Y-65267604D01*
X99086333Y-65213253D01*
X99086331Y-65213252D01*
X98900000Y-65194901D01*
X98713668Y-65213252D01*
X98713666Y-65213253D01*
X98534497Y-65267604D01*
X98369376Y-65355862D01*
X98369373Y-65355864D01*
X98224642Y-65474642D01*
X98105864Y-65619373D01*
X98105862Y-65619376D01*
X98017604Y-65784497D01*
X97963253Y-65963666D01*
X97963252Y-65963668D01*
X97944901Y-66150000D01*
X97963252Y-66336331D01*
X97963253Y-66336333D01*
X98017604Y-66515502D01*
X98105862Y-66680623D01*
X98105864Y-66680626D01*
X98118572Y-66696110D01*
X98145885Y-66760419D01*
X98134094Y-66829287D01*
X98101384Y-66870628D01*
X97974642Y-66974642D01*
X97855864Y-67119373D01*
X97855862Y-67119376D01*
X97767604Y-67284497D01*
X97713253Y-67463666D01*
X97713252Y-67463668D01*
X97694901Y-67650000D01*
X88314055Y-67650000D01*
X88293360Y-67581778D01*
X88292737Y-67511915D01*
X88324338Y-67458106D01*
X89117134Y-66665310D01*
X89178455Y-66631827D01*
X89192646Y-66629592D01*
X89373831Y-66611747D01*
X89553001Y-66557396D01*
X89718125Y-66469136D01*
X89862857Y-66350357D01*
X89981636Y-66205625D01*
X90069896Y-66040501D01*
X90124247Y-65861331D01*
X90142599Y-65675000D01*
X90124247Y-65488669D01*
X90069896Y-65309499D01*
X90038094Y-65250001D01*
X89981637Y-65144376D01*
X89981635Y-65144373D01*
X89862857Y-64999642D01*
X89718126Y-64880864D01*
X89718123Y-64880862D01*
X89553002Y-64792604D01*
X89373833Y-64738253D01*
X89373831Y-64738252D01*
X89187500Y-64719901D01*
X89001168Y-64738252D01*
X89001166Y-64738253D01*
X88821997Y-64792604D01*
X88656876Y-64880862D01*
X88656873Y-64880864D01*
X88512142Y-64999642D01*
X88393364Y-65144373D01*
X88393362Y-65144376D01*
X88305104Y-65309497D01*
X88250753Y-65488666D01*
X88250752Y-65488668D01*
X88232909Y-65669838D01*
X88206748Y-65734625D01*
X88197187Y-65745365D01*
X86891763Y-67050790D01*
X86849257Y-67114405D01*
X86824821Y-67141366D01*
X86721678Y-67226014D01*
X86602902Y-67370742D01*
X86602900Y-67370745D01*
X86514642Y-67535866D01*
X86460291Y-67715035D01*
X86460290Y-67715037D01*
X86441939Y-67901369D01*
X69455184Y-67901369D01*
X69362402Y-67715038D01*
X69357561Y-67705316D01*
X69357556Y-67705308D01*
X69223479Y-67527761D01*
X69059062Y-67377876D01*
X69059060Y-67377874D01*
X68869904Y-67260754D01*
X68869895Y-67260750D01*
X68776456Y-67224552D01*
X68675975Y-67185625D01*
X68620575Y-67143054D01*
X68596984Y-67077288D01*
X68612695Y-67009207D01*
X68662719Y-66960428D01*
X68675966Y-66954377D01*
X68869901Y-66879247D01*
X69059062Y-66762124D01*
X69223481Y-66612236D01*
X69357558Y-66434689D01*
X69456729Y-66235528D01*
X69517615Y-66021536D01*
X69538143Y-65800000D01*
X69536706Y-65784497D01*
X69517615Y-65578464D01*
X69517614Y-65578462D01*
X69513519Y-65564070D01*
X69456729Y-65364472D01*
X69429355Y-65309497D01*
X69357561Y-65165316D01*
X69357556Y-65165308D01*
X69223479Y-64987761D01*
X69059062Y-64837876D01*
X69059060Y-64837874D01*
X68869904Y-64720754D01*
X68869895Y-64720750D01*
X68776456Y-64684552D01*
X68675975Y-64645625D01*
X68620575Y-64603054D01*
X68596984Y-64537288D01*
X68612695Y-64469207D01*
X68662719Y-64420428D01*
X68675966Y-64414377D01*
X68869901Y-64339247D01*
X69059062Y-64222124D01*
X69223481Y-64072236D01*
X69357558Y-63894689D01*
X69456729Y-63695528D01*
X69512362Y-63500000D01*
X83544901Y-63500000D01*
X83563252Y-63686331D01*
X83563253Y-63686333D01*
X83617604Y-63865502D01*
X83705862Y-64030623D01*
X83705864Y-64030626D01*
X83824642Y-64175357D01*
X83969373Y-64294135D01*
X83969376Y-64294137D01*
X84053772Y-64339247D01*
X84134499Y-64382396D01*
X84257203Y-64419618D01*
X84313666Y-64436746D01*
X84313668Y-64436747D01*
X84330374Y-64438392D01*
X84500000Y-64455099D01*
X84686331Y-64436747D01*
X84865501Y-64382396D01*
X85030625Y-64294136D01*
X85175357Y-64175357D01*
X85294136Y-64030625D01*
X85382396Y-63865501D01*
X85436747Y-63686331D01*
X85455099Y-63500000D01*
X85436747Y-63313669D01*
X85382396Y-63134499D01*
X85331064Y-63038462D01*
X85294137Y-62969376D01*
X85294135Y-62969373D01*
X85179754Y-62830000D01*
X96375138Y-62830000D01*
X96383430Y-62871690D01*
X96383430Y-62871692D01*
X96458807Y-63053671D01*
X96458814Y-63053684D01*
X96568248Y-63217462D01*
X96568251Y-63217466D01*
X96707533Y-63356748D01*
X96707537Y-63356751D01*
X96871315Y-63466185D01*
X96871328Y-63466192D01*
X97053306Y-63541569D01*
X97053318Y-63541572D01*
X97246504Y-63579999D01*
X97246508Y-63580000D01*
X97763955Y-63580000D01*
X97830994Y-63599685D01*
X97876749Y-63652489D01*
X97886693Y-63721647D01*
X97871342Y-63766000D01*
X97858720Y-63787861D01*
X97858720Y-63787862D01*
X97858720Y-63787863D01*
X97858719Y-63787865D01*
X97819500Y-63934234D01*
X97819500Y-64085766D01*
X97828521Y-64119432D01*
X97858719Y-64232136D01*
X97894515Y-64294135D01*
X97934485Y-64363365D01*
X98041635Y-64470515D01*
X98172865Y-64546281D01*
X98319234Y-64585500D01*
X98319236Y-64585500D01*
X98470764Y-64585500D01*
X98470766Y-64585500D01*
X98617135Y-64546281D01*
X98748365Y-64470515D01*
X98855515Y-64363365D01*
X98931281Y-64232135D01*
X98970500Y-64085766D01*
X98970500Y-63934234D01*
X98957978Y-63887500D01*
X99525000Y-63887500D01*
X100250000Y-63887500D01*
X100250000Y-63100000D01*
X100213361Y-63100000D01*
X100213343Y-63100001D01*
X100112347Y-63110319D01*
X99948699Y-63164546D01*
X99948688Y-63164551D01*
X99801965Y-63255052D01*
X99801961Y-63255055D01*
X99680055Y-63376961D01*
X99680052Y-63376965D01*
X99589551Y-63523688D01*
X99589546Y-63523699D01*
X99535319Y-63687347D01*
X99525000Y-63788345D01*
X99525000Y-63887500D01*
X98957978Y-63887500D01*
X98931281Y-63787865D01*
X98855515Y-63656635D01*
X98855513Y-63656633D01*
X98851451Y-63649597D01*
X98853654Y-63648325D01*
X98833041Y-63595022D01*
X98847073Y-63526576D01*
X98895882Y-63476582D01*
X98909163Y-63470129D01*
X98918682Y-63466186D01*
X98918684Y-63466185D01*
X99082462Y-63356751D01*
X99082466Y-63356748D01*
X99221748Y-63217466D01*
X99221751Y-63217462D01*
X99331185Y-63053684D01*
X99331192Y-63053671D01*
X99406569Y-62871692D01*
X99406569Y-62871690D01*
X99414862Y-62830000D01*
X98611988Y-62830000D01*
X98629205Y-62820060D01*
X98685060Y-62764205D01*
X98724556Y-62695796D01*
X98745000Y-62619496D01*
X98745000Y-62540504D01*
X98724556Y-62464204D01*
X98685060Y-62395795D01*
X98629205Y-62339940D01*
X98611988Y-62330000D01*
X99414862Y-62330000D01*
X99406569Y-62288309D01*
X99406569Y-62288307D01*
X99331192Y-62106328D01*
X99331185Y-62106315D01*
X99221751Y-61942537D01*
X99221748Y-61942533D01*
X99082466Y-61803251D01*
X99082462Y-61803248D01*
X98918684Y-61693814D01*
X98918671Y-61693807D01*
X98736693Y-61618430D01*
X98736681Y-61618427D01*
X98543495Y-61580000D01*
X98145000Y-61580000D01*
X98145000Y-62280000D01*
X97645000Y-62280000D01*
X97645000Y-61580000D01*
X97246504Y-61580000D01*
X97053318Y-61618427D01*
X97053306Y-61618430D01*
X96871328Y-61693807D01*
X96871315Y-61693814D01*
X96707537Y-61803248D01*
X96707533Y-61803251D01*
X96568251Y-61942533D01*
X96568248Y-61942537D01*
X96458814Y-62106315D01*
X96458807Y-62106328D01*
X96383430Y-62288307D01*
X96383430Y-62288309D01*
X96375138Y-62330000D01*
X97178012Y-62330000D01*
X97160795Y-62339940D01*
X97104940Y-62395795D01*
X97065444Y-62464204D01*
X97045000Y-62540504D01*
X97045000Y-62619496D01*
X97065444Y-62695796D01*
X97104940Y-62764205D01*
X97160795Y-62820060D01*
X97178012Y-62830000D01*
X96375138Y-62830000D01*
X85179754Y-62830000D01*
X85178647Y-62828651D01*
X85151334Y-62764341D01*
X85150500Y-62749986D01*
X85150500Y-61661012D01*
X85170185Y-61593973D01*
X85178633Y-61582364D01*
X85294136Y-61441625D01*
X85382396Y-61276501D01*
X85436747Y-61097331D01*
X85455099Y-60911000D01*
X85436747Y-60724669D01*
X85382396Y-60545499D01*
X85382395Y-60545497D01*
X85294137Y-60380376D01*
X85294135Y-60380373D01*
X85175357Y-60235642D01*
X85030626Y-60116864D01*
X85030623Y-60116862D01*
X84865502Y-60028604D01*
X84686333Y-59974253D01*
X84686331Y-59974252D01*
X84500000Y-59955901D01*
X84313668Y-59974252D01*
X84313666Y-59974253D01*
X84134497Y-60028604D01*
X83969376Y-60116862D01*
X83969373Y-60116864D01*
X83824642Y-60235642D01*
X83705864Y-60380373D01*
X83705862Y-60380376D01*
X83617604Y-60545497D01*
X83563253Y-60724666D01*
X83563252Y-60724668D01*
X83544901Y-60911000D01*
X83563252Y-61097331D01*
X83563253Y-61097333D01*
X83617604Y-61276502D01*
X83705862Y-61441622D01*
X83705864Y-61441625D01*
X83821354Y-61582350D01*
X83848666Y-61646656D01*
X83849500Y-61661012D01*
X83849500Y-62749986D01*
X83829815Y-62817025D01*
X83821353Y-62828651D01*
X83705864Y-62969373D01*
X83705862Y-62969376D01*
X83617604Y-63134497D01*
X83563253Y-63313666D01*
X83563252Y-63313668D01*
X83544901Y-63500000D01*
X69512362Y-63500000D01*
X69517615Y-63481536D01*
X69538143Y-63260000D01*
X69532243Y-63196333D01*
X69517615Y-63038464D01*
X69517614Y-63038462D01*
X69502828Y-62986496D01*
X69456729Y-62824472D01*
X69456724Y-62824461D01*
X69357561Y-62625316D01*
X69357556Y-62625308D01*
X69223479Y-62447761D01*
X69059062Y-62297876D01*
X69059060Y-62297874D01*
X68869904Y-62180754D01*
X68869895Y-62180750D01*
X68776456Y-62144552D01*
X68675975Y-62105625D01*
X68620575Y-62063054D01*
X68596984Y-61997288D01*
X68612695Y-61929207D01*
X68662719Y-61880428D01*
X68675966Y-61874377D01*
X68869901Y-61799247D01*
X69059062Y-61682124D01*
X69223481Y-61532236D01*
X69357558Y-61354689D01*
X69456729Y-61155528D01*
X69517615Y-60941536D01*
X69538143Y-60720000D01*
X69517615Y-60498464D01*
X69456729Y-60284472D01*
X69432415Y-60235643D01*
X69357561Y-60085316D01*
X69357556Y-60085308D01*
X69223479Y-59907761D01*
X69181480Y-59869474D01*
X79007000Y-59869474D01*
X79007001Y-59869491D01*
X79040799Y-60126217D01*
X79040800Y-60126222D01*
X79040801Y-60126228D01*
X79040802Y-60126230D01*
X79107824Y-60376364D01*
X79206923Y-60615609D01*
X79206927Y-60615619D01*
X79336406Y-60839883D01*
X79494051Y-61045331D01*
X79494057Y-61045338D01*
X79677161Y-61228442D01*
X79677168Y-61228448D01*
X79882616Y-61386093D01*
X80106880Y-61515572D01*
X80106881Y-61515572D01*
X80106884Y-61515574D01*
X80346134Y-61614675D01*
X80596272Y-61681699D01*
X80853019Y-61715500D01*
X80853026Y-61715500D01*
X81111974Y-61715500D01*
X81111981Y-61715500D01*
X81368728Y-61681699D01*
X81618866Y-61614675D01*
X81858116Y-61515574D01*
X82082384Y-61386093D01*
X82287833Y-61228447D01*
X82470947Y-61045333D01*
X82628593Y-60839884D01*
X82758074Y-60615616D01*
X82857175Y-60376366D01*
X82924199Y-60126228D01*
X82958000Y-59869481D01*
X82958000Y-59610519D01*
X82924199Y-59353772D01*
X82857175Y-59103634D01*
X82758074Y-58864384D01*
X82752328Y-58854432D01*
X82628593Y-58640116D01*
X82470948Y-58434668D01*
X82470942Y-58434661D01*
X82287838Y-58251557D01*
X82287831Y-58251551D01*
X82082383Y-58093906D01*
X81858119Y-57964427D01*
X81858109Y-57964423D01*
X81618864Y-57865324D01*
X81493797Y-57831813D01*
X81368728Y-57798301D01*
X81368722Y-57798300D01*
X81368717Y-57798299D01*
X81111991Y-57764501D01*
X81111986Y-57764500D01*
X81111981Y-57764500D01*
X80853019Y-57764500D01*
X80853013Y-57764500D01*
X80853008Y-57764501D01*
X80596282Y-57798299D01*
X80596275Y-57798300D01*
X80596272Y-57798301D01*
X80543408Y-57812465D01*
X80346135Y-57865324D01*
X80106890Y-57964423D01*
X80106880Y-57964427D01*
X79882616Y-58093906D01*
X79677168Y-58251551D01*
X79677161Y-58251557D01*
X79494057Y-58434661D01*
X79494051Y-58434668D01*
X79336406Y-58640116D01*
X79206927Y-58864380D01*
X79206923Y-58864390D01*
X79107824Y-59103635D01*
X79066778Y-59256824D01*
X79044377Y-59340428D01*
X79040802Y-59353769D01*
X79040799Y-59353782D01*
X79007001Y-59610508D01*
X79007000Y-59610525D01*
X79007000Y-59869474D01*
X69181480Y-59869474D01*
X69059062Y-59757876D01*
X69059060Y-59757874D01*
X68869904Y-59640754D01*
X68869895Y-59640750D01*
X68776456Y-59604552D01*
X68675975Y-59565625D01*
X68620575Y-59523054D01*
X68596984Y-59457288D01*
X68612695Y-59389207D01*
X68662719Y-59340428D01*
X68675966Y-59334377D01*
X68869901Y-59259247D01*
X69059062Y-59142124D01*
X69223481Y-58992236D01*
X69357558Y-58814689D01*
X69456729Y-58615528D01*
X69517615Y-58401536D01*
X69538143Y-58180000D01*
X69517615Y-57958464D01*
X69456729Y-57744472D01*
X69456724Y-57744461D01*
X69357561Y-57545316D01*
X69357556Y-57545308D01*
X69223479Y-57367761D01*
X69059062Y-57217876D01*
X69059060Y-57217874D01*
X68869904Y-57100754D01*
X68869895Y-57100750D01*
X68776456Y-57064552D01*
X68675975Y-57025625D01*
X68620575Y-56983054D01*
X68596984Y-56917288D01*
X68612695Y-56849207D01*
X68662719Y-56800428D01*
X68675966Y-56794377D01*
X68869901Y-56719247D01*
X69059062Y-56602124D01*
X69223481Y-56452236D01*
X69357558Y-56274689D01*
X69456729Y-56075528D01*
X69517615Y-55861536D01*
X69538143Y-55640000D01*
X69517615Y-55418464D01*
X69456729Y-55204472D01*
X69456724Y-55204461D01*
X69357561Y-55005316D01*
X69357556Y-55005308D01*
X69223479Y-54827761D01*
X69059062Y-54677876D01*
X69059060Y-54677874D01*
X68869904Y-54560754D01*
X68869898Y-54560752D01*
X68662440Y-54480382D01*
X68443743Y-54439500D01*
X68221257Y-54439500D01*
X68002560Y-54480382D01*
X67871364Y-54531207D01*
X67795101Y-54560752D01*
X67795095Y-54560754D01*
X67605939Y-54677874D01*
X67605937Y-54677876D01*
X67441520Y-54827761D01*
X67307443Y-55005308D01*
X67307438Y-55005316D01*
X67208275Y-55204461D01*
X67208269Y-55204476D01*
X67147385Y-55418462D01*
X67147384Y-55418464D01*
X67126857Y-55639999D01*
X67126857Y-55640000D01*
X67147384Y-55861535D01*
X67147385Y-55861537D01*
X67208269Y-56075523D01*
X67208275Y-56075538D01*
X67307438Y-56274683D01*
X67307443Y-56274691D01*
X67441520Y-56452238D01*
X67605937Y-56602123D01*
X67605939Y-56602125D01*
X67795095Y-56719245D01*
X67795096Y-56719245D01*
X67795099Y-56719247D01*
X67989024Y-56794374D01*
X68044424Y-56836946D01*
X68068015Y-56902713D01*
X68052304Y-56970793D01*
X68002280Y-57019572D01*
X67989033Y-57025622D01*
X67848346Y-57080125D01*
X67795101Y-57100752D01*
X67795095Y-57100754D01*
X67605939Y-57217874D01*
X67605937Y-57217876D01*
X67441520Y-57367761D01*
X67307443Y-57545308D01*
X67307438Y-57545316D01*
X67208275Y-57744461D01*
X67208269Y-57744476D01*
X67147385Y-57958462D01*
X67147384Y-57958464D01*
X67126857Y-58179999D01*
X67126857Y-58180000D01*
X67147384Y-58401535D01*
X67147385Y-58401537D01*
X67208269Y-58615523D01*
X67208275Y-58615538D01*
X67307438Y-58814683D01*
X67307443Y-58814691D01*
X67441520Y-58992238D01*
X67605937Y-59142123D01*
X67605939Y-59142125D01*
X67795095Y-59259245D01*
X67795096Y-59259245D01*
X67795099Y-59259247D01*
X67989024Y-59334374D01*
X68044424Y-59376946D01*
X68068015Y-59442713D01*
X68052304Y-59510793D01*
X68002280Y-59559572D01*
X67989033Y-59565622D01*
X67840988Y-59622975D01*
X67795101Y-59640752D01*
X67795095Y-59640754D01*
X67605939Y-59757874D01*
X67605937Y-59757876D01*
X67441520Y-59907761D01*
X67307443Y-60085308D01*
X67307438Y-60085316D01*
X67208275Y-60284461D01*
X67208269Y-60284476D01*
X67147385Y-60498462D01*
X67147384Y-60498464D01*
X67126857Y-60719999D01*
X67126857Y-60720000D01*
X67147384Y-60941535D01*
X67147385Y-60941537D01*
X67208269Y-61155523D01*
X67208275Y-61155538D01*
X67307438Y-61354683D01*
X67307443Y-61354691D01*
X67441520Y-61532238D01*
X67605937Y-61682123D01*
X67605939Y-61682125D01*
X67795095Y-61799245D01*
X67795096Y-61799245D01*
X67795099Y-61799247D01*
X67989024Y-61874374D01*
X68044424Y-61916946D01*
X68068015Y-61982713D01*
X68052304Y-62050793D01*
X68002280Y-62099572D01*
X67989033Y-62105622D01*
X67840988Y-62162975D01*
X67795101Y-62180752D01*
X67795095Y-62180754D01*
X67605939Y-62297874D01*
X67605937Y-62297876D01*
X67441520Y-62447761D01*
X67307443Y-62625308D01*
X67307438Y-62625316D01*
X67208275Y-62824461D01*
X67208269Y-62824476D01*
X67147385Y-63038462D01*
X67147384Y-63038464D01*
X67126857Y-63259999D01*
X67126857Y-63260000D01*
X67147384Y-63481535D01*
X67147385Y-63481537D01*
X67208269Y-63695523D01*
X67208275Y-63695538D01*
X67307438Y-63894683D01*
X67307443Y-63894691D01*
X67441520Y-64072238D01*
X67605937Y-64222123D01*
X67605939Y-64222125D01*
X67795095Y-64339245D01*
X67795096Y-64339245D01*
X67795099Y-64339247D01*
X67989024Y-64414374D01*
X68044424Y-64456946D01*
X68068015Y-64522713D01*
X68052304Y-64590793D01*
X68002280Y-64639572D01*
X67989033Y-64645622D01*
X67840988Y-64702975D01*
X67795101Y-64720752D01*
X67795095Y-64720754D01*
X67605939Y-64837874D01*
X67605937Y-64837876D01*
X67441520Y-64987761D01*
X67307443Y-65165308D01*
X67307438Y-65165316D01*
X67208275Y-65364461D01*
X67208269Y-65364476D01*
X67147385Y-65578462D01*
X67147384Y-65578464D01*
X67126857Y-65799999D01*
X67126857Y-65800000D01*
X67147384Y-66021535D01*
X67147385Y-66021537D01*
X67208269Y-66235523D01*
X67208275Y-66235538D01*
X67307438Y-66434683D01*
X67307443Y-66434691D01*
X67441520Y-66612238D01*
X67605937Y-66762123D01*
X67605939Y-66762125D01*
X67795095Y-66879245D01*
X67795096Y-66879245D01*
X67795099Y-66879247D01*
X67989024Y-66954374D01*
X68044424Y-66996946D01*
X68068015Y-67062713D01*
X68052304Y-67130793D01*
X68002280Y-67179572D01*
X67989033Y-67185622D01*
X67876087Y-67229378D01*
X67795101Y-67260752D01*
X67795095Y-67260754D01*
X67605939Y-67377874D01*
X67605937Y-67377876D01*
X67441520Y-67527761D01*
X67307443Y-67705308D01*
X67307438Y-67705316D01*
X67208275Y-67904461D01*
X67208269Y-67904476D01*
X67147385Y-68118462D01*
X67147384Y-68118464D01*
X67126857Y-68339999D01*
X67126857Y-68340000D01*
X67147384Y-68561535D01*
X67147385Y-68561537D01*
X67208269Y-68775523D01*
X67208275Y-68775538D01*
X67307438Y-68974683D01*
X67307443Y-68974691D01*
X67441520Y-69152238D01*
X67605937Y-69302123D01*
X67605939Y-69302125D01*
X67795095Y-69419245D01*
X67795107Y-69419251D01*
X67848274Y-69439847D01*
X67903677Y-69482419D01*
X67927268Y-69548185D01*
X67911558Y-69616266D01*
X67861534Y-69665046D01*
X67855887Y-69667856D01*
X67680017Y-69749865D01*
X67493679Y-69880342D01*
X67332842Y-70041179D01*
X67202365Y-70227517D01*
X67106234Y-70433673D01*
X67106230Y-70433682D01*
X67053627Y-70629999D01*
X64789946Y-70629999D01*
X65005277Y-70414669D01*
X65076466Y-70308126D01*
X65105189Y-70238779D01*
X65125501Y-70189744D01*
X65136921Y-70132333D01*
X65150500Y-70064071D01*
X65150500Y-66820808D01*
X65170185Y-66753769D01*
X65186819Y-66733127D01*
X66005272Y-65914674D01*
X66005277Y-65914669D01*
X66076466Y-65808126D01*
X66125501Y-65689743D01*
X66135990Y-65637016D01*
X66150500Y-65564069D01*
X66150500Y-59229012D01*
X66170185Y-59161973D01*
X66178633Y-59150364D01*
X66294136Y-59009625D01*
X66382396Y-58844501D01*
X66436747Y-58665331D01*
X66455099Y-58479000D01*
X66436747Y-58292669D01*
X66382396Y-58113499D01*
X66371924Y-58093907D01*
X66294137Y-57948376D01*
X66294135Y-57948373D01*
X66175357Y-57803642D01*
X66030626Y-57684864D01*
X66030623Y-57684862D01*
X65865502Y-57596604D01*
X65686333Y-57542253D01*
X65686331Y-57542252D01*
X65500000Y-57523901D01*
X65313668Y-57542252D01*
X65313666Y-57542253D01*
X65134497Y-57596604D01*
X64969376Y-57684862D01*
X64969373Y-57684864D01*
X64824642Y-57803642D01*
X64705864Y-57948373D01*
X64705862Y-57948376D01*
X64617603Y-58113499D01*
X64615274Y-58119123D01*
X64613243Y-58118282D01*
X64580361Y-58168456D01*
X64516549Y-58196912D01*
X64447482Y-58186350D01*
X64395089Y-58140125D01*
X64385375Y-58118854D01*
X64384726Y-58119123D01*
X64382396Y-58113499D01*
X64294137Y-57948376D01*
X64294135Y-57948373D01*
X64175357Y-57803642D01*
X64030626Y-57684864D01*
X64030623Y-57684862D01*
X63865502Y-57596604D01*
X63686333Y-57542253D01*
X63686331Y-57542252D01*
X63500000Y-57523901D01*
X63313668Y-57542252D01*
X63313666Y-57542253D01*
X63134497Y-57596604D01*
X62969376Y-57684862D01*
X62969373Y-57684864D01*
X62824642Y-57803642D01*
X62705864Y-57948373D01*
X62705862Y-57948376D01*
X62617604Y-58113497D01*
X62563253Y-58292666D01*
X62563252Y-58292668D01*
X62544901Y-58479000D01*
X62563252Y-58665331D01*
X62563253Y-58665333D01*
X62617604Y-58844502D01*
X62705862Y-59009623D01*
X62705864Y-59009626D01*
X62824641Y-59154356D01*
X62833923Y-59161973D01*
X62904165Y-59219619D01*
X62943499Y-59277362D01*
X62949500Y-59315471D01*
X62949500Y-62173527D01*
X62929815Y-62240566D01*
X62904165Y-62269380D01*
X62824642Y-62334642D01*
X62705864Y-62479373D01*
X62705862Y-62479376D01*
X62617604Y-62644497D01*
X62563253Y-62823666D01*
X62563252Y-62823668D01*
X62544901Y-63010000D01*
X62563252Y-63196331D01*
X62563253Y-63196333D01*
X62617604Y-63375502D01*
X62705862Y-63540623D01*
X62705864Y-63540626D01*
X62824642Y-63685357D01*
X62969373Y-63804135D01*
X62969376Y-63804137D01*
X63100900Y-63874437D01*
X63134499Y-63892396D01*
X63313666Y-63946746D01*
X63313668Y-63946747D01*
X63330374Y-63948392D01*
X63500000Y-63965099D01*
X63686331Y-63946747D01*
X63865501Y-63892396D01*
X64030625Y-63804136D01*
X64175357Y-63685357D01*
X64294136Y-63540625D01*
X64382396Y-63375501D01*
X64436747Y-63196331D01*
X64455099Y-63010000D01*
X64436843Y-62824643D01*
X64436747Y-62823668D01*
X64436746Y-62823666D01*
X64435652Y-62820060D01*
X64382396Y-62644499D01*
X64326541Y-62540000D01*
X64294137Y-62479376D01*
X64294135Y-62479373D01*
X64175357Y-62334642D01*
X64095835Y-62269380D01*
X64056501Y-62211634D01*
X64050500Y-62173527D01*
X64050500Y-59315471D01*
X64070185Y-59248432D01*
X64095833Y-59219620D01*
X64175357Y-59154357D01*
X64185397Y-59142124D01*
X64294135Y-59009626D01*
X64294137Y-59009623D01*
X64303429Y-58992238D01*
X64382396Y-58844501D01*
X64382397Y-58844497D01*
X64384726Y-58838877D01*
X64386758Y-58839718D01*
X64419627Y-58789552D01*
X64483437Y-58761089D01*
X64552505Y-58771643D01*
X64604903Y-58817862D01*
X64614623Y-58839146D01*
X64615274Y-58838877D01*
X64617603Y-58844500D01*
X64705862Y-59009622D01*
X64705864Y-59009625D01*
X64821354Y-59150350D01*
X64848666Y-59214656D01*
X64849500Y-59229012D01*
X64849500Y-65179191D01*
X64829815Y-65246230D01*
X64813181Y-65266872D01*
X63994727Y-66085325D01*
X63994726Y-66085326D01*
X63992177Y-66089141D01*
X63951514Y-66150000D01*
X63932018Y-66179178D01*
X63923533Y-66191876D01*
X63874499Y-66310255D01*
X63874497Y-66310261D01*
X63849500Y-66435928D01*
X63849500Y-69679191D01*
X63829815Y-69746230D01*
X63813181Y-69766872D01*
X63554371Y-70025681D01*
X63493048Y-70059166D01*
X63466690Y-70062000D01*
X63198076Y-70062000D01*
X63198052Y-70062001D01*
X63161901Y-70064846D01*
X63007110Y-70109817D01*
X63007103Y-70109820D01*
X62868363Y-70191869D01*
X62868351Y-70191878D01*
X62754378Y-70305851D01*
X62754369Y-70305863D01*
X62705428Y-70388620D01*
X62654359Y-70436304D01*
X62598696Y-70449500D01*
X61916010Y-70449500D01*
X61848971Y-70429815D01*
X61805010Y-70380772D01*
X61737561Y-70245316D01*
X61737556Y-70245308D01*
X61603479Y-70067761D01*
X61439062Y-69917876D01*
X61439060Y-69917874D01*
X61249904Y-69800754D01*
X61249895Y-69800750D01*
X61143851Y-69759669D01*
X61055975Y-69725625D01*
X61000575Y-69683054D01*
X60976984Y-69617288D01*
X60992695Y-69549207D01*
X61042719Y-69500428D01*
X61055966Y-69494377D01*
X61249901Y-69419247D01*
X61439062Y-69302124D01*
X61603481Y-69152236D01*
X61737558Y-68974689D01*
X61836729Y-68775528D01*
X61897615Y-68561536D01*
X61918143Y-68340000D01*
X61909417Y-68245835D01*
X61897615Y-68118464D01*
X61897614Y-68118462D01*
X61888861Y-68087700D01*
X61836729Y-67904472D01*
X61742402Y-67715038D01*
X61737561Y-67705316D01*
X61737556Y-67705308D01*
X61603479Y-67527761D01*
X61439062Y-67377876D01*
X61439060Y-67377874D01*
X61249904Y-67260754D01*
X61249895Y-67260750D01*
X61156456Y-67224552D01*
X61055975Y-67185625D01*
X61000575Y-67143054D01*
X60976984Y-67077288D01*
X60992695Y-67009207D01*
X61042719Y-66960428D01*
X61055966Y-66954377D01*
X61249901Y-66879247D01*
X61439062Y-66762124D01*
X61603481Y-66612236D01*
X61737558Y-66434689D01*
X61836729Y-66235528D01*
X61897615Y-66021536D01*
X61918143Y-65800000D01*
X61916706Y-65784497D01*
X61897615Y-65578464D01*
X61897614Y-65578462D01*
X61893519Y-65564070D01*
X61836729Y-65364472D01*
X61809355Y-65309497D01*
X61737561Y-65165316D01*
X61737556Y-65165308D01*
X61603479Y-64987761D01*
X61439062Y-64837876D01*
X61439060Y-64837874D01*
X61249904Y-64720754D01*
X61249895Y-64720750D01*
X61156456Y-64684552D01*
X61055975Y-64645625D01*
X61000575Y-64603054D01*
X60976984Y-64537288D01*
X60992695Y-64469207D01*
X61042719Y-64420428D01*
X61055966Y-64414377D01*
X61249901Y-64339247D01*
X61439062Y-64222124D01*
X61603481Y-64072236D01*
X61737558Y-63894689D01*
X61836729Y-63695528D01*
X61897615Y-63481536D01*
X61918143Y-63260000D01*
X61912243Y-63196333D01*
X61897615Y-63038464D01*
X61897614Y-63038462D01*
X61882828Y-62986496D01*
X61836729Y-62824472D01*
X61836724Y-62824461D01*
X61737561Y-62625316D01*
X61737556Y-62625308D01*
X61603479Y-62447761D01*
X61439062Y-62297876D01*
X61439060Y-62297874D01*
X61249904Y-62180754D01*
X61249895Y-62180750D01*
X61156456Y-62144552D01*
X61055975Y-62105625D01*
X61000575Y-62063054D01*
X60976984Y-61997288D01*
X60992695Y-61929207D01*
X61042719Y-61880428D01*
X61055966Y-61874377D01*
X61249901Y-61799247D01*
X61439062Y-61682124D01*
X61603481Y-61532236D01*
X61737558Y-61354689D01*
X61836729Y-61155528D01*
X61897615Y-60941536D01*
X61918143Y-60720000D01*
X61897615Y-60498464D01*
X61836729Y-60284472D01*
X61812415Y-60235643D01*
X61737561Y-60085316D01*
X61737556Y-60085308D01*
X61603479Y-59907761D01*
X61439062Y-59757876D01*
X61439060Y-59757874D01*
X61249904Y-59640754D01*
X61249895Y-59640750D01*
X61156456Y-59604552D01*
X61055975Y-59565625D01*
X61000575Y-59523054D01*
X60976984Y-59457288D01*
X60992695Y-59389207D01*
X61042719Y-59340428D01*
X61055966Y-59334377D01*
X61249901Y-59259247D01*
X61439062Y-59142124D01*
X61603481Y-58992236D01*
X61737558Y-58814689D01*
X61836729Y-58615528D01*
X61897615Y-58401536D01*
X61918143Y-58180000D01*
X61897615Y-57958464D01*
X61836729Y-57744472D01*
X61836724Y-57744461D01*
X61737561Y-57545316D01*
X61737556Y-57545308D01*
X61603479Y-57367761D01*
X61439062Y-57217876D01*
X61439060Y-57217874D01*
X61249904Y-57100754D01*
X61249895Y-57100750D01*
X61196657Y-57080126D01*
X61141255Y-57037553D01*
X61117664Y-56971786D01*
X61133375Y-56903706D01*
X61183399Y-56854927D01*
X61241449Y-56840499D01*
X61544018Y-56840499D01*
X61637804Y-56825646D01*
X61750842Y-56768050D01*
X61840550Y-56678342D01*
X61898146Y-56565304D01*
X61898146Y-56565302D01*
X61898147Y-56565301D01*
X61912999Y-56471524D01*
X61913000Y-56471519D01*
X61912999Y-54808482D01*
X61898146Y-54714696D01*
X61840550Y-54601658D01*
X61840546Y-54601654D01*
X61840545Y-54601652D01*
X61750847Y-54511954D01*
X61750844Y-54511952D01*
X61750842Y-54511950D01*
X61674017Y-54472805D01*
X61637801Y-54454352D01*
X61544024Y-54439500D01*
X59880982Y-54439500D01*
X59800019Y-54452323D01*
X59787196Y-54454354D01*
X59674158Y-54511950D01*
X59674157Y-54511951D01*
X59674152Y-54511954D01*
X59584454Y-54601652D01*
X59584451Y-54601657D01*
X59526852Y-54714698D01*
X59512000Y-54808475D01*
X59512000Y-56471517D01*
X59522792Y-56539657D01*
X59526854Y-56565304D01*
X59584450Y-56678342D01*
X59584452Y-56678344D01*
X59584454Y-56678347D01*
X59674152Y-56768045D01*
X59674154Y-56768046D01*
X59674158Y-56768050D01*
X59773179Y-56818504D01*
X59787198Y-56825647D01*
X59880975Y-56840499D01*
X59880981Y-56840500D01*
X60183549Y-56840499D01*
X60250586Y-56860183D01*
X60296341Y-56912987D01*
X60306285Y-56982146D01*
X60277260Y-57045701D01*
X60228342Y-57080125D01*
X60175107Y-57100748D01*
X60175095Y-57100754D01*
X59985939Y-57217874D01*
X59985937Y-57217876D01*
X59821520Y-57367761D01*
X59687443Y-57545308D01*
X59687438Y-57545316D01*
X59588275Y-57744461D01*
X59588269Y-57744476D01*
X59527385Y-57958462D01*
X59527384Y-57958464D01*
X59506857Y-58179999D01*
X59506857Y-58180000D01*
X59527384Y-58401535D01*
X59527385Y-58401537D01*
X59588269Y-58615523D01*
X59588275Y-58615538D01*
X59687438Y-58814683D01*
X59687443Y-58814691D01*
X59821520Y-58992238D01*
X59985937Y-59142123D01*
X59985939Y-59142125D01*
X60175095Y-59259245D01*
X60175096Y-59259245D01*
X60175099Y-59259247D01*
X60369024Y-59334374D01*
X60424424Y-59376946D01*
X60448015Y-59442713D01*
X60432304Y-59510793D01*
X60382280Y-59559572D01*
X60369033Y-59565622D01*
X60220988Y-59622975D01*
X60175101Y-59640752D01*
X60175095Y-59640754D01*
X59985939Y-59757874D01*
X59985937Y-59757876D01*
X59821520Y-59907761D01*
X59687443Y-60085308D01*
X59687438Y-60085316D01*
X59588275Y-60284461D01*
X59588269Y-60284476D01*
X59527385Y-60498462D01*
X59527384Y-60498464D01*
X59506857Y-60719999D01*
X59506857Y-60720000D01*
X59527384Y-60941535D01*
X59527385Y-60941537D01*
X59588269Y-61155523D01*
X59588275Y-61155538D01*
X59687438Y-61354683D01*
X59687443Y-61354691D01*
X59821520Y-61532238D01*
X59985937Y-61682123D01*
X59985939Y-61682125D01*
X60175095Y-61799245D01*
X60175096Y-61799245D01*
X60175099Y-61799247D01*
X60369024Y-61874374D01*
X60424424Y-61916946D01*
X60448015Y-61982713D01*
X60432304Y-62050793D01*
X60382280Y-62099572D01*
X60369033Y-62105622D01*
X60220988Y-62162975D01*
X60175101Y-62180752D01*
X60175095Y-62180754D01*
X59985939Y-62297874D01*
X59985937Y-62297876D01*
X59821520Y-62447761D01*
X59687443Y-62625308D01*
X59687438Y-62625316D01*
X59588275Y-62824461D01*
X59588269Y-62824476D01*
X59527385Y-63038462D01*
X59527384Y-63038464D01*
X59506857Y-63259999D01*
X59506857Y-63260000D01*
X59527384Y-63481535D01*
X59527385Y-63481537D01*
X59588269Y-63695523D01*
X59588275Y-63695538D01*
X59687438Y-63894683D01*
X59687443Y-63894691D01*
X59821520Y-64072238D01*
X59985937Y-64222123D01*
X59985939Y-64222125D01*
X60175095Y-64339245D01*
X60175096Y-64339245D01*
X60175099Y-64339247D01*
X60369024Y-64414374D01*
X60424424Y-64456946D01*
X60448015Y-64522713D01*
X60432304Y-64590793D01*
X60382280Y-64639572D01*
X60369033Y-64645622D01*
X60220988Y-64702975D01*
X60175101Y-64720752D01*
X60175095Y-64720754D01*
X59985939Y-64837874D01*
X59985937Y-64837876D01*
X59821520Y-64987761D01*
X59687443Y-65165308D01*
X59687438Y-65165316D01*
X59588275Y-65364461D01*
X59588269Y-65364476D01*
X59527385Y-65578462D01*
X59527384Y-65578464D01*
X59506857Y-65799999D01*
X59506857Y-65800000D01*
X59527384Y-66021535D01*
X59527385Y-66021537D01*
X59588269Y-66235523D01*
X59588275Y-66235538D01*
X59687438Y-66434683D01*
X59687443Y-66434691D01*
X59821520Y-66612238D01*
X59985937Y-66762123D01*
X59985939Y-66762125D01*
X60175095Y-66879245D01*
X60175096Y-66879245D01*
X60175099Y-66879247D01*
X60369024Y-66954374D01*
X60424424Y-66996946D01*
X60448015Y-67062713D01*
X60432304Y-67130793D01*
X60382280Y-67179572D01*
X60369033Y-67185622D01*
X60256087Y-67229378D01*
X60175101Y-67260752D01*
X60175095Y-67260754D01*
X59985939Y-67377874D01*
X59985937Y-67377876D01*
X59821520Y-67527761D01*
X59687443Y-67705308D01*
X59687438Y-67705316D01*
X59588275Y-67904461D01*
X59588269Y-67904476D01*
X59527385Y-68118462D01*
X59527384Y-68118464D01*
X59506857Y-68339999D01*
X59506857Y-68340000D01*
X59527384Y-68561535D01*
X59527385Y-68561537D01*
X59588269Y-68775523D01*
X59588275Y-68775538D01*
X59687438Y-68974683D01*
X59687443Y-68974691D01*
X59821520Y-69152238D01*
X59985937Y-69302123D01*
X59985939Y-69302125D01*
X60175095Y-69419245D01*
X60175096Y-69419245D01*
X60175099Y-69419247D01*
X60369024Y-69494374D01*
X60424424Y-69536946D01*
X60448015Y-69602713D01*
X60432304Y-69670793D01*
X60382280Y-69719572D01*
X60369033Y-69725622D01*
X60262556Y-69766872D01*
X60175101Y-69800752D01*
X60175095Y-69800754D01*
X59985939Y-69917874D01*
X59985937Y-69917876D01*
X59821520Y-70067761D01*
X59687443Y-70245308D01*
X59687438Y-70245316D01*
X59588275Y-70444461D01*
X59588269Y-70444476D01*
X59527385Y-70658462D01*
X59527384Y-70658464D01*
X59506857Y-70879999D01*
X59506857Y-70880000D01*
X59527384Y-71101535D01*
X59527385Y-71101537D01*
X59588269Y-71315523D01*
X59588275Y-71315538D01*
X59687438Y-71514683D01*
X59687443Y-71514691D01*
X59821520Y-71692238D01*
X59985937Y-71842123D01*
X59985939Y-71842125D01*
X60175095Y-71959245D01*
X60175107Y-71959251D01*
X60228274Y-71979847D01*
X60283677Y-72022419D01*
X60307268Y-72088185D01*
X60291558Y-72156266D01*
X60241534Y-72205046D01*
X60235887Y-72207856D01*
X60060017Y-72289865D01*
X59873679Y-72420342D01*
X59712842Y-72581179D01*
X59582365Y-72767517D01*
X59486234Y-72973673D01*
X59486230Y-72973682D01*
X59433627Y-73169999D01*
X46800500Y-73169999D01*
X46800500Y-65250001D01*
X49694532Y-65250001D01*
X49714364Y-65476686D01*
X49714366Y-65476697D01*
X49773258Y-65696488D01*
X49773261Y-65696497D01*
X49869431Y-65902732D01*
X49869432Y-65902734D01*
X49999954Y-66089141D01*
X50160857Y-66250044D01*
X50180680Y-66263924D01*
X50224306Y-66318500D01*
X50231500Y-66387999D01*
X50199978Y-66450354D01*
X50139749Y-66485768D01*
X50109561Y-66489500D01*
X50068483Y-66489500D01*
X49989550Y-66502001D01*
X49974696Y-66504354D01*
X49861658Y-66561950D01*
X49861657Y-66561951D01*
X49861652Y-66561954D01*
X49771954Y-66651652D01*
X49771951Y-66651657D01*
X49771950Y-66651658D01*
X49762283Y-66670630D01*
X49714352Y-66764698D01*
X49699500Y-66858475D01*
X49699500Y-68721517D01*
X49708056Y-68775538D01*
X49714354Y-68815304D01*
X49771950Y-68928342D01*
X49771952Y-68928344D01*
X49771954Y-68928347D01*
X49861652Y-69018045D01*
X49861654Y-69018046D01*
X49861658Y-69018050D01*
X49974694Y-69075645D01*
X49974698Y-69075647D01*
X50068475Y-69090499D01*
X50068481Y-69090500D01*
X51931518Y-69090499D01*
X52025304Y-69075646D01*
X52138342Y-69018050D01*
X52228050Y-68928342D01*
X52285646Y-68815304D01*
X52285646Y-68815302D01*
X52285647Y-68815301D01*
X52298896Y-68731647D01*
X52300500Y-68721519D01*
X52300499Y-66858482D01*
X52285646Y-66764696D01*
X52228050Y-66651658D01*
X52228046Y-66651654D01*
X52228045Y-66651652D01*
X52138347Y-66561954D01*
X52138344Y-66561952D01*
X52138342Y-66561950D01*
X52047181Y-66515501D01*
X52025301Y-66504352D01*
X51931524Y-66489500D01*
X51931519Y-66489500D01*
X51890442Y-66489500D01*
X51823403Y-66469815D01*
X51777648Y-66417011D01*
X51767704Y-66347853D01*
X51796729Y-66284297D01*
X51819320Y-66263924D01*
X51820500Y-66263098D01*
X51839139Y-66250047D01*
X52000047Y-66089139D01*
X52130568Y-65902734D01*
X52226739Y-65696496D01*
X52285635Y-65476692D01*
X52305468Y-65250000D01*
X52285635Y-65023308D01*
X52226739Y-64803504D01*
X52130568Y-64597266D01*
X52032316Y-64456946D01*
X52000045Y-64410858D01*
X51839141Y-64249954D01*
X51652734Y-64119432D01*
X51652732Y-64119431D01*
X51446497Y-64023261D01*
X51446488Y-64023258D01*
X51414826Y-64014775D01*
X51355166Y-63978411D01*
X51324636Y-63915564D01*
X51332930Y-63846188D01*
X51377415Y-63792310D01*
X51414826Y-63775225D01*
X51427265Y-63771891D01*
X51446496Y-63766739D01*
X51652734Y-63670568D01*
X51839139Y-63540047D01*
X52000047Y-63379139D01*
X52130568Y-63192734D01*
X52226739Y-62986496D01*
X52285635Y-62766692D01*
X52305468Y-62540000D01*
X52285635Y-62313308D01*
X52226739Y-62093504D01*
X52130568Y-61887266D01*
X52000047Y-61700861D01*
X52000045Y-61700858D01*
X51839141Y-61539954D01*
X51819318Y-61526074D01*
X51775693Y-61471498D01*
X51768499Y-61401999D01*
X51800021Y-61339644D01*
X51860251Y-61304230D01*
X51890441Y-61300499D01*
X51931517Y-61300499D01*
X51931518Y-61300499D01*
X52025304Y-61285646D01*
X52138342Y-61228050D01*
X52228050Y-61138342D01*
X52285646Y-61025304D01*
X52285646Y-61025302D01*
X52285647Y-61025301D01*
X52300499Y-60931524D01*
X52300500Y-60931519D01*
X52300499Y-59985001D01*
X54694532Y-59985001D01*
X54714364Y-60211686D01*
X54714366Y-60211697D01*
X54773258Y-60431488D01*
X54773261Y-60431497D01*
X54869431Y-60637732D01*
X54869432Y-60637734D01*
X54999954Y-60824141D01*
X55160857Y-60985044D01*
X55180680Y-60998924D01*
X55224306Y-61053500D01*
X55231500Y-61122999D01*
X55199978Y-61185354D01*
X55139749Y-61220768D01*
X55109561Y-61224500D01*
X55068483Y-61224500D01*
X54989550Y-61237001D01*
X54974696Y-61239354D01*
X54861658Y-61296950D01*
X54861657Y-61296951D01*
X54861652Y-61296954D01*
X54771954Y-61386652D01*
X54771951Y-61386657D01*
X54771950Y-61386658D01*
X54760346Y-61409432D01*
X54714352Y-61499698D01*
X54699500Y-61593475D01*
X54699500Y-63456517D01*
X54703463Y-63481536D01*
X54714354Y-63550304D01*
X54771950Y-63663342D01*
X54771952Y-63663344D01*
X54771954Y-63663347D01*
X54861652Y-63753045D01*
X54861654Y-63753046D01*
X54861658Y-63753050D01*
X54974694Y-63810645D01*
X54974698Y-63810647D01*
X55068475Y-63825499D01*
X55068481Y-63825500D01*
X56931518Y-63825499D01*
X57025304Y-63810646D01*
X57138342Y-63753050D01*
X57228050Y-63663342D01*
X57285646Y-63550304D01*
X57285646Y-63550302D01*
X57285647Y-63550301D01*
X57300499Y-63456524D01*
X57300500Y-63456519D01*
X57300499Y-61593482D01*
X57285646Y-61499696D01*
X57228050Y-61386658D01*
X57228046Y-61386654D01*
X57228045Y-61386652D01*
X57138347Y-61296954D01*
X57138344Y-61296952D01*
X57138342Y-61296950D01*
X57061517Y-61257805D01*
X57025301Y-61239352D01*
X56931524Y-61224500D01*
X56931519Y-61224500D01*
X56890442Y-61224500D01*
X56823403Y-61204815D01*
X56777648Y-61152011D01*
X56767704Y-61082853D01*
X56796729Y-61019297D01*
X56819320Y-60998924D01*
X56839139Y-60985047D01*
X57000047Y-60824139D01*
X57130568Y-60637734D01*
X57226739Y-60431496D01*
X57285635Y-60211692D01*
X57305468Y-59985000D01*
X57285635Y-59758308D01*
X57226739Y-59538504D01*
X57130568Y-59332266D01*
X57000047Y-59145861D01*
X57000045Y-59145858D01*
X56839141Y-58984954D01*
X56652734Y-58854432D01*
X56652732Y-58854431D01*
X56446497Y-58758261D01*
X56446488Y-58758258D01*
X56396166Y-58744775D01*
X56336505Y-58708410D01*
X56305976Y-58645563D01*
X56314271Y-58576188D01*
X56358756Y-58522310D01*
X56396166Y-58505225D01*
X56424619Y-58497600D01*
X56446496Y-58491739D01*
X56652734Y-58395568D01*
X56839139Y-58265047D01*
X57000047Y-58104139D01*
X57130568Y-57917734D01*
X57226739Y-57711496D01*
X57285635Y-57491692D01*
X57305468Y-57265000D01*
X57285635Y-57038308D01*
X57237907Y-56860183D01*
X57226741Y-56818511D01*
X57226738Y-56818502D01*
X57130568Y-56612267D01*
X57130567Y-56612265D01*
X57123466Y-56602124D01*
X57000047Y-56425861D01*
X57000045Y-56425858D01*
X56839141Y-56264954D01*
X56819318Y-56251074D01*
X56775693Y-56196498D01*
X56768499Y-56126999D01*
X56800021Y-56064644D01*
X56860251Y-56029230D01*
X56890441Y-56025499D01*
X56931517Y-56025499D01*
X56931518Y-56025499D01*
X57025304Y-56010646D01*
X57138342Y-55953050D01*
X57228050Y-55863342D01*
X57285646Y-55750304D01*
X57285646Y-55750302D01*
X57285647Y-55750301D01*
X57300499Y-55656524D01*
X57300500Y-55656519D01*
X57300499Y-53793482D01*
X57285646Y-53699696D01*
X57228050Y-53586658D01*
X57228046Y-53586654D01*
X57228045Y-53586652D01*
X57138347Y-53496954D01*
X57138344Y-53496952D01*
X57138342Y-53496950D01*
X57061517Y-53457805D01*
X57025301Y-53439352D01*
X56931524Y-53424500D01*
X55068482Y-53424500D01*
X54987519Y-53437323D01*
X54974696Y-53439354D01*
X54861658Y-53496950D01*
X54861657Y-53496951D01*
X54861652Y-53496954D01*
X54771954Y-53586652D01*
X54771951Y-53586657D01*
X54714352Y-53699698D01*
X54699500Y-53793475D01*
X54699500Y-55656517D01*
X54710292Y-55724657D01*
X54714354Y-55750304D01*
X54771950Y-55863342D01*
X54771952Y-55863344D01*
X54771954Y-55863347D01*
X54861652Y-55953045D01*
X54861654Y-55953046D01*
X54861658Y-55953050D01*
X54974694Y-56010645D01*
X54974698Y-56010647D01*
X55068474Y-56025499D01*
X55068475Y-56025499D01*
X55068481Y-56025500D01*
X55109557Y-56025499D01*
X55176594Y-56045182D01*
X55222350Y-56097985D01*
X55232295Y-56167143D01*
X55203272Y-56230700D01*
X55180684Y-56251072D01*
X55160857Y-56264955D01*
X54999954Y-56425858D01*
X54869432Y-56612265D01*
X54869431Y-56612267D01*
X54773261Y-56818502D01*
X54773258Y-56818511D01*
X54714366Y-57038302D01*
X54714364Y-57038313D01*
X54694532Y-57264998D01*
X54694532Y-57265001D01*
X54714364Y-57491686D01*
X54714366Y-57491697D01*
X54773258Y-57711488D01*
X54773261Y-57711497D01*
X54869431Y-57917732D01*
X54869432Y-57917734D01*
X54999954Y-58104141D01*
X55160858Y-58265045D01*
X55160861Y-58265047D01*
X55347266Y-58395568D01*
X55553504Y-58491739D01*
X55567478Y-58495483D01*
X55603834Y-58505225D01*
X55663494Y-58541590D01*
X55694023Y-58604437D01*
X55685728Y-58673813D01*
X55641243Y-58727691D01*
X55603834Y-58744775D01*
X55553508Y-58758259D01*
X55553502Y-58758261D01*
X55347267Y-58854431D01*
X55347265Y-58854432D01*
X55160858Y-58984954D01*
X54999954Y-59145858D01*
X54869432Y-59332265D01*
X54869431Y-59332267D01*
X54773261Y-59538502D01*
X54773258Y-59538511D01*
X54714366Y-59758302D01*
X54714364Y-59758313D01*
X54694532Y-59984998D01*
X54694532Y-59985001D01*
X52300499Y-59985001D01*
X52300499Y-59068482D01*
X52285646Y-58974696D01*
X52228050Y-58861658D01*
X52228046Y-58861654D01*
X52228045Y-58861652D01*
X52138347Y-58771954D01*
X52138344Y-58771952D01*
X52138342Y-58771950D01*
X52051479Y-58727691D01*
X52025301Y-58714352D01*
X51931524Y-58699500D01*
X50068482Y-58699500D01*
X49987519Y-58712323D01*
X49974696Y-58714354D01*
X49861658Y-58771950D01*
X49861657Y-58771951D01*
X49861652Y-58771954D01*
X49771954Y-58861652D01*
X49771951Y-58861657D01*
X49771950Y-58861658D01*
X49770561Y-58864384D01*
X49714352Y-58974698D01*
X49699500Y-59068475D01*
X49699500Y-60931517D01*
X49707978Y-60985044D01*
X49714354Y-61025304D01*
X49771950Y-61138342D01*
X49771952Y-61138344D01*
X49771954Y-61138347D01*
X49861652Y-61228045D01*
X49861654Y-61228046D01*
X49861658Y-61228050D01*
X49956750Y-61276502D01*
X49974698Y-61285647D01*
X50068474Y-61300499D01*
X50068475Y-61300499D01*
X50068481Y-61300500D01*
X50109557Y-61300499D01*
X50176594Y-61320182D01*
X50222350Y-61372985D01*
X50232295Y-61442143D01*
X50203272Y-61505700D01*
X50180684Y-61526072D01*
X50160857Y-61539955D01*
X49999954Y-61700858D01*
X49869432Y-61887265D01*
X49869431Y-61887267D01*
X49773261Y-62093502D01*
X49773258Y-62093511D01*
X49714366Y-62313302D01*
X49714364Y-62313313D01*
X49694532Y-62539998D01*
X49694532Y-62540001D01*
X49714364Y-62766686D01*
X49714366Y-62766697D01*
X49773258Y-62986488D01*
X49773261Y-62986497D01*
X49869431Y-63192732D01*
X49869432Y-63192734D01*
X49999954Y-63379141D01*
X50160858Y-63540045D01*
X50161686Y-63540625D01*
X50347266Y-63670568D01*
X50553504Y-63766739D01*
X50553509Y-63766740D01*
X50553511Y-63766741D01*
X50585173Y-63775225D01*
X50644834Y-63811590D01*
X50675363Y-63874437D01*
X50667068Y-63943812D01*
X50622583Y-63997690D01*
X50585173Y-64014775D01*
X50553511Y-64023258D01*
X50553502Y-64023261D01*
X50347267Y-64119431D01*
X50347265Y-64119432D01*
X50160858Y-64249954D01*
X49999954Y-64410858D01*
X49869432Y-64597265D01*
X49869431Y-64597267D01*
X49773261Y-64803502D01*
X49773258Y-64803511D01*
X49714366Y-65023302D01*
X49714364Y-65023313D01*
X49694532Y-65249998D01*
X49694532Y-65250001D01*
X46800500Y-65250001D01*
X46800500Y-52131517D01*
X75582000Y-52131517D01*
X75592792Y-52199657D01*
X75596854Y-52225304D01*
X75654450Y-52338342D01*
X75654452Y-52338344D01*
X75654454Y-52338347D01*
X75744152Y-52428045D01*
X75744154Y-52428046D01*
X75744158Y-52428050D01*
X75857194Y-52485645D01*
X75857198Y-52485647D01*
X75950975Y-52500499D01*
X75950981Y-52500500D01*
X78014018Y-52500499D01*
X78107804Y-52485646D01*
X78220842Y-52428050D01*
X78310550Y-52338342D01*
X78368146Y-52225304D01*
X78368146Y-52225302D01*
X78368147Y-52225301D01*
X78382999Y-52131524D01*
X78383000Y-52131519D01*
X78383000Y-51100005D01*
X88177359Y-51100005D01*
X88197885Y-51347729D01*
X88197887Y-51347738D01*
X88258912Y-51588717D01*
X88358766Y-51816364D01*
X88459064Y-51969882D01*
X89191371Y-51237575D01*
X89207255Y-51296853D01*
X89274398Y-51413147D01*
X89369353Y-51508102D01*
X89485647Y-51575245D01*
X89544924Y-51591128D01*
X88812442Y-52323609D01*
X88859268Y-52360055D01*
X88859270Y-52360056D01*
X89077885Y-52478364D01*
X89077896Y-52478369D01*
X89313006Y-52559083D01*
X89558207Y-52600000D01*
X89806793Y-52600000D01*
X90051993Y-52559083D01*
X90287103Y-52478369D01*
X90287114Y-52478364D01*
X90505728Y-52360057D01*
X90505731Y-52360055D01*
X90552556Y-52323609D01*
X89820075Y-51591128D01*
X89879353Y-51575245D01*
X89995647Y-51508102D01*
X90090602Y-51413147D01*
X90157745Y-51296853D01*
X90173627Y-51237575D01*
X90905934Y-51969882D01*
X91006231Y-51816369D01*
X91106087Y-51588717D01*
X91167112Y-51347738D01*
X91167114Y-51347729D01*
X91187641Y-51100005D01*
X91187641Y-51099994D01*
X91167114Y-50852270D01*
X91167112Y-50852261D01*
X91106087Y-50611282D01*
X91006231Y-50383630D01*
X90905934Y-50230116D01*
X90173627Y-50962423D01*
X90157745Y-50903147D01*
X90090602Y-50786853D01*
X89995647Y-50691898D01*
X89879353Y-50624755D01*
X89820075Y-50608872D01*
X90307659Y-50121288D01*
X98149500Y-50121288D01*
X98181161Y-50361785D01*
X98243947Y-50596104D01*
X98322958Y-50786853D01*
X98336776Y-50820212D01*
X98458064Y-51030289D01*
X98458066Y-51030292D01*
X98458067Y-51030293D01*
X98605733Y-51222736D01*
X98605739Y-51222743D01*
X98777256Y-51394260D01*
X98777263Y-51394266D01*
X98854528Y-51453553D01*
X98969711Y-51541936D01*
X99179788Y-51663224D01*
X99403900Y-51756054D01*
X99638211Y-51818838D01*
X99818586Y-51842584D01*
X99878711Y-51850500D01*
X99878712Y-51850500D01*
X100121289Y-51850500D01*
X100169388Y-51844167D01*
X100361789Y-51818838D01*
X100596100Y-51756054D01*
X100820212Y-51663224D01*
X101030289Y-51541936D01*
X101222738Y-51394265D01*
X101394265Y-51222738D01*
X101541936Y-51030289D01*
X101663224Y-50820212D01*
X101756054Y-50596100D01*
X101818838Y-50361789D01*
X101850500Y-50121288D01*
X101850500Y-49878712D01*
X101818838Y-49638211D01*
X101756054Y-49403900D01*
X101663224Y-49179788D01*
X101541936Y-48969711D01*
X101394265Y-48777262D01*
X101394260Y-48777256D01*
X101222743Y-48605739D01*
X101222736Y-48605733D01*
X101030293Y-48458067D01*
X101030292Y-48458066D01*
X101030289Y-48458064D01*
X100820212Y-48336776D01*
X100820205Y-48336773D01*
X100596104Y-48243947D01*
X100361785Y-48181161D01*
X100121289Y-48149500D01*
X100121288Y-48149500D01*
X99878712Y-48149500D01*
X99878711Y-48149500D01*
X99638214Y-48181161D01*
X99403895Y-48243947D01*
X99179794Y-48336773D01*
X99179785Y-48336777D01*
X98969706Y-48458067D01*
X98777263Y-48605733D01*
X98777256Y-48605739D01*
X98605739Y-48777256D01*
X98605733Y-48777263D01*
X98458067Y-48969706D01*
X98336777Y-49179785D01*
X98336773Y-49179794D01*
X98243947Y-49403895D01*
X98181161Y-49638214D01*
X98149500Y-49878711D01*
X98149500Y-50121288D01*
X90307659Y-50121288D01*
X90552557Y-49876390D01*
X90552556Y-49876389D01*
X90505729Y-49839943D01*
X90287114Y-49721635D01*
X90287103Y-49721630D01*
X90051993Y-49640916D01*
X89806793Y-49600000D01*
X89558207Y-49600000D01*
X89313006Y-49640916D01*
X89077896Y-49721630D01*
X89077890Y-49721632D01*
X88859261Y-49839949D01*
X88812442Y-49876388D01*
X88812442Y-49876390D01*
X89544924Y-50608871D01*
X89485647Y-50624755D01*
X89369353Y-50691898D01*
X89274398Y-50786853D01*
X89207255Y-50903147D01*
X89191372Y-50962424D01*
X88459064Y-50230116D01*
X88358767Y-50383632D01*
X88258912Y-50611282D01*
X88197887Y-50852261D01*
X88197885Y-50852270D01*
X88177359Y-51099994D01*
X88177359Y-51100005D01*
X78383000Y-51100005D01*
X78382999Y-50068482D01*
X78368146Y-49974696D01*
X78310550Y-49861658D01*
X78310546Y-49861654D01*
X78310545Y-49861652D01*
X78220847Y-49771954D01*
X78220844Y-49771952D01*
X78220842Y-49771950D01*
X78122084Y-49721630D01*
X78107801Y-49714352D01*
X78014024Y-49699500D01*
X75950982Y-49699500D01*
X75870019Y-49712323D01*
X75857196Y-49714354D01*
X75744158Y-49771950D01*
X75744157Y-49771951D01*
X75744152Y-49771954D01*
X75654454Y-49861652D01*
X75654451Y-49861657D01*
X75596852Y-49974698D01*
X75582000Y-50068475D01*
X75582000Y-52131517D01*
X46800500Y-52131517D01*
X46800500Y-50121288D01*
X48149500Y-50121288D01*
X48181161Y-50361785D01*
X48243947Y-50596104D01*
X48322958Y-50786853D01*
X48336776Y-50820212D01*
X48458064Y-51030289D01*
X48458066Y-51030292D01*
X48458067Y-51030293D01*
X48605733Y-51222736D01*
X48605739Y-51222743D01*
X48777256Y-51394260D01*
X48777263Y-51394266D01*
X48854528Y-51453553D01*
X48969711Y-51541936D01*
X49179788Y-51663224D01*
X49403900Y-51756054D01*
X49638211Y-51818838D01*
X49818586Y-51842584D01*
X49878711Y-51850500D01*
X49878712Y-51850500D01*
X50121289Y-51850500D01*
X50169388Y-51844167D01*
X50361789Y-51818838D01*
X50596100Y-51756054D01*
X50820212Y-51663224D01*
X51030289Y-51541936D01*
X51222738Y-51394265D01*
X51394265Y-51222738D01*
X51541936Y-51030289D01*
X51663224Y-50820212D01*
X51756054Y-50596100D01*
X51818838Y-50361789D01*
X51850500Y-50121288D01*
X51850500Y-49878712D01*
X51818838Y-49638211D01*
X51756054Y-49403900D01*
X51663224Y-49179788D01*
X51541936Y-48969711D01*
X51394265Y-48777262D01*
X51394260Y-48777256D01*
X51222743Y-48605739D01*
X51222736Y-48605733D01*
X51030293Y-48458067D01*
X51030292Y-48458066D01*
X51030289Y-48458064D01*
X50820212Y-48336776D01*
X50820205Y-48336773D01*
X50596104Y-48243947D01*
X50361785Y-48181161D01*
X50121289Y-48149500D01*
X50121288Y-48149500D01*
X49878712Y-48149500D01*
X49878711Y-48149500D01*
X49638214Y-48181161D01*
X49403895Y-48243947D01*
X49179794Y-48336773D01*
X49179785Y-48336777D01*
X48969706Y-48458067D01*
X48777263Y-48605733D01*
X48777256Y-48605739D01*
X48605739Y-48777256D01*
X48605733Y-48777263D01*
X48458067Y-48969706D01*
X48336777Y-49179785D01*
X48336773Y-49179794D01*
X48243947Y-49403895D01*
X48181161Y-49638214D01*
X48149500Y-49878711D01*
X48149500Y-50121288D01*
X46800500Y-50121288D01*
X46800500Y-50003246D01*
X46800670Y-49996756D01*
X46817687Y-49672047D01*
X46819044Y-49659139D01*
X46859471Y-49403895D01*
X46869401Y-49341201D01*
X46872094Y-49328525D01*
X46955416Y-49017564D01*
X46959425Y-49005229D01*
X46973061Y-48969706D01*
X47074784Y-48704707D01*
X47080054Y-48692868D01*
X47226214Y-48406014D01*
X47232680Y-48394815D01*
X47408015Y-48124823D01*
X47415630Y-48114342D01*
X47618229Y-47864153D01*
X47626896Y-47854528D01*
X47854528Y-47626896D01*
X47864153Y-47618229D01*
X48114342Y-47415630D01*
X48124823Y-47408015D01*
X48394815Y-47232680D01*
X48406014Y-47226214D01*
X48692868Y-47080054D01*
X48704707Y-47074784D01*
X49005236Y-46959422D01*
X49017564Y-46955416D01*
X49328525Y-46872094D01*
X49341201Y-46869401D01*
X49659141Y-46819043D01*
X49672045Y-46817687D01*
X49996756Y-46800669D01*
X50003246Y-46800500D01*
X50047595Y-46800500D01*
X99952405Y-46800500D01*
X99996754Y-46800500D01*
X100003243Y-46800669D01*
G37*
%TD.AperFunction*%
%TD*%
M02*
