M48
; DRILL file {KiCad 7.0.10} date Mon 15 Jan 2024 09:17:29 CET
; FORMAT={-:-/ absolute / inch / decimal}
; #@! TF.CreationDate,2024-01-15T09:17:29+01:00
; #@! TF.GenerationSoftware,Kicad,Pcbnew,7.0.10
; #@! TF.FileFunction,Plated,1,2,PTH
FMAT,2
INCH
; #@! TA.AperFunction,Plated,PTH,ViaDrill
T1C0.0197
; #@! TA.AperFunction,Plated,PTH,ComponentDrill
T2C0.0236
; #@! TA.AperFunction,Plated,PTH,ComponentDrill
T3C0.0315
; #@! TA.AperFunction,Plated,PTH,ComponentDrill
T4C0.0354
; #@! TA.AperFunction,Plated,PTH,ComponentDrill
T5C0.0402
%
G90
G05
T1
X3.5276Y-5.7382
X3.6535Y-3.252
X3.7264Y-3.0827
X3.8287Y-3.2165
X3.9075Y-3.1457
X3.9587Y-3.2141
X4.0354Y-5.5906
X4.0925Y-4.3346
X4.1955Y-3.6433
X4.2848Y-5.0945
X4.311Y-3.6476
X4.4724Y-3.5984
T3
X4.1742Y-3.6975
X4.1742Y-3.7975
X4.1742Y-3.8975
X4.1742Y-3.9975
X4.1742Y-4.0975
X4.1742Y-4.1975
X4.1742Y-4.2975
X4.1742Y-4.3975
X4.1742Y-4.4975
X4.1742Y-4.5975
X4.1742Y-4.6975
X4.1742Y-4.7975
X4.1742Y-4.8975
X4.1742Y-4.9975
X4.4742Y-3.6975
X4.4742Y-3.7975
X4.4742Y-3.8975
X4.4742Y-3.9975
X4.4742Y-4.0975
X4.4742Y-4.1975
X4.4742Y-4.2975
X4.4742Y-4.3975
X4.4742Y-4.4975
X4.4742Y-4.5975
X4.4742Y-4.6975
X4.4742Y-4.7975
X4.4742Y-4.8975
X4.4742Y-4.9975
T4
X3.8268Y-5.6077
X3.8268Y-5.7077
X4.1496Y-5.6077
X4.1496Y-5.7077
T5
X3.372Y-3.5276
X3.872Y-3.5276
T2
G00X3.7906Y-3.1287
M15
G01X3.7906Y-3.0972
M16
G05
G00X3.7906Y-3.2992
M15
G01X3.7906Y-3.2559
M16
G05
G00X4.1307Y-3.1287
M15
G01X4.1307Y-3.0972
M16
G05
G00X4.1307Y-3.2992
M15
G01X4.1307Y-3.2559
M16
G05
M30
