%TF.GenerationSoftware,KiCad,Pcbnew,7.0.10*%
%TF.CreationDate,2024-01-15T09:17:31+01:00*%
%TF.ProjectId,mold_detect,6d6f6c64-5f64-4657-9465-63742e6b6963,rev?*%
%TF.SameCoordinates,Original*%
%TF.FileFunction,Copper,L1,Top*%
%TF.FilePolarity,Positive*%
%FSLAX46Y46*%
G04 Gerber Fmt 4.6, Leading zero omitted, Abs format (unit mm)*
G04 Created by KiCad (PCBNEW 7.0.10) date 2024-01-15 09:17:31*
%MOMM*%
%LPD*%
G01*
G04 APERTURE LIST*
G04 Aperture macros list*
%AMRoundRect*
0 Rectangle with rounded corners*
0 $1 Rounding radius*
0 $2 $3 $4 $5 $6 $7 $8 $9 X,Y pos of 4 corners*
0 Add a 4 corners polygon primitive as box body*
4,1,4,$2,$3,$4,$5,$6,$7,$8,$9,$2,$3,0*
0 Add four circle primitives for the rounded corners*
1,1,$1+$1,$2,$3*
1,1,$1+$1,$4,$5*
1,1,$1+$1,$6,$7*
1,1,$1+$1,$8,$9*
0 Add four rect primitives between the rounded corners*
20,1,$1+$1,$2,$3,$4,$5,0*
20,1,$1+$1,$4,$5,$6,$7,0*
20,1,$1+$1,$6,$7,$8,$9,0*
20,1,$1+$1,$8,$9,$2,$3,0*%
%AMFreePoly0*
4,1,6,0.500000,-0.850000,-0.500000,-0.850000,-0.500000,0.550000,-0.200000,0.850000,0.500000,0.850000,0.500000,-0.850000,0.500000,-0.850000,$1*%
G04 Aperture macros list end*
%TA.AperFunction,SMDPad,CuDef*%
%ADD10RoundRect,0.250000X-0.250000X0.250000X-0.250000X-0.250000X0.250000X-0.250000X0.250000X0.250000X0*%
%TD*%
%TA.AperFunction,SMDPad,CuDef*%
%ADD11RoundRect,0.237500X0.250000X0.237500X-0.250000X0.237500X-0.250000X-0.237500X0.250000X-0.237500X0*%
%TD*%
%TA.AperFunction,SMDPad,CuDef*%
%ADD12RoundRect,0.237500X-0.250000X-0.237500X0.250000X-0.237500X0.250000X0.237500X-0.250000X0.237500X0*%
%TD*%
%TA.AperFunction,SMDPad,CuDef*%
%ADD13RoundRect,0.237500X0.237500X-0.250000X0.237500X0.250000X-0.237500X0.250000X-0.237500X-0.250000X0*%
%TD*%
%TA.AperFunction,SMDPad,CuDef*%
%ADD14RoundRect,0.237500X-0.237500X0.250000X-0.237500X-0.250000X0.237500X-0.250000X0.237500X0.250000X0*%
%TD*%
%TA.AperFunction,SMDPad,CuDef*%
%ADD15RoundRect,0.237500X-0.237500X0.300000X-0.237500X-0.300000X0.237500X-0.300000X0.237500X0.300000X0*%
%TD*%
%TA.AperFunction,SMDPad,CuDef*%
%ADD16RoundRect,0.237500X0.237500X-0.300000X0.237500X0.300000X-0.237500X0.300000X-0.237500X-0.300000X0*%
%TD*%
%TA.AperFunction,ComponentPad*%
%ADD17O,1.000000X1.800000*%
%TD*%
%TA.AperFunction,ComponentPad*%
%ADD18O,1.000000X2.100000*%
%TD*%
%TA.AperFunction,SMDPad,CuDef*%
%ADD19RoundRect,0.150000X0.150000X0.425000X-0.150000X0.425000X-0.150000X-0.425000X0.150000X-0.425000X0*%
%TD*%
%TA.AperFunction,SMDPad,CuDef*%
%ADD20RoundRect,0.075000X0.075000X0.500000X-0.075000X0.500000X-0.075000X-0.500000X0.075000X-0.500000X0*%
%TD*%
%TA.AperFunction,SMDPad,CuDef*%
%ADD21R,0.400000X1.200000*%
%TD*%
%TA.AperFunction,ComponentPad*%
%ADD22R,2.000000X2.000000*%
%TD*%
%TA.AperFunction,ComponentPad*%
%ADD23C,2.000000*%
%TD*%
%TA.AperFunction,SMDPad,CuDef*%
%ADD24R,0.550000X0.250000*%
%TD*%
%TA.AperFunction,SMDPad,CuDef*%
%ADD25FreePoly0,180.000000*%
%TD*%
%TA.AperFunction,SMDPad,CuDef*%
%ADD26RoundRect,0.150000X-0.150000X0.650000X-0.150000X-0.650000X0.150000X-0.650000X0.150000X0.650000X0*%
%TD*%
%TA.AperFunction,ComponentPad*%
%ADD27R,1.800000X1.800000*%
%TD*%
%TA.AperFunction,ComponentPad*%
%ADD28C,1.800000*%
%TD*%
%TA.AperFunction,SMDPad,CuDef*%
%ADD29RoundRect,0.150000X0.512500X0.150000X-0.512500X0.150000X-0.512500X-0.150000X0.512500X-0.150000X0*%
%TD*%
%TA.AperFunction,ComponentPad*%
%ADD30O,1.600000X1.600000*%
%TD*%
%TA.AperFunction,ComponentPad*%
%ADD31R,1.600000X1.600000*%
%TD*%
%TA.AperFunction,ViaPad*%
%ADD32C,1.100000*%
%TD*%
%TA.AperFunction,Conductor*%
%ADD33C,0.300000*%
%TD*%
%TA.AperFunction,Conductor*%
%ADD34C,0.500000*%
%TD*%
G04 APERTURE END LIST*
D10*
%TO.P,D1,1,K*%
%TO.N,+3V0*%
X105900000Y-86100000D03*
%TO.P,D1,2,A*%
%TO.N,Net-(BT1-+)*%
X105900000Y-88600000D03*
%TD*%
D11*
%TO.P,R8,1*%
%TO.N,Net-(J1-CC2)*%
X99112500Y-85700000D03*
%TO.P,R8,2*%
%TO.N,GND*%
X97287500Y-85700000D03*
%TD*%
D12*
%TO.P,R7,1*%
%TO.N,Net-(J1-CC1)*%
X102087500Y-85700000D03*
%TO.P,R7,2*%
%TO.N,GND*%
X103912500Y-85700000D03*
%TD*%
D13*
%TO.P,R6,1*%
%TO.N,+3V0*%
X93075000Y-146512500D03*
%TO.P,R6,2*%
%TO.N,SDA*%
X93075000Y-144687500D03*
%TD*%
D14*
%TO.P,R5,1*%
%TO.N,+3V0*%
X93075000Y-141287500D03*
%TO.P,R5,2*%
%TO.N,SCL*%
X93075000Y-143112500D03*
%TD*%
D11*
%TO.P,R4,1*%
%TO.N,+3V0*%
X107462500Y-91550000D03*
%TO.P,R4,2*%
%TO.N,RST*%
X105637500Y-91550000D03*
%TD*%
D14*
%TO.P,R3,1*%
%TO.N,Net-(U2-DELAY{slash}M_RST)*%
X113550000Y-88137500D03*
%TO.P,R3,2*%
%TO.N,GND*%
X113550000Y-89962500D03*
%TD*%
D11*
%TO.P,R2,1*%
%TO.N,Net-(Blue1-K)*%
X102262500Y-145300000D03*
%TO.P,R2,2*%
%TO.N,GND*%
X100437500Y-145300000D03*
%TD*%
D12*
%TO.P,R1,1*%
%TO.N,Net-(Red1-K)*%
X100337500Y-143550000D03*
%TO.P,R1,2*%
%TO.N,GND*%
X102162500Y-143550000D03*
%TD*%
D15*
%TO.P,C3,1*%
%TO.N,GND*%
X88150000Y-82587500D03*
%TO.P,C3,2*%
%TO.N,+3V0*%
X88150000Y-84312500D03*
%TD*%
D16*
%TO.P,C1,1*%
%TO.N,GND*%
X88050000Y-144362500D03*
%TO.P,C1,2*%
%TO.N,+3V0*%
X88050000Y-142637500D03*
%TD*%
D17*
%TO.P,J1,S1,SHIELD*%
%TO.N,GND*%
X96280000Y-79070000D03*
D18*
X96280000Y-83250000D03*
D17*
X104920000Y-79070000D03*
D18*
X104920000Y-83250000D03*
D19*
%TO.P,J1,B12,GND*%
X103800000Y-83825000D03*
%TO.P,J1,B9,VBUS*%
%TO.N,Net-(U5-VCC)*%
X103000000Y-83825000D03*
D20*
%TO.P,J1,B8*%
%TO.N,N/C*%
X102350000Y-83825000D03*
%TO.P,J1,B7,D-*%
%TO.N,Net-(U5-USBDP)*%
X101350000Y-83825000D03*
%TO.P,J1,B6,D+*%
%TO.N,Net-(U5-USBDM)*%
X99850000Y-83825000D03*
%TO.P,J1,B5,CC2*%
%TO.N,Net-(J1-CC2)*%
X98850000Y-83825000D03*
D19*
%TO.P,J1,B4,VBUS*%
%TO.N,Net-(U5-VCC)*%
X98200000Y-83825000D03*
%TO.P,J1,B1,GND*%
%TO.N,GND*%
X97400000Y-83825000D03*
%TO.P,J1,A12,GND*%
X97400000Y-83825000D03*
%TO.P,J1,A9,VBUS*%
%TO.N,Net-(U5-VCC)*%
X98200000Y-83825000D03*
D20*
%TO.P,J1,A8*%
%TO.N,N/C*%
X99350000Y-83825000D03*
%TO.P,J1,A7,D-*%
%TO.N,Net-(U5-USBDP)*%
X100350000Y-83825000D03*
%TO.P,J1,A6,D+*%
%TO.N,Net-(U5-USBDM)*%
X100850000Y-83825000D03*
%TO.P,J1,A5,CC1*%
%TO.N,Net-(J1-CC1)*%
X101850000Y-83825000D03*
D19*
%TO.P,J1,A4,VBUS*%
%TO.N,Net-(U5-VCC)*%
X103000000Y-83825000D03*
%TO.P,J1,A1,GND*%
%TO.N,GND*%
X103800000Y-83825000D03*
%TD*%
D21*
%TO.P,U5,16,CBUS3*%
%TO.N,unconnected-(U5-CBUS3-Pad16)*%
X89577500Y-79950000D03*
%TO.P,U5,15,CBUS0*%
%TO.N,unconnected-(U5-CBUS0-Pad15)*%
X90212500Y-79950000D03*
%TO.P,U5,14,CBUS1*%
%TO.N,unconnected-(U5-CBUS1-Pad14)*%
X90847500Y-79950000D03*
%TO.P,U5,13,GND*%
%TO.N,GND*%
X91482500Y-79950000D03*
%TO.P,U5,12,VCC*%
%TO.N,Net-(U5-VCC)*%
X92117500Y-79950000D03*
%TO.P,U5,11,~{RESET}*%
%TO.N,unconnected-(U5-~{RESET}-Pad11)*%
X92752500Y-79950000D03*
%TO.P,U5,10,3V3OUT*%
%TO.N,+3V0*%
X93387500Y-79950000D03*
%TO.P,U5,9,USBDM*%
%TO.N,Net-(U5-USBDM)*%
X94022500Y-79950000D03*
%TO.P,U5,8,USBDP*%
%TO.N,Net-(U5-USBDP)*%
X94022500Y-85150000D03*
%TO.P,U5,7,CBUS2*%
%TO.N,unconnected-(U5-CBUS2-Pad7)*%
X93387500Y-85150000D03*
%TO.P,U5,6,~{CTS}*%
%TO.N,unconnected-(U5-~{CTS}-Pad6)*%
X92752500Y-85150000D03*
%TO.P,U5,5,GND*%
%TO.N,GND*%
X92117500Y-85150000D03*
%TO.P,U5,4,RXD*%
%TO.N,RXD*%
X91482500Y-85150000D03*
%TO.P,U5,3,VCCIO*%
%TO.N,+3V0*%
X90847500Y-85150000D03*
%TO.P,U5,2,~{RTS}*%
%TO.N,unconnected-(U5-~{RTS}-Pad2)*%
X90212500Y-85150000D03*
%TO.P,U5,1,TXD*%
%TO.N,TXD*%
X89577500Y-85150000D03*
%TD*%
D22*
%TO.P,BT1,1,+*%
%TO.N,Net-(BT1-+)*%
X98350000Y-89600000D03*
D23*
%TO.P,BT1,2,-*%
%TO.N,GND*%
X85650000Y-89600000D03*
%TD*%
D24*
%TO.P,U1,1,SDA*%
%TO.N,SDA*%
X91725000Y-144350000D03*
%TO.P,U1,2,ADDR*%
%TO.N,GND*%
X91725000Y-143850000D03*
%TO.P,U1,3,ALERT*%
%TO.N,unconnected-(U1-ALERT-Pad3)*%
X91725000Y-143350000D03*
%TO.P,U1,4,SCL*%
%TO.N,SCL*%
X91725000Y-142850000D03*
%TO.P,U1,5,VDD*%
%TO.N,+3V0*%
X89375000Y-142850000D03*
%TO.P,U1,6,~{RESET}*%
%TO.N,unconnected-(U1-~{RESET}-Pad6)*%
X89375000Y-143350000D03*
%TO.P,U1,7,R*%
%TO.N,GND*%
X89375000Y-143850000D03*
%TO.P,U1,8,VSS*%
X89375000Y-144350000D03*
D25*
%TO.P,U1,9,VSS*%
X90550000Y-143600000D03*
%TD*%
D26*
%TO.P,U4,1,~{CS}*%
%TO.N,FLASH_CS*%
X111805000Y-131082500D03*
%TO.P,U4,2,DO(IO1)*%
%TO.N,MISO*%
X110535000Y-131082500D03*
%TO.P,U4,3,IO2*%
%TO.N,+3V0*%
X109265000Y-131082500D03*
%TO.P,U4,4,GND*%
%TO.N,GND*%
X107995000Y-131082500D03*
%TO.P,U4,5,DI(IO0)*%
%TO.N,MOSI*%
X107995000Y-138282500D03*
%TO.P,U4,6,CLK*%
%TO.N,SCK*%
X109265000Y-138282500D03*
%TO.P,U4,7,IO3*%
%TO.N,+3V0*%
X110535000Y-138282500D03*
%TO.P,U4,8,VCC*%
X111805000Y-138282500D03*
%TD*%
D27*
%TO.P,Red1,1,K*%
%TO.N,Net-(Red1-K)*%
X97200000Y-144975000D03*
D28*
%TO.P,Red1,2,A*%
%TO.N,HUM_LED*%
X97200000Y-142435000D03*
%TD*%
D27*
%TO.P,Blue1,1,K*%
%TO.N,Net-(Blue1-K)*%
X105400000Y-144975000D03*
D28*
%TO.P,Blue1,2,A*%
%TO.N,TEMP_LED*%
X105400000Y-142435000D03*
%TD*%
D29*
%TO.P,U2,6,~{RST}*%
%TO.N,RST*%
X109512500Y-90250000D03*
%TO.P,U2,5,WAKE*%
%TO.N,WAKE_INTR*%
X109512500Y-89300000D03*
%TO.P,U2,4,DONE*%
%TO.N,DONE*%
X109512500Y-88350000D03*
%TO.P,U2,3,DELAY/M_RST*%
%TO.N,Net-(U2-DELAY{slash}M_RST)*%
X111787500Y-88350000D03*
%TO.P,U2,2,GND*%
%TO.N,GND*%
X111787500Y-89300000D03*
%TO.P,U2,1,VDD*%
%TO.N,+3V0*%
X111787500Y-90250000D03*
%TD*%
D30*
%TO.P,U3,28,PC5*%
%TO.N,SCL*%
X113645000Y-93917107D03*
%TO.P,U3,27,PC4*%
%TO.N,SDA*%
X113645000Y-96457107D03*
%TO.P,U3,26,PC3*%
%TO.N,unconnected-(U3-PC3-Pad26)*%
X113645000Y-98997107D03*
%TO.P,U3,25,PC2*%
%TO.N,unconnected-(U3-PC2-Pad25)*%
X113645000Y-101537107D03*
%TO.P,U3,24,PC1*%
%TO.N,unconnected-(U3-PC1-Pad24)*%
X113645000Y-104077107D03*
%TO.P,U3,23,PC0*%
%TO.N,unconnected-(U3-PC0-Pad23)*%
X113645000Y-106617107D03*
%TO.P,U3,22,GND*%
%TO.N,GND*%
X113645000Y-109157107D03*
%TO.P,U3,21,AREF*%
%TO.N,unconnected-(U3-AREF-Pad21)*%
X113645000Y-111697107D03*
%TO.P,U3,20,AVCC*%
%TO.N,unconnected-(U3-AVCC-Pad20)*%
X113645000Y-114237107D03*
%TO.P,U3,19,PB5*%
%TO.N,SCK*%
X113645000Y-116777107D03*
%TO.P,U3,18,PB4*%
%TO.N,MISO*%
X113645000Y-119317107D03*
%TO.P,U3,17,PB3*%
%TO.N,MOSI*%
X113645000Y-121857107D03*
%TO.P,U3,16,PB2*%
%TO.N,unconnected-(U3-PB2-Pad16)*%
X113645000Y-124397107D03*
%TO.P,U3,15,PB1*%
%TO.N,FLASH_CS*%
X113645000Y-126937107D03*
%TO.P,U3,14,PB0*%
%TO.N,unconnected-(U3-PB0-Pad14)*%
X106025000Y-126937107D03*
%TO.P,U3,13,PD7*%
%TO.N,unconnected-(U3-PD7-Pad13)*%
X106025000Y-124397107D03*
%TO.P,U3,12,PD6*%
%TO.N,TEMP_LED*%
X106025000Y-121857107D03*
%TO.P,U3,11,PD5*%
%TO.N,HUM_LED*%
X106025000Y-119317107D03*
%TO.P,U3,10,XTAL2/PB7*%
%TO.N,unconnected-(U3-XTAL2{slash}PB7-Pad10)*%
X106025000Y-116777107D03*
%TO.P,U3,9,XTAL1/PB6*%
%TO.N,unconnected-(U3-XTAL1{slash}PB6-Pad9)*%
X106025000Y-114237107D03*
%TO.P,U3,8,GND*%
%TO.N,GND*%
X106025000Y-111697107D03*
%TO.P,U3,7,VCC*%
%TO.N,+3V0*%
X106025000Y-109157107D03*
%TO.P,U3,6,PD4*%
%TO.N,unconnected-(U3-PD4-Pad6)*%
X106025000Y-106617107D03*
%TO.P,U3,5,PD3*%
%TO.N,DONE*%
X106025000Y-104077107D03*
%TO.P,U3,4,PD2*%
%TO.N,WAKE_INTR*%
X106025000Y-101537107D03*
%TO.P,U3,3,PD1*%
%TO.N,TXD*%
X106025000Y-98997107D03*
%TO.P,U3,2,PD0*%
%TO.N,RXD*%
X106025000Y-96457107D03*
D31*
%TO.P,U3,1,~{RESET}/PC6*%
%TO.N,RST*%
X106025000Y-93917107D03*
%TD*%
D32*
%TO.N,+3V0*%
X99250000Y-79900000D03*
X94650000Y-78300000D03*
%TO.N,Net-(U5-VCC)*%
X97250000Y-81700000D03*
X100550000Y-81638603D03*
%TO.N,+3V0*%
X103950000Y-110100000D03*
%TO.N,RST*%
X109500000Y-92650000D03*
X106565739Y-92538702D03*
%TO.N,GND*%
X113600000Y-91400000D03*
X92800000Y-82600000D03*
X89600000Y-145750000D03*
X108835000Y-129400000D03*
X102500000Y-142000000D03*
%TD*%
D33*
%TO.N,RST*%
X105637500Y-91550000D02*
X105637500Y-91610463D01*
X105637500Y-91610463D02*
X106565739Y-92538702D01*
%TO.N,DONE*%
X109512500Y-88350000D02*
X110077684Y-88350000D01*
X110077684Y-88350000D02*
X110650000Y-88922316D01*
X109150000Y-95800000D02*
X109150000Y-100952107D01*
X110650000Y-88922316D02*
X110650000Y-94300000D01*
X109150000Y-100952107D02*
X106025000Y-104077107D01*
X110650000Y-94300000D02*
X109150000Y-95800000D01*
D34*
%TO.N,+3V0*%
X99250000Y-79900000D02*
X102650000Y-79900000D01*
X102650000Y-79900000D02*
X103900000Y-81150000D01*
X103900000Y-81150000D02*
X105256497Y-81150000D01*
X105256497Y-81150000D02*
X109856497Y-85750000D01*
D33*
%TO.N,Net-(U5-VCC)*%
X103000000Y-83825000D02*
X103000000Y-83285305D01*
X103000000Y-83285305D02*
X101353298Y-81638603D01*
X101353298Y-81638603D02*
X100550000Y-81638603D01*
X97250000Y-81700000D02*
X94923972Y-81700000D01*
X94923972Y-81700000D02*
X94573972Y-81350000D01*
X94573972Y-81350000D02*
X92702500Y-81350000D01*
X92702500Y-81350000D02*
X92200000Y-80847500D01*
%TO.N,RST*%
X106565739Y-92538702D02*
X106025000Y-93079441D01*
X106025000Y-93079441D02*
X106025000Y-93917107D01*
D34*
%TO.N,+3V0*%
X105900000Y-86100000D02*
X105900000Y-86606497D01*
X105900000Y-86606497D02*
X107450000Y-88156497D01*
X107250000Y-91557107D02*
X107450000Y-91357107D01*
X107450000Y-91357107D02*
X107450000Y-88156497D01*
X107450000Y-88156497D02*
X109856497Y-85750000D01*
%TO.N,Net-(BT1-+)*%
X98350000Y-89600000D02*
X104900000Y-89600000D01*
X104900000Y-89600000D02*
X105900000Y-88600000D01*
%TO.N,+3V0*%
X88150000Y-84312500D02*
X88612500Y-83850000D01*
X88612500Y-83850000D02*
X90597500Y-83850000D01*
X90597500Y-83850000D02*
X90847500Y-84100000D01*
X86375000Y-83375000D02*
X87100000Y-84100000D01*
X87100000Y-84100000D02*
X88210000Y-84100000D01*
%TO.N,GND*%
X91500000Y-82787500D02*
X91500000Y-83550000D01*
X91500000Y-83550000D02*
X92117500Y-84167500D01*
X91500000Y-82387500D02*
X91500000Y-80985000D01*
X92800000Y-82600000D02*
X92787500Y-82587500D01*
X92787500Y-82587500D02*
X91300000Y-82587500D01*
D33*
X92206882Y-82550000D02*
X92256882Y-82600000D01*
X92256882Y-82600000D02*
X92800000Y-82600000D01*
D34*
X88150000Y-82587500D02*
X91300000Y-82587500D01*
D33*
X92117500Y-85150000D02*
X92117500Y-84167500D01*
X91482500Y-79950000D02*
X91482500Y-80967500D01*
D34*
%TO.N,+3V0*%
X109856497Y-85750000D02*
X113400000Y-85750000D01*
X113400000Y-85750000D02*
X114950000Y-87300000D01*
X114950000Y-87300000D02*
X114950000Y-91821296D01*
X114950000Y-91821296D02*
X114204189Y-92567107D01*
X114204189Y-92567107D02*
X112167107Y-92567107D01*
X112167107Y-92567107D02*
X111787500Y-92187500D01*
X111787500Y-92187500D02*
X111787500Y-90250000D01*
D33*
%TO.N,WAKE_INTR*%
X106025000Y-101537107D02*
X108000000Y-99562107D01*
X108200000Y-89950001D02*
X108850001Y-89300000D01*
X108000000Y-99562107D02*
X108000000Y-92750000D01*
X108000000Y-92750000D02*
X108550000Y-92200000D01*
X108550000Y-92200000D02*
X108550000Y-91000000D01*
X108550000Y-91000000D02*
X108200000Y-90650000D01*
X108200000Y-90650000D02*
X108200000Y-89950001D01*
X108850001Y-89300000D02*
X109512500Y-89300000D01*
%TO.N,RST*%
X109500000Y-90262500D02*
X109512500Y-90250000D01*
X109500000Y-92650000D02*
X109500000Y-90262500D01*
D34*
%TO.N,GND*%
X102162500Y-143550000D02*
X102162500Y-142337500D01*
X102162500Y-142337500D02*
X102500000Y-142000000D01*
%TO.N,Net-(Red1-K)*%
X100337500Y-143550000D02*
X98625000Y-143550000D01*
X98625000Y-143550000D02*
X97200000Y-144975000D01*
%TO.N,Net-(Blue1-K)*%
X102262500Y-145300000D02*
X105075000Y-145300000D01*
X105075000Y-145300000D02*
X105400000Y-144975000D01*
%TO.N,GND*%
X100437500Y-145300000D02*
X100437500Y-145275000D01*
X100437500Y-145275000D02*
X102162500Y-143550000D01*
D33*
%TO.N,SDA*%
X93075000Y-144687500D02*
X93075000Y-144650811D01*
X93075000Y-144650811D02*
X99400000Y-138325811D01*
X99400000Y-138325811D02*
X99400000Y-123900000D01*
X99400000Y-123900000D02*
X105272893Y-118027107D01*
D34*
%TO.N,GND*%
X88050000Y-144362500D02*
X89362500Y-144362500D01*
X89362500Y-144362500D02*
X89375000Y-144350000D01*
%TO.N,+3V0*%
X93400000Y-78250000D02*
X94600000Y-78250000D01*
X94600000Y-78250000D02*
X94650000Y-78300000D01*
X91750000Y-78250000D02*
X93400000Y-78250000D01*
X93400000Y-78250000D02*
X93400000Y-79037500D01*
X88650000Y-78250000D02*
X91750000Y-78250000D01*
D33*
%TO.N,Net-(J1-CC1)*%
X101850000Y-83825000D02*
X101850000Y-84700000D01*
X101850000Y-84700000D02*
X102175000Y-85025000D01*
X102175000Y-85025000D02*
X102175000Y-85700000D01*
X102175000Y-85745000D02*
X102175000Y-85700000D01*
%TO.N,SCL*%
X106542767Y-115487107D02*
X105047893Y-115487107D01*
X110500000Y-111529874D02*
X106542767Y-115487107D01*
X110500000Y-97062107D02*
X110500000Y-111529874D01*
X113645000Y-93917107D02*
X110500000Y-97062107D01*
%TO.N,SDA*%
X113645000Y-96457107D02*
X111750000Y-98352107D01*
X111750000Y-98352107D02*
X111750000Y-112819874D01*
X111750000Y-112819874D02*
X106542767Y-118027107D01*
X106542767Y-118027107D02*
X105207893Y-118027107D01*
D34*
%TO.N,+3V0*%
X87425000Y-146850000D02*
X93000000Y-146850000D01*
X93000000Y-146850000D02*
X106250000Y-146850000D01*
%TO.N,GND*%
X89375000Y-144350000D02*
X89375000Y-145525000D01*
X89375000Y-145525000D02*
X89600000Y-145750000D01*
%TO.N,+3V0*%
X86375000Y-83375000D02*
X87050000Y-82700000D01*
X87050000Y-82700000D02*
X87050000Y-79850000D01*
X87050000Y-79850000D02*
X88650000Y-78250000D01*
D33*
X90847500Y-84250000D02*
X90847500Y-85150000D01*
D34*
X82650000Y-87100000D02*
X86375000Y-83375000D01*
X82650000Y-104450000D02*
X82650000Y-87100000D01*
D33*
%TO.N,Net-(U5-VCC)*%
X92117500Y-80765000D02*
X92117500Y-79950000D01*
%TO.N,Net-(U5-USBDM)*%
X94022500Y-79950000D02*
X94872500Y-80800000D01*
X94872500Y-80800000D02*
X97850000Y-80800000D01*
X97850000Y-80800000D02*
X99850000Y-82800000D01*
X99850000Y-82800000D02*
X99850000Y-83825000D01*
%TO.N,Net-(U5-VCC)*%
X97250000Y-81700000D02*
X97685305Y-81700000D01*
X97685305Y-81700000D02*
X98585305Y-82600000D01*
D34*
%TO.N,+3V0*%
X86125000Y-142730000D02*
X86125000Y-140325000D01*
X86125000Y-140325000D02*
X82650000Y-136850000D01*
X82650000Y-136850000D02*
X82650000Y-104450000D01*
X93600000Y-104400000D02*
X82700000Y-104400000D01*
X98357107Y-109157107D02*
X93600000Y-104400000D01*
X103950000Y-109157107D02*
X98357107Y-109157107D01*
X82700000Y-104400000D02*
X82650000Y-104450000D01*
X87775000Y-142690000D02*
X86165000Y-142690000D01*
X86165000Y-142690000D02*
X86125000Y-142730000D01*
X86125000Y-142730000D02*
X86125000Y-145550000D01*
X86125000Y-145550000D02*
X87425000Y-146850000D01*
X106250000Y-146850000D02*
X107800000Y-145300000D01*
X107800000Y-145300000D02*
X107800000Y-141817499D01*
X107800000Y-141817499D02*
X110535000Y-139082499D01*
X110535000Y-139082499D02*
X110535000Y-138282500D01*
X103950000Y-109157107D02*
X103950000Y-110100000D01*
X103950000Y-109157107D02*
X106025000Y-109157107D01*
%TO.N,GND*%
X113550000Y-91350000D02*
X113600000Y-91400000D01*
X113550000Y-89875000D02*
X113550000Y-91350000D01*
D33*
%TO.N,RXD*%
X91482500Y-85150000D02*
X91482500Y-86050000D01*
X91482500Y-86050000D02*
X101889607Y-96457107D01*
X101889607Y-96457107D02*
X106025000Y-96457107D01*
%TO.N,TXD*%
X89577500Y-85150000D02*
X89577500Y-86050000D01*
X89577500Y-86050000D02*
X102524607Y-98997107D01*
X102524607Y-98997107D02*
X106025000Y-98997107D01*
%TO.N,+3V0*%
X93387500Y-79950000D02*
X93387500Y-79050000D01*
%TO.N,Net-(U5-USBDP)*%
X94022500Y-85150000D02*
X94022500Y-85622500D01*
X94022500Y-85622500D02*
X95850000Y-87450000D01*
X95850000Y-87450000D02*
X99400000Y-87450000D01*
X99400000Y-87450000D02*
X100350000Y-86500000D01*
X100350000Y-86500000D02*
X100350000Y-83825000D01*
X101350000Y-83825000D02*
X101350000Y-84503120D01*
X101350000Y-84503120D02*
X101103120Y-84750000D01*
X101103120Y-84750000D02*
X100596880Y-84750000D01*
X100596880Y-84750000D02*
X100350000Y-84503120D01*
X100350000Y-84503120D02*
X100350000Y-83825000D01*
%TO.N,Net-(U5-USBDM)*%
X100850000Y-83825000D02*
X100850000Y-83146880D01*
X100850000Y-83146880D02*
X100603120Y-82900000D01*
X99900000Y-82900000D02*
X99850000Y-82950000D01*
X100603120Y-82900000D02*
X99900000Y-82900000D01*
X99850000Y-82950000D02*
X99850000Y-83825000D01*
%TO.N,Net-(U5-VCC)*%
X98585305Y-82600000D02*
X98585305Y-82900000D01*
X98200000Y-83285305D02*
X98200000Y-83825000D01*
X98585305Y-82900000D02*
X98200000Y-83285305D01*
D34*
%TO.N,GND*%
X103800000Y-83825000D02*
X104345000Y-83825000D01*
X104345000Y-83825000D02*
X104920000Y-83250000D01*
X97400000Y-83825000D02*
X96855000Y-83825000D01*
X96855000Y-83825000D02*
X96280000Y-83250000D01*
X103825000Y-85745000D02*
X103825000Y-83850000D01*
X103825000Y-83850000D02*
X103800000Y-83825000D01*
X97375000Y-85645000D02*
X97375000Y-83850000D01*
X97375000Y-83850000D02*
X97400000Y-83825000D01*
D33*
%TO.N,Net-(J1-CC2)*%
X99025000Y-85645000D02*
X98850000Y-85470000D01*
X98850000Y-85470000D02*
X98850000Y-83825000D01*
%TO.N,DONE*%
X109512500Y-88350000D02*
X109150000Y-88350000D01*
%TO.N,FLASH_CS*%
X113645000Y-126937107D02*
X113645000Y-130155000D01*
X113645000Y-130155000D02*
X112717500Y-131082500D01*
X112717500Y-131082500D02*
X111805000Y-131082500D01*
%TO.N,MOSI*%
X107995000Y-138282500D02*
X107995000Y-136895000D01*
X107995000Y-136895000D02*
X106535000Y-135435000D01*
X106535000Y-135435000D02*
X106535000Y-130285786D01*
X106535000Y-130285786D02*
X111335000Y-125485786D01*
X111335000Y-125485786D02*
X111335000Y-124167107D01*
X111335000Y-124167107D02*
X113645000Y-121857107D01*
D34*
%TO.N,Net-(Blue1-K)*%
X104975000Y-145400000D02*
X105400000Y-144975000D01*
D33*
%TO.N,TEMP_LED*%
X103300000Y-124647107D02*
X106090000Y-121857107D01*
X103300000Y-124647107D02*
X103300000Y-140335000D01*
X103300000Y-140335000D02*
X105400000Y-142435000D01*
%TO.N,MISO*%
X113645000Y-119317107D02*
X114895000Y-120567107D01*
X110535000Y-127847107D02*
X110535000Y-131082500D01*
X114162767Y-125647107D02*
X112735000Y-125647107D01*
X112735000Y-125647107D02*
X110535000Y-127847107D01*
X114895000Y-124914874D02*
X114162767Y-125647107D01*
X114895000Y-120567107D02*
X114895000Y-124914874D01*
%TO.N,SCK*%
X109265000Y-139082499D02*
X108814999Y-139532500D01*
X106767500Y-139532500D02*
X105635000Y-138400000D01*
X109035000Y-121387107D02*
X113645000Y-116777107D01*
X109265000Y-138282500D02*
X109265000Y-139082499D01*
X108814999Y-139532500D02*
X106767500Y-139532500D01*
X109035000Y-126500000D02*
X109035000Y-121387107D01*
X105635000Y-138400000D02*
X105635000Y-129900000D01*
X105635000Y-129900000D02*
X109035000Y-126500000D01*
%TO.N,RST*%
X105600000Y-91557107D02*
X105600000Y-93492107D01*
X105600000Y-93492107D02*
X106025000Y-93917107D01*
D34*
%TO.N,+3V0*%
X87775000Y-142690000D02*
X87790000Y-142675000D01*
X87775000Y-142690000D02*
X89310000Y-142690000D01*
X110535000Y-138282500D02*
X111805000Y-138282500D01*
X93075000Y-141300000D02*
X90830000Y-141300000D01*
X90830000Y-141300000D02*
X89375000Y-142755000D01*
X89310000Y-142690000D02*
X89375000Y-142755000D01*
X110535000Y-135317500D02*
X109265000Y-134047500D01*
X110535000Y-138282500D02*
X110535000Y-135317500D01*
X109265000Y-134047500D02*
X109265000Y-131082500D01*
D33*
%TO.N,HUM_LED*%
X101300000Y-124107107D02*
X106090000Y-119317107D01*
X101300000Y-138335000D02*
X97200000Y-142435000D01*
X101300000Y-124107107D02*
X101300000Y-138335000D01*
D34*
%TO.N,GND*%
X86050000Y-89200000D02*
X85650000Y-89600000D01*
X90205000Y-143945000D02*
X89375000Y-143945000D01*
X89375000Y-144350000D02*
X89375000Y-143945000D01*
D33*
X90550000Y-143600000D02*
X90795000Y-143845000D01*
D34*
X90550000Y-143600000D02*
X90205000Y-143945000D01*
D33*
X112975000Y-89300000D02*
X113550000Y-89875000D01*
D34*
X107995000Y-131082500D02*
X107995000Y-130240000D01*
X107995000Y-130240000D02*
X108835000Y-129400000D01*
D33*
X111787500Y-89300000D02*
X112975000Y-89300000D01*
X90795000Y-143845000D02*
X91494609Y-143845000D01*
%TO.N,Net-(U2-DELAY{slash}M_RST)*%
X111787500Y-88350000D02*
X113425000Y-88350000D01*
X113425000Y-88350000D02*
X113550000Y-88225000D01*
%TO.N,SCL*%
X105112893Y-115487107D02*
X97200000Y-123400000D01*
X91725000Y-142850000D02*
X92975000Y-142850000D01*
X93225000Y-142850000D02*
X93325000Y-142950000D01*
X92975000Y-142850000D02*
X93075000Y-142950000D01*
X97200000Y-138825000D02*
X93075000Y-142950000D01*
X97200000Y-123400000D02*
X97200000Y-138825000D01*
%TO.N,SDA*%
X91725000Y-144350000D02*
X93075000Y-144350000D01*
%TD*%
M02*
