M48
; DRILL file {KiCad 7.0.10} date Mon 08 Jan 2024 08:34:24 CET
; FORMAT={-:-/ absolute / inch / decimal}
; #@! TF.CreationDate,2024-01-08T08:34:24+01:00
; #@! TF.GenerationSoftware,Kicad,Pcbnew,7.0.10
; #@! TF.FileFunction,Plated,1,2,PTH
FMAT,2
INCH
; #@! TA.AperFunction,Plated,PTH,ViaDrill
T1C0.0197
; #@! TA.AperFunction,Plated,PTH,ComponentDrill
T2C0.0315
; #@! TA.AperFunction,Plated,PTH,ComponentDrill
T3C0.0354
; #@! TA.AperFunction,Plated,PTH,ComponentDrill
T4C0.0394
; #@! TA.AperFunction,Plated,PTH,ComponentDrill
T5C0.0402
%
G90
G05
T1
X3.3799Y-3.187
X3.8852Y-5.599
X4.1949Y-3.3327
T2
X4.1732Y-3.522
X4.1732Y-3.622
X4.1732Y-3.722
X4.1732Y-3.822
X4.1732Y-3.922
X4.1732Y-4.022
X4.1732Y-4.122
X4.1732Y-4.222
X4.1732Y-4.322
X4.1732Y-4.422
X4.1732Y-4.522
X4.1732Y-4.622
X4.1732Y-4.722
X4.1732Y-4.822
X4.4732Y-3.522
X4.4732Y-3.622
X4.4732Y-3.722
X4.4732Y-3.822
X4.4732Y-3.922
X4.4732Y-4.022
X4.4732Y-4.122
X4.4732Y-4.222
X4.4732Y-4.322
X4.4732Y-4.422
X4.4732Y-4.522
X4.4732Y-4.622
X4.4732Y-4.722
X4.4732Y-4.822
T3
X3.6945Y-5.6185
X3.6945Y-5.7185
X3.9581Y-5.6211
X3.9581Y-5.7211
T4
X4.2748Y-5.1083
X4.2748Y-5.2083
X4.2748Y-5.3083
X4.3748Y-5.1083
X4.3748Y-5.2083
X4.3748Y-5.3083
T5
X3.372Y-3.5276
X3.872Y-3.5276
M30
