%TF.GenerationSoftware,KiCad,Pcbnew,8.0.1*%
%TF.CreationDate,2024-04-11T17:25:41+02:00*%
%TF.ProjectId,mold_detect,6d6f6c64-5f64-4657-9465-63742e6b6963,rev?*%
%TF.SameCoordinates,Original*%
%TF.FileFunction,Copper,L2,Bot*%
%TF.FilePolarity,Positive*%
%FSLAX46Y46*%
G04 Gerber Fmt 4.6, Leading zero omitted, Abs format (unit mm)*
G04 Created by KiCad (PCBNEW 8.0.1) date 2024-04-11 17:25:41*
%MOMM*%
%LPD*%
G01*
G04 APERTURE LIST*
G04 Aperture macros list*
%AMRoundRect*
0 Rectangle with rounded corners*
0 $1 Rounding radius*
0 $2 $3 $4 $5 $6 $7 $8 $9 X,Y pos of 4 corners*
0 Add a 4 corners polygon primitive as box body*
4,1,4,$2,$3,$4,$5,$6,$7,$8,$9,$2,$3,0*
0 Add four circle primitives for the rounded corners*
1,1,$1+$1,$2,$3*
1,1,$1+$1,$4,$5*
1,1,$1+$1,$6,$7*
1,1,$1+$1,$8,$9*
0 Add four rect primitives between the rounded corners*
20,1,$1+$1,$2,$3,$4,$5,0*
20,1,$1+$1,$4,$5,$6,$7,0*
20,1,$1+$1,$6,$7,$8,$9,0*
20,1,$1+$1,$8,$9,$2,$3,0*%
G04 Aperture macros list end*
%TA.AperFunction,ComponentPad*%
%ADD10R,1.800000X1.800000*%
%TD*%
%TA.AperFunction,ComponentPad*%
%ADD11C,1.800000*%
%TD*%
%TA.AperFunction,ComponentPad*%
%ADD12C,1.500000*%
%TD*%
%TA.AperFunction,ComponentPad*%
%ADD13R,1.600000X1.600000*%
%TD*%
%TA.AperFunction,ComponentPad*%
%ADD14C,1.600000*%
%TD*%
%TA.AperFunction,SMDPad,CuDef*%
%ADD15RoundRect,0.237500X0.237500X-0.300000X0.237500X0.300000X-0.237500X0.300000X-0.237500X-0.300000X0*%
%TD*%
%TA.AperFunction,ComponentPad*%
%ADD16O,2.100000X1.000000*%
%TD*%
%TA.AperFunction,ComponentPad*%
%ADD17O,1.800000X1.000000*%
%TD*%
%TA.AperFunction,ComponentPad*%
%ADD18C,1.700000*%
%TD*%
%TA.AperFunction,ComponentPad*%
%ADD19RoundRect,0.250000X0.600000X-0.600000X0.600000X0.600000X-0.600000X0.600000X-0.600000X-0.600000X0*%
%TD*%
%TA.AperFunction,SMDPad,CuDef*%
%ADD20RoundRect,0.237500X-0.237500X0.300000X-0.237500X-0.300000X0.237500X-0.300000X0.237500X0.300000X0*%
%TD*%
%TA.AperFunction,ComponentPad*%
%ADD21R,2.000000X2.000000*%
%TD*%
%TA.AperFunction,ComponentPad*%
%ADD22C,2.000000*%
%TD*%
%TA.AperFunction,ComponentPad*%
%ADD23O,1.600000X1.600000*%
%TD*%
%TA.AperFunction,ViaPad*%
%ADD24C,1.100000*%
%TD*%
%TA.AperFunction,Conductor*%
%ADD25C,0.500000*%
%TD*%
%TA.AperFunction,Conductor*%
%ADD26C,0.300000*%
%TD*%
G04 APERTURE END LIST*
D10*
%TO.P,Red1,1,K*%
%TO.N,Net-(Red1-K)*%
X51000000Y-60000000D03*
D11*
%TO.P,Red1,2,A*%
%TO.N,ERROR_LED*%
X51000000Y-62540000D03*
%TD*%
%TO.P,Green1,2,A*%
%TO.N,GENERAL_LED*%
X56000000Y-59985000D03*
D10*
%TO.P,Green1,1,K*%
%TO.N,Net-(Green1-K)*%
X56000000Y-62525000D03*
%TD*%
D12*
%TO.P,Y1,2,2*%
%TO.N,Net-(U3-XTAL1{slash}PB6)*%
X56500000Y-75000000D03*
%TO.P,Y1,1,1*%
%TO.N,Net-(U3-XTAL2{slash}PB7)*%
X56500000Y-79880000D03*
%TD*%
D13*
%TO.P,C3,1*%
%TO.N,Net-(U2-VCC)*%
X100500000Y-80000000D03*
D14*
%TO.P,C3,2*%
%TO.N,GND*%
X98500000Y-80000000D03*
%TD*%
D15*
%TO.P,C5,2*%
%TO.N,+3V0*%
X63500000Y-71000000D03*
%TO.P,C5,1*%
%TO.N,GND*%
X63500000Y-72725000D03*
%TD*%
D16*
%TO.P,J1,S1,SHIELD*%
%TO.N,GND*%
X97895000Y-71220000D03*
D17*
X102075000Y-71220000D03*
D16*
X97895000Y-62580000D03*
D17*
X102075000Y-62580000D03*
%TD*%
D18*
%TO.P,J2,6,Pin_6*%
%TO.N,GND*%
X64580000Y-95460000D03*
%TO.P,J2,5,Pin_5*%
%TO.N,RST*%
X64580000Y-98000000D03*
%TO.P,J2,4,Pin_4*%
%TO.N,COPI*%
X62040000Y-95460000D03*
%TO.P,J2,3,Pin_3*%
%TO.N,SCK*%
X62040000Y-98000000D03*
%TO.P,J2,2,Pin_2*%
%TO.N,+3V0*%
X59500000Y-95460000D03*
D19*
%TO.P,J2,1,Pin_1*%
%TO.N,CIPO*%
X59500000Y-98000000D03*
%TD*%
D20*
%TO.P,C9,1*%
%TO.N,GND*%
X100500000Y-64137500D03*
%TO.P,C9,2*%
%TO.N,Net-(C9-Pad2)*%
X100500000Y-65862500D03*
%TD*%
D21*
%TO.P,BT1,1,+*%
%TO.N,Net-(BT1-+)*%
X76982500Y-51100000D03*
D22*
%TO.P,BT1,2,-*%
%TO.N,GND*%
X89682500Y-51100000D03*
%TD*%
D11*
%TO.P,Red2,2,A*%
%TO.N,TEMP_LED*%
X56000000Y-57265000D03*
D10*
%TO.P,Red2,1,K*%
%TO.N,Net-(Red2-K)*%
X56000000Y-54725000D03*
%TD*%
D11*
%TO.P,Blue1,2,A*%
%TO.N,HUM_LED*%
X51000000Y-65250000D03*
D10*
%TO.P,Blue1,1,K*%
%TO.N,Net-(Blue1-K)*%
X51000000Y-67790000D03*
%TD*%
D15*
%TO.P,C8,1*%
%TO.N,GND*%
X100500000Y-69762500D03*
%TO.P,C8,2*%
%TO.N,Net-(C8-Pad2)*%
X100500000Y-68037500D03*
%TD*%
D23*
%TO.P,U3,28,PC5*%
%TO.N,SCL*%
X68332500Y-55640000D03*
%TO.P,U3,27,PC4*%
%TO.N,SDA*%
X68332500Y-58180000D03*
%TO.P,U3,26,PC3*%
%TO.N,unconnected-(U3-PC3-Pad26)*%
X68332500Y-60720000D03*
%TO.P,U3,25,PC2*%
%TO.N,unconnected-(U3-PC2-Pad25)*%
X68332500Y-63260000D03*
%TO.P,U3,24,PC1*%
%TO.N,unconnected-(U3-PC1-Pad24)*%
X68332500Y-65800000D03*
%TO.P,U3,23,PC0*%
%TO.N,USB_ENABLE_INTR*%
X68332500Y-68340000D03*
%TO.P,U3,22,GND*%
%TO.N,GND*%
X68332500Y-70880000D03*
%TO.P,U3,21,AREF*%
%TO.N,unconnected-(U3-AREF-Pad21)*%
X68332500Y-73420000D03*
%TO.P,U3,20,AVCC*%
%TO.N,unconnected-(U3-AVCC-Pad20)*%
X68332500Y-75960000D03*
%TO.P,U3,19,PB5*%
%TO.N,SCK*%
X68332500Y-78500000D03*
%TO.P,U3,18,PB4*%
%TO.N,CIPO*%
X68332500Y-81040000D03*
%TO.P,U3,17,PB3*%
%TO.N,COPI*%
X68332500Y-83580000D03*
%TO.P,U3,16,PB2*%
%TO.N,FLASH_CS*%
X68332500Y-86120000D03*
%TO.P,U3,15,PB1*%
%TO.N,unconnected-(U3-PB1-Pad15)*%
X68332500Y-88660000D03*
%TO.P,U3,14,PB0*%
%TO.N,unconnected-(U3-PB0-Pad14)*%
X60712500Y-88660000D03*
%TO.P,U3,13,PD7*%
%TO.N,ERROR_LED*%
X60712500Y-86120000D03*
%TO.P,U3,12,PD6*%
%TO.N,HUM_LED*%
X60712500Y-83580000D03*
%TO.P,U3,11,PD5*%
%TO.N,GENERAL_LED*%
X60712500Y-81040000D03*
%TO.P,U3,10,XTAL2/PB7*%
%TO.N,Net-(U3-XTAL2{slash}PB7)*%
X60712500Y-78500000D03*
%TO.P,U3,9,XTAL1/PB6*%
%TO.N,Net-(U3-XTAL1{slash}PB6)*%
X60712500Y-75960000D03*
%TO.P,U3,8,GND*%
%TO.N,GND*%
X60712500Y-73420000D03*
%TO.P,U3,7,VCC*%
%TO.N,+3V0*%
X60712500Y-70880000D03*
%TO.P,U3,6,PD4*%
%TO.N,DONE*%
X60712500Y-68340000D03*
%TO.P,U3,5,PD3*%
%TO.N,WAKE_INTR*%
X60712500Y-65800000D03*
%TO.P,U3,4,PD2*%
%TO.N,TEMP_LED*%
X60712500Y-63260000D03*
%TO.P,U3,3,PD1*%
%TO.N,TXD*%
X60712500Y-60720000D03*
%TO.P,U3,2,PD0*%
%TO.N,RXD*%
X60712500Y-58180000D03*
D13*
%TO.P,U3,1,~{RESET}/PC6*%
%TO.N,RST*%
X60712500Y-55640000D03*
%TD*%
D24*
%TO.N,GND*%
X87325000Y-65575000D03*
%TO.N,USB_ENABLE_INTR*%
X89187500Y-65675000D03*
X87397038Y-67901369D03*
%TO.N,Net-(C9-Pad2)*%
X98900000Y-66150000D03*
%TO.N,Net-(C8-Pad2)*%
X98650000Y-67650000D03*
%TO.N,+3V0*%
X65500000Y-58479000D03*
%TO.N,RST*%
X63500000Y-63010000D03*
X65880830Y-69619170D03*
X65000000Y-74000000D03*
X63500000Y-58479000D03*
%TO.N,+3V0*%
X62000000Y-91500000D03*
X67000000Y-91500000D03*
X84500000Y-63500000D03*
X84500000Y-72000000D03*
X84500000Y-60911000D03*
X84500000Y-69946000D03*
%TO.N,GND*%
X89500000Y-72500000D03*
X51000000Y-77500000D03*
X54500000Y-65000000D03*
X52500000Y-58000000D03*
X72500000Y-56710436D03*
%TO.N,COPI*%
X78000000Y-84120000D03*
X76000000Y-81000000D03*
%TO.N,GND*%
X80812026Y-78635000D03*
%TD*%
D25*
%TO.N,USB_ENABLE_INTR*%
X89187500Y-65675000D02*
X87397038Y-67465462D01*
X87397038Y-67465462D02*
X87397038Y-67901369D01*
D26*
%TO.N,COPI*%
X78000000Y-84120000D02*
X76000000Y-82120000D01*
X76000000Y-82120000D02*
X76000000Y-81000000D01*
D25*
%TO.N,+3V0*%
X84500000Y-69946000D02*
X84500000Y-72000000D01*
X67000000Y-91500000D02*
X62000000Y-91500000D01*
D26*
%TO.N,Net-(C8-Pad2)*%
X98650000Y-67650000D02*
X100112500Y-67650000D01*
X100112500Y-67650000D02*
X100500000Y-68037500D01*
%TO.N,Net-(C9-Pad2)*%
X98900000Y-66150000D02*
X100212500Y-66150000D01*
X100212500Y-66150000D02*
X100500000Y-65862500D01*
%TO.N,RST*%
X65880830Y-73119170D02*
X65000000Y-74000000D01*
X65880830Y-69619170D02*
X65880830Y-73119170D01*
D25*
%TO.N,+3V0*%
X65500000Y-58479000D02*
X65500000Y-65500000D01*
X65500000Y-65500000D02*
X64500000Y-66500000D01*
X64500000Y-66500000D02*
X64500000Y-70000000D01*
X64500000Y-70000000D02*
X63500000Y-71000000D01*
D26*
%TO.N,RST*%
X63500000Y-63010000D02*
X63500000Y-58479000D01*
D25*
%TO.N,+3V0*%
X84500000Y-60911000D02*
X84500000Y-63500000D01*
D26*
X63500000Y-71000000D02*
X60832500Y-71000000D01*
X60832500Y-71000000D02*
X60712500Y-70880000D01*
%TD*%
%TA.AperFunction,Conductor*%
%TO.N,GND*%
G36*
X100003243Y-46800669D02*
G01*
X100327952Y-46817687D01*
X100340860Y-46819044D01*
X100658794Y-46869400D01*
X100671478Y-46872095D01*
X100982429Y-46955414D01*
X100994770Y-46959425D01*
X101295282Y-47074780D01*
X101307138Y-47080058D01*
X101593976Y-47226210D01*
X101605192Y-47232686D01*
X101875165Y-47408008D01*
X101885666Y-47415637D01*
X102135836Y-47618221D01*
X102145481Y-47626906D01*
X102373093Y-47854518D01*
X102381778Y-47864163D01*
X102584362Y-48114333D01*
X102591991Y-48124834D01*
X102767310Y-48394802D01*
X102773792Y-48406029D01*
X102848733Y-48553107D01*
X102919940Y-48692859D01*
X102925219Y-48704717D01*
X103040574Y-49005229D01*
X103044585Y-49017572D01*
X103127902Y-49328515D01*
X103130600Y-49341211D01*
X103180955Y-49659139D01*
X103182312Y-49672047D01*
X103199330Y-49996756D01*
X103199500Y-50003246D01*
X103199500Y-61629416D01*
X103179815Y-61696455D01*
X103127011Y-61742210D01*
X103057853Y-61752154D01*
X103006610Y-61732519D01*
X102948682Y-61693813D01*
X102948671Y-61693807D01*
X102766693Y-61618430D01*
X102766681Y-61618427D01*
X102573495Y-61580000D01*
X102325000Y-61580000D01*
X102325000Y-62280000D01*
X101825000Y-62280000D01*
X101825000Y-61580000D01*
X101576504Y-61580000D01*
X101383318Y-61618427D01*
X101383306Y-61618430D01*
X101201328Y-61693807D01*
X101201315Y-61693814D01*
X101037537Y-61803248D01*
X101037533Y-61803251D01*
X100898251Y-61942533D01*
X100898248Y-61942537D01*
X100788814Y-62106315D01*
X100788807Y-62106328D01*
X100713430Y-62288307D01*
X100713430Y-62288309D01*
X100705138Y-62330000D01*
X101508012Y-62330000D01*
X101490795Y-62339940D01*
X101434940Y-62395795D01*
X101395444Y-62464204D01*
X101375000Y-62540504D01*
X101375000Y-62619496D01*
X101395444Y-62695796D01*
X101434940Y-62764205D01*
X101490795Y-62820060D01*
X101508012Y-62830000D01*
X100705138Y-62830000D01*
X100713430Y-62871690D01*
X100713430Y-62871692D01*
X100759304Y-62982442D01*
X100766773Y-63051911D01*
X100750000Y-63085418D01*
X100750000Y-63887500D01*
X101474999Y-63887500D01*
X101474999Y-63788360D01*
X101474998Y-63788345D01*
X101467669Y-63716602D01*
X101480438Y-63647909D01*
X101528319Y-63597025D01*
X101591027Y-63580000D01*
X101825000Y-63580000D01*
X101825000Y-62880000D01*
X102325000Y-62880000D01*
X102325000Y-63580000D01*
X102573492Y-63580000D01*
X102573495Y-63579999D01*
X102766681Y-63541572D01*
X102766693Y-63541569D01*
X102948671Y-63466192D01*
X102948684Y-63466185D01*
X103006609Y-63427481D01*
X103073286Y-63406603D01*
X103140666Y-63425087D01*
X103187357Y-63477066D01*
X103199500Y-63530583D01*
X103199500Y-70269416D01*
X103179815Y-70336455D01*
X103127011Y-70382210D01*
X103057853Y-70392154D01*
X103006610Y-70372519D01*
X102948682Y-70333813D01*
X102948671Y-70333807D01*
X102766693Y-70258430D01*
X102766681Y-70258427D01*
X102573495Y-70220000D01*
X102325000Y-70220000D01*
X102325000Y-70920000D01*
X101825000Y-70920000D01*
X101825000Y-70220000D01*
X101599000Y-70220000D01*
X101531961Y-70200315D01*
X101486206Y-70147511D01*
X101475000Y-70096000D01*
X101475000Y-70012500D01*
X100750000Y-70012500D01*
X100750000Y-70815357D01*
X100740561Y-70862810D01*
X100713429Y-70928310D01*
X100705138Y-70970000D01*
X101508012Y-70970000D01*
X101490795Y-70979940D01*
X101434940Y-71035795D01*
X101395444Y-71104204D01*
X101375000Y-71180504D01*
X101375000Y-71259496D01*
X101395444Y-71335796D01*
X101434940Y-71404205D01*
X101490795Y-71460060D01*
X101508012Y-71470000D01*
X100705138Y-71470000D01*
X100713430Y-71511690D01*
X100713430Y-71511692D01*
X100788807Y-71693671D01*
X100788814Y-71693684D01*
X100898248Y-71857462D01*
X100898251Y-71857466D01*
X101037533Y-71996748D01*
X101037537Y-71996751D01*
X101201315Y-72106185D01*
X101201328Y-72106192D01*
X101383306Y-72181569D01*
X101383318Y-72181572D01*
X101576504Y-72219999D01*
X101576508Y-72220000D01*
X101825000Y-72220000D01*
X101825000Y-71520000D01*
X102325000Y-71520000D01*
X102325000Y-72220000D01*
X102573492Y-72220000D01*
X102573495Y-72219999D01*
X102766681Y-72181572D01*
X102766693Y-72181569D01*
X102948671Y-72106192D01*
X102948684Y-72106185D01*
X103006609Y-72067481D01*
X103073286Y-72046603D01*
X103140666Y-72065087D01*
X103187357Y-72117066D01*
X103199500Y-72170583D01*
X103199500Y-99996753D01*
X103199330Y-100003243D01*
X103182312Y-100327952D01*
X103180955Y-100340860D01*
X103130600Y-100658788D01*
X103127902Y-100671484D01*
X103044585Y-100982427D01*
X103040574Y-100994770D01*
X102925219Y-101295282D01*
X102919940Y-101307140D01*
X102773796Y-101593964D01*
X102767306Y-101605204D01*
X102591991Y-101875165D01*
X102584362Y-101885666D01*
X102381778Y-102135836D01*
X102373093Y-102145481D01*
X102145481Y-102373093D01*
X102135836Y-102381778D01*
X101885666Y-102584362D01*
X101875165Y-102591991D01*
X101605204Y-102767306D01*
X101593964Y-102773796D01*
X101307140Y-102919940D01*
X101295282Y-102925219D01*
X100994770Y-103040574D01*
X100982427Y-103044585D01*
X100671484Y-103127902D01*
X100658788Y-103130600D01*
X100340860Y-103180955D01*
X100327952Y-103182312D01*
X100003244Y-103199330D01*
X99996754Y-103199500D01*
X50003246Y-103199500D01*
X49996756Y-103199330D01*
X49672047Y-103182312D01*
X49659139Y-103180955D01*
X49341211Y-103130600D01*
X49328515Y-103127902D01*
X49017572Y-103044585D01*
X49005229Y-103040574D01*
X48704717Y-102925219D01*
X48692859Y-102919940D01*
X48495501Y-102819381D01*
X48406029Y-102773792D01*
X48394802Y-102767310D01*
X48124834Y-102591991D01*
X48114333Y-102584362D01*
X47864163Y-102381778D01*
X47854518Y-102373093D01*
X47626906Y-102145481D01*
X47618221Y-102135836D01*
X47415637Y-101885666D01*
X47408008Y-101875165D01*
X47232686Y-101605192D01*
X47226210Y-101593976D01*
X47080058Y-101307138D01*
X47074780Y-101295282D01*
X47046932Y-101222736D01*
X46959424Y-100994769D01*
X46955414Y-100982427D01*
X46872097Y-100671484D01*
X46869399Y-100658788D01*
X46819044Y-100340860D01*
X46817687Y-100327952D01*
X46806856Y-100121288D01*
X48149500Y-100121288D01*
X48181161Y-100361785D01*
X48243947Y-100596104D01*
X48269912Y-100658788D01*
X48336776Y-100820212D01*
X48458064Y-101030289D01*
X48458066Y-101030292D01*
X48458067Y-101030293D01*
X48605733Y-101222736D01*
X48605739Y-101222743D01*
X48777256Y-101394260D01*
X48777262Y-101394265D01*
X48969711Y-101541936D01*
X49179788Y-101663224D01*
X49403900Y-101756054D01*
X49638211Y-101818838D01*
X49818586Y-101842584D01*
X49878711Y-101850500D01*
X49878712Y-101850500D01*
X50121289Y-101850500D01*
X50169388Y-101844167D01*
X50361789Y-101818838D01*
X50596100Y-101756054D01*
X50820212Y-101663224D01*
X51030289Y-101541936D01*
X51222738Y-101394265D01*
X51394265Y-101222738D01*
X51541936Y-101030289D01*
X51663224Y-100820212D01*
X51756054Y-100596100D01*
X51818838Y-100361789D01*
X51850500Y-100121288D01*
X98149500Y-100121288D01*
X98181161Y-100361785D01*
X98243947Y-100596104D01*
X98269912Y-100658788D01*
X98336776Y-100820212D01*
X98458064Y-101030289D01*
X98458066Y-101030292D01*
X98458067Y-101030293D01*
X98605733Y-101222736D01*
X98605739Y-101222743D01*
X98777256Y-101394260D01*
X98777262Y-101394265D01*
X98969711Y-101541936D01*
X99179788Y-101663224D01*
X99403900Y-101756054D01*
X99638211Y-101818838D01*
X99818586Y-101842584D01*
X99878711Y-101850500D01*
X99878712Y-101850500D01*
X100121289Y-101850500D01*
X100169388Y-101844167D01*
X100361789Y-101818838D01*
X100596100Y-101756054D01*
X100820212Y-101663224D01*
X101030289Y-101541936D01*
X101222738Y-101394265D01*
X101394265Y-101222738D01*
X101541936Y-101030289D01*
X101663224Y-100820212D01*
X101756054Y-100596100D01*
X101818838Y-100361789D01*
X101850500Y-100121288D01*
X101850500Y-99878712D01*
X101818838Y-99638211D01*
X101756054Y-99403900D01*
X101663224Y-99179788D01*
X101541936Y-98969711D01*
X101394265Y-98777262D01*
X101394260Y-98777256D01*
X101222743Y-98605739D01*
X101222736Y-98605733D01*
X101030293Y-98458067D01*
X101030292Y-98458066D01*
X101030289Y-98458064D01*
X100820212Y-98336776D01*
X100820205Y-98336773D01*
X100596104Y-98243947D01*
X100361785Y-98181161D01*
X100121289Y-98149500D01*
X100121288Y-98149500D01*
X99878712Y-98149500D01*
X99878711Y-98149500D01*
X99638214Y-98181161D01*
X99403895Y-98243947D01*
X99179794Y-98336773D01*
X99179785Y-98336777D01*
X98969706Y-98458067D01*
X98777263Y-98605733D01*
X98777256Y-98605739D01*
X98605739Y-98777256D01*
X98605733Y-98777263D01*
X98458067Y-98969706D01*
X98336777Y-99179785D01*
X98336773Y-99179794D01*
X98243947Y-99403895D01*
X98181161Y-99638214D01*
X98149500Y-99878711D01*
X98149500Y-100121288D01*
X51850500Y-100121288D01*
X51850500Y-99878712D01*
X51818838Y-99638211D01*
X51756054Y-99403900D01*
X51663224Y-99179788D01*
X51541936Y-98969711D01*
X51394265Y-98777262D01*
X51394260Y-98777256D01*
X51222743Y-98605739D01*
X51222736Y-98605733D01*
X51030293Y-98458067D01*
X51030292Y-98458066D01*
X51030289Y-98458064D01*
X50820212Y-98336776D01*
X50820205Y-98336773D01*
X50596104Y-98243947D01*
X50361785Y-98181161D01*
X50121289Y-98149500D01*
X50121288Y-98149500D01*
X49878712Y-98149500D01*
X49878711Y-98149500D01*
X49638214Y-98181161D01*
X49403895Y-98243947D01*
X49179794Y-98336773D01*
X49179785Y-98336777D01*
X48969706Y-98458067D01*
X48777263Y-98605733D01*
X48777256Y-98605739D01*
X48605739Y-98777256D01*
X48605733Y-98777263D01*
X48458067Y-98969706D01*
X48336777Y-99179785D01*
X48336773Y-99179794D01*
X48243947Y-99403895D01*
X48181161Y-99638214D01*
X48149500Y-99878711D01*
X48149500Y-100121288D01*
X46806856Y-100121288D01*
X46800670Y-100003243D01*
X46800500Y-99996753D01*
X46800500Y-95460000D01*
X58344571Y-95460000D01*
X58364244Y-95672310D01*
X58417675Y-95860099D01*
X58422596Y-95877392D01*
X58422596Y-95877394D01*
X58517632Y-96068253D01*
X58633264Y-96221373D01*
X58646128Y-96238407D01*
X58803698Y-96382052D01*
X58984981Y-96494298D01*
X59183802Y-96571321D01*
X59356541Y-96603611D01*
X59418821Y-96635279D01*
X59454094Y-96695592D01*
X59451160Y-96765400D01*
X59410951Y-96822540D01*
X59346233Y-96848871D01*
X59333755Y-96849500D01*
X58856898Y-96849500D01*
X58817853Y-96854188D01*
X58768438Y-96860122D01*
X58627656Y-96915639D01*
X58507077Y-97007077D01*
X58415639Y-97127656D01*
X58360122Y-97268438D01*
X58354188Y-97317853D01*
X58349500Y-97356898D01*
X58349500Y-98643102D01*
X58355126Y-98689954D01*
X58360122Y-98731561D01*
X58415639Y-98872343D01*
X58507077Y-98992922D01*
X58627656Y-99084360D01*
X58627657Y-99084360D01*
X58627658Y-99084361D01*
X58768436Y-99139877D01*
X58856898Y-99150500D01*
X58856903Y-99150500D01*
X60143097Y-99150500D01*
X60143102Y-99150500D01*
X60231564Y-99139877D01*
X60372342Y-99084361D01*
X60492922Y-98992922D01*
X60584361Y-98872342D01*
X60639877Y-98731564D01*
X60650500Y-98643102D01*
X60650500Y-98156053D01*
X60670185Y-98089014D01*
X60722989Y-98043259D01*
X60792147Y-98033315D01*
X60855703Y-98062340D01*
X60893477Y-98121118D01*
X60897971Y-98144612D01*
X60904244Y-98212310D01*
X60962596Y-98417392D01*
X60962596Y-98417394D01*
X61057632Y-98608253D01*
X61057634Y-98608255D01*
X61186128Y-98778407D01*
X61343698Y-98922052D01*
X61524981Y-99034298D01*
X61723802Y-99111321D01*
X61933390Y-99150500D01*
X61933392Y-99150500D01*
X62146608Y-99150500D01*
X62146610Y-99150500D01*
X62356198Y-99111321D01*
X62555019Y-99034298D01*
X62736302Y-98922052D01*
X62893872Y-98778407D01*
X63022366Y-98608255D01*
X63097150Y-98458067D01*
X63117403Y-98417394D01*
X63117403Y-98417393D01*
X63117405Y-98417389D01*
X63175756Y-98212310D01*
X63186529Y-98096047D01*
X63212315Y-98031111D01*
X63256869Y-97999194D01*
X63220497Y-97978331D01*
X63188307Y-97916318D01*
X63186529Y-97903951D01*
X63182029Y-97855387D01*
X63175756Y-97787690D01*
X63117405Y-97582611D01*
X63117403Y-97582606D01*
X63117403Y-97582605D01*
X63022367Y-97391746D01*
X62893872Y-97221593D01*
X62736302Y-97077948D01*
X62555019Y-96965702D01*
X62555017Y-96965701D01*
X62425790Y-96915639D01*
X62356198Y-96888679D01*
X62159385Y-96851888D01*
X62097106Y-96820221D01*
X62061833Y-96759908D01*
X62064767Y-96690100D01*
X62104976Y-96632960D01*
X62159384Y-96608111D01*
X62356198Y-96571321D01*
X62555019Y-96494298D01*
X62736302Y-96382052D01*
X62893872Y-96238407D01*
X63022366Y-96068255D01*
X63089325Y-95933781D01*
X63136825Y-95882548D01*
X63204488Y-95865126D01*
X63270828Y-95887051D01*
X63312705Y-95936651D01*
X63406400Y-96137579D01*
X63406402Y-96137583D01*
X63465072Y-96221373D01*
X63465073Y-96221373D01*
X64097037Y-95589409D01*
X64114075Y-95652993D01*
X64179901Y-95767007D01*
X64272993Y-95860099D01*
X64387007Y-95925925D01*
X64450590Y-95942962D01*
X63818625Y-96574925D01*
X63902421Y-96633599D01*
X64101573Y-96726466D01*
X64154012Y-96772638D01*
X64173164Y-96839832D01*
X64152948Y-96906713D01*
X64099783Y-96952048D01*
X64093968Y-96954472D01*
X64086771Y-96957260D01*
X64064982Y-96965701D01*
X64064980Y-96965702D01*
X63883699Y-97077947D01*
X63726127Y-97221593D01*
X63597632Y-97391746D01*
X63502596Y-97582605D01*
X63502596Y-97582607D01*
X63444244Y-97787689D01*
X63433471Y-97903951D01*
X63407685Y-97968888D01*
X63363130Y-98000804D01*
X63399503Y-98021668D01*
X63431693Y-98083681D01*
X63433471Y-98096048D01*
X63444244Y-98212310D01*
X63502596Y-98417392D01*
X63502596Y-98417394D01*
X63597632Y-98608253D01*
X63597634Y-98608255D01*
X63726128Y-98778407D01*
X63883698Y-98922052D01*
X64064981Y-99034298D01*
X64263802Y-99111321D01*
X64473390Y-99150500D01*
X64473392Y-99150500D01*
X64686608Y-99150500D01*
X64686610Y-99150500D01*
X64896198Y-99111321D01*
X65095019Y-99034298D01*
X65276302Y-98922052D01*
X65433872Y-98778407D01*
X65562366Y-98608255D01*
X65637150Y-98458067D01*
X65657403Y-98417394D01*
X65657403Y-98417393D01*
X65657405Y-98417389D01*
X65715756Y-98212310D01*
X65735429Y-98000000D01*
X65715756Y-97787690D01*
X65657405Y-97582611D01*
X65657403Y-97582606D01*
X65657403Y-97582605D01*
X65562367Y-97391746D01*
X65433872Y-97221593D01*
X65276302Y-97077948D01*
X65095019Y-96965702D01*
X65095014Y-96965700D01*
X65088129Y-96963032D01*
X65066037Y-96954474D01*
X65010636Y-96911903D01*
X64987045Y-96846136D01*
X65002756Y-96778056D01*
X65052779Y-96729276D01*
X65058427Y-96726466D01*
X65257574Y-96633602D01*
X65257582Y-96633598D01*
X65341373Y-96574926D01*
X65341373Y-96574925D01*
X64709409Y-95942962D01*
X64772993Y-95925925D01*
X64887007Y-95860099D01*
X64980099Y-95767007D01*
X65045925Y-95652993D01*
X65062962Y-95589410D01*
X65694925Y-96221373D01*
X65694926Y-96221373D01*
X65753598Y-96137582D01*
X65753600Y-96137578D01*
X65853429Y-95923492D01*
X65853433Y-95923483D01*
X65914567Y-95695326D01*
X65914569Y-95695315D01*
X65935157Y-95460001D01*
X65935157Y-95459998D01*
X65914569Y-95224684D01*
X65914567Y-95224673D01*
X65853433Y-94996516D01*
X65853429Y-94996507D01*
X65753600Y-94782423D01*
X65753599Y-94782421D01*
X65694925Y-94698626D01*
X65694925Y-94698625D01*
X65062962Y-95330589D01*
X65045925Y-95267007D01*
X64980099Y-95152993D01*
X64887007Y-95059901D01*
X64772993Y-94994075D01*
X64709410Y-94977037D01*
X65341373Y-94345073D01*
X65341373Y-94345072D01*
X65257583Y-94286402D01*
X65257579Y-94286400D01*
X65043492Y-94186570D01*
X65043483Y-94186566D01*
X64815326Y-94125432D01*
X64815315Y-94125430D01*
X64580002Y-94104843D01*
X64579998Y-94104843D01*
X64344684Y-94125430D01*
X64344673Y-94125432D01*
X64116516Y-94186566D01*
X64116507Y-94186570D01*
X63902419Y-94286401D01*
X63818625Y-94345072D01*
X64450590Y-94977037D01*
X64387007Y-94994075D01*
X64272993Y-95059901D01*
X64179901Y-95152993D01*
X64114075Y-95267007D01*
X64097037Y-95330590D01*
X63465072Y-94698625D01*
X63406402Y-94782417D01*
X63312705Y-94983349D01*
X63266532Y-95035788D01*
X63199338Y-95054939D01*
X63132457Y-95034723D01*
X63089324Y-94986216D01*
X63022366Y-94851745D01*
X62970014Y-94782421D01*
X62893872Y-94681593D01*
X62736302Y-94537948D01*
X62555019Y-94425702D01*
X62555017Y-94425701D01*
X62455608Y-94387190D01*
X62356198Y-94348679D01*
X62146610Y-94309500D01*
X61933390Y-94309500D01*
X61723802Y-94348679D01*
X61723799Y-94348679D01*
X61723799Y-94348680D01*
X61524982Y-94425701D01*
X61524980Y-94425702D01*
X61343699Y-94537947D01*
X61186127Y-94681593D01*
X61057632Y-94851746D01*
X60962596Y-95042605D01*
X60962596Y-95042607D01*
X60904244Y-95247689D01*
X60893471Y-95363951D01*
X60867685Y-95428888D01*
X60823130Y-95460804D01*
X60859503Y-95481668D01*
X60891693Y-95543681D01*
X60893470Y-95556047D01*
X60904244Y-95672310D01*
X60957675Y-95860099D01*
X60962596Y-95877392D01*
X60962596Y-95877394D01*
X61057632Y-96068253D01*
X61173264Y-96221373D01*
X61186128Y-96238407D01*
X61343698Y-96382052D01*
X61524981Y-96494298D01*
X61723802Y-96571321D01*
X61920613Y-96608111D01*
X61982893Y-96639779D01*
X62018166Y-96700092D01*
X62015232Y-96769900D01*
X61975023Y-96827040D01*
X61920613Y-96851888D01*
X61723802Y-96888679D01*
X61723799Y-96888679D01*
X61723799Y-96888680D01*
X61524982Y-96965701D01*
X61524980Y-96965702D01*
X61343699Y-97077947D01*
X61186127Y-97221593D01*
X61057632Y-97391746D01*
X60962596Y-97582605D01*
X60962596Y-97582607D01*
X60904244Y-97787689D01*
X60897971Y-97855387D01*
X60872185Y-97920324D01*
X60815384Y-97961012D01*
X60745604Y-97964532D01*
X60684997Y-97929767D01*
X60652807Y-97867754D01*
X60650500Y-97843946D01*
X60650500Y-97356903D01*
X60650500Y-97356898D01*
X60639877Y-97268436D01*
X60584361Y-97127658D01*
X60584360Y-97127657D01*
X60584360Y-97127656D01*
X60492922Y-97007077D01*
X60372343Y-96915639D01*
X60231561Y-96860122D01*
X60185926Y-96854642D01*
X60143102Y-96849500D01*
X59666245Y-96849500D01*
X59599206Y-96829815D01*
X59553451Y-96777011D01*
X59543507Y-96707853D01*
X59572532Y-96644297D01*
X59631310Y-96606523D01*
X59643450Y-96603613D01*
X59816198Y-96571321D01*
X60015019Y-96494298D01*
X60196302Y-96382052D01*
X60353872Y-96238407D01*
X60482366Y-96068255D01*
X60536270Y-95960000D01*
X60577403Y-95877394D01*
X60577403Y-95877393D01*
X60577405Y-95877389D01*
X60635756Y-95672310D01*
X60646529Y-95556047D01*
X60672315Y-95491111D01*
X60716869Y-95459194D01*
X60680497Y-95438331D01*
X60648307Y-95376318D01*
X60646529Y-95363951D01*
X60645849Y-95356613D01*
X60635756Y-95247690D01*
X60577405Y-95042611D01*
X60577403Y-95042606D01*
X60577403Y-95042605D01*
X60482367Y-94851746D01*
X60353872Y-94681593D01*
X60196302Y-94537948D01*
X60015019Y-94425702D01*
X60015017Y-94425701D01*
X59915608Y-94387190D01*
X59816198Y-94348679D01*
X59606610Y-94309500D01*
X59393390Y-94309500D01*
X59183802Y-94348679D01*
X59183799Y-94348679D01*
X59183799Y-94348680D01*
X58984982Y-94425701D01*
X58984980Y-94425702D01*
X58803699Y-94537947D01*
X58646127Y-94681593D01*
X58517632Y-94851746D01*
X58422596Y-95042605D01*
X58422596Y-95042607D01*
X58364244Y-95247689D01*
X58350671Y-95394174D01*
X58344571Y-95460000D01*
X46800500Y-95460000D01*
X46800500Y-91500000D01*
X61144815Y-91500000D01*
X61163503Y-91677805D01*
X61163504Y-91677807D01*
X61218747Y-91847829D01*
X61218750Y-91847835D01*
X61308141Y-92002665D01*
X61349812Y-92048946D01*
X61427764Y-92135521D01*
X61427767Y-92135523D01*
X61427770Y-92135526D01*
X61572407Y-92240612D01*
X61735733Y-92313329D01*
X61910609Y-92350500D01*
X61910610Y-92350500D01*
X62089389Y-92350500D01*
X62089391Y-92350500D01*
X62264267Y-92313329D01*
X62427593Y-92240612D01*
X62572230Y-92135526D01*
X62572235Y-92135521D01*
X62611847Y-92091528D01*
X62671334Y-92054879D01*
X62703997Y-92050500D01*
X66296003Y-92050500D01*
X66363042Y-92070185D01*
X66388153Y-92091528D01*
X66427764Y-92135521D01*
X66427767Y-92135523D01*
X66427770Y-92135526D01*
X66572407Y-92240612D01*
X66735733Y-92313329D01*
X66910609Y-92350500D01*
X66910610Y-92350500D01*
X67089389Y-92350500D01*
X67089391Y-92350500D01*
X67264267Y-92313329D01*
X67427593Y-92240612D01*
X67572230Y-92135526D01*
X67691859Y-92002665D01*
X67781250Y-91847835D01*
X67836497Y-91677803D01*
X67855185Y-91500000D01*
X67836497Y-91322197D01*
X67796288Y-91198447D01*
X67781252Y-91152170D01*
X67781249Y-91152164D01*
X67691859Y-90997335D01*
X67631064Y-90929815D01*
X67572235Y-90864478D01*
X67572232Y-90864476D01*
X67572231Y-90864475D01*
X67572230Y-90864474D01*
X67427593Y-90759388D01*
X67264267Y-90686671D01*
X67264265Y-90686670D01*
X67136594Y-90659533D01*
X67089391Y-90649500D01*
X66910609Y-90649500D01*
X66879954Y-90656015D01*
X66735733Y-90686670D01*
X66735728Y-90686672D01*
X66572408Y-90759387D01*
X66427768Y-90864475D01*
X66388154Y-90908472D01*
X66328667Y-90945121D01*
X66296004Y-90949500D01*
X62703997Y-90949500D01*
X62636958Y-90929815D01*
X62611847Y-90908472D01*
X62572235Y-90864478D01*
X62572232Y-90864476D01*
X62572231Y-90864475D01*
X62572230Y-90864474D01*
X62427593Y-90759388D01*
X62264267Y-90686671D01*
X62264265Y-90686670D01*
X62136594Y-90659533D01*
X62089391Y-90649500D01*
X61910609Y-90649500D01*
X61879954Y-90656015D01*
X61735733Y-90686670D01*
X61735728Y-90686672D01*
X61572408Y-90759387D01*
X61427768Y-90864475D01*
X61308140Y-90997336D01*
X61218750Y-91152164D01*
X61218747Y-91152170D01*
X61163504Y-91322192D01*
X61163503Y-91322194D01*
X61144815Y-91500000D01*
X46800500Y-91500000D01*
X46800500Y-89839474D01*
X83707000Y-89839474D01*
X83707001Y-89839491D01*
X83740799Y-90096217D01*
X83740800Y-90096222D01*
X83740801Y-90096228D01*
X83740802Y-90096230D01*
X83807824Y-90346364D01*
X83906923Y-90585609D01*
X83906927Y-90585619D01*
X84036406Y-90809883D01*
X84194051Y-91015331D01*
X84194057Y-91015338D01*
X84377161Y-91198442D01*
X84377168Y-91198448D01*
X84582616Y-91356093D01*
X84806880Y-91485572D01*
X84806881Y-91485572D01*
X84806884Y-91485574D01*
X85046134Y-91584675D01*
X85296272Y-91651699D01*
X85553019Y-91685500D01*
X85553026Y-91685500D01*
X85811974Y-91685500D01*
X85811981Y-91685500D01*
X86068728Y-91651699D01*
X86318866Y-91584675D01*
X86558116Y-91485574D01*
X86782384Y-91356093D01*
X86987833Y-91198447D01*
X87170947Y-91015333D01*
X87328593Y-90809884D01*
X87458074Y-90585616D01*
X87557175Y-90346366D01*
X87624199Y-90096228D01*
X87658000Y-89839481D01*
X87658000Y-89580519D01*
X87624199Y-89323772D01*
X87557175Y-89073634D01*
X87458074Y-88834384D01*
X87357393Y-88660000D01*
X87328593Y-88610116D01*
X87170948Y-88404668D01*
X87170942Y-88404661D01*
X86987838Y-88221557D01*
X86987831Y-88221551D01*
X86782383Y-88063906D01*
X86558119Y-87934427D01*
X86558109Y-87934423D01*
X86318864Y-87835324D01*
X86193797Y-87801813D01*
X86068728Y-87768301D01*
X86068722Y-87768300D01*
X86068717Y-87768299D01*
X85811991Y-87734501D01*
X85811986Y-87734500D01*
X85811981Y-87734500D01*
X85553019Y-87734500D01*
X85553013Y-87734500D01*
X85553008Y-87734501D01*
X85296282Y-87768299D01*
X85296275Y-87768300D01*
X85296272Y-87768301D01*
X85260011Y-87778017D01*
X85046135Y-87835324D01*
X84806890Y-87934423D01*
X84806880Y-87934427D01*
X84582616Y-88063906D01*
X84377168Y-88221551D01*
X84377161Y-88221557D01*
X84194057Y-88404661D01*
X84194051Y-88404668D01*
X84036406Y-88610116D01*
X83906927Y-88834380D01*
X83906923Y-88834390D01*
X83807824Y-89073635D01*
X83740802Y-89323769D01*
X83740799Y-89323782D01*
X83707001Y-89580508D01*
X83707000Y-89580525D01*
X83707000Y-89839474D01*
X46800500Y-89839474D01*
X46800500Y-88660000D01*
X59607285Y-88660000D01*
X59626102Y-88863082D01*
X59681917Y-89059247D01*
X59681922Y-89059260D01*
X59772827Y-89241821D01*
X59895737Y-89404581D01*
X60046458Y-89541980D01*
X60046460Y-89541982D01*
X60108682Y-89580508D01*
X60219863Y-89649348D01*
X60410044Y-89723024D01*
X60610524Y-89760500D01*
X60610526Y-89760500D01*
X60814474Y-89760500D01*
X60814476Y-89760500D01*
X61014956Y-89723024D01*
X61205137Y-89649348D01*
X61378541Y-89541981D01*
X61529264Y-89404579D01*
X61652173Y-89241821D01*
X61743082Y-89059250D01*
X61798897Y-88863083D01*
X61817715Y-88660000D01*
X67227285Y-88660000D01*
X67246102Y-88863082D01*
X67301917Y-89059247D01*
X67301922Y-89059260D01*
X67392827Y-89241821D01*
X67515737Y-89404581D01*
X67666458Y-89541980D01*
X67666460Y-89541982D01*
X67728682Y-89580508D01*
X67839863Y-89649348D01*
X68030044Y-89723024D01*
X68230524Y-89760500D01*
X68230526Y-89760500D01*
X68434474Y-89760500D01*
X68434476Y-89760500D01*
X68634956Y-89723024D01*
X68825137Y-89649348D01*
X68998541Y-89541981D01*
X69149264Y-89404579D01*
X69272173Y-89241821D01*
X69363082Y-89059250D01*
X69418897Y-88863083D01*
X69437715Y-88660000D01*
X69418897Y-88456917D01*
X69363082Y-88260750D01*
X69343566Y-88221557D01*
X69318772Y-88171764D01*
X69272173Y-88078179D01*
X69149264Y-87915421D01*
X69149262Y-87915418D01*
X68998541Y-87778019D01*
X68998539Y-87778017D01*
X68825142Y-87670655D01*
X68825135Y-87670651D01*
X68730046Y-87633814D01*
X68634956Y-87596976D01*
X68434476Y-87559500D01*
X68230524Y-87559500D01*
X68030044Y-87596976D01*
X68030041Y-87596976D01*
X68030041Y-87596977D01*
X67839864Y-87670651D01*
X67839857Y-87670655D01*
X67666460Y-87778017D01*
X67666458Y-87778019D01*
X67515737Y-87915418D01*
X67392827Y-88078178D01*
X67301922Y-88260739D01*
X67301917Y-88260752D01*
X67246102Y-88456917D01*
X67227285Y-88659999D01*
X67227285Y-88660000D01*
X61817715Y-88660000D01*
X61798897Y-88456917D01*
X61743082Y-88260750D01*
X61723566Y-88221557D01*
X61698772Y-88171764D01*
X61652173Y-88078179D01*
X61529264Y-87915421D01*
X61529262Y-87915418D01*
X61378541Y-87778019D01*
X61378539Y-87778017D01*
X61205142Y-87670655D01*
X61205135Y-87670651D01*
X61110046Y-87633814D01*
X61014956Y-87596976D01*
X60814476Y-87559500D01*
X60610524Y-87559500D01*
X60410044Y-87596976D01*
X60410041Y-87596976D01*
X60410041Y-87596977D01*
X60219864Y-87670651D01*
X60219857Y-87670655D01*
X60046460Y-87778017D01*
X60046458Y-87778019D01*
X59895737Y-87915418D01*
X59772827Y-88078178D01*
X59681922Y-88260739D01*
X59681917Y-88260752D01*
X59626102Y-88456917D01*
X59607285Y-88659999D01*
X59607285Y-88660000D01*
X46800500Y-88660000D01*
X46800500Y-86120000D01*
X59607285Y-86120000D01*
X59626102Y-86323082D01*
X59681917Y-86519247D01*
X59681922Y-86519260D01*
X59772827Y-86701821D01*
X59895737Y-86864581D01*
X60046458Y-87001980D01*
X60046460Y-87001982D01*
X60145641Y-87063392D01*
X60219863Y-87109348D01*
X60410044Y-87183024D01*
X60610524Y-87220500D01*
X60610526Y-87220500D01*
X60814474Y-87220500D01*
X60814476Y-87220500D01*
X61014956Y-87183024D01*
X61205137Y-87109348D01*
X61378541Y-87001981D01*
X61529264Y-86864579D01*
X61652173Y-86701821D01*
X61743082Y-86519250D01*
X61798897Y-86323083D01*
X61817715Y-86120000D01*
X67227285Y-86120000D01*
X67246102Y-86323082D01*
X67301917Y-86519247D01*
X67301922Y-86519260D01*
X67392827Y-86701821D01*
X67515737Y-86864581D01*
X67666458Y-87001980D01*
X67666460Y-87001982D01*
X67765641Y-87063392D01*
X67839863Y-87109348D01*
X68030044Y-87183024D01*
X68230524Y-87220500D01*
X68230526Y-87220500D01*
X68434474Y-87220500D01*
X68434476Y-87220500D01*
X68634956Y-87183024D01*
X68825137Y-87109348D01*
X68998541Y-87001981D01*
X69149264Y-86864579D01*
X69272173Y-86701821D01*
X69363082Y-86519250D01*
X69418897Y-86323083D01*
X69437715Y-86120000D01*
X69418897Y-85916917D01*
X69363082Y-85720750D01*
X69272173Y-85538179D01*
X69149264Y-85375421D01*
X69149262Y-85375418D01*
X68998541Y-85238019D01*
X68998539Y-85238017D01*
X68825142Y-85130655D01*
X68825135Y-85130651D01*
X68730046Y-85093814D01*
X68634956Y-85056976D01*
X68434476Y-85019500D01*
X68230524Y-85019500D01*
X68030044Y-85056976D01*
X68030041Y-85056976D01*
X68030041Y-85056977D01*
X67839864Y-85130651D01*
X67839857Y-85130655D01*
X67666460Y-85238017D01*
X67666458Y-85238019D01*
X67515737Y-85375418D01*
X67392827Y-85538178D01*
X67301922Y-85720739D01*
X67301917Y-85720752D01*
X67246102Y-85916917D01*
X67227285Y-86119999D01*
X67227285Y-86120000D01*
X61817715Y-86120000D01*
X61798897Y-85916917D01*
X61743082Y-85720750D01*
X61652173Y-85538179D01*
X61529264Y-85375421D01*
X61529262Y-85375418D01*
X61378541Y-85238019D01*
X61378539Y-85238017D01*
X61205142Y-85130655D01*
X61205135Y-85130651D01*
X61110046Y-85093814D01*
X61014956Y-85056976D01*
X60814476Y-85019500D01*
X60610524Y-85019500D01*
X60410044Y-85056976D01*
X60410041Y-85056976D01*
X60410041Y-85056977D01*
X60219864Y-85130651D01*
X60219857Y-85130655D01*
X60046460Y-85238017D01*
X60046458Y-85238019D01*
X59895737Y-85375418D01*
X59772827Y-85538178D01*
X59681922Y-85720739D01*
X59681917Y-85720752D01*
X59626102Y-85916917D01*
X59607285Y-86119999D01*
X59607285Y-86120000D01*
X46800500Y-86120000D01*
X46800500Y-83580000D01*
X59607285Y-83580000D01*
X59626102Y-83783082D01*
X59681917Y-83979247D01*
X59681922Y-83979260D01*
X59772827Y-84161821D01*
X59895737Y-84324581D01*
X60046458Y-84461980D01*
X60046460Y-84461982D01*
X60145641Y-84523392D01*
X60219863Y-84569348D01*
X60410044Y-84643024D01*
X60610524Y-84680500D01*
X60610526Y-84680500D01*
X60814474Y-84680500D01*
X60814476Y-84680500D01*
X61014956Y-84643024D01*
X61205137Y-84569348D01*
X61378541Y-84461981D01*
X61529264Y-84324579D01*
X61652173Y-84161821D01*
X61743082Y-83979250D01*
X61798897Y-83783083D01*
X61817715Y-83580000D01*
X67227285Y-83580000D01*
X67246102Y-83783082D01*
X67301917Y-83979247D01*
X67301922Y-83979260D01*
X67392827Y-84161821D01*
X67515737Y-84324581D01*
X67666458Y-84461980D01*
X67666460Y-84461982D01*
X67765641Y-84523392D01*
X67839863Y-84569348D01*
X68030044Y-84643024D01*
X68230524Y-84680500D01*
X68230526Y-84680500D01*
X68434474Y-84680500D01*
X68434476Y-84680500D01*
X68634956Y-84643024D01*
X68825137Y-84569348D01*
X68998541Y-84461981D01*
X69149264Y-84324579D01*
X69272173Y-84161821D01*
X69363082Y-83979250D01*
X69418897Y-83783083D01*
X69437715Y-83580000D01*
X69418897Y-83376917D01*
X69363082Y-83180750D01*
X69272173Y-82998179D01*
X69149264Y-82835421D01*
X69149262Y-82835418D01*
X68998541Y-82698019D01*
X68998539Y-82698017D01*
X68825142Y-82590655D01*
X68825135Y-82590651D01*
X68730046Y-82553814D01*
X68634956Y-82516976D01*
X68434476Y-82479500D01*
X68230524Y-82479500D01*
X68030044Y-82516976D01*
X68030041Y-82516976D01*
X68030041Y-82516977D01*
X67839864Y-82590651D01*
X67839857Y-82590655D01*
X67666460Y-82698017D01*
X67666458Y-82698019D01*
X67515737Y-82835418D01*
X67392827Y-82998178D01*
X67301922Y-83180739D01*
X67301917Y-83180752D01*
X67246102Y-83376917D01*
X67227285Y-83579999D01*
X67227285Y-83580000D01*
X61817715Y-83580000D01*
X61798897Y-83376917D01*
X61743082Y-83180750D01*
X61652173Y-82998179D01*
X61529264Y-82835421D01*
X61529262Y-82835418D01*
X61378541Y-82698019D01*
X61378539Y-82698017D01*
X61205142Y-82590655D01*
X61205135Y-82590651D01*
X61110046Y-82553814D01*
X61014956Y-82516976D01*
X60814476Y-82479500D01*
X60610524Y-82479500D01*
X60410044Y-82516976D01*
X60410041Y-82516976D01*
X60410041Y-82516977D01*
X60219864Y-82590651D01*
X60219857Y-82590655D01*
X60046460Y-82698017D01*
X60046458Y-82698019D01*
X59895737Y-82835418D01*
X59772827Y-82998178D01*
X59681922Y-83180739D01*
X59681917Y-83180752D01*
X59626102Y-83376917D01*
X59607285Y-83579999D01*
X59607285Y-83580000D01*
X46800500Y-83580000D01*
X46800500Y-81040000D01*
X59607285Y-81040000D01*
X59626102Y-81243082D01*
X59681917Y-81439247D01*
X59681922Y-81439260D01*
X59772827Y-81621821D01*
X59895737Y-81784581D01*
X60046458Y-81921980D01*
X60046460Y-81921982D01*
X60123554Y-81969716D01*
X60219863Y-82029348D01*
X60410044Y-82103024D01*
X60610524Y-82140500D01*
X60610526Y-82140500D01*
X60814474Y-82140500D01*
X60814476Y-82140500D01*
X61014956Y-82103024D01*
X61205137Y-82029348D01*
X61378541Y-81921981D01*
X61529264Y-81784579D01*
X61652173Y-81621821D01*
X61743082Y-81439250D01*
X61798897Y-81243083D01*
X61817715Y-81040000D01*
X67227285Y-81040000D01*
X67246102Y-81243082D01*
X67301917Y-81439247D01*
X67301922Y-81439260D01*
X67392827Y-81621821D01*
X67515737Y-81784581D01*
X67666458Y-81921980D01*
X67666460Y-81921982D01*
X67743554Y-81969716D01*
X67839863Y-82029348D01*
X68030044Y-82103024D01*
X68230524Y-82140500D01*
X68230526Y-82140500D01*
X68434474Y-82140500D01*
X68434476Y-82140500D01*
X68634956Y-82103024D01*
X68825137Y-82029348D01*
X68998541Y-81921981D01*
X69149264Y-81784579D01*
X69272173Y-81621821D01*
X69363082Y-81439250D01*
X69418897Y-81243083D01*
X69437715Y-81040000D01*
X69434008Y-81000000D01*
X75144815Y-81000000D01*
X75163503Y-81177805D01*
X75163504Y-81177807D01*
X75218747Y-81347829D01*
X75218750Y-81347835D01*
X75308141Y-81502665D01*
X75427770Y-81635526D01*
X75498388Y-81686833D01*
X75541051Y-81742159D01*
X75549500Y-81787148D01*
X75549500Y-82179308D01*
X75573712Y-82269672D01*
X75580200Y-82293885D01*
X75580200Y-82293886D01*
X75580201Y-82293887D01*
X75639511Y-82396614D01*
X75639513Y-82396616D01*
X77123734Y-83880837D01*
X77157219Y-83942160D01*
X77159374Y-83981479D01*
X77144815Y-84119999D01*
X77163503Y-84297805D01*
X77163504Y-84297807D01*
X77218747Y-84467829D01*
X77218750Y-84467835D01*
X77308141Y-84622665D01*
X77349812Y-84668946D01*
X77427764Y-84755521D01*
X77427767Y-84755523D01*
X77427770Y-84755526D01*
X77572407Y-84860612D01*
X77735733Y-84933329D01*
X77910609Y-84970500D01*
X77910610Y-84970500D01*
X78089389Y-84970500D01*
X78089391Y-84970500D01*
X78264267Y-84933329D01*
X78427593Y-84860612D01*
X78572230Y-84755526D01*
X78691859Y-84622665D01*
X78781250Y-84467835D01*
X78836497Y-84297803D01*
X78855185Y-84120000D01*
X78836497Y-83942197D01*
X78808873Y-83857181D01*
X78781252Y-83772170D01*
X78781249Y-83772164D01*
X78691859Y-83617335D01*
X78645003Y-83565296D01*
X78572235Y-83484478D01*
X78572232Y-83484476D01*
X78572231Y-83484475D01*
X78572230Y-83484474D01*
X78427593Y-83379388D01*
X78264267Y-83306671D01*
X78264265Y-83306670D01*
X78125800Y-83277239D01*
X78089391Y-83269500D01*
X77910609Y-83269500D01*
X77910605Y-83269500D01*
X77874190Y-83277239D01*
X77804523Y-83271921D01*
X77760732Y-83243629D01*
X76486819Y-81969716D01*
X76453334Y-81908393D01*
X76450500Y-81882035D01*
X76450500Y-81787148D01*
X76470185Y-81720109D01*
X76501609Y-81686834D01*
X76572230Y-81635526D01*
X76691859Y-81502665D01*
X76781250Y-81347835D01*
X76836497Y-81177803D01*
X76855185Y-81000000D01*
X76836497Y-80822197D01*
X76781250Y-80652165D01*
X76691859Y-80497335D01*
X76645003Y-80445296D01*
X76572235Y-80364478D01*
X76572232Y-80364476D01*
X76572231Y-80364475D01*
X76572230Y-80364474D01*
X76427593Y-80259388D01*
X76264267Y-80186671D01*
X76264265Y-80186670D01*
X76112415Y-80154394D01*
X76089391Y-80149500D01*
X75910609Y-80149500D01*
X75887585Y-80154394D01*
X75735733Y-80186670D01*
X75735728Y-80186672D01*
X75572408Y-80259387D01*
X75427768Y-80364475D01*
X75308140Y-80497336D01*
X75218750Y-80652164D01*
X75218747Y-80652170D01*
X75163504Y-80822192D01*
X75163503Y-80822194D01*
X75144815Y-81000000D01*
X69434008Y-81000000D01*
X69428039Y-80935582D01*
X69418897Y-80836917D01*
X69396352Y-80757682D01*
X69363082Y-80640750D01*
X69272173Y-80458179D01*
X69149264Y-80295421D01*
X69149262Y-80295418D01*
X68998541Y-80158019D01*
X68998539Y-80158017D01*
X68825142Y-80050655D01*
X68825135Y-80050651D01*
X68694393Y-80000002D01*
X97195034Y-80000002D01*
X97214858Y-80226599D01*
X97214860Y-80226610D01*
X97273730Y-80446317D01*
X97273735Y-80446331D01*
X97369863Y-80652478D01*
X97420974Y-80725472D01*
X98100000Y-80046446D01*
X98100000Y-80052661D01*
X98127259Y-80154394D01*
X98179920Y-80245606D01*
X98254394Y-80320080D01*
X98345606Y-80372741D01*
X98447339Y-80400000D01*
X98453551Y-80400000D01*
X97774526Y-81079025D01*
X97847513Y-81130132D01*
X97847521Y-81130136D01*
X98053668Y-81226264D01*
X98053682Y-81226269D01*
X98273389Y-81285139D01*
X98273400Y-81285141D01*
X98499998Y-81304966D01*
X98500002Y-81304966D01*
X98726599Y-81285141D01*
X98726610Y-81285139D01*
X98946317Y-81226269D01*
X98946326Y-81226265D01*
X99152482Y-81130134D01*
X99333500Y-81003383D01*
X99399706Y-80981056D01*
X99467474Y-80998066D01*
X99492304Y-81017276D01*
X99515028Y-81039999D01*
X99527235Y-81052206D01*
X99630009Y-81097585D01*
X99655135Y-81100500D01*
X101344864Y-81100499D01*
X101344879Y-81100497D01*
X101344882Y-81100497D01*
X101369987Y-81097586D01*
X101369988Y-81097585D01*
X101369991Y-81097585D01*
X101472765Y-81052206D01*
X101552206Y-80972765D01*
X101597585Y-80869991D01*
X101600500Y-80844865D01*
X101600499Y-79155136D01*
X101600497Y-79155117D01*
X101597586Y-79130012D01*
X101597585Y-79130010D01*
X101597585Y-79130009D01*
X101552206Y-79027235D01*
X101472765Y-78947794D01*
X101472763Y-78947793D01*
X101369992Y-78902415D01*
X101344865Y-78899500D01*
X99655143Y-78899500D01*
X99655117Y-78899502D01*
X99630012Y-78902413D01*
X99630008Y-78902415D01*
X99527235Y-78947793D01*
X99527233Y-78947794D01*
X99492304Y-78982724D01*
X99430981Y-79016209D01*
X99361289Y-79011223D01*
X99333500Y-78996617D01*
X99152482Y-78869865D01*
X98946326Y-78773734D01*
X98946317Y-78773730D01*
X98726610Y-78714860D01*
X98726599Y-78714858D01*
X98500002Y-78695034D01*
X98499998Y-78695034D01*
X98273400Y-78714858D01*
X98273389Y-78714860D01*
X98053682Y-78773730D01*
X98053673Y-78773734D01*
X97847516Y-78869866D01*
X97847512Y-78869868D01*
X97774526Y-78920973D01*
X97774526Y-78920974D01*
X98453553Y-79600000D01*
X98447339Y-79600000D01*
X98345606Y-79627259D01*
X98254394Y-79679920D01*
X98179920Y-79754394D01*
X98127259Y-79845606D01*
X98100000Y-79947339D01*
X98100000Y-79953552D01*
X97420974Y-79274526D01*
X97420973Y-79274526D01*
X97369868Y-79347512D01*
X97369866Y-79347516D01*
X97273734Y-79553673D01*
X97273730Y-79553682D01*
X97214860Y-79773389D01*
X97214858Y-79773400D01*
X97195034Y-79999997D01*
X97195034Y-80000002D01*
X68694393Y-80000002D01*
X68694388Y-80000000D01*
X68634956Y-79976976D01*
X68434476Y-79939500D01*
X68230524Y-79939500D01*
X68030044Y-79976976D01*
X68030041Y-79976976D01*
X68030041Y-79976977D01*
X67839864Y-80050651D01*
X67839857Y-80050655D01*
X67666460Y-80158017D01*
X67666458Y-80158019D01*
X67515737Y-80295418D01*
X67392827Y-80458178D01*
X67301922Y-80640739D01*
X67301917Y-80640752D01*
X67246102Y-80836917D01*
X67227285Y-81039999D01*
X67227285Y-81040000D01*
X61817715Y-81040000D01*
X61808039Y-80935582D01*
X61798897Y-80836917D01*
X61776352Y-80757682D01*
X61743082Y-80640750D01*
X61652173Y-80458179D01*
X61529264Y-80295421D01*
X61529262Y-80295418D01*
X61378541Y-80158019D01*
X61378539Y-80158017D01*
X61205142Y-80050655D01*
X61205135Y-80050651D01*
X61074388Y-80000000D01*
X61014956Y-79976976D01*
X60814476Y-79939500D01*
X60610524Y-79939500D01*
X60410044Y-79976976D01*
X60410041Y-79976976D01*
X60410041Y-79976977D01*
X60219864Y-80050651D01*
X60219857Y-80050655D01*
X60046460Y-80158017D01*
X60046458Y-80158019D01*
X59895737Y-80295418D01*
X59772827Y-80458178D01*
X59681922Y-80640739D01*
X59681917Y-80640752D01*
X59626102Y-80836917D01*
X59607285Y-81039999D01*
X59607285Y-81040000D01*
X46800500Y-81040000D01*
X46800500Y-79880000D01*
X55444417Y-79880000D01*
X55464699Y-80085932D01*
X55483982Y-80149500D01*
X55524768Y-80283954D01*
X55622315Y-80466450D01*
X55622317Y-80466452D01*
X55753589Y-80626410D01*
X55850209Y-80705702D01*
X55913550Y-80757685D01*
X56096046Y-80855232D01*
X56294066Y-80915300D01*
X56294065Y-80915300D01*
X56312529Y-80917118D01*
X56500000Y-80935583D01*
X56705934Y-80915300D01*
X56903954Y-80855232D01*
X57086450Y-80757685D01*
X57246410Y-80626410D01*
X57377685Y-80466450D01*
X57475232Y-80283954D01*
X57535300Y-80085934D01*
X57555583Y-79880000D01*
X57535300Y-79674066D01*
X57475232Y-79476046D01*
X57377685Y-79293550D01*
X57325702Y-79230209D01*
X57246410Y-79133589D01*
X57086452Y-79002317D01*
X57086453Y-79002317D01*
X57086450Y-79002315D01*
X56903954Y-78904768D01*
X56705934Y-78844700D01*
X56705932Y-78844699D01*
X56705934Y-78844699D01*
X56500000Y-78824417D01*
X56294067Y-78844699D01*
X56118692Y-78897898D01*
X56103810Y-78902413D01*
X56096043Y-78904769D01*
X55985898Y-78963643D01*
X55913550Y-79002315D01*
X55913548Y-79002316D01*
X55913547Y-79002317D01*
X55753589Y-79133589D01*
X55622317Y-79293547D01*
X55622315Y-79293550D01*
X55593469Y-79347516D01*
X55524769Y-79476043D01*
X55464699Y-79674067D01*
X55444417Y-79880000D01*
X46800500Y-79880000D01*
X46800500Y-78500000D01*
X59607285Y-78500000D01*
X59626102Y-78703082D01*
X59681917Y-78899247D01*
X59681922Y-78899260D01*
X59772827Y-79081821D01*
X59895737Y-79244581D01*
X60046458Y-79381980D01*
X60046460Y-79381982D01*
X60145641Y-79443392D01*
X60219863Y-79489348D01*
X60410044Y-79563024D01*
X60610524Y-79600500D01*
X60610526Y-79600500D01*
X60814474Y-79600500D01*
X60814476Y-79600500D01*
X61014956Y-79563024D01*
X61205137Y-79489348D01*
X61378541Y-79381981D01*
X61529264Y-79244579D01*
X61652173Y-79081821D01*
X61743082Y-78899250D01*
X61798897Y-78703083D01*
X61817715Y-78500000D01*
X67227285Y-78500000D01*
X67246102Y-78703082D01*
X67301917Y-78899247D01*
X67301922Y-78899260D01*
X67392827Y-79081821D01*
X67515737Y-79244581D01*
X67666458Y-79381980D01*
X67666460Y-79381982D01*
X67765641Y-79443392D01*
X67839863Y-79489348D01*
X68030044Y-79563024D01*
X68230524Y-79600500D01*
X68230526Y-79600500D01*
X68434474Y-79600500D01*
X68434476Y-79600500D01*
X68634956Y-79563024D01*
X68825137Y-79489348D01*
X68998541Y-79381981D01*
X69149264Y-79244579D01*
X69272173Y-79081821D01*
X69363082Y-78899250D01*
X69418897Y-78703083D01*
X69437715Y-78500000D01*
X69418897Y-78296917D01*
X69363082Y-78100750D01*
X69272173Y-77918179D01*
X69149264Y-77755421D01*
X69149262Y-77755418D01*
X68998541Y-77618019D01*
X68998539Y-77618017D01*
X68825142Y-77510655D01*
X68825135Y-77510651D01*
X68730046Y-77473814D01*
X68634956Y-77436976D01*
X68434476Y-77399500D01*
X68230524Y-77399500D01*
X68030044Y-77436976D01*
X68030041Y-77436976D01*
X68030041Y-77436977D01*
X67839864Y-77510651D01*
X67839857Y-77510655D01*
X67666460Y-77618017D01*
X67666458Y-77618019D01*
X67515737Y-77755418D01*
X67392827Y-77918178D01*
X67301922Y-78100739D01*
X67301917Y-78100752D01*
X67246102Y-78296917D01*
X67227285Y-78499999D01*
X67227285Y-78500000D01*
X61817715Y-78500000D01*
X61798897Y-78296917D01*
X61743082Y-78100750D01*
X61652173Y-77918179D01*
X61529264Y-77755421D01*
X61529262Y-77755418D01*
X61378541Y-77618019D01*
X61378539Y-77618017D01*
X61205142Y-77510655D01*
X61205135Y-77510651D01*
X61110046Y-77473814D01*
X61014956Y-77436976D01*
X60814476Y-77399500D01*
X60610524Y-77399500D01*
X60410044Y-77436976D01*
X60410041Y-77436976D01*
X60410041Y-77436977D01*
X60219864Y-77510651D01*
X60219857Y-77510655D01*
X60046460Y-77618017D01*
X60046458Y-77618019D01*
X59895737Y-77755418D01*
X59772827Y-77918178D01*
X59681922Y-78100739D01*
X59681917Y-78100752D01*
X59626102Y-78296917D01*
X59607285Y-78499999D01*
X59607285Y-78500000D01*
X46800500Y-78500000D01*
X46800500Y-75000000D01*
X55444417Y-75000000D01*
X55464699Y-75205932D01*
X55494734Y-75304944D01*
X55524768Y-75403954D01*
X55622315Y-75586450D01*
X55622317Y-75586452D01*
X55753589Y-75746410D01*
X55850209Y-75825702D01*
X55913550Y-75877685D01*
X56096046Y-75975232D01*
X56294066Y-76035300D01*
X56294065Y-76035300D01*
X56312529Y-76037118D01*
X56500000Y-76055583D01*
X56705934Y-76035300D01*
X56903954Y-75975232D01*
X57086450Y-75877685D01*
X57246410Y-75746410D01*
X57377685Y-75586450D01*
X57475232Y-75403954D01*
X57535300Y-75205934D01*
X57555583Y-75000000D01*
X57535300Y-74794066D01*
X57475232Y-74596046D01*
X57377685Y-74413550D01*
X57323754Y-74347835D01*
X57246410Y-74253589D01*
X57086452Y-74122317D01*
X57086453Y-74122317D01*
X57086450Y-74122315D01*
X56903954Y-74024768D01*
X56705934Y-73964700D01*
X56705932Y-73964699D01*
X56705934Y-73964699D01*
X56500000Y-73944417D01*
X56294067Y-73964699D01*
X56096043Y-74024769D01*
X56006780Y-74072482D01*
X55913550Y-74122315D01*
X55913548Y-74122316D01*
X55913547Y-74122317D01*
X55753589Y-74253589D01*
X55622317Y-74413547D01*
X55524769Y-74596043D01*
X55464699Y-74794067D01*
X55444417Y-75000000D01*
X46800500Y-75000000D01*
X46800500Y-73169999D01*
X59433627Y-73169999D01*
X59433628Y-73170000D01*
X60396814Y-73170000D01*
X60392420Y-73174394D01*
X60339759Y-73265606D01*
X60312500Y-73367339D01*
X60312500Y-73472661D01*
X60339759Y-73574394D01*
X60392420Y-73665606D01*
X60396814Y-73670000D01*
X59433628Y-73670000D01*
X59486230Y-73866317D01*
X59486234Y-73866326D01*
X59582365Y-74072482D01*
X59712842Y-74258820D01*
X59873679Y-74419657D01*
X60060017Y-74550134D01*
X60266173Y-74646265D01*
X60266182Y-74646269D01*
X60367069Y-74673301D01*
X60426729Y-74709665D01*
X60457259Y-74772512D01*
X60448965Y-74841888D01*
X60404480Y-74895766D01*
X60379771Y-74908702D01*
X60219870Y-74970648D01*
X60219857Y-74970655D01*
X60046460Y-75078017D01*
X60046458Y-75078019D01*
X59895737Y-75215418D01*
X59772827Y-75378178D01*
X59681922Y-75560739D01*
X59681917Y-75560752D01*
X59626102Y-75756917D01*
X59607285Y-75959999D01*
X59607285Y-75960000D01*
X59626102Y-76163082D01*
X59681917Y-76359247D01*
X59681922Y-76359260D01*
X59772827Y-76541821D01*
X59895737Y-76704581D01*
X60046458Y-76841980D01*
X60046460Y-76841982D01*
X60145641Y-76903392D01*
X60219863Y-76949348D01*
X60410044Y-77023024D01*
X60610524Y-77060500D01*
X60610526Y-77060500D01*
X60814474Y-77060500D01*
X60814476Y-77060500D01*
X61014956Y-77023024D01*
X61205137Y-76949348D01*
X61378541Y-76841981D01*
X61529264Y-76704579D01*
X61652173Y-76541821D01*
X61743082Y-76359250D01*
X61798897Y-76163083D01*
X61817715Y-75960000D01*
X67227285Y-75960000D01*
X67246102Y-76163082D01*
X67301917Y-76359247D01*
X67301922Y-76359260D01*
X67392827Y-76541821D01*
X67515737Y-76704581D01*
X67666458Y-76841980D01*
X67666460Y-76841982D01*
X67765641Y-76903392D01*
X67839863Y-76949348D01*
X68030044Y-77023024D01*
X68230524Y-77060500D01*
X68230526Y-77060500D01*
X68434474Y-77060500D01*
X68434476Y-77060500D01*
X68634956Y-77023024D01*
X68825137Y-76949348D01*
X68998541Y-76841981D01*
X69149264Y-76704579D01*
X69272173Y-76541821D01*
X69363082Y-76359250D01*
X69418897Y-76163083D01*
X69437715Y-75960000D01*
X69418897Y-75756917D01*
X69363082Y-75560750D01*
X69272173Y-75378179D01*
X69149264Y-75215421D01*
X69149262Y-75215418D01*
X68998541Y-75078019D01*
X68998539Y-75078017D01*
X68825142Y-74970655D01*
X68825135Y-74970651D01*
X68730046Y-74933814D01*
X68634956Y-74896976D01*
X68434476Y-74859500D01*
X68230524Y-74859500D01*
X68030044Y-74896976D01*
X68030041Y-74896976D01*
X68030041Y-74896977D01*
X67839864Y-74970651D01*
X67839857Y-74970655D01*
X67666460Y-75078017D01*
X67666458Y-75078019D01*
X67515737Y-75215418D01*
X67392827Y-75378178D01*
X67301922Y-75560739D01*
X67301917Y-75560752D01*
X67246102Y-75756917D01*
X67227285Y-75959999D01*
X67227285Y-75960000D01*
X61817715Y-75960000D01*
X61798897Y-75756917D01*
X61743082Y-75560750D01*
X61652173Y-75378179D01*
X61529264Y-75215421D01*
X61529262Y-75215418D01*
X61378541Y-75078019D01*
X61378539Y-75078017D01*
X61205142Y-74970655D01*
X61205141Y-74970654D01*
X61205137Y-74970652D01*
X61205132Y-74970650D01*
X61205126Y-74970647D01*
X61045229Y-74908702D01*
X60989827Y-74866129D01*
X60966237Y-74800363D01*
X60981948Y-74732282D01*
X61031972Y-74683503D01*
X61057931Y-74673301D01*
X61158815Y-74646270D01*
X61158826Y-74646265D01*
X61364982Y-74550134D01*
X61551320Y-74419657D01*
X61712157Y-74258820D01*
X61842634Y-74072482D01*
X61938765Y-73866326D01*
X61938769Y-73866317D01*
X61991372Y-73670000D01*
X61028186Y-73670000D01*
X61032580Y-73665606D01*
X61085241Y-73574394D01*
X61112500Y-73472661D01*
X61112500Y-73367339D01*
X61085241Y-73265606D01*
X61032580Y-73174394D01*
X61028186Y-73170000D01*
X61991372Y-73170000D01*
X61991372Y-73169999D01*
X61939122Y-72975000D01*
X62525001Y-72975000D01*
X62525001Y-73074154D01*
X62535319Y-73175152D01*
X62589546Y-73338800D01*
X62589551Y-73338811D01*
X62680052Y-73485534D01*
X62680055Y-73485538D01*
X62801961Y-73607444D01*
X62801965Y-73607447D01*
X62948688Y-73697948D01*
X62948699Y-73697953D01*
X63112347Y-73752180D01*
X63213352Y-73762499D01*
X63250000Y-73762499D01*
X63250000Y-72975000D01*
X62525001Y-72975000D01*
X61939122Y-72975000D01*
X61938769Y-72973682D01*
X61938765Y-72973673D01*
X61842634Y-72767517D01*
X61712157Y-72581179D01*
X61551320Y-72420342D01*
X61364982Y-72289865D01*
X61158826Y-72193734D01*
X61158817Y-72193730D01*
X61057930Y-72166698D01*
X60998269Y-72130333D01*
X60967740Y-72067486D01*
X60976035Y-71998110D01*
X61020520Y-71944233D01*
X61045227Y-71931296D01*
X61205137Y-71869348D01*
X61378541Y-71761981D01*
X61529264Y-71624579D01*
X61623513Y-71499772D01*
X61679622Y-71458137D01*
X61722467Y-71450500D01*
X62659134Y-71450500D01*
X62726173Y-71470185D01*
X62771928Y-71522989D01*
X62774489Y-71529010D01*
X62789138Y-71566159D01*
X62853531Y-71651073D01*
X62878354Y-71716384D01*
X62863926Y-71784748D01*
X62819827Y-71831534D01*
X62801967Y-71842550D01*
X62801961Y-71842555D01*
X62680055Y-71964461D01*
X62680052Y-71964465D01*
X62589551Y-72111188D01*
X62589546Y-72111199D01*
X62535319Y-72274847D01*
X62525000Y-72375845D01*
X62525000Y-72475000D01*
X64474999Y-72475000D01*
X64474999Y-72375860D01*
X64474998Y-72375845D01*
X64464680Y-72274847D01*
X64410453Y-72111199D01*
X64410448Y-72111188D01*
X64319947Y-71964465D01*
X64319944Y-71964461D01*
X64198037Y-71842554D01*
X64180174Y-71831536D01*
X64133450Y-71779587D01*
X64122229Y-71710624D01*
X64146469Y-71651073D01*
X64210862Y-71566158D01*
X64265117Y-71428577D01*
X64275500Y-71342118D01*
X64275500Y-71054386D01*
X64295185Y-70987347D01*
X64311819Y-70966705D01*
X64625266Y-70653258D01*
X64940510Y-70338014D01*
X65012984Y-70212485D01*
X65012985Y-70212479D01*
X65016096Y-70204973D01*
X65017300Y-70205471D01*
X65049306Y-70152945D01*
X65112148Y-70122407D01*
X65181525Y-70130692D01*
X65224879Y-70161715D01*
X65230472Y-70167927D01*
X65308600Y-70254696D01*
X65379218Y-70306003D01*
X65421881Y-70361329D01*
X65430330Y-70406318D01*
X65430330Y-72881203D01*
X65410645Y-72948242D01*
X65394011Y-72968885D01*
X65239264Y-73123631D01*
X65177941Y-73157115D01*
X65125805Y-73157239D01*
X65089391Y-73149500D01*
X64910609Y-73149500D01*
X64879954Y-73156015D01*
X64735733Y-73186670D01*
X64735732Y-73186670D01*
X64646079Y-73226587D01*
X64576829Y-73235871D01*
X64513552Y-73206242D01*
X64476340Y-73147107D01*
X64472286Y-73100700D01*
X64474999Y-73074144D01*
X64475000Y-73074141D01*
X64475000Y-72975000D01*
X63750000Y-72975000D01*
X63750000Y-73762499D01*
X63786640Y-73762499D01*
X63786654Y-73762498D01*
X63887652Y-73752180D01*
X63998670Y-73715393D01*
X64068498Y-73712991D01*
X64128540Y-73748723D01*
X64159733Y-73811243D01*
X64160995Y-73846061D01*
X64144815Y-73999999D01*
X64163503Y-74177805D01*
X64163504Y-74177807D01*
X64218747Y-74347829D01*
X64218750Y-74347835D01*
X64308141Y-74502665D01*
X64324200Y-74520500D01*
X64427764Y-74635521D01*
X64427767Y-74635523D01*
X64427770Y-74635526D01*
X64572407Y-74740612D01*
X64735733Y-74813329D01*
X64910609Y-74850500D01*
X64910610Y-74850500D01*
X65089389Y-74850500D01*
X65089391Y-74850500D01*
X65264267Y-74813329D01*
X65427593Y-74740612D01*
X65572230Y-74635526D01*
X65691859Y-74502665D01*
X65781250Y-74347835D01*
X65836497Y-74177803D01*
X65855185Y-74000000D01*
X65840625Y-73861477D01*
X65853194Y-73792750D01*
X65876262Y-73760841D01*
X66241320Y-73395784D01*
X66274213Y-73338811D01*
X66300628Y-73293059D01*
X66300629Y-73293056D01*
X66309650Y-73259388D01*
X66331330Y-73178479D01*
X66331330Y-70629999D01*
X67053627Y-70629999D01*
X67053628Y-70630000D01*
X68016814Y-70630000D01*
X68012420Y-70634394D01*
X67959759Y-70725606D01*
X67932500Y-70827339D01*
X67932500Y-70932661D01*
X67959759Y-71034394D01*
X68012420Y-71125606D01*
X68016814Y-71130000D01*
X67053628Y-71130000D01*
X67106230Y-71326317D01*
X67106234Y-71326326D01*
X67202365Y-71532482D01*
X67332842Y-71718820D01*
X67493679Y-71879657D01*
X67680017Y-72010134D01*
X67886173Y-72106265D01*
X67886182Y-72106269D01*
X67987069Y-72133301D01*
X68046729Y-72169665D01*
X68077259Y-72232512D01*
X68068965Y-72301888D01*
X68024480Y-72355766D01*
X67999771Y-72368702D01*
X67839870Y-72430648D01*
X67839857Y-72430655D01*
X67666460Y-72538017D01*
X67666458Y-72538019D01*
X67515737Y-72675418D01*
X67392827Y-72838178D01*
X67301922Y-73020739D01*
X67301917Y-73020752D01*
X67246102Y-73216917D01*
X67227285Y-73419999D01*
X67227285Y-73420000D01*
X67246102Y-73623082D01*
X67301917Y-73819247D01*
X67301922Y-73819260D01*
X67392827Y-74001821D01*
X67515737Y-74164581D01*
X67666458Y-74301980D01*
X67666460Y-74301982D01*
X67740506Y-74347829D01*
X67839863Y-74409348D01*
X68030044Y-74483024D01*
X68230524Y-74520500D01*
X68230526Y-74520500D01*
X68434474Y-74520500D01*
X68434476Y-74520500D01*
X68634956Y-74483024D01*
X68825137Y-74409348D01*
X68998541Y-74301981D01*
X69149264Y-74164579D01*
X69272173Y-74001821D01*
X69363082Y-73819250D01*
X69418897Y-73623083D01*
X69437715Y-73420000D01*
X69435470Y-73395777D01*
X69418897Y-73216917D01*
X69405548Y-73170000D01*
X69363082Y-73020750D01*
X69340301Y-72975000D01*
X69278308Y-72850500D01*
X69272173Y-72838179D01*
X69149264Y-72675421D01*
X69149262Y-72675418D01*
X68998541Y-72538019D01*
X68998539Y-72538017D01*
X68825142Y-72430655D01*
X68825141Y-72430654D01*
X68825137Y-72430652D01*
X68825132Y-72430650D01*
X68825126Y-72430647D01*
X68665229Y-72368702D01*
X68609827Y-72326129D01*
X68586237Y-72260363D01*
X68601948Y-72192282D01*
X68651972Y-72143503D01*
X68677931Y-72133301D01*
X68778815Y-72106270D01*
X68778826Y-72106265D01*
X68984982Y-72010134D01*
X68999455Y-72000000D01*
X83644815Y-72000000D01*
X83663503Y-72177805D01*
X83663504Y-72177807D01*
X83718747Y-72347829D01*
X83718750Y-72347835D01*
X83808141Y-72502665D01*
X83839972Y-72538017D01*
X83927764Y-72635521D01*
X83927767Y-72635523D01*
X83927770Y-72635526D01*
X84072407Y-72740612D01*
X84235733Y-72813329D01*
X84410609Y-72850500D01*
X84410610Y-72850500D01*
X84589389Y-72850500D01*
X84589391Y-72850500D01*
X84764267Y-72813329D01*
X84927593Y-72740612D01*
X85072230Y-72635526D01*
X85191859Y-72502665D01*
X85281250Y-72347835D01*
X85336497Y-72177803D01*
X85355185Y-72000000D01*
X85336497Y-71822197D01*
X85300245Y-71710624D01*
X85281252Y-71652170D01*
X85281249Y-71652164D01*
X85280619Y-71651073D01*
X85191859Y-71497335D01*
X85167413Y-71470185D01*
X85167246Y-71470000D01*
X96375138Y-71470000D01*
X96383430Y-71511690D01*
X96383430Y-71511692D01*
X96458807Y-71693671D01*
X96458814Y-71693684D01*
X96568248Y-71857462D01*
X96568251Y-71857466D01*
X96707533Y-71996748D01*
X96707537Y-71996751D01*
X96871315Y-72106185D01*
X96871328Y-72106192D01*
X97053306Y-72181569D01*
X97053318Y-72181572D01*
X97246504Y-72219999D01*
X97246508Y-72220000D01*
X97645000Y-72220000D01*
X97645000Y-71520000D01*
X98145000Y-71520000D01*
X98145000Y-72220000D01*
X98543492Y-72220000D01*
X98543495Y-72219999D01*
X98736681Y-72181572D01*
X98736693Y-72181569D01*
X98918671Y-72106192D01*
X98918684Y-72106185D01*
X99082462Y-71996751D01*
X99082466Y-71996748D01*
X99221748Y-71857466D01*
X99221751Y-71857462D01*
X99331185Y-71693684D01*
X99331192Y-71693671D01*
X99406569Y-71511692D01*
X99406569Y-71511690D01*
X99414862Y-71470000D01*
X98611988Y-71470000D01*
X98629205Y-71460060D01*
X98685060Y-71404205D01*
X98724556Y-71335796D01*
X98745000Y-71259496D01*
X98745000Y-71180504D01*
X98724556Y-71104204D01*
X98685060Y-71035795D01*
X98629205Y-70979940D01*
X98611988Y-70970000D01*
X99414862Y-70970000D01*
X99406569Y-70928309D01*
X99406569Y-70928307D01*
X99331192Y-70746328D01*
X99331185Y-70746315D01*
X99221751Y-70582537D01*
X99221748Y-70582533D01*
X99082466Y-70443251D01*
X99082462Y-70443248D01*
X98918684Y-70333814D01*
X98918674Y-70333809D01*
X98909157Y-70329867D01*
X98854754Y-70286026D01*
X98832689Y-70219731D01*
X98849969Y-70152032D01*
X98853648Y-70146597D01*
X98855512Y-70143367D01*
X98855515Y-70143365D01*
X98931070Y-70012500D01*
X99525001Y-70012500D01*
X99525001Y-70111654D01*
X99535319Y-70212652D01*
X99589546Y-70376300D01*
X99589551Y-70376311D01*
X99680052Y-70523034D01*
X99680055Y-70523038D01*
X99801961Y-70644944D01*
X99801965Y-70644947D01*
X99948688Y-70735448D01*
X99948699Y-70735453D01*
X100112347Y-70789680D01*
X100213352Y-70799999D01*
X100250000Y-70799999D01*
X100250000Y-70012500D01*
X99525001Y-70012500D01*
X98931070Y-70012500D01*
X98931281Y-70012135D01*
X98970500Y-69865766D01*
X98970500Y-69714234D01*
X98931281Y-69567865D01*
X98855515Y-69436635D01*
X98748365Y-69329485D01*
X98682750Y-69291602D01*
X98617136Y-69253719D01*
X98543950Y-69234109D01*
X98470766Y-69214500D01*
X98319234Y-69214500D01*
X98172863Y-69253719D01*
X98041635Y-69329485D01*
X98041632Y-69329487D01*
X97934487Y-69436632D01*
X97934485Y-69436635D01*
X97858719Y-69567863D01*
X97835711Y-69653734D01*
X97819500Y-69714234D01*
X97819500Y-69865766D01*
X97854936Y-69998017D01*
X97858720Y-70012137D01*
X97858720Y-70012138D01*
X97871342Y-70034000D01*
X97887815Y-70101901D01*
X97864962Y-70167927D01*
X97810041Y-70211118D01*
X97763955Y-70220000D01*
X97246504Y-70220000D01*
X97053318Y-70258427D01*
X97053306Y-70258430D01*
X96871328Y-70333807D01*
X96871315Y-70333814D01*
X96707537Y-70443248D01*
X96707533Y-70443251D01*
X96568251Y-70582533D01*
X96568248Y-70582537D01*
X96458814Y-70746315D01*
X96458807Y-70746328D01*
X96383430Y-70928307D01*
X96383430Y-70928309D01*
X96375138Y-70970000D01*
X97178012Y-70970000D01*
X97160795Y-70979940D01*
X97104940Y-71035795D01*
X97065444Y-71104204D01*
X97045000Y-71180504D01*
X97045000Y-71259496D01*
X97065444Y-71335796D01*
X97104940Y-71404205D01*
X97160795Y-71460060D01*
X97178012Y-71470000D01*
X96375138Y-71470000D01*
X85167246Y-71470000D01*
X85082350Y-71375712D01*
X85052120Y-71312720D01*
X85050500Y-71292740D01*
X85050500Y-70653258D01*
X85070185Y-70586219D01*
X85082341Y-70570295D01*
X85191859Y-70448665D01*
X85281250Y-70293835D01*
X85336497Y-70123803D01*
X85355185Y-69946000D01*
X85336497Y-69768197D01*
X85281250Y-69598165D01*
X85191859Y-69443335D01*
X85145003Y-69391296D01*
X85072235Y-69310478D01*
X85072232Y-69310476D01*
X85072231Y-69310475D01*
X85072230Y-69310474D01*
X84927593Y-69205388D01*
X84764267Y-69132671D01*
X84764265Y-69132670D01*
X84636594Y-69105533D01*
X84589391Y-69095500D01*
X84410609Y-69095500D01*
X84379954Y-69102015D01*
X84235733Y-69132670D01*
X84235728Y-69132672D01*
X84072408Y-69205387D01*
X83927768Y-69310475D01*
X83808140Y-69443336D01*
X83718750Y-69598164D01*
X83718747Y-69598170D01*
X83663504Y-69768192D01*
X83663503Y-69768194D01*
X83644815Y-69946000D01*
X83663503Y-70123805D01*
X83663504Y-70123807D01*
X83718747Y-70293829D01*
X83718750Y-70293835D01*
X83808138Y-70448661D01*
X83808139Y-70448663D01*
X83808141Y-70448665D01*
X83917651Y-70570288D01*
X83947880Y-70633277D01*
X83949500Y-70653258D01*
X83949500Y-71292740D01*
X83929815Y-71359779D01*
X83917650Y-71375712D01*
X83808140Y-71497335D01*
X83718750Y-71652164D01*
X83718747Y-71652170D01*
X83663504Y-71822192D01*
X83663503Y-71822194D01*
X83644815Y-72000000D01*
X68999455Y-72000000D01*
X69171320Y-71879657D01*
X69332157Y-71718820D01*
X69462634Y-71532482D01*
X69558765Y-71326326D01*
X69558769Y-71326317D01*
X69611372Y-71130000D01*
X68648186Y-71130000D01*
X68652580Y-71125606D01*
X68705241Y-71034394D01*
X68732500Y-70932661D01*
X68732500Y-70827339D01*
X68705241Y-70725606D01*
X68652580Y-70634394D01*
X68648186Y-70630000D01*
X69611372Y-70630000D01*
X69611372Y-70629999D01*
X69558769Y-70433682D01*
X69558765Y-70433673D01*
X69462634Y-70227517D01*
X69332157Y-70041179D01*
X69171320Y-69880342D01*
X68984982Y-69749865D01*
X68778826Y-69653734D01*
X68778817Y-69653730D01*
X68677930Y-69626698D01*
X68618269Y-69590333D01*
X68587740Y-69527486D01*
X68596035Y-69458110D01*
X68640520Y-69404233D01*
X68665227Y-69391296D01*
X68825137Y-69329348D01*
X68998541Y-69221981D01*
X69149264Y-69084579D01*
X69272173Y-68921821D01*
X69363082Y-68739250D01*
X69418897Y-68543083D01*
X69437715Y-68340000D01*
X69422239Y-68172989D01*
X69418897Y-68136917D01*
X69402468Y-68079176D01*
X69363082Y-67940750D01*
X69343473Y-67901369D01*
X86541853Y-67901369D01*
X86560541Y-68079174D01*
X86560542Y-68079176D01*
X86615785Y-68249198D01*
X86615788Y-68249204D01*
X86705179Y-68404034D01*
X86746850Y-68450315D01*
X86824802Y-68536890D01*
X86824805Y-68536892D01*
X86824808Y-68536895D01*
X86969445Y-68641981D01*
X87132771Y-68714698D01*
X87307647Y-68751869D01*
X87307648Y-68751869D01*
X87486427Y-68751869D01*
X87486429Y-68751869D01*
X87661305Y-68714698D01*
X87824631Y-68641981D01*
X87969268Y-68536895D01*
X88088897Y-68404034D01*
X88178288Y-68249204D01*
X88233535Y-68079172D01*
X88252223Y-67901369D01*
X88233535Y-67723566D01*
X88209632Y-67650000D01*
X97794815Y-67650000D01*
X97813503Y-67827805D01*
X97813504Y-67827807D01*
X97868747Y-67997829D01*
X97868750Y-67997835D01*
X97958141Y-68152665D01*
X97976441Y-68172989D01*
X98077764Y-68285521D01*
X98077767Y-68285523D01*
X98077770Y-68285526D01*
X98222407Y-68390612D01*
X98385733Y-68463329D01*
X98560609Y-68500500D01*
X98560610Y-68500500D01*
X98739389Y-68500500D01*
X98739391Y-68500500D01*
X98914267Y-68463329D01*
X99077593Y-68390612D01*
X99222230Y-68285526D01*
X99341859Y-68152665D01*
X99341861Y-68152660D01*
X99342622Y-68151615D01*
X99343218Y-68151154D01*
X99346207Y-68147836D01*
X99346813Y-68148382D01*
X99397951Y-68108949D01*
X99442940Y-68100500D01*
X99600500Y-68100500D01*
X99667539Y-68120185D01*
X99713294Y-68172989D01*
X99724500Y-68224500D01*
X99724500Y-68379618D01*
X99734882Y-68466074D01*
X99734882Y-68466075D01*
X99789139Y-68603660D01*
X99853531Y-68688573D01*
X99878354Y-68753884D01*
X99863926Y-68822248D01*
X99819827Y-68869034D01*
X99801967Y-68880050D01*
X99801961Y-68880055D01*
X99680055Y-69001961D01*
X99680052Y-69001965D01*
X99589551Y-69148688D01*
X99589546Y-69148699D01*
X99535319Y-69312347D01*
X99525000Y-69413345D01*
X99525000Y-69512500D01*
X101474999Y-69512500D01*
X101474999Y-69413360D01*
X101474998Y-69413345D01*
X101464680Y-69312347D01*
X101410453Y-69148699D01*
X101410448Y-69148688D01*
X101319947Y-69001965D01*
X101319944Y-69001961D01*
X101198037Y-68880054D01*
X101180174Y-68869036D01*
X101133450Y-68817087D01*
X101122229Y-68748124D01*
X101146469Y-68688573D01*
X101210862Y-68603658D01*
X101265117Y-68466077D01*
X101275500Y-68379618D01*
X101275500Y-67695382D01*
X101265117Y-67608923D01*
X101210862Y-67471342D01*
X101200759Y-67458019D01*
X101121500Y-67353499D01*
X101003660Y-67264139D01*
X101003658Y-67264138D01*
X100866077Y-67209883D01*
X100866076Y-67209882D01*
X100866074Y-67209882D01*
X100779619Y-67199500D01*
X100779618Y-67199500D01*
X100220382Y-67199500D01*
X100220379Y-67199500D01*
X100210463Y-67200690D01*
X100179510Y-67200513D01*
X100171812Y-67199500D01*
X100171809Y-67199500D01*
X99442940Y-67199500D01*
X99375901Y-67179815D01*
X99346420Y-67151972D01*
X99346207Y-67152164D01*
X99343840Y-67149536D01*
X99342622Y-67148385D01*
X99341861Y-67147339D01*
X99341859Y-67147335D01*
X99286970Y-67086375D01*
X99256741Y-67023385D01*
X99265366Y-66954050D01*
X99310107Y-66900384D01*
X99322942Y-66893296D01*
X99327588Y-66890613D01*
X99327593Y-66890612D01*
X99472230Y-66785526D01*
X99480255Y-66776614D01*
X99524005Y-66728024D01*
X99591859Y-66652665D01*
X99591861Y-66652660D01*
X99592622Y-66651615D01*
X99593218Y-66651154D01*
X99596207Y-66647836D01*
X99596813Y-66648382D01*
X99647951Y-66608949D01*
X99692940Y-66600500D01*
X99908011Y-66600500D01*
X99975050Y-66620185D01*
X99982937Y-66625697D01*
X99996342Y-66635862D01*
X100133923Y-66690117D01*
X100191562Y-66697039D01*
X100220381Y-66700500D01*
X100220382Y-66700500D01*
X100779619Y-66700500D01*
X100801232Y-66697904D01*
X100866077Y-66690117D01*
X101003658Y-66635862D01*
X101121500Y-66546500D01*
X101210862Y-66428658D01*
X101265117Y-66291077D01*
X101275500Y-66204618D01*
X101275500Y-65520382D01*
X101274790Y-65514474D01*
X101265117Y-65433925D01*
X101265117Y-65433924D01*
X101255442Y-65409389D01*
X101210862Y-65296342D01*
X101146466Y-65211423D01*
X101121645Y-65146115D01*
X101136073Y-65077751D01*
X101180177Y-65030961D01*
X101198039Y-65019943D01*
X101319944Y-64898038D01*
X101319947Y-64898034D01*
X101410448Y-64751311D01*
X101410453Y-64751300D01*
X101464680Y-64587652D01*
X101474999Y-64486654D01*
X101475000Y-64486641D01*
X101475000Y-64387500D01*
X99525001Y-64387500D01*
X99525001Y-64486654D01*
X99535319Y-64587652D01*
X99589546Y-64751300D01*
X99589551Y-64751311D01*
X99680052Y-64898034D01*
X99680055Y-64898038D01*
X99801961Y-65019944D01*
X99801965Y-65019947D01*
X99819824Y-65030963D01*
X99866549Y-65082911D01*
X99877770Y-65151873D01*
X99853531Y-65211426D01*
X99789139Y-65296339D01*
X99734882Y-65433924D01*
X99734882Y-65433925D01*
X99727996Y-65491268D01*
X99700458Y-65555482D01*
X99642575Y-65594614D01*
X99572724Y-65596240D01*
X99513083Y-65559844D01*
X99512731Y-65559454D01*
X99472235Y-65514478D01*
X99472232Y-65514476D01*
X99472231Y-65514475D01*
X99472230Y-65514474D01*
X99327593Y-65409388D01*
X99164267Y-65336671D01*
X99164265Y-65336670D01*
X99036594Y-65309533D01*
X98989391Y-65299500D01*
X98810609Y-65299500D01*
X98779954Y-65306015D01*
X98635733Y-65336670D01*
X98635728Y-65336672D01*
X98472408Y-65409387D01*
X98327768Y-65514475D01*
X98208140Y-65647336D01*
X98118750Y-65802164D01*
X98118747Y-65802170D01*
X98063504Y-65972192D01*
X98063503Y-65972194D01*
X98044815Y-66150000D01*
X98063503Y-66327805D01*
X98063504Y-66327807D01*
X98118747Y-66497829D01*
X98118750Y-66497835D01*
X98208141Y-66652665D01*
X98241863Y-66690117D01*
X98263028Y-66713623D01*
X98293258Y-66776614D01*
X98284633Y-66845950D01*
X98239891Y-66899615D01*
X98227054Y-66906705D01*
X98222408Y-66909387D01*
X98077768Y-67014475D01*
X97958140Y-67147336D01*
X97868750Y-67302164D01*
X97868747Y-67302170D01*
X97813504Y-67472192D01*
X97813503Y-67472194D01*
X97794815Y-67650000D01*
X88209632Y-67650000D01*
X88196286Y-67608925D01*
X88179502Y-67557269D01*
X88177507Y-67487428D01*
X88209750Y-67431272D01*
X89079205Y-66561819D01*
X89140528Y-66528334D01*
X89166886Y-66525500D01*
X89276889Y-66525500D01*
X89276891Y-66525500D01*
X89451767Y-66488329D01*
X89615093Y-66415612D01*
X89759730Y-66310526D01*
X89879359Y-66177665D01*
X89968750Y-66022835D01*
X90023997Y-65852803D01*
X90042685Y-65675000D01*
X90023997Y-65497197D01*
X89971839Y-65336671D01*
X89968752Y-65327170D01*
X89968749Y-65327164D01*
X89879359Y-65172335D01*
X89804448Y-65089138D01*
X89759735Y-65039478D01*
X89759732Y-65039476D01*
X89759731Y-65039475D01*
X89759730Y-65039474D01*
X89615093Y-64934388D01*
X89451767Y-64861671D01*
X89451765Y-64861670D01*
X89324094Y-64834533D01*
X89276891Y-64824500D01*
X89098109Y-64824500D01*
X89067454Y-64831015D01*
X88923233Y-64861670D01*
X88923228Y-64861672D01*
X88759908Y-64934387D01*
X88615268Y-65039475D01*
X88495640Y-65172336D01*
X88406250Y-65327164D01*
X88406247Y-65327170D01*
X88351004Y-65497192D01*
X88351003Y-65497194D01*
X88332315Y-65675002D01*
X88332315Y-65675007D01*
X88333423Y-65685555D01*
X88320851Y-65754284D01*
X88297783Y-65786191D01*
X86956529Y-67127445D01*
X86956525Y-67127450D01*
X86927245Y-67178166D01*
X86892744Y-67216483D01*
X86824811Y-67265840D01*
X86824802Y-67265847D01*
X86705178Y-67398705D01*
X86615788Y-67553533D01*
X86615785Y-67553539D01*
X86560542Y-67723561D01*
X86560541Y-67723563D01*
X86541853Y-67901369D01*
X69343473Y-67901369D01*
X69272173Y-67758179D01*
X69149264Y-67595421D01*
X69149262Y-67595418D01*
X68998541Y-67458019D01*
X68998539Y-67458017D01*
X68825142Y-67350655D01*
X68825135Y-67350651D01*
X68730046Y-67313814D01*
X68634956Y-67276976D01*
X68434476Y-67239500D01*
X68230524Y-67239500D01*
X68030044Y-67276976D01*
X68030041Y-67276976D01*
X68030041Y-67276977D01*
X67839864Y-67350651D01*
X67839857Y-67350655D01*
X67666460Y-67458017D01*
X67666458Y-67458019D01*
X67515737Y-67595418D01*
X67392827Y-67758178D01*
X67301922Y-67940739D01*
X67301917Y-67940752D01*
X67246102Y-68136917D01*
X67227285Y-68339999D01*
X67227285Y-68340000D01*
X67246102Y-68543082D01*
X67301917Y-68739247D01*
X67301922Y-68739260D01*
X67392827Y-68921821D01*
X67515737Y-69084581D01*
X67666458Y-69221980D01*
X67666460Y-69221982D01*
X67746177Y-69271340D01*
X67839863Y-69329348D01*
X67959918Y-69375857D01*
X67999770Y-69391296D01*
X68055172Y-69433869D01*
X68078762Y-69499636D01*
X68063051Y-69567716D01*
X68013027Y-69616495D01*
X67987070Y-69626698D01*
X67886180Y-69653731D01*
X67886173Y-69653734D01*
X67680017Y-69749865D01*
X67493679Y-69880342D01*
X67332842Y-70041179D01*
X67202365Y-70227517D01*
X67106234Y-70433673D01*
X67106230Y-70433682D01*
X67053627Y-70629999D01*
X66331330Y-70629999D01*
X66331330Y-70406318D01*
X66351015Y-70339279D01*
X66382439Y-70306004D01*
X66453060Y-70254696D01*
X66572689Y-70121835D01*
X66662080Y-69967005D01*
X66717327Y-69796973D01*
X66736015Y-69619170D01*
X66717327Y-69441367D01*
X66675406Y-69312347D01*
X66662082Y-69271340D01*
X66662079Y-69271334D01*
X66633586Y-69221982D01*
X66572689Y-69116505D01*
X66525833Y-69064466D01*
X66453065Y-68983648D01*
X66453062Y-68983646D01*
X66453061Y-68983645D01*
X66453060Y-68983644D01*
X66308423Y-68878558D01*
X66145097Y-68805841D01*
X66145095Y-68805840D01*
X66017424Y-68778703D01*
X65970221Y-68768670D01*
X65791439Y-68768670D01*
X65760784Y-68775185D01*
X65616563Y-68805840D01*
X65616558Y-68805842D01*
X65453238Y-68878557D01*
X65308598Y-68983645D01*
X65266650Y-69030234D01*
X65207163Y-69066883D01*
X65137306Y-69065552D01*
X65079258Y-69026666D01*
X65051448Y-68962569D01*
X65050500Y-68947262D01*
X65050500Y-66779386D01*
X65070185Y-66712347D01*
X65086819Y-66691705D01*
X65491011Y-66287513D01*
X65940510Y-65838014D01*
X65962457Y-65800000D01*
X67227285Y-65800000D01*
X67246102Y-66003082D01*
X67301917Y-66199247D01*
X67301922Y-66199260D01*
X67392827Y-66381821D01*
X67515737Y-66544581D01*
X67666458Y-66681980D01*
X67666460Y-66681982D01*
X67723396Y-66717235D01*
X67839863Y-66789348D01*
X68030044Y-66863024D01*
X68230524Y-66900500D01*
X68230526Y-66900500D01*
X68434474Y-66900500D01*
X68434476Y-66900500D01*
X68634956Y-66863024D01*
X68825137Y-66789348D01*
X68998541Y-66681981D01*
X69149264Y-66544579D01*
X69272173Y-66381821D01*
X69363082Y-66199250D01*
X69418897Y-66003083D01*
X69437715Y-65800000D01*
X69436435Y-65786191D01*
X69418897Y-65596917D01*
X69411944Y-65572479D01*
X69363082Y-65400750D01*
X69272173Y-65218179D01*
X69174726Y-65089138D01*
X69149262Y-65055418D01*
X68998541Y-64918019D01*
X68998539Y-64918017D01*
X68825142Y-64810655D01*
X68825135Y-64810651D01*
X68671959Y-64751311D01*
X68634956Y-64736976D01*
X68434476Y-64699500D01*
X68230524Y-64699500D01*
X68030044Y-64736976D01*
X68030041Y-64736976D01*
X68030041Y-64736977D01*
X67839864Y-64810651D01*
X67839857Y-64810655D01*
X67666460Y-64918017D01*
X67666458Y-64918019D01*
X67515737Y-65055418D01*
X67392827Y-65218178D01*
X67301922Y-65400739D01*
X67301917Y-65400752D01*
X67246102Y-65596917D01*
X67227285Y-65799999D01*
X67227285Y-65800000D01*
X65962457Y-65800000D01*
X65976747Y-65775249D01*
X66012982Y-65712489D01*
X66012982Y-65712487D01*
X66012984Y-65712485D01*
X66042448Y-65602526D01*
X66050500Y-65572475D01*
X66050500Y-63260000D01*
X67227285Y-63260000D01*
X67246102Y-63463082D01*
X67301917Y-63659247D01*
X67301922Y-63659260D01*
X67392827Y-63841821D01*
X67515737Y-64004581D01*
X67666458Y-64141980D01*
X67666460Y-64141982D01*
X67712926Y-64170752D01*
X67839863Y-64249348D01*
X68030044Y-64323024D01*
X68230524Y-64360500D01*
X68230526Y-64360500D01*
X68434474Y-64360500D01*
X68434476Y-64360500D01*
X68634956Y-64323024D01*
X68825137Y-64249348D01*
X68998541Y-64141981D01*
X69149264Y-64004579D01*
X69272173Y-63841821D01*
X69363082Y-63659250D01*
X69408393Y-63500000D01*
X83644815Y-63500000D01*
X83663503Y-63677805D01*
X83663504Y-63677807D01*
X83718747Y-63847829D01*
X83718750Y-63847835D01*
X83808141Y-64002665D01*
X83849812Y-64048946D01*
X83927764Y-64135521D01*
X83927767Y-64135523D01*
X83927770Y-64135526D01*
X84072407Y-64240612D01*
X84235733Y-64313329D01*
X84410609Y-64350500D01*
X84410610Y-64350500D01*
X84589389Y-64350500D01*
X84589391Y-64350500D01*
X84764267Y-64313329D01*
X84927593Y-64240612D01*
X85072230Y-64135526D01*
X85191859Y-64002665D01*
X85281250Y-63847835D01*
X85336497Y-63677803D01*
X85355185Y-63500000D01*
X85336497Y-63322197D01*
X85288567Y-63174683D01*
X85281252Y-63152170D01*
X85281249Y-63152164D01*
X85251132Y-63100000D01*
X85191859Y-62997335D01*
X85172224Y-62975528D01*
X85082350Y-62875712D01*
X85060413Y-62830000D01*
X96375138Y-62830000D01*
X96383430Y-62871690D01*
X96383430Y-62871692D01*
X96458807Y-63053671D01*
X96458814Y-63053684D01*
X96568248Y-63217462D01*
X96568251Y-63217466D01*
X96707533Y-63356748D01*
X96707537Y-63356751D01*
X96871315Y-63466185D01*
X96871328Y-63466192D01*
X97053306Y-63541569D01*
X97053318Y-63541572D01*
X97246504Y-63579999D01*
X97246508Y-63580000D01*
X97763955Y-63580000D01*
X97830994Y-63599685D01*
X97876749Y-63652489D01*
X97886693Y-63721647D01*
X97871342Y-63766000D01*
X97858720Y-63787861D01*
X97858720Y-63787862D01*
X97858720Y-63787863D01*
X97858719Y-63787865D01*
X97849217Y-63823329D01*
X97819500Y-63934234D01*
X97819500Y-64085765D01*
X97858719Y-64232136D01*
X97868657Y-64249348D01*
X97934485Y-64363365D01*
X98041635Y-64470515D01*
X98172865Y-64546281D01*
X98319234Y-64585500D01*
X98319236Y-64585500D01*
X98470764Y-64585500D01*
X98470766Y-64585500D01*
X98617135Y-64546281D01*
X98748365Y-64470515D01*
X98855515Y-64363365D01*
X98931281Y-64232135D01*
X98970500Y-64085766D01*
X98970500Y-63934234D01*
X98957978Y-63887500D01*
X99525000Y-63887500D01*
X100250000Y-63887500D01*
X100250000Y-63100000D01*
X100213361Y-63100000D01*
X100213343Y-63100001D01*
X100112347Y-63110319D01*
X99948699Y-63164546D01*
X99948688Y-63164551D01*
X99801965Y-63255052D01*
X99801961Y-63255055D01*
X99680055Y-63376961D01*
X99680052Y-63376965D01*
X99589551Y-63523688D01*
X99589546Y-63523699D01*
X99535319Y-63687347D01*
X99525000Y-63788345D01*
X99525000Y-63887500D01*
X98957978Y-63887500D01*
X98931281Y-63787865D01*
X98855515Y-63656635D01*
X98855513Y-63656633D01*
X98851451Y-63649597D01*
X98853654Y-63648325D01*
X98833041Y-63595022D01*
X98847073Y-63526576D01*
X98895882Y-63476582D01*
X98909163Y-63470129D01*
X98918682Y-63466186D01*
X98918684Y-63466185D01*
X99082462Y-63356751D01*
X99082466Y-63356748D01*
X99221748Y-63217466D01*
X99221751Y-63217462D01*
X99331185Y-63053684D01*
X99331192Y-63053671D01*
X99406569Y-62871692D01*
X99406569Y-62871690D01*
X99414862Y-62830000D01*
X98611988Y-62830000D01*
X98629205Y-62820060D01*
X98685060Y-62764205D01*
X98724556Y-62695796D01*
X98745000Y-62619496D01*
X98745000Y-62540504D01*
X98724556Y-62464204D01*
X98685060Y-62395795D01*
X98629205Y-62339940D01*
X98611988Y-62330000D01*
X99414862Y-62330000D01*
X99406569Y-62288309D01*
X99406569Y-62288307D01*
X99331192Y-62106328D01*
X99331185Y-62106315D01*
X99221751Y-61942537D01*
X99221748Y-61942533D01*
X99082466Y-61803251D01*
X99082462Y-61803248D01*
X98918684Y-61693814D01*
X98918671Y-61693807D01*
X98736693Y-61618430D01*
X98736681Y-61618427D01*
X98543495Y-61580000D01*
X98145000Y-61580000D01*
X98145000Y-62280000D01*
X97645000Y-62280000D01*
X97645000Y-61580000D01*
X97246504Y-61580000D01*
X97053318Y-61618427D01*
X97053306Y-61618430D01*
X96871328Y-61693807D01*
X96871315Y-61693814D01*
X96707537Y-61803248D01*
X96707533Y-61803251D01*
X96568251Y-61942533D01*
X96568248Y-61942537D01*
X96458814Y-62106315D01*
X96458807Y-62106328D01*
X96383430Y-62288307D01*
X96383430Y-62288309D01*
X96375138Y-62330000D01*
X97178012Y-62330000D01*
X97160795Y-62339940D01*
X97104940Y-62395795D01*
X97065444Y-62464204D01*
X97045000Y-62540504D01*
X97045000Y-62619496D01*
X97065444Y-62695796D01*
X97104940Y-62764205D01*
X97160795Y-62820060D01*
X97178012Y-62830000D01*
X96375138Y-62830000D01*
X85060413Y-62830000D01*
X85052120Y-62812720D01*
X85050500Y-62792740D01*
X85050500Y-61618258D01*
X85070185Y-61551219D01*
X85082341Y-61535295D01*
X85191859Y-61413665D01*
X85281250Y-61258835D01*
X85336497Y-61088803D01*
X85355185Y-60911000D01*
X85336497Y-60733197D01*
X85308873Y-60648181D01*
X85281252Y-60563170D01*
X85281249Y-60563164D01*
X85191859Y-60408335D01*
X85112997Y-60320750D01*
X85072235Y-60275478D01*
X85072232Y-60275476D01*
X85072231Y-60275475D01*
X85072230Y-60275474D01*
X84927593Y-60170388D01*
X84764267Y-60097671D01*
X84764265Y-60097670D01*
X84636594Y-60070533D01*
X84589391Y-60060500D01*
X84410609Y-60060500D01*
X84379954Y-60067015D01*
X84235733Y-60097670D01*
X84235728Y-60097672D01*
X84072408Y-60170387D01*
X83927768Y-60275475D01*
X83808140Y-60408336D01*
X83718750Y-60563164D01*
X83718747Y-60563170D01*
X83663504Y-60733192D01*
X83663503Y-60733194D01*
X83644815Y-60911000D01*
X83663503Y-61088805D01*
X83663504Y-61088807D01*
X83718747Y-61258829D01*
X83718750Y-61258835D01*
X83808138Y-61413661D01*
X83808139Y-61413663D01*
X83808141Y-61413665D01*
X83917651Y-61535288D01*
X83947880Y-61598277D01*
X83949500Y-61618258D01*
X83949500Y-62792740D01*
X83929815Y-62859779D01*
X83917650Y-62875712D01*
X83808140Y-62997335D01*
X83718750Y-63152164D01*
X83718747Y-63152170D01*
X83663504Y-63322192D01*
X83663503Y-63322194D01*
X83644815Y-63500000D01*
X69408393Y-63500000D01*
X69418897Y-63463083D01*
X69437715Y-63260000D01*
X69431025Y-63187807D01*
X69418897Y-63056917D01*
X69395742Y-62975538D01*
X69363082Y-62860750D01*
X69362487Y-62859556D01*
X69280945Y-62695796D01*
X69272173Y-62678179D01*
X69167825Y-62540000D01*
X69149262Y-62515418D01*
X68998541Y-62378019D01*
X68998539Y-62378017D01*
X68825142Y-62270655D01*
X68825135Y-62270651D01*
X68701745Y-62222850D01*
X68634956Y-62196976D01*
X68434476Y-62159500D01*
X68230524Y-62159500D01*
X68030044Y-62196976D01*
X68030041Y-62196976D01*
X68030041Y-62196977D01*
X67839864Y-62270651D01*
X67839857Y-62270655D01*
X67666460Y-62378017D01*
X67666458Y-62378019D01*
X67515737Y-62515418D01*
X67392827Y-62678178D01*
X67301922Y-62860739D01*
X67301917Y-62860752D01*
X67246102Y-63056917D01*
X67227285Y-63259999D01*
X67227285Y-63260000D01*
X66050500Y-63260000D01*
X66050500Y-60720000D01*
X67227285Y-60720000D01*
X67246102Y-60923082D01*
X67301917Y-61119247D01*
X67301922Y-61119260D01*
X67392827Y-61301821D01*
X67515737Y-61464581D01*
X67666458Y-61601980D01*
X67666460Y-61601982D01*
X67692747Y-61618258D01*
X67839863Y-61709348D01*
X68030044Y-61783024D01*
X68230524Y-61820500D01*
X68230526Y-61820500D01*
X68434474Y-61820500D01*
X68434476Y-61820500D01*
X68634956Y-61783024D01*
X68825137Y-61709348D01*
X68998541Y-61601981D01*
X69149264Y-61464579D01*
X69272173Y-61301821D01*
X69363082Y-61119250D01*
X69418897Y-60923083D01*
X69437715Y-60720000D01*
X69428419Y-60619683D01*
X69418897Y-60516917D01*
X69391474Y-60420538D01*
X69363082Y-60320750D01*
X69340539Y-60275478D01*
X69306211Y-60206537D01*
X69272173Y-60138179D01*
X69149264Y-59975421D01*
X69149262Y-59975418D01*
X69033046Y-59869474D01*
X79007000Y-59869474D01*
X79007001Y-59869491D01*
X79040799Y-60126217D01*
X79040800Y-60126222D01*
X79040801Y-60126228D01*
X79062320Y-60206537D01*
X79107824Y-60376364D01*
X79206923Y-60615609D01*
X79206927Y-60615619D01*
X79336406Y-60839883D01*
X79494051Y-61045331D01*
X79494057Y-61045338D01*
X79677161Y-61228442D01*
X79677168Y-61228448D01*
X79882616Y-61386093D01*
X80106880Y-61515572D01*
X80106881Y-61515572D01*
X80106884Y-61515574D01*
X80346134Y-61614675D01*
X80596272Y-61681699D01*
X80853019Y-61715500D01*
X80853026Y-61715500D01*
X81111974Y-61715500D01*
X81111981Y-61715500D01*
X81368728Y-61681699D01*
X81618866Y-61614675D01*
X81858116Y-61515574D01*
X82082384Y-61386093D01*
X82287833Y-61228447D01*
X82470947Y-61045333D01*
X82628593Y-60839884D01*
X82758074Y-60615616D01*
X82857175Y-60376366D01*
X82924199Y-60126228D01*
X82958000Y-59869481D01*
X82958000Y-59610519D01*
X82924199Y-59353772D01*
X82857175Y-59103634D01*
X82758074Y-58864384D01*
X82720614Y-58799502D01*
X82628593Y-58640116D01*
X82470948Y-58434668D01*
X82470942Y-58434661D01*
X82287838Y-58251557D01*
X82287831Y-58251551D01*
X82082383Y-58093906D01*
X81858119Y-57964427D01*
X81858109Y-57964423D01*
X81618864Y-57865324D01*
X81493797Y-57831813D01*
X81368728Y-57798301D01*
X81368722Y-57798300D01*
X81368717Y-57798299D01*
X81111991Y-57764501D01*
X81111986Y-57764500D01*
X81111981Y-57764500D01*
X80853019Y-57764500D01*
X80853013Y-57764500D01*
X80853008Y-57764501D01*
X80596282Y-57798299D01*
X80596275Y-57798300D01*
X80596272Y-57798301D01*
X80543408Y-57812465D01*
X80346135Y-57865324D01*
X80106890Y-57964423D01*
X80106880Y-57964427D01*
X79882616Y-58093906D01*
X79677168Y-58251551D01*
X79677161Y-58251557D01*
X79494057Y-58434661D01*
X79494051Y-58434668D01*
X79336406Y-58640116D01*
X79206927Y-58864380D01*
X79206923Y-58864390D01*
X79107824Y-59103635D01*
X79076334Y-59221159D01*
X79041729Y-59350311D01*
X79040802Y-59353769D01*
X79040799Y-59353782D01*
X79007001Y-59610508D01*
X79007000Y-59610525D01*
X79007000Y-59869474D01*
X69033046Y-59869474D01*
X68998541Y-59838019D01*
X68998539Y-59838017D01*
X68825142Y-59730655D01*
X68825135Y-59730651D01*
X68730046Y-59693814D01*
X68634956Y-59656976D01*
X68434476Y-59619500D01*
X68230524Y-59619500D01*
X68030044Y-59656976D01*
X68030041Y-59656976D01*
X68030041Y-59656977D01*
X67839864Y-59730651D01*
X67839857Y-59730655D01*
X67666460Y-59838017D01*
X67666458Y-59838019D01*
X67515737Y-59975418D01*
X67392827Y-60138178D01*
X67301922Y-60320739D01*
X67301917Y-60320752D01*
X67246102Y-60516917D01*
X67227285Y-60719999D01*
X67227285Y-60720000D01*
X66050500Y-60720000D01*
X66050500Y-59186258D01*
X66070185Y-59119219D01*
X66082341Y-59103295D01*
X66191859Y-58981665D01*
X66281250Y-58826835D01*
X66336497Y-58656803D01*
X66355185Y-58479000D01*
X66336497Y-58301197D01*
X66297118Y-58180000D01*
X67227285Y-58180000D01*
X67246102Y-58383082D01*
X67301917Y-58579247D01*
X67301922Y-58579260D01*
X67392827Y-58761821D01*
X67515737Y-58924581D01*
X67666458Y-59061980D01*
X67666460Y-59061982D01*
X67751317Y-59114523D01*
X67839863Y-59169348D01*
X68030044Y-59243024D01*
X68230524Y-59280500D01*
X68230526Y-59280500D01*
X68434474Y-59280500D01*
X68434476Y-59280500D01*
X68634956Y-59243024D01*
X68825137Y-59169348D01*
X68998541Y-59061981D01*
X69149264Y-58924579D01*
X69272173Y-58761821D01*
X69363082Y-58579250D01*
X69418897Y-58383083D01*
X69437715Y-58180000D01*
X69429737Y-58093907D01*
X69418897Y-57976917D01*
X69387146Y-57865325D01*
X69363082Y-57780750D01*
X69341988Y-57738388D01*
X69287271Y-57628500D01*
X69272173Y-57598179D01*
X69187864Y-57486536D01*
X69149262Y-57435418D01*
X68998541Y-57298019D01*
X68998539Y-57298017D01*
X68825142Y-57190655D01*
X68825135Y-57190651D01*
X68730046Y-57153814D01*
X68634956Y-57116976D01*
X68434476Y-57079500D01*
X68230524Y-57079500D01*
X68030044Y-57116976D01*
X68030041Y-57116976D01*
X68030041Y-57116977D01*
X67839864Y-57190651D01*
X67839857Y-57190655D01*
X67666460Y-57298017D01*
X67666458Y-57298019D01*
X67515737Y-57435418D01*
X67392827Y-57598178D01*
X67301922Y-57780739D01*
X67301917Y-57780752D01*
X67246102Y-57976917D01*
X67227285Y-58179999D01*
X67227285Y-58180000D01*
X66297118Y-58180000D01*
X66281250Y-58131165D01*
X66191859Y-57976335D01*
X66145003Y-57924296D01*
X66072235Y-57843478D01*
X66072232Y-57843476D01*
X66072231Y-57843475D01*
X66072230Y-57843474D01*
X65927593Y-57738388D01*
X65764267Y-57665671D01*
X65764265Y-57665670D01*
X65636594Y-57638533D01*
X65589391Y-57628500D01*
X65410609Y-57628500D01*
X65379954Y-57635015D01*
X65235733Y-57665670D01*
X65235728Y-57665672D01*
X65072408Y-57738387D01*
X64927768Y-57843475D01*
X64808140Y-57976336D01*
X64718750Y-58131164D01*
X64718747Y-58131170D01*
X64663504Y-58301192D01*
X64663503Y-58301194D01*
X64644815Y-58479000D01*
X64663503Y-58656805D01*
X64663504Y-58656807D01*
X64718747Y-58826829D01*
X64718750Y-58826835D01*
X64808138Y-58981661D01*
X64808139Y-58981663D01*
X64808141Y-58981665D01*
X64917651Y-59103288D01*
X64947880Y-59166277D01*
X64949500Y-59186258D01*
X64949500Y-65220613D01*
X64929815Y-65287652D01*
X64913181Y-65308294D01*
X64059491Y-66161983D01*
X64059487Y-66161988D01*
X64034876Y-66204618D01*
X64030543Y-66212124D01*
X63987016Y-66287515D01*
X63949500Y-66427525D01*
X63949500Y-66427527D01*
X63949500Y-69720613D01*
X63929815Y-69787652D01*
X63913181Y-69808294D01*
X63595794Y-70125681D01*
X63534471Y-70159166D01*
X63508113Y-70162000D01*
X63220381Y-70162000D01*
X63133925Y-70172382D01*
X63133924Y-70172382D01*
X62996339Y-70226639D01*
X62878499Y-70315999D01*
X62789138Y-70433840D01*
X62774489Y-70470990D01*
X62731583Y-70526134D01*
X62665675Y-70549327D01*
X62659134Y-70549500D01*
X61854093Y-70549500D01*
X61787054Y-70529815D01*
X61743093Y-70480771D01*
X61652174Y-70298180D01*
X61529262Y-70135418D01*
X61378541Y-69998019D01*
X61378539Y-69998017D01*
X61205142Y-69890655D01*
X61205135Y-69890651D01*
X61110046Y-69853814D01*
X61014956Y-69816976D01*
X60814476Y-69779500D01*
X60610524Y-69779500D01*
X60410044Y-69816976D01*
X60410041Y-69816976D01*
X60410041Y-69816977D01*
X60219864Y-69890651D01*
X60219857Y-69890655D01*
X60046460Y-69998017D01*
X60046458Y-69998019D01*
X59895737Y-70135418D01*
X59772827Y-70298178D01*
X59681922Y-70480739D01*
X59681917Y-70480752D01*
X59626102Y-70676917D01*
X59607285Y-70879999D01*
X59607285Y-70880000D01*
X59626102Y-71083082D01*
X59681917Y-71279247D01*
X59681922Y-71279260D01*
X59772827Y-71461821D01*
X59895737Y-71624581D01*
X60046458Y-71761980D01*
X60046460Y-71761982D01*
X60083229Y-71784748D01*
X60219863Y-71869348D01*
X60339918Y-71915857D01*
X60379770Y-71931296D01*
X60435172Y-71973869D01*
X60458762Y-72039636D01*
X60443051Y-72107716D01*
X60393027Y-72156495D01*
X60367070Y-72166698D01*
X60266180Y-72193731D01*
X60266173Y-72193734D01*
X60060017Y-72289865D01*
X59873679Y-72420342D01*
X59712842Y-72581179D01*
X59582365Y-72767517D01*
X59486234Y-72973673D01*
X59486230Y-72973682D01*
X59433627Y-73169999D01*
X46800500Y-73169999D01*
X46800500Y-65250000D01*
X49794357Y-65250000D01*
X49814884Y-65471535D01*
X49814885Y-65471537D01*
X49875769Y-65685523D01*
X49875775Y-65685538D01*
X49974938Y-65884683D01*
X49974943Y-65884691D01*
X50109020Y-66062238D01*
X50273435Y-66212122D01*
X50273439Y-66212125D01*
X50462595Y-66329245D01*
X50462607Y-66329251D01*
X50515841Y-66349873D01*
X50571244Y-66392445D01*
X50594835Y-66458211D01*
X50579125Y-66526292D01*
X50529101Y-66575072D01*
X50471049Y-66589500D01*
X50055143Y-66589500D01*
X50055117Y-66589502D01*
X50030012Y-66592413D01*
X50030008Y-66592415D01*
X49927235Y-66637793D01*
X49847794Y-66717234D01*
X49802415Y-66820006D01*
X49802415Y-66820008D01*
X49799500Y-66845131D01*
X49799500Y-68734856D01*
X49799502Y-68734882D01*
X49802413Y-68759987D01*
X49802415Y-68759991D01*
X49847793Y-68862764D01*
X49847794Y-68862765D01*
X49927235Y-68942206D01*
X50030009Y-68987585D01*
X50055135Y-68990500D01*
X51944864Y-68990499D01*
X51944879Y-68990497D01*
X51944882Y-68990497D01*
X51969987Y-68987586D01*
X51969988Y-68987585D01*
X51969991Y-68987585D01*
X52072765Y-68942206D01*
X52152206Y-68862765D01*
X52197585Y-68759991D01*
X52200500Y-68734865D01*
X52200500Y-68340000D01*
X59607285Y-68340000D01*
X59626102Y-68543082D01*
X59681917Y-68739247D01*
X59681922Y-68739260D01*
X59772827Y-68921821D01*
X59895737Y-69084581D01*
X60046458Y-69221980D01*
X60046460Y-69221982D01*
X60126177Y-69271340D01*
X60219863Y-69329348D01*
X60410044Y-69403024D01*
X60610524Y-69440500D01*
X60610526Y-69440500D01*
X60814474Y-69440500D01*
X60814476Y-69440500D01*
X61014956Y-69403024D01*
X61205137Y-69329348D01*
X61378541Y-69221981D01*
X61529264Y-69084579D01*
X61652173Y-68921821D01*
X61743082Y-68739250D01*
X61798897Y-68543083D01*
X61817715Y-68340000D01*
X61802239Y-68172989D01*
X61798897Y-68136917D01*
X61782468Y-68079176D01*
X61743082Y-67940750D01*
X61652173Y-67758179D01*
X61529264Y-67595421D01*
X61529262Y-67595418D01*
X61378541Y-67458019D01*
X61378539Y-67458017D01*
X61205142Y-67350655D01*
X61205135Y-67350651D01*
X61110046Y-67313814D01*
X61014956Y-67276976D01*
X60814476Y-67239500D01*
X60610524Y-67239500D01*
X60410044Y-67276976D01*
X60410041Y-67276976D01*
X60410041Y-67276977D01*
X60219864Y-67350651D01*
X60219857Y-67350655D01*
X60046460Y-67458017D01*
X60046458Y-67458019D01*
X59895737Y-67595418D01*
X59772827Y-67758178D01*
X59681922Y-67940739D01*
X59681917Y-67940752D01*
X59626102Y-68136917D01*
X59607285Y-68339999D01*
X59607285Y-68340000D01*
X52200500Y-68340000D01*
X52200499Y-66845136D01*
X52200497Y-66845117D01*
X52197586Y-66820012D01*
X52197585Y-66820010D01*
X52197585Y-66820009D01*
X52152206Y-66717235D01*
X52072765Y-66637794D01*
X52045368Y-66625697D01*
X51969992Y-66592415D01*
X51944868Y-66589500D01*
X51528952Y-66589500D01*
X51461913Y-66569815D01*
X51416158Y-66517011D01*
X51406214Y-66447853D01*
X51435239Y-66384297D01*
X51484159Y-66349873D01*
X51537401Y-66329247D01*
X51726562Y-66212124D01*
X51726562Y-66212123D01*
X51726565Y-66212122D01*
X51890979Y-66062238D01*
X51920740Y-66022829D01*
X52025058Y-65884689D01*
X52067228Y-65800000D01*
X59607285Y-65800000D01*
X59626102Y-66003082D01*
X59681917Y-66199247D01*
X59681922Y-66199260D01*
X59772827Y-66381821D01*
X59895737Y-66544581D01*
X60046458Y-66681980D01*
X60046460Y-66681982D01*
X60103396Y-66717235D01*
X60219863Y-66789348D01*
X60410044Y-66863024D01*
X60610524Y-66900500D01*
X60610526Y-66900500D01*
X60814474Y-66900500D01*
X60814476Y-66900500D01*
X61014956Y-66863024D01*
X61205137Y-66789348D01*
X61378541Y-66681981D01*
X61529264Y-66544579D01*
X61652173Y-66381821D01*
X61743082Y-66199250D01*
X61798897Y-66003083D01*
X61817715Y-65800000D01*
X61816435Y-65786191D01*
X61798897Y-65596917D01*
X61791944Y-65572479D01*
X61743082Y-65400750D01*
X61652173Y-65218179D01*
X61554726Y-65089138D01*
X61529262Y-65055418D01*
X61378541Y-64918019D01*
X61378539Y-64918017D01*
X61205142Y-64810655D01*
X61205135Y-64810651D01*
X61051959Y-64751311D01*
X61014956Y-64736976D01*
X60814476Y-64699500D01*
X60610524Y-64699500D01*
X60410044Y-64736976D01*
X60410041Y-64736976D01*
X60410041Y-64736977D01*
X60219864Y-64810651D01*
X60219857Y-64810655D01*
X60046460Y-64918017D01*
X60046458Y-64918019D01*
X59895737Y-65055418D01*
X59772827Y-65218178D01*
X59681922Y-65400739D01*
X59681917Y-65400752D01*
X59626102Y-65596917D01*
X59607285Y-65799999D01*
X59607285Y-65800000D01*
X52067228Y-65800000D01*
X52124229Y-65685528D01*
X52185115Y-65471536D01*
X52205643Y-65250000D01*
X52198446Y-65172336D01*
X52185115Y-65028464D01*
X52185114Y-65028462D01*
X52182691Y-65019947D01*
X52124229Y-64814472D01*
X52124224Y-64814461D01*
X52025061Y-64615316D01*
X52025056Y-64615308D01*
X51890979Y-64437761D01*
X51726562Y-64287876D01*
X51726560Y-64287874D01*
X51537404Y-64170754D01*
X51537398Y-64170752D01*
X51329940Y-64090382D01*
X51111243Y-64049500D01*
X50888757Y-64049500D01*
X50670060Y-64090382D01*
X50553543Y-64135521D01*
X50462601Y-64170752D01*
X50462595Y-64170754D01*
X50273439Y-64287874D01*
X50273437Y-64287876D01*
X50109020Y-64437761D01*
X49974943Y-64615308D01*
X49974938Y-64615316D01*
X49875775Y-64814461D01*
X49875769Y-64814476D01*
X49814885Y-65028462D01*
X49814884Y-65028464D01*
X49794357Y-65249999D01*
X49794357Y-65250000D01*
X46800500Y-65250000D01*
X46800500Y-62540000D01*
X49794357Y-62540000D01*
X49814884Y-62761535D01*
X49814885Y-62761537D01*
X49875769Y-62975523D01*
X49875775Y-62975538D01*
X49974938Y-63174683D01*
X49974943Y-63174691D01*
X50109020Y-63352238D01*
X50238055Y-63469868D01*
X50265613Y-63494991D01*
X50273437Y-63502123D01*
X50273439Y-63502125D01*
X50462595Y-63619245D01*
X50462596Y-63619245D01*
X50462599Y-63619247D01*
X50670060Y-63699618D01*
X50888757Y-63740500D01*
X50888759Y-63740500D01*
X51111241Y-63740500D01*
X51111243Y-63740500D01*
X51329940Y-63699618D01*
X51537401Y-63619247D01*
X51726562Y-63502124D01*
X51890981Y-63352236D01*
X52025058Y-63174689D01*
X52124229Y-62975528D01*
X52185115Y-62761536D01*
X52205643Y-62540000D01*
X52203365Y-62515421D01*
X52185115Y-62318464D01*
X52185114Y-62318462D01*
X52179987Y-62300444D01*
X52124229Y-62104472D01*
X52124224Y-62104461D01*
X52025061Y-61905316D01*
X52025056Y-61905308D01*
X51890979Y-61727761D01*
X51726562Y-61577876D01*
X51726560Y-61577874D01*
X51537404Y-61460754D01*
X51537395Y-61460750D01*
X51484157Y-61440126D01*
X51428755Y-61397553D01*
X51405164Y-61331786D01*
X51420875Y-61263706D01*
X51470899Y-61214927D01*
X51528949Y-61200499D01*
X51944864Y-61200499D01*
X51944879Y-61200497D01*
X51944882Y-61200497D01*
X51969987Y-61197586D01*
X51969988Y-61197585D01*
X51969991Y-61197585D01*
X52072765Y-61152206D01*
X52152206Y-61072765D01*
X52197585Y-60969991D01*
X52200500Y-60944865D01*
X52200499Y-59985000D01*
X54794357Y-59985000D01*
X54814884Y-60206535D01*
X54814885Y-60206537D01*
X54875769Y-60420523D01*
X54875775Y-60420538D01*
X54974938Y-60619683D01*
X54974943Y-60619691D01*
X55109020Y-60797238D01*
X55273437Y-60947123D01*
X55273439Y-60947125D01*
X55462595Y-61064245D01*
X55462607Y-61064251D01*
X55515841Y-61084873D01*
X55571244Y-61127445D01*
X55594835Y-61193211D01*
X55579125Y-61261292D01*
X55529101Y-61310072D01*
X55471049Y-61324500D01*
X55055143Y-61324500D01*
X55055117Y-61324502D01*
X55030012Y-61327413D01*
X55030008Y-61327415D01*
X54927235Y-61372793D01*
X54847794Y-61452234D01*
X54802415Y-61555006D01*
X54802415Y-61555008D01*
X54799500Y-61580131D01*
X54799500Y-63469856D01*
X54799502Y-63469882D01*
X54802413Y-63494987D01*
X54802415Y-63494991D01*
X54847793Y-63597764D01*
X54847794Y-63597765D01*
X54927235Y-63677206D01*
X55030009Y-63722585D01*
X55055135Y-63725500D01*
X56944864Y-63725499D01*
X56944879Y-63725497D01*
X56944882Y-63725497D01*
X56969987Y-63722586D01*
X56969988Y-63722585D01*
X56969991Y-63722585D01*
X57072765Y-63677206D01*
X57152206Y-63597765D01*
X57197585Y-63494991D01*
X57200500Y-63469865D01*
X57200500Y-63260000D01*
X59607285Y-63260000D01*
X59626102Y-63463082D01*
X59681917Y-63659247D01*
X59681922Y-63659260D01*
X59772827Y-63841821D01*
X59895737Y-64004581D01*
X60046458Y-64141980D01*
X60046460Y-64141982D01*
X60092926Y-64170752D01*
X60219863Y-64249348D01*
X60410044Y-64323024D01*
X60610524Y-64360500D01*
X60610526Y-64360500D01*
X60814474Y-64360500D01*
X60814476Y-64360500D01*
X61014956Y-64323024D01*
X61205137Y-64249348D01*
X61378541Y-64141981D01*
X61529264Y-64004579D01*
X61652173Y-63841821D01*
X61743082Y-63659250D01*
X61798897Y-63463083D01*
X61817715Y-63260000D01*
X61811025Y-63187807D01*
X61798897Y-63056917D01*
X61785548Y-63010000D01*
X62644815Y-63010000D01*
X62663503Y-63187805D01*
X62663504Y-63187807D01*
X62718747Y-63357829D01*
X62718750Y-63357835D01*
X62808141Y-63512665D01*
X62834169Y-63541572D01*
X62927764Y-63645521D01*
X62927767Y-63645523D01*
X62927770Y-63645526D01*
X63072407Y-63750612D01*
X63235733Y-63823329D01*
X63410609Y-63860500D01*
X63410610Y-63860500D01*
X63589389Y-63860500D01*
X63589391Y-63860500D01*
X63764267Y-63823329D01*
X63927593Y-63750612D01*
X64072230Y-63645526D01*
X64191859Y-63512665D01*
X64281250Y-63357835D01*
X64336497Y-63187803D01*
X64355185Y-63010000D01*
X64336497Y-62832197D01*
X64308873Y-62747181D01*
X64281252Y-62662170D01*
X64281249Y-62662164D01*
X64210718Y-62540000D01*
X64191859Y-62507335D01*
X64145003Y-62455296D01*
X64072235Y-62374478D01*
X64072226Y-62374471D01*
X64001614Y-62323167D01*
X63958948Y-62267837D01*
X63950500Y-62222850D01*
X63950500Y-59266148D01*
X63970185Y-59199109D01*
X64001609Y-59165834D01*
X64072230Y-59114526D01*
X64191859Y-58981665D01*
X64281250Y-58826835D01*
X64336497Y-58656803D01*
X64355185Y-58479000D01*
X64336497Y-58301197D01*
X64281250Y-58131165D01*
X64191859Y-57976335D01*
X64145003Y-57924296D01*
X64072235Y-57843478D01*
X64072232Y-57843476D01*
X64072231Y-57843475D01*
X64072230Y-57843474D01*
X63927593Y-57738388D01*
X63764267Y-57665671D01*
X63764265Y-57665670D01*
X63636594Y-57638533D01*
X63589391Y-57628500D01*
X63410609Y-57628500D01*
X63379954Y-57635015D01*
X63235733Y-57665670D01*
X63235728Y-57665672D01*
X63072408Y-57738387D01*
X62927768Y-57843475D01*
X62808140Y-57976336D01*
X62718750Y-58131164D01*
X62718747Y-58131170D01*
X62663504Y-58301192D01*
X62663503Y-58301194D01*
X62644815Y-58479000D01*
X62663503Y-58656805D01*
X62663504Y-58656807D01*
X62718747Y-58826829D01*
X62718750Y-58826835D01*
X62808141Y-58981665D01*
X62874294Y-59055135D01*
X62917963Y-59103635D01*
X62927770Y-59114526D01*
X62998388Y-59165833D01*
X63041051Y-59221159D01*
X63049500Y-59266148D01*
X63049500Y-62222850D01*
X63029815Y-62289889D01*
X62998386Y-62323167D01*
X62927773Y-62374471D01*
X62927764Y-62374478D01*
X62808140Y-62507336D01*
X62718750Y-62662164D01*
X62718747Y-62662170D01*
X62663504Y-62832192D01*
X62663503Y-62832194D01*
X62644815Y-63010000D01*
X61785548Y-63010000D01*
X61775742Y-62975538D01*
X61743082Y-62860750D01*
X61742487Y-62859556D01*
X61660945Y-62695796D01*
X61652173Y-62678179D01*
X61547825Y-62540000D01*
X61529262Y-62515418D01*
X61378541Y-62378019D01*
X61378539Y-62378017D01*
X61205142Y-62270655D01*
X61205135Y-62270651D01*
X61081745Y-62222850D01*
X61014956Y-62196976D01*
X60814476Y-62159500D01*
X60610524Y-62159500D01*
X60410044Y-62196976D01*
X60410041Y-62196976D01*
X60410041Y-62196977D01*
X60219864Y-62270651D01*
X60219857Y-62270655D01*
X60046460Y-62378017D01*
X60046458Y-62378019D01*
X59895737Y-62515418D01*
X59772827Y-62678178D01*
X59681922Y-62860739D01*
X59681917Y-62860752D01*
X59626102Y-63056917D01*
X59607285Y-63259999D01*
X59607285Y-63260000D01*
X57200500Y-63260000D01*
X57200499Y-61580136D01*
X57200237Y-61577874D01*
X57197586Y-61555012D01*
X57197585Y-61555010D01*
X57197585Y-61555009D01*
X57152206Y-61452235D01*
X57072765Y-61372794D01*
X57003354Y-61342146D01*
X56969992Y-61327415D01*
X56944868Y-61324500D01*
X56528952Y-61324500D01*
X56461913Y-61304815D01*
X56416158Y-61252011D01*
X56406214Y-61182853D01*
X56435239Y-61119297D01*
X56484159Y-61084873D01*
X56537401Y-61064247D01*
X56726562Y-60947124D01*
X56890981Y-60797236D01*
X56949307Y-60720000D01*
X59607285Y-60720000D01*
X59626102Y-60923082D01*
X59681917Y-61119247D01*
X59681922Y-61119260D01*
X59772827Y-61301821D01*
X59895737Y-61464581D01*
X60046458Y-61601980D01*
X60046460Y-61601982D01*
X60072747Y-61618258D01*
X60219863Y-61709348D01*
X60410044Y-61783024D01*
X60610524Y-61820500D01*
X60610526Y-61820500D01*
X60814474Y-61820500D01*
X60814476Y-61820500D01*
X61014956Y-61783024D01*
X61205137Y-61709348D01*
X61378541Y-61601981D01*
X61529264Y-61464579D01*
X61652173Y-61301821D01*
X61743082Y-61119250D01*
X61798897Y-60923083D01*
X61817715Y-60720000D01*
X61808419Y-60619683D01*
X61798897Y-60516917D01*
X61771474Y-60420538D01*
X61743082Y-60320750D01*
X61720539Y-60275478D01*
X61686211Y-60206537D01*
X61652173Y-60138179D01*
X61529264Y-59975421D01*
X61529262Y-59975418D01*
X61378541Y-59838019D01*
X61378539Y-59838017D01*
X61205142Y-59730655D01*
X61205135Y-59730651D01*
X61110046Y-59693814D01*
X61014956Y-59656976D01*
X60814476Y-59619500D01*
X60610524Y-59619500D01*
X60410044Y-59656976D01*
X60410041Y-59656976D01*
X60410041Y-59656977D01*
X60219864Y-59730651D01*
X60219857Y-59730655D01*
X60046460Y-59838017D01*
X60046458Y-59838019D01*
X59895737Y-59975418D01*
X59772827Y-60138178D01*
X59681922Y-60320739D01*
X59681917Y-60320752D01*
X59626102Y-60516917D01*
X59607285Y-60719999D01*
X59607285Y-60720000D01*
X56949307Y-60720000D01*
X57025058Y-60619689D01*
X57124229Y-60420528D01*
X57185115Y-60206536D01*
X57205643Y-59985000D01*
X57185115Y-59763464D01*
X57124229Y-59549472D01*
X57124224Y-59549461D01*
X57025061Y-59350316D01*
X57025056Y-59350308D01*
X56890979Y-59172761D01*
X56726562Y-59022876D01*
X56726560Y-59022874D01*
X56537404Y-58905754D01*
X56537398Y-58905752D01*
X56329940Y-58825382D01*
X56111243Y-58784500D01*
X55888757Y-58784500D01*
X55670060Y-58825382D01*
X55569369Y-58864390D01*
X55462601Y-58905752D01*
X55462595Y-58905754D01*
X55273439Y-59022874D01*
X55273437Y-59022876D01*
X55109020Y-59172761D01*
X54974943Y-59350308D01*
X54974938Y-59350316D01*
X54875775Y-59549461D01*
X54875769Y-59549476D01*
X54814885Y-59763462D01*
X54814884Y-59763464D01*
X54794357Y-59984999D01*
X54794357Y-59985000D01*
X52200499Y-59985000D01*
X52200499Y-59055136D01*
X52200497Y-59055117D01*
X52197586Y-59030012D01*
X52197585Y-59030010D01*
X52197585Y-59030009D01*
X52152206Y-58927235D01*
X52072765Y-58847794D01*
X52072763Y-58847793D01*
X51969992Y-58802415D01*
X51944865Y-58799500D01*
X50055143Y-58799500D01*
X50055117Y-58799502D01*
X50030012Y-58802413D01*
X50030008Y-58802415D01*
X49927235Y-58847793D01*
X49847794Y-58927234D01*
X49802415Y-59030006D01*
X49802415Y-59030008D01*
X49799500Y-59055131D01*
X49799500Y-60944856D01*
X49799502Y-60944882D01*
X49802413Y-60969987D01*
X49802415Y-60969991D01*
X49847793Y-61072764D01*
X49847794Y-61072765D01*
X49927235Y-61152206D01*
X50030009Y-61197585D01*
X50055135Y-61200500D01*
X50471049Y-61200499D01*
X50538086Y-61220183D01*
X50583841Y-61272987D01*
X50593785Y-61342146D01*
X50564760Y-61405702D01*
X50515842Y-61440125D01*
X50462607Y-61460748D01*
X50462595Y-61460754D01*
X50273439Y-61577874D01*
X50273437Y-61577876D01*
X50109020Y-61727761D01*
X49974943Y-61905308D01*
X49974938Y-61905316D01*
X49875775Y-62104461D01*
X49875769Y-62104476D01*
X49814885Y-62318462D01*
X49814884Y-62318464D01*
X49794357Y-62539999D01*
X49794357Y-62540000D01*
X46800500Y-62540000D01*
X46800500Y-57265000D01*
X54794357Y-57265000D01*
X54814884Y-57486535D01*
X54814885Y-57486537D01*
X54875769Y-57700523D01*
X54875775Y-57700538D01*
X54974938Y-57899683D01*
X54974943Y-57899691D01*
X55109020Y-58077238D01*
X55273437Y-58227123D01*
X55273439Y-58227125D01*
X55462595Y-58344245D01*
X55462596Y-58344245D01*
X55462599Y-58344247D01*
X55670060Y-58424618D01*
X55888757Y-58465500D01*
X55888759Y-58465500D01*
X56111241Y-58465500D01*
X56111243Y-58465500D01*
X56329940Y-58424618D01*
X56537401Y-58344247D01*
X56726562Y-58227124D01*
X56778254Y-58180000D01*
X59607285Y-58180000D01*
X59626102Y-58383082D01*
X59681917Y-58579247D01*
X59681922Y-58579260D01*
X59772827Y-58761821D01*
X59895737Y-58924581D01*
X60046458Y-59061980D01*
X60046460Y-59061982D01*
X60131317Y-59114523D01*
X60219863Y-59169348D01*
X60410044Y-59243024D01*
X60610524Y-59280500D01*
X60610526Y-59280500D01*
X60814474Y-59280500D01*
X60814476Y-59280500D01*
X61014956Y-59243024D01*
X61205137Y-59169348D01*
X61378541Y-59061981D01*
X61529264Y-58924579D01*
X61652173Y-58761821D01*
X61743082Y-58579250D01*
X61798897Y-58383083D01*
X61817715Y-58180000D01*
X61809737Y-58093907D01*
X61798897Y-57976917D01*
X61767146Y-57865325D01*
X61743082Y-57780750D01*
X61721988Y-57738388D01*
X61667271Y-57628500D01*
X61652173Y-57598179D01*
X61567864Y-57486536D01*
X61529262Y-57435418D01*
X61378541Y-57298019D01*
X61378539Y-57298017D01*
X61205142Y-57190655D01*
X61205135Y-57190651D01*
X61110046Y-57153814D01*
X61014956Y-57116976D01*
X60814476Y-57079500D01*
X60610524Y-57079500D01*
X60410044Y-57116976D01*
X60410041Y-57116976D01*
X60410041Y-57116977D01*
X60219864Y-57190651D01*
X60219857Y-57190655D01*
X60046460Y-57298017D01*
X60046458Y-57298019D01*
X59895737Y-57435418D01*
X59772827Y-57598178D01*
X59681922Y-57780739D01*
X59681917Y-57780752D01*
X59626102Y-57976917D01*
X59607285Y-58179999D01*
X59607285Y-58180000D01*
X56778254Y-58180000D01*
X56890981Y-58077236D01*
X57025058Y-57899689D01*
X57124229Y-57700528D01*
X57185115Y-57486536D01*
X57205643Y-57265000D01*
X57185115Y-57043464D01*
X57124229Y-56829472D01*
X57079926Y-56740500D01*
X57025061Y-56630316D01*
X57025056Y-56630308D01*
X56915216Y-56484856D01*
X59612000Y-56484856D01*
X59612002Y-56484882D01*
X59614913Y-56509987D01*
X59614915Y-56509991D01*
X59660293Y-56612764D01*
X59660294Y-56612765D01*
X59739735Y-56692206D01*
X59842509Y-56737585D01*
X59867635Y-56740500D01*
X61557364Y-56740499D01*
X61557379Y-56740497D01*
X61557382Y-56740497D01*
X61582487Y-56737586D01*
X61582488Y-56737585D01*
X61582491Y-56737585D01*
X61685265Y-56692206D01*
X61764706Y-56612765D01*
X61810085Y-56509991D01*
X61813000Y-56484865D01*
X61812999Y-55640000D01*
X67227285Y-55640000D01*
X67246102Y-55843082D01*
X67301917Y-56039247D01*
X67301922Y-56039260D01*
X67392827Y-56221821D01*
X67515737Y-56384581D01*
X67666458Y-56521980D01*
X67666460Y-56521982D01*
X67765641Y-56583392D01*
X67839863Y-56629348D01*
X68030044Y-56703024D01*
X68230524Y-56740500D01*
X68230526Y-56740500D01*
X68434474Y-56740500D01*
X68434476Y-56740500D01*
X68634956Y-56703024D01*
X68825137Y-56629348D01*
X68998541Y-56521981D01*
X69149264Y-56384579D01*
X69272173Y-56221821D01*
X69363082Y-56039250D01*
X69418897Y-55843083D01*
X69437715Y-55640000D01*
X69418897Y-55436917D01*
X69363082Y-55240750D01*
X69272173Y-55058179D01*
X69149264Y-54895421D01*
X69149262Y-54895418D01*
X68998541Y-54758019D01*
X68998539Y-54758017D01*
X68825142Y-54650655D01*
X68825135Y-54650651D01*
X68730046Y-54613814D01*
X68634956Y-54576976D01*
X68434476Y-54539500D01*
X68230524Y-54539500D01*
X68030044Y-54576976D01*
X68030041Y-54576976D01*
X68030041Y-54576977D01*
X67839864Y-54650651D01*
X67839857Y-54650655D01*
X67666460Y-54758017D01*
X67666458Y-54758019D01*
X67515737Y-54895418D01*
X67392827Y-55058178D01*
X67301922Y-55240739D01*
X67301917Y-55240752D01*
X67246102Y-55436917D01*
X67227285Y-55639999D01*
X67227285Y-55640000D01*
X61812999Y-55640000D01*
X61812999Y-54795136D01*
X61812997Y-54795117D01*
X61810086Y-54770012D01*
X61810085Y-54770010D01*
X61810085Y-54770009D01*
X61764706Y-54667235D01*
X61685265Y-54587794D01*
X61660767Y-54576977D01*
X61582492Y-54542415D01*
X61557365Y-54539500D01*
X59867643Y-54539500D01*
X59867617Y-54539502D01*
X59842512Y-54542413D01*
X59842508Y-54542415D01*
X59739735Y-54587793D01*
X59660294Y-54667234D01*
X59614915Y-54770006D01*
X59614915Y-54770008D01*
X59612000Y-54795131D01*
X59612000Y-56484856D01*
X56915216Y-56484856D01*
X56890979Y-56452761D01*
X56726562Y-56302876D01*
X56726560Y-56302874D01*
X56537404Y-56185754D01*
X56537395Y-56185750D01*
X56484157Y-56165126D01*
X56428755Y-56122553D01*
X56405164Y-56056786D01*
X56420875Y-55988706D01*
X56470899Y-55939927D01*
X56528949Y-55925499D01*
X56944864Y-55925499D01*
X56944879Y-55925497D01*
X56944882Y-55925497D01*
X56969987Y-55922586D01*
X56969988Y-55922585D01*
X56969991Y-55922585D01*
X57072765Y-55877206D01*
X57152206Y-55797765D01*
X57197585Y-55694991D01*
X57200500Y-55669865D01*
X57200499Y-53780136D01*
X57200497Y-53780117D01*
X57197586Y-53755012D01*
X57197585Y-53755010D01*
X57197585Y-53755009D01*
X57152206Y-53652235D01*
X57072765Y-53572794D01*
X57072763Y-53572793D01*
X56969992Y-53527415D01*
X56944865Y-53524500D01*
X55055143Y-53524500D01*
X55055117Y-53524502D01*
X55030012Y-53527413D01*
X55030008Y-53527415D01*
X54927235Y-53572793D01*
X54847794Y-53652234D01*
X54802415Y-53755006D01*
X54802415Y-53755008D01*
X54799500Y-53780131D01*
X54799500Y-55669856D01*
X54799502Y-55669882D01*
X54802413Y-55694987D01*
X54802415Y-55694991D01*
X54847793Y-55797764D01*
X54847794Y-55797765D01*
X54927235Y-55877206D01*
X55030009Y-55922585D01*
X55055135Y-55925500D01*
X55471049Y-55925499D01*
X55538086Y-55945183D01*
X55583841Y-55997987D01*
X55593785Y-56067146D01*
X55564760Y-56130702D01*
X55515842Y-56165125D01*
X55462607Y-56185748D01*
X55462595Y-56185754D01*
X55273439Y-56302874D01*
X55273437Y-56302876D01*
X55109020Y-56452761D01*
X54974943Y-56630308D01*
X54974938Y-56630316D01*
X54875775Y-56829461D01*
X54875769Y-56829476D01*
X54814885Y-57043462D01*
X54814884Y-57043464D01*
X54794357Y-57264999D01*
X54794357Y-57265000D01*
X46800500Y-57265000D01*
X46800500Y-52144856D01*
X75682000Y-52144856D01*
X75682002Y-52144882D01*
X75684913Y-52169987D01*
X75684915Y-52169991D01*
X75730293Y-52272764D01*
X75730294Y-52272765D01*
X75809735Y-52352206D01*
X75912509Y-52397585D01*
X75937635Y-52400500D01*
X78027364Y-52400499D01*
X78027379Y-52400497D01*
X78027382Y-52400497D01*
X78052487Y-52397586D01*
X78052488Y-52397585D01*
X78052491Y-52397585D01*
X78155265Y-52352206D01*
X78234706Y-52272765D01*
X78280085Y-52169991D01*
X78283000Y-52144865D01*
X78283000Y-51100005D01*
X88177359Y-51100005D01*
X88197885Y-51347729D01*
X88197887Y-51347738D01*
X88258912Y-51588717D01*
X88358766Y-51816364D01*
X88459064Y-51969882D01*
X89191371Y-51237575D01*
X89207255Y-51296853D01*
X89274398Y-51413147D01*
X89369353Y-51508102D01*
X89485647Y-51575245D01*
X89544924Y-51591128D01*
X88812442Y-52323609D01*
X88859268Y-52360055D01*
X88859270Y-52360056D01*
X89077885Y-52478364D01*
X89077896Y-52478369D01*
X89313006Y-52559083D01*
X89558207Y-52600000D01*
X89806793Y-52600000D01*
X90051993Y-52559083D01*
X90287103Y-52478369D01*
X90287114Y-52478364D01*
X90505728Y-52360057D01*
X90505731Y-52360055D01*
X90552556Y-52323609D01*
X89820075Y-51591128D01*
X89879353Y-51575245D01*
X89995647Y-51508102D01*
X90090602Y-51413147D01*
X90157745Y-51296853D01*
X90173627Y-51237575D01*
X90905934Y-51969882D01*
X91006231Y-51816369D01*
X91106087Y-51588717D01*
X91167112Y-51347738D01*
X91167114Y-51347729D01*
X91187641Y-51100005D01*
X91187641Y-51099994D01*
X91167114Y-50852270D01*
X91167112Y-50852261D01*
X91106087Y-50611282D01*
X91006231Y-50383630D01*
X90905934Y-50230116D01*
X90173627Y-50962423D01*
X90157745Y-50903147D01*
X90090602Y-50786853D01*
X89995647Y-50691898D01*
X89879353Y-50624755D01*
X89820075Y-50608872D01*
X90307659Y-50121288D01*
X98149500Y-50121288D01*
X98181161Y-50361785D01*
X98243947Y-50596104D01*
X98322958Y-50786853D01*
X98336776Y-50820212D01*
X98458064Y-51030289D01*
X98458066Y-51030292D01*
X98458067Y-51030293D01*
X98605733Y-51222736D01*
X98605739Y-51222743D01*
X98777256Y-51394260D01*
X98777263Y-51394266D01*
X98854528Y-51453553D01*
X98969711Y-51541936D01*
X99179788Y-51663224D01*
X99403900Y-51756054D01*
X99638211Y-51818838D01*
X99818586Y-51842584D01*
X99878711Y-51850500D01*
X99878712Y-51850500D01*
X100121289Y-51850500D01*
X100169388Y-51844167D01*
X100361789Y-51818838D01*
X100596100Y-51756054D01*
X100820212Y-51663224D01*
X101030289Y-51541936D01*
X101222738Y-51394265D01*
X101394265Y-51222738D01*
X101541936Y-51030289D01*
X101663224Y-50820212D01*
X101756054Y-50596100D01*
X101818838Y-50361789D01*
X101850500Y-50121288D01*
X101850500Y-49878712D01*
X101818838Y-49638211D01*
X101756054Y-49403900D01*
X101663224Y-49179788D01*
X101541936Y-48969711D01*
X101394265Y-48777262D01*
X101394260Y-48777256D01*
X101222743Y-48605739D01*
X101222736Y-48605733D01*
X101030293Y-48458067D01*
X101030292Y-48458066D01*
X101030289Y-48458064D01*
X100820212Y-48336776D01*
X100820205Y-48336773D01*
X100596104Y-48243947D01*
X100361785Y-48181161D01*
X100121289Y-48149500D01*
X100121288Y-48149500D01*
X99878712Y-48149500D01*
X99878711Y-48149500D01*
X99638214Y-48181161D01*
X99403895Y-48243947D01*
X99179794Y-48336773D01*
X99179785Y-48336777D01*
X98969706Y-48458067D01*
X98777263Y-48605733D01*
X98777256Y-48605739D01*
X98605739Y-48777256D01*
X98605733Y-48777263D01*
X98458067Y-48969706D01*
X98336777Y-49179785D01*
X98336773Y-49179794D01*
X98243947Y-49403895D01*
X98181161Y-49638214D01*
X98149500Y-49878711D01*
X98149500Y-50121288D01*
X90307659Y-50121288D01*
X90552557Y-49876390D01*
X90552556Y-49876389D01*
X90505729Y-49839943D01*
X90287114Y-49721635D01*
X90287103Y-49721630D01*
X90051993Y-49640916D01*
X89806793Y-49600000D01*
X89558207Y-49600000D01*
X89313006Y-49640916D01*
X89077896Y-49721630D01*
X89077890Y-49721632D01*
X88859261Y-49839949D01*
X88812442Y-49876388D01*
X88812442Y-49876390D01*
X89544924Y-50608871D01*
X89485647Y-50624755D01*
X89369353Y-50691898D01*
X89274398Y-50786853D01*
X89207255Y-50903147D01*
X89191372Y-50962424D01*
X88459064Y-50230116D01*
X88358767Y-50383632D01*
X88258912Y-50611282D01*
X88197887Y-50852261D01*
X88197885Y-50852270D01*
X88177359Y-51099994D01*
X88177359Y-51100005D01*
X78283000Y-51100005D01*
X78282999Y-50055136D01*
X78282997Y-50055117D01*
X78280086Y-50030012D01*
X78280085Y-50030010D01*
X78280085Y-50030009D01*
X78234706Y-49927235D01*
X78155265Y-49847794D01*
X78137484Y-49839943D01*
X78052492Y-49802415D01*
X78027365Y-49799500D01*
X75937643Y-49799500D01*
X75937617Y-49799502D01*
X75912512Y-49802413D01*
X75912508Y-49802415D01*
X75809735Y-49847793D01*
X75730294Y-49927234D01*
X75684915Y-50030006D01*
X75684915Y-50030008D01*
X75682000Y-50055131D01*
X75682000Y-52144856D01*
X46800500Y-52144856D01*
X46800500Y-50121288D01*
X48149500Y-50121288D01*
X48181161Y-50361785D01*
X48243947Y-50596104D01*
X48322958Y-50786853D01*
X48336776Y-50820212D01*
X48458064Y-51030289D01*
X48458066Y-51030292D01*
X48458067Y-51030293D01*
X48605733Y-51222736D01*
X48605739Y-51222743D01*
X48777256Y-51394260D01*
X48777263Y-51394266D01*
X48854528Y-51453553D01*
X48969711Y-51541936D01*
X49179788Y-51663224D01*
X49403900Y-51756054D01*
X49638211Y-51818838D01*
X49818586Y-51842584D01*
X49878711Y-51850500D01*
X49878712Y-51850500D01*
X50121289Y-51850500D01*
X50169388Y-51844167D01*
X50361789Y-51818838D01*
X50596100Y-51756054D01*
X50820212Y-51663224D01*
X51030289Y-51541936D01*
X51222738Y-51394265D01*
X51394265Y-51222738D01*
X51541936Y-51030289D01*
X51663224Y-50820212D01*
X51756054Y-50596100D01*
X51818838Y-50361789D01*
X51850500Y-50121288D01*
X51850500Y-49878712D01*
X51818838Y-49638211D01*
X51756054Y-49403900D01*
X51663224Y-49179788D01*
X51541936Y-48969711D01*
X51394265Y-48777262D01*
X51394260Y-48777256D01*
X51222743Y-48605739D01*
X51222736Y-48605733D01*
X51030293Y-48458067D01*
X51030292Y-48458066D01*
X51030289Y-48458064D01*
X50820212Y-48336776D01*
X50820205Y-48336773D01*
X50596104Y-48243947D01*
X50361785Y-48181161D01*
X50121289Y-48149500D01*
X50121288Y-48149500D01*
X49878712Y-48149500D01*
X49878711Y-48149500D01*
X49638214Y-48181161D01*
X49403895Y-48243947D01*
X49179794Y-48336773D01*
X49179785Y-48336777D01*
X48969706Y-48458067D01*
X48777263Y-48605733D01*
X48777256Y-48605739D01*
X48605739Y-48777256D01*
X48605733Y-48777263D01*
X48458067Y-48969706D01*
X48336777Y-49179785D01*
X48336773Y-49179794D01*
X48243947Y-49403895D01*
X48181161Y-49638214D01*
X48149500Y-49878711D01*
X48149500Y-50121288D01*
X46800500Y-50121288D01*
X46800500Y-50003246D01*
X46800670Y-49996756D01*
X46810855Y-49802413D01*
X46817687Y-49672045D01*
X46819044Y-49659139D01*
X46859471Y-49403895D01*
X46869401Y-49341201D01*
X46872094Y-49328525D01*
X46955416Y-49017564D01*
X46959425Y-49005229D01*
X46973061Y-48969706D01*
X47074784Y-48704707D01*
X47080054Y-48692868D01*
X47226214Y-48406014D01*
X47232680Y-48394815D01*
X47408015Y-48124823D01*
X47415630Y-48114342D01*
X47618229Y-47864153D01*
X47626896Y-47854528D01*
X47854528Y-47626896D01*
X47864153Y-47618229D01*
X48114342Y-47415630D01*
X48124823Y-47408015D01*
X48394815Y-47232680D01*
X48406014Y-47226214D01*
X48692868Y-47080054D01*
X48704707Y-47074784D01*
X49005236Y-46959422D01*
X49017564Y-46955416D01*
X49328525Y-46872094D01*
X49341201Y-46869401D01*
X49659141Y-46819043D01*
X49672045Y-46817687D01*
X49996756Y-46800669D01*
X50003246Y-46800500D01*
X50047595Y-46800500D01*
X99952405Y-46800500D01*
X99996754Y-46800500D01*
X100003243Y-46800669D01*
G37*
%TD.AperFunction*%
%TD*%
M02*
