%TF.GenerationSoftware,KiCad,Pcbnew,7.0.10*%
%TF.CreationDate,2024-01-08T16:26:41+01:00*%
%TF.ProjectId,mold_detect,6d6f6c64-5f64-4657-9465-63742e6b6963,rev?*%
%TF.SameCoordinates,Original*%
%TF.FileFunction,Legend,Bot*%
%TF.FilePolarity,Positive*%
%FSLAX46Y46*%
G04 Gerber Fmt 4.6, Leading zero omitted, Abs format (unit mm)*
G04 Created by KiCad (PCBNEW 7.0.10) date 2024-01-08 16:26:41*
%MOMM*%
%LPD*%
G01*
G04 APERTURE LIST*
%ADD10C,0.150000*%
%ADD11C,0.010000*%
G04 APERTURE END LIST*
D10*
X81143152Y-94565350D02*
X81952676Y-94565350D01*
X81952676Y-94565350D02*
X82047914Y-94517731D01*
X82047914Y-94517731D02*
X82095533Y-94470112D01*
X82095533Y-94470112D02*
X82143152Y-94374874D01*
X82143152Y-94374874D02*
X82143152Y-94232017D01*
X82143152Y-94232017D02*
X82095533Y-94136779D01*
X81762200Y-94565350D02*
X81809819Y-94470112D01*
X81809819Y-94470112D02*
X81809819Y-94279636D01*
X81809819Y-94279636D02*
X81762200Y-94184398D01*
X81762200Y-94184398D02*
X81714580Y-94136779D01*
X81714580Y-94136779D02*
X81619342Y-94089160D01*
X81619342Y-94089160D02*
X81333628Y-94089160D01*
X81333628Y-94089160D02*
X81238390Y-94136779D01*
X81238390Y-94136779D02*
X81190771Y-94184398D01*
X81190771Y-94184398D02*
X81143152Y-94279636D01*
X81143152Y-94279636D02*
X81143152Y-94470112D01*
X81143152Y-94470112D02*
X81190771Y-94565350D01*
X81809819Y-95041541D02*
X81143152Y-95041541D01*
X80809819Y-95041541D02*
X80857438Y-94993922D01*
X80857438Y-94993922D02*
X80905057Y-95041541D01*
X80905057Y-95041541D02*
X80857438Y-95089160D01*
X80857438Y-95089160D02*
X80809819Y-95041541D01*
X80809819Y-95041541D02*
X80905057Y-95041541D01*
X81143152Y-95374874D02*
X81143152Y-95755826D01*
X80809819Y-95517731D02*
X81666961Y-95517731D01*
X81666961Y-95517731D02*
X81762200Y-95565350D01*
X81762200Y-95565350D02*
X81809819Y-95660588D01*
X81809819Y-95660588D02*
X81809819Y-95755826D01*
X81809819Y-96089160D02*
X80809819Y-96089160D01*
X81809819Y-96517731D02*
X81286009Y-96517731D01*
X81286009Y-96517731D02*
X81190771Y-96470112D01*
X81190771Y-96470112D02*
X81143152Y-96374874D01*
X81143152Y-96374874D02*
X81143152Y-96232017D01*
X81143152Y-96232017D02*
X81190771Y-96136779D01*
X81190771Y-96136779D02*
X81238390Y-96089160D01*
X81143152Y-97422493D02*
X81809819Y-97422493D01*
X81143152Y-96993922D02*
X81666961Y-96993922D01*
X81666961Y-96993922D02*
X81762200Y-97041541D01*
X81762200Y-97041541D02*
X81809819Y-97136779D01*
X81809819Y-97136779D02*
X81809819Y-97279636D01*
X81809819Y-97279636D02*
X81762200Y-97374874D01*
X81762200Y-97374874D02*
X81714580Y-97422493D01*
X81809819Y-97898684D02*
X80809819Y-97898684D01*
X81190771Y-97898684D02*
X81143152Y-97993922D01*
X81143152Y-97993922D02*
X81143152Y-98184398D01*
X81143152Y-98184398D02*
X81190771Y-98279636D01*
X81190771Y-98279636D02*
X81238390Y-98327255D01*
X81238390Y-98327255D02*
X81333628Y-98374874D01*
X81333628Y-98374874D02*
X81619342Y-98374874D01*
X81619342Y-98374874D02*
X81714580Y-98327255D01*
X81714580Y-98327255D02*
X81762200Y-98279636D01*
X81762200Y-98279636D02*
X81809819Y-98184398D01*
X81809819Y-98184398D02*
X81809819Y-97993922D01*
X81809819Y-97993922D02*
X81762200Y-97898684D01*
X81714580Y-98803446D02*
X81762200Y-98851065D01*
X81762200Y-98851065D02*
X81809819Y-98803446D01*
X81809819Y-98803446D02*
X81762200Y-98755827D01*
X81762200Y-98755827D02*
X81714580Y-98803446D01*
X81714580Y-98803446D02*
X81809819Y-98803446D01*
X81762200Y-99708207D02*
X81809819Y-99612969D01*
X81809819Y-99612969D02*
X81809819Y-99422493D01*
X81809819Y-99422493D02*
X81762200Y-99327255D01*
X81762200Y-99327255D02*
X81714580Y-99279636D01*
X81714580Y-99279636D02*
X81619342Y-99232017D01*
X81619342Y-99232017D02*
X81333628Y-99232017D01*
X81333628Y-99232017D02*
X81238390Y-99279636D01*
X81238390Y-99279636D02*
X81190771Y-99327255D01*
X81190771Y-99327255D02*
X81143152Y-99422493D01*
X81143152Y-99422493D02*
X81143152Y-99612969D01*
X81143152Y-99612969D02*
X81190771Y-99708207D01*
X81809819Y-100279636D02*
X81762200Y-100184398D01*
X81762200Y-100184398D02*
X81714580Y-100136779D01*
X81714580Y-100136779D02*
X81619342Y-100089160D01*
X81619342Y-100089160D02*
X81333628Y-100089160D01*
X81333628Y-100089160D02*
X81238390Y-100136779D01*
X81238390Y-100136779D02*
X81190771Y-100184398D01*
X81190771Y-100184398D02*
X81143152Y-100279636D01*
X81143152Y-100279636D02*
X81143152Y-100422493D01*
X81143152Y-100422493D02*
X81190771Y-100517731D01*
X81190771Y-100517731D02*
X81238390Y-100565350D01*
X81238390Y-100565350D02*
X81333628Y-100612969D01*
X81333628Y-100612969D02*
X81619342Y-100612969D01*
X81619342Y-100612969D02*
X81714580Y-100565350D01*
X81714580Y-100565350D02*
X81762200Y-100517731D01*
X81762200Y-100517731D02*
X81809819Y-100422493D01*
X81809819Y-100422493D02*
X81809819Y-100279636D01*
X81809819Y-101041541D02*
X81143152Y-101041541D01*
X81238390Y-101041541D02*
X81190771Y-101089160D01*
X81190771Y-101089160D02*
X81143152Y-101184398D01*
X81143152Y-101184398D02*
X81143152Y-101327255D01*
X81143152Y-101327255D02*
X81190771Y-101422493D01*
X81190771Y-101422493D02*
X81286009Y-101470112D01*
X81286009Y-101470112D02*
X81809819Y-101470112D01*
X81286009Y-101470112D02*
X81190771Y-101517731D01*
X81190771Y-101517731D02*
X81143152Y-101612969D01*
X81143152Y-101612969D02*
X81143152Y-101755826D01*
X81143152Y-101755826D02*
X81190771Y-101851065D01*
X81190771Y-101851065D02*
X81286009Y-101898684D01*
X81286009Y-101898684D02*
X81809819Y-101898684D01*
X80762200Y-103089159D02*
X82047914Y-102232017D01*
X81762200Y-103851064D02*
X81809819Y-103755826D01*
X81809819Y-103755826D02*
X81809819Y-103565350D01*
X81809819Y-103565350D02*
X81762200Y-103470112D01*
X81762200Y-103470112D02*
X81714580Y-103422493D01*
X81714580Y-103422493D02*
X81619342Y-103374874D01*
X81619342Y-103374874D02*
X81333628Y-103374874D01*
X81333628Y-103374874D02*
X81238390Y-103422493D01*
X81238390Y-103422493D02*
X81190771Y-103470112D01*
X81190771Y-103470112D02*
X81143152Y-103565350D01*
X81143152Y-103565350D02*
X81143152Y-103755826D01*
X81143152Y-103755826D02*
X81190771Y-103851064D01*
X81809819Y-104279636D02*
X80809819Y-104279636D01*
X81809819Y-104708207D02*
X81286009Y-104708207D01*
X81286009Y-104708207D02*
X81190771Y-104660588D01*
X81190771Y-104660588D02*
X81143152Y-104565350D01*
X81143152Y-104565350D02*
X81143152Y-104422493D01*
X81143152Y-104422493D02*
X81190771Y-104327255D01*
X81190771Y-104327255D02*
X81238390Y-104279636D01*
X81809819Y-105184398D02*
X81143152Y-105184398D01*
X81333628Y-105184398D02*
X81238390Y-105232017D01*
X81238390Y-105232017D02*
X81190771Y-105279636D01*
X81190771Y-105279636D02*
X81143152Y-105374874D01*
X81143152Y-105374874D02*
X81143152Y-105470112D01*
X81809819Y-105803446D02*
X81143152Y-105803446D01*
X80809819Y-105803446D02*
X80857438Y-105755827D01*
X80857438Y-105755827D02*
X80905057Y-105803446D01*
X80905057Y-105803446D02*
X80857438Y-105851065D01*
X80857438Y-105851065D02*
X80809819Y-105803446D01*
X80809819Y-105803446D02*
X80905057Y-105803446D01*
X81762200Y-106232017D02*
X81809819Y-106327255D01*
X81809819Y-106327255D02*
X81809819Y-106517731D01*
X81809819Y-106517731D02*
X81762200Y-106612969D01*
X81762200Y-106612969D02*
X81666961Y-106660588D01*
X81666961Y-106660588D02*
X81619342Y-106660588D01*
X81619342Y-106660588D02*
X81524104Y-106612969D01*
X81524104Y-106612969D02*
X81476485Y-106517731D01*
X81476485Y-106517731D02*
X81476485Y-106374874D01*
X81476485Y-106374874D02*
X81428866Y-106279636D01*
X81428866Y-106279636D02*
X81333628Y-106232017D01*
X81333628Y-106232017D02*
X81286009Y-106232017D01*
X81286009Y-106232017D02*
X81190771Y-106279636D01*
X81190771Y-106279636D02*
X81143152Y-106374874D01*
X81143152Y-106374874D02*
X81143152Y-106517731D01*
X81143152Y-106517731D02*
X81190771Y-106612969D01*
X81143152Y-106946303D02*
X81143152Y-107327255D01*
X80809819Y-107089160D02*
X81666961Y-107089160D01*
X81666961Y-107089160D02*
X81762200Y-107136779D01*
X81762200Y-107136779D02*
X81809819Y-107232017D01*
X81809819Y-107232017D02*
X81809819Y-107327255D01*
X81809819Y-107803446D02*
X81762200Y-107708208D01*
X81762200Y-107708208D02*
X81714580Y-107660589D01*
X81714580Y-107660589D02*
X81619342Y-107612970D01*
X81619342Y-107612970D02*
X81333628Y-107612970D01*
X81333628Y-107612970D02*
X81238390Y-107660589D01*
X81238390Y-107660589D02*
X81190771Y-107708208D01*
X81190771Y-107708208D02*
X81143152Y-107803446D01*
X81143152Y-107803446D02*
X81143152Y-107946303D01*
X81143152Y-107946303D02*
X81190771Y-108041541D01*
X81190771Y-108041541D02*
X81238390Y-108089160D01*
X81238390Y-108089160D02*
X81333628Y-108136779D01*
X81333628Y-108136779D02*
X81619342Y-108136779D01*
X81619342Y-108136779D02*
X81714580Y-108089160D01*
X81714580Y-108089160D02*
X81762200Y-108041541D01*
X81762200Y-108041541D02*
X81809819Y-107946303D01*
X81809819Y-107946303D02*
X81809819Y-107803446D01*
X81143152Y-108565351D02*
X82143152Y-108565351D01*
X81190771Y-108565351D02*
X81143152Y-108660589D01*
X81143152Y-108660589D02*
X81143152Y-108851065D01*
X81143152Y-108851065D02*
X81190771Y-108946303D01*
X81190771Y-108946303D02*
X81238390Y-108993922D01*
X81238390Y-108993922D02*
X81333628Y-109041541D01*
X81333628Y-109041541D02*
X81619342Y-109041541D01*
X81619342Y-109041541D02*
X81714580Y-108993922D01*
X81714580Y-108993922D02*
X81762200Y-108946303D01*
X81762200Y-108946303D02*
X81809819Y-108851065D01*
X81809819Y-108851065D02*
X81809819Y-108660589D01*
X81809819Y-108660589D02*
X81762200Y-108565351D01*
X81809819Y-109470113D02*
X80809819Y-109470113D01*
X81809819Y-109898684D02*
X81286009Y-109898684D01*
X81286009Y-109898684D02*
X81190771Y-109851065D01*
X81190771Y-109851065D02*
X81143152Y-109755827D01*
X81143152Y-109755827D02*
X81143152Y-109612970D01*
X81143152Y-109612970D02*
X81190771Y-109517732D01*
X81190771Y-109517732D02*
X81238390Y-109470113D01*
X81762200Y-110755827D02*
X81809819Y-110660589D01*
X81809819Y-110660589D02*
X81809819Y-110470113D01*
X81809819Y-110470113D02*
X81762200Y-110374875D01*
X81762200Y-110374875D02*
X81666961Y-110327256D01*
X81666961Y-110327256D02*
X81286009Y-110327256D01*
X81286009Y-110327256D02*
X81190771Y-110374875D01*
X81190771Y-110374875D02*
X81143152Y-110470113D01*
X81143152Y-110470113D02*
X81143152Y-110660589D01*
X81143152Y-110660589D02*
X81190771Y-110755827D01*
X81190771Y-110755827D02*
X81286009Y-110803446D01*
X81286009Y-110803446D02*
X81381247Y-110803446D01*
X81381247Y-110803446D02*
X81476485Y-110327256D01*
X81809819Y-111232018D02*
X81143152Y-111232018D01*
X81333628Y-111232018D02*
X81238390Y-111279637D01*
X81238390Y-111279637D02*
X81190771Y-111327256D01*
X81190771Y-111327256D02*
X81143152Y-111422494D01*
X81143152Y-111422494D02*
X81143152Y-111517732D01*
X81428866Y-111851066D02*
X81428866Y-112612971D01*
X81809819Y-113089161D02*
X80809819Y-113089161D01*
X81190771Y-113089161D02*
X81143152Y-113184399D01*
X81143152Y-113184399D02*
X81143152Y-113374875D01*
X81143152Y-113374875D02*
X81190771Y-113470113D01*
X81190771Y-113470113D02*
X81238390Y-113517732D01*
X81238390Y-113517732D02*
X81333628Y-113565351D01*
X81333628Y-113565351D02*
X81619342Y-113565351D01*
X81619342Y-113565351D02*
X81714580Y-113517732D01*
X81714580Y-113517732D02*
X81762200Y-113470113D01*
X81762200Y-113470113D02*
X81809819Y-113374875D01*
X81809819Y-113374875D02*
X81809819Y-113184399D01*
X81809819Y-113184399D02*
X81762200Y-113089161D01*
X81762200Y-114374875D02*
X81809819Y-114279637D01*
X81809819Y-114279637D02*
X81809819Y-114089161D01*
X81809819Y-114089161D02*
X81762200Y-113993923D01*
X81762200Y-113993923D02*
X81666961Y-113946304D01*
X81666961Y-113946304D02*
X81286009Y-113946304D01*
X81286009Y-113946304D02*
X81190771Y-113993923D01*
X81190771Y-113993923D02*
X81143152Y-114089161D01*
X81143152Y-114089161D02*
X81143152Y-114279637D01*
X81143152Y-114279637D02*
X81190771Y-114374875D01*
X81190771Y-114374875D02*
X81286009Y-114422494D01*
X81286009Y-114422494D02*
X81381247Y-114422494D01*
X81381247Y-114422494D02*
X81476485Y-113946304D01*
X81762200Y-114803447D02*
X81809819Y-114898685D01*
X81809819Y-114898685D02*
X81809819Y-115089161D01*
X81809819Y-115089161D02*
X81762200Y-115184399D01*
X81762200Y-115184399D02*
X81666961Y-115232018D01*
X81666961Y-115232018D02*
X81619342Y-115232018D01*
X81619342Y-115232018D02*
X81524104Y-115184399D01*
X81524104Y-115184399D02*
X81476485Y-115089161D01*
X81476485Y-115089161D02*
X81476485Y-114946304D01*
X81476485Y-114946304D02*
X81428866Y-114851066D01*
X81428866Y-114851066D02*
X81333628Y-114803447D01*
X81333628Y-114803447D02*
X81286009Y-114803447D01*
X81286009Y-114803447D02*
X81190771Y-114851066D01*
X81190771Y-114851066D02*
X81143152Y-114946304D01*
X81143152Y-114946304D02*
X81143152Y-115089161D01*
X81143152Y-115089161D02*
X81190771Y-115184399D01*
X81762200Y-116089161D02*
X81809819Y-115993923D01*
X81809819Y-115993923D02*
X81809819Y-115803447D01*
X81809819Y-115803447D02*
X81762200Y-115708209D01*
X81762200Y-115708209D02*
X81714580Y-115660590D01*
X81714580Y-115660590D02*
X81619342Y-115612971D01*
X81619342Y-115612971D02*
X81333628Y-115612971D01*
X81333628Y-115612971D02*
X81238390Y-115660590D01*
X81238390Y-115660590D02*
X81190771Y-115708209D01*
X81190771Y-115708209D02*
X81143152Y-115803447D01*
X81143152Y-115803447D02*
X81143152Y-115993923D01*
X81143152Y-115993923D02*
X81190771Y-116089161D01*
X81809819Y-116517733D02*
X80809819Y-116517733D01*
X81809819Y-116946304D02*
X81286009Y-116946304D01*
X81286009Y-116946304D02*
X81190771Y-116898685D01*
X81190771Y-116898685D02*
X81143152Y-116803447D01*
X81143152Y-116803447D02*
X81143152Y-116660590D01*
X81143152Y-116660590D02*
X81190771Y-116565352D01*
X81190771Y-116565352D02*
X81238390Y-116517733D01*
X80762200Y-118136780D02*
X82047914Y-117279638D01*
X81809819Y-118470114D02*
X81143152Y-118470114D01*
X81238390Y-118470114D02*
X81190771Y-118517733D01*
X81190771Y-118517733D02*
X81143152Y-118612971D01*
X81143152Y-118612971D02*
X81143152Y-118755828D01*
X81143152Y-118755828D02*
X81190771Y-118851066D01*
X81190771Y-118851066D02*
X81286009Y-118898685D01*
X81286009Y-118898685D02*
X81809819Y-118898685D01*
X81286009Y-118898685D02*
X81190771Y-118946304D01*
X81190771Y-118946304D02*
X81143152Y-119041542D01*
X81143152Y-119041542D02*
X81143152Y-119184399D01*
X81143152Y-119184399D02*
X81190771Y-119279638D01*
X81190771Y-119279638D02*
X81286009Y-119327257D01*
X81286009Y-119327257D02*
X81809819Y-119327257D01*
X81809819Y-119946304D02*
X81762200Y-119851066D01*
X81762200Y-119851066D02*
X81714580Y-119803447D01*
X81714580Y-119803447D02*
X81619342Y-119755828D01*
X81619342Y-119755828D02*
X81333628Y-119755828D01*
X81333628Y-119755828D02*
X81238390Y-119803447D01*
X81238390Y-119803447D02*
X81190771Y-119851066D01*
X81190771Y-119851066D02*
X81143152Y-119946304D01*
X81143152Y-119946304D02*
X81143152Y-120089161D01*
X81143152Y-120089161D02*
X81190771Y-120184399D01*
X81190771Y-120184399D02*
X81238390Y-120232018D01*
X81238390Y-120232018D02*
X81333628Y-120279637D01*
X81333628Y-120279637D02*
X81619342Y-120279637D01*
X81619342Y-120279637D02*
X81714580Y-120232018D01*
X81714580Y-120232018D02*
X81762200Y-120184399D01*
X81762200Y-120184399D02*
X81809819Y-120089161D01*
X81809819Y-120089161D02*
X81809819Y-119946304D01*
X81809819Y-120851066D02*
X81762200Y-120755828D01*
X81762200Y-120755828D02*
X81666961Y-120708209D01*
X81666961Y-120708209D02*
X80809819Y-120708209D01*
X81809819Y-121660590D02*
X80809819Y-121660590D01*
X81762200Y-121660590D02*
X81809819Y-121565352D01*
X81809819Y-121565352D02*
X81809819Y-121374876D01*
X81809819Y-121374876D02*
X81762200Y-121279638D01*
X81762200Y-121279638D02*
X81714580Y-121232019D01*
X81714580Y-121232019D02*
X81619342Y-121184400D01*
X81619342Y-121184400D02*
X81333628Y-121184400D01*
X81333628Y-121184400D02*
X81238390Y-121232019D01*
X81238390Y-121232019D02*
X81190771Y-121279638D01*
X81190771Y-121279638D02*
X81143152Y-121374876D01*
X81143152Y-121374876D02*
X81143152Y-121565352D01*
X81143152Y-121565352D02*
X81190771Y-121660590D01*
X81905057Y-121898686D02*
X81905057Y-122660590D01*
X81809819Y-123327257D02*
X80809819Y-123327257D01*
X81762200Y-123327257D02*
X81809819Y-123232019D01*
X81809819Y-123232019D02*
X81809819Y-123041543D01*
X81809819Y-123041543D02*
X81762200Y-122946305D01*
X81762200Y-122946305D02*
X81714580Y-122898686D01*
X81714580Y-122898686D02*
X81619342Y-122851067D01*
X81619342Y-122851067D02*
X81333628Y-122851067D01*
X81333628Y-122851067D02*
X81238390Y-122898686D01*
X81238390Y-122898686D02*
X81190771Y-122946305D01*
X81190771Y-122946305D02*
X81143152Y-123041543D01*
X81143152Y-123041543D02*
X81143152Y-123232019D01*
X81143152Y-123232019D02*
X81190771Y-123327257D01*
X81762200Y-124184400D02*
X81809819Y-124089162D01*
X81809819Y-124089162D02*
X81809819Y-123898686D01*
X81809819Y-123898686D02*
X81762200Y-123803448D01*
X81762200Y-123803448D02*
X81666961Y-123755829D01*
X81666961Y-123755829D02*
X81286009Y-123755829D01*
X81286009Y-123755829D02*
X81190771Y-123803448D01*
X81190771Y-123803448D02*
X81143152Y-123898686D01*
X81143152Y-123898686D02*
X81143152Y-124089162D01*
X81143152Y-124089162D02*
X81190771Y-124184400D01*
X81190771Y-124184400D02*
X81286009Y-124232019D01*
X81286009Y-124232019D02*
X81381247Y-124232019D01*
X81381247Y-124232019D02*
X81476485Y-123755829D01*
X81143152Y-124517734D02*
X81143152Y-124898686D01*
X80809819Y-124660591D02*
X81666961Y-124660591D01*
X81666961Y-124660591D02*
X81762200Y-124708210D01*
X81762200Y-124708210D02*
X81809819Y-124803448D01*
X81809819Y-124803448D02*
X81809819Y-124898686D01*
X81762200Y-125612972D02*
X81809819Y-125517734D01*
X81809819Y-125517734D02*
X81809819Y-125327258D01*
X81809819Y-125327258D02*
X81762200Y-125232020D01*
X81762200Y-125232020D02*
X81666961Y-125184401D01*
X81666961Y-125184401D02*
X81286009Y-125184401D01*
X81286009Y-125184401D02*
X81190771Y-125232020D01*
X81190771Y-125232020D02*
X81143152Y-125327258D01*
X81143152Y-125327258D02*
X81143152Y-125517734D01*
X81143152Y-125517734D02*
X81190771Y-125612972D01*
X81190771Y-125612972D02*
X81286009Y-125660591D01*
X81286009Y-125660591D02*
X81381247Y-125660591D01*
X81381247Y-125660591D02*
X81476485Y-125184401D01*
X81762200Y-126517734D02*
X81809819Y-126422496D01*
X81809819Y-126422496D02*
X81809819Y-126232020D01*
X81809819Y-126232020D02*
X81762200Y-126136782D01*
X81762200Y-126136782D02*
X81714580Y-126089163D01*
X81714580Y-126089163D02*
X81619342Y-126041544D01*
X81619342Y-126041544D02*
X81333628Y-126041544D01*
X81333628Y-126041544D02*
X81238390Y-126089163D01*
X81238390Y-126089163D02*
X81190771Y-126136782D01*
X81190771Y-126136782D02*
X81143152Y-126232020D01*
X81143152Y-126232020D02*
X81143152Y-126422496D01*
X81143152Y-126422496D02*
X81190771Y-126517734D01*
X81143152Y-126803449D02*
X81143152Y-127184401D01*
X80809819Y-126946306D02*
X81666961Y-126946306D01*
X81666961Y-126946306D02*
X81762200Y-126993925D01*
X81762200Y-126993925D02*
X81809819Y-127089163D01*
X81809819Y-127089163D02*
X81809819Y-127184401D01*
X84934580Y-94708207D02*
X84982200Y-94660588D01*
X84982200Y-94660588D02*
X85029819Y-94517731D01*
X85029819Y-94517731D02*
X85029819Y-94422493D01*
X85029819Y-94422493D02*
X84982200Y-94279636D01*
X84982200Y-94279636D02*
X84886961Y-94184398D01*
X84886961Y-94184398D02*
X84791723Y-94136779D01*
X84791723Y-94136779D02*
X84601247Y-94089160D01*
X84601247Y-94089160D02*
X84458390Y-94089160D01*
X84458390Y-94089160D02*
X84267914Y-94136779D01*
X84267914Y-94136779D02*
X84172676Y-94184398D01*
X84172676Y-94184398D02*
X84077438Y-94279636D01*
X84077438Y-94279636D02*
X84029819Y-94422493D01*
X84029819Y-94422493D02*
X84029819Y-94517731D01*
X84029819Y-94517731D02*
X84077438Y-94660588D01*
X84077438Y-94660588D02*
X84125057Y-94708207D01*
X85029819Y-95136779D02*
X84029819Y-95136779D01*
X85029819Y-95565350D02*
X84506009Y-95565350D01*
X84506009Y-95565350D02*
X84410771Y-95517731D01*
X84410771Y-95517731D02*
X84363152Y-95422493D01*
X84363152Y-95422493D02*
X84363152Y-95279636D01*
X84363152Y-95279636D02*
X84410771Y-95184398D01*
X84410771Y-95184398D02*
X84458390Y-95136779D01*
X85029819Y-96041541D02*
X84363152Y-96041541D01*
X84553628Y-96041541D02*
X84458390Y-96089160D01*
X84458390Y-96089160D02*
X84410771Y-96136779D01*
X84410771Y-96136779D02*
X84363152Y-96232017D01*
X84363152Y-96232017D02*
X84363152Y-96327255D01*
X85029819Y-96660589D02*
X84363152Y-96660589D01*
X84029819Y-96660589D02*
X84077438Y-96612970D01*
X84077438Y-96612970D02*
X84125057Y-96660589D01*
X84125057Y-96660589D02*
X84077438Y-96708208D01*
X84077438Y-96708208D02*
X84029819Y-96660589D01*
X84029819Y-96660589D02*
X84125057Y-96660589D01*
X84982200Y-97089160D02*
X85029819Y-97184398D01*
X85029819Y-97184398D02*
X85029819Y-97374874D01*
X85029819Y-97374874D02*
X84982200Y-97470112D01*
X84982200Y-97470112D02*
X84886961Y-97517731D01*
X84886961Y-97517731D02*
X84839342Y-97517731D01*
X84839342Y-97517731D02*
X84744104Y-97470112D01*
X84744104Y-97470112D02*
X84696485Y-97374874D01*
X84696485Y-97374874D02*
X84696485Y-97232017D01*
X84696485Y-97232017D02*
X84648866Y-97136779D01*
X84648866Y-97136779D02*
X84553628Y-97089160D01*
X84553628Y-97089160D02*
X84506009Y-97089160D01*
X84506009Y-97089160D02*
X84410771Y-97136779D01*
X84410771Y-97136779D02*
X84363152Y-97232017D01*
X84363152Y-97232017D02*
X84363152Y-97374874D01*
X84363152Y-97374874D02*
X84410771Y-97470112D01*
X84363152Y-97803446D02*
X84363152Y-98184398D01*
X84029819Y-97946303D02*
X84886961Y-97946303D01*
X84886961Y-97946303D02*
X84982200Y-97993922D01*
X84982200Y-97993922D02*
X85029819Y-98089160D01*
X85029819Y-98089160D02*
X85029819Y-98184398D01*
X85029819Y-98660589D02*
X84982200Y-98565351D01*
X84982200Y-98565351D02*
X84934580Y-98517732D01*
X84934580Y-98517732D02*
X84839342Y-98470113D01*
X84839342Y-98470113D02*
X84553628Y-98470113D01*
X84553628Y-98470113D02*
X84458390Y-98517732D01*
X84458390Y-98517732D02*
X84410771Y-98565351D01*
X84410771Y-98565351D02*
X84363152Y-98660589D01*
X84363152Y-98660589D02*
X84363152Y-98803446D01*
X84363152Y-98803446D02*
X84410771Y-98898684D01*
X84410771Y-98898684D02*
X84458390Y-98946303D01*
X84458390Y-98946303D02*
X84553628Y-98993922D01*
X84553628Y-98993922D02*
X84839342Y-98993922D01*
X84839342Y-98993922D02*
X84934580Y-98946303D01*
X84934580Y-98946303D02*
X84982200Y-98898684D01*
X84982200Y-98898684D02*
X85029819Y-98803446D01*
X85029819Y-98803446D02*
X85029819Y-98660589D01*
X84363152Y-99422494D02*
X85363152Y-99422494D01*
X84410771Y-99422494D02*
X84363152Y-99517732D01*
X84363152Y-99517732D02*
X84363152Y-99708208D01*
X84363152Y-99708208D02*
X84410771Y-99803446D01*
X84410771Y-99803446D02*
X84458390Y-99851065D01*
X84458390Y-99851065D02*
X84553628Y-99898684D01*
X84553628Y-99898684D02*
X84839342Y-99898684D01*
X84839342Y-99898684D02*
X84934580Y-99851065D01*
X84934580Y-99851065D02*
X84982200Y-99803446D01*
X84982200Y-99803446D02*
X85029819Y-99708208D01*
X85029819Y-99708208D02*
X85029819Y-99517732D01*
X85029819Y-99517732D02*
X84982200Y-99422494D01*
X85029819Y-100327256D02*
X84029819Y-100327256D01*
X85029819Y-100755827D02*
X84506009Y-100755827D01*
X84506009Y-100755827D02*
X84410771Y-100708208D01*
X84410771Y-100708208D02*
X84363152Y-100612970D01*
X84363152Y-100612970D02*
X84363152Y-100470113D01*
X84363152Y-100470113D02*
X84410771Y-100374875D01*
X84410771Y-100374875D02*
X84458390Y-100327256D01*
X84982200Y-101612970D02*
X85029819Y-101517732D01*
X85029819Y-101517732D02*
X85029819Y-101327256D01*
X85029819Y-101327256D02*
X84982200Y-101232018D01*
X84982200Y-101232018D02*
X84886961Y-101184399D01*
X84886961Y-101184399D02*
X84506009Y-101184399D01*
X84506009Y-101184399D02*
X84410771Y-101232018D01*
X84410771Y-101232018D02*
X84363152Y-101327256D01*
X84363152Y-101327256D02*
X84363152Y-101517732D01*
X84363152Y-101517732D02*
X84410771Y-101612970D01*
X84410771Y-101612970D02*
X84506009Y-101660589D01*
X84506009Y-101660589D02*
X84601247Y-101660589D01*
X84601247Y-101660589D02*
X84696485Y-101184399D01*
X85029819Y-102089161D02*
X84363152Y-102089161D01*
X84553628Y-102089161D02*
X84458390Y-102136780D01*
X84458390Y-102136780D02*
X84410771Y-102184399D01*
X84410771Y-102184399D02*
X84363152Y-102279637D01*
X84363152Y-102279637D02*
X84363152Y-102374875D01*
X84506009Y-103803447D02*
X84553628Y-103946304D01*
X84553628Y-103946304D02*
X84601247Y-103993923D01*
X84601247Y-103993923D02*
X84696485Y-104041542D01*
X84696485Y-104041542D02*
X84839342Y-104041542D01*
X84839342Y-104041542D02*
X84934580Y-103993923D01*
X84934580Y-103993923D02*
X84982200Y-103946304D01*
X84982200Y-103946304D02*
X85029819Y-103851066D01*
X85029819Y-103851066D02*
X85029819Y-103470114D01*
X85029819Y-103470114D02*
X84029819Y-103470114D01*
X84029819Y-103470114D02*
X84029819Y-103803447D01*
X84029819Y-103803447D02*
X84077438Y-103898685D01*
X84077438Y-103898685D02*
X84125057Y-103946304D01*
X84125057Y-103946304D02*
X84220295Y-103993923D01*
X84220295Y-103993923D02*
X84315533Y-103993923D01*
X84315533Y-103993923D02*
X84410771Y-103946304D01*
X84410771Y-103946304D02*
X84458390Y-103898685D01*
X84458390Y-103898685D02*
X84506009Y-103803447D01*
X84506009Y-103803447D02*
X84506009Y-103470114D01*
X84982200Y-104851066D02*
X85029819Y-104755828D01*
X85029819Y-104755828D02*
X85029819Y-104565352D01*
X85029819Y-104565352D02*
X84982200Y-104470114D01*
X84982200Y-104470114D02*
X84886961Y-104422495D01*
X84886961Y-104422495D02*
X84506009Y-104422495D01*
X84506009Y-104422495D02*
X84410771Y-104470114D01*
X84410771Y-104470114D02*
X84363152Y-104565352D01*
X84363152Y-104565352D02*
X84363152Y-104755828D01*
X84363152Y-104755828D02*
X84410771Y-104851066D01*
X84410771Y-104851066D02*
X84506009Y-104898685D01*
X84506009Y-104898685D02*
X84601247Y-104898685D01*
X84601247Y-104898685D02*
X84696485Y-104422495D01*
X84982200Y-105279638D02*
X85029819Y-105374876D01*
X85029819Y-105374876D02*
X85029819Y-105565352D01*
X85029819Y-105565352D02*
X84982200Y-105660590D01*
X84982200Y-105660590D02*
X84886961Y-105708209D01*
X84886961Y-105708209D02*
X84839342Y-105708209D01*
X84839342Y-105708209D02*
X84744104Y-105660590D01*
X84744104Y-105660590D02*
X84696485Y-105565352D01*
X84696485Y-105565352D02*
X84696485Y-105422495D01*
X84696485Y-105422495D02*
X84648866Y-105327257D01*
X84648866Y-105327257D02*
X84553628Y-105279638D01*
X84553628Y-105279638D02*
X84506009Y-105279638D01*
X84506009Y-105279638D02*
X84410771Y-105327257D01*
X84410771Y-105327257D02*
X84363152Y-105422495D01*
X84363152Y-105422495D02*
X84363152Y-105565352D01*
X84363152Y-105565352D02*
X84410771Y-105660590D01*
X84982200Y-106565352D02*
X85029819Y-106470114D01*
X85029819Y-106470114D02*
X85029819Y-106279638D01*
X85029819Y-106279638D02*
X84982200Y-106184400D01*
X84982200Y-106184400D02*
X84934580Y-106136781D01*
X84934580Y-106136781D02*
X84839342Y-106089162D01*
X84839342Y-106089162D02*
X84553628Y-106089162D01*
X84553628Y-106089162D02*
X84458390Y-106136781D01*
X84458390Y-106136781D02*
X84410771Y-106184400D01*
X84410771Y-106184400D02*
X84363152Y-106279638D01*
X84363152Y-106279638D02*
X84363152Y-106470114D01*
X84363152Y-106470114D02*
X84410771Y-106565352D01*
X85029819Y-106993924D02*
X84029819Y-106993924D01*
X85029819Y-107422495D02*
X84506009Y-107422495D01*
X84506009Y-107422495D02*
X84410771Y-107374876D01*
X84410771Y-107374876D02*
X84363152Y-107279638D01*
X84363152Y-107279638D02*
X84363152Y-107136781D01*
X84363152Y-107136781D02*
X84410771Y-107041543D01*
X84410771Y-107041543D02*
X84458390Y-106993924D01*
X84363152Y-109422496D02*
X84648866Y-108660591D01*
X84648866Y-108660591D02*
X84934580Y-109422496D01*
X85029819Y-109898686D02*
X84363152Y-109898686D01*
X84458390Y-109898686D02*
X84410771Y-109946305D01*
X84410771Y-109946305D02*
X84363152Y-110041543D01*
X84363152Y-110041543D02*
X84363152Y-110184400D01*
X84363152Y-110184400D02*
X84410771Y-110279638D01*
X84410771Y-110279638D02*
X84506009Y-110327257D01*
X84506009Y-110327257D02*
X85029819Y-110327257D01*
X84506009Y-110327257D02*
X84410771Y-110374876D01*
X84410771Y-110374876D02*
X84363152Y-110470114D01*
X84363152Y-110470114D02*
X84363152Y-110612971D01*
X84363152Y-110612971D02*
X84410771Y-110708210D01*
X84410771Y-110708210D02*
X84506009Y-110755829D01*
X84506009Y-110755829D02*
X85029819Y-110755829D01*
X85029819Y-111660590D02*
X84506009Y-111660590D01*
X84506009Y-111660590D02*
X84410771Y-111612971D01*
X84410771Y-111612971D02*
X84363152Y-111517733D01*
X84363152Y-111517733D02*
X84363152Y-111327257D01*
X84363152Y-111327257D02*
X84410771Y-111232019D01*
X84982200Y-111660590D02*
X85029819Y-111565352D01*
X85029819Y-111565352D02*
X85029819Y-111327257D01*
X85029819Y-111327257D02*
X84982200Y-111232019D01*
X84982200Y-111232019D02*
X84886961Y-111184400D01*
X84886961Y-111184400D02*
X84791723Y-111184400D01*
X84791723Y-111184400D02*
X84696485Y-111232019D01*
X84696485Y-111232019D02*
X84648866Y-111327257D01*
X84648866Y-111327257D02*
X84648866Y-111565352D01*
X84648866Y-111565352D02*
X84601247Y-111660590D01*
X85029819Y-112136781D02*
X84363152Y-112136781D01*
X84029819Y-112136781D02*
X84077438Y-112089162D01*
X84077438Y-112089162D02*
X84125057Y-112136781D01*
X84125057Y-112136781D02*
X84077438Y-112184400D01*
X84077438Y-112184400D02*
X84029819Y-112136781D01*
X84029819Y-112136781D02*
X84125057Y-112136781D01*
X85029819Y-112755828D02*
X84982200Y-112660590D01*
X84982200Y-112660590D02*
X84886961Y-112612971D01*
X84886961Y-112612971D02*
X84029819Y-112612971D01*
X84553628Y-113755828D02*
X84506009Y-113708209D01*
X84506009Y-113708209D02*
X84458390Y-113612971D01*
X84458390Y-113612971D02*
X84458390Y-113517733D01*
X84458390Y-113517733D02*
X84506009Y-113422495D01*
X84506009Y-113422495D02*
X84553628Y-113374876D01*
X84553628Y-113374876D02*
X84648866Y-113327257D01*
X84648866Y-113327257D02*
X84744104Y-113327257D01*
X84744104Y-113327257D02*
X84839342Y-113374876D01*
X84839342Y-113374876D02*
X84886961Y-113422495D01*
X84886961Y-113422495D02*
X84934580Y-113517733D01*
X84934580Y-113517733D02*
X84934580Y-113612971D01*
X84934580Y-113612971D02*
X84886961Y-113708209D01*
X84886961Y-113708209D02*
X84839342Y-113755828D01*
X84458390Y-113755828D02*
X84839342Y-113755828D01*
X84839342Y-113755828D02*
X84886961Y-113803447D01*
X84886961Y-113803447D02*
X84886961Y-113851066D01*
X84886961Y-113851066D02*
X84839342Y-113946305D01*
X84839342Y-113946305D02*
X84744104Y-113993924D01*
X84744104Y-113993924D02*
X84506009Y-113993924D01*
X84506009Y-113993924D02*
X84363152Y-113898686D01*
X84363152Y-113898686D02*
X84267914Y-113755828D01*
X84267914Y-113755828D02*
X84220295Y-113565352D01*
X84220295Y-113565352D02*
X84267914Y-113374876D01*
X84267914Y-113374876D02*
X84363152Y-113232019D01*
X84363152Y-113232019D02*
X84506009Y-113136781D01*
X84506009Y-113136781D02*
X84696485Y-113089162D01*
X84696485Y-113089162D02*
X84886961Y-113136781D01*
X84886961Y-113136781D02*
X85029819Y-113232019D01*
X85029819Y-113232019D02*
X85125057Y-113374876D01*
X85125057Y-113374876D02*
X85172676Y-113565352D01*
X85172676Y-113565352D02*
X85125057Y-113755828D01*
X85125057Y-113755828D02*
X85029819Y-113898686D01*
X84982200Y-114851066D02*
X85029819Y-114755828D01*
X85029819Y-114755828D02*
X85029819Y-114565352D01*
X85029819Y-114565352D02*
X84982200Y-114470114D01*
X84982200Y-114470114D02*
X84934580Y-114422495D01*
X84934580Y-114422495D02*
X84839342Y-114374876D01*
X84839342Y-114374876D02*
X84553628Y-114374876D01*
X84553628Y-114374876D02*
X84458390Y-114422495D01*
X84458390Y-114422495D02*
X84410771Y-114470114D01*
X84410771Y-114470114D02*
X84363152Y-114565352D01*
X84363152Y-114565352D02*
X84363152Y-114755828D01*
X84363152Y-114755828D02*
X84410771Y-114851066D01*
X85029819Y-115279638D02*
X84029819Y-115279638D01*
X85029819Y-115708209D02*
X84506009Y-115708209D01*
X84506009Y-115708209D02*
X84410771Y-115660590D01*
X84410771Y-115660590D02*
X84363152Y-115565352D01*
X84363152Y-115565352D02*
X84363152Y-115422495D01*
X84363152Y-115422495D02*
X84410771Y-115327257D01*
X84410771Y-115327257D02*
X84458390Y-115279638D01*
X85029819Y-116184400D02*
X84363152Y-116184400D01*
X84553628Y-116184400D02*
X84458390Y-116232019D01*
X84458390Y-116232019D02*
X84410771Y-116279638D01*
X84410771Y-116279638D02*
X84363152Y-116374876D01*
X84363152Y-116374876D02*
X84363152Y-116470114D01*
X85029819Y-116803448D02*
X84363152Y-116803448D01*
X84029819Y-116803448D02*
X84077438Y-116755829D01*
X84077438Y-116755829D02*
X84125057Y-116803448D01*
X84125057Y-116803448D02*
X84077438Y-116851067D01*
X84077438Y-116851067D02*
X84029819Y-116803448D01*
X84029819Y-116803448D02*
X84125057Y-116803448D01*
X84982200Y-117232019D02*
X85029819Y-117327257D01*
X85029819Y-117327257D02*
X85029819Y-117517733D01*
X85029819Y-117517733D02*
X84982200Y-117612971D01*
X84982200Y-117612971D02*
X84886961Y-117660590D01*
X84886961Y-117660590D02*
X84839342Y-117660590D01*
X84839342Y-117660590D02*
X84744104Y-117612971D01*
X84744104Y-117612971D02*
X84696485Y-117517733D01*
X84696485Y-117517733D02*
X84696485Y-117374876D01*
X84696485Y-117374876D02*
X84648866Y-117279638D01*
X84648866Y-117279638D02*
X84553628Y-117232019D01*
X84553628Y-117232019D02*
X84506009Y-117232019D01*
X84506009Y-117232019D02*
X84410771Y-117279638D01*
X84410771Y-117279638D02*
X84363152Y-117374876D01*
X84363152Y-117374876D02*
X84363152Y-117517733D01*
X84363152Y-117517733D02*
X84410771Y-117612971D01*
X84648866Y-118089162D02*
X84648866Y-118851067D01*
X85029819Y-119327257D02*
X84029819Y-119327257D01*
X84410771Y-119327257D02*
X84363152Y-119422495D01*
X84363152Y-119422495D02*
X84363152Y-119612971D01*
X84363152Y-119612971D02*
X84410771Y-119708209D01*
X84410771Y-119708209D02*
X84458390Y-119755828D01*
X84458390Y-119755828D02*
X84553628Y-119803447D01*
X84553628Y-119803447D02*
X84839342Y-119803447D01*
X84839342Y-119803447D02*
X84934580Y-119755828D01*
X84934580Y-119755828D02*
X84982200Y-119708209D01*
X84982200Y-119708209D02*
X85029819Y-119612971D01*
X85029819Y-119612971D02*
X85029819Y-119422495D01*
X85029819Y-119422495D02*
X84982200Y-119327257D01*
X84982200Y-120612971D02*
X85029819Y-120517733D01*
X85029819Y-120517733D02*
X85029819Y-120327257D01*
X85029819Y-120327257D02*
X84982200Y-120232019D01*
X84982200Y-120232019D02*
X84886961Y-120184400D01*
X84886961Y-120184400D02*
X84506009Y-120184400D01*
X84506009Y-120184400D02*
X84410771Y-120232019D01*
X84410771Y-120232019D02*
X84363152Y-120327257D01*
X84363152Y-120327257D02*
X84363152Y-120517733D01*
X84363152Y-120517733D02*
X84410771Y-120612971D01*
X84410771Y-120612971D02*
X84506009Y-120660590D01*
X84506009Y-120660590D02*
X84601247Y-120660590D01*
X84601247Y-120660590D02*
X84696485Y-120184400D01*
X84982200Y-121041543D02*
X85029819Y-121136781D01*
X85029819Y-121136781D02*
X85029819Y-121327257D01*
X85029819Y-121327257D02*
X84982200Y-121422495D01*
X84982200Y-121422495D02*
X84886961Y-121470114D01*
X84886961Y-121470114D02*
X84839342Y-121470114D01*
X84839342Y-121470114D02*
X84744104Y-121422495D01*
X84744104Y-121422495D02*
X84696485Y-121327257D01*
X84696485Y-121327257D02*
X84696485Y-121184400D01*
X84696485Y-121184400D02*
X84648866Y-121089162D01*
X84648866Y-121089162D02*
X84553628Y-121041543D01*
X84553628Y-121041543D02*
X84506009Y-121041543D01*
X84506009Y-121041543D02*
X84410771Y-121089162D01*
X84410771Y-121089162D02*
X84363152Y-121184400D01*
X84363152Y-121184400D02*
X84363152Y-121327257D01*
X84363152Y-121327257D02*
X84410771Y-121422495D01*
X84982200Y-122327257D02*
X85029819Y-122232019D01*
X85029819Y-122232019D02*
X85029819Y-122041543D01*
X85029819Y-122041543D02*
X84982200Y-121946305D01*
X84982200Y-121946305D02*
X84934580Y-121898686D01*
X84934580Y-121898686D02*
X84839342Y-121851067D01*
X84839342Y-121851067D02*
X84553628Y-121851067D01*
X84553628Y-121851067D02*
X84458390Y-121898686D01*
X84458390Y-121898686D02*
X84410771Y-121946305D01*
X84410771Y-121946305D02*
X84363152Y-122041543D01*
X84363152Y-122041543D02*
X84363152Y-122232019D01*
X84363152Y-122232019D02*
X84410771Y-122327257D01*
X85029819Y-122755829D02*
X84029819Y-122755829D01*
X85029819Y-123184400D02*
X84506009Y-123184400D01*
X84506009Y-123184400D02*
X84410771Y-123136781D01*
X84410771Y-123136781D02*
X84363152Y-123041543D01*
X84363152Y-123041543D02*
X84363152Y-122898686D01*
X84363152Y-122898686D02*
X84410771Y-122803448D01*
X84410771Y-122803448D02*
X84458390Y-122755829D01*
X84934580Y-123660591D02*
X84982200Y-123708210D01*
X84982200Y-123708210D02*
X85029819Y-123660591D01*
X85029819Y-123660591D02*
X84982200Y-123612972D01*
X84982200Y-123612972D02*
X84934580Y-123660591D01*
X84934580Y-123660591D02*
X85029819Y-123660591D01*
X84982200Y-124565352D02*
X85029819Y-124470114D01*
X85029819Y-124470114D02*
X85029819Y-124279638D01*
X85029819Y-124279638D02*
X84982200Y-124184400D01*
X84982200Y-124184400D02*
X84934580Y-124136781D01*
X84934580Y-124136781D02*
X84839342Y-124089162D01*
X84839342Y-124089162D02*
X84553628Y-124089162D01*
X84553628Y-124089162D02*
X84458390Y-124136781D01*
X84458390Y-124136781D02*
X84410771Y-124184400D01*
X84410771Y-124184400D02*
X84363152Y-124279638D01*
X84363152Y-124279638D02*
X84363152Y-124470114D01*
X84363152Y-124470114D02*
X84410771Y-124565352D01*
X85029819Y-125136781D02*
X84982200Y-125041543D01*
X84982200Y-125041543D02*
X84934580Y-124993924D01*
X84934580Y-124993924D02*
X84839342Y-124946305D01*
X84839342Y-124946305D02*
X84553628Y-124946305D01*
X84553628Y-124946305D02*
X84458390Y-124993924D01*
X84458390Y-124993924D02*
X84410771Y-125041543D01*
X84410771Y-125041543D02*
X84363152Y-125136781D01*
X84363152Y-125136781D02*
X84363152Y-125279638D01*
X84363152Y-125279638D02*
X84410771Y-125374876D01*
X84410771Y-125374876D02*
X84458390Y-125422495D01*
X84458390Y-125422495D02*
X84553628Y-125470114D01*
X84553628Y-125470114D02*
X84839342Y-125470114D01*
X84839342Y-125470114D02*
X84934580Y-125422495D01*
X84934580Y-125422495D02*
X84982200Y-125374876D01*
X84982200Y-125374876D02*
X85029819Y-125279638D01*
X85029819Y-125279638D02*
X85029819Y-125136781D01*
X85029819Y-125898686D02*
X84363152Y-125898686D01*
X84458390Y-125898686D02*
X84410771Y-125946305D01*
X84410771Y-125946305D02*
X84363152Y-126041543D01*
X84363152Y-126041543D02*
X84363152Y-126184400D01*
X84363152Y-126184400D02*
X84410771Y-126279638D01*
X84410771Y-126279638D02*
X84506009Y-126327257D01*
X84506009Y-126327257D02*
X85029819Y-126327257D01*
X84506009Y-126327257D02*
X84410771Y-126374876D01*
X84410771Y-126374876D02*
X84363152Y-126470114D01*
X84363152Y-126470114D02*
X84363152Y-126612971D01*
X84363152Y-126612971D02*
X84410771Y-126708210D01*
X84410771Y-126708210D02*
X84506009Y-126755829D01*
X84506009Y-126755829D02*
X85029819Y-126755829D01*
X84363152Y-127232019D02*
X84648866Y-127993924D01*
X84648866Y-127993924D02*
X84934580Y-127232019D01*
X86639819Y-94565350D02*
X85639819Y-94565350D01*
X86592200Y-94565350D02*
X86639819Y-94470112D01*
X86639819Y-94470112D02*
X86639819Y-94279636D01*
X86639819Y-94279636D02*
X86592200Y-94184398D01*
X86592200Y-94184398D02*
X86544580Y-94136779D01*
X86544580Y-94136779D02*
X86449342Y-94089160D01*
X86449342Y-94089160D02*
X86163628Y-94089160D01*
X86163628Y-94089160D02*
X86068390Y-94136779D01*
X86068390Y-94136779D02*
X86020771Y-94184398D01*
X86020771Y-94184398D02*
X85973152Y-94279636D01*
X85973152Y-94279636D02*
X85973152Y-94470112D01*
X85973152Y-94470112D02*
X86020771Y-94565350D01*
X86592200Y-95422493D02*
X86639819Y-95327255D01*
X86639819Y-95327255D02*
X86639819Y-95136779D01*
X86639819Y-95136779D02*
X86592200Y-95041541D01*
X86592200Y-95041541D02*
X86496961Y-94993922D01*
X86496961Y-94993922D02*
X86116009Y-94993922D01*
X86116009Y-94993922D02*
X86020771Y-95041541D01*
X86020771Y-95041541D02*
X85973152Y-95136779D01*
X85973152Y-95136779D02*
X85973152Y-95327255D01*
X85973152Y-95327255D02*
X86020771Y-95422493D01*
X86020771Y-95422493D02*
X86116009Y-95470112D01*
X86116009Y-95470112D02*
X86211247Y-95470112D01*
X86211247Y-95470112D02*
X86306485Y-94993922D01*
X86592200Y-95851065D02*
X86639819Y-95946303D01*
X86639819Y-95946303D02*
X86639819Y-96136779D01*
X86639819Y-96136779D02*
X86592200Y-96232017D01*
X86592200Y-96232017D02*
X86496961Y-96279636D01*
X86496961Y-96279636D02*
X86449342Y-96279636D01*
X86449342Y-96279636D02*
X86354104Y-96232017D01*
X86354104Y-96232017D02*
X86306485Y-96136779D01*
X86306485Y-96136779D02*
X86306485Y-95993922D01*
X86306485Y-95993922D02*
X86258866Y-95898684D01*
X86258866Y-95898684D02*
X86163628Y-95851065D01*
X86163628Y-95851065D02*
X86116009Y-95851065D01*
X86116009Y-95851065D02*
X86020771Y-95898684D01*
X86020771Y-95898684D02*
X85973152Y-95993922D01*
X85973152Y-95993922D02*
X85973152Y-96136779D01*
X85973152Y-96136779D02*
X86020771Y-96232017D01*
X86639819Y-96708208D02*
X85973152Y-96708208D01*
X85639819Y-96708208D02*
X85687438Y-96660589D01*
X85687438Y-96660589D02*
X85735057Y-96708208D01*
X85735057Y-96708208D02*
X85687438Y-96755827D01*
X85687438Y-96755827D02*
X85639819Y-96708208D01*
X85639819Y-96708208D02*
X85735057Y-96708208D01*
X85973152Y-97612969D02*
X86782676Y-97612969D01*
X86782676Y-97612969D02*
X86877914Y-97565350D01*
X86877914Y-97565350D02*
X86925533Y-97517731D01*
X86925533Y-97517731D02*
X86973152Y-97422493D01*
X86973152Y-97422493D02*
X86973152Y-97279636D01*
X86973152Y-97279636D02*
X86925533Y-97184398D01*
X86592200Y-97612969D02*
X86639819Y-97517731D01*
X86639819Y-97517731D02*
X86639819Y-97327255D01*
X86639819Y-97327255D02*
X86592200Y-97232017D01*
X86592200Y-97232017D02*
X86544580Y-97184398D01*
X86544580Y-97184398D02*
X86449342Y-97136779D01*
X86449342Y-97136779D02*
X86163628Y-97136779D01*
X86163628Y-97136779D02*
X86068390Y-97184398D01*
X86068390Y-97184398D02*
X86020771Y-97232017D01*
X86020771Y-97232017D02*
X85973152Y-97327255D01*
X85973152Y-97327255D02*
X85973152Y-97517731D01*
X85973152Y-97517731D02*
X86020771Y-97612969D01*
X85973152Y-98089160D02*
X86639819Y-98089160D01*
X86068390Y-98089160D02*
X86020771Y-98136779D01*
X86020771Y-98136779D02*
X85973152Y-98232017D01*
X85973152Y-98232017D02*
X85973152Y-98374874D01*
X85973152Y-98374874D02*
X86020771Y-98470112D01*
X86020771Y-98470112D02*
X86116009Y-98517731D01*
X86116009Y-98517731D02*
X86639819Y-98517731D01*
X86592200Y-99374874D02*
X86639819Y-99279636D01*
X86639819Y-99279636D02*
X86639819Y-99089160D01*
X86639819Y-99089160D02*
X86592200Y-98993922D01*
X86592200Y-98993922D02*
X86496961Y-98946303D01*
X86496961Y-98946303D02*
X86116009Y-98946303D01*
X86116009Y-98946303D02*
X86020771Y-98993922D01*
X86020771Y-98993922D02*
X85973152Y-99089160D01*
X85973152Y-99089160D02*
X85973152Y-99279636D01*
X85973152Y-99279636D02*
X86020771Y-99374874D01*
X86020771Y-99374874D02*
X86116009Y-99422493D01*
X86116009Y-99422493D02*
X86211247Y-99422493D01*
X86211247Y-99422493D02*
X86306485Y-98946303D01*
X86639819Y-100279636D02*
X85639819Y-100279636D01*
X86592200Y-100279636D02*
X86639819Y-100184398D01*
X86639819Y-100184398D02*
X86639819Y-99993922D01*
X86639819Y-99993922D02*
X86592200Y-99898684D01*
X86592200Y-99898684D02*
X86544580Y-99851065D01*
X86544580Y-99851065D02*
X86449342Y-99803446D01*
X86449342Y-99803446D02*
X86163628Y-99803446D01*
X86163628Y-99803446D02*
X86068390Y-99851065D01*
X86068390Y-99851065D02*
X86020771Y-99898684D01*
X86020771Y-99898684D02*
X85973152Y-99993922D01*
X85973152Y-99993922D02*
X85973152Y-100184398D01*
X85973152Y-100184398D02*
X86020771Y-100279636D01*
X86639819Y-101946303D02*
X86116009Y-101946303D01*
X86116009Y-101946303D02*
X86020771Y-101898684D01*
X86020771Y-101898684D02*
X85973152Y-101803446D01*
X85973152Y-101803446D02*
X85973152Y-101612970D01*
X85973152Y-101612970D02*
X86020771Y-101517732D01*
X86592200Y-101946303D02*
X86639819Y-101851065D01*
X86639819Y-101851065D02*
X86639819Y-101612970D01*
X86639819Y-101612970D02*
X86592200Y-101517732D01*
X86592200Y-101517732D02*
X86496961Y-101470113D01*
X86496961Y-101470113D02*
X86401723Y-101470113D01*
X86401723Y-101470113D02*
X86306485Y-101517732D01*
X86306485Y-101517732D02*
X86258866Y-101612970D01*
X86258866Y-101612970D02*
X86258866Y-101851065D01*
X86258866Y-101851065D02*
X86211247Y-101946303D01*
X85973152Y-102279637D02*
X85973152Y-102660589D01*
X85639819Y-102422494D02*
X86496961Y-102422494D01*
X86496961Y-102422494D02*
X86592200Y-102470113D01*
X86592200Y-102470113D02*
X86639819Y-102565351D01*
X86639819Y-102565351D02*
X86639819Y-102660589D01*
X86544580Y-104327256D02*
X86592200Y-104279637D01*
X86592200Y-104279637D02*
X86639819Y-104136780D01*
X86639819Y-104136780D02*
X86639819Y-104041542D01*
X86639819Y-104041542D02*
X86592200Y-103898685D01*
X86592200Y-103898685D02*
X86496961Y-103803447D01*
X86496961Y-103803447D02*
X86401723Y-103755828D01*
X86401723Y-103755828D02*
X86211247Y-103708209D01*
X86211247Y-103708209D02*
X86068390Y-103708209D01*
X86068390Y-103708209D02*
X85877914Y-103755828D01*
X85877914Y-103755828D02*
X85782676Y-103803447D01*
X85782676Y-103803447D02*
X85687438Y-103898685D01*
X85687438Y-103898685D02*
X85639819Y-104041542D01*
X85639819Y-104041542D02*
X85639819Y-104136780D01*
X85639819Y-104136780D02*
X85687438Y-104279637D01*
X85687438Y-104279637D02*
X85735057Y-104327256D01*
X86639819Y-104755828D02*
X85639819Y-104755828D01*
X86639819Y-105184399D02*
X86116009Y-105184399D01*
X86116009Y-105184399D02*
X86020771Y-105136780D01*
X86020771Y-105136780D02*
X85973152Y-105041542D01*
X85973152Y-105041542D02*
X85973152Y-104898685D01*
X85973152Y-104898685D02*
X86020771Y-104803447D01*
X86020771Y-104803447D02*
X86068390Y-104755828D01*
X86639819Y-106089161D02*
X86116009Y-106089161D01*
X86116009Y-106089161D02*
X86020771Y-106041542D01*
X86020771Y-106041542D02*
X85973152Y-105946304D01*
X85973152Y-105946304D02*
X85973152Y-105755828D01*
X85973152Y-105755828D02*
X86020771Y-105660590D01*
X86592200Y-106089161D02*
X86639819Y-105993923D01*
X86639819Y-105993923D02*
X86639819Y-105755828D01*
X86639819Y-105755828D02*
X86592200Y-105660590D01*
X86592200Y-105660590D02*
X86496961Y-105612971D01*
X86496961Y-105612971D02*
X86401723Y-105612971D01*
X86401723Y-105612971D02*
X86306485Y-105660590D01*
X86306485Y-105660590D02*
X86258866Y-105755828D01*
X86258866Y-105755828D02*
X86258866Y-105993923D01*
X86258866Y-105993923D02*
X86211247Y-106089161D01*
X86639819Y-106565352D02*
X85973152Y-106565352D01*
X85639819Y-106565352D02*
X85687438Y-106517733D01*
X85687438Y-106517733D02*
X85735057Y-106565352D01*
X85735057Y-106565352D02*
X85687438Y-106612971D01*
X85687438Y-106612971D02*
X85639819Y-106565352D01*
X85639819Y-106565352D02*
X85735057Y-106565352D01*
X86639819Y-107041542D02*
X85973152Y-107041542D01*
X86163628Y-107041542D02*
X86068390Y-107089161D01*
X86068390Y-107089161D02*
X86020771Y-107136780D01*
X86020771Y-107136780D02*
X85973152Y-107232018D01*
X85973152Y-107232018D02*
X85973152Y-107327256D01*
X85973152Y-108279638D02*
X85973152Y-108660590D01*
X86639819Y-108422495D02*
X85782676Y-108422495D01*
X85782676Y-108422495D02*
X85687438Y-108470114D01*
X85687438Y-108470114D02*
X85639819Y-108565352D01*
X85639819Y-108565352D02*
X85639819Y-108660590D01*
X86639819Y-109136781D02*
X86592200Y-109041543D01*
X86592200Y-109041543D02*
X86544580Y-108993924D01*
X86544580Y-108993924D02*
X86449342Y-108946305D01*
X86449342Y-108946305D02*
X86163628Y-108946305D01*
X86163628Y-108946305D02*
X86068390Y-108993924D01*
X86068390Y-108993924D02*
X86020771Y-109041543D01*
X86020771Y-109041543D02*
X85973152Y-109136781D01*
X85973152Y-109136781D02*
X85973152Y-109279638D01*
X85973152Y-109279638D02*
X86020771Y-109374876D01*
X86020771Y-109374876D02*
X86068390Y-109422495D01*
X86068390Y-109422495D02*
X86163628Y-109470114D01*
X86163628Y-109470114D02*
X86449342Y-109470114D01*
X86449342Y-109470114D02*
X86544580Y-109422495D01*
X86544580Y-109422495D02*
X86592200Y-109374876D01*
X86592200Y-109374876D02*
X86639819Y-109279638D01*
X86639819Y-109279638D02*
X86639819Y-109136781D01*
X86639819Y-109898686D02*
X85973152Y-109898686D01*
X86163628Y-109898686D02*
X86068390Y-109946305D01*
X86068390Y-109946305D02*
X86020771Y-109993924D01*
X86020771Y-109993924D02*
X85973152Y-110089162D01*
X85973152Y-110089162D02*
X85973152Y-110184400D01*
X86116009Y-111279639D02*
X86116009Y-111612972D01*
X86639819Y-111755829D02*
X86639819Y-111279639D01*
X86639819Y-111279639D02*
X85639819Y-111279639D01*
X85639819Y-111279639D02*
X85639819Y-111755829D01*
X86639819Y-112184401D02*
X85973152Y-112184401D01*
X86068390Y-112184401D02*
X86020771Y-112232020D01*
X86020771Y-112232020D02*
X85973152Y-112327258D01*
X85973152Y-112327258D02*
X85973152Y-112470115D01*
X85973152Y-112470115D02*
X86020771Y-112565353D01*
X86020771Y-112565353D02*
X86116009Y-112612972D01*
X86116009Y-112612972D02*
X86639819Y-112612972D01*
X86116009Y-112612972D02*
X86020771Y-112660591D01*
X86020771Y-112660591D02*
X85973152Y-112755829D01*
X85973152Y-112755829D02*
X85973152Y-112898686D01*
X85973152Y-112898686D02*
X86020771Y-112993925D01*
X86020771Y-112993925D02*
X86116009Y-113041544D01*
X86116009Y-113041544D02*
X86639819Y-113041544D01*
X86639819Y-113517734D02*
X85639819Y-113517734D01*
X86020771Y-113517734D02*
X85973152Y-113612972D01*
X85973152Y-113612972D02*
X85973152Y-113803448D01*
X85973152Y-113803448D02*
X86020771Y-113898686D01*
X86020771Y-113898686D02*
X86068390Y-113946305D01*
X86068390Y-113946305D02*
X86163628Y-113993924D01*
X86163628Y-113993924D02*
X86449342Y-113993924D01*
X86449342Y-113993924D02*
X86544580Y-113946305D01*
X86544580Y-113946305D02*
X86592200Y-113898686D01*
X86592200Y-113898686D02*
X86639819Y-113803448D01*
X86639819Y-113803448D02*
X86639819Y-113612972D01*
X86639819Y-113612972D02*
X86592200Y-113517734D01*
X86592200Y-114803448D02*
X86639819Y-114708210D01*
X86639819Y-114708210D02*
X86639819Y-114517734D01*
X86639819Y-114517734D02*
X86592200Y-114422496D01*
X86592200Y-114422496D02*
X86496961Y-114374877D01*
X86496961Y-114374877D02*
X86116009Y-114374877D01*
X86116009Y-114374877D02*
X86020771Y-114422496D01*
X86020771Y-114422496D02*
X85973152Y-114517734D01*
X85973152Y-114517734D02*
X85973152Y-114708210D01*
X85973152Y-114708210D02*
X86020771Y-114803448D01*
X86020771Y-114803448D02*
X86116009Y-114851067D01*
X86116009Y-114851067D02*
X86211247Y-114851067D01*
X86211247Y-114851067D02*
X86306485Y-114374877D01*
X86639819Y-115708210D02*
X85639819Y-115708210D01*
X86592200Y-115708210D02*
X86639819Y-115612972D01*
X86639819Y-115612972D02*
X86639819Y-115422496D01*
X86639819Y-115422496D02*
X86592200Y-115327258D01*
X86592200Y-115327258D02*
X86544580Y-115279639D01*
X86544580Y-115279639D02*
X86449342Y-115232020D01*
X86449342Y-115232020D02*
X86163628Y-115232020D01*
X86163628Y-115232020D02*
X86068390Y-115279639D01*
X86068390Y-115279639D02*
X86020771Y-115327258D01*
X86020771Y-115327258D02*
X85973152Y-115422496D01*
X85973152Y-115422496D02*
X85973152Y-115612972D01*
X85973152Y-115612972D02*
X86020771Y-115708210D01*
X86639819Y-116612972D02*
X85639819Y-116612972D01*
X86592200Y-116612972D02*
X86639819Y-116517734D01*
X86639819Y-116517734D02*
X86639819Y-116327258D01*
X86639819Y-116327258D02*
X86592200Y-116232020D01*
X86592200Y-116232020D02*
X86544580Y-116184401D01*
X86544580Y-116184401D02*
X86449342Y-116136782D01*
X86449342Y-116136782D02*
X86163628Y-116136782D01*
X86163628Y-116136782D02*
X86068390Y-116184401D01*
X86068390Y-116184401D02*
X86020771Y-116232020D01*
X86020771Y-116232020D02*
X85973152Y-116327258D01*
X85973152Y-116327258D02*
X85973152Y-116517734D01*
X85973152Y-116517734D02*
X86020771Y-116612972D01*
X86592200Y-117470115D02*
X86639819Y-117374877D01*
X86639819Y-117374877D02*
X86639819Y-117184401D01*
X86639819Y-117184401D02*
X86592200Y-117089163D01*
X86592200Y-117089163D02*
X86496961Y-117041544D01*
X86496961Y-117041544D02*
X86116009Y-117041544D01*
X86116009Y-117041544D02*
X86020771Y-117089163D01*
X86020771Y-117089163D02*
X85973152Y-117184401D01*
X85973152Y-117184401D02*
X85973152Y-117374877D01*
X85973152Y-117374877D02*
X86020771Y-117470115D01*
X86020771Y-117470115D02*
X86116009Y-117517734D01*
X86116009Y-117517734D02*
X86211247Y-117517734D01*
X86211247Y-117517734D02*
X86306485Y-117041544D01*
X86639819Y-118374877D02*
X85639819Y-118374877D01*
X86592200Y-118374877D02*
X86639819Y-118279639D01*
X86639819Y-118279639D02*
X86639819Y-118089163D01*
X86639819Y-118089163D02*
X86592200Y-117993925D01*
X86592200Y-117993925D02*
X86544580Y-117946306D01*
X86544580Y-117946306D02*
X86449342Y-117898687D01*
X86449342Y-117898687D02*
X86163628Y-117898687D01*
X86163628Y-117898687D02*
X86068390Y-117946306D01*
X86068390Y-117946306D02*
X86020771Y-117993925D01*
X86020771Y-117993925D02*
X85973152Y-118089163D01*
X85973152Y-118089163D02*
X85973152Y-118279639D01*
X85973152Y-118279639D02*
X86020771Y-118374877D01*
X86592200Y-119565354D02*
X86639819Y-119708211D01*
X86639819Y-119708211D02*
X86639819Y-119946306D01*
X86639819Y-119946306D02*
X86592200Y-120041544D01*
X86592200Y-120041544D02*
X86544580Y-120089163D01*
X86544580Y-120089163D02*
X86449342Y-120136782D01*
X86449342Y-120136782D02*
X86354104Y-120136782D01*
X86354104Y-120136782D02*
X86258866Y-120089163D01*
X86258866Y-120089163D02*
X86211247Y-120041544D01*
X86211247Y-120041544D02*
X86163628Y-119946306D01*
X86163628Y-119946306D02*
X86116009Y-119755830D01*
X86116009Y-119755830D02*
X86068390Y-119660592D01*
X86068390Y-119660592D02*
X86020771Y-119612973D01*
X86020771Y-119612973D02*
X85925533Y-119565354D01*
X85925533Y-119565354D02*
X85830295Y-119565354D01*
X85830295Y-119565354D02*
X85735057Y-119612973D01*
X85735057Y-119612973D02*
X85687438Y-119660592D01*
X85687438Y-119660592D02*
X85639819Y-119755830D01*
X85639819Y-119755830D02*
X85639819Y-119993925D01*
X85639819Y-119993925D02*
X85687438Y-120136782D01*
X85973152Y-120470116D02*
X86639819Y-120708211D01*
X85973152Y-120946306D02*
X86639819Y-120708211D01*
X86639819Y-120708211D02*
X86877914Y-120612973D01*
X86877914Y-120612973D02*
X86925533Y-120565354D01*
X86925533Y-120565354D02*
X86973152Y-120470116D01*
X86592200Y-121279640D02*
X86639819Y-121374878D01*
X86639819Y-121374878D02*
X86639819Y-121565354D01*
X86639819Y-121565354D02*
X86592200Y-121660592D01*
X86592200Y-121660592D02*
X86496961Y-121708211D01*
X86496961Y-121708211D02*
X86449342Y-121708211D01*
X86449342Y-121708211D02*
X86354104Y-121660592D01*
X86354104Y-121660592D02*
X86306485Y-121565354D01*
X86306485Y-121565354D02*
X86306485Y-121422497D01*
X86306485Y-121422497D02*
X86258866Y-121327259D01*
X86258866Y-121327259D02*
X86163628Y-121279640D01*
X86163628Y-121279640D02*
X86116009Y-121279640D01*
X86116009Y-121279640D02*
X86020771Y-121327259D01*
X86020771Y-121327259D02*
X85973152Y-121422497D01*
X85973152Y-121422497D02*
X85973152Y-121565354D01*
X85973152Y-121565354D02*
X86020771Y-121660592D01*
X85973152Y-121993926D02*
X85973152Y-122374878D01*
X85639819Y-122136783D02*
X86496961Y-122136783D01*
X86496961Y-122136783D02*
X86592200Y-122184402D01*
X86592200Y-122184402D02*
X86639819Y-122279640D01*
X86639819Y-122279640D02*
X86639819Y-122374878D01*
X86592200Y-123089164D02*
X86639819Y-122993926D01*
X86639819Y-122993926D02*
X86639819Y-122803450D01*
X86639819Y-122803450D02*
X86592200Y-122708212D01*
X86592200Y-122708212D02*
X86496961Y-122660593D01*
X86496961Y-122660593D02*
X86116009Y-122660593D01*
X86116009Y-122660593D02*
X86020771Y-122708212D01*
X86020771Y-122708212D02*
X85973152Y-122803450D01*
X85973152Y-122803450D02*
X85973152Y-122993926D01*
X85973152Y-122993926D02*
X86020771Y-123089164D01*
X86020771Y-123089164D02*
X86116009Y-123136783D01*
X86116009Y-123136783D02*
X86211247Y-123136783D01*
X86211247Y-123136783D02*
X86306485Y-122660593D01*
X86639819Y-123565355D02*
X85973152Y-123565355D01*
X86068390Y-123565355D02*
X86020771Y-123612974D01*
X86020771Y-123612974D02*
X85973152Y-123708212D01*
X85973152Y-123708212D02*
X85973152Y-123851069D01*
X85973152Y-123851069D02*
X86020771Y-123946307D01*
X86020771Y-123946307D02*
X86116009Y-123993926D01*
X86116009Y-123993926D02*
X86639819Y-123993926D01*
X86116009Y-123993926D02*
X86020771Y-124041545D01*
X86020771Y-124041545D02*
X85973152Y-124136783D01*
X85973152Y-124136783D02*
X85973152Y-124279640D01*
X85973152Y-124279640D02*
X86020771Y-124374879D01*
X86020771Y-124374879D02*
X86116009Y-124422498D01*
X86116009Y-124422498D02*
X86639819Y-124422498D01*
X86592200Y-124851069D02*
X86639819Y-124946307D01*
X86639819Y-124946307D02*
X86639819Y-125136783D01*
X86639819Y-125136783D02*
X86592200Y-125232021D01*
X86592200Y-125232021D02*
X86496961Y-125279640D01*
X86496961Y-125279640D02*
X86449342Y-125279640D01*
X86449342Y-125279640D02*
X86354104Y-125232021D01*
X86354104Y-125232021D02*
X86306485Y-125136783D01*
X86306485Y-125136783D02*
X86306485Y-124993926D01*
X86306485Y-124993926D02*
X86258866Y-124898688D01*
X86258866Y-124898688D02*
X86163628Y-124851069D01*
X86163628Y-124851069D02*
X86116009Y-124851069D01*
X86116009Y-124851069D02*
X86020771Y-124898688D01*
X86020771Y-124898688D02*
X85973152Y-124993926D01*
X85973152Y-124993926D02*
X85973152Y-125136783D01*
X85973152Y-125136783D02*
X86020771Y-125232021D01*
X89859819Y-94708207D02*
X89383628Y-94374874D01*
X89859819Y-94136779D02*
X88859819Y-94136779D01*
X88859819Y-94136779D02*
X88859819Y-94517731D01*
X88859819Y-94517731D02*
X88907438Y-94612969D01*
X88907438Y-94612969D02*
X88955057Y-94660588D01*
X88955057Y-94660588D02*
X89050295Y-94708207D01*
X89050295Y-94708207D02*
X89193152Y-94708207D01*
X89193152Y-94708207D02*
X89288390Y-94660588D01*
X89288390Y-94660588D02*
X89336009Y-94612969D01*
X89336009Y-94612969D02*
X89383628Y-94517731D01*
X89383628Y-94517731D02*
X89383628Y-94136779D01*
X89812200Y-95517731D02*
X89859819Y-95422493D01*
X89859819Y-95422493D02*
X89859819Y-95232017D01*
X89859819Y-95232017D02*
X89812200Y-95136779D01*
X89812200Y-95136779D02*
X89716961Y-95089160D01*
X89716961Y-95089160D02*
X89336009Y-95089160D01*
X89336009Y-95089160D02*
X89240771Y-95136779D01*
X89240771Y-95136779D02*
X89193152Y-95232017D01*
X89193152Y-95232017D02*
X89193152Y-95422493D01*
X89193152Y-95422493D02*
X89240771Y-95517731D01*
X89240771Y-95517731D02*
X89336009Y-95565350D01*
X89336009Y-95565350D02*
X89431247Y-95565350D01*
X89431247Y-95565350D02*
X89526485Y-95089160D01*
X89193152Y-95898684D02*
X89859819Y-96136779D01*
X89859819Y-96136779D02*
X89193152Y-96374874D01*
X89764580Y-96755827D02*
X89812200Y-96803446D01*
X89812200Y-96803446D02*
X89859819Y-96755827D01*
X89859819Y-96755827D02*
X89812200Y-96708208D01*
X89812200Y-96708208D02*
X89764580Y-96755827D01*
X89764580Y-96755827D02*
X89859819Y-96755827D01*
X89859819Y-98517731D02*
X89859819Y-97946303D01*
X89859819Y-98232017D02*
X88859819Y-98232017D01*
X88859819Y-98232017D02*
X89002676Y-98136779D01*
X89002676Y-98136779D02*
X89097914Y-98041541D01*
X89097914Y-98041541D02*
X89145533Y-97946303D01*
X89764580Y-98946303D02*
X89812200Y-98993922D01*
X89812200Y-98993922D02*
X89859819Y-98946303D01*
X89859819Y-98946303D02*
X89812200Y-98898684D01*
X89812200Y-98898684D02*
X89764580Y-98946303D01*
X89764580Y-98946303D02*
X89859819Y-98946303D01*
X88859819Y-99612969D02*
X88859819Y-99708207D01*
X88859819Y-99708207D02*
X88907438Y-99803445D01*
X88907438Y-99803445D02*
X88955057Y-99851064D01*
X88955057Y-99851064D02*
X89050295Y-99898683D01*
X89050295Y-99898683D02*
X89240771Y-99946302D01*
X89240771Y-99946302D02*
X89478866Y-99946302D01*
X89478866Y-99946302D02*
X89669342Y-99898683D01*
X89669342Y-99898683D02*
X89764580Y-99851064D01*
X89764580Y-99851064D02*
X89812200Y-99803445D01*
X89812200Y-99803445D02*
X89859819Y-99708207D01*
X89859819Y-99708207D02*
X89859819Y-99612969D01*
X89859819Y-99612969D02*
X89812200Y-99517731D01*
X89812200Y-99517731D02*
X89764580Y-99470112D01*
X89764580Y-99470112D02*
X89669342Y-99422493D01*
X89669342Y-99422493D02*
X89478866Y-99374874D01*
X89478866Y-99374874D02*
X89240771Y-99374874D01*
X89240771Y-99374874D02*
X89050295Y-99422493D01*
X89050295Y-99422493D02*
X88955057Y-99470112D01*
X88955057Y-99470112D02*
X88907438Y-99517731D01*
X88907438Y-99517731D02*
X88859819Y-99612969D01*
X89764580Y-100374874D02*
X89812200Y-100422493D01*
X89812200Y-100422493D02*
X89859819Y-100374874D01*
X89859819Y-100374874D02*
X89812200Y-100327255D01*
X89812200Y-100327255D02*
X89764580Y-100374874D01*
X89764580Y-100374874D02*
X89859819Y-100374874D01*
X88859819Y-101041540D02*
X88859819Y-101136778D01*
X88859819Y-101136778D02*
X88907438Y-101232016D01*
X88907438Y-101232016D02*
X88955057Y-101279635D01*
X88955057Y-101279635D02*
X89050295Y-101327254D01*
X89050295Y-101327254D02*
X89240771Y-101374873D01*
X89240771Y-101374873D02*
X89478866Y-101374873D01*
X89478866Y-101374873D02*
X89669342Y-101327254D01*
X89669342Y-101327254D02*
X89764580Y-101279635D01*
X89764580Y-101279635D02*
X89812200Y-101232016D01*
X89812200Y-101232016D02*
X89859819Y-101136778D01*
X89859819Y-101136778D02*
X89859819Y-101041540D01*
X89859819Y-101041540D02*
X89812200Y-100946302D01*
X89812200Y-100946302D02*
X89764580Y-100898683D01*
X89764580Y-100898683D02*
X89669342Y-100851064D01*
X89669342Y-100851064D02*
X89478866Y-100803445D01*
X89478866Y-100803445D02*
X89240771Y-100803445D01*
X89240771Y-100803445D02*
X89050295Y-100851064D01*
X89050295Y-100851064D02*
X88955057Y-100898683D01*
X88955057Y-100898683D02*
X88907438Y-100946302D01*
X88907438Y-100946302D02*
X88859819Y-101041540D01*
X90469819Y-94422493D02*
X91184104Y-94422493D01*
X91184104Y-94422493D02*
X91326961Y-94374874D01*
X91326961Y-94374874D02*
X91422200Y-94279636D01*
X91422200Y-94279636D02*
X91469819Y-94136779D01*
X91469819Y-94136779D02*
X91469819Y-94041541D01*
X91469819Y-95327255D02*
X90946009Y-95327255D01*
X90946009Y-95327255D02*
X90850771Y-95279636D01*
X90850771Y-95279636D02*
X90803152Y-95184398D01*
X90803152Y-95184398D02*
X90803152Y-94993922D01*
X90803152Y-94993922D02*
X90850771Y-94898684D01*
X91422200Y-95327255D02*
X91469819Y-95232017D01*
X91469819Y-95232017D02*
X91469819Y-94993922D01*
X91469819Y-94993922D02*
X91422200Y-94898684D01*
X91422200Y-94898684D02*
X91326961Y-94851065D01*
X91326961Y-94851065D02*
X91231723Y-94851065D01*
X91231723Y-94851065D02*
X91136485Y-94898684D01*
X91136485Y-94898684D02*
X91088866Y-94993922D01*
X91088866Y-94993922D02*
X91088866Y-95232017D01*
X91088866Y-95232017D02*
X91041247Y-95327255D01*
X90803152Y-95803446D02*
X91469819Y-95803446D01*
X90898390Y-95803446D02*
X90850771Y-95851065D01*
X90850771Y-95851065D02*
X90803152Y-95946303D01*
X90803152Y-95946303D02*
X90803152Y-96089160D01*
X90803152Y-96089160D02*
X90850771Y-96184398D01*
X90850771Y-96184398D02*
X90946009Y-96232017D01*
X90946009Y-96232017D02*
X91469819Y-96232017D01*
X90803152Y-97136779D02*
X91469819Y-97136779D01*
X90803152Y-96708208D02*
X91326961Y-96708208D01*
X91326961Y-96708208D02*
X91422200Y-96755827D01*
X91422200Y-96755827D02*
X91469819Y-96851065D01*
X91469819Y-96851065D02*
X91469819Y-96993922D01*
X91469819Y-96993922D02*
X91422200Y-97089160D01*
X91422200Y-97089160D02*
X91374580Y-97136779D01*
X91469819Y-98041541D02*
X90946009Y-98041541D01*
X90946009Y-98041541D02*
X90850771Y-97993922D01*
X90850771Y-97993922D02*
X90803152Y-97898684D01*
X90803152Y-97898684D02*
X90803152Y-97708208D01*
X90803152Y-97708208D02*
X90850771Y-97612970D01*
X91422200Y-98041541D02*
X91469819Y-97946303D01*
X91469819Y-97946303D02*
X91469819Y-97708208D01*
X91469819Y-97708208D02*
X91422200Y-97612970D01*
X91422200Y-97612970D02*
X91326961Y-97565351D01*
X91326961Y-97565351D02*
X91231723Y-97565351D01*
X91231723Y-97565351D02*
X91136485Y-97612970D01*
X91136485Y-97612970D02*
X91088866Y-97708208D01*
X91088866Y-97708208D02*
X91088866Y-97946303D01*
X91088866Y-97946303D02*
X91041247Y-98041541D01*
X91469819Y-98517732D02*
X90803152Y-98517732D01*
X90993628Y-98517732D02*
X90898390Y-98565351D01*
X90898390Y-98565351D02*
X90850771Y-98612970D01*
X90850771Y-98612970D02*
X90803152Y-98708208D01*
X90803152Y-98708208D02*
X90803152Y-98803446D01*
X90803152Y-99041542D02*
X91469819Y-99279637D01*
X90803152Y-99517732D02*
X91469819Y-99279637D01*
X91469819Y-99279637D02*
X91707914Y-99184399D01*
X91707914Y-99184399D02*
X91755533Y-99136780D01*
X91755533Y-99136780D02*
X91803152Y-99041542D01*
X90565057Y-100612971D02*
X90517438Y-100660590D01*
X90517438Y-100660590D02*
X90469819Y-100755828D01*
X90469819Y-100755828D02*
X90469819Y-100993923D01*
X90469819Y-100993923D02*
X90517438Y-101089161D01*
X90517438Y-101089161D02*
X90565057Y-101136780D01*
X90565057Y-101136780D02*
X90660295Y-101184399D01*
X90660295Y-101184399D02*
X90755533Y-101184399D01*
X90755533Y-101184399D02*
X90898390Y-101136780D01*
X90898390Y-101136780D02*
X91469819Y-100565352D01*
X91469819Y-100565352D02*
X91469819Y-101184399D01*
X90469819Y-101803447D02*
X90469819Y-101898685D01*
X90469819Y-101898685D02*
X90517438Y-101993923D01*
X90517438Y-101993923D02*
X90565057Y-102041542D01*
X90565057Y-102041542D02*
X90660295Y-102089161D01*
X90660295Y-102089161D02*
X90850771Y-102136780D01*
X90850771Y-102136780D02*
X91088866Y-102136780D01*
X91088866Y-102136780D02*
X91279342Y-102089161D01*
X91279342Y-102089161D02*
X91374580Y-102041542D01*
X91374580Y-102041542D02*
X91422200Y-101993923D01*
X91422200Y-101993923D02*
X91469819Y-101898685D01*
X91469819Y-101898685D02*
X91469819Y-101803447D01*
X91469819Y-101803447D02*
X91422200Y-101708209D01*
X91422200Y-101708209D02*
X91374580Y-101660590D01*
X91374580Y-101660590D02*
X91279342Y-101612971D01*
X91279342Y-101612971D02*
X91088866Y-101565352D01*
X91088866Y-101565352D02*
X90850771Y-101565352D01*
X90850771Y-101565352D02*
X90660295Y-101612971D01*
X90660295Y-101612971D02*
X90565057Y-101660590D01*
X90565057Y-101660590D02*
X90517438Y-101708209D01*
X90517438Y-101708209D02*
X90469819Y-101803447D01*
X90565057Y-102517733D02*
X90517438Y-102565352D01*
X90517438Y-102565352D02*
X90469819Y-102660590D01*
X90469819Y-102660590D02*
X90469819Y-102898685D01*
X90469819Y-102898685D02*
X90517438Y-102993923D01*
X90517438Y-102993923D02*
X90565057Y-103041542D01*
X90565057Y-103041542D02*
X90660295Y-103089161D01*
X90660295Y-103089161D02*
X90755533Y-103089161D01*
X90755533Y-103089161D02*
X90898390Y-103041542D01*
X90898390Y-103041542D02*
X91469819Y-102470114D01*
X91469819Y-102470114D02*
X91469819Y-103089161D01*
X90803152Y-103946304D02*
X91469819Y-103946304D01*
X90422200Y-103708209D02*
X91136485Y-103470114D01*
X91136485Y-103470114D02*
X91136485Y-104089161D01*
%TO.C,REF\u002A\u002A*%
D11*
X102195805Y-137009115D02*
X102292308Y-137010258D01*
X102369323Y-137012199D01*
X102420319Y-137014753D01*
X102438769Y-137017737D01*
X102432667Y-137037156D01*
X102416095Y-137076352D01*
X102415558Y-137077529D01*
X102404903Y-137097883D01*
X102390282Y-137111572D01*
X102364673Y-137119919D01*
X102321054Y-137124244D01*
X102252403Y-137125870D01*
X102151698Y-137126118D01*
X102087813Y-137126618D01*
X101967751Y-137131954D01*
X101879809Y-137144173D01*
X101819375Y-137164566D01*
X101781836Y-137194423D01*
X101762581Y-137235036D01*
X101761239Y-137240670D01*
X101760191Y-137316740D01*
X101794271Y-137376066D01*
X101862598Y-137417041D01*
X101882351Y-137424348D01*
X101926066Y-137441004D01*
X101946155Y-137449439D01*
X101943387Y-137466762D01*
X101928365Y-137504593D01*
X101903556Y-137539878D01*
X101856670Y-137555964D01*
X101823087Y-137551166D01*
X101754967Y-137521687D01*
X101691134Y-137474020D01*
X101646988Y-137418279D01*
X101636782Y-137394925D01*
X101619718Y-137306499D01*
X101626476Y-137212617D01*
X101656440Y-137131951D01*
X101678954Y-137098404D01*
X101711212Y-137064431D01*
X101752246Y-137040199D01*
X101808108Y-137024117D01*
X101884851Y-137014597D01*
X101988525Y-137010050D01*
X102125184Y-137008887D01*
X102195805Y-137009115D01*
G36*
X102195805Y-137009115D02*
G01*
X102292308Y-137010258D01*
X102369323Y-137012199D01*
X102420319Y-137014753D01*
X102438769Y-137017737D01*
X102432667Y-137037156D01*
X102416095Y-137076352D01*
X102415558Y-137077529D01*
X102404903Y-137097883D01*
X102390282Y-137111572D01*
X102364673Y-137119919D01*
X102321054Y-137124244D01*
X102252403Y-137125870D01*
X102151698Y-137126118D01*
X102087813Y-137126618D01*
X101967751Y-137131954D01*
X101879809Y-137144173D01*
X101819375Y-137164566D01*
X101781836Y-137194423D01*
X101762581Y-137235036D01*
X101761239Y-137240670D01*
X101760191Y-137316740D01*
X101794271Y-137376066D01*
X101862598Y-137417041D01*
X101882351Y-137424348D01*
X101926066Y-137441004D01*
X101946155Y-137449439D01*
X101943387Y-137466762D01*
X101928365Y-137504593D01*
X101903556Y-137539878D01*
X101856670Y-137555964D01*
X101823087Y-137551166D01*
X101754967Y-137521687D01*
X101691134Y-137474020D01*
X101646988Y-137418279D01*
X101636782Y-137394925D01*
X101619718Y-137306499D01*
X101626476Y-137212617D01*
X101656440Y-137131951D01*
X101678954Y-137098404D01*
X101711212Y-137064431D01*
X101752246Y-137040199D01*
X101808108Y-137024117D01*
X101884851Y-137014597D01*
X101988525Y-137010050D01*
X102125184Y-137008887D01*
X102195805Y-137009115D01*
G37*
X102438738Y-131723815D02*
X102420787Y-131770872D01*
X102403511Y-131806103D01*
X102381242Y-131829101D01*
X102347165Y-131842463D01*
X102294463Y-131848790D01*
X102216323Y-131850681D01*
X102105928Y-131850733D01*
X102017935Y-131851001D01*
X101933502Y-131852597D01*
X101875834Y-131856406D01*
X101837988Y-131863298D01*
X101813024Y-131874143D01*
X101794000Y-131889810D01*
X101767153Y-131928326D01*
X101757034Y-131993027D01*
X101782606Y-132057037D01*
X101785880Y-132061262D01*
X101801007Y-132074429D01*
X101825268Y-132084143D01*
X101864650Y-132091215D01*
X101925141Y-132096462D01*
X102012729Y-132100697D01*
X102133402Y-132104733D01*
X102456515Y-132114503D01*
X102382065Y-132280579D01*
X102087062Y-132280579D01*
X102006919Y-132280235D01*
X101895431Y-132277271D01*
X101812421Y-132269767D01*
X101751199Y-132255928D01*
X101705075Y-132233963D01*
X101667358Y-132202079D01*
X101631358Y-132158485D01*
X101595089Y-132095782D01*
X101571412Y-131997001D01*
X101581684Y-131897746D01*
X101624569Y-131806489D01*
X101698729Y-131731702D01*
X101721944Y-131716201D01*
X101748256Y-131703344D01*
X101781420Y-131694225D01*
X101827881Y-131688016D01*
X101894082Y-131683885D01*
X101986468Y-131681002D01*
X102111485Y-131678539D01*
X102458278Y-131672421D01*
X102438738Y-131723815D01*
G36*
X102438738Y-131723815D02*
G01*
X102420787Y-131770872D01*
X102403511Y-131806103D01*
X102381242Y-131829101D01*
X102347165Y-131842463D01*
X102294463Y-131848790D01*
X102216323Y-131850681D01*
X102105928Y-131850733D01*
X102017935Y-131851001D01*
X101933502Y-131852597D01*
X101875834Y-131856406D01*
X101837988Y-131863298D01*
X101813024Y-131874143D01*
X101794000Y-131889810D01*
X101767153Y-131928326D01*
X101757034Y-131993027D01*
X101782606Y-132057037D01*
X101785880Y-132061262D01*
X101801007Y-132074429D01*
X101825268Y-132084143D01*
X101864650Y-132091215D01*
X101925141Y-132096462D01*
X102012729Y-132100697D01*
X102133402Y-132104733D01*
X102456515Y-132114503D01*
X102382065Y-132280579D01*
X102087062Y-132280579D01*
X102006919Y-132280235D01*
X101895431Y-132277271D01*
X101812421Y-132269767D01*
X101751199Y-132255928D01*
X101705075Y-132233963D01*
X101667358Y-132202079D01*
X101631358Y-132158485D01*
X101595089Y-132095782D01*
X101571412Y-131997001D01*
X101581684Y-131897746D01*
X101624569Y-131806489D01*
X101698729Y-131731702D01*
X101721944Y-131716201D01*
X101748256Y-131703344D01*
X101781420Y-131694225D01*
X101827881Y-131688016D01*
X101894082Y-131683885D01*
X101986468Y-131681002D01*
X102111485Y-131678539D01*
X102458278Y-131672421D01*
X102438738Y-131723815D01*
G37*
X102365296Y-134198357D02*
X102420507Y-134203513D01*
X102438769Y-134211960D01*
X102433301Y-134237524D01*
X102416733Y-134280952D01*
X102411888Y-134291178D01*
X102400920Y-134307151D01*
X102382890Y-134318164D01*
X102351396Y-134325368D01*
X102300036Y-134329910D01*
X102222410Y-134332938D01*
X102112115Y-134335602D01*
X102079875Y-134336333D01*
X101978050Y-134339153D01*
X101906788Y-134342814D01*
X101859332Y-134348424D01*
X101828925Y-134357089D01*
X101808810Y-134369916D01*
X101792229Y-134388013D01*
X101763161Y-134441593D01*
X101757564Y-134507506D01*
X101779807Y-134566483D01*
X101825859Y-134608915D01*
X101891692Y-134625195D01*
X101909587Y-134625648D01*
X101941982Y-134634540D01*
X101946925Y-134660793D01*
X101927633Y-134712199D01*
X101921446Y-134724105D01*
X101885058Y-134756283D01*
X101830954Y-134756920D01*
X101756128Y-134726262D01*
X101715350Y-134698140D01*
X101657421Y-134626235D01*
X101624670Y-134537480D01*
X101620212Y-134442576D01*
X101647167Y-134352226D01*
X101650581Y-134346058D01*
X101689692Y-134295671D01*
X101739975Y-134250620D01*
X101751339Y-134242763D01*
X101777860Y-134227742D01*
X101809336Y-134217011D01*
X101852591Y-134209632D01*
X101914449Y-134204666D01*
X102001733Y-134201176D01*
X102121269Y-134198225D01*
X102141478Y-134197807D01*
X102272499Y-134196464D01*
X102365296Y-134198357D01*
G36*
X102365296Y-134198357D02*
G01*
X102420507Y-134203513D01*
X102438769Y-134211960D01*
X102433301Y-134237524D01*
X102416733Y-134280952D01*
X102411888Y-134291178D01*
X102400920Y-134307151D01*
X102382890Y-134318164D01*
X102351396Y-134325368D01*
X102300036Y-134329910D01*
X102222410Y-134332938D01*
X102112115Y-134335602D01*
X102079875Y-134336333D01*
X101978050Y-134339153D01*
X101906788Y-134342814D01*
X101859332Y-134348424D01*
X101828925Y-134357089D01*
X101808810Y-134369916D01*
X101792229Y-134388013D01*
X101763161Y-134441593D01*
X101757564Y-134507506D01*
X101779807Y-134566483D01*
X101825859Y-134608915D01*
X101891692Y-134625195D01*
X101909587Y-134625648D01*
X101941982Y-134634540D01*
X101946925Y-134660793D01*
X101927633Y-134712199D01*
X101921446Y-134724105D01*
X101885058Y-134756283D01*
X101830954Y-134756920D01*
X101756128Y-134726262D01*
X101715350Y-134698140D01*
X101657421Y-134626235D01*
X101624670Y-134537480D01*
X101620212Y-134442576D01*
X101647167Y-134352226D01*
X101650581Y-134346058D01*
X101689692Y-134295671D01*
X101739975Y-134250620D01*
X101751339Y-134242763D01*
X101777860Y-134227742D01*
X101809336Y-134217011D01*
X101852591Y-134209632D01*
X101914449Y-134204666D01*
X102001733Y-134201176D01*
X102121269Y-134198225D01*
X102141478Y-134197807D01*
X102272499Y-134196464D01*
X102365296Y-134198357D01*
G37*
X102055094Y-132847458D02*
X102179805Y-132848160D01*
X102285557Y-132849235D01*
X102367322Y-132850618D01*
X102420069Y-132852244D01*
X102438769Y-132854048D01*
X102438706Y-132854754D01*
X102431912Y-132878731D01*
X102417320Y-132922433D01*
X102395870Y-132983964D01*
X102120617Y-132983964D01*
X102012466Y-132984355D01*
X101934026Y-132986172D01*
X101880647Y-132990351D01*
X101845256Y-132997832D01*
X101820779Y-133009551D01*
X101800144Y-133026447D01*
X101789170Y-133037966D01*
X101758775Y-133100254D01*
X101761466Y-133168907D01*
X101797406Y-133231820D01*
X101806325Y-133240979D01*
X101824844Y-133255647D01*
X101849326Y-133265685D01*
X101886393Y-133271967D01*
X101942667Y-133275370D01*
X102024771Y-133276769D01*
X102139329Y-133277041D01*
X102197430Y-133277171D01*
X102292993Y-133278019D01*
X102369526Y-133279524D01*
X102420345Y-133281533D01*
X102438769Y-133283895D01*
X102438706Y-133284600D01*
X102431912Y-133308577D01*
X102417320Y-133352279D01*
X102395870Y-133413810D01*
X102119358Y-133413780D01*
X102094742Y-133413734D01*
X101966419Y-133411148D01*
X101869384Y-133403205D01*
X101797057Y-133387963D01*
X101742855Y-133363482D01*
X101700198Y-133327820D01*
X101662505Y-133279036D01*
X101638910Y-133231457D01*
X101620672Y-133155386D01*
X101619636Y-133080562D01*
X101637378Y-133023041D01*
X101639829Y-133018716D01*
X101639566Y-133005380D01*
X101619039Y-132996267D01*
X101571980Y-132989690D01*
X101492120Y-132983964D01*
X101328236Y-132974195D01*
X101381806Y-132847195D01*
X101916455Y-132847195D01*
X102055094Y-132847458D01*
G36*
X102055094Y-132847458D02*
G01*
X102179805Y-132848160D01*
X102285557Y-132849235D01*
X102367322Y-132850618D01*
X102420069Y-132852244D01*
X102438769Y-132854048D01*
X102438706Y-132854754D01*
X102431912Y-132878731D01*
X102417320Y-132922433D01*
X102395870Y-132983964D01*
X102120617Y-132983964D01*
X102012466Y-132984355D01*
X101934026Y-132986172D01*
X101880647Y-132990351D01*
X101845256Y-132997832D01*
X101820779Y-133009551D01*
X101800144Y-133026447D01*
X101789170Y-133037966D01*
X101758775Y-133100254D01*
X101761466Y-133168907D01*
X101797406Y-133231820D01*
X101806325Y-133240979D01*
X101824844Y-133255647D01*
X101849326Y-133265685D01*
X101886393Y-133271967D01*
X101942667Y-133275370D01*
X102024771Y-133276769D01*
X102139329Y-133277041D01*
X102197430Y-133277171D01*
X102292993Y-133278019D01*
X102369526Y-133279524D01*
X102420345Y-133281533D01*
X102438769Y-133283895D01*
X102438706Y-133284600D01*
X102431912Y-133308577D01*
X102417320Y-133352279D01*
X102395870Y-133413810D01*
X102119358Y-133413780D01*
X102094742Y-133413734D01*
X101966419Y-133411148D01*
X101869384Y-133403205D01*
X101797057Y-133387963D01*
X101742855Y-133363482D01*
X101700198Y-133327820D01*
X101662505Y-133279036D01*
X101638910Y-133231457D01*
X101620672Y-133155386D01*
X101619636Y-133080562D01*
X101637378Y-133023041D01*
X101639829Y-133018716D01*
X101639566Y-133005380D01*
X101619039Y-132996267D01*
X101571980Y-132989690D01*
X101492120Y-132983964D01*
X101328236Y-132974195D01*
X101381806Y-132847195D01*
X101916455Y-132847195D01*
X102055094Y-132847458D01*
G37*
X102380363Y-135605333D02*
X102394228Y-135619456D01*
X102425046Y-135658582D01*
X102435028Y-135698040D01*
X102430433Y-135756756D01*
X102427462Y-135780662D01*
X102421176Y-135842317D01*
X102418672Y-135885426D01*
X102419055Y-135898213D01*
X102423200Y-135950672D01*
X102430433Y-136014096D01*
X102432918Y-136034388D01*
X102433895Y-136085508D01*
X102418462Y-136122911D01*
X102380363Y-136165519D01*
X102318533Y-136227349D01*
X101968343Y-136227349D01*
X101864857Y-136226867D01*
X101766192Y-136225365D01*
X101688068Y-136223029D01*
X101636662Y-136220047D01*
X101618154Y-136216609D01*
X101618204Y-136215888D01*
X101627413Y-136190915D01*
X101647707Y-136148719D01*
X101677261Y-136091569D01*
X101984746Y-136086190D01*
X102292231Y-136080810D01*
X102292231Y-135963579D01*
X101955192Y-135958233D01*
X101863574Y-135956539D01*
X101765649Y-135954113D01*
X101687906Y-135951484D01*
X101636642Y-135948872D01*
X101618154Y-135946495D01*
X101618219Y-135945812D01*
X101625020Y-135922122D01*
X101639604Y-135878572D01*
X101661054Y-135817041D01*
X101957104Y-135816742D01*
X102008532Y-135816442D01*
X102108466Y-135814364D01*
X102191925Y-135810648D01*
X102251377Y-135805688D01*
X102279287Y-135799878D01*
X102294214Y-135779094D01*
X102298825Y-135736678D01*
X102292231Y-135690041D01*
X101955192Y-135684695D01*
X101869546Y-135682782D01*
X101768172Y-135678815D01*
X101688655Y-135673627D01*
X101636736Y-135667619D01*
X101618154Y-135661191D01*
X101624034Y-135636120D01*
X101640829Y-135593268D01*
X101663503Y-135543503D01*
X102318533Y-135543503D01*
X102380363Y-135605333D01*
G36*
X102380363Y-135605333D02*
G01*
X102394228Y-135619456D01*
X102425046Y-135658582D01*
X102435028Y-135698040D01*
X102430433Y-135756756D01*
X102427462Y-135780662D01*
X102421176Y-135842317D01*
X102418672Y-135885426D01*
X102419055Y-135898213D01*
X102423200Y-135950672D01*
X102430433Y-136014096D01*
X102432918Y-136034388D01*
X102433895Y-136085508D01*
X102418462Y-136122911D01*
X102380363Y-136165519D01*
X102318533Y-136227349D01*
X101968343Y-136227349D01*
X101864857Y-136226867D01*
X101766192Y-136225365D01*
X101688068Y-136223029D01*
X101636662Y-136220047D01*
X101618154Y-136216609D01*
X101618204Y-136215888D01*
X101627413Y-136190915D01*
X101647707Y-136148719D01*
X101677261Y-136091569D01*
X101984746Y-136086190D01*
X102292231Y-136080810D01*
X102292231Y-135963579D01*
X101955192Y-135958233D01*
X101863574Y-135956539D01*
X101765649Y-135954113D01*
X101687906Y-135951484D01*
X101636642Y-135948872D01*
X101618154Y-135946495D01*
X101618219Y-135945812D01*
X101625020Y-135922122D01*
X101639604Y-135878572D01*
X101661054Y-135817041D01*
X101957104Y-135816742D01*
X102008532Y-135816442D01*
X102108466Y-135814364D01*
X102191925Y-135810648D01*
X102251377Y-135805688D01*
X102279287Y-135799878D01*
X102294214Y-135779094D01*
X102298825Y-135736678D01*
X102292231Y-135690041D01*
X101955192Y-135684695D01*
X101869546Y-135682782D01*
X101768172Y-135678815D01*
X101688655Y-135673627D01*
X101636736Y-135667619D01*
X101618154Y-135661191D01*
X101624034Y-135636120D01*
X101640829Y-135593268D01*
X101663503Y-135543503D01*
X102318533Y-135543503D01*
X102380363Y-135605333D01*
G37*
X102030105Y-129427983D02*
X102124584Y-129429042D01*
X102190414Y-129432682D01*
X102236394Y-129440226D01*
X102271321Y-129452996D01*
X102303995Y-129472315D01*
X102310775Y-129477068D01*
X102364231Y-129527359D01*
X102404547Y-129584661D01*
X102417629Y-129614086D01*
X102439450Y-129719819D01*
X102425336Y-129824384D01*
X102377105Y-129920750D01*
X102296579Y-130001883D01*
X102285791Y-130008733D01*
X102223153Y-130031021D01*
X102135935Y-130046039D01*
X102035210Y-130053326D01*
X101932052Y-130052419D01*
X101837533Y-130042856D01*
X101762727Y-130024175D01*
X101712905Y-130000167D01*
X101635409Y-129932582D01*
X101587256Y-129841004D01*
X101571727Y-129735838D01*
X101754923Y-129735838D01*
X101756432Y-129754102D01*
X101784107Y-129805270D01*
X101846172Y-129839083D01*
X101942037Y-129855322D01*
X102071114Y-129853769D01*
X102079420Y-129853144D01*
X102150643Y-129844041D01*
X102195809Y-129827830D01*
X102226752Y-129800458D01*
X102255737Y-129754565D01*
X102257261Y-129709176D01*
X102223846Y-129662426D01*
X102215053Y-129654294D01*
X102188741Y-129638364D01*
X102150520Y-129628959D01*
X102091349Y-129624486D01*
X102002182Y-129623349D01*
X101918664Y-129625296D01*
X101839095Y-129635013D01*
X101788808Y-129655071D01*
X101762513Y-129687878D01*
X101754923Y-129735838D01*
X101571727Y-129735838D01*
X101570703Y-129728905D01*
X101571599Y-129698967D01*
X101589929Y-129610803D01*
X101636104Y-129538385D01*
X101715648Y-129471926D01*
X101721548Y-129467971D01*
X101753288Y-129450078D01*
X101789163Y-129438440D01*
X101837906Y-129431747D01*
X101908249Y-129428692D01*
X102002182Y-129428012D01*
X102008923Y-129427964D01*
X102030105Y-129427983D01*
G36*
X102030105Y-129427983D02*
G01*
X102124584Y-129429042D01*
X102190414Y-129432682D01*
X102236394Y-129440226D01*
X102271321Y-129452996D01*
X102303995Y-129472315D01*
X102310775Y-129477068D01*
X102364231Y-129527359D01*
X102404547Y-129584661D01*
X102417629Y-129614086D01*
X102439450Y-129719819D01*
X102425336Y-129824384D01*
X102377105Y-129920750D01*
X102296579Y-130001883D01*
X102285791Y-130008733D01*
X102223153Y-130031021D01*
X102135935Y-130046039D01*
X102035210Y-130053326D01*
X101932052Y-130052419D01*
X101837533Y-130042856D01*
X101762727Y-130024175D01*
X101712905Y-130000167D01*
X101635409Y-129932582D01*
X101587256Y-129841004D01*
X101571727Y-129735838D01*
X101754923Y-129735838D01*
X101756432Y-129754102D01*
X101784107Y-129805270D01*
X101846172Y-129839083D01*
X101942037Y-129855322D01*
X102071114Y-129853769D01*
X102079420Y-129853144D01*
X102150643Y-129844041D01*
X102195809Y-129827830D01*
X102226752Y-129800458D01*
X102255737Y-129754565D01*
X102257261Y-129709176D01*
X102223846Y-129662426D01*
X102215053Y-129654294D01*
X102188741Y-129638364D01*
X102150520Y-129628959D01*
X102091349Y-129624486D01*
X102002182Y-129623349D01*
X101918664Y-129625296D01*
X101839095Y-129635013D01*
X101788808Y-129655071D01*
X101762513Y-129687878D01*
X101754923Y-129735838D01*
X101571727Y-129735838D01*
X101570703Y-129728905D01*
X101571599Y-129698967D01*
X101589929Y-129610803D01*
X101636104Y-129538385D01*
X101715648Y-129471926D01*
X101721548Y-129467971D01*
X101753288Y-129450078D01*
X101789163Y-129438440D01*
X101837906Y-129431747D01*
X101908249Y-129428692D01*
X102002182Y-129428012D01*
X102008923Y-129427964D01*
X102030105Y-129427983D01*
G37*
X102084449Y-137673705D02*
X102187047Y-137678477D01*
X102262126Y-137690968D01*
X102317748Y-137713997D01*
X102361975Y-137750386D01*
X102402869Y-137802956D01*
X102421466Y-137836404D01*
X102433991Y-137890020D01*
X102433003Y-137965338D01*
X102429035Y-138007446D01*
X102416920Y-138058239D01*
X102390585Y-138098838D01*
X102341514Y-138146069D01*
X102334346Y-138152380D01*
X102279189Y-138194841D01*
X102231150Y-138215100D01*
X102174184Y-138220272D01*
X102090471Y-138220272D01*
X102112552Y-138161772D01*
X102138364Y-138119124D01*
X102198928Y-138082054D01*
X102218320Y-138074315D01*
X102273235Y-138031044D01*
X102300879Y-137972142D01*
X102298393Y-137908007D01*
X102262923Y-137849041D01*
X102240805Y-137828776D01*
X102207436Y-137810398D01*
X102177117Y-137816147D01*
X102145913Y-137849231D01*
X102109887Y-137912857D01*
X102065103Y-138010233D01*
X101977445Y-138210503D01*
X101890607Y-138215817D01*
X101825663Y-138213471D01*
X101743590Y-138183932D01*
X101698361Y-138146646D01*
X101647838Y-138069342D01*
X101622316Y-137977640D01*
X101622490Y-137969478D01*
X101754721Y-137969478D01*
X101785339Y-138040078D01*
X101800648Y-138059644D01*
X101835296Y-138083335D01*
X101869538Y-138073430D01*
X101906096Y-138028362D01*
X101947692Y-137946561D01*
X101953718Y-137933026D01*
X101981753Y-137868300D01*
X102001472Y-137819871D01*
X102008923Y-137797367D01*
X102003438Y-137793957D01*
X101969948Y-137792589D01*
X101916116Y-137797467D01*
X101863473Y-137809754D01*
X101797151Y-137848077D01*
X101759780Y-137903398D01*
X101754721Y-137969478D01*
X101622490Y-137969478D01*
X101624336Y-137882844D01*
X101656440Y-137796259D01*
X101668767Y-137777198D01*
X101706912Y-137733478D01*
X101755167Y-137703578D01*
X101820710Y-137685150D01*
X101910720Y-137675848D01*
X101969948Y-137674619D01*
X102032376Y-137673324D01*
X102084449Y-137673705D01*
G36*
X102084449Y-137673705D02*
G01*
X102187047Y-137678477D01*
X102262126Y-137690968D01*
X102317748Y-137713997D01*
X102361975Y-137750386D01*
X102402869Y-137802956D01*
X102421466Y-137836404D01*
X102433991Y-137890020D01*
X102433003Y-137965338D01*
X102429035Y-138007446D01*
X102416920Y-138058239D01*
X102390585Y-138098838D01*
X102341514Y-138146069D01*
X102334346Y-138152380D01*
X102279189Y-138194841D01*
X102231150Y-138215100D01*
X102174184Y-138220272D01*
X102090471Y-138220272D01*
X102112552Y-138161772D01*
X102138364Y-138119124D01*
X102198928Y-138082054D01*
X102218320Y-138074315D01*
X102273235Y-138031044D01*
X102300879Y-137972142D01*
X102298393Y-137908007D01*
X102262923Y-137849041D01*
X102240805Y-137828776D01*
X102207436Y-137810398D01*
X102177117Y-137816147D01*
X102145913Y-137849231D01*
X102109887Y-137912857D01*
X102065103Y-138010233D01*
X101977445Y-138210503D01*
X101890607Y-138215817D01*
X101825663Y-138213471D01*
X101743590Y-138183932D01*
X101698361Y-138146646D01*
X101647838Y-138069342D01*
X101622316Y-137977640D01*
X101622490Y-137969478D01*
X101754721Y-137969478D01*
X101785339Y-138040078D01*
X101800648Y-138059644D01*
X101835296Y-138083335D01*
X101869538Y-138073430D01*
X101906096Y-138028362D01*
X101947692Y-137946561D01*
X101953718Y-137933026D01*
X101981753Y-137868300D01*
X102001472Y-137819871D01*
X102008923Y-137797367D01*
X102003438Y-137793957D01*
X101969948Y-137792589D01*
X101916116Y-137797467D01*
X101863473Y-137809754D01*
X101797151Y-137848077D01*
X101759780Y-137903398D01*
X101754721Y-137969478D01*
X101622490Y-137969478D01*
X101624336Y-137882844D01*
X101656440Y-137796259D01*
X101668767Y-137777198D01*
X101706912Y-137733478D01*
X101755167Y-137703578D01*
X101820710Y-137685150D01*
X101910720Y-137675848D01*
X101969948Y-137674619D01*
X102032376Y-137673324D01*
X102084449Y-137673705D01*
G37*
X102104652Y-134861279D02*
X102208507Y-134872308D01*
X102286333Y-134896304D01*
X102345760Y-134936075D01*
X102394418Y-134994430D01*
X102422546Y-135050018D01*
X102438199Y-135143367D01*
X102421084Y-135236588D01*
X102373388Y-135320846D01*
X102297294Y-135387300D01*
X102283262Y-135395325D01*
X102258679Y-135405922D01*
X102227309Y-135413783D01*
X102183769Y-135419311D01*
X102122678Y-135422912D01*
X102038655Y-135424990D01*
X101926320Y-135425951D01*
X101780289Y-135426199D01*
X101326963Y-135426272D01*
X101353564Y-135362772D01*
X101360845Y-135345982D01*
X101377287Y-135319259D01*
X101402187Y-135303962D01*
X101445732Y-135295555D01*
X101518106Y-135289503D01*
X101583089Y-135283974D01*
X101625750Y-135276668D01*
X101641670Y-135266200D01*
X101637400Y-135250426D01*
X101622397Y-135210228D01*
X101618678Y-135138390D01*
X101622089Y-135119419D01*
X101758057Y-135119419D01*
X101762575Y-135187718D01*
X101800144Y-135247020D01*
X101815040Y-135259785D01*
X101843089Y-135275354D01*
X101882258Y-135284356D01*
X101941858Y-135288501D01*
X102031200Y-135289503D01*
X102102316Y-135289041D01*
X102166641Y-135286119D01*
X102208166Y-135278897D01*
X102236067Y-135265557D01*
X102259517Y-135244282D01*
X102264025Y-135239297D01*
X102297295Y-135175255D01*
X102293890Y-135107493D01*
X102254042Y-135044384D01*
X102233398Y-135025592D01*
X102206029Y-135009864D01*
X102168192Y-135001079D01*
X102110355Y-134997259D01*
X102022986Y-134996426D01*
X101956319Y-134996837D01*
X101891245Y-134999684D01*
X101849251Y-135006862D01*
X101821063Y-135020229D01*
X101797406Y-135041646D01*
X101786753Y-135054228D01*
X101758057Y-135119419D01*
X101622089Y-135119419D01*
X101632572Y-135061108D01*
X101662505Y-134994430D01*
X101690211Y-134957747D01*
X101744269Y-134910646D01*
X101813577Y-134880480D01*
X101905765Y-134864440D01*
X102022986Y-134859927D01*
X102028462Y-134859717D01*
X102104652Y-134861279D01*
G36*
X102104652Y-134861279D02*
G01*
X102208507Y-134872308D01*
X102286333Y-134896304D01*
X102345760Y-134936075D01*
X102394418Y-134994430D01*
X102422546Y-135050018D01*
X102438199Y-135143367D01*
X102421084Y-135236588D01*
X102373388Y-135320846D01*
X102297294Y-135387300D01*
X102283262Y-135395325D01*
X102258679Y-135405922D01*
X102227309Y-135413783D01*
X102183769Y-135419311D01*
X102122678Y-135422912D01*
X102038655Y-135424990D01*
X101926320Y-135425951D01*
X101780289Y-135426199D01*
X101326963Y-135426272D01*
X101353564Y-135362772D01*
X101360845Y-135345982D01*
X101377287Y-135319259D01*
X101402187Y-135303962D01*
X101445732Y-135295555D01*
X101518106Y-135289503D01*
X101583089Y-135283974D01*
X101625750Y-135276668D01*
X101641670Y-135266200D01*
X101637400Y-135250426D01*
X101622397Y-135210228D01*
X101618678Y-135138390D01*
X101622089Y-135119419D01*
X101758057Y-135119419D01*
X101762575Y-135187718D01*
X101800144Y-135247020D01*
X101815040Y-135259785D01*
X101843089Y-135275354D01*
X101882258Y-135284356D01*
X101941858Y-135288501D01*
X102031200Y-135289503D01*
X102102316Y-135289041D01*
X102166641Y-135286119D01*
X102208166Y-135278897D01*
X102236067Y-135265557D01*
X102259517Y-135244282D01*
X102264025Y-135239297D01*
X102297295Y-135175255D01*
X102293890Y-135107493D01*
X102254042Y-135044384D01*
X102233398Y-135025592D01*
X102206029Y-135009864D01*
X102168192Y-135001079D01*
X102110355Y-134997259D01*
X102022986Y-134996426D01*
X101956319Y-134996837D01*
X101891245Y-134999684D01*
X101849251Y-135006862D01*
X101821063Y-135020229D01*
X101797406Y-135041646D01*
X101786753Y-135054228D01*
X101758057Y-135119419D01*
X101622089Y-135119419D01*
X101632572Y-135061108D01*
X101662505Y-134994430D01*
X101690211Y-134957747D01*
X101744269Y-134910646D01*
X101813577Y-134880480D01*
X101905765Y-134864440D01*
X102022986Y-134859927D01*
X102028462Y-134859717D01*
X102104652Y-134861279D01*
G37*
X102101643Y-130919544D02*
X102133021Y-130923052D01*
X102244705Y-130949191D01*
X102329642Y-130996424D01*
X102394741Y-131068256D01*
X102397428Y-131072316D01*
X102435634Y-131163631D01*
X102439034Y-131258974D01*
X102409939Y-131350844D01*
X102350660Y-131431739D01*
X102263510Y-131494156D01*
X102261409Y-131495204D01*
X102207289Y-131515945D01*
X102145781Y-131531138D01*
X102088039Y-131539197D01*
X102045215Y-131538536D01*
X102028462Y-131527570D01*
X102029480Y-131517828D01*
X102048009Y-131471241D01*
X102082081Y-131418436D01*
X102121522Y-131373515D01*
X102156155Y-131350583D01*
X102203133Y-131326745D01*
X102245862Y-131277888D01*
X102262923Y-131221155D01*
X102257990Y-131200360D01*
X102233157Y-131159314D01*
X102198685Y-131123561D01*
X102167411Y-131108272D01*
X102167295Y-131108276D01*
X102152933Y-131125623D01*
X102127025Y-131171871D01*
X102093210Y-131240051D01*
X102055129Y-131323195D01*
X102054927Y-131323652D01*
X102014709Y-131413980D01*
X101985733Y-131474526D01*
X101963474Y-131511230D01*
X101943407Y-131530032D01*
X101921009Y-131536872D01*
X101891756Y-131537689D01*
X101821654Y-131530496D01*
X101726412Y-131494934D01*
X101651567Y-131435404D01*
X101599745Y-131358372D01*
X101573573Y-131270303D01*
X101575071Y-131204295D01*
X101756856Y-131204295D01*
X101759406Y-131260937D01*
X101794120Y-131313534D01*
X101818107Y-131334208D01*
X101836363Y-131339118D01*
X101853777Y-131319207D01*
X101879872Y-131269597D01*
X101880610Y-131268142D01*
X101908483Y-131209612D01*
X101930719Y-131157250D01*
X101940126Y-131124032D01*
X101927552Y-131110708D01*
X101884468Y-131108272D01*
X101830847Y-131118394D01*
X101782119Y-131153487D01*
X101756856Y-131204295D01*
X101575071Y-131204295D01*
X101575676Y-131177664D01*
X101608681Y-131086920D01*
X101675215Y-131004539D01*
X101741055Y-130958896D01*
X101835036Y-130926110D01*
X101884468Y-130920779D01*
X101953536Y-130913331D01*
X102101643Y-130919544D01*
G36*
X102101643Y-130919544D02*
G01*
X102133021Y-130923052D01*
X102244705Y-130949191D01*
X102329642Y-130996424D01*
X102394741Y-131068256D01*
X102397428Y-131072316D01*
X102435634Y-131163631D01*
X102439034Y-131258974D01*
X102409939Y-131350844D01*
X102350660Y-131431739D01*
X102263510Y-131494156D01*
X102261409Y-131495204D01*
X102207289Y-131515945D01*
X102145781Y-131531138D01*
X102088039Y-131539197D01*
X102045215Y-131538536D01*
X102028462Y-131527570D01*
X102029480Y-131517828D01*
X102048009Y-131471241D01*
X102082081Y-131418436D01*
X102121522Y-131373515D01*
X102156155Y-131350583D01*
X102203133Y-131326745D01*
X102245862Y-131277888D01*
X102262923Y-131221155D01*
X102257990Y-131200360D01*
X102233157Y-131159314D01*
X102198685Y-131123561D01*
X102167411Y-131108272D01*
X102167295Y-131108276D01*
X102152933Y-131125623D01*
X102127025Y-131171871D01*
X102093210Y-131240051D01*
X102055129Y-131323195D01*
X102054927Y-131323652D01*
X102014709Y-131413980D01*
X101985733Y-131474526D01*
X101963474Y-131511230D01*
X101943407Y-131530032D01*
X101921009Y-131536872D01*
X101891756Y-131537689D01*
X101821654Y-131530496D01*
X101726412Y-131494934D01*
X101651567Y-131435404D01*
X101599745Y-131358372D01*
X101573573Y-131270303D01*
X101575071Y-131204295D01*
X101756856Y-131204295D01*
X101759406Y-131260937D01*
X101794120Y-131313534D01*
X101818107Y-131334208D01*
X101836363Y-131339118D01*
X101853777Y-131319207D01*
X101879872Y-131269597D01*
X101880610Y-131268142D01*
X101908483Y-131209612D01*
X101930719Y-131157250D01*
X101940126Y-131124032D01*
X101927552Y-131110708D01*
X101884468Y-131108272D01*
X101830847Y-131118394D01*
X101782119Y-131153487D01*
X101756856Y-131204295D01*
X101575071Y-131204295D01*
X101575676Y-131177664D01*
X101608681Y-131086920D01*
X101675215Y-131004539D01*
X101741055Y-130958896D01*
X101835036Y-130926110D01*
X101884468Y-130920779D01*
X101953536Y-130913331D01*
X102101643Y-130919544D01*
G37*
X101941518Y-133593927D02*
X101914837Y-133637418D01*
X101859446Y-133671692D01*
X101848024Y-133675211D01*
X101789838Y-133713090D01*
X101758407Y-133770182D01*
X101757058Y-133835735D01*
X101789116Y-133899001D01*
X101797383Y-133908446D01*
X101833311Y-133940031D01*
X101864635Y-133945247D01*
X101895391Y-133921353D01*
X101929617Y-133865608D01*
X101971350Y-133775272D01*
X101973993Y-133769162D01*
X102020755Y-133668877D01*
X102062181Y-133600383D01*
X102103542Y-133558219D01*
X102150111Y-133536925D01*
X102207160Y-133531041D01*
X102270408Y-133538752D01*
X102351364Y-133577688D01*
X102409522Y-133646186D01*
X102426983Y-133695730D01*
X102436537Y-133765649D01*
X102434496Y-133833543D01*
X102420082Y-133882025D01*
X102416493Y-133887175D01*
X102391416Y-133900851D01*
X102347218Y-133891361D01*
X102312527Y-133874872D01*
X102298084Y-133848431D01*
X102298803Y-133798284D01*
X102294660Y-133728665D01*
X102266054Y-133683175D01*
X102213104Y-133667810D01*
X102211582Y-133667824D01*
X102180845Y-133677135D01*
X102152643Y-133708807D01*
X102120136Y-133770387D01*
X102080998Y-133854132D01*
X102059706Y-133909600D01*
X102061079Y-133941621D01*
X102089203Y-133956584D01*
X102148170Y-133960876D01*
X102242068Y-133960887D01*
X102300031Y-133961366D01*
X102371612Y-133963562D01*
X102420606Y-133967132D01*
X102438769Y-133971627D01*
X102438646Y-133972828D01*
X102428802Y-133998799D01*
X102408028Y-134041813D01*
X102377287Y-134101259D01*
X102100298Y-134094195D01*
X102081928Y-134093704D01*
X101952992Y-134088093D01*
X101855814Y-134078180D01*
X101783925Y-134061943D01*
X101730852Y-134037359D01*
X101690127Y-134002403D01*
X101655279Y-133955054D01*
X101654733Y-133954178D01*
X101626303Y-133877619D01*
X101621500Y-133789074D01*
X101639228Y-133703660D01*
X101678389Y-133636496D01*
X101708902Y-133606949D01*
X101800110Y-133550170D01*
X101899548Y-133531041D01*
X101967960Y-133531041D01*
X101941518Y-133593927D01*
G36*
X101941518Y-133593927D02*
G01*
X101914837Y-133637418D01*
X101859446Y-133671692D01*
X101848024Y-133675211D01*
X101789838Y-133713090D01*
X101758407Y-133770182D01*
X101757058Y-133835735D01*
X101789116Y-133899001D01*
X101797383Y-133908446D01*
X101833311Y-133940031D01*
X101864635Y-133945247D01*
X101895391Y-133921353D01*
X101929617Y-133865608D01*
X101971350Y-133775272D01*
X101973993Y-133769162D01*
X102020755Y-133668877D01*
X102062181Y-133600383D01*
X102103542Y-133558219D01*
X102150111Y-133536925D01*
X102207160Y-133531041D01*
X102270408Y-133538752D01*
X102351364Y-133577688D01*
X102409522Y-133646186D01*
X102426983Y-133695730D01*
X102436537Y-133765649D01*
X102434496Y-133833543D01*
X102420082Y-133882025D01*
X102416493Y-133887175D01*
X102391416Y-133900851D01*
X102347218Y-133891361D01*
X102312527Y-133874872D01*
X102298084Y-133848431D01*
X102298803Y-133798284D01*
X102294660Y-133728665D01*
X102266054Y-133683175D01*
X102213104Y-133667810D01*
X102211582Y-133667824D01*
X102180845Y-133677135D01*
X102152643Y-133708807D01*
X102120136Y-133770387D01*
X102080998Y-133854132D01*
X102059706Y-133909600D01*
X102061079Y-133941621D01*
X102089203Y-133956584D01*
X102148170Y-133960876D01*
X102242068Y-133960887D01*
X102300031Y-133961366D01*
X102371612Y-133963562D01*
X102420606Y-133967132D01*
X102438769Y-133971627D01*
X102438646Y-133972828D01*
X102428802Y-133998799D01*
X102408028Y-134041813D01*
X102377287Y-134101259D01*
X102100298Y-134094195D01*
X102081928Y-134093704D01*
X101952992Y-134088093D01*
X101855814Y-134078180D01*
X101783925Y-134061943D01*
X101730852Y-134037359D01*
X101690127Y-134002403D01*
X101655279Y-133955054D01*
X101654733Y-133954178D01*
X101626303Y-133877619D01*
X101621500Y-133789074D01*
X101639228Y-133703660D01*
X101678389Y-133636496D01*
X101708902Y-133606949D01*
X101800110Y-133550170D01*
X101899548Y-133531041D01*
X101967960Y-133531041D01*
X101941518Y-133593927D01*
G37*
X102257670Y-136345808D02*
X102332868Y-136378547D01*
X102394131Y-136440277D01*
X102420210Y-136490260D01*
X102438470Y-136586815D01*
X102436007Y-136640471D01*
X102422687Y-136690142D01*
X102394739Y-136709199D01*
X102348710Y-136702073D01*
X102342624Y-136700000D01*
X102310349Y-136683562D01*
X102298133Y-136656192D01*
X102298950Y-136604050D01*
X102300061Y-136567234D01*
X102290528Y-136524157D01*
X102262026Y-136494643D01*
X102226935Y-136477832D01*
X102190175Y-136475957D01*
X102189961Y-136476044D01*
X102170098Y-136497839D01*
X102141192Y-136544486D01*
X102108886Y-136604840D01*
X102078823Y-136667758D01*
X102056646Y-136722095D01*
X102048000Y-136756708D01*
X102056467Y-136761858D01*
X102096309Y-136768340D01*
X102161371Y-136772779D01*
X102243385Y-136774426D01*
X102300153Y-136774809D01*
X102371648Y-136776613D01*
X102420610Y-136779560D01*
X102438769Y-136783275D01*
X102432667Y-136802694D01*
X102416095Y-136841891D01*
X102393420Y-136891656D01*
X102102509Y-136891656D01*
X102027940Y-136891338D01*
X101914701Y-136888329D01*
X101830692Y-136880664D01*
X101769520Y-136866556D01*
X101724795Y-136844219D01*
X101690124Y-136811865D01*
X101659117Y-136767708D01*
X101633528Y-136711451D01*
X101618154Y-136607578D01*
X101619911Y-136560182D01*
X101630547Y-136518311D01*
X101657062Y-136479327D01*
X101706420Y-136429153D01*
X101741279Y-136396886D01*
X101786534Y-136363274D01*
X101828951Y-136348115D01*
X101882768Y-136344579D01*
X101970850Y-136344579D01*
X101939787Y-136404648D01*
X101901936Y-136452251D01*
X101850950Y-136484857D01*
X101837088Y-136490457D01*
X101783358Y-136533126D01*
X101756417Y-136592411D01*
X101759039Y-136657057D01*
X101794000Y-136715810D01*
X101822394Y-136740668D01*
X101858718Y-136755148D01*
X101891046Y-136739648D01*
X101923565Y-136691451D01*
X101960461Y-136607844D01*
X101965557Y-136595156D01*
X101998907Y-136519040D01*
X102031793Y-136453722D01*
X102057769Y-136412165D01*
X102104167Y-136370542D01*
X102178211Y-136342871D01*
X102257670Y-136345808D01*
G36*
X102257670Y-136345808D02*
G01*
X102332868Y-136378547D01*
X102394131Y-136440277D01*
X102420210Y-136490260D01*
X102438470Y-136586815D01*
X102436007Y-136640471D01*
X102422687Y-136690142D01*
X102394739Y-136709199D01*
X102348710Y-136702073D01*
X102342624Y-136700000D01*
X102310349Y-136683562D01*
X102298133Y-136656192D01*
X102298950Y-136604050D01*
X102300061Y-136567234D01*
X102290528Y-136524157D01*
X102262026Y-136494643D01*
X102226935Y-136477832D01*
X102190175Y-136475957D01*
X102189961Y-136476044D01*
X102170098Y-136497839D01*
X102141192Y-136544486D01*
X102108886Y-136604840D01*
X102078823Y-136667758D01*
X102056646Y-136722095D01*
X102048000Y-136756708D01*
X102056467Y-136761858D01*
X102096309Y-136768340D01*
X102161371Y-136772779D01*
X102243385Y-136774426D01*
X102300153Y-136774809D01*
X102371648Y-136776613D01*
X102420610Y-136779560D01*
X102438769Y-136783275D01*
X102432667Y-136802694D01*
X102416095Y-136841891D01*
X102393420Y-136891656D01*
X102102509Y-136891656D01*
X102027940Y-136891338D01*
X101914701Y-136888329D01*
X101830692Y-136880664D01*
X101769520Y-136866556D01*
X101724795Y-136844219D01*
X101690124Y-136811865D01*
X101659117Y-136767708D01*
X101633528Y-136711451D01*
X101618154Y-136607578D01*
X101619911Y-136560182D01*
X101630547Y-136518311D01*
X101657062Y-136479327D01*
X101706420Y-136429153D01*
X101741279Y-136396886D01*
X101786534Y-136363274D01*
X101828951Y-136348115D01*
X101882768Y-136344579D01*
X101970850Y-136344579D01*
X101939787Y-136404648D01*
X101901936Y-136452251D01*
X101850950Y-136484857D01*
X101837088Y-136490457D01*
X101783358Y-136533126D01*
X101756417Y-136592411D01*
X101759039Y-136657057D01*
X101794000Y-136715810D01*
X101822394Y-136740668D01*
X101858718Y-136755148D01*
X101891046Y-136739648D01*
X101923565Y-136691451D01*
X101960461Y-136607844D01*
X101965557Y-136595156D01*
X101998907Y-136519040D01*
X102031793Y-136453722D01*
X102057769Y-136412165D01*
X102104167Y-136370542D01*
X102178211Y-136342871D01*
X102257670Y-136345808D01*
G37*
X102629804Y-130173841D02*
X102684522Y-130179420D01*
X102716761Y-130189551D01*
X102730422Y-130205292D01*
X102729403Y-130227701D01*
X102717603Y-130257838D01*
X102698920Y-130296763D01*
X102694933Y-130305080D01*
X102675419Y-130339716D01*
X102652202Y-130357804D01*
X102613492Y-130364726D01*
X102547497Y-130365862D01*
X102429000Y-130365913D01*
X102429000Y-130487977D01*
X102425712Y-130563063D01*
X102412377Y-130622103D01*
X102385423Y-130671132D01*
X102382788Y-130674788D01*
X102338286Y-130724537D01*
X102284523Y-130759159D01*
X102214154Y-130780995D01*
X102119830Y-130792381D01*
X101994206Y-130795656D01*
X101902536Y-130794931D01*
X101833098Y-130791628D01*
X101784945Y-130784290D01*
X101748866Y-130771463D01*
X101715648Y-130751695D01*
X101690261Y-130733549D01*
X101621727Y-130667657D01*
X101584505Y-130593004D01*
X101572722Y-130499214D01*
X101573544Y-130491702D01*
X101754923Y-130491702D01*
X101757050Y-130514801D01*
X101778147Y-130554768D01*
X101825161Y-130581192D01*
X101902175Y-130595788D01*
X102013271Y-130600272D01*
X102031131Y-130600238D01*
X102111748Y-130598383D01*
X102164447Y-130592425D01*
X102198668Y-130580612D01*
X102223846Y-130561195D01*
X102225049Y-130559985D01*
X102257628Y-130512260D01*
X102254417Y-130466008D01*
X102214965Y-130413768D01*
X102201482Y-130400990D01*
X102173837Y-130382169D01*
X102137880Y-130371556D01*
X102083364Y-130366866D01*
X102000042Y-130365810D01*
X101949598Y-130366724D01*
X101857857Y-130376641D01*
X101797752Y-130399276D01*
X101764900Y-130436880D01*
X101754923Y-130491702D01*
X101573544Y-130491702D01*
X101584467Y-130391878D01*
X101626595Y-130299087D01*
X101700898Y-130225697D01*
X101708764Y-130220164D01*
X101729668Y-130207261D01*
X101753555Y-130197376D01*
X101785582Y-130190025D01*
X101830905Y-130184724D01*
X101894679Y-130180991D01*
X101982060Y-130178340D01*
X102000042Y-130178022D01*
X102098205Y-130176290D01*
X102248269Y-130174355D01*
X102291802Y-130173818D01*
X102437344Y-130172099D01*
X102548711Y-130171753D01*
X102629804Y-130173841D01*
G36*
X102629804Y-130173841D02*
G01*
X102684522Y-130179420D01*
X102716761Y-130189551D01*
X102730422Y-130205292D01*
X102729403Y-130227701D01*
X102717603Y-130257838D01*
X102698920Y-130296763D01*
X102694933Y-130305080D01*
X102675419Y-130339716D01*
X102652202Y-130357804D01*
X102613492Y-130364726D01*
X102547497Y-130365862D01*
X102429000Y-130365913D01*
X102429000Y-130487977D01*
X102425712Y-130563063D01*
X102412377Y-130622103D01*
X102385423Y-130671132D01*
X102382788Y-130674788D01*
X102338286Y-130724537D01*
X102284523Y-130759159D01*
X102214154Y-130780995D01*
X102119830Y-130792381D01*
X101994206Y-130795656D01*
X101902536Y-130794931D01*
X101833098Y-130791628D01*
X101784945Y-130784290D01*
X101748866Y-130771463D01*
X101715648Y-130751695D01*
X101690261Y-130733549D01*
X101621727Y-130667657D01*
X101584505Y-130593004D01*
X101572722Y-130499214D01*
X101573544Y-130491702D01*
X101754923Y-130491702D01*
X101757050Y-130514801D01*
X101778147Y-130554768D01*
X101825161Y-130581192D01*
X101902175Y-130595788D01*
X102013271Y-130600272D01*
X102031131Y-130600238D01*
X102111748Y-130598383D01*
X102164447Y-130592425D01*
X102198668Y-130580612D01*
X102223846Y-130561195D01*
X102225049Y-130559985D01*
X102257628Y-130512260D01*
X102254417Y-130466008D01*
X102214965Y-130413768D01*
X102201482Y-130400990D01*
X102173837Y-130382169D01*
X102137880Y-130371556D01*
X102083364Y-130366866D01*
X102000042Y-130365810D01*
X101949598Y-130366724D01*
X101857857Y-130376641D01*
X101797752Y-130399276D01*
X101764900Y-130436880D01*
X101754923Y-130491702D01*
X101573544Y-130491702D01*
X101584467Y-130391878D01*
X101626595Y-130299087D01*
X101700898Y-130225697D01*
X101708764Y-130220164D01*
X101729668Y-130207261D01*
X101753555Y-130197376D01*
X101785582Y-130190025D01*
X101830905Y-130184724D01*
X101894679Y-130180991D01*
X101982060Y-130178340D01*
X102000042Y-130178022D01*
X102098205Y-130176290D01*
X102248269Y-130174355D01*
X102291802Y-130173818D01*
X102437344Y-130172099D01*
X102548711Y-130171753D01*
X102629804Y-130173841D01*
G37*
X98822091Y-130839618D02*
X98824518Y-130852026D01*
X98837088Y-130917919D01*
X98854170Y-131009034D01*
X98873829Y-131115014D01*
X98894132Y-131225503D01*
X98902299Y-131269013D01*
X98922167Y-131366236D01*
X98940954Y-131447260D01*
X98956859Y-131504641D01*
X98968079Y-131530931D01*
X98986411Y-131542845D01*
X99034916Y-131564535D01*
X99097692Y-131586723D01*
X99121200Y-131594533D01*
X99198366Y-131623283D01*
X99289694Y-131660366D01*
X99380093Y-131699743D01*
X99427310Y-131720803D01*
X99497837Y-131750807D01*
X99550655Y-131771426D01*
X99576912Y-131779092D01*
X99578894Y-131778666D01*
X99606751Y-131764125D01*
X99660510Y-131731335D01*
X99734963Y-131683625D01*
X99824897Y-131624320D01*
X99925104Y-131556749D01*
X100251416Y-131334405D01*
X100544016Y-131626517D01*
X100572171Y-131654769D01*
X100656449Y-131741157D01*
X100729128Y-131818362D01*
X100786112Y-131881860D01*
X100823307Y-131927128D01*
X100836616Y-131949644D01*
X100826490Y-131974095D01*
X100797421Y-132025299D01*
X100752896Y-132097371D01*
X100696411Y-132184658D01*
X100631462Y-132281506D01*
X100567314Y-132376632D01*
X100510827Y-132462449D01*
X100466184Y-132532466D01*
X100436855Y-132581242D01*
X100426308Y-132603335D01*
X100426404Y-132604630D01*
X100436802Y-132633979D01*
X100461012Y-132686025D01*
X100494249Y-132750410D01*
X100494613Y-132751086D01*
X100537441Y-132836597D01*
X100558365Y-132895192D01*
X100558423Y-132931547D01*
X100538654Y-132950343D01*
X100519195Y-132958299D01*
X100467080Y-132979771D01*
X100386964Y-133012845D01*
X100283107Y-133055762D01*
X100159767Y-133106762D01*
X100021201Y-133164085D01*
X99871670Y-133225972D01*
X99735636Y-133282066D01*
X99596050Y-133339141D01*
X99471315Y-133389639D01*
X99365672Y-133431864D01*
X99283365Y-133464123D01*
X99228635Y-133484721D01*
X99205726Y-133491964D01*
X99184718Y-133478132D01*
X99149642Y-133439706D01*
X99108887Y-133385311D01*
X99002267Y-133254723D01*
X98866025Y-133137858D01*
X98716118Y-133052338D01*
X98556971Y-132998687D01*
X98393012Y-132977434D01*
X98228667Y-132989104D01*
X98068361Y-133034224D01*
X97916520Y-133113321D01*
X97777572Y-133226921D01*
X97723460Y-133286153D01*
X97627782Y-133428064D01*
X97565405Y-133579912D01*
X97534844Y-133737257D01*
X97534615Y-133895662D01*
X97563232Y-134050689D01*
X97619210Y-134197898D01*
X97701064Y-134332852D01*
X97807309Y-134451113D01*
X97936459Y-134548241D01*
X98087031Y-134619800D01*
X98257539Y-134661349D01*
X98339722Y-134668975D01*
X98517775Y-134658484D01*
X98686704Y-134611236D01*
X98843522Y-134528629D01*
X98985245Y-134412059D01*
X99108887Y-134262925D01*
X99147982Y-134210557D01*
X99183443Y-134171286D01*
X99205692Y-134156272D01*
X99225088Y-134162259D01*
X99277059Y-134181686D01*
X99357002Y-134212924D01*
X99460673Y-134254279D01*
X99583832Y-134304057D01*
X99722234Y-134360565D01*
X99871637Y-134422109D01*
X100007020Y-134478110D01*
X100146852Y-134535934D01*
X100271872Y-134587618D01*
X100377822Y-134631400D01*
X100460441Y-134665521D01*
X100515472Y-134688220D01*
X100538654Y-134697738D01*
X100538928Y-134697849D01*
X100558503Y-134716890D01*
X100558279Y-134753424D01*
X100537210Y-134812164D01*
X100494249Y-134897826D01*
X100490631Y-134904569D01*
X100458087Y-134968180D01*
X100435050Y-135018411D01*
X100426308Y-135044900D01*
X100436639Y-135066612D01*
X100465788Y-135115134D01*
X100510287Y-135184955D01*
X100566668Y-135270634D01*
X100631462Y-135366730D01*
X100694984Y-135461412D01*
X100751705Y-135548986D01*
X100796547Y-135621476D01*
X100826016Y-135673229D01*
X100836616Y-135698592D01*
X100835270Y-135702912D01*
X100814056Y-135733026D01*
X100770237Y-135784478D01*
X100707909Y-135852743D01*
X100631170Y-135933298D01*
X100544116Y-136021618D01*
X100251617Y-136313630D01*
X99582525Y-135858758D01*
X99432916Y-135927910D01*
X99432473Y-135928115D01*
X99337101Y-135969641D01*
X99230896Y-136012074D01*
X99136769Y-136046260D01*
X99121588Y-136051434D01*
X99051109Y-136077517D01*
X98996342Y-136101037D01*
X98968079Y-136117441D01*
X98964088Y-136124122D01*
X98950697Y-136164226D01*
X98933373Y-136232323D01*
X98913917Y-136320973D01*
X98894132Y-136422733D01*
X98888551Y-136453214D01*
X98868233Y-136563490D01*
X98849095Y-136666387D01*
X98833070Y-136751549D01*
X98822091Y-136808618D01*
X98801845Y-136911195D01*
X98374701Y-136911195D01*
X98322180Y-136911172D01*
X98194047Y-136910739D01*
X98098420Y-136909459D01*
X98030411Y-136906950D01*
X97985133Y-136902832D01*
X97957697Y-136896723D01*
X97943218Y-136888240D01*
X97936807Y-136877003D01*
X97934209Y-136866124D01*
X97925022Y-136821771D01*
X97910991Y-136751012D01*
X97893486Y-136661044D01*
X97873874Y-136559062D01*
X97853525Y-136452261D01*
X97833807Y-136347837D01*
X97816089Y-136252986D01*
X97801738Y-136174904D01*
X97792124Y-136120786D01*
X97788616Y-136097827D01*
X97786497Y-136096276D01*
X97759006Y-136083793D01*
X97706406Y-136062191D01*
X97637192Y-136034995D01*
X97543937Y-135997252D01*
X97436159Y-135950790D01*
X97341172Y-135907240D01*
X97319851Y-135897260D01*
X97253086Y-135869256D01*
X97201590Y-135852477D01*
X97175095Y-135850264D01*
X97173218Y-135851405D01*
X97145565Y-135869534D01*
X97091849Y-135905474D01*
X97017303Y-135955700D01*
X96927162Y-136016688D01*
X96826657Y-136084913D01*
X96712470Y-136161788D01*
X96623770Y-136219455D01*
X96558721Y-136258692D01*
X96513295Y-136281768D01*
X96483463Y-136290952D01*
X96465195Y-136288514D01*
X96463825Y-136287694D01*
X96437205Y-136265641D01*
X96388697Y-136220682D01*
X96323108Y-136157445D01*
X96245247Y-136080559D01*
X96159922Y-135994653D01*
X96073334Y-135905539D01*
X95991947Y-135818246D01*
X95937035Y-135754100D01*
X95907190Y-135711439D01*
X95901004Y-135688597D01*
X95902394Y-135685613D01*
X95921127Y-135654182D01*
X95957733Y-135597121D01*
X96008697Y-135519775D01*
X96070504Y-135427492D01*
X96139639Y-135325616D01*
X96366420Y-134993525D01*
X96298353Y-134843552D01*
X96296381Y-134839195D01*
X96256491Y-134747118D01*
X96216818Y-134649435D01*
X96185674Y-134566579D01*
X96185545Y-134566213D01*
X96161456Y-134500433D01*
X96141110Y-134449795D01*
X96128901Y-134425234D01*
X96128458Y-134424836D01*
X96103456Y-134416499D01*
X96046598Y-134402777D01*
X95964014Y-134384995D01*
X95861831Y-134364477D01*
X95746178Y-134342547D01*
X95742033Y-134341782D01*
X95624019Y-134319889D01*
X95517151Y-134299837D01*
X95428252Y-134282926D01*
X95364145Y-134270451D01*
X95331654Y-134263712D01*
X95329853Y-134263281D01*
X95315944Y-134258845D01*
X95305489Y-134249855D01*
X95297996Y-134231381D01*
X95292972Y-134198490D01*
X95289922Y-134146250D01*
X95288355Y-134069730D01*
X95287776Y-133963996D01*
X95287692Y-133824118D01*
X95287693Y-133806543D01*
X95287807Y-133670747D01*
X95288472Y-133568542D01*
X95290182Y-133494996D01*
X95293429Y-133445176D01*
X95298706Y-133414151D01*
X95306507Y-133396989D01*
X95317325Y-133388757D01*
X95331654Y-133384524D01*
X95332168Y-133384402D01*
X95365851Y-133377446D01*
X95430917Y-133364798D01*
X95520542Y-133347758D01*
X95627904Y-133327622D01*
X95746178Y-133305689D01*
X95755856Y-133303900D01*
X95870650Y-133282035D01*
X95971480Y-133261688D01*
X96052217Y-133244184D01*
X96106734Y-133230847D01*
X96128901Y-133223002D01*
X96128936Y-133222960D01*
X96141200Y-133198234D01*
X96161576Y-133147487D01*
X96185674Y-133081656D01*
X96186983Y-133077949D01*
X96218791Y-132993787D01*
X96258685Y-132895888D01*
X96298353Y-132804683D01*
X96366420Y-132654711D01*
X96139639Y-132322619D01*
X96123688Y-132299229D01*
X96055890Y-132199038D01*
X95996208Y-132109638D01*
X95948156Y-132036373D01*
X95915250Y-131984591D01*
X95901004Y-131959638D01*
X95904270Y-131942541D01*
X95929571Y-131903723D01*
X95979675Y-131843733D01*
X96055989Y-131760908D01*
X96159922Y-131653583D01*
X96169382Y-131643979D01*
X96254145Y-131558816D01*
X96330937Y-131483169D01*
X96394947Y-131421669D01*
X96441361Y-131378945D01*
X96465369Y-131359629D01*
X96465485Y-131359566D01*
X96483763Y-131357112D01*
X96513411Y-131366162D01*
X96558486Y-131388999D01*
X96623044Y-131427905D01*
X96711140Y-131485164D01*
X96826830Y-131563059D01*
X96846357Y-131576333D01*
X96945278Y-131643466D01*
X97032848Y-131702708D01*
X97103831Y-131750530D01*
X97152991Y-131783403D01*
X97175095Y-131797800D01*
X97179777Y-131798886D01*
X97214710Y-131792074D01*
X97271753Y-131771668D01*
X97341172Y-131740995D01*
X97431959Y-131699310D01*
X97539686Y-131652766D01*
X97637192Y-131613241D01*
X97662430Y-131603442D01*
X97726870Y-131577778D01*
X97771763Y-131558925D01*
X97788616Y-131550408D01*
X97789875Y-131541007D01*
X97797159Y-131498755D01*
X97809739Y-131429597D01*
X97826246Y-131340731D01*
X97845312Y-131239350D01*
X97865569Y-131132651D01*
X97885647Y-131027830D01*
X97904179Y-130932082D01*
X97919795Y-130852602D01*
X97931127Y-130796588D01*
X97936807Y-130771233D01*
X97938408Y-130767030D01*
X97947045Y-130756784D01*
X97965433Y-130749161D01*
X97998460Y-130743780D01*
X98051013Y-130740259D01*
X98127979Y-130738217D01*
X98234246Y-130737271D01*
X98374701Y-130737041D01*
X98801845Y-130737041D01*
X98822091Y-130839618D01*
G36*
X98822091Y-130839618D02*
G01*
X98824518Y-130852026D01*
X98837088Y-130917919D01*
X98854170Y-131009034D01*
X98873829Y-131115014D01*
X98894132Y-131225503D01*
X98902299Y-131269013D01*
X98922167Y-131366236D01*
X98940954Y-131447260D01*
X98956859Y-131504641D01*
X98968079Y-131530931D01*
X98986411Y-131542845D01*
X99034916Y-131564535D01*
X99097692Y-131586723D01*
X99121200Y-131594533D01*
X99198366Y-131623283D01*
X99289694Y-131660366D01*
X99380093Y-131699743D01*
X99427310Y-131720803D01*
X99497837Y-131750807D01*
X99550655Y-131771426D01*
X99576912Y-131779092D01*
X99578894Y-131778666D01*
X99606751Y-131764125D01*
X99660510Y-131731335D01*
X99734963Y-131683625D01*
X99824897Y-131624320D01*
X99925104Y-131556749D01*
X100251416Y-131334405D01*
X100544016Y-131626517D01*
X100572171Y-131654769D01*
X100656449Y-131741157D01*
X100729128Y-131818362D01*
X100786112Y-131881860D01*
X100823307Y-131927128D01*
X100836616Y-131949644D01*
X100826490Y-131974095D01*
X100797421Y-132025299D01*
X100752896Y-132097371D01*
X100696411Y-132184658D01*
X100631462Y-132281506D01*
X100567314Y-132376632D01*
X100510827Y-132462449D01*
X100466184Y-132532466D01*
X100436855Y-132581242D01*
X100426308Y-132603335D01*
X100426404Y-132604630D01*
X100436802Y-132633979D01*
X100461012Y-132686025D01*
X100494249Y-132750410D01*
X100494613Y-132751086D01*
X100537441Y-132836597D01*
X100558365Y-132895192D01*
X100558423Y-132931547D01*
X100538654Y-132950343D01*
X100519195Y-132958299D01*
X100467080Y-132979771D01*
X100386964Y-133012845D01*
X100283107Y-133055762D01*
X100159767Y-133106762D01*
X100021201Y-133164085D01*
X99871670Y-133225972D01*
X99735636Y-133282066D01*
X99596050Y-133339141D01*
X99471315Y-133389639D01*
X99365672Y-133431864D01*
X99283365Y-133464123D01*
X99228635Y-133484721D01*
X99205726Y-133491964D01*
X99184718Y-133478132D01*
X99149642Y-133439706D01*
X99108887Y-133385311D01*
X99002267Y-133254723D01*
X98866025Y-133137858D01*
X98716118Y-133052338D01*
X98556971Y-132998687D01*
X98393012Y-132977434D01*
X98228667Y-132989104D01*
X98068361Y-133034224D01*
X97916520Y-133113321D01*
X97777572Y-133226921D01*
X97723460Y-133286153D01*
X97627782Y-133428064D01*
X97565405Y-133579912D01*
X97534844Y-133737257D01*
X97534615Y-133895662D01*
X97563232Y-134050689D01*
X97619210Y-134197898D01*
X97701064Y-134332852D01*
X97807309Y-134451113D01*
X97936459Y-134548241D01*
X98087031Y-134619800D01*
X98257539Y-134661349D01*
X98339722Y-134668975D01*
X98517775Y-134658484D01*
X98686704Y-134611236D01*
X98843522Y-134528629D01*
X98985245Y-134412059D01*
X99108887Y-134262925D01*
X99147982Y-134210557D01*
X99183443Y-134171286D01*
X99205692Y-134156272D01*
X99225088Y-134162259D01*
X99277059Y-134181686D01*
X99357002Y-134212924D01*
X99460673Y-134254279D01*
X99583832Y-134304057D01*
X99722234Y-134360565D01*
X99871637Y-134422109D01*
X100007020Y-134478110D01*
X100146852Y-134535934D01*
X100271872Y-134587618D01*
X100377822Y-134631400D01*
X100460441Y-134665521D01*
X100515472Y-134688220D01*
X100538654Y-134697738D01*
X100538928Y-134697849D01*
X100558503Y-134716890D01*
X100558279Y-134753424D01*
X100537210Y-134812164D01*
X100494249Y-134897826D01*
X100490631Y-134904569D01*
X100458087Y-134968180D01*
X100435050Y-135018411D01*
X100426308Y-135044900D01*
X100436639Y-135066612D01*
X100465788Y-135115134D01*
X100510287Y-135184955D01*
X100566668Y-135270634D01*
X100631462Y-135366730D01*
X100694984Y-135461412D01*
X100751705Y-135548986D01*
X100796547Y-135621476D01*
X100826016Y-135673229D01*
X100836616Y-135698592D01*
X100835270Y-135702912D01*
X100814056Y-135733026D01*
X100770237Y-135784478D01*
X100707909Y-135852743D01*
X100631170Y-135933298D01*
X100544116Y-136021618D01*
X100251617Y-136313630D01*
X99582525Y-135858758D01*
X99432916Y-135927910D01*
X99432473Y-135928115D01*
X99337101Y-135969641D01*
X99230896Y-136012074D01*
X99136769Y-136046260D01*
X99121588Y-136051434D01*
X99051109Y-136077517D01*
X98996342Y-136101037D01*
X98968079Y-136117441D01*
X98964088Y-136124122D01*
X98950697Y-136164226D01*
X98933373Y-136232323D01*
X98913917Y-136320973D01*
X98894132Y-136422733D01*
X98888551Y-136453214D01*
X98868233Y-136563490D01*
X98849095Y-136666387D01*
X98833070Y-136751549D01*
X98822091Y-136808618D01*
X98801845Y-136911195D01*
X98374701Y-136911195D01*
X98322180Y-136911172D01*
X98194047Y-136910739D01*
X98098420Y-136909459D01*
X98030411Y-136906950D01*
X97985133Y-136902832D01*
X97957697Y-136896723D01*
X97943218Y-136888240D01*
X97936807Y-136877003D01*
X97934209Y-136866124D01*
X97925022Y-136821771D01*
X97910991Y-136751012D01*
X97893486Y-136661044D01*
X97873874Y-136559062D01*
X97853525Y-136452261D01*
X97833807Y-136347837D01*
X97816089Y-136252986D01*
X97801738Y-136174904D01*
X97792124Y-136120786D01*
X97788616Y-136097827D01*
X97786497Y-136096276D01*
X97759006Y-136083793D01*
X97706406Y-136062191D01*
X97637192Y-136034995D01*
X97543937Y-135997252D01*
X97436159Y-135950790D01*
X97341172Y-135907240D01*
X97319851Y-135897260D01*
X97253086Y-135869256D01*
X97201590Y-135852477D01*
X97175095Y-135850264D01*
X97173218Y-135851405D01*
X97145565Y-135869534D01*
X97091849Y-135905474D01*
X97017303Y-135955700D01*
X96927162Y-136016688D01*
X96826657Y-136084913D01*
X96712470Y-136161788D01*
X96623770Y-136219455D01*
X96558721Y-136258692D01*
X96513295Y-136281768D01*
X96483463Y-136290952D01*
X96465195Y-136288514D01*
X96463825Y-136287694D01*
X96437205Y-136265641D01*
X96388697Y-136220682D01*
X96323108Y-136157445D01*
X96245247Y-136080559D01*
X96159922Y-135994653D01*
X96073334Y-135905539D01*
X95991947Y-135818246D01*
X95937035Y-135754100D01*
X95907190Y-135711439D01*
X95901004Y-135688597D01*
X95902394Y-135685613D01*
X95921127Y-135654182D01*
X95957733Y-135597121D01*
X96008697Y-135519775D01*
X96070504Y-135427492D01*
X96139639Y-135325616D01*
X96366420Y-134993525D01*
X96298353Y-134843552D01*
X96296381Y-134839195D01*
X96256491Y-134747118D01*
X96216818Y-134649435D01*
X96185674Y-134566579D01*
X96185545Y-134566213D01*
X96161456Y-134500433D01*
X96141110Y-134449795D01*
X96128901Y-134425234D01*
X96128458Y-134424836D01*
X96103456Y-134416499D01*
X96046598Y-134402777D01*
X95964014Y-134384995D01*
X95861831Y-134364477D01*
X95746178Y-134342547D01*
X95742033Y-134341782D01*
X95624019Y-134319889D01*
X95517151Y-134299837D01*
X95428252Y-134282926D01*
X95364145Y-134270451D01*
X95331654Y-134263712D01*
X95329853Y-134263281D01*
X95315944Y-134258845D01*
X95305489Y-134249855D01*
X95297996Y-134231381D01*
X95292972Y-134198490D01*
X95289922Y-134146250D01*
X95288355Y-134069730D01*
X95287776Y-133963996D01*
X95287692Y-133824118D01*
X95287693Y-133806543D01*
X95287807Y-133670747D01*
X95288472Y-133568542D01*
X95290182Y-133494996D01*
X95293429Y-133445176D01*
X95298706Y-133414151D01*
X95306507Y-133396989D01*
X95317325Y-133388757D01*
X95331654Y-133384524D01*
X95332168Y-133384402D01*
X95365851Y-133377446D01*
X95430917Y-133364798D01*
X95520542Y-133347758D01*
X95627904Y-133327622D01*
X95746178Y-133305689D01*
X95755856Y-133303900D01*
X95870650Y-133282035D01*
X95971480Y-133261688D01*
X96052217Y-133244184D01*
X96106734Y-133230847D01*
X96128901Y-133223002D01*
X96128936Y-133222960D01*
X96141200Y-133198234D01*
X96161576Y-133147487D01*
X96185674Y-133081656D01*
X96186983Y-133077949D01*
X96218791Y-132993787D01*
X96258685Y-132895888D01*
X96298353Y-132804683D01*
X96366420Y-132654711D01*
X96139639Y-132322619D01*
X96123688Y-132299229D01*
X96055890Y-132199038D01*
X95996208Y-132109638D01*
X95948156Y-132036373D01*
X95915250Y-131984591D01*
X95901004Y-131959638D01*
X95904270Y-131942541D01*
X95929571Y-131903723D01*
X95979675Y-131843733D01*
X96055989Y-131760908D01*
X96159922Y-131653583D01*
X96169382Y-131643979D01*
X96254145Y-131558816D01*
X96330937Y-131483169D01*
X96394947Y-131421669D01*
X96441361Y-131378945D01*
X96465369Y-131359629D01*
X96465485Y-131359566D01*
X96483763Y-131357112D01*
X96513411Y-131366162D01*
X96558486Y-131388999D01*
X96623044Y-131427905D01*
X96711140Y-131485164D01*
X96826830Y-131563059D01*
X96846357Y-131576333D01*
X96945278Y-131643466D01*
X97032848Y-131702708D01*
X97103831Y-131750530D01*
X97152991Y-131783403D01*
X97175095Y-131797800D01*
X97179777Y-131798886D01*
X97214710Y-131792074D01*
X97271753Y-131771668D01*
X97341172Y-131740995D01*
X97431959Y-131699310D01*
X97539686Y-131652766D01*
X97637192Y-131613241D01*
X97662430Y-131603442D01*
X97726870Y-131577778D01*
X97771763Y-131558925D01*
X97788616Y-131550408D01*
X97789875Y-131541007D01*
X97797159Y-131498755D01*
X97809739Y-131429597D01*
X97826246Y-131340731D01*
X97845312Y-131239350D01*
X97865569Y-131132651D01*
X97885647Y-131027830D01*
X97904179Y-130932082D01*
X97919795Y-130852602D01*
X97931127Y-130796588D01*
X97936807Y-130771233D01*
X97938408Y-130767030D01*
X97947045Y-130756784D01*
X97965433Y-130749161D01*
X97998460Y-130743780D01*
X98051013Y-130740259D01*
X98127979Y-130738217D01*
X98234246Y-130737271D01*
X98374701Y-130737041D01*
X98801845Y-130737041D01*
X98822091Y-130839618D01*
G37*
%TO.C,G\u002A\u002A\u002A*%
G36*
X84012500Y-136433186D02*
G01*
X84012500Y-136770852D01*
X85368750Y-136770852D01*
X86725000Y-136770852D01*
X86725000Y-137252339D01*
X86725000Y-137733826D01*
X85368750Y-137733826D01*
X84012500Y-137733826D01*
X84012500Y-138071492D01*
X84012500Y-138409158D01*
X83618750Y-138409158D01*
X83225000Y-138409158D01*
X83225000Y-137252339D01*
X83225000Y-136095520D01*
X83618750Y-136095520D01*
X84012500Y-136095520D01*
X84012500Y-136433186D01*
G37*
G36*
X85113554Y-134907465D02*
G01*
X85315533Y-134907607D01*
X85509635Y-134907859D01*
X85694435Y-134908214D01*
X85868504Y-134908666D01*
X86030416Y-134909207D01*
X86178743Y-134909830D01*
X86312060Y-134910529D01*
X86428938Y-134911296D01*
X86527952Y-134912126D01*
X86607673Y-134913009D01*
X86666675Y-134913941D01*
X86703531Y-134914914D01*
X86716814Y-134915921D01*
X86717025Y-134916278D01*
X86718819Y-134932816D01*
X86720304Y-134971266D01*
X86721450Y-135028831D01*
X86722225Y-135102712D01*
X86722599Y-135190112D01*
X86722541Y-135288235D01*
X86722023Y-135394281D01*
X86718750Y-135864156D01*
X84971874Y-135867326D01*
X83224999Y-135870496D01*
X83224999Y-135388966D01*
X83225000Y-134907435D01*
X84966666Y-134907435D01*
X85113554Y-134907465D01*
G37*
G36*
X86043147Y-133053398D02*
G01*
X86724625Y-133688085D01*
X86724812Y-134217512D01*
X86724616Y-134343540D01*
X86723885Y-134461349D01*
X86722642Y-134560287D01*
X86720914Y-134639125D01*
X86718728Y-134696637D01*
X86716112Y-134731595D01*
X86713093Y-134742771D01*
X86705332Y-134737099D01*
X86679389Y-134716661D01*
X86636680Y-134682449D01*
X86578619Y-134635611D01*
X86506621Y-134577297D01*
X86422101Y-134508657D01*
X86326474Y-134430838D01*
X86221153Y-134344990D01*
X86107554Y-134252262D01*
X85987090Y-134153804D01*
X85861178Y-134050763D01*
X85759996Y-133967927D01*
X85637899Y-133868015D01*
X85522219Y-133773404D01*
X85414393Y-133685267D01*
X85315857Y-133604776D01*
X85228046Y-133533102D01*
X85152396Y-133471418D01*
X85090343Y-133420895D01*
X85043323Y-133382705D01*
X85012771Y-133358020D01*
X85000125Y-133348013D01*
X84999747Y-133347759D01*
X84992333Y-133346334D01*
X84980182Y-133349955D01*
X84961672Y-133359820D01*
X84935179Y-133377129D01*
X84899080Y-133403083D01*
X84851750Y-133438879D01*
X84791567Y-133485719D01*
X84716908Y-133544800D01*
X84626148Y-133617324D01*
X84517665Y-133704489D01*
X84501266Y-133717689D01*
X84385321Y-133811011D01*
X84258652Y-133912965D01*
X84126292Y-134019499D01*
X83993275Y-134126560D01*
X83864636Y-134230099D01*
X83745408Y-134326062D01*
X83640625Y-134410398D01*
X83225000Y-134744919D01*
X83225949Y-134191490D01*
X83226898Y-133638060D01*
X83902357Y-133028385D01*
X84577816Y-132418710D01*
X84969742Y-132418710D01*
X85361669Y-132418710D01*
X86043147Y-133053398D01*
G37*
G36*
X86725000Y-130407049D02*
G01*
X86724999Y-130409357D01*
X86724951Y-130666551D01*
X86724802Y-130899699D01*
X86724544Y-131109760D01*
X86724169Y-131297693D01*
X86723668Y-131464456D01*
X86723035Y-131611007D01*
X86722260Y-131738305D01*
X86721336Y-131847308D01*
X86720254Y-131938975D01*
X86719006Y-132014264D01*
X86717585Y-132074135D01*
X86715982Y-132119544D01*
X86714189Y-132151451D01*
X86712197Y-132170814D01*
X86709999Y-132178592D01*
X86703191Y-132180643D01*
X86684719Y-132182660D01*
X86653766Y-132184476D01*
X86609367Y-132186100D01*
X86550561Y-132187539D01*
X86476385Y-132188802D01*
X86385875Y-132189897D01*
X86278068Y-132190832D01*
X86152002Y-132191616D01*
X86006714Y-132192256D01*
X85841241Y-132192762D01*
X85654619Y-132193141D01*
X85445887Y-132193401D01*
X85214080Y-132193551D01*
X84958237Y-132193599D01*
X83221475Y-132193599D01*
X83222466Y-132174840D01*
X86675000Y-132174840D01*
X86681250Y-132181093D01*
X86687500Y-132174840D01*
X86681250Y-132168587D01*
X86675000Y-132174840D01*
X83222466Y-132174840D01*
X83230231Y-132027893D01*
X83234183Y-131964887D01*
X83241102Y-131877446D01*
X83249248Y-131791326D01*
X83257575Y-131718366D01*
X83258266Y-131713067D01*
X83267557Y-131648650D01*
X83278778Y-131580227D01*
X83290985Y-131512587D01*
X83303238Y-131450521D01*
X83314594Y-131398819D01*
X83324112Y-131362270D01*
X83330851Y-131345665D01*
X83335352Y-131346255D01*
X83361469Y-131351895D01*
X83409625Y-131363086D01*
X83478426Y-131379486D01*
X83566477Y-131400752D01*
X83672384Y-131426540D01*
X83794751Y-131456510D01*
X83932184Y-131490317D01*
X84083288Y-131527620D01*
X84246670Y-131568074D01*
X84420933Y-131611339D01*
X84604683Y-131657071D01*
X84796526Y-131704927D01*
X84995067Y-131754566D01*
X85111835Y-131783781D01*
X85306560Y-131832450D01*
X85493736Y-131879172D01*
X85671971Y-131923600D01*
X85839875Y-131965391D01*
X85996054Y-132004200D01*
X86139118Y-132039682D01*
X86267675Y-132071492D01*
X86380333Y-132099286D01*
X86475700Y-132122720D01*
X86552384Y-132141448D01*
X86608995Y-132155126D01*
X86644139Y-132163410D01*
X86656427Y-132165955D01*
X86652346Y-132163653D01*
X86628211Y-132151709D01*
X86583531Y-132130135D01*
X86519597Y-132099541D01*
X86437697Y-132060536D01*
X86339120Y-132013731D01*
X86225156Y-131959736D01*
X86097093Y-131899161D01*
X85956221Y-131832616D01*
X85803829Y-131760710D01*
X85641205Y-131684055D01*
X85469639Y-131603259D01*
X85290420Y-131518934D01*
X85104837Y-131431688D01*
X84989363Y-131377408D01*
X84807466Y-131291834D01*
X84632692Y-131209526D01*
X84466334Y-131131095D01*
X84309683Y-131057155D01*
X84164033Y-130988319D01*
X84030677Y-130925198D01*
X83910907Y-130868406D01*
X83806016Y-130818555D01*
X83717298Y-130776257D01*
X83646044Y-130742126D01*
X83593548Y-130716775D01*
X83561102Y-130700815D01*
X83550000Y-130694859D01*
X83550204Y-130694017D01*
X83557662Y-130677591D01*
X83574259Y-130644203D01*
X83597817Y-130598174D01*
X83626159Y-130543821D01*
X83629915Y-130536731D01*
X83664719Y-130474311D01*
X83707610Y-130401745D01*
X83755662Y-130323585D01*
X83805944Y-130244381D01*
X83855530Y-130168685D01*
X83901491Y-130101048D01*
X83940898Y-130046022D01*
X83970822Y-130008157D01*
X84006250Y-129967520D01*
X85343302Y-131061800D01*
X85448297Y-131147721D01*
X85604162Y-131275230D01*
X85753955Y-131397723D01*
X85896568Y-131514300D01*
X86030898Y-131624056D01*
X86155837Y-131726090D01*
X86270279Y-131819500D01*
X86373118Y-131903383D01*
X86463249Y-131976836D01*
X86539565Y-132038958D01*
X86600960Y-132088846D01*
X86646328Y-132125597D01*
X86674563Y-132148310D01*
X86681250Y-132153508D01*
X86684560Y-132156081D01*
X86684418Y-132155511D01*
X86674708Y-132142007D01*
X86652017Y-132112697D01*
X86618617Y-132070456D01*
X86576774Y-132018158D01*
X86528758Y-131958678D01*
X86326834Y-131709549D01*
X86122125Y-131456947D01*
X85932271Y-131222631D01*
X85756799Y-131006017D01*
X85595235Y-130806516D01*
X85447106Y-130623542D01*
X85311940Y-130456510D01*
X85189262Y-130304831D01*
X85078600Y-130167920D01*
X84979480Y-130045191D01*
X84891429Y-129936055D01*
X84813974Y-129839928D01*
X84746642Y-129756223D01*
X84688960Y-129684352D01*
X84640453Y-129623729D01*
X84600650Y-129573769D01*
X84569077Y-129533883D01*
X84545260Y-129503487D01*
X84528727Y-129481992D01*
X84519004Y-129468813D01*
X84515618Y-129463362D01*
X84520001Y-129455100D01*
X84541517Y-129433595D01*
X84577854Y-129402646D01*
X84625601Y-129364865D01*
X84681349Y-129322864D01*
X84741688Y-129279255D01*
X84803208Y-129236649D01*
X84862500Y-129197658D01*
X84900130Y-129174520D01*
X84961783Y-129138445D01*
X85029644Y-129100255D01*
X85094632Y-129065133D01*
X85233015Y-128992288D01*
X85962525Y-130561494D01*
X86020925Y-130687085D01*
X86105858Y-130869622D01*
X86187486Y-131044927D01*
X86265208Y-131211712D01*
X86338421Y-131368689D01*
X86406523Y-131514570D01*
X86468912Y-131648069D01*
X86524985Y-131767897D01*
X86574140Y-131872766D01*
X86615775Y-131961389D01*
X86649287Y-132032478D01*
X86674075Y-132084746D01*
X86689536Y-132116904D01*
X86695067Y-132127666D01*
X86694292Y-132123494D01*
X86688376Y-132097912D01*
X86676952Y-132050255D01*
X86660365Y-131981916D01*
X86638958Y-131894290D01*
X86613074Y-131788769D01*
X86583056Y-131666748D01*
X86549249Y-131529621D01*
X86511995Y-131378780D01*
X86471638Y-131215620D01*
X86428521Y-131041534D01*
X86382988Y-130857916D01*
X86335382Y-130666159D01*
X86286047Y-130467658D01*
X86258432Y-130356583D01*
X86209861Y-130161056D01*
X86163141Y-129972784D01*
X86118622Y-129793185D01*
X86076652Y-129623676D01*
X86037582Y-129465676D01*
X86001761Y-129320602D01*
X85969540Y-129189872D01*
X85941267Y-129074905D01*
X85917292Y-128977117D01*
X85897966Y-128897928D01*
X85883637Y-128838754D01*
X85874656Y-128801015D01*
X85871372Y-128786127D01*
X85871478Y-128779479D01*
X85876991Y-128770185D01*
X85892337Y-128761681D01*
X85921207Y-128752641D01*
X85967290Y-128741741D01*
X86034274Y-128727659D01*
X86042441Y-128725991D01*
X86178498Y-128700417D01*
X86304469Y-128681672D01*
X86432013Y-128668265D01*
X86572788Y-128658702D01*
X86725000Y-128650514D01*
X86725000Y-130407049D01*
G37*
%TD*%
M02*
