%TF.GenerationSoftware,KiCad,Pcbnew,7.0.10*%
%TF.CreationDate,2024-01-15T09:17:33+01:00*%
%TF.ProjectId,mold_detect,6d6f6c64-5f64-4657-9465-63742e6b6963,rev?*%
%TF.SameCoordinates,Original*%
%TF.FileFunction,Soldermask,Bot*%
%TF.FilePolarity,Negative*%
%FSLAX46Y46*%
G04 Gerber Fmt 4.6, Leading zero omitted, Abs format (unit mm)*
G04 Created by KiCad (PCBNEW 7.0.10) date 2024-01-15 09:17:33*
%MOMM*%
%LPD*%
G01*
G04 APERTURE LIST*
G04 Aperture macros list*
%AMRoundRect*
0 Rectangle with rounded corners*
0 $1 Rounding radius*
0 $2 $3 $4 $5 $6 $7 $8 $9 X,Y pos of 4 corners*
0 Add a 4 corners polygon primitive as box body*
4,1,4,$2,$3,$4,$5,$6,$7,$8,$9,$2,$3,0*
0 Add four circle primitives for the rounded corners*
1,1,$1+$1,$2,$3*
1,1,$1+$1,$4,$5*
1,1,$1+$1,$6,$7*
1,1,$1+$1,$8,$9*
0 Add four rect primitives between the rounded corners*
20,1,$1+$1,$2,$3,$4,$5,0*
20,1,$1+$1,$4,$5,$6,$7,0*
20,1,$1+$1,$6,$7,$8,$9,0*
20,1,$1+$1,$8,$9,$2,$3,0*%
G04 Aperture macros list end*
%ADD10RoundRect,0.237500X-0.300000X-0.237500X0.300000X-0.237500X0.300000X0.237500X-0.300000X0.237500X0*%
%ADD11O,1.000000X1.800000*%
%ADD12O,1.000000X2.100000*%
%ADD13C,0.650000*%
%ADD14C,3.450000*%
%ADD15R,2.000000X2.000000*%
%ADD16C,2.000000*%
%ADD17C,3.200000*%
%ADD18R,1.800000X1.800000*%
%ADD19C,1.800000*%
%ADD20O,1.600000X1.600000*%
%ADD21R,1.600000X1.600000*%
%ADD22C,1.100000*%
G04 APERTURE END LIST*
D10*
%TO.C,C2*%
X100587500Y-110500000D03*
X102312500Y-110500000D03*
%TD*%
D11*
%TO.C,J1*%
X96280000Y-79070000D03*
D12*
X96280000Y-83250000D03*
D11*
X104920000Y-79070000D03*
D12*
X104920000Y-83250000D03*
D13*
X97710000Y-82750000D03*
X103490000Y-82750000D03*
%TD*%
D14*
%TO.C,BT1*%
X89650000Y-128210000D03*
D15*
X98350000Y-89600000D03*
D16*
X85650000Y-89600000D03*
%TD*%
D17*
%TO.C,H4*%
X112000000Y-81000000D03*
%TD*%
D18*
%TO.C,Red1*%
X97200000Y-144975000D03*
D19*
X97200000Y-142435000D03*
%TD*%
D18*
%TO.C,Blue1*%
X105400000Y-144975000D03*
D19*
X105400000Y-142435000D03*
%TD*%
D17*
%TO.C,H1*%
X82000000Y-144000000D03*
%TD*%
%TO.C,H2*%
X82000000Y-81000000D03*
%TD*%
%TO.C,H3*%
X112000000Y-144000000D03*
%TD*%
D20*
%TO.C,U3*%
X113645000Y-93917107D03*
X113645000Y-96457107D03*
X113645000Y-98997107D03*
X113645000Y-101537107D03*
X113645000Y-104077107D03*
X113645000Y-106617107D03*
X113645000Y-109157107D03*
X113645000Y-111697107D03*
X113645000Y-114237107D03*
X113645000Y-116777107D03*
X113645000Y-119317107D03*
X113645000Y-121857107D03*
X113645000Y-124397107D03*
X113645000Y-126937107D03*
X106025000Y-126937107D03*
X106025000Y-124397107D03*
X106025000Y-121857107D03*
X106025000Y-119317107D03*
X106025000Y-116777107D03*
X106025000Y-114237107D03*
X106025000Y-111697107D03*
X106025000Y-109157107D03*
X106025000Y-106617107D03*
X106025000Y-104077107D03*
X106025000Y-101537107D03*
X106025000Y-98997107D03*
X106025000Y-96457107D03*
D21*
X106025000Y-93917107D03*
%TD*%
D22*
X99250000Y-79900000D03*
X94650000Y-78300000D03*
X97250000Y-81700000D03*
X100550000Y-81638603D03*
X103950000Y-110100000D03*
X109500000Y-92650000D03*
X106565739Y-92538702D03*
X113600000Y-91400000D03*
X92800000Y-82600000D03*
X89600000Y-145750000D03*
X108835000Y-129400000D03*
X102500000Y-142000000D03*
M02*
