%TF.GenerationSoftware,KiCad,Pcbnew,7.0.10*%
%TF.CreationDate,2024-01-09T16:20:13+01:00*%
%TF.ProjectId,mold_detect,6d6f6c64-5f64-4657-9465-63742e6b6963,rev?*%
%TF.SameCoordinates,Original*%
%TF.FileFunction,Legend,Bot*%
%TF.FilePolarity,Positive*%
%FSLAX46Y46*%
G04 Gerber Fmt 4.6, Leading zero omitted, Abs format (unit mm)*
G04 Created by KiCad (PCBNEW 7.0.10) date 2024-01-09 16:20:13*
%MOMM*%
%LPD*%
G01*
G04 APERTURE LIST*
%ADD10C,0.150000*%
G04 APERTURE END LIST*
D10*
X81143152Y-93765350D02*
X81952676Y-93765350D01*
X81952676Y-93765350D02*
X82047914Y-93717731D01*
X82047914Y-93717731D02*
X82095533Y-93670112D01*
X82095533Y-93670112D02*
X82143152Y-93574874D01*
X82143152Y-93574874D02*
X82143152Y-93432017D01*
X82143152Y-93432017D02*
X82095533Y-93336779D01*
X81762200Y-93765350D02*
X81809819Y-93670112D01*
X81809819Y-93670112D02*
X81809819Y-93479636D01*
X81809819Y-93479636D02*
X81762200Y-93384398D01*
X81762200Y-93384398D02*
X81714580Y-93336779D01*
X81714580Y-93336779D02*
X81619342Y-93289160D01*
X81619342Y-93289160D02*
X81333628Y-93289160D01*
X81333628Y-93289160D02*
X81238390Y-93336779D01*
X81238390Y-93336779D02*
X81190771Y-93384398D01*
X81190771Y-93384398D02*
X81143152Y-93479636D01*
X81143152Y-93479636D02*
X81143152Y-93670112D01*
X81143152Y-93670112D02*
X81190771Y-93765350D01*
X81809819Y-94241541D02*
X81143152Y-94241541D01*
X80809819Y-94241541D02*
X80857438Y-94193922D01*
X80857438Y-94193922D02*
X80905057Y-94241541D01*
X80905057Y-94241541D02*
X80857438Y-94289160D01*
X80857438Y-94289160D02*
X80809819Y-94241541D01*
X80809819Y-94241541D02*
X80905057Y-94241541D01*
X81143152Y-94574874D02*
X81143152Y-94955826D01*
X80809819Y-94717731D02*
X81666961Y-94717731D01*
X81666961Y-94717731D02*
X81762200Y-94765350D01*
X81762200Y-94765350D02*
X81809819Y-94860588D01*
X81809819Y-94860588D02*
X81809819Y-94955826D01*
X81809819Y-95289160D02*
X80809819Y-95289160D01*
X81809819Y-95717731D02*
X81286009Y-95717731D01*
X81286009Y-95717731D02*
X81190771Y-95670112D01*
X81190771Y-95670112D02*
X81143152Y-95574874D01*
X81143152Y-95574874D02*
X81143152Y-95432017D01*
X81143152Y-95432017D02*
X81190771Y-95336779D01*
X81190771Y-95336779D02*
X81238390Y-95289160D01*
X81143152Y-96622493D02*
X81809819Y-96622493D01*
X81143152Y-96193922D02*
X81666961Y-96193922D01*
X81666961Y-96193922D02*
X81762200Y-96241541D01*
X81762200Y-96241541D02*
X81809819Y-96336779D01*
X81809819Y-96336779D02*
X81809819Y-96479636D01*
X81809819Y-96479636D02*
X81762200Y-96574874D01*
X81762200Y-96574874D02*
X81714580Y-96622493D01*
X81809819Y-97098684D02*
X80809819Y-97098684D01*
X81190771Y-97098684D02*
X81143152Y-97193922D01*
X81143152Y-97193922D02*
X81143152Y-97384398D01*
X81143152Y-97384398D02*
X81190771Y-97479636D01*
X81190771Y-97479636D02*
X81238390Y-97527255D01*
X81238390Y-97527255D02*
X81333628Y-97574874D01*
X81333628Y-97574874D02*
X81619342Y-97574874D01*
X81619342Y-97574874D02*
X81714580Y-97527255D01*
X81714580Y-97527255D02*
X81762200Y-97479636D01*
X81762200Y-97479636D02*
X81809819Y-97384398D01*
X81809819Y-97384398D02*
X81809819Y-97193922D01*
X81809819Y-97193922D02*
X81762200Y-97098684D01*
X81714580Y-98003446D02*
X81762200Y-98051065D01*
X81762200Y-98051065D02*
X81809819Y-98003446D01*
X81809819Y-98003446D02*
X81762200Y-97955827D01*
X81762200Y-97955827D02*
X81714580Y-98003446D01*
X81714580Y-98003446D02*
X81809819Y-98003446D01*
X81762200Y-98908207D02*
X81809819Y-98812969D01*
X81809819Y-98812969D02*
X81809819Y-98622493D01*
X81809819Y-98622493D02*
X81762200Y-98527255D01*
X81762200Y-98527255D02*
X81714580Y-98479636D01*
X81714580Y-98479636D02*
X81619342Y-98432017D01*
X81619342Y-98432017D02*
X81333628Y-98432017D01*
X81333628Y-98432017D02*
X81238390Y-98479636D01*
X81238390Y-98479636D02*
X81190771Y-98527255D01*
X81190771Y-98527255D02*
X81143152Y-98622493D01*
X81143152Y-98622493D02*
X81143152Y-98812969D01*
X81143152Y-98812969D02*
X81190771Y-98908207D01*
X81809819Y-99479636D02*
X81762200Y-99384398D01*
X81762200Y-99384398D02*
X81714580Y-99336779D01*
X81714580Y-99336779D02*
X81619342Y-99289160D01*
X81619342Y-99289160D02*
X81333628Y-99289160D01*
X81333628Y-99289160D02*
X81238390Y-99336779D01*
X81238390Y-99336779D02*
X81190771Y-99384398D01*
X81190771Y-99384398D02*
X81143152Y-99479636D01*
X81143152Y-99479636D02*
X81143152Y-99622493D01*
X81143152Y-99622493D02*
X81190771Y-99717731D01*
X81190771Y-99717731D02*
X81238390Y-99765350D01*
X81238390Y-99765350D02*
X81333628Y-99812969D01*
X81333628Y-99812969D02*
X81619342Y-99812969D01*
X81619342Y-99812969D02*
X81714580Y-99765350D01*
X81714580Y-99765350D02*
X81762200Y-99717731D01*
X81762200Y-99717731D02*
X81809819Y-99622493D01*
X81809819Y-99622493D02*
X81809819Y-99479636D01*
X81809819Y-100241541D02*
X81143152Y-100241541D01*
X81238390Y-100241541D02*
X81190771Y-100289160D01*
X81190771Y-100289160D02*
X81143152Y-100384398D01*
X81143152Y-100384398D02*
X81143152Y-100527255D01*
X81143152Y-100527255D02*
X81190771Y-100622493D01*
X81190771Y-100622493D02*
X81286009Y-100670112D01*
X81286009Y-100670112D02*
X81809819Y-100670112D01*
X81286009Y-100670112D02*
X81190771Y-100717731D01*
X81190771Y-100717731D02*
X81143152Y-100812969D01*
X81143152Y-100812969D02*
X81143152Y-100955826D01*
X81143152Y-100955826D02*
X81190771Y-101051065D01*
X81190771Y-101051065D02*
X81286009Y-101098684D01*
X81286009Y-101098684D02*
X81809819Y-101098684D01*
X80762200Y-102289159D02*
X82047914Y-101432017D01*
X81762200Y-103051064D02*
X81809819Y-102955826D01*
X81809819Y-102955826D02*
X81809819Y-102765350D01*
X81809819Y-102765350D02*
X81762200Y-102670112D01*
X81762200Y-102670112D02*
X81714580Y-102622493D01*
X81714580Y-102622493D02*
X81619342Y-102574874D01*
X81619342Y-102574874D02*
X81333628Y-102574874D01*
X81333628Y-102574874D02*
X81238390Y-102622493D01*
X81238390Y-102622493D02*
X81190771Y-102670112D01*
X81190771Y-102670112D02*
X81143152Y-102765350D01*
X81143152Y-102765350D02*
X81143152Y-102955826D01*
X81143152Y-102955826D02*
X81190771Y-103051064D01*
X81809819Y-103479636D02*
X80809819Y-103479636D01*
X81809819Y-103908207D02*
X81286009Y-103908207D01*
X81286009Y-103908207D02*
X81190771Y-103860588D01*
X81190771Y-103860588D02*
X81143152Y-103765350D01*
X81143152Y-103765350D02*
X81143152Y-103622493D01*
X81143152Y-103622493D02*
X81190771Y-103527255D01*
X81190771Y-103527255D02*
X81238390Y-103479636D01*
X81809819Y-104384398D02*
X81143152Y-104384398D01*
X81333628Y-104384398D02*
X81238390Y-104432017D01*
X81238390Y-104432017D02*
X81190771Y-104479636D01*
X81190771Y-104479636D02*
X81143152Y-104574874D01*
X81143152Y-104574874D02*
X81143152Y-104670112D01*
X81809819Y-105003446D02*
X81143152Y-105003446D01*
X80809819Y-105003446D02*
X80857438Y-104955827D01*
X80857438Y-104955827D02*
X80905057Y-105003446D01*
X80905057Y-105003446D02*
X80857438Y-105051065D01*
X80857438Y-105051065D02*
X80809819Y-105003446D01*
X80809819Y-105003446D02*
X80905057Y-105003446D01*
X81762200Y-105432017D02*
X81809819Y-105527255D01*
X81809819Y-105527255D02*
X81809819Y-105717731D01*
X81809819Y-105717731D02*
X81762200Y-105812969D01*
X81762200Y-105812969D02*
X81666961Y-105860588D01*
X81666961Y-105860588D02*
X81619342Y-105860588D01*
X81619342Y-105860588D02*
X81524104Y-105812969D01*
X81524104Y-105812969D02*
X81476485Y-105717731D01*
X81476485Y-105717731D02*
X81476485Y-105574874D01*
X81476485Y-105574874D02*
X81428866Y-105479636D01*
X81428866Y-105479636D02*
X81333628Y-105432017D01*
X81333628Y-105432017D02*
X81286009Y-105432017D01*
X81286009Y-105432017D02*
X81190771Y-105479636D01*
X81190771Y-105479636D02*
X81143152Y-105574874D01*
X81143152Y-105574874D02*
X81143152Y-105717731D01*
X81143152Y-105717731D02*
X81190771Y-105812969D01*
X81143152Y-106146303D02*
X81143152Y-106527255D01*
X80809819Y-106289160D02*
X81666961Y-106289160D01*
X81666961Y-106289160D02*
X81762200Y-106336779D01*
X81762200Y-106336779D02*
X81809819Y-106432017D01*
X81809819Y-106432017D02*
X81809819Y-106527255D01*
X81809819Y-107003446D02*
X81762200Y-106908208D01*
X81762200Y-106908208D02*
X81714580Y-106860589D01*
X81714580Y-106860589D02*
X81619342Y-106812970D01*
X81619342Y-106812970D02*
X81333628Y-106812970D01*
X81333628Y-106812970D02*
X81238390Y-106860589D01*
X81238390Y-106860589D02*
X81190771Y-106908208D01*
X81190771Y-106908208D02*
X81143152Y-107003446D01*
X81143152Y-107003446D02*
X81143152Y-107146303D01*
X81143152Y-107146303D02*
X81190771Y-107241541D01*
X81190771Y-107241541D02*
X81238390Y-107289160D01*
X81238390Y-107289160D02*
X81333628Y-107336779D01*
X81333628Y-107336779D02*
X81619342Y-107336779D01*
X81619342Y-107336779D02*
X81714580Y-107289160D01*
X81714580Y-107289160D02*
X81762200Y-107241541D01*
X81762200Y-107241541D02*
X81809819Y-107146303D01*
X81809819Y-107146303D02*
X81809819Y-107003446D01*
X81143152Y-107765351D02*
X82143152Y-107765351D01*
X81190771Y-107765351D02*
X81143152Y-107860589D01*
X81143152Y-107860589D02*
X81143152Y-108051065D01*
X81143152Y-108051065D02*
X81190771Y-108146303D01*
X81190771Y-108146303D02*
X81238390Y-108193922D01*
X81238390Y-108193922D02*
X81333628Y-108241541D01*
X81333628Y-108241541D02*
X81619342Y-108241541D01*
X81619342Y-108241541D02*
X81714580Y-108193922D01*
X81714580Y-108193922D02*
X81762200Y-108146303D01*
X81762200Y-108146303D02*
X81809819Y-108051065D01*
X81809819Y-108051065D02*
X81809819Y-107860589D01*
X81809819Y-107860589D02*
X81762200Y-107765351D01*
X81809819Y-108670113D02*
X80809819Y-108670113D01*
X81809819Y-109098684D02*
X81286009Y-109098684D01*
X81286009Y-109098684D02*
X81190771Y-109051065D01*
X81190771Y-109051065D02*
X81143152Y-108955827D01*
X81143152Y-108955827D02*
X81143152Y-108812970D01*
X81143152Y-108812970D02*
X81190771Y-108717732D01*
X81190771Y-108717732D02*
X81238390Y-108670113D01*
X81762200Y-109955827D02*
X81809819Y-109860589D01*
X81809819Y-109860589D02*
X81809819Y-109670113D01*
X81809819Y-109670113D02*
X81762200Y-109574875D01*
X81762200Y-109574875D02*
X81666961Y-109527256D01*
X81666961Y-109527256D02*
X81286009Y-109527256D01*
X81286009Y-109527256D02*
X81190771Y-109574875D01*
X81190771Y-109574875D02*
X81143152Y-109670113D01*
X81143152Y-109670113D02*
X81143152Y-109860589D01*
X81143152Y-109860589D02*
X81190771Y-109955827D01*
X81190771Y-109955827D02*
X81286009Y-110003446D01*
X81286009Y-110003446D02*
X81381247Y-110003446D01*
X81381247Y-110003446D02*
X81476485Y-109527256D01*
X81809819Y-110432018D02*
X81143152Y-110432018D01*
X81333628Y-110432018D02*
X81238390Y-110479637D01*
X81238390Y-110479637D02*
X81190771Y-110527256D01*
X81190771Y-110527256D02*
X81143152Y-110622494D01*
X81143152Y-110622494D02*
X81143152Y-110717732D01*
X81428866Y-111051066D02*
X81428866Y-111812971D01*
X81809819Y-112289161D02*
X80809819Y-112289161D01*
X81190771Y-112289161D02*
X81143152Y-112384399D01*
X81143152Y-112384399D02*
X81143152Y-112574875D01*
X81143152Y-112574875D02*
X81190771Y-112670113D01*
X81190771Y-112670113D02*
X81238390Y-112717732D01*
X81238390Y-112717732D02*
X81333628Y-112765351D01*
X81333628Y-112765351D02*
X81619342Y-112765351D01*
X81619342Y-112765351D02*
X81714580Y-112717732D01*
X81714580Y-112717732D02*
X81762200Y-112670113D01*
X81762200Y-112670113D02*
X81809819Y-112574875D01*
X81809819Y-112574875D02*
X81809819Y-112384399D01*
X81809819Y-112384399D02*
X81762200Y-112289161D01*
X81762200Y-113574875D02*
X81809819Y-113479637D01*
X81809819Y-113479637D02*
X81809819Y-113289161D01*
X81809819Y-113289161D02*
X81762200Y-113193923D01*
X81762200Y-113193923D02*
X81666961Y-113146304D01*
X81666961Y-113146304D02*
X81286009Y-113146304D01*
X81286009Y-113146304D02*
X81190771Y-113193923D01*
X81190771Y-113193923D02*
X81143152Y-113289161D01*
X81143152Y-113289161D02*
X81143152Y-113479637D01*
X81143152Y-113479637D02*
X81190771Y-113574875D01*
X81190771Y-113574875D02*
X81286009Y-113622494D01*
X81286009Y-113622494D02*
X81381247Y-113622494D01*
X81381247Y-113622494D02*
X81476485Y-113146304D01*
X81762200Y-114003447D02*
X81809819Y-114098685D01*
X81809819Y-114098685D02*
X81809819Y-114289161D01*
X81809819Y-114289161D02*
X81762200Y-114384399D01*
X81762200Y-114384399D02*
X81666961Y-114432018D01*
X81666961Y-114432018D02*
X81619342Y-114432018D01*
X81619342Y-114432018D02*
X81524104Y-114384399D01*
X81524104Y-114384399D02*
X81476485Y-114289161D01*
X81476485Y-114289161D02*
X81476485Y-114146304D01*
X81476485Y-114146304D02*
X81428866Y-114051066D01*
X81428866Y-114051066D02*
X81333628Y-114003447D01*
X81333628Y-114003447D02*
X81286009Y-114003447D01*
X81286009Y-114003447D02*
X81190771Y-114051066D01*
X81190771Y-114051066D02*
X81143152Y-114146304D01*
X81143152Y-114146304D02*
X81143152Y-114289161D01*
X81143152Y-114289161D02*
X81190771Y-114384399D01*
X81762200Y-115289161D02*
X81809819Y-115193923D01*
X81809819Y-115193923D02*
X81809819Y-115003447D01*
X81809819Y-115003447D02*
X81762200Y-114908209D01*
X81762200Y-114908209D02*
X81714580Y-114860590D01*
X81714580Y-114860590D02*
X81619342Y-114812971D01*
X81619342Y-114812971D02*
X81333628Y-114812971D01*
X81333628Y-114812971D02*
X81238390Y-114860590D01*
X81238390Y-114860590D02*
X81190771Y-114908209D01*
X81190771Y-114908209D02*
X81143152Y-115003447D01*
X81143152Y-115003447D02*
X81143152Y-115193923D01*
X81143152Y-115193923D02*
X81190771Y-115289161D01*
X81809819Y-115717733D02*
X80809819Y-115717733D01*
X81809819Y-116146304D02*
X81286009Y-116146304D01*
X81286009Y-116146304D02*
X81190771Y-116098685D01*
X81190771Y-116098685D02*
X81143152Y-116003447D01*
X81143152Y-116003447D02*
X81143152Y-115860590D01*
X81143152Y-115860590D02*
X81190771Y-115765352D01*
X81190771Y-115765352D02*
X81238390Y-115717733D01*
X80762200Y-117336780D02*
X82047914Y-116479638D01*
X81809819Y-117670114D02*
X81143152Y-117670114D01*
X81238390Y-117670114D02*
X81190771Y-117717733D01*
X81190771Y-117717733D02*
X81143152Y-117812971D01*
X81143152Y-117812971D02*
X81143152Y-117955828D01*
X81143152Y-117955828D02*
X81190771Y-118051066D01*
X81190771Y-118051066D02*
X81286009Y-118098685D01*
X81286009Y-118098685D02*
X81809819Y-118098685D01*
X81286009Y-118098685D02*
X81190771Y-118146304D01*
X81190771Y-118146304D02*
X81143152Y-118241542D01*
X81143152Y-118241542D02*
X81143152Y-118384399D01*
X81143152Y-118384399D02*
X81190771Y-118479638D01*
X81190771Y-118479638D02*
X81286009Y-118527257D01*
X81286009Y-118527257D02*
X81809819Y-118527257D01*
X81809819Y-119146304D02*
X81762200Y-119051066D01*
X81762200Y-119051066D02*
X81714580Y-119003447D01*
X81714580Y-119003447D02*
X81619342Y-118955828D01*
X81619342Y-118955828D02*
X81333628Y-118955828D01*
X81333628Y-118955828D02*
X81238390Y-119003447D01*
X81238390Y-119003447D02*
X81190771Y-119051066D01*
X81190771Y-119051066D02*
X81143152Y-119146304D01*
X81143152Y-119146304D02*
X81143152Y-119289161D01*
X81143152Y-119289161D02*
X81190771Y-119384399D01*
X81190771Y-119384399D02*
X81238390Y-119432018D01*
X81238390Y-119432018D02*
X81333628Y-119479637D01*
X81333628Y-119479637D02*
X81619342Y-119479637D01*
X81619342Y-119479637D02*
X81714580Y-119432018D01*
X81714580Y-119432018D02*
X81762200Y-119384399D01*
X81762200Y-119384399D02*
X81809819Y-119289161D01*
X81809819Y-119289161D02*
X81809819Y-119146304D01*
X81809819Y-120051066D02*
X81762200Y-119955828D01*
X81762200Y-119955828D02*
X81666961Y-119908209D01*
X81666961Y-119908209D02*
X80809819Y-119908209D01*
X81809819Y-120860590D02*
X80809819Y-120860590D01*
X81762200Y-120860590D02*
X81809819Y-120765352D01*
X81809819Y-120765352D02*
X81809819Y-120574876D01*
X81809819Y-120574876D02*
X81762200Y-120479638D01*
X81762200Y-120479638D02*
X81714580Y-120432019D01*
X81714580Y-120432019D02*
X81619342Y-120384400D01*
X81619342Y-120384400D02*
X81333628Y-120384400D01*
X81333628Y-120384400D02*
X81238390Y-120432019D01*
X81238390Y-120432019D02*
X81190771Y-120479638D01*
X81190771Y-120479638D02*
X81143152Y-120574876D01*
X81143152Y-120574876D02*
X81143152Y-120765352D01*
X81143152Y-120765352D02*
X81190771Y-120860590D01*
X81905057Y-121098686D02*
X81905057Y-121860590D01*
X81809819Y-122527257D02*
X80809819Y-122527257D01*
X81762200Y-122527257D02*
X81809819Y-122432019D01*
X81809819Y-122432019D02*
X81809819Y-122241543D01*
X81809819Y-122241543D02*
X81762200Y-122146305D01*
X81762200Y-122146305D02*
X81714580Y-122098686D01*
X81714580Y-122098686D02*
X81619342Y-122051067D01*
X81619342Y-122051067D02*
X81333628Y-122051067D01*
X81333628Y-122051067D02*
X81238390Y-122098686D01*
X81238390Y-122098686D02*
X81190771Y-122146305D01*
X81190771Y-122146305D02*
X81143152Y-122241543D01*
X81143152Y-122241543D02*
X81143152Y-122432019D01*
X81143152Y-122432019D02*
X81190771Y-122527257D01*
X81762200Y-123384400D02*
X81809819Y-123289162D01*
X81809819Y-123289162D02*
X81809819Y-123098686D01*
X81809819Y-123098686D02*
X81762200Y-123003448D01*
X81762200Y-123003448D02*
X81666961Y-122955829D01*
X81666961Y-122955829D02*
X81286009Y-122955829D01*
X81286009Y-122955829D02*
X81190771Y-123003448D01*
X81190771Y-123003448D02*
X81143152Y-123098686D01*
X81143152Y-123098686D02*
X81143152Y-123289162D01*
X81143152Y-123289162D02*
X81190771Y-123384400D01*
X81190771Y-123384400D02*
X81286009Y-123432019D01*
X81286009Y-123432019D02*
X81381247Y-123432019D01*
X81381247Y-123432019D02*
X81476485Y-122955829D01*
X81143152Y-123717734D02*
X81143152Y-124098686D01*
X80809819Y-123860591D02*
X81666961Y-123860591D01*
X81666961Y-123860591D02*
X81762200Y-123908210D01*
X81762200Y-123908210D02*
X81809819Y-124003448D01*
X81809819Y-124003448D02*
X81809819Y-124098686D01*
X81762200Y-124812972D02*
X81809819Y-124717734D01*
X81809819Y-124717734D02*
X81809819Y-124527258D01*
X81809819Y-124527258D02*
X81762200Y-124432020D01*
X81762200Y-124432020D02*
X81666961Y-124384401D01*
X81666961Y-124384401D02*
X81286009Y-124384401D01*
X81286009Y-124384401D02*
X81190771Y-124432020D01*
X81190771Y-124432020D02*
X81143152Y-124527258D01*
X81143152Y-124527258D02*
X81143152Y-124717734D01*
X81143152Y-124717734D02*
X81190771Y-124812972D01*
X81190771Y-124812972D02*
X81286009Y-124860591D01*
X81286009Y-124860591D02*
X81381247Y-124860591D01*
X81381247Y-124860591D02*
X81476485Y-124384401D01*
X81762200Y-125717734D02*
X81809819Y-125622496D01*
X81809819Y-125622496D02*
X81809819Y-125432020D01*
X81809819Y-125432020D02*
X81762200Y-125336782D01*
X81762200Y-125336782D02*
X81714580Y-125289163D01*
X81714580Y-125289163D02*
X81619342Y-125241544D01*
X81619342Y-125241544D02*
X81333628Y-125241544D01*
X81333628Y-125241544D02*
X81238390Y-125289163D01*
X81238390Y-125289163D02*
X81190771Y-125336782D01*
X81190771Y-125336782D02*
X81143152Y-125432020D01*
X81143152Y-125432020D02*
X81143152Y-125622496D01*
X81143152Y-125622496D02*
X81190771Y-125717734D01*
X81143152Y-126003449D02*
X81143152Y-126384401D01*
X80809819Y-126146306D02*
X81666961Y-126146306D01*
X81666961Y-126146306D02*
X81762200Y-126193925D01*
X81762200Y-126193925D02*
X81809819Y-126289163D01*
X81809819Y-126289163D02*
X81809819Y-126384401D01*
X84934580Y-93908207D02*
X84982200Y-93860588D01*
X84982200Y-93860588D02*
X85029819Y-93717731D01*
X85029819Y-93717731D02*
X85029819Y-93622493D01*
X85029819Y-93622493D02*
X84982200Y-93479636D01*
X84982200Y-93479636D02*
X84886961Y-93384398D01*
X84886961Y-93384398D02*
X84791723Y-93336779D01*
X84791723Y-93336779D02*
X84601247Y-93289160D01*
X84601247Y-93289160D02*
X84458390Y-93289160D01*
X84458390Y-93289160D02*
X84267914Y-93336779D01*
X84267914Y-93336779D02*
X84172676Y-93384398D01*
X84172676Y-93384398D02*
X84077438Y-93479636D01*
X84077438Y-93479636D02*
X84029819Y-93622493D01*
X84029819Y-93622493D02*
X84029819Y-93717731D01*
X84029819Y-93717731D02*
X84077438Y-93860588D01*
X84077438Y-93860588D02*
X84125057Y-93908207D01*
X85029819Y-94336779D02*
X84029819Y-94336779D01*
X85029819Y-94765350D02*
X84506009Y-94765350D01*
X84506009Y-94765350D02*
X84410771Y-94717731D01*
X84410771Y-94717731D02*
X84363152Y-94622493D01*
X84363152Y-94622493D02*
X84363152Y-94479636D01*
X84363152Y-94479636D02*
X84410771Y-94384398D01*
X84410771Y-94384398D02*
X84458390Y-94336779D01*
X85029819Y-95241541D02*
X84363152Y-95241541D01*
X84553628Y-95241541D02*
X84458390Y-95289160D01*
X84458390Y-95289160D02*
X84410771Y-95336779D01*
X84410771Y-95336779D02*
X84363152Y-95432017D01*
X84363152Y-95432017D02*
X84363152Y-95527255D01*
X85029819Y-95860589D02*
X84363152Y-95860589D01*
X84029819Y-95860589D02*
X84077438Y-95812970D01*
X84077438Y-95812970D02*
X84125057Y-95860589D01*
X84125057Y-95860589D02*
X84077438Y-95908208D01*
X84077438Y-95908208D02*
X84029819Y-95860589D01*
X84029819Y-95860589D02*
X84125057Y-95860589D01*
X84982200Y-96289160D02*
X85029819Y-96384398D01*
X85029819Y-96384398D02*
X85029819Y-96574874D01*
X85029819Y-96574874D02*
X84982200Y-96670112D01*
X84982200Y-96670112D02*
X84886961Y-96717731D01*
X84886961Y-96717731D02*
X84839342Y-96717731D01*
X84839342Y-96717731D02*
X84744104Y-96670112D01*
X84744104Y-96670112D02*
X84696485Y-96574874D01*
X84696485Y-96574874D02*
X84696485Y-96432017D01*
X84696485Y-96432017D02*
X84648866Y-96336779D01*
X84648866Y-96336779D02*
X84553628Y-96289160D01*
X84553628Y-96289160D02*
X84506009Y-96289160D01*
X84506009Y-96289160D02*
X84410771Y-96336779D01*
X84410771Y-96336779D02*
X84363152Y-96432017D01*
X84363152Y-96432017D02*
X84363152Y-96574874D01*
X84363152Y-96574874D02*
X84410771Y-96670112D01*
X84363152Y-97003446D02*
X84363152Y-97384398D01*
X84029819Y-97146303D02*
X84886961Y-97146303D01*
X84886961Y-97146303D02*
X84982200Y-97193922D01*
X84982200Y-97193922D02*
X85029819Y-97289160D01*
X85029819Y-97289160D02*
X85029819Y-97384398D01*
X85029819Y-97860589D02*
X84982200Y-97765351D01*
X84982200Y-97765351D02*
X84934580Y-97717732D01*
X84934580Y-97717732D02*
X84839342Y-97670113D01*
X84839342Y-97670113D02*
X84553628Y-97670113D01*
X84553628Y-97670113D02*
X84458390Y-97717732D01*
X84458390Y-97717732D02*
X84410771Y-97765351D01*
X84410771Y-97765351D02*
X84363152Y-97860589D01*
X84363152Y-97860589D02*
X84363152Y-98003446D01*
X84363152Y-98003446D02*
X84410771Y-98098684D01*
X84410771Y-98098684D02*
X84458390Y-98146303D01*
X84458390Y-98146303D02*
X84553628Y-98193922D01*
X84553628Y-98193922D02*
X84839342Y-98193922D01*
X84839342Y-98193922D02*
X84934580Y-98146303D01*
X84934580Y-98146303D02*
X84982200Y-98098684D01*
X84982200Y-98098684D02*
X85029819Y-98003446D01*
X85029819Y-98003446D02*
X85029819Y-97860589D01*
X84363152Y-98622494D02*
X85363152Y-98622494D01*
X84410771Y-98622494D02*
X84363152Y-98717732D01*
X84363152Y-98717732D02*
X84363152Y-98908208D01*
X84363152Y-98908208D02*
X84410771Y-99003446D01*
X84410771Y-99003446D02*
X84458390Y-99051065D01*
X84458390Y-99051065D02*
X84553628Y-99098684D01*
X84553628Y-99098684D02*
X84839342Y-99098684D01*
X84839342Y-99098684D02*
X84934580Y-99051065D01*
X84934580Y-99051065D02*
X84982200Y-99003446D01*
X84982200Y-99003446D02*
X85029819Y-98908208D01*
X85029819Y-98908208D02*
X85029819Y-98717732D01*
X85029819Y-98717732D02*
X84982200Y-98622494D01*
X85029819Y-99527256D02*
X84029819Y-99527256D01*
X85029819Y-99955827D02*
X84506009Y-99955827D01*
X84506009Y-99955827D02*
X84410771Y-99908208D01*
X84410771Y-99908208D02*
X84363152Y-99812970D01*
X84363152Y-99812970D02*
X84363152Y-99670113D01*
X84363152Y-99670113D02*
X84410771Y-99574875D01*
X84410771Y-99574875D02*
X84458390Y-99527256D01*
X84982200Y-100812970D02*
X85029819Y-100717732D01*
X85029819Y-100717732D02*
X85029819Y-100527256D01*
X85029819Y-100527256D02*
X84982200Y-100432018D01*
X84982200Y-100432018D02*
X84886961Y-100384399D01*
X84886961Y-100384399D02*
X84506009Y-100384399D01*
X84506009Y-100384399D02*
X84410771Y-100432018D01*
X84410771Y-100432018D02*
X84363152Y-100527256D01*
X84363152Y-100527256D02*
X84363152Y-100717732D01*
X84363152Y-100717732D02*
X84410771Y-100812970D01*
X84410771Y-100812970D02*
X84506009Y-100860589D01*
X84506009Y-100860589D02*
X84601247Y-100860589D01*
X84601247Y-100860589D02*
X84696485Y-100384399D01*
X85029819Y-101289161D02*
X84363152Y-101289161D01*
X84553628Y-101289161D02*
X84458390Y-101336780D01*
X84458390Y-101336780D02*
X84410771Y-101384399D01*
X84410771Y-101384399D02*
X84363152Y-101479637D01*
X84363152Y-101479637D02*
X84363152Y-101574875D01*
X84506009Y-103003447D02*
X84553628Y-103146304D01*
X84553628Y-103146304D02*
X84601247Y-103193923D01*
X84601247Y-103193923D02*
X84696485Y-103241542D01*
X84696485Y-103241542D02*
X84839342Y-103241542D01*
X84839342Y-103241542D02*
X84934580Y-103193923D01*
X84934580Y-103193923D02*
X84982200Y-103146304D01*
X84982200Y-103146304D02*
X85029819Y-103051066D01*
X85029819Y-103051066D02*
X85029819Y-102670114D01*
X85029819Y-102670114D02*
X84029819Y-102670114D01*
X84029819Y-102670114D02*
X84029819Y-103003447D01*
X84029819Y-103003447D02*
X84077438Y-103098685D01*
X84077438Y-103098685D02*
X84125057Y-103146304D01*
X84125057Y-103146304D02*
X84220295Y-103193923D01*
X84220295Y-103193923D02*
X84315533Y-103193923D01*
X84315533Y-103193923D02*
X84410771Y-103146304D01*
X84410771Y-103146304D02*
X84458390Y-103098685D01*
X84458390Y-103098685D02*
X84506009Y-103003447D01*
X84506009Y-103003447D02*
X84506009Y-102670114D01*
X84982200Y-104051066D02*
X85029819Y-103955828D01*
X85029819Y-103955828D02*
X85029819Y-103765352D01*
X85029819Y-103765352D02*
X84982200Y-103670114D01*
X84982200Y-103670114D02*
X84886961Y-103622495D01*
X84886961Y-103622495D02*
X84506009Y-103622495D01*
X84506009Y-103622495D02*
X84410771Y-103670114D01*
X84410771Y-103670114D02*
X84363152Y-103765352D01*
X84363152Y-103765352D02*
X84363152Y-103955828D01*
X84363152Y-103955828D02*
X84410771Y-104051066D01*
X84410771Y-104051066D02*
X84506009Y-104098685D01*
X84506009Y-104098685D02*
X84601247Y-104098685D01*
X84601247Y-104098685D02*
X84696485Y-103622495D01*
X84982200Y-104479638D02*
X85029819Y-104574876D01*
X85029819Y-104574876D02*
X85029819Y-104765352D01*
X85029819Y-104765352D02*
X84982200Y-104860590D01*
X84982200Y-104860590D02*
X84886961Y-104908209D01*
X84886961Y-104908209D02*
X84839342Y-104908209D01*
X84839342Y-104908209D02*
X84744104Y-104860590D01*
X84744104Y-104860590D02*
X84696485Y-104765352D01*
X84696485Y-104765352D02*
X84696485Y-104622495D01*
X84696485Y-104622495D02*
X84648866Y-104527257D01*
X84648866Y-104527257D02*
X84553628Y-104479638D01*
X84553628Y-104479638D02*
X84506009Y-104479638D01*
X84506009Y-104479638D02*
X84410771Y-104527257D01*
X84410771Y-104527257D02*
X84363152Y-104622495D01*
X84363152Y-104622495D02*
X84363152Y-104765352D01*
X84363152Y-104765352D02*
X84410771Y-104860590D01*
X84982200Y-105765352D02*
X85029819Y-105670114D01*
X85029819Y-105670114D02*
X85029819Y-105479638D01*
X85029819Y-105479638D02*
X84982200Y-105384400D01*
X84982200Y-105384400D02*
X84934580Y-105336781D01*
X84934580Y-105336781D02*
X84839342Y-105289162D01*
X84839342Y-105289162D02*
X84553628Y-105289162D01*
X84553628Y-105289162D02*
X84458390Y-105336781D01*
X84458390Y-105336781D02*
X84410771Y-105384400D01*
X84410771Y-105384400D02*
X84363152Y-105479638D01*
X84363152Y-105479638D02*
X84363152Y-105670114D01*
X84363152Y-105670114D02*
X84410771Y-105765352D01*
X85029819Y-106193924D02*
X84029819Y-106193924D01*
X85029819Y-106622495D02*
X84506009Y-106622495D01*
X84506009Y-106622495D02*
X84410771Y-106574876D01*
X84410771Y-106574876D02*
X84363152Y-106479638D01*
X84363152Y-106479638D02*
X84363152Y-106336781D01*
X84363152Y-106336781D02*
X84410771Y-106241543D01*
X84410771Y-106241543D02*
X84458390Y-106193924D01*
X84363152Y-108622496D02*
X84648866Y-107860591D01*
X84648866Y-107860591D02*
X84934580Y-108622496D01*
X85029819Y-109098686D02*
X84363152Y-109098686D01*
X84458390Y-109098686D02*
X84410771Y-109146305D01*
X84410771Y-109146305D02*
X84363152Y-109241543D01*
X84363152Y-109241543D02*
X84363152Y-109384400D01*
X84363152Y-109384400D02*
X84410771Y-109479638D01*
X84410771Y-109479638D02*
X84506009Y-109527257D01*
X84506009Y-109527257D02*
X85029819Y-109527257D01*
X84506009Y-109527257D02*
X84410771Y-109574876D01*
X84410771Y-109574876D02*
X84363152Y-109670114D01*
X84363152Y-109670114D02*
X84363152Y-109812971D01*
X84363152Y-109812971D02*
X84410771Y-109908210D01*
X84410771Y-109908210D02*
X84506009Y-109955829D01*
X84506009Y-109955829D02*
X85029819Y-109955829D01*
X85029819Y-110860590D02*
X84506009Y-110860590D01*
X84506009Y-110860590D02*
X84410771Y-110812971D01*
X84410771Y-110812971D02*
X84363152Y-110717733D01*
X84363152Y-110717733D02*
X84363152Y-110527257D01*
X84363152Y-110527257D02*
X84410771Y-110432019D01*
X84982200Y-110860590D02*
X85029819Y-110765352D01*
X85029819Y-110765352D02*
X85029819Y-110527257D01*
X85029819Y-110527257D02*
X84982200Y-110432019D01*
X84982200Y-110432019D02*
X84886961Y-110384400D01*
X84886961Y-110384400D02*
X84791723Y-110384400D01*
X84791723Y-110384400D02*
X84696485Y-110432019D01*
X84696485Y-110432019D02*
X84648866Y-110527257D01*
X84648866Y-110527257D02*
X84648866Y-110765352D01*
X84648866Y-110765352D02*
X84601247Y-110860590D01*
X85029819Y-111336781D02*
X84363152Y-111336781D01*
X84029819Y-111336781D02*
X84077438Y-111289162D01*
X84077438Y-111289162D02*
X84125057Y-111336781D01*
X84125057Y-111336781D02*
X84077438Y-111384400D01*
X84077438Y-111384400D02*
X84029819Y-111336781D01*
X84029819Y-111336781D02*
X84125057Y-111336781D01*
X85029819Y-111955828D02*
X84982200Y-111860590D01*
X84982200Y-111860590D02*
X84886961Y-111812971D01*
X84886961Y-111812971D02*
X84029819Y-111812971D01*
X84553628Y-112955828D02*
X84506009Y-112908209D01*
X84506009Y-112908209D02*
X84458390Y-112812971D01*
X84458390Y-112812971D02*
X84458390Y-112717733D01*
X84458390Y-112717733D02*
X84506009Y-112622495D01*
X84506009Y-112622495D02*
X84553628Y-112574876D01*
X84553628Y-112574876D02*
X84648866Y-112527257D01*
X84648866Y-112527257D02*
X84744104Y-112527257D01*
X84744104Y-112527257D02*
X84839342Y-112574876D01*
X84839342Y-112574876D02*
X84886961Y-112622495D01*
X84886961Y-112622495D02*
X84934580Y-112717733D01*
X84934580Y-112717733D02*
X84934580Y-112812971D01*
X84934580Y-112812971D02*
X84886961Y-112908209D01*
X84886961Y-112908209D02*
X84839342Y-112955828D01*
X84458390Y-112955828D02*
X84839342Y-112955828D01*
X84839342Y-112955828D02*
X84886961Y-113003447D01*
X84886961Y-113003447D02*
X84886961Y-113051066D01*
X84886961Y-113051066D02*
X84839342Y-113146305D01*
X84839342Y-113146305D02*
X84744104Y-113193924D01*
X84744104Y-113193924D02*
X84506009Y-113193924D01*
X84506009Y-113193924D02*
X84363152Y-113098686D01*
X84363152Y-113098686D02*
X84267914Y-112955828D01*
X84267914Y-112955828D02*
X84220295Y-112765352D01*
X84220295Y-112765352D02*
X84267914Y-112574876D01*
X84267914Y-112574876D02*
X84363152Y-112432019D01*
X84363152Y-112432019D02*
X84506009Y-112336781D01*
X84506009Y-112336781D02*
X84696485Y-112289162D01*
X84696485Y-112289162D02*
X84886961Y-112336781D01*
X84886961Y-112336781D02*
X85029819Y-112432019D01*
X85029819Y-112432019D02*
X85125057Y-112574876D01*
X85125057Y-112574876D02*
X85172676Y-112765352D01*
X85172676Y-112765352D02*
X85125057Y-112955828D01*
X85125057Y-112955828D02*
X85029819Y-113098686D01*
X84982200Y-114051066D02*
X85029819Y-113955828D01*
X85029819Y-113955828D02*
X85029819Y-113765352D01*
X85029819Y-113765352D02*
X84982200Y-113670114D01*
X84982200Y-113670114D02*
X84934580Y-113622495D01*
X84934580Y-113622495D02*
X84839342Y-113574876D01*
X84839342Y-113574876D02*
X84553628Y-113574876D01*
X84553628Y-113574876D02*
X84458390Y-113622495D01*
X84458390Y-113622495D02*
X84410771Y-113670114D01*
X84410771Y-113670114D02*
X84363152Y-113765352D01*
X84363152Y-113765352D02*
X84363152Y-113955828D01*
X84363152Y-113955828D02*
X84410771Y-114051066D01*
X85029819Y-114479638D02*
X84029819Y-114479638D01*
X85029819Y-114908209D02*
X84506009Y-114908209D01*
X84506009Y-114908209D02*
X84410771Y-114860590D01*
X84410771Y-114860590D02*
X84363152Y-114765352D01*
X84363152Y-114765352D02*
X84363152Y-114622495D01*
X84363152Y-114622495D02*
X84410771Y-114527257D01*
X84410771Y-114527257D02*
X84458390Y-114479638D01*
X85029819Y-115384400D02*
X84363152Y-115384400D01*
X84553628Y-115384400D02*
X84458390Y-115432019D01*
X84458390Y-115432019D02*
X84410771Y-115479638D01*
X84410771Y-115479638D02*
X84363152Y-115574876D01*
X84363152Y-115574876D02*
X84363152Y-115670114D01*
X85029819Y-116003448D02*
X84363152Y-116003448D01*
X84029819Y-116003448D02*
X84077438Y-115955829D01*
X84077438Y-115955829D02*
X84125057Y-116003448D01*
X84125057Y-116003448D02*
X84077438Y-116051067D01*
X84077438Y-116051067D02*
X84029819Y-116003448D01*
X84029819Y-116003448D02*
X84125057Y-116003448D01*
X84982200Y-116432019D02*
X85029819Y-116527257D01*
X85029819Y-116527257D02*
X85029819Y-116717733D01*
X85029819Y-116717733D02*
X84982200Y-116812971D01*
X84982200Y-116812971D02*
X84886961Y-116860590D01*
X84886961Y-116860590D02*
X84839342Y-116860590D01*
X84839342Y-116860590D02*
X84744104Y-116812971D01*
X84744104Y-116812971D02*
X84696485Y-116717733D01*
X84696485Y-116717733D02*
X84696485Y-116574876D01*
X84696485Y-116574876D02*
X84648866Y-116479638D01*
X84648866Y-116479638D02*
X84553628Y-116432019D01*
X84553628Y-116432019D02*
X84506009Y-116432019D01*
X84506009Y-116432019D02*
X84410771Y-116479638D01*
X84410771Y-116479638D02*
X84363152Y-116574876D01*
X84363152Y-116574876D02*
X84363152Y-116717733D01*
X84363152Y-116717733D02*
X84410771Y-116812971D01*
X84648866Y-117289162D02*
X84648866Y-118051067D01*
X85029819Y-118527257D02*
X84029819Y-118527257D01*
X84410771Y-118527257D02*
X84363152Y-118622495D01*
X84363152Y-118622495D02*
X84363152Y-118812971D01*
X84363152Y-118812971D02*
X84410771Y-118908209D01*
X84410771Y-118908209D02*
X84458390Y-118955828D01*
X84458390Y-118955828D02*
X84553628Y-119003447D01*
X84553628Y-119003447D02*
X84839342Y-119003447D01*
X84839342Y-119003447D02*
X84934580Y-118955828D01*
X84934580Y-118955828D02*
X84982200Y-118908209D01*
X84982200Y-118908209D02*
X85029819Y-118812971D01*
X85029819Y-118812971D02*
X85029819Y-118622495D01*
X85029819Y-118622495D02*
X84982200Y-118527257D01*
X84982200Y-119812971D02*
X85029819Y-119717733D01*
X85029819Y-119717733D02*
X85029819Y-119527257D01*
X85029819Y-119527257D02*
X84982200Y-119432019D01*
X84982200Y-119432019D02*
X84886961Y-119384400D01*
X84886961Y-119384400D02*
X84506009Y-119384400D01*
X84506009Y-119384400D02*
X84410771Y-119432019D01*
X84410771Y-119432019D02*
X84363152Y-119527257D01*
X84363152Y-119527257D02*
X84363152Y-119717733D01*
X84363152Y-119717733D02*
X84410771Y-119812971D01*
X84410771Y-119812971D02*
X84506009Y-119860590D01*
X84506009Y-119860590D02*
X84601247Y-119860590D01*
X84601247Y-119860590D02*
X84696485Y-119384400D01*
X84982200Y-120241543D02*
X85029819Y-120336781D01*
X85029819Y-120336781D02*
X85029819Y-120527257D01*
X85029819Y-120527257D02*
X84982200Y-120622495D01*
X84982200Y-120622495D02*
X84886961Y-120670114D01*
X84886961Y-120670114D02*
X84839342Y-120670114D01*
X84839342Y-120670114D02*
X84744104Y-120622495D01*
X84744104Y-120622495D02*
X84696485Y-120527257D01*
X84696485Y-120527257D02*
X84696485Y-120384400D01*
X84696485Y-120384400D02*
X84648866Y-120289162D01*
X84648866Y-120289162D02*
X84553628Y-120241543D01*
X84553628Y-120241543D02*
X84506009Y-120241543D01*
X84506009Y-120241543D02*
X84410771Y-120289162D01*
X84410771Y-120289162D02*
X84363152Y-120384400D01*
X84363152Y-120384400D02*
X84363152Y-120527257D01*
X84363152Y-120527257D02*
X84410771Y-120622495D01*
X84982200Y-121527257D02*
X85029819Y-121432019D01*
X85029819Y-121432019D02*
X85029819Y-121241543D01*
X85029819Y-121241543D02*
X84982200Y-121146305D01*
X84982200Y-121146305D02*
X84934580Y-121098686D01*
X84934580Y-121098686D02*
X84839342Y-121051067D01*
X84839342Y-121051067D02*
X84553628Y-121051067D01*
X84553628Y-121051067D02*
X84458390Y-121098686D01*
X84458390Y-121098686D02*
X84410771Y-121146305D01*
X84410771Y-121146305D02*
X84363152Y-121241543D01*
X84363152Y-121241543D02*
X84363152Y-121432019D01*
X84363152Y-121432019D02*
X84410771Y-121527257D01*
X85029819Y-121955829D02*
X84029819Y-121955829D01*
X85029819Y-122384400D02*
X84506009Y-122384400D01*
X84506009Y-122384400D02*
X84410771Y-122336781D01*
X84410771Y-122336781D02*
X84363152Y-122241543D01*
X84363152Y-122241543D02*
X84363152Y-122098686D01*
X84363152Y-122098686D02*
X84410771Y-122003448D01*
X84410771Y-122003448D02*
X84458390Y-121955829D01*
X84934580Y-122860591D02*
X84982200Y-122908210D01*
X84982200Y-122908210D02*
X85029819Y-122860591D01*
X85029819Y-122860591D02*
X84982200Y-122812972D01*
X84982200Y-122812972D02*
X84934580Y-122860591D01*
X84934580Y-122860591D02*
X85029819Y-122860591D01*
X84982200Y-123765352D02*
X85029819Y-123670114D01*
X85029819Y-123670114D02*
X85029819Y-123479638D01*
X85029819Y-123479638D02*
X84982200Y-123384400D01*
X84982200Y-123384400D02*
X84934580Y-123336781D01*
X84934580Y-123336781D02*
X84839342Y-123289162D01*
X84839342Y-123289162D02*
X84553628Y-123289162D01*
X84553628Y-123289162D02*
X84458390Y-123336781D01*
X84458390Y-123336781D02*
X84410771Y-123384400D01*
X84410771Y-123384400D02*
X84363152Y-123479638D01*
X84363152Y-123479638D02*
X84363152Y-123670114D01*
X84363152Y-123670114D02*
X84410771Y-123765352D01*
X85029819Y-124336781D02*
X84982200Y-124241543D01*
X84982200Y-124241543D02*
X84934580Y-124193924D01*
X84934580Y-124193924D02*
X84839342Y-124146305D01*
X84839342Y-124146305D02*
X84553628Y-124146305D01*
X84553628Y-124146305D02*
X84458390Y-124193924D01*
X84458390Y-124193924D02*
X84410771Y-124241543D01*
X84410771Y-124241543D02*
X84363152Y-124336781D01*
X84363152Y-124336781D02*
X84363152Y-124479638D01*
X84363152Y-124479638D02*
X84410771Y-124574876D01*
X84410771Y-124574876D02*
X84458390Y-124622495D01*
X84458390Y-124622495D02*
X84553628Y-124670114D01*
X84553628Y-124670114D02*
X84839342Y-124670114D01*
X84839342Y-124670114D02*
X84934580Y-124622495D01*
X84934580Y-124622495D02*
X84982200Y-124574876D01*
X84982200Y-124574876D02*
X85029819Y-124479638D01*
X85029819Y-124479638D02*
X85029819Y-124336781D01*
X85029819Y-125098686D02*
X84363152Y-125098686D01*
X84458390Y-125098686D02*
X84410771Y-125146305D01*
X84410771Y-125146305D02*
X84363152Y-125241543D01*
X84363152Y-125241543D02*
X84363152Y-125384400D01*
X84363152Y-125384400D02*
X84410771Y-125479638D01*
X84410771Y-125479638D02*
X84506009Y-125527257D01*
X84506009Y-125527257D02*
X85029819Y-125527257D01*
X84506009Y-125527257D02*
X84410771Y-125574876D01*
X84410771Y-125574876D02*
X84363152Y-125670114D01*
X84363152Y-125670114D02*
X84363152Y-125812971D01*
X84363152Y-125812971D02*
X84410771Y-125908210D01*
X84410771Y-125908210D02*
X84506009Y-125955829D01*
X84506009Y-125955829D02*
X85029819Y-125955829D01*
X84363152Y-126432019D02*
X84648866Y-127193924D01*
X84648866Y-127193924D02*
X84934580Y-126432019D01*
X86639819Y-93765350D02*
X85639819Y-93765350D01*
X86592200Y-93765350D02*
X86639819Y-93670112D01*
X86639819Y-93670112D02*
X86639819Y-93479636D01*
X86639819Y-93479636D02*
X86592200Y-93384398D01*
X86592200Y-93384398D02*
X86544580Y-93336779D01*
X86544580Y-93336779D02*
X86449342Y-93289160D01*
X86449342Y-93289160D02*
X86163628Y-93289160D01*
X86163628Y-93289160D02*
X86068390Y-93336779D01*
X86068390Y-93336779D02*
X86020771Y-93384398D01*
X86020771Y-93384398D02*
X85973152Y-93479636D01*
X85973152Y-93479636D02*
X85973152Y-93670112D01*
X85973152Y-93670112D02*
X86020771Y-93765350D01*
X86592200Y-94622493D02*
X86639819Y-94527255D01*
X86639819Y-94527255D02*
X86639819Y-94336779D01*
X86639819Y-94336779D02*
X86592200Y-94241541D01*
X86592200Y-94241541D02*
X86496961Y-94193922D01*
X86496961Y-94193922D02*
X86116009Y-94193922D01*
X86116009Y-94193922D02*
X86020771Y-94241541D01*
X86020771Y-94241541D02*
X85973152Y-94336779D01*
X85973152Y-94336779D02*
X85973152Y-94527255D01*
X85973152Y-94527255D02*
X86020771Y-94622493D01*
X86020771Y-94622493D02*
X86116009Y-94670112D01*
X86116009Y-94670112D02*
X86211247Y-94670112D01*
X86211247Y-94670112D02*
X86306485Y-94193922D01*
X86592200Y-95051065D02*
X86639819Y-95146303D01*
X86639819Y-95146303D02*
X86639819Y-95336779D01*
X86639819Y-95336779D02*
X86592200Y-95432017D01*
X86592200Y-95432017D02*
X86496961Y-95479636D01*
X86496961Y-95479636D02*
X86449342Y-95479636D01*
X86449342Y-95479636D02*
X86354104Y-95432017D01*
X86354104Y-95432017D02*
X86306485Y-95336779D01*
X86306485Y-95336779D02*
X86306485Y-95193922D01*
X86306485Y-95193922D02*
X86258866Y-95098684D01*
X86258866Y-95098684D02*
X86163628Y-95051065D01*
X86163628Y-95051065D02*
X86116009Y-95051065D01*
X86116009Y-95051065D02*
X86020771Y-95098684D01*
X86020771Y-95098684D02*
X85973152Y-95193922D01*
X85973152Y-95193922D02*
X85973152Y-95336779D01*
X85973152Y-95336779D02*
X86020771Y-95432017D01*
X86639819Y-95908208D02*
X85973152Y-95908208D01*
X85639819Y-95908208D02*
X85687438Y-95860589D01*
X85687438Y-95860589D02*
X85735057Y-95908208D01*
X85735057Y-95908208D02*
X85687438Y-95955827D01*
X85687438Y-95955827D02*
X85639819Y-95908208D01*
X85639819Y-95908208D02*
X85735057Y-95908208D01*
X85973152Y-96812969D02*
X86782676Y-96812969D01*
X86782676Y-96812969D02*
X86877914Y-96765350D01*
X86877914Y-96765350D02*
X86925533Y-96717731D01*
X86925533Y-96717731D02*
X86973152Y-96622493D01*
X86973152Y-96622493D02*
X86973152Y-96479636D01*
X86973152Y-96479636D02*
X86925533Y-96384398D01*
X86592200Y-96812969D02*
X86639819Y-96717731D01*
X86639819Y-96717731D02*
X86639819Y-96527255D01*
X86639819Y-96527255D02*
X86592200Y-96432017D01*
X86592200Y-96432017D02*
X86544580Y-96384398D01*
X86544580Y-96384398D02*
X86449342Y-96336779D01*
X86449342Y-96336779D02*
X86163628Y-96336779D01*
X86163628Y-96336779D02*
X86068390Y-96384398D01*
X86068390Y-96384398D02*
X86020771Y-96432017D01*
X86020771Y-96432017D02*
X85973152Y-96527255D01*
X85973152Y-96527255D02*
X85973152Y-96717731D01*
X85973152Y-96717731D02*
X86020771Y-96812969D01*
X85973152Y-97289160D02*
X86639819Y-97289160D01*
X86068390Y-97289160D02*
X86020771Y-97336779D01*
X86020771Y-97336779D02*
X85973152Y-97432017D01*
X85973152Y-97432017D02*
X85973152Y-97574874D01*
X85973152Y-97574874D02*
X86020771Y-97670112D01*
X86020771Y-97670112D02*
X86116009Y-97717731D01*
X86116009Y-97717731D02*
X86639819Y-97717731D01*
X86592200Y-98574874D02*
X86639819Y-98479636D01*
X86639819Y-98479636D02*
X86639819Y-98289160D01*
X86639819Y-98289160D02*
X86592200Y-98193922D01*
X86592200Y-98193922D02*
X86496961Y-98146303D01*
X86496961Y-98146303D02*
X86116009Y-98146303D01*
X86116009Y-98146303D02*
X86020771Y-98193922D01*
X86020771Y-98193922D02*
X85973152Y-98289160D01*
X85973152Y-98289160D02*
X85973152Y-98479636D01*
X85973152Y-98479636D02*
X86020771Y-98574874D01*
X86020771Y-98574874D02*
X86116009Y-98622493D01*
X86116009Y-98622493D02*
X86211247Y-98622493D01*
X86211247Y-98622493D02*
X86306485Y-98146303D01*
X86639819Y-99479636D02*
X85639819Y-99479636D01*
X86592200Y-99479636D02*
X86639819Y-99384398D01*
X86639819Y-99384398D02*
X86639819Y-99193922D01*
X86639819Y-99193922D02*
X86592200Y-99098684D01*
X86592200Y-99098684D02*
X86544580Y-99051065D01*
X86544580Y-99051065D02*
X86449342Y-99003446D01*
X86449342Y-99003446D02*
X86163628Y-99003446D01*
X86163628Y-99003446D02*
X86068390Y-99051065D01*
X86068390Y-99051065D02*
X86020771Y-99098684D01*
X86020771Y-99098684D02*
X85973152Y-99193922D01*
X85973152Y-99193922D02*
X85973152Y-99384398D01*
X85973152Y-99384398D02*
X86020771Y-99479636D01*
X86639819Y-101146303D02*
X86116009Y-101146303D01*
X86116009Y-101146303D02*
X86020771Y-101098684D01*
X86020771Y-101098684D02*
X85973152Y-101003446D01*
X85973152Y-101003446D02*
X85973152Y-100812970D01*
X85973152Y-100812970D02*
X86020771Y-100717732D01*
X86592200Y-101146303D02*
X86639819Y-101051065D01*
X86639819Y-101051065D02*
X86639819Y-100812970D01*
X86639819Y-100812970D02*
X86592200Y-100717732D01*
X86592200Y-100717732D02*
X86496961Y-100670113D01*
X86496961Y-100670113D02*
X86401723Y-100670113D01*
X86401723Y-100670113D02*
X86306485Y-100717732D01*
X86306485Y-100717732D02*
X86258866Y-100812970D01*
X86258866Y-100812970D02*
X86258866Y-101051065D01*
X86258866Y-101051065D02*
X86211247Y-101146303D01*
X85973152Y-101479637D02*
X85973152Y-101860589D01*
X85639819Y-101622494D02*
X86496961Y-101622494D01*
X86496961Y-101622494D02*
X86592200Y-101670113D01*
X86592200Y-101670113D02*
X86639819Y-101765351D01*
X86639819Y-101765351D02*
X86639819Y-101860589D01*
X85973152Y-102812971D02*
X85973152Y-103193923D01*
X85639819Y-102955828D02*
X86496961Y-102955828D01*
X86496961Y-102955828D02*
X86592200Y-103003447D01*
X86592200Y-103003447D02*
X86639819Y-103098685D01*
X86639819Y-103098685D02*
X86639819Y-103193923D01*
X86639819Y-103527257D02*
X85639819Y-103527257D01*
X86639819Y-103955828D02*
X86116009Y-103955828D01*
X86116009Y-103955828D02*
X86020771Y-103908209D01*
X86020771Y-103908209D02*
X85973152Y-103812971D01*
X85973152Y-103812971D02*
X85973152Y-103670114D01*
X85973152Y-103670114D02*
X86020771Y-103574876D01*
X86020771Y-103574876D02*
X86068390Y-103527257D01*
X86592200Y-104812971D02*
X86639819Y-104717733D01*
X86639819Y-104717733D02*
X86639819Y-104527257D01*
X86639819Y-104527257D02*
X86592200Y-104432019D01*
X86592200Y-104432019D02*
X86496961Y-104384400D01*
X86496961Y-104384400D02*
X86116009Y-104384400D01*
X86116009Y-104384400D02*
X86020771Y-104432019D01*
X86020771Y-104432019D02*
X85973152Y-104527257D01*
X85973152Y-104527257D02*
X85973152Y-104717733D01*
X85973152Y-104717733D02*
X86020771Y-104812971D01*
X86020771Y-104812971D02*
X86116009Y-104860590D01*
X86116009Y-104860590D02*
X86211247Y-104860590D01*
X86211247Y-104860590D02*
X86306485Y-104384400D01*
X86544580Y-106622495D02*
X86592200Y-106574876D01*
X86592200Y-106574876D02*
X86639819Y-106432019D01*
X86639819Y-106432019D02*
X86639819Y-106336781D01*
X86639819Y-106336781D02*
X86592200Y-106193924D01*
X86592200Y-106193924D02*
X86496961Y-106098686D01*
X86496961Y-106098686D02*
X86401723Y-106051067D01*
X86401723Y-106051067D02*
X86211247Y-106003448D01*
X86211247Y-106003448D02*
X86068390Y-106003448D01*
X86068390Y-106003448D02*
X85877914Y-106051067D01*
X85877914Y-106051067D02*
X85782676Y-106098686D01*
X85782676Y-106098686D02*
X85687438Y-106193924D01*
X85687438Y-106193924D02*
X85639819Y-106336781D01*
X85639819Y-106336781D02*
X85639819Y-106432019D01*
X85639819Y-106432019D02*
X85687438Y-106574876D01*
X85687438Y-106574876D02*
X85735057Y-106622495D01*
X86639819Y-107051067D02*
X85639819Y-107051067D01*
X86639819Y-107479638D02*
X86116009Y-107479638D01*
X86116009Y-107479638D02*
X86020771Y-107432019D01*
X86020771Y-107432019D02*
X85973152Y-107336781D01*
X85973152Y-107336781D02*
X85973152Y-107193924D01*
X85973152Y-107193924D02*
X86020771Y-107098686D01*
X86020771Y-107098686D02*
X86068390Y-107051067D01*
X86639819Y-108384400D02*
X86116009Y-108384400D01*
X86116009Y-108384400D02*
X86020771Y-108336781D01*
X86020771Y-108336781D02*
X85973152Y-108241543D01*
X85973152Y-108241543D02*
X85973152Y-108051067D01*
X85973152Y-108051067D02*
X86020771Y-107955829D01*
X86592200Y-108384400D02*
X86639819Y-108289162D01*
X86639819Y-108289162D02*
X86639819Y-108051067D01*
X86639819Y-108051067D02*
X86592200Y-107955829D01*
X86592200Y-107955829D02*
X86496961Y-107908210D01*
X86496961Y-107908210D02*
X86401723Y-107908210D01*
X86401723Y-107908210D02*
X86306485Y-107955829D01*
X86306485Y-107955829D02*
X86258866Y-108051067D01*
X86258866Y-108051067D02*
X86258866Y-108289162D01*
X86258866Y-108289162D02*
X86211247Y-108384400D01*
X86639819Y-108860591D02*
X85973152Y-108860591D01*
X85639819Y-108860591D02*
X85687438Y-108812972D01*
X85687438Y-108812972D02*
X85735057Y-108860591D01*
X85735057Y-108860591D02*
X85687438Y-108908210D01*
X85687438Y-108908210D02*
X85639819Y-108860591D01*
X85639819Y-108860591D02*
X85735057Y-108860591D01*
X86639819Y-109336781D02*
X85973152Y-109336781D01*
X86163628Y-109336781D02*
X86068390Y-109384400D01*
X86068390Y-109384400D02*
X86020771Y-109432019D01*
X86020771Y-109432019D02*
X85973152Y-109527257D01*
X85973152Y-109527257D02*
X85973152Y-109622495D01*
X85973152Y-110574877D02*
X85973152Y-110955829D01*
X86639819Y-110717734D02*
X85782676Y-110717734D01*
X85782676Y-110717734D02*
X85687438Y-110765353D01*
X85687438Y-110765353D02*
X85639819Y-110860591D01*
X85639819Y-110860591D02*
X85639819Y-110955829D01*
X86639819Y-111432020D02*
X86592200Y-111336782D01*
X86592200Y-111336782D02*
X86544580Y-111289163D01*
X86544580Y-111289163D02*
X86449342Y-111241544D01*
X86449342Y-111241544D02*
X86163628Y-111241544D01*
X86163628Y-111241544D02*
X86068390Y-111289163D01*
X86068390Y-111289163D02*
X86020771Y-111336782D01*
X86020771Y-111336782D02*
X85973152Y-111432020D01*
X85973152Y-111432020D02*
X85973152Y-111574877D01*
X85973152Y-111574877D02*
X86020771Y-111670115D01*
X86020771Y-111670115D02*
X86068390Y-111717734D01*
X86068390Y-111717734D02*
X86163628Y-111765353D01*
X86163628Y-111765353D02*
X86449342Y-111765353D01*
X86449342Y-111765353D02*
X86544580Y-111717734D01*
X86544580Y-111717734D02*
X86592200Y-111670115D01*
X86592200Y-111670115D02*
X86639819Y-111574877D01*
X86639819Y-111574877D02*
X86639819Y-111432020D01*
X86639819Y-112193925D02*
X85973152Y-112193925D01*
X86163628Y-112193925D02*
X86068390Y-112241544D01*
X86068390Y-112241544D02*
X86020771Y-112289163D01*
X86020771Y-112289163D02*
X85973152Y-112384401D01*
X85973152Y-112384401D02*
X85973152Y-112479639D01*
X86116009Y-113574878D02*
X86116009Y-113908211D01*
X86639819Y-114051068D02*
X86639819Y-113574878D01*
X86639819Y-113574878D02*
X85639819Y-113574878D01*
X85639819Y-113574878D02*
X85639819Y-114051068D01*
X86639819Y-114479640D02*
X85973152Y-114479640D01*
X86068390Y-114479640D02*
X86020771Y-114527259D01*
X86020771Y-114527259D02*
X85973152Y-114622497D01*
X85973152Y-114622497D02*
X85973152Y-114765354D01*
X85973152Y-114765354D02*
X86020771Y-114860592D01*
X86020771Y-114860592D02*
X86116009Y-114908211D01*
X86116009Y-114908211D02*
X86639819Y-114908211D01*
X86116009Y-114908211D02*
X86020771Y-114955830D01*
X86020771Y-114955830D02*
X85973152Y-115051068D01*
X85973152Y-115051068D02*
X85973152Y-115193925D01*
X85973152Y-115193925D02*
X86020771Y-115289164D01*
X86020771Y-115289164D02*
X86116009Y-115336783D01*
X86116009Y-115336783D02*
X86639819Y-115336783D01*
X86639819Y-115812973D02*
X85639819Y-115812973D01*
X86020771Y-115812973D02*
X85973152Y-115908211D01*
X85973152Y-115908211D02*
X85973152Y-116098687D01*
X85973152Y-116098687D02*
X86020771Y-116193925D01*
X86020771Y-116193925D02*
X86068390Y-116241544D01*
X86068390Y-116241544D02*
X86163628Y-116289163D01*
X86163628Y-116289163D02*
X86449342Y-116289163D01*
X86449342Y-116289163D02*
X86544580Y-116241544D01*
X86544580Y-116241544D02*
X86592200Y-116193925D01*
X86592200Y-116193925D02*
X86639819Y-116098687D01*
X86639819Y-116098687D02*
X86639819Y-115908211D01*
X86639819Y-115908211D02*
X86592200Y-115812973D01*
X86592200Y-117098687D02*
X86639819Y-117003449D01*
X86639819Y-117003449D02*
X86639819Y-116812973D01*
X86639819Y-116812973D02*
X86592200Y-116717735D01*
X86592200Y-116717735D02*
X86496961Y-116670116D01*
X86496961Y-116670116D02*
X86116009Y-116670116D01*
X86116009Y-116670116D02*
X86020771Y-116717735D01*
X86020771Y-116717735D02*
X85973152Y-116812973D01*
X85973152Y-116812973D02*
X85973152Y-117003449D01*
X85973152Y-117003449D02*
X86020771Y-117098687D01*
X86020771Y-117098687D02*
X86116009Y-117146306D01*
X86116009Y-117146306D02*
X86211247Y-117146306D01*
X86211247Y-117146306D02*
X86306485Y-116670116D01*
X86639819Y-118003449D02*
X85639819Y-118003449D01*
X86592200Y-118003449D02*
X86639819Y-117908211D01*
X86639819Y-117908211D02*
X86639819Y-117717735D01*
X86639819Y-117717735D02*
X86592200Y-117622497D01*
X86592200Y-117622497D02*
X86544580Y-117574878D01*
X86544580Y-117574878D02*
X86449342Y-117527259D01*
X86449342Y-117527259D02*
X86163628Y-117527259D01*
X86163628Y-117527259D02*
X86068390Y-117574878D01*
X86068390Y-117574878D02*
X86020771Y-117622497D01*
X86020771Y-117622497D02*
X85973152Y-117717735D01*
X85973152Y-117717735D02*
X85973152Y-117908211D01*
X85973152Y-117908211D02*
X86020771Y-118003449D01*
X86639819Y-118908211D02*
X85639819Y-118908211D01*
X86592200Y-118908211D02*
X86639819Y-118812973D01*
X86639819Y-118812973D02*
X86639819Y-118622497D01*
X86639819Y-118622497D02*
X86592200Y-118527259D01*
X86592200Y-118527259D02*
X86544580Y-118479640D01*
X86544580Y-118479640D02*
X86449342Y-118432021D01*
X86449342Y-118432021D02*
X86163628Y-118432021D01*
X86163628Y-118432021D02*
X86068390Y-118479640D01*
X86068390Y-118479640D02*
X86020771Y-118527259D01*
X86020771Y-118527259D02*
X85973152Y-118622497D01*
X85973152Y-118622497D02*
X85973152Y-118812973D01*
X85973152Y-118812973D02*
X86020771Y-118908211D01*
X86592200Y-119765354D02*
X86639819Y-119670116D01*
X86639819Y-119670116D02*
X86639819Y-119479640D01*
X86639819Y-119479640D02*
X86592200Y-119384402D01*
X86592200Y-119384402D02*
X86496961Y-119336783D01*
X86496961Y-119336783D02*
X86116009Y-119336783D01*
X86116009Y-119336783D02*
X86020771Y-119384402D01*
X86020771Y-119384402D02*
X85973152Y-119479640D01*
X85973152Y-119479640D02*
X85973152Y-119670116D01*
X85973152Y-119670116D02*
X86020771Y-119765354D01*
X86020771Y-119765354D02*
X86116009Y-119812973D01*
X86116009Y-119812973D02*
X86211247Y-119812973D01*
X86211247Y-119812973D02*
X86306485Y-119336783D01*
X86639819Y-120670116D02*
X85639819Y-120670116D01*
X86592200Y-120670116D02*
X86639819Y-120574878D01*
X86639819Y-120574878D02*
X86639819Y-120384402D01*
X86639819Y-120384402D02*
X86592200Y-120289164D01*
X86592200Y-120289164D02*
X86544580Y-120241545D01*
X86544580Y-120241545D02*
X86449342Y-120193926D01*
X86449342Y-120193926D02*
X86163628Y-120193926D01*
X86163628Y-120193926D02*
X86068390Y-120241545D01*
X86068390Y-120241545D02*
X86020771Y-120289164D01*
X86020771Y-120289164D02*
X85973152Y-120384402D01*
X85973152Y-120384402D02*
X85973152Y-120574878D01*
X85973152Y-120574878D02*
X86020771Y-120670116D01*
X86592200Y-121860593D02*
X86639819Y-122003450D01*
X86639819Y-122003450D02*
X86639819Y-122241545D01*
X86639819Y-122241545D02*
X86592200Y-122336783D01*
X86592200Y-122336783D02*
X86544580Y-122384402D01*
X86544580Y-122384402D02*
X86449342Y-122432021D01*
X86449342Y-122432021D02*
X86354104Y-122432021D01*
X86354104Y-122432021D02*
X86258866Y-122384402D01*
X86258866Y-122384402D02*
X86211247Y-122336783D01*
X86211247Y-122336783D02*
X86163628Y-122241545D01*
X86163628Y-122241545D02*
X86116009Y-122051069D01*
X86116009Y-122051069D02*
X86068390Y-121955831D01*
X86068390Y-121955831D02*
X86020771Y-121908212D01*
X86020771Y-121908212D02*
X85925533Y-121860593D01*
X85925533Y-121860593D02*
X85830295Y-121860593D01*
X85830295Y-121860593D02*
X85735057Y-121908212D01*
X85735057Y-121908212D02*
X85687438Y-121955831D01*
X85687438Y-121955831D02*
X85639819Y-122051069D01*
X85639819Y-122051069D02*
X85639819Y-122289164D01*
X85639819Y-122289164D02*
X85687438Y-122432021D01*
X85973152Y-122765355D02*
X86639819Y-123003450D01*
X85973152Y-123241545D02*
X86639819Y-123003450D01*
X86639819Y-123003450D02*
X86877914Y-122908212D01*
X86877914Y-122908212D02*
X86925533Y-122860593D01*
X86925533Y-122860593D02*
X86973152Y-122765355D01*
X86592200Y-123574879D02*
X86639819Y-123670117D01*
X86639819Y-123670117D02*
X86639819Y-123860593D01*
X86639819Y-123860593D02*
X86592200Y-123955831D01*
X86592200Y-123955831D02*
X86496961Y-124003450D01*
X86496961Y-124003450D02*
X86449342Y-124003450D01*
X86449342Y-124003450D02*
X86354104Y-123955831D01*
X86354104Y-123955831D02*
X86306485Y-123860593D01*
X86306485Y-123860593D02*
X86306485Y-123717736D01*
X86306485Y-123717736D02*
X86258866Y-123622498D01*
X86258866Y-123622498D02*
X86163628Y-123574879D01*
X86163628Y-123574879D02*
X86116009Y-123574879D01*
X86116009Y-123574879D02*
X86020771Y-123622498D01*
X86020771Y-123622498D02*
X85973152Y-123717736D01*
X85973152Y-123717736D02*
X85973152Y-123860593D01*
X85973152Y-123860593D02*
X86020771Y-123955831D01*
X85973152Y-124289165D02*
X85973152Y-124670117D01*
X85639819Y-124432022D02*
X86496961Y-124432022D01*
X86496961Y-124432022D02*
X86592200Y-124479641D01*
X86592200Y-124479641D02*
X86639819Y-124574879D01*
X86639819Y-124574879D02*
X86639819Y-124670117D01*
X86592200Y-125384403D02*
X86639819Y-125289165D01*
X86639819Y-125289165D02*
X86639819Y-125098689D01*
X86639819Y-125098689D02*
X86592200Y-125003451D01*
X86592200Y-125003451D02*
X86496961Y-124955832D01*
X86496961Y-124955832D02*
X86116009Y-124955832D01*
X86116009Y-124955832D02*
X86020771Y-125003451D01*
X86020771Y-125003451D02*
X85973152Y-125098689D01*
X85973152Y-125098689D02*
X85973152Y-125289165D01*
X85973152Y-125289165D02*
X86020771Y-125384403D01*
X86020771Y-125384403D02*
X86116009Y-125432022D01*
X86116009Y-125432022D02*
X86211247Y-125432022D01*
X86211247Y-125432022D02*
X86306485Y-124955832D01*
X86639819Y-125860594D02*
X85973152Y-125860594D01*
X86068390Y-125860594D02*
X86020771Y-125908213D01*
X86020771Y-125908213D02*
X85973152Y-126003451D01*
X85973152Y-126003451D02*
X85973152Y-126146308D01*
X85973152Y-126146308D02*
X86020771Y-126241546D01*
X86020771Y-126241546D02*
X86116009Y-126289165D01*
X86116009Y-126289165D02*
X86639819Y-126289165D01*
X86116009Y-126289165D02*
X86020771Y-126336784D01*
X86020771Y-126336784D02*
X85973152Y-126432022D01*
X85973152Y-126432022D02*
X85973152Y-126574879D01*
X85973152Y-126574879D02*
X86020771Y-126670118D01*
X86020771Y-126670118D02*
X86116009Y-126717737D01*
X86116009Y-126717737D02*
X86639819Y-126717737D01*
X86592200Y-127146308D02*
X86639819Y-127241546D01*
X86639819Y-127241546D02*
X86639819Y-127432022D01*
X86639819Y-127432022D02*
X86592200Y-127527260D01*
X86592200Y-127527260D02*
X86496961Y-127574879D01*
X86496961Y-127574879D02*
X86449342Y-127574879D01*
X86449342Y-127574879D02*
X86354104Y-127527260D01*
X86354104Y-127527260D02*
X86306485Y-127432022D01*
X86306485Y-127432022D02*
X86306485Y-127289165D01*
X86306485Y-127289165D02*
X86258866Y-127193927D01*
X86258866Y-127193927D02*
X86163628Y-127146308D01*
X86163628Y-127146308D02*
X86116009Y-127146308D01*
X86116009Y-127146308D02*
X86020771Y-127193927D01*
X86020771Y-127193927D02*
X85973152Y-127289165D01*
X85973152Y-127289165D02*
X85973152Y-127432022D01*
X85973152Y-127432022D02*
X86020771Y-127527260D01*
X89859819Y-93908207D02*
X89383628Y-93574874D01*
X89859819Y-93336779D02*
X88859819Y-93336779D01*
X88859819Y-93336779D02*
X88859819Y-93717731D01*
X88859819Y-93717731D02*
X88907438Y-93812969D01*
X88907438Y-93812969D02*
X88955057Y-93860588D01*
X88955057Y-93860588D02*
X89050295Y-93908207D01*
X89050295Y-93908207D02*
X89193152Y-93908207D01*
X89193152Y-93908207D02*
X89288390Y-93860588D01*
X89288390Y-93860588D02*
X89336009Y-93812969D01*
X89336009Y-93812969D02*
X89383628Y-93717731D01*
X89383628Y-93717731D02*
X89383628Y-93336779D01*
X89812200Y-94717731D02*
X89859819Y-94622493D01*
X89859819Y-94622493D02*
X89859819Y-94432017D01*
X89859819Y-94432017D02*
X89812200Y-94336779D01*
X89812200Y-94336779D02*
X89716961Y-94289160D01*
X89716961Y-94289160D02*
X89336009Y-94289160D01*
X89336009Y-94289160D02*
X89240771Y-94336779D01*
X89240771Y-94336779D02*
X89193152Y-94432017D01*
X89193152Y-94432017D02*
X89193152Y-94622493D01*
X89193152Y-94622493D02*
X89240771Y-94717731D01*
X89240771Y-94717731D02*
X89336009Y-94765350D01*
X89336009Y-94765350D02*
X89431247Y-94765350D01*
X89431247Y-94765350D02*
X89526485Y-94289160D01*
X89193152Y-95098684D02*
X89859819Y-95336779D01*
X89859819Y-95336779D02*
X89193152Y-95574874D01*
X89764580Y-95955827D02*
X89812200Y-96003446D01*
X89812200Y-96003446D02*
X89859819Y-95955827D01*
X89859819Y-95955827D02*
X89812200Y-95908208D01*
X89812200Y-95908208D02*
X89764580Y-95955827D01*
X89764580Y-95955827D02*
X89859819Y-95955827D01*
X89859819Y-97717731D02*
X89859819Y-97146303D01*
X89859819Y-97432017D02*
X88859819Y-97432017D01*
X88859819Y-97432017D02*
X89002676Y-97336779D01*
X89002676Y-97336779D02*
X89097914Y-97241541D01*
X89097914Y-97241541D02*
X89145533Y-97146303D01*
X89764580Y-98146303D02*
X89812200Y-98193922D01*
X89812200Y-98193922D02*
X89859819Y-98146303D01*
X89859819Y-98146303D02*
X89812200Y-98098684D01*
X89812200Y-98098684D02*
X89764580Y-98146303D01*
X89764580Y-98146303D02*
X89859819Y-98146303D01*
X88859819Y-98812969D02*
X88859819Y-98908207D01*
X88859819Y-98908207D02*
X88907438Y-99003445D01*
X88907438Y-99003445D02*
X88955057Y-99051064D01*
X88955057Y-99051064D02*
X89050295Y-99098683D01*
X89050295Y-99098683D02*
X89240771Y-99146302D01*
X89240771Y-99146302D02*
X89478866Y-99146302D01*
X89478866Y-99146302D02*
X89669342Y-99098683D01*
X89669342Y-99098683D02*
X89764580Y-99051064D01*
X89764580Y-99051064D02*
X89812200Y-99003445D01*
X89812200Y-99003445D02*
X89859819Y-98908207D01*
X89859819Y-98908207D02*
X89859819Y-98812969D01*
X89859819Y-98812969D02*
X89812200Y-98717731D01*
X89812200Y-98717731D02*
X89764580Y-98670112D01*
X89764580Y-98670112D02*
X89669342Y-98622493D01*
X89669342Y-98622493D02*
X89478866Y-98574874D01*
X89478866Y-98574874D02*
X89240771Y-98574874D01*
X89240771Y-98574874D02*
X89050295Y-98622493D01*
X89050295Y-98622493D02*
X88955057Y-98670112D01*
X88955057Y-98670112D02*
X88907438Y-98717731D01*
X88907438Y-98717731D02*
X88859819Y-98812969D01*
X89764580Y-99574874D02*
X89812200Y-99622493D01*
X89812200Y-99622493D02*
X89859819Y-99574874D01*
X89859819Y-99574874D02*
X89812200Y-99527255D01*
X89812200Y-99527255D02*
X89764580Y-99574874D01*
X89764580Y-99574874D02*
X89859819Y-99574874D01*
X88859819Y-100241540D02*
X88859819Y-100336778D01*
X88859819Y-100336778D02*
X88907438Y-100432016D01*
X88907438Y-100432016D02*
X88955057Y-100479635D01*
X88955057Y-100479635D02*
X89050295Y-100527254D01*
X89050295Y-100527254D02*
X89240771Y-100574873D01*
X89240771Y-100574873D02*
X89478866Y-100574873D01*
X89478866Y-100574873D02*
X89669342Y-100527254D01*
X89669342Y-100527254D02*
X89764580Y-100479635D01*
X89764580Y-100479635D02*
X89812200Y-100432016D01*
X89812200Y-100432016D02*
X89859819Y-100336778D01*
X89859819Y-100336778D02*
X89859819Y-100241540D01*
X89859819Y-100241540D02*
X89812200Y-100146302D01*
X89812200Y-100146302D02*
X89764580Y-100098683D01*
X89764580Y-100098683D02*
X89669342Y-100051064D01*
X89669342Y-100051064D02*
X89478866Y-100003445D01*
X89478866Y-100003445D02*
X89240771Y-100003445D01*
X89240771Y-100003445D02*
X89050295Y-100051064D01*
X89050295Y-100051064D02*
X88955057Y-100098683D01*
X88955057Y-100098683D02*
X88907438Y-100146302D01*
X88907438Y-100146302D02*
X88859819Y-100241540D01*
X90469819Y-93622493D02*
X91184104Y-93622493D01*
X91184104Y-93622493D02*
X91326961Y-93574874D01*
X91326961Y-93574874D02*
X91422200Y-93479636D01*
X91422200Y-93479636D02*
X91469819Y-93336779D01*
X91469819Y-93336779D02*
X91469819Y-93241541D01*
X91469819Y-94527255D02*
X90946009Y-94527255D01*
X90946009Y-94527255D02*
X90850771Y-94479636D01*
X90850771Y-94479636D02*
X90803152Y-94384398D01*
X90803152Y-94384398D02*
X90803152Y-94193922D01*
X90803152Y-94193922D02*
X90850771Y-94098684D01*
X91422200Y-94527255D02*
X91469819Y-94432017D01*
X91469819Y-94432017D02*
X91469819Y-94193922D01*
X91469819Y-94193922D02*
X91422200Y-94098684D01*
X91422200Y-94098684D02*
X91326961Y-94051065D01*
X91326961Y-94051065D02*
X91231723Y-94051065D01*
X91231723Y-94051065D02*
X91136485Y-94098684D01*
X91136485Y-94098684D02*
X91088866Y-94193922D01*
X91088866Y-94193922D02*
X91088866Y-94432017D01*
X91088866Y-94432017D02*
X91041247Y-94527255D01*
X90803152Y-95003446D02*
X91469819Y-95003446D01*
X90898390Y-95003446D02*
X90850771Y-95051065D01*
X90850771Y-95051065D02*
X90803152Y-95146303D01*
X90803152Y-95146303D02*
X90803152Y-95289160D01*
X90803152Y-95289160D02*
X90850771Y-95384398D01*
X90850771Y-95384398D02*
X90946009Y-95432017D01*
X90946009Y-95432017D02*
X91469819Y-95432017D01*
X90803152Y-96336779D02*
X91469819Y-96336779D01*
X90803152Y-95908208D02*
X91326961Y-95908208D01*
X91326961Y-95908208D02*
X91422200Y-95955827D01*
X91422200Y-95955827D02*
X91469819Y-96051065D01*
X91469819Y-96051065D02*
X91469819Y-96193922D01*
X91469819Y-96193922D02*
X91422200Y-96289160D01*
X91422200Y-96289160D02*
X91374580Y-96336779D01*
X91469819Y-97241541D02*
X90946009Y-97241541D01*
X90946009Y-97241541D02*
X90850771Y-97193922D01*
X90850771Y-97193922D02*
X90803152Y-97098684D01*
X90803152Y-97098684D02*
X90803152Y-96908208D01*
X90803152Y-96908208D02*
X90850771Y-96812970D01*
X91422200Y-97241541D02*
X91469819Y-97146303D01*
X91469819Y-97146303D02*
X91469819Y-96908208D01*
X91469819Y-96908208D02*
X91422200Y-96812970D01*
X91422200Y-96812970D02*
X91326961Y-96765351D01*
X91326961Y-96765351D02*
X91231723Y-96765351D01*
X91231723Y-96765351D02*
X91136485Y-96812970D01*
X91136485Y-96812970D02*
X91088866Y-96908208D01*
X91088866Y-96908208D02*
X91088866Y-97146303D01*
X91088866Y-97146303D02*
X91041247Y-97241541D01*
X91469819Y-97717732D02*
X90803152Y-97717732D01*
X90993628Y-97717732D02*
X90898390Y-97765351D01*
X90898390Y-97765351D02*
X90850771Y-97812970D01*
X90850771Y-97812970D02*
X90803152Y-97908208D01*
X90803152Y-97908208D02*
X90803152Y-98003446D01*
X90803152Y-98241542D02*
X91469819Y-98479637D01*
X90803152Y-98717732D02*
X91469819Y-98479637D01*
X91469819Y-98479637D02*
X91707914Y-98384399D01*
X91707914Y-98384399D02*
X91755533Y-98336780D01*
X91755533Y-98336780D02*
X91803152Y-98241542D01*
X90565057Y-99812971D02*
X90517438Y-99860590D01*
X90517438Y-99860590D02*
X90469819Y-99955828D01*
X90469819Y-99955828D02*
X90469819Y-100193923D01*
X90469819Y-100193923D02*
X90517438Y-100289161D01*
X90517438Y-100289161D02*
X90565057Y-100336780D01*
X90565057Y-100336780D02*
X90660295Y-100384399D01*
X90660295Y-100384399D02*
X90755533Y-100384399D01*
X90755533Y-100384399D02*
X90898390Y-100336780D01*
X90898390Y-100336780D02*
X91469819Y-99765352D01*
X91469819Y-99765352D02*
X91469819Y-100384399D01*
X90469819Y-101003447D02*
X90469819Y-101098685D01*
X90469819Y-101098685D02*
X90517438Y-101193923D01*
X90517438Y-101193923D02*
X90565057Y-101241542D01*
X90565057Y-101241542D02*
X90660295Y-101289161D01*
X90660295Y-101289161D02*
X90850771Y-101336780D01*
X90850771Y-101336780D02*
X91088866Y-101336780D01*
X91088866Y-101336780D02*
X91279342Y-101289161D01*
X91279342Y-101289161D02*
X91374580Y-101241542D01*
X91374580Y-101241542D02*
X91422200Y-101193923D01*
X91422200Y-101193923D02*
X91469819Y-101098685D01*
X91469819Y-101098685D02*
X91469819Y-101003447D01*
X91469819Y-101003447D02*
X91422200Y-100908209D01*
X91422200Y-100908209D02*
X91374580Y-100860590D01*
X91374580Y-100860590D02*
X91279342Y-100812971D01*
X91279342Y-100812971D02*
X91088866Y-100765352D01*
X91088866Y-100765352D02*
X90850771Y-100765352D01*
X90850771Y-100765352D02*
X90660295Y-100812971D01*
X90660295Y-100812971D02*
X90565057Y-100860590D01*
X90565057Y-100860590D02*
X90517438Y-100908209D01*
X90517438Y-100908209D02*
X90469819Y-101003447D01*
X90565057Y-101717733D02*
X90517438Y-101765352D01*
X90517438Y-101765352D02*
X90469819Y-101860590D01*
X90469819Y-101860590D02*
X90469819Y-102098685D01*
X90469819Y-102098685D02*
X90517438Y-102193923D01*
X90517438Y-102193923D02*
X90565057Y-102241542D01*
X90565057Y-102241542D02*
X90660295Y-102289161D01*
X90660295Y-102289161D02*
X90755533Y-102289161D01*
X90755533Y-102289161D02*
X90898390Y-102241542D01*
X90898390Y-102241542D02*
X91469819Y-101670114D01*
X91469819Y-101670114D02*
X91469819Y-102289161D01*
X90803152Y-103146304D02*
X91469819Y-103146304D01*
X90422200Y-102908209D02*
X91136485Y-102670114D01*
X91136485Y-102670114D02*
X91136485Y-103289161D01*
%TO.C,G\u002A\u002A\u002A*%
G36*
X84012500Y-136433186D02*
G01*
X84012500Y-136770852D01*
X85368750Y-136770852D01*
X86725000Y-136770852D01*
X86725000Y-137252339D01*
X86725000Y-137733826D01*
X85368750Y-137733826D01*
X84012500Y-137733826D01*
X84012500Y-138071492D01*
X84012500Y-138409158D01*
X83618750Y-138409158D01*
X83225000Y-138409158D01*
X83225000Y-137252339D01*
X83225000Y-136095520D01*
X83618750Y-136095520D01*
X84012500Y-136095520D01*
X84012500Y-136433186D01*
G37*
G36*
X85113554Y-134907465D02*
G01*
X85315533Y-134907607D01*
X85509635Y-134907859D01*
X85694435Y-134908214D01*
X85868504Y-134908666D01*
X86030416Y-134909207D01*
X86178743Y-134909830D01*
X86312060Y-134910529D01*
X86428938Y-134911296D01*
X86527952Y-134912126D01*
X86607673Y-134913009D01*
X86666675Y-134913941D01*
X86703531Y-134914914D01*
X86716814Y-134915921D01*
X86717025Y-134916278D01*
X86718819Y-134932816D01*
X86720304Y-134971266D01*
X86721450Y-135028831D01*
X86722225Y-135102712D01*
X86722599Y-135190112D01*
X86722541Y-135288235D01*
X86722023Y-135394281D01*
X86718750Y-135864156D01*
X84971874Y-135867326D01*
X83224999Y-135870496D01*
X83224999Y-135388966D01*
X83225000Y-134907435D01*
X84966666Y-134907435D01*
X85113554Y-134907465D01*
G37*
G36*
X86043147Y-133053398D02*
G01*
X86724625Y-133688085D01*
X86724812Y-134217512D01*
X86724616Y-134343540D01*
X86723885Y-134461349D01*
X86722642Y-134560287D01*
X86720914Y-134639125D01*
X86718728Y-134696637D01*
X86716112Y-134731595D01*
X86713093Y-134742771D01*
X86705332Y-134737099D01*
X86679389Y-134716661D01*
X86636680Y-134682449D01*
X86578619Y-134635611D01*
X86506621Y-134577297D01*
X86422101Y-134508657D01*
X86326474Y-134430838D01*
X86221153Y-134344990D01*
X86107554Y-134252262D01*
X85987090Y-134153804D01*
X85861178Y-134050763D01*
X85759996Y-133967927D01*
X85637899Y-133868015D01*
X85522219Y-133773404D01*
X85414393Y-133685267D01*
X85315857Y-133604776D01*
X85228046Y-133533102D01*
X85152396Y-133471418D01*
X85090343Y-133420895D01*
X85043323Y-133382705D01*
X85012771Y-133358020D01*
X85000125Y-133348013D01*
X84999747Y-133347759D01*
X84992333Y-133346334D01*
X84980182Y-133349955D01*
X84961672Y-133359820D01*
X84935179Y-133377129D01*
X84899080Y-133403083D01*
X84851750Y-133438879D01*
X84791567Y-133485719D01*
X84716908Y-133544800D01*
X84626148Y-133617324D01*
X84517665Y-133704489D01*
X84501266Y-133717689D01*
X84385321Y-133811011D01*
X84258652Y-133912965D01*
X84126292Y-134019499D01*
X83993275Y-134126560D01*
X83864636Y-134230099D01*
X83745408Y-134326062D01*
X83640625Y-134410398D01*
X83225000Y-134744919D01*
X83225949Y-134191490D01*
X83226898Y-133638060D01*
X83902357Y-133028385D01*
X84577816Y-132418710D01*
X84969742Y-132418710D01*
X85361669Y-132418710D01*
X86043147Y-133053398D01*
G37*
G36*
X86725000Y-130407049D02*
G01*
X86724999Y-130409357D01*
X86724951Y-130666551D01*
X86724802Y-130899699D01*
X86724544Y-131109760D01*
X86724169Y-131297693D01*
X86723668Y-131464456D01*
X86723035Y-131611007D01*
X86722260Y-131738305D01*
X86721336Y-131847308D01*
X86720254Y-131938975D01*
X86719006Y-132014264D01*
X86717585Y-132074135D01*
X86715982Y-132119544D01*
X86714189Y-132151451D01*
X86712197Y-132170814D01*
X86709999Y-132178592D01*
X86703191Y-132180643D01*
X86684719Y-132182660D01*
X86653766Y-132184476D01*
X86609367Y-132186100D01*
X86550561Y-132187539D01*
X86476385Y-132188802D01*
X86385875Y-132189897D01*
X86278068Y-132190832D01*
X86152002Y-132191616D01*
X86006714Y-132192256D01*
X85841241Y-132192762D01*
X85654619Y-132193141D01*
X85445887Y-132193401D01*
X85214080Y-132193551D01*
X84958237Y-132193599D01*
X83221475Y-132193599D01*
X83222466Y-132174840D01*
X86675000Y-132174840D01*
X86681250Y-132181093D01*
X86687500Y-132174840D01*
X86681250Y-132168587D01*
X86675000Y-132174840D01*
X83222466Y-132174840D01*
X83230231Y-132027893D01*
X83234183Y-131964887D01*
X83241102Y-131877446D01*
X83249248Y-131791326D01*
X83257575Y-131718366D01*
X83258266Y-131713067D01*
X83267557Y-131648650D01*
X83278778Y-131580227D01*
X83290985Y-131512587D01*
X83303238Y-131450521D01*
X83314594Y-131398819D01*
X83324112Y-131362270D01*
X83330851Y-131345665D01*
X83335352Y-131346255D01*
X83361469Y-131351895D01*
X83409625Y-131363086D01*
X83478426Y-131379486D01*
X83566477Y-131400752D01*
X83672384Y-131426540D01*
X83794751Y-131456510D01*
X83932184Y-131490317D01*
X84083288Y-131527620D01*
X84246670Y-131568074D01*
X84420933Y-131611339D01*
X84604683Y-131657071D01*
X84796526Y-131704927D01*
X84995067Y-131754566D01*
X85111835Y-131783781D01*
X85306560Y-131832450D01*
X85493736Y-131879172D01*
X85671971Y-131923600D01*
X85839875Y-131965391D01*
X85996054Y-132004200D01*
X86139118Y-132039682D01*
X86267675Y-132071492D01*
X86380333Y-132099286D01*
X86475700Y-132122720D01*
X86552384Y-132141448D01*
X86608995Y-132155126D01*
X86644139Y-132163410D01*
X86656427Y-132165955D01*
X86652346Y-132163653D01*
X86628211Y-132151709D01*
X86583531Y-132130135D01*
X86519597Y-132099541D01*
X86437697Y-132060536D01*
X86339120Y-132013731D01*
X86225156Y-131959736D01*
X86097093Y-131899161D01*
X85956221Y-131832616D01*
X85803829Y-131760710D01*
X85641205Y-131684055D01*
X85469639Y-131603259D01*
X85290420Y-131518934D01*
X85104837Y-131431688D01*
X84989363Y-131377408D01*
X84807466Y-131291834D01*
X84632692Y-131209526D01*
X84466334Y-131131095D01*
X84309683Y-131057155D01*
X84164033Y-130988319D01*
X84030677Y-130925198D01*
X83910907Y-130868406D01*
X83806016Y-130818555D01*
X83717298Y-130776257D01*
X83646044Y-130742126D01*
X83593548Y-130716775D01*
X83561102Y-130700815D01*
X83550000Y-130694859D01*
X83550204Y-130694017D01*
X83557662Y-130677591D01*
X83574259Y-130644203D01*
X83597817Y-130598174D01*
X83626159Y-130543821D01*
X83629915Y-130536731D01*
X83664719Y-130474311D01*
X83707610Y-130401745D01*
X83755662Y-130323585D01*
X83805944Y-130244381D01*
X83855530Y-130168685D01*
X83901491Y-130101048D01*
X83940898Y-130046022D01*
X83970822Y-130008157D01*
X84006250Y-129967520D01*
X85343302Y-131061800D01*
X85448297Y-131147721D01*
X85604162Y-131275230D01*
X85753955Y-131397723D01*
X85896568Y-131514300D01*
X86030898Y-131624056D01*
X86155837Y-131726090D01*
X86270279Y-131819500D01*
X86373118Y-131903383D01*
X86463249Y-131976836D01*
X86539565Y-132038958D01*
X86600960Y-132088846D01*
X86646328Y-132125597D01*
X86674563Y-132148310D01*
X86681250Y-132153508D01*
X86684560Y-132156081D01*
X86684418Y-132155511D01*
X86674708Y-132142007D01*
X86652017Y-132112697D01*
X86618617Y-132070456D01*
X86576774Y-132018158D01*
X86528758Y-131958678D01*
X86326834Y-131709549D01*
X86122125Y-131456947D01*
X85932271Y-131222631D01*
X85756799Y-131006017D01*
X85595235Y-130806516D01*
X85447106Y-130623542D01*
X85311940Y-130456510D01*
X85189262Y-130304831D01*
X85078600Y-130167920D01*
X84979480Y-130045191D01*
X84891429Y-129936055D01*
X84813974Y-129839928D01*
X84746642Y-129756223D01*
X84688960Y-129684352D01*
X84640453Y-129623729D01*
X84600650Y-129573769D01*
X84569077Y-129533883D01*
X84545260Y-129503487D01*
X84528727Y-129481992D01*
X84519004Y-129468813D01*
X84515618Y-129463362D01*
X84520001Y-129455100D01*
X84541517Y-129433595D01*
X84577854Y-129402646D01*
X84625601Y-129364865D01*
X84681349Y-129322864D01*
X84741688Y-129279255D01*
X84803208Y-129236649D01*
X84862500Y-129197658D01*
X84900130Y-129174520D01*
X84961783Y-129138445D01*
X85029644Y-129100255D01*
X85094632Y-129065133D01*
X85233015Y-128992288D01*
X85962525Y-130561494D01*
X86020925Y-130687085D01*
X86105858Y-130869622D01*
X86187486Y-131044927D01*
X86265208Y-131211712D01*
X86338421Y-131368689D01*
X86406523Y-131514570D01*
X86468912Y-131648069D01*
X86524985Y-131767897D01*
X86574140Y-131872766D01*
X86615775Y-131961389D01*
X86649287Y-132032478D01*
X86674075Y-132084746D01*
X86689536Y-132116904D01*
X86695067Y-132127666D01*
X86694292Y-132123494D01*
X86688376Y-132097912D01*
X86676952Y-132050255D01*
X86660365Y-131981916D01*
X86638958Y-131894290D01*
X86613074Y-131788769D01*
X86583056Y-131666748D01*
X86549249Y-131529621D01*
X86511995Y-131378780D01*
X86471638Y-131215620D01*
X86428521Y-131041534D01*
X86382988Y-130857916D01*
X86335382Y-130666159D01*
X86286047Y-130467658D01*
X86258432Y-130356583D01*
X86209861Y-130161056D01*
X86163141Y-129972784D01*
X86118622Y-129793185D01*
X86076652Y-129623676D01*
X86037582Y-129465676D01*
X86001761Y-129320602D01*
X85969540Y-129189872D01*
X85941267Y-129074905D01*
X85917292Y-128977117D01*
X85897966Y-128897928D01*
X85883637Y-128838754D01*
X85874656Y-128801015D01*
X85871372Y-128786127D01*
X85871478Y-128779479D01*
X85876991Y-128770185D01*
X85892337Y-128761681D01*
X85921207Y-128752641D01*
X85967290Y-128741741D01*
X86034274Y-128727659D01*
X86042441Y-128725991D01*
X86178498Y-128700417D01*
X86304469Y-128681672D01*
X86432013Y-128668265D01*
X86572788Y-128658702D01*
X86725000Y-128650514D01*
X86725000Y-130407049D01*
G37*
%TD*%
M02*
